{
	"asset":{
		"copyright":"PXLmesh, LLC",
		"generator":"Khronos glTF Blender I/O v3.6.27",
		"version":"2.0"
	},
	"scene":0,
	"scenes":[
		{
			"name":"Scene",
			"nodes":[
				0,
				1,
				2
			]
		}
	],
	"nodes":[
		{
			"mesh":0,
			"name":"d20_obsidian",
			"rotation":[
				0,
				0,
				1,
				1.6292068494294654e-07
			],
			"translation":[
				3,
				0,
				0
			]
		},
		{
			"mesh":1,
			"name":"d20_metal",
			"rotation":[
				0,
				0,
				1,
				1.6292068494294654e-07
			],
			"translation":[
				-3,
				0,
				0
			]
		},
		{
			"mesh":2,
			"name":"d20_red_plastic",
			"rotation":[
				0,
				0,
				1,
				1.6292068494294654e-07
			]
		}
	],
	"materials":[
		{
			"doubleSided":true,
			"name":"obsidian",
			"normalTexture":{
				"index":0
			},
			"pbrMetallicRoughness":{
				"baseColorTexture":{
					"index":1
				},
				"metallicRoughnessTexture":{
					"index":2
				}
			}
		},
		{
			"doubleSided":true,
			"name":"metal",
			"pbrMetallicRoughness":{
				"baseColorTexture":{
					"index":3
				},
				"metallicRoughnessTexture":{
					"index":4
				}
			}
		},
		{
			"doubleSided":true,
			"name":"red plastic",
			"pbrMetallicRoughness":{
				"baseColorTexture":{
					"index":5
				},
				"metallicFactor":0,
				"roughnessFactor":0.20000000298023224
			}
		}
	],
	"meshes":[
		{
			"name":"d20_obsidian",
			"primitives":[
				{
					"attributes":{
						"POSITION":0,
						"NORMAL":1,
						"TEXCOORD_0":2
					},
					"indices":3,
					"material":0
				}
			]
		},
		{
			"name":"d20_metal",
			"primitives":[
				{
					"attributes":{
						"POSITION":4,
						"NORMAL":5,
						"TEXCOORD_0":6
					},
					"indices":3,
					"material":1
				}
			]
		},
		{
			"name":"d20_plastic",
			"primitives":[
				{
					"attributes":{
						"POSITION":7,
						"NORMAL":8,
						"TEXCOORD_0":9
					},
					"indices":3,
					"material":2
				}
			]
		}
	],
	"textures":[
		{
			"sampler":0,
			"source":0
		},
		{
			"sampler":0,
			"source":1
		},
		{
			"sampler":0,
			"source":2
		},
		{
			"sampler":0,
			"source":3
		},
		{
			"sampler":0,
			"source":4
		},
		{
			"sampler":0,
			"source":5
		}
	],
	"images":[
		{
			"mimeType":"image/png",
			"name":"Image_0",
			"uri":"textures/Image_0.png"
		},
		{
			"mimeType":"image/png",
			"name":"Image_1",
			"uri":"textures/Image_1.png"
		},
		{
			"mimeType":"image/png",
			"name":"Image_2",
			"uri":"textures/Image_2.png"
		},
		{
			"mimeType":"image/png",
			"name":"Image_0",
			"uri":"textures/Image_0-1.png"
		},
		{
			"mimeType":"image/png",
			"name":"Image_1",
			"uri":"textures/Image_1-1.png"
		},
		{
			"mimeType":"image/png",
			"name":"Image_0",
			"uri":"textures/Image_0-2.png"
		}
	],
	"accessors":[
		{
			"bufferView":0,
			"componentType":5126,
			"count":960,
			"max":[
				0.9259604215621948,
				1.0642800331115723,
				0.9669866561889648
			],
			"min":[
				-0.92596036195755,
				-1.0642801523208618,
				-0.9669865965843201
			],
			"type":"VEC3"
		},
		{
			"bufferView":1,
			"componentType":5126,
			"count":960,
			"type":"VEC3"
		},
		{
			"bufferView":2,
			"componentType":5126,
			"count":960,
			"type":"VEC2"
		},
		{
			"bufferView":3,
			"componentType":5123,
			"count":3228,
			"type":"SCALAR"
		},
		{
			"bufferView":4,
			"componentType":5126,
			"count":960,
			"max":[
				0.9259604215621948,
				1.0642800331115723,
				0.9669866561889648
			],
			"min":[
				-0.92596036195755,
				-1.0642801523208618,
				-0.9669865965843201
			],
			"type":"VEC3"
		},
		{
			"bufferView":5,
			"componentType":5126,
			"count":960,
			"type":"VEC3"
		},
		{
			"bufferView":6,
			"componentType":5126,
			"count":960,
			"type":"VEC2"
		},
		{
			"bufferView":7,
			"componentType":5126,
			"count":960,
			"max":[
				0.9259604215621948,
				1.0642800331115723,
				0.9669866561889648
			],
			"min":[
				-0.92596036195755,
				-1.0642801523208618,
				-0.9669865965843201
			],
			"type":"VEC3"
		},
		{
			"bufferView":8,
			"componentType":5126,
			"count":960,
			"type":"VEC3"
		},
		{
			"bufferView":9,
			"componentType":5126,
			"count":960,
			"type":"VEC2"
		}
	],
	"bufferViews":[
		{
			"buffer":0,
			"byteLength":11520,
			"byteOffset":0,
			"target":34962
		},
		{
			"buffer":0,
			"byteLength":11520,
			"byteOffset":11520,
			"target":34962
		},
		{
			"buffer":0,
			"byteLength":7680,
			"byteOffset":23040,
			"target":34962
		},
		{
			"buffer":0,
			"byteLength":6456,
			"byteOffset":30720,
			"target":34963
		},
		{
			"buffer":0,
			"byteLength":11520,
			"byteOffset":37176,
			"target":34962
		},
		{
			"buffer":0,
			"byteLength":11520,
			"byteOffset":48696,
			"target":34962
		},
		{
			"buffer":0,
			"byteLength":7680,
			"byteOffset":60216,
			"target":34962
		},
		{
			"buffer":0,
			"byteLength":11520,
			"byteOffset":67896,
			"target":34962
		},
		{
			"buffer":0,
			"byteLength":11520,
			"byteOffset":79416,
			"target":34962
		},
		{
			"buffer":0,
			"byteLength":7680,
			"byteOffset":90936,
			"target":34962
		}
	],
	"samplers":[
		{
			"magFilter":9729,
			"minFilter":9987
		}
	],
	"buffers":[
		{
			"byteLength":98616,
			"uri":"combined-dice.bin"
		}
	]
}
