<?xml version="1.0" encoding="UTF-8" standalone="no"?>
<!-- Created with Inkscape (http://www.inkscape.org/) -->

<svg
   xmlns:dc="http://purl.org/dc/elements/1.1/"
   xmlns:cc="http://creativecommons.org/ns#"
   xmlns:rdf="http://www.w3.org/1999/02/22-rdf-syntax-ns#"
   xmlns:svg="http://www.w3.org/2000/svg"
   xmlns="http://www.w3.org/2000/svg"
   xmlns:sodipodi="http://sodipodi.sourceforge.net/DTD/sodipodi-0.dtd"
   xmlns:inkscape="http://www.inkscape.org/namespaces/inkscape"
   width="32px"
   height="32px"
   id="svg5053"
   version="1.1"
   inkscape:version="0.48.2 r9819"
   sodipodi:docname="tree4.svg">
  <defs
     id="defs5055" />
  <sodipodi:namedview
     id="base"
     pagecolor="#ffffff"
     bordercolor="#666666"
     borderopacity="1.0"
     inkscape:pageopacity="0.0"
     inkscape:pageshadow="2"
     inkscape:zoom="22.395604"
     inkscape:cx="9.4138101"
     inkscape:cy="18.576213"
     inkscape:current-layer="layer1"
     showgrid="true"
     inkscape:grid-bbox="true"
     inkscape:document-units="px"
     inkscape:window-width="1600"
     inkscape:window-height="852"
     inkscape:window-x="0"
     inkscape:window-y="0"
     inkscape:window-maximized="1" />
  <metadata
     id="metadata5058">
    <rdf:RDF>
      <cc:Work
         rdf:about="">
        <dc:format>image/svg+xml</dc:format>
        <dc:type
           rdf:resource="http://purl.org/dc/dcmitype/StillImage" />
        <dc:title />
      </cc:Work>
    </rdf:RDF>
  </metadata>
  <g
     id="layer1"
     inkscape:label="Layer 1"
     inkscape:groupmode="layer">
    <g
       id="g8587">
      <g
         id="g8276">
        <g
           id="g8166"
           transform="matrix(0.95845236,0,0,1,0.73665862,0)">
          <path
             style="fill:#000000;fill-opacity:1;fill-rule:evenodd;stroke:#000000;stroke-width:0.30000001;stroke-linecap:round;stroke-miterlimit:4;stroke-opacity:1;stroke-dasharray:none;stroke-dashoffset:0"
             d="m 20.038096,19.54681 c 0.01603,-0.609578 0.237711,-1.232941 0.0243,-1.832071 -0.06902,-0.353237 0.55948,-0.606138 0.432638,-0.106569 -0.03091,0.54072 0.06995,1.07746 0.06896,1.61767 -0.06527,0.230886 -0.338162,0.248489 -0.525903,0.32097 z"
             id="path8071"
             inkscape:connector-curvature="0" />
          <g
             transform="matrix(0.89425844,0.21794588,-0.22949662,0.84924971,5.4055482,-1.5037384)"
             id="g8115">
            <path
               style="fill:#000000;fill-opacity:1;fill-rule:evenodd;stroke:#000000;stroke-width:0.29074895;stroke-linecap:round;stroke-miterlimit:4;stroke-opacity:1;stroke-dasharray:none;stroke-dashoffset:0"
               d="m 19.718318,16.660022 c 0.75324,0.162426 1.506264,-0.112997 2.258156,-0.13407 0.625268,-0.182469 0.872068,-0.890019 0.885311,-1.481971 0.122201,-1.286862 -0.009,-2.695672 -0.828662,-3.749512 -0.507616,-0.682125 -1.208471,-1.2974645 -2.061073,-1.4691837 -0.598158,-0.041385 -1.122441,0.2957457 -1.689829,0.4272317 -0.499365,0.210259 -0.495358,0.814329 -0.621168,1.26134 -0.130847,0.595612 -0.103044,1.208361 -0.02207,1.807395 0.04751,0.83243 0.229343,1.744567 0.848497,2.349597 0.211274,0.221693 0.847174,0.328751 0.373654,0.674525 -0.440665,0.219828 -1.029344,-0.06123 -1.114989,-0.552203 -0.104845,-0.398171 -0.02749,-0.85684 -0.290191,-1.203393 -0.17118,-0.491018 -0.04309,-1.075817 -0.381497,-1.507458 -0.188171,-0.525266 -0.04372,-1.090685 -0.07939,-1.631516 0.110322,-0.549323 0.695159,-0.791696 0.934761,-1.266569 0.582687,-0.7369972 1.637751,-0.8134502 2.489469,-0.6026483 0.461668,0.083846 0.982381,0.3024086 1.115177,0.7996003 0.193819,0.545271 0.601783,0.967365 0.867857,1.467938 0.317324,0.695784 0.5083,1.440484 0.775995,2.154862 0.14115,0.535856 -0.138511,1.070093 -0.512448,1.438112 -0.356046,0.491467 -0.79281,0.955942 -1.381035,1.158754 -0.577957,0.245266 -1.204926,0.331137 -1.80302,0.511719 -0.474092,0.279881 0.111122,-0.255156 0.192783,-0.407236 l 0.04372,-0.04532 -9e-6,5e-6 z"
               id="path8079"
               inkscape:connector-curvature="0" />
            <path
               style="fill:#000000;fill-opacity:1;fill-rule:evenodd;stroke:#000000;stroke-width:0.29074895;stroke-linecap:round;stroke-miterlimit:4;stroke-opacity:1;stroke-dasharray:none;stroke-dashoffset:0"
               d="m 18.666072,14.088391 c -0.173355,0.105629 -0.665262,0.459369 -0.726731,0.124189 0.220247,-0.129964 0.484913,-0.08706 0.726731,-0.124189 z"
               id="path8081"
               inkscape:connector-curvature="0" />
            <path
               style="fill:#000000;fill-opacity:1;fill-rule:evenodd;stroke:#000000;stroke-width:0.29074895;stroke-linecap:round;stroke-miterlimit:4;stroke-opacity:1;stroke-dasharray:none;stroke-dashoffset:0"
               d="m 19.092855,14.536423 c 0.04278,0.365663 -0.966778,0.485061 -0.490014,0.11891 0.160659,-0.05053 0.330531,-0.06405 0.490014,-0.11891 z"
               id="path8085"
               inkscape:connector-curvature="0" />
            <path
               style="fill:#000000;fill-opacity:1;fill-rule:evenodd;stroke:#000000;stroke-width:0.29074895;stroke-linecap:round;stroke-miterlimit:4;stroke-opacity:1;stroke-dasharray:none;stroke-dashoffset:0"
               d="m 19.131627,15.623462 c 0.229577,0.04578 0.722243,-0.361884 0.242386,-0.11715 -0.158386,0.160481 -0.816142,0.143773 -0.382951,-0.11896 0.206252,-0.20244 0.541374,-0.09493 0.224302,0.148174 l -0.03905,0.04204 -0.04468,0.0459 0,10e-7 z"
               id="path8087"
               inkscape:connector-curvature="0" />
            <path
               style="fill:#000000;fill-opacity:1;fill-rule:evenodd;stroke:#000000;stroke-width:0.29074895;stroke-linecap:round;stroke-miterlimit:4;stroke-opacity:1;stroke-dasharray:none;stroke-dashoffset:0"
               d="m 20.418616,16.058999 c -0.06767,0.2554 -0.925137,0.24915 -0.452784,0.03752 0.15038,-0.01923 0.303845,-0.0055 0.452784,-0.03752 z"
               id="path8089"
               inkscape:connector-curvature="0" />
            <path
               style="fill:#000000;fill-opacity:1;fill-rule:evenodd;stroke:#000000;stroke-width:0.29074895;stroke-linecap:round;stroke-miterlimit:4;stroke-opacity:1;stroke-dasharray:none;stroke-dashoffset:0"
               d="m 19.792495,16.131928 c -0.06766,0.255395 -0.925126,0.249152 -0.452783,0.03755 0.150381,-0.01922 0.303848,-0.0055 0.452783,-0.03755 z"
               id="path8089-5"
               inkscape:connector-curvature="0" />
            <path
               style="fill:#000000;fill-opacity:1;fill-rule:evenodd;stroke:#000000;stroke-width:0.29074895;stroke-linecap:round;stroke-miterlimit:4;stroke-opacity:1;stroke-dasharray:none;stroke-dashoffset:0"
               d="m 22.16918,11.714144 c 0.09399,0.403257 -0.947448,0.300398 -0.336491,0.09542 0.113153,-0.02782 0.229104,-0.0485 0.336491,-0.09542 z"
               id="path8109"
               inkscape:connector-curvature="0" />
            <path
               style="fill:#000000;fill-opacity:1;fill-rule:evenodd;stroke:#000000;stroke-width:0.29074895;stroke-linecap:round;stroke-miterlimit:4;stroke-opacity:1;stroke-dasharray:none;stroke-dashoffset:0"
               d="m 17.93473,13.134783 c 0.02751,0.239449 -0.589019,0.480315 -0.182469,0.160981 0.05911,-0.05554 0.11912,-0.110259 0.182469,-0.160981 z"
               id="path8111"
               inkscape:connector-curvature="0" />
            <path
               style="fill:#000000;fill-opacity:1;fill-rule:evenodd;stroke:#000000;stroke-width:0.29074895;stroke-linecap:round;stroke-miterlimit:4;stroke-opacity:1;stroke-dasharray:none;stroke-dashoffset:0"
               d="m 22.746445,12.071421 c -0.141046,0.195495 -0.722514,0.128177 -0.21541,0.0533 0.0718,-0.01777 0.143607,-0.03553 0.21541,-0.0533 z"
               id="path8113"
               inkscape:connector-curvature="0" />
          </g>
          <path
             style="fill:#000000;fill-opacity:1;fill-rule:evenodd;stroke:#000000;stroke-width:0.30000001;stroke-linecap:round;stroke-miterlimit:4;stroke-opacity:1;stroke-dasharray:none;stroke-dashoffset:0"
             d="m 21.786297,15.766897 c -0.200273,0.314824 -0.582832,0.721339 -0.929599,0.70162 0.182169,-0.23126 0.10618,-0.262475 0.05524,-0.259189 0.203228,-0.276996 0.546654,-0.396952 0.874356,-0.442431 z"
             id="path8128"
             inkscape:connector-curvature="0" />
          <path
             style="fill:#000000;fill-opacity:1;fill-rule:evenodd;stroke:#000000;stroke-width:0.30000001;stroke-linecap:round;stroke-miterlimit:4;stroke-opacity:1;stroke-dasharray:none;stroke-dashoffset:0"
             d="m 18.680005,15.994417 c 0.111701,0.257642 0.534742,0.794481 -0.01071,0.828336 -0.492661,0.01176 -0.593805,-0.775173 -0.05609,-0.784423 l 0.0668,-0.04391 -3e-6,-2e-6 z"
             id="path8130"
             inkscape:connector-curvature="0" />
          <path
             style="fill:#000000;fill-opacity:1;fill-rule:evenodd;stroke:#000000;stroke-width:0.30000001;stroke-linecap:round;stroke-miterlimit:4;stroke-opacity:1;stroke-dasharray:none;stroke-dashoffset:0"
             d="m 19.102105,16.375137 c 0.579597,0.27377 -0.572362,0.852383 -0.409753,0.25772 0.117279,-0.116348 0.320973,-0.106416 0.409753,-0.25772 z"
             id="path8132"
             inkscape:connector-curvature="0" />
          <path
             style="fill:#000000;fill-opacity:1;fill-rule:evenodd;stroke:#000000;stroke-width:0.30000001;stroke-linecap:round;stroke-miterlimit:4;stroke-opacity:1;stroke-dasharray:none;stroke-dashoffset:0"
             d="M 19.812427,17.506859 C 19.480464,17.153086 18.969735,17.015794 18.681125,16.615 c -0.453495,-0.131013 -0.210442,-1.155657 0.189543,-0.794272 0.114912,0.373846 0.296583,0.743438 0.667155,0.921571 0.246143,0.132194 0.931723,0.29949 0.460991,0.621513 -0.0635,0.04568 -0.132234,0.08557 -0.186387,0.143047 z"
             id="path8138"
             inkscape:connector-curvature="0" />
        </g>
        <path
           style="fill:#000000;fill-opacity:1;fill-rule:evenodd;stroke:#000000;stroke-width:0.30000001;stroke-linecap:round;stroke-miterlimit:4;stroke-opacity:1;stroke-dasharray:none;stroke-dashoffset:0"
           d="m 22.451513,14.463587 c -0.284862,0.134445 -0.824349,0.632844 -0.999002,0.39819 0.258138,-0.352176 0.593388,-0.359536 0.999002,-0.398188 l 0,-2e-6 z"
           id="path8246"
           inkscape:connector-curvature="0" />
        <path
           style="fill:#000000;fill-opacity:1;fill-rule:evenodd;stroke:#000000;stroke-width:0.30000001;stroke-linecap:round;stroke-miterlimit:4;stroke-opacity:1;stroke-dasharray:none;stroke-dashoffset:0"
           d="m 22.350019,14.818982 c -0.189257,0.446817 -0.594204,0.897195 -1.120145,0.864728 0.316293,-0.315454 0.549208,-0.78685 1.045276,-0.840126 l 0.07487,-0.0246 0,2e-6 z"
           id="path8248"
           inkscape:connector-curvature="0" />
        <path
           style="fill:#000000;fill-opacity:1;fill-rule:evenodd;stroke:#000000;stroke-width:0.30000001;stroke-linecap:round;stroke-miterlimit:4;stroke-opacity:1;stroke-dasharray:none;stroke-dashoffset:0"
           d="m 22.398639,15.840868 c -0.307126,0.158889 -0.770355,0.63426 -1.023953,0.509795 0.130596,-0.399917 0.663286,-0.471578 1.023953,-0.509795 z"
           id="path8250"
           inkscape:connector-curvature="0" />
        <path
           style="fill:#000000;fill-opacity:1;fill-rule:evenodd;stroke:#000000;stroke-width:0.30000001;stroke-linecap:round;stroke-miterlimit:4;stroke-opacity:1;stroke-dasharray:none;stroke-dashoffset:0"
           d="m 22.461966,15.008707 c -0.07488,0.366173 -0.243419,0.790984 -0.694749,0.7352 -0.364983,0.131683 0.17783,-0.386132 0.21481,-0.544022 0.129089,-0.133027 0.325252,-0.09861 0.479939,-0.191178 z"
           id="path8252"
           inkscape:connector-curvature="0" />
        <path
           style="fill:#000000;fill-opacity:1;fill-rule:evenodd;stroke:#000000;stroke-width:0.30000001;stroke-linecap:round;stroke-miterlimit:4;stroke-opacity:1;stroke-dasharray:none;stroke-dashoffset:0"
           d="m 21.555218,16.483432 c -0.329572,-0.474511 -0.486547,0.395566 -0.840605,0.396 -0.424155,-0.127593 0.275908,-0.497726 0.488089,-0.526429 0.337197,-0.02979 0.03172,0.363122 -0.06885,0.162243 0.138583,-0.01994 0.281437,-0.01005 0.421366,-0.03181 z"
           id="path8254"
           inkscape:connector-curvature="0" />
        <path
           style="fill:#000000;fill-opacity:1;fill-rule:evenodd;stroke:#000000;stroke-width:0.30000001;stroke-linecap:round;stroke-miterlimit:4;stroke-opacity:1;stroke-dasharray:none;stroke-dashoffset:0"
           d="m 19.271378,15.476408 c 0.20617,0.322712 -0.721505,0.440273 -0.305108,0.1572 0.10452,-0.04684 0.202883,-0.105804 0.305108,-0.1572 z"
           id="path8256"
           inkscape:connector-curvature="0" />
        <path
           style="fill:#000000;fill-opacity:1;fill-rule:evenodd;stroke:#000000;stroke-width:0.30000001;stroke-linecap:round;stroke-miterlimit:4;stroke-opacity:1;stroke-dasharray:none;stroke-dashoffset:0"
           d="m 18.670763,13.044187 c -0.01865,0.430144 -0.02436,1.053238 -0.576059,1.119737 -0.08993,-0.202504 0.07792,-0.552568 0.07365,-0.807183 0.09396,-0.191365 0.319793,-0.244302 0.502409,-0.312554 z"
           id="path8260"
           inkscape:connector-curvature="0" />
        <path
           style="fill:#000000;fill-opacity:1;fill-rule:evenodd;stroke:#000000;stroke-width:0.30000001;stroke-linecap:round;stroke-miterlimit:4;stroke-opacity:1;stroke-dasharray:none;stroke-dashoffset:0"
           d="m 20.146968,14.625624 c 0.04067,0.307227 -0.825834,0.5007 -0.499286,0.134065 0.156986,-0.07674 0.337882,-0.07096 0.499286,-0.134065 z"
           id="path8262"
           inkscape:connector-curvature="0" />
        <path
           style="fill:#000000;fill-opacity:1;fill-rule:evenodd;stroke:#000000;stroke-width:0.30000001;stroke-linecap:round;stroke-miterlimit:4;stroke-opacity:1;stroke-dasharray:none;stroke-dashoffset:0"
           d="m 20.423417,15.166653 c 0.06838,0.335128 -0.593556,0.855406 -0.711443,0.447821 0.120972,-0.280667 0.446698,-0.365527 0.711443,-0.447821 z"
           id="path8264"
           inkscape:connector-curvature="0" />
        <path
           style="fill:#000000;fill-opacity:1;fill-rule:evenodd;stroke:#000000;stroke-width:0.30000001;stroke-linecap:round;stroke-miterlimit:4;stroke-opacity:1;stroke-dasharray:none;stroke-dashoffset:0"
           d="m 20.792306,16.146931 c -0.243052,0.234872 -0.681075,0.714133 -1.001749,0.485554 0.228699,-0.274942 0.633844,-0.490409 1.001749,-0.485554 z"
           id="path8266"
           inkscape:connector-curvature="0" />
        <path
           style="fill:#000000;fill-opacity:1;fill-rule:evenodd;stroke:#000000;stroke-width:0.30000001;stroke-linecap:round;stroke-miterlimit:4;stroke-opacity:1;stroke-dasharray:none;stroke-dashoffset:0"
           d="m 22.155419,12.353475 c -0.08725,0.656394 0.189862,1.322547 0.0266,1.969863 -0.189441,0.319489 -0.712225,0.119502 -0.464126,-0.240702 0.01923,-0.444921 0.02954,-0.908376 -0.143616,-1.327755 0.02663,-0.295544 0.399085,-0.25755 0.581144,-0.401406 z"
           id="path8268"
           inkscape:connector-curvature="0" />
        <path
           style="fill:#000000;fill-opacity:1;fill-rule:evenodd;stroke:#000000;stroke-width:0.30000001;stroke-linecap:round;stroke-miterlimit:4;stroke-opacity:1;stroke-dasharray:none;stroke-dashoffset:0"
           d="m 21.210951,13.100348 c 0.407877,0.302083 -0.140155,1.174809 -0.448405,0.632374 -0.135859,-0.310314 0.162704,-0.584096 0.448405,-0.632374 z"
           id="path8270"
           inkscape:connector-curvature="0" />
        <path
           style="fill:#000000;fill-opacity:1;fill-rule:evenodd;stroke:#000000;stroke-width:0.30000001;stroke-linecap:round;stroke-miterlimit:4;stroke-opacity:1;stroke-dasharray:none;stroke-dashoffset:0"
           d="m 21.237628,14.857144 c -0.120372,0.116448 -0.705742,0.09204 -0.246865,0.03909 0.08229,-0.01303 0.164577,-0.02606 0.246865,-0.03909 z"
           id="path8272"
           inkscape:connector-curvature="0" />
        <path
           style="fill:#000000;fill-opacity:1;fill-rule:evenodd;stroke:#000000;stroke-width:0.30000001;stroke-linecap:round;stroke-miterlimit:4;stroke-opacity:1;stroke-dasharray:none;stroke-dashoffset:0"
           d="m 19.340798,13.603063 c 0.06617,-0.147611 0.400233,-0.499259 0.141252,-0.1812 -0.04697,0.06049 -0.09384,0.121058 -0.141252,0.1812 z"
           id="path8274"
           inkscape:connector-curvature="0" />
      </g>
      <path
         style="fill:#000000;fill-opacity:1;fill-rule:evenodd;stroke:#000000;stroke-width:0.30000001;stroke-linecap:round;stroke-miterlimit:4;stroke-opacity:1;stroke-dasharray:none;stroke-dashoffset:0"
         d="m 20.869412,16.893269 c -0.203545,0.474123 -0.101557,0.99517 0.01,1.476478 -0.05083,0.425888 0.259184,0.925146 0.03228,1.293051 -0.207793,0.205703 -0.559476,0.265719 -0.499328,-0.130027 -0.08082,-0.417586 -0.04275,-0.847895 -0.118246,-1.272104 0.06441,-0.395819 -0.272176,-1.006217 0.191277,-1.23295 0.129249,-0.0413 0.254114,-0.09524 0.384066,-0.134448 z"
         id="path8585"
         inkscape:connector-curvature="0" />
    </g>
  </g>
</svg>
