<?xml version="1.0" encoding="UTF-8" standalone="no"?>
<!-- Created with Inkscape (http://www.inkscape.org/) -->

<svg
   xmlns:dc="http://purl.org/dc/elements/1.1/"
   xmlns:cc="http://creativecommons.org/ns#"
   xmlns:rdf="http://www.w3.org/1999/02/22-rdf-syntax-ns#"
   xmlns:svg="http://www.w3.org/2000/svg"
   xmlns="http://www.w3.org/2000/svg"
   xmlns:sodipodi="http://sodipodi.sourceforge.net/DTD/sodipodi-0.dtd"
   xmlns:inkscape="http://www.inkscape.org/namespaces/inkscape"
   width="32px"
   height="32px"
   id="svg5053"
   version="1.1"
   inkscape:version="0.48.3.1 r9886"
   sodipodi:docname="tree2.svg">
  <defs
     id="defs5055" />
  <sodipodi:namedview
     id="base"
     pagecolor="#ffffff"
     bordercolor="#666666"
     borderopacity="1.0"
     inkscape:pageopacity="0.0"
     inkscape:pageshadow="2"
     inkscape:zoom="64"
     inkscape:cx="19.3174"
     inkscape:cy="14.4251"
     inkscape:current-layer="layer1"
     showgrid="true"
     inkscape:grid-bbox="true"
     inkscape:document-units="px"
     inkscape:window-width="1600"
     inkscape:window-height="853"
     inkscape:window-x="0"
     inkscape:window-y="0"
     inkscape:window-maximized="1" />
  <metadata
     id="metadata5058">
    <rdf:RDF>
      <cc:Work
         rdf:about="">
        <dc:format>image/svg+xml</dc:format>
        <dc:type
           rdf:resource="http://purl.org/dc/dcmitype/StillImage" />
        <dc:title />
      </cc:Work>
    </rdf:RDF>
  </metadata>
  <g
     id="layer1"
     inkscape:label="Layer 1"
     inkscape:groupmode="layer">
    <g
       id="g6958">
      <path
         style="fill:#000000;fill-opacity:1;fill-rule:evenodd;stroke:#000000;stroke-width:0.30000001;stroke-linecap:round;stroke-miterlimit:4;stroke-opacity:1;stroke-dasharray:none;stroke-dashoffset:0"
         d="m 18.4375,11.03125 c -0.161452,0.0034 -0.308417,0.212828 -0.25,0.4375 -0.20637,0.0205 -0.462161,0.131484 -0.40625,0.40625 0.139012,-0.04324 0.297466,-0.08522 0.4375,-0.125 0.028,-0.01569 0.0402,-0.01665 0.0625,-0.03125 0.0066,0.01273 0.02446,0.0186 0.03125,0.03125 -0.525726,0.146876 -0.609625,0.599036 -0.861568,0.91959 0.225667,-0.0599 0.300317,0.250728 0.486568,0.08041 0.01671,-0.05572 0.08411,-0.1235 0.125,-0.1875 0.116949,-0.183039 0.263932,-0.383824 0.3125,-0.5625 -0.02995,0.07497 -0.04119,0.176877 -0.03125,0.3125 -0.118516,0.04807 -0.241231,0.128343 -0.28125,0.25 0.02116,0.119896 0.0691,0.209203 0.125,0.3125 -0.191528,0.07924 -0.562886,0.179019 -0.709856,0.377208 C 17.876987,13.328773 17.282501,13.705452 16.875,14 c 0.578597,-0.06701 0.03272,0.161029 0.0871,0.428576 0.535215,-0.112011 0.733474,-0.677863 0.975405,-0.959826 0.160251,-0.05791 0.277463,-0.171179 0.375,-0.3125 0.02282,0.03509 0.07137,0.05804 0.09375,0.09375 -3.33e-4,0.01039 3.33e-4,0.02086 0,0.03125 0.0442,0.07005 0.08003,0.146156 0.125,0.21875 -0.399149,-0.152554 -1.085094,0.922592 -1.348319,1.178637 0.593205,-0.19941 0.294631,-0.01856 0.06707,0.196363 -0.255382,0.265764 -0.115029,0.100306 -0.415113,0.432961 0.45701,-0.0997 0.551232,-0.156099 0.977613,-0.464211 -0.218523,0.223609 -0.508213,0.479624 -0.517879,0.627239 1.245759,-0.806604 0.71704,-0.193458 -0.07587,0.466511 -0.486906,0.253661 0.234099,0.172276 0.40625,0.0625 0.240803,-0.174298 0.48128,-0.373177 0.6875,-0.59375 -0.0042,0.104008 0.0034,0.20848 0,0.3125 -0.373962,0.2001 -0.631363,0.556395 -1,0.65625 -0.62027,0.358208 -0.286613,-0.22694 -0.890625,0.164063 0.64147,-0.125999 0.4375,0.244791 0.320312,0.40625 -1.277935,0.894395 0.777724,-0.463791 1.007813,-0.570313 0.178538,-0.189108 0.338183,-0.375364 0.5625,-0.4375 0.04354,0.107615 -0.08673,0.130088 -0.125,0.1875 -0.141898,0.0929 -0.290042,0.165586 -0.4375,0.25 -0.498565,0.445171 -0.929531,0.758929 0,0.3125 -0.212243,0.248083 -0.468008,0.476061 -0.71875,0.6875 -0.435683,0.175717 0.0671,0.276376 0.25,0.09375 0.299456,-0.278705 0.623122,-0.548414 0.90625,-0.84375 0.02976,0.026 0.06135,0.03654 0.09375,0.0625 0.207742,0.580418 -0.288313,0.231781 -0.398437,0.320313 -0.299567,0.44031 -0.433225,0.927138 -0.945313,1.117187 -0.3912,0.197718 -1.23417,0.214476 -1.28125,0.65625 0.684997,-0.241734 1.368372,-0.50031 2,-0.875 0.02863,-0.02154 0.06369,-0.04178 0.09375,-0.0625 -0.264985,0.354999 -0.548306,0.692377 -0.90625,0.96875 -0.510475,0.397561 0.291271,0.317822 0.4375,0.03125 0.303976,-0.370044 0.617612,-0.736008 0.781263,-0.647973 0.163652,0.08804 -0.601264,0.763424 -0.968763,1.210473 -0.277455,0.113757 -0.559321,0.219606 -0.84375,0.3125 -0.492448,0.284176 -1.191923,0.104859 -1.5625,0.59375 0.745351,-0.16594 1.472851,-0.38678 2.1875,-0.65625 -0.0338,0.04604 -0.04374,0.07615 0,0.09375 -0.2,0.05365 -0.398622,0.08728 -0.59375,0.15625 0.03086,0.02937 0.01319,0.121733 0.03125,0.15625 -0.07464,0.0077 -0.144099,-0.0076 -0.21875,0 -0.364889,-0.199734 -0.620541,0.50566 -0.125,0.28125 0.589838,-0.353988 1.290144,-0.518288 1.90625,-0.8125 0.272927,0.382789 -0.543416,0.335368 -0.804687,0.75 -0.207409,0.284065 -0.19163,0.432488 -0.351563,0.625 -0.434996,0.208088 0.0715,0.260259 0.25,0.125 0.355703,-0.253959 0.702665,-0.554629 1.0625,-0.8125 0.0418,-0.02995 0.08265,-0.06464 0.125,-0.09375 0.0956,0.187022 0.289973,0.385004 0.46875,0.4375 0.0654,-0.249189 0.247326,-0.0742 0.3125,-0.09375 0.05187,0.27781 0.383867,0.35121 0.5,0.21875 0.06983,0.05522 0.14723,0.103402 0.21875,0.15625 0.13104,0.323083 0.821912,0.212287 0.4375,-0.09375 -0.591652,-0.333144 -1.074981,-0.869654 -1.34375,-1.5 0.36363,0.254818 0.916907,0.654202 1.28125,0.90625 0.610363,0.09603 -0.01219,-0.336091 -0.21875,-0.4375 -0.202116,-0.172983 -0.412074,-0.383429 -0.59375,-0.59375 0.39816,0.07714 0.890032,0.559412 1.15625,0.1875 -0.484617,-0.192492 -1.013628,-0.376058 -1.4375,-0.6875 0.04135,-0.01962 0.08285,-0.04444 0.125,-0.0625 -0.223538,0.154887 -0.182036,-0.136527 -0.25,-0.1875 0.08158,0.08981 0.155825,0.156548 0.25,0.1875 0.09417,0.03095 0.198037,0.01633 0.3125,-0.0625 0.0098,-0.241099 -0.207944,-0.476596 -0.40625,-0.71875 0.214481,0.161158 0.424342,0.30967 0.65625,0.4375 0.267413,0.275933 1.069904,-0.136549 0.4375,-0.28125 -0.376735,-0.187623 -0.77808,-0.402092 -1.03125,-0.75 0.07939,-0.05327 0.17193,-0.109423 0.25,-0.15625 -0.04896,-0.241306 -0.453537,-0.514824 -0.71875,-0.8125 0.04491,-0.04983 0.08068,-0.105887 0.125,-0.15625 0.181468,0.08879 0.419731,0.174388 0.53125,0.28125 0.372376,0.248898 1.055978,0.771489 1.3125,0.125 -0.480707,-0.351832 -1.149869,-0.493653 -1.5625,-0.96875 -0.09449,0.0642 -0.186769,0.123289 -0.28125,0.1875 -0.03355,-0.0984 0.105017,-0.383556 -0.087,-0.256747 -0.497698,-0.0045 -0.0022,-0.120705 -0.0067,-0.368253 0.4566,0.312382 0.970096,0.572007 1.5,0.71875 0.541719,-9.66e-4 -0.257462,-0.36428 -0.46875,-0.375 -0.284462,-0.191404 -0.597343,-0.39802 -0.84375,-0.65625 0.02762,-0.05353 0.07014,-0.100477 0.09375,-0.15625 -0.05585,0.02143 -0.128221,0.04638 -0.1875,0.0625 -0.04826,-0.05664 -0.0841,-0.126528 -0.125,-0.1875 0.02243,-0.02828 0.03996,-0.0669 0.0625,-0.09375 -0.02883,0.0091 -0.06418,-0.0059 -0.09375,0 0.05163,-0.03089 0.10349,-0.06466 0.15625,-0.09375 -0.06892,-0.0038 -0.149803,-0.006 -0.21875,0 -0.02548,-0.0526 -0.0465,-0.101105 -0.0625,-0.15625 0.03725,-0.05145 0.09106,-0.102435 0.125,-0.15625 -0.0344,0.03904 -0.08866,0.02215 -0.125057,0.03125 0.08954,-0.130183 0.143694,-0.290775 0.15625,-0.46875 0.06919,0.113226 0.136388,0.229636 0.1875,0.34375 0.199984,0.506887 0.878332,0.162523 0.5,-0.28125 -0.42886,-0.290399 -0.680996,-0.820424 -0.65625,-1.34375 0.145355,0.206065 0.320677,0.42168 0.46875,0.625 0.105531,-0.128032 0.254858,-0.170886 0.375,-0.28125 0.01777,-0.45197 -0.73123,-0.707529 -0.78125,-1.25 -0.0085,-0.20952 -0.113806,-0.314701 -0.21875,-0.3125 z m -0.40625,9.1875 c -0.01908,0.145916 -0.03966,0.292012 -0.0625,0.4375 -0.19343,0.899527 -0.358247,1.843692 -0.8125,2.65625 0.415291,-0.0632 0.77579,-0.156176 0.6875,-0.65625 0.03695,-0.813751 0.107044,-1.626798 0.1875,-2.4375 z M 18.375,11.875 c 0.01195,0.02033 0.01894,0.04236 0.03125,0.0625 -0.01192,0.0061 -0.02255,0.01827 -0.03125,0.03125 0.0062,-0.03063 0.0037,-0.06562 0,-0.09375 z m 0.125,0.1875 c 0.0311,0.04732 0.03003,0.10967 0.0625,0.15625 -0.03281,0.01857 -0.05634,0.04737 -0.09375,0.0625 0.0065,-0.07246 0.02687,-0.146161 0.03125,-0.21875 z m 0,3.8125 c 0.0029,0.0078 -0.0055,0.02352 0,0.03125 -0.03666,0.02574 -0.05671,0.06829 -0.09375,0.09375 -0.02194,-0.05556 -0.04184,0 -0.0625,0 0.001,-0.02065 -0.001,-0.04185 0,-0.0625 0.03431,-0.0073 0.05628,-0.03076 0.09375,-0.03125 0.02899,-0.01273 0.03835,-0.01849 0.0625,-0.03125 z m -0.0625,3.03125 c 0.06941,0.170126 -0.201091,0.100545 -0.25,0.125 0.07951,-0.04596 1.814898,2.007959 0.25,-0.125 z M 18.5625,19 c 0.0029,0.01856 -0.368128,0.410048 0.03125,0.03125 C 18.55406,19.098961 18.580396,19.017896 18.5625,19 z m -1.21875,0.59375 c 0.04462,-0.05876 0.07937,-0.129494 0.125,-0.1875 0.37471,-0.01115 -0.07067,0.106007 -0.125,0.1875 z"
         id="path6868"
         inkscape:connector-curvature="0"
         sodipodi:nodetypes="scccccccsccccccccccccccccccccccccccccccccccccccccccccccccccccccsccccccccccccccsccccccccccccccccccccccccccccccccccsccccccccccccccccccccccccccccc" />
      <path
         style="fill:#000000;fill-opacity:1;fill-rule:evenodd;stroke:#000000;stroke-width:0.30000001;stroke-linecap:round;stroke-miterlimit:4;stroke-opacity:1;stroke-dasharray:none;stroke-dashoffset:0"
         d="m 18.0859,20.011425 c -0.153348,0.167927 -0.851421,0.514087 -0.454302,0.06007 0.09633,-0.147545 0.449182,-0.362714 0.105159,-0.170005 -0.566726,0.358475 0.178981,0.0677 0.349143,0.109935 z"
         id="path6872"
         inkscape:connector-curvature="0" />
    </g>
  </g>
</svg>
