<?xml version="1.0" encoding="UTF-8" standalone="no"?>
<svg xmlns:dc="http://purl.org/dc/elements/1.1/" xmlns:cc="http://web.resource.org/cc/" xmlns:rdf="http://www.w3.org/1999/02/22-rdf-syntax-ns#" xmlns:svg="http://www.w3.org/2000/svg" xmlns="http://www.w3.org/2000/svg" xmlns:sodipodi="http://sodipodi.sourceforge.net/DTD/sodipodi-0.dtd" xmlns:inkscape="http://www.inkscape.org/namespaces/inkscape" width="426.21051" height="426.21051" id="svg2" sodipodi:version="0.32" inkscape:version="0.44+devel" sodipodi:docname="urwald_wind_rose_compass_rose.svg" inkscape:output_extension="org.inkscape.output.svg.inkscape" sodipodi:docbase="C:\Documents and Settings\Molumen\Desktop" version="1.0">
  <metadata id="metadata235">
    <rdf:RDF>
      <cc:Work rdf:about="">
        <dc:format>image/svg+xml</dc:format>
        <dc:type rdf:resource="http://purl.org/dc/dcmitype/StillImage"/>
      </cc:Work>
    </rdf:RDF>
  </metadata>
  <defs id="defs233"/>
  <sodipodi:namedview inkscape:window-height="603" inkscape:window-width="920" inkscape:pageshadow="2" inkscape:pageopacity="0.0" guidetolerance="10.0" gridtolerance="10.0" objecttolerance="10.0" borderopacity="1.0" bordercolor="#666666" pagecolor="#ffffff" id="base" inkscape:zoom="0.38669834" inkscape:cx="371.87561" inkscape:cy="526.25" inkscape:window-x="44" inkscape:window-y="58" inkscape:current-layer="svg2"/>
  <g transform="matrix(0.9238795,-0.3826834,0.3826834,0.9238795,49.425756,280.90376)" style="fill:none;stroke:#000000;stroke-width:0.66823401pt;stroke-linecap:round;stroke-linejoin:miter;stroke-dasharray:none" id="g4">
    <path d="M 0,0 L 177.165,0" id="path6"/>
  </g>
  <g transform="matrix(0.8898468,-0.4562595,0.4562595,0.8898468,49.425756,280.90376)" style="fill:none;stroke:#000000;stroke-width:0.66823401pt;stroke-linecap:round;stroke-linejoin:miter;stroke-dasharray:none" id="g8">
    <path d="M 0,0 L 141.975,0" id="path10"/>
  </g>
  <g transform="matrix(0.9338834,-0.3575776,0.3575776,0.9338834,49.425756,280.90376)" style="fill:none;stroke:#000000;stroke-width:0.66823401pt;stroke-linecap:round;stroke-linejoin:miter;stroke-dasharray:none" id="g12">
    <path d="M 0,0 L 141.997,0" id="path14"/>
  </g>
  <g transform="matrix(0.9432058,-0.3322089,0.3322089,0.9432058,49.425756,280.90376)" style="fill:none;stroke:#000000;stroke-width:0.66823401pt;stroke-linecap:round;stroke-linejoin:miter;stroke-dasharray:none" id="g16">
    <path d="M 0,0 L 141.989,0" id="path18"/>
  </g>
  <g transform="matrix(0.9518409,-0.3065925,0.3065925,0.9518409,49.425756,280.90376)" style="fill:none;stroke:#000000;stroke-width:0.66823401pt;stroke-linecap:round;stroke-linejoin:miter;stroke-dasharray:none" id="g20">
    <path d="M 0,0 L 141.975,0" id="path22"/>
  </g>
  <g transform="matrix(0.9238795,0.3826834,-0.3826834,0.9238795,49.425756,145.30776)" style="fill:none;stroke:#000000;stroke-width:0.66823401pt;stroke-linecap:round;stroke-linejoin:miter;stroke-dasharray:none" id="g24">
    <path d="M 0,0 L 177.165,0" id="path26"/>
  </g>
  <g transform="matrix(0.9518409,0.3065925,-0.3065925,0.9518409,49.425756,145.30776)" style="fill:none;stroke:#000000;stroke-width:0.66823401pt;stroke-linecap:round;stroke-linejoin:miter;stroke-dasharray:none" id="g28">
    <path d="M 0,0 L 141.975,0" id="path30"/>
  </g>
  <g transform="matrix(0.9132044,0.4075018,-0.4075018,0.9132044,49.425756,145.30776)" style="fill:none;stroke:#000000;stroke-width:0.66823401pt;stroke-linecap:round;stroke-linejoin:miter;stroke-dasharray:none" id="g32">
    <path d="M 0,0 L 141.997,0" id="path34"/>
  </g>
  <g transform="matrix(0.9018551,0.4320385,-0.4320385,0.9018551,49.425756,145.30776)" style="fill:none;stroke:#000000;stroke-width:0.66823401pt;stroke-linecap:round;stroke-linejoin:miter;stroke-dasharray:none" id="g36">
    <path d="M 0,0 L 141.989,0" id="path38"/>
  </g>
  <g transform="matrix(0.8898468,0.4562595,-0.4562595,0.8898468,49.425756,145.30776)" style="fill:none;stroke:#000000;stroke-width:0.66823401pt;stroke-linecap:round;stroke-linejoin:miter;stroke-dasharray:none" id="g40">
    <path d="M 0,0 L 141.975,0" id="path42"/>
  </g>
  <g transform="matrix(0.3826834,-0.9238795,0.9238795,0.3826834,145.30676,376.78476)" style="fill:none;stroke:#000000;stroke-width:0.66823401pt;stroke-linecap:round;stroke-linejoin:miter;stroke-dasharray:none" id="g44">
    <path d="M 0,0 L 177.165,0" id="path46"/>
  </g>
  <g transform="matrix(0.3065925,-0.9518409,0.9518409,0.3065925,145.30676,376.78476)" style="fill:none;stroke:#000000;stroke-width:0.66823401pt;stroke-linecap:round;stroke-linejoin:miter;stroke-dasharray:none" id="g48">
    <path d="M 0,0 L 141.975,0" id="path50"/>
  </g>
  <g transform="matrix(0.4075098,-0.9132008,0.9132008,0.4075098,145.30676,376.78476)" style="fill:none;stroke:#000000;stroke-width:0.66823401pt;stroke-linecap:round;stroke-linejoin:miter;stroke-dasharray:none" id="g52">
    <path d="M 0,0 L 141.997,0" id="path54"/>
  </g>
  <g transform="matrix(0.4320401,-0.9018544,0.9018544,0.4320401,145.30676,376.78476)" style="fill:none;stroke:#000000;stroke-width:0.66823401pt;stroke-linecap:round;stroke-linejoin:miter;stroke-dasharray:none" id="g56">
    <path d="M 0,0 L 141.989,0" id="path58"/>
  </g>
  <g transform="matrix(0.4562595,-0.8898468,0.8898468,0.4562595,145.30676,376.78476)" style="fill:none;stroke:#000000;stroke-width:0.66823401pt;stroke-linecap:round;stroke-linejoin:miter;stroke-dasharray:none" id="g60">
    <path d="M 0,0 L 141.975,0" id="path62"/>
  </g>
  <g transform="matrix(-0.9238795,0.3826834,-0.3826834,-0.9238795,376.78376,145.30776)" style="fill:none;stroke:#000000;stroke-width:0.66823401pt;stroke-linecap:round;stroke-linejoin:miter;stroke-dasharray:none" id="g64">
    <path d="M 0,0 L 177.165,0" id="path66"/>
  </g>
  <g transform="matrix(-0.8888573,0.4581842,-0.4581842,-0.8888573,376.78376,145.30776)" style="fill:none;stroke:#000000;stroke-width:0.66823401pt;stroke-linecap:round;stroke-linejoin:miter;stroke-dasharray:none" id="g68">
    <path d="M 0,0 L 141.975,0" id="path70"/>
  </g>
  <g transform="matrix(-0.9129054,0.4081711,-0.4081711,-0.9129054,376.78376,145.30776)" style="fill:none;stroke:#000000;stroke-width:0.66823401pt;stroke-linecap:round;stroke-linejoin:miter;stroke-dasharray:none" id="g72">
    <path d="M 0,0 L 141.997,0" id="path74"/>
  </g>
  <g transform="matrix(-0.9012283,0.4333445,-0.4333445,-0.9012283,376.78376,145.30776)" style="fill:none;stroke:#000000;stroke-width:0.66823401pt;stroke-linecap:round;stroke-linejoin:miter;stroke-dasharray:none" id="g76">
    <path d="M 0,0 L 141.989,0" id="path78"/>
  </g>
  <g transform="matrix(-0.9525022,0.3045318,-0.3045318,-0.9525022,376.78376,145.30776)" style="fill:none;stroke:#000000;stroke-width:0.66823401pt;stroke-linecap:round;stroke-linejoin:miter;stroke-dasharray:none" id="g80">
    <path d="M 0,0 L 141.975,0" id="path82"/>
  </g>
  <g transform="matrix(-0.3826834,0.9238795,-0.9238795,-0.3826834,280.90276,49.426756)" style="fill:none;stroke:#000000;stroke-width:0.66823401pt;stroke-linecap:round;stroke-linejoin:miter;stroke-dasharray:none" id="g84">
    <path d="M 0,0 L 177.165,0" id="path86"/>
  </g>
  <g transform="matrix(-0.3045318,0.9525022,-0.9525022,-0.3045318,280.90276,49.426756)" style="fill:none;stroke:#000000;stroke-width:0.66823401pt;stroke-linecap:round;stroke-linejoin:miter;stroke-dasharray:none" id="g88">
    <path d="M 0,0 L 141.975,0" id="path90"/>
  </g>
  <g transform="matrix(-0.356901,0.9341422,-0.9341422,-0.356901,280.90276,49.426756)" style="fill:none;stroke:#000000;stroke-width:0.66823401pt;stroke-linecap:round;stroke-linejoin:miter;stroke-dasharray:none" id="g92">
    <path d="M 0,0 L 141.997,0" id="path94"/>
  </g>
  <g transform="matrix(-0.3308438,0.9436855,-0.9436855,-0.3308438,280.90276,49.426756)" style="fill:none;stroke:#000000;stroke-width:0.66823401pt;stroke-linecap:round;stroke-linejoin:miter;stroke-dasharray:none" id="g96">
    <path d="M 0,0 L 141.989,0" id="path98"/>
  </g>
  <g transform="matrix(-0.4581842,0.8888573,-0.8888573,-0.4581842,280.90276,49.426756)" style="fill:none;stroke:#000000;stroke-width:0.66823401pt;stroke-linecap:round;stroke-linejoin:miter;stroke-dasharray:none" id="g100">
    <path d="M 0,0 L 141.975,0" id="path102"/>
  </g>
  <g transform="matrix(0.3826834,0.9238795,-0.9238795,0.3826834,145.30676,49.426756)" style="fill:none;stroke:#000000;stroke-width:0.66823401pt;stroke-linecap:round;stroke-linejoin:miter;stroke-dasharray:none" id="g104">
    <path d="M 0,0 L 177.165,0" id="path106"/>
  </g>
  <g transform="matrix(0.4581842,0.8888573,-0.8888573,0.4581842,145.30676,49.426756)" style="fill:none;stroke:#000000;stroke-width:0.66823401pt;stroke-linecap:round;stroke-linejoin:miter;stroke-dasharray:none" id="g108">
    <path d="M 0,0 L 141.975,0" id="path110"/>
  </g>
  <g transform="matrix(0.4081711,0.9129054,-0.9129054,0.4081711,145.30676,49.426756)" style="fill:none;stroke:#000000;stroke-width:0.66823401pt;stroke-linecap:round;stroke-linejoin:miter;stroke-dasharray:none" id="g112">
    <path d="M 0,0 L 141.997,0" id="path114"/>
  </g>
  <g transform="matrix(0.4333445,0.9012283,-0.9012283,0.4333445,145.30676,49.426756)" style="fill:none;stroke:#000000;stroke-width:0.66823401pt;stroke-linecap:round;stroke-linejoin:miter;stroke-dasharray:none" id="g116">
    <path d="M 0,0 L 141.989,0" id="path118"/>
  </g>
  <g transform="matrix(0.3045318,0.9525022,-0.9525022,0.3045318,145.30676,49.426756)" style="fill:none;stroke:#000000;stroke-width:0.66823401pt;stroke-linecap:round;stroke-linejoin:miter;stroke-dasharray:none" id="g120">
    <path d="M 0,0 L 141.975,0" id="path122"/>
  </g>
  <g transform="matrix(-0.3826834,-0.9238795,0.9238795,-0.3826834,280.90276,376.78476)" style="fill:none;stroke:#000000;stroke-width:0.66823401pt;stroke-linecap:round;stroke-linejoin:miter;stroke-dasharray:none" id="g124">
    <path d="M 0,0 L 177.165,0" id="path126"/>
  </g>
  <g transform="matrix(-0.4581842,-0.8888573,0.8888573,-0.4581842,280.90276,376.78476)" style="fill:none;stroke:#000000;stroke-width:0.66823401pt;stroke-linecap:round;stroke-linejoin:miter;stroke-dasharray:none" id="g128">
    <path d="M 0,0 L 141.975,0" id="path130"/>
  </g>
  <g transform="matrix(-0.4081711,-0.9129054,0.9129054,-0.4081711,280.90276,376.78476)" style="fill:none;stroke:#000000;stroke-width:0.66823401pt;stroke-linecap:round;stroke-linejoin:miter;stroke-dasharray:none" id="g132">
    <path d="M 0,0 L 141.997,0" id="path134"/>
  </g>
  <g transform="matrix(-0.4333445,-0.9012283,0.9012283,-0.4333445,280.90276,376.78476)" style="fill:none;stroke:#000000;stroke-width:0.66823401pt;stroke-linecap:round;stroke-linejoin:miter;stroke-dasharray:none" id="g136">
    <path d="M 0,0 L 141.989,0" id="path138"/>
  </g>
  <g transform="matrix(-0.3045318,-0.9525022,0.9525022,-0.3045318,280.90276,376.78476)" style="fill:none;stroke:#000000;stroke-width:0.66823401pt;stroke-linecap:round;stroke-linejoin:miter;stroke-dasharray:none" id="g140">
    <path d="M 0,0 L 141.975,0" id="path142"/>
  </g>
  <g transform="matrix(-0.9238795,-0.3826834,0.3826834,-0.9238795,376.78376,280.90376)" style="fill:none;stroke:#000000;stroke-width:0.66823401pt;stroke-linecap:round;stroke-linejoin:miter;stroke-dasharray:none" id="g144">
    <path d="M 0,0 L 177.165,0" id="path146"/>
  </g>
  <g transform="matrix(-0.9525022,-0.3045318,0.3045318,-0.9525022,376.78376,280.90376)" style="fill:none;stroke:#000000;stroke-width:0.66823401pt;stroke-linecap:round;stroke-linejoin:miter;stroke-dasharray:none" id="g148">
    <path d="M 0,0 L 141.975,0" id="path150"/>
  </g>
  <g transform="matrix(-0.9341422,-0.356901,0.356901,-0.9341422,376.78376,280.90376)" style="fill:none;stroke:#000000;stroke-width:0.66823401pt;stroke-linecap:round;stroke-linejoin:miter;stroke-dasharray:none" id="g152">
    <path d="M 0,0 L 141.997,0" id="path154"/>
  </g>
  <g transform="matrix(-0.9436855,-0.3308438,0.3308438,-0.9436855,376.78376,280.90376)" style="fill:none;stroke:#000000;stroke-width:0.66823401pt;stroke-linecap:round;stroke-linejoin:miter;stroke-dasharray:none" id="g156">
    <path d="M 0,0 L 141.989,0" id="path158"/>
  </g>
  <g transform="matrix(-0.8888573,-0.4581842,0.4581842,-0.8888573,376.78376,280.90376)" style="fill:none;stroke:#000000;stroke-width:0.66823401pt;stroke-linecap:round;stroke-linejoin:miter;stroke-dasharray:none" id="g160">
    <path d="M 0,0 L 141.975,0" id="path162"/>
  </g>
  <g transform="matrix(0.7071068,-0.7071068,0.7071068,0.7071068,65.666756,65.666756)" style="fill:#ffffff;fill-rule:evenodd;stroke:#000000;stroke-width:0.37728pt;stroke-linecap:butt;stroke-linejoin:miter;stroke-dasharray:none" id="g164">
    <path d="M 10.6946,208.544 C 10.6946,208.544 10.6946,208.544 1.69776,22.0709 C 9.99792,17.1662 5.6592,7.16832 2.38212e-014,0 C 2.38212e-014,0 0,208.544 0,208.544 C 0,208.544 10.6946,208.544 10.6946,208.544 z" id="path166"/>
  </g>
  <g transform="matrix(0.7071068,-0.7071068,0.7071068,0.7071068,58.104756,73.228756)" style="fill:#000000;fill-rule:evenodd;stroke:#000000;stroke-width:0.37728pt;stroke-linecap:butt;stroke-linejoin:miter;stroke-dasharray:none" id="g168">
    <path d="M 0,208.544 C 0,208.544 0,208.544 8.99681,22.0709 C 0.696648,17.1662 5.03537,7.16832 10.6946,0 C 10.6946,0 10.6946,208.544 10.6946,208.544 C 10.6946,208.544 0,208.544 0,208.544 z" id="path170"/>
  </g>
  <g transform="matrix(-0.7071068,0.7071068,-0.7071068,-0.7071068,360.54276,360.54276)" style="fill:#000000;fill-rule:evenodd;stroke:#000000;stroke-width:0.37728pt;stroke-linecap:butt;stroke-linejoin:miter;stroke-dasharray:none" id="g172">
    <path d="M 10.6946,208.544 C 10.6946,208.544 10.6946,208.544 1.69776,22.0709 C 9.99792,17.1663 5.6592,7.16832 1.37668e-013,0 C 1.37668e-013,0 0,208.544 0,208.544 C 0,208.544 10.6946,208.544 10.6946,208.544 z" id="path174"/>
  </g>
  <g transform="matrix(-0.7071068,0.7071068,-0.7071068,-0.7071068,368.10376,352.97976)" style="fill:#ffffff;fill-rule:evenodd;stroke:#000000;stroke-width:0.37728pt;stroke-linecap:butt;stroke-linejoin:miter;stroke-dasharray:none" id="g176">
    <path d="M 0,208.544 C 0,208.544 0,208.544 8.99682,22.0709 C 0.696648,17.1663 5.03537,7.16832 10.6946,0 C 10.6946,0 10.6946,208.544 10.6946,208.544 C 10.6946,208.544 0,208.544 0,208.544 z" id="path178"/>
  </g>
  <g transform="matrix(-0.7071068,-0.7071068,0.7071068,-0.7071068,65.666756,360.54276)" style="fill:#ffffff;fill-rule:evenodd;stroke:#000000;stroke-width:0.37728pt;stroke-linecap:butt;stroke-linejoin:miter;stroke-dasharray:none" id="g180">
    <path d="M 10.6946,208.544 C 10.6946,208.544 10.6946,208.544 1.69776,22.0709 C 9.99792,17.1663 5.6592,7.16832 2.55795e-013,0 C 2.55795e-013,0 0,208.544 0,208.544 C 0,208.544 10.6946,208.544 10.6946,208.544 z" id="path182"/>
  </g>
  <g transform="matrix(-0.7071068,-0.7071068,0.7071068,-0.7071068,73.229756,368.10376)" style="fill:#000000;fill-rule:evenodd;stroke:#000000;stroke-width:0.37728pt;stroke-linecap:butt;stroke-linejoin:miter;stroke-dasharray:none" id="g184">
    <path d="M 0,208.544 C 0,208.544 0,208.544 8.99682,22.0709 C 0.696648,17.1663 5.03537,7.16832 10.6946,0 C 10.6946,0 10.6946,208.544 10.6946,208.544 C 10.6946,208.544 0,208.544 0,208.544 z" id="path186"/>
  </g>
  <g transform="matrix(0.7071068,0.7071068,-0.7071068,0.7071068,360.54276,65.665756)" style="fill:#000000;fill-rule:evenodd;stroke:#000000;stroke-width:0.37728pt;stroke-linecap:butt;stroke-linejoin:miter;stroke-dasharray:none" id="g188">
    <path d="M 10.6946,208.544 C 10.6946,208.544 10.6946,208.544 1.69776,22.0709 C 9.99792,17.1663 5.6592,7.16832 0,0 C 0,0 0,208.544 0,208.544 C 0,208.544 10.6946,208.544 10.6946,208.544 z" id="path190"/>
  </g>
  <g transform="matrix(0.7071068,0.7071068,-0.7071068,0.7071068,352.97976,58.104756)" style="fill:#ffffff;fill-rule:evenodd;stroke:#000000;stroke-width:0.37728pt;stroke-linecap:butt;stroke-linejoin:miter;stroke-dasharray:none" id="g192">
    <path d="M 0,208.544 C 0,208.544 0,208.544 8.99682,22.0709 C 0.696648,17.1663 5.03537,7.16832 10.6946,0 C 10.6946,0 10.6946,208.544 10.6946,208.544 C 10.6946,208.544 0,208.544 0,208.544 z" id="path194"/>
  </g>
  <g transform="matrix(0,1,-1,0,425.70376,198.74076)" style="fill:#ffffff;fill-rule:evenodd;stroke:#000000;stroke-width:0.81080904pt;stroke-linecap:butt;stroke-linejoin:round;stroke-dasharray:none" id="g196">
    <path d="M 12.411,28.7295 C 13.2154,17.2376 5.59476,17.2376 5.74582,17.2376 C 5.74582,17.2376 13.2154,17.2376 14.3645,0 C 14.3645,0 14.3645,212.598 14.3645,212.598 C 14.3645,212.598 0,198.233 0,198.233 C 0,198.233 12.411,28.7295 12.411,28.7295 z" id="path198"/>
  </g>
  <g transform="matrix(0,1,-1,0,425.70376,213.10576)" style="fill:#000000;fill-rule:evenodd;stroke:#000000;stroke-width:0.81080904pt;stroke-linecap:butt;stroke-linejoin:round;stroke-dasharray:none" id="g200">
    <path d="M 1.95358,28.7295 C 1.14918,17.2376 8.76979,17.2376 8.61874,17.2376 C 8.61874,17.2376 1.14918,17.2376 6.98609e-014,0 C 6.98609e-014,0 0,212.598 0,212.598 C 0,212.598 14.3645,198.233 14.3645,198.233 C 14.3645,198.233 1.95358,28.7295 1.95358,28.7295 z" id="path202"/>
  </g>
  <g transform="matrix(0,-1,1,0,0.5067557,227.46976)" style="fill:#000000;fill-rule:evenodd;stroke:#000000;stroke-width:0.81080904pt;stroke-linecap:butt;stroke-linejoin:round;stroke-dasharray:none" id="g204">
    <path d="M 12.4111,28.7295 C 13.2155,17.2376 5.59483,17.2376 5.74588,17.2376 C 5.74589,17.2376 13.2155,17.2376 14.3647,0 C 14.3647,0 14.3647,212.598 14.3647,212.598 C 14.3647,212.598 0,198.233 0,198.233 C 0,198.233 12.4111,28.7295 12.4111,28.7295 z" id="path206"/>
  </g>
  <g transform="matrix(0,-1,1,0,0.5067557,213.10476)" style="fill:#ffffff;fill-rule:evenodd;stroke:#000000;stroke-width:0.81080904pt;stroke-linecap:butt;stroke-linejoin:round;stroke-dasharray:none" id="g208">
    <path d="M 1.9536,28.7295 C 1.1492,17.2376 8.76988,17.2376 8.61882,17.2376 C 8.61882,17.2376 1.1492,17.2376 0,0 C 0,0 1.24345e-014,212.598 1.24345e-014,212.598 C 1.24345e-014,212.598 14.3647,198.233 14.3647,198.233 C 14.3647,198.233 1.9536,28.7295 1.9536,28.7295 z" id="path210"/>
  </g>
  <g transform="translate(198.74076,0.5067557)" style="fill:#ffffff;fill-rule:evenodd;stroke:#000000;stroke-width:0.81080904pt;stroke-linecap:butt;stroke-linejoin:round;stroke-dasharray:none" id="g212">
    <path d="M 12.411,28.7295 C 13.2154,17.2376 5.59476,17.2376 5.74582,17.2376 C 5.74582,17.2376 13.2154,17.2376 14.3645,0 C 14.3645,0 14.3645,212.598 14.3645,212.598 C 14.3645,212.598 0,198.233 0,198.233 C 0,198.233 12.411,28.7295 12.411,28.7295 z" id="path214"/>
  </g>
  <g transform="translate(213.10576,0.5067557)" style="fill:#000000;fill-rule:evenodd;stroke:#000000;stroke-width:0.81080904pt;stroke-linecap:butt;stroke-linejoin:round;stroke-dasharray:none" id="g216">
    <path d="M 1.95358,28.7295 C 1.14918,17.2376 8.76979,17.2376 8.61874,17.2376 C 8.61874,17.2376 1.14918,17.2376 5.68434e-014,0 C 5.68434e-014,0 0,212.598 0,212.598 C 0,212.598 14.3645,198.233 14.3645,198.233 C 14.3645,198.233 1.95358,28.7295 1.95358,28.7295 z" id="path218"/>
  </g>
  <g transform="matrix(-1,0,0,-1,227.46976,425.70376)" style="fill:#000000;fill-rule:evenodd;stroke:#000000;stroke-width:0.81080904pt;stroke-linecap:butt;stroke-linejoin:round;stroke-dasharray:none" id="g220">
    <path d="M 12.4111,28.7295 C 13.2155,17.2376 5.59483,17.2376 5.74588,17.2376 C 5.74589,17.2376 13.2155,17.2376 14.3647,0 C 14.3647,0 14.3647,212.598 14.3647,212.598 C 14.3647,212.598 0,198.233 0,198.233 C 0,198.233 12.4111,28.7295 12.4111,28.7295 z" id="path222"/>
  </g>
  <g transform="matrix(-1,0,0,-1,213.10576,425.70376)" style="fill:#ffffff;fill-rule:evenodd;stroke:#000000;stroke-width:0.81080904pt;stroke-linecap:butt;stroke-linejoin:round;stroke-dasharray:none" id="g224">
    <path d="M 1.9536,28.7295 C 1.1492,17.2376 8.76988,17.2376 8.61882,17.2376 C 8.61882,17.2376 1.1492,17.2376 2.66454e-014,0 C 2.66454e-014,0 0,212.598 0,212.598 C 0,212.598 14.3647,198.233 14.3647,198.233 C 14.3647,198.233 1.9536,28.7295 1.9536,28.7295 z" id="path226"/>
  </g>
  <g transform="matrix(0.7071068,0.7071068,-0.7071068,0.7071068,213.10576,213.10576)" style="fill:none;stroke:#ffffff;stroke-width:0.81080904pt;stroke-linecap:round;stroke-linejoin:miter;stroke-dasharray:none" id="g228">
    <path d="M 0,0 L 20.3175,0" id="path230"/>
  </g>
</svg>