<?xml version="1.0" encoding="UTF-8" standalone="no"?>
<svg xmlns:dc="http://purl.org/dc/elements/1.1/" xmlns:cc="http://web.resource.org/cc/" xmlns:rdf="http://www.w3.org/1999/02/22-rdf-syntax-ns#" xmlns:svg="http://www.w3.org/2000/svg" xmlns="http://www.w3.org/2000/svg" xmlns:sodipodi="http://inkscape.sourceforge.net/DTD/sodipodi-0.dtd" xmlns:inkscape="http://www.inkscape.org/namespaces/inkscape" version="1.0" viewBox="0 0 21000 29700" preserveAspectRatio="xMidYMid" fill-rule="evenodd" id="svg1891" sodipodi:version="0.32" inkscape:version="0.43" width="550pt" height="600pt" sodipodi:docname="dog.svg" sodipodi:docbase="C:\Clipart\Egen">
  <metadata id="metadata2062">
    <rdf:RDF>
      <cc:Work rdf:about="">
        <dc:format>image/svg+xml</dc:format>
        <dc:type rdf:resource="http://purl.org/dc/dcmitype/StillImage"/>
        <dc:title>Dog</dc:title>
        <cc:license rdf:resource="http://web.resource.org/cc/PublicDomain"/>
      </cc:Work>
      <cc:License rdf:about="http://web.resource.org/cc/PublicDomain">
        <cc:permits rdf:resource="http://web.resource.org/cc/Reproduction"/>
        <cc:permits rdf:resource="http://web.resource.org/cc/Distribution"/>
        <cc:permits rdf:resource="http://web.resource.org/cc/DerivativeWorks"/>
      </cc:License>
    </rdf:RDF>
  </metadata>
  <defs id="defs2060">
    <desc id="desc1897">Slide</desc>
  </defs>
  <sodipodi:namedview inkscape:window-height="540" inkscape:window-width="812" inkscape:pageshadow="2" inkscape:pageopacity="0.0" borderopacity="1.0" bordercolor="#666666" pagecolor="#ffffff" id="base" inkscape:zoom="0.35824168" inkscape:cx="372.04724" inkscape:cy="481.8954" inkscape:window-x="0" inkscape:window-y="0" inkscape:current-layer="svg1891"/>
  <g visibility="visible" id="Default" style="visibility: visible;">
    <desc id="desc1894">Master slide</desc>
  </g>
  <g style="visibility: visible;" id="g1967" transform="matrix(4.49444, 0, 0, 4.49444, -58521.2, -48226.3)">
    <desc id="desc1969">Graphic</desc>
    <g id="g1971">
      <g id="g1973" style="fill: rgb(0, 0, 0); stroke: none;">
        <path id="path1975" d="M 13695,10907 L 13813,10907 L 14163,11082 L 14397,11610 L 14279,11667 L 14222,11610 L 14104,11726 L 14104,11901 L 14222,12488 L 14279,12547 L 14163,12547 L 14104,12488 L 14045,12547 L 14045,12604 L 13988,12604 L 13929,12547 L 13929,12488 L 13870,12429 L 13813,12429 L 13754,12488 L 13695,12429 L 13578,12253 L 13285,11901 L 13228,11785 L 13169,11551 L 13169,11433 L 13228,11375 L 13228,11316 L 13169,11257 L 13285,11257 L 13344,11199 L 13285,11082 L 13228,11023 L 13169,11023 L 13110,11082 L 13110,11141 L 12993,11141 L 12935,11082 L 12935,11023 L 13052,10964 L 13285,10964 L 13344,11082 L 13344,11492 L 13403,11551 L 13519,11433 L 13462,11375 L 13462,11141 L 13519,11199 L 13578,11141 L 13519,11082 L 13578,11082 L 13637,11141 L 13695,11082 L 13695,10907 z M 14338,11023 L 14338,11082 L 14397,11141 L 14514,11199 L 14573,11199 L 14630,11257 L 14573,11316 L 14514,11316 L 14279,11082 L 14338,11023 z M 13637,11551 L 13754,11551 L 13813,11610 L 13870,11726 L 13870,11785 L 13813,11901 L 13754,11960 L 13637,11960 L 13519,11901 L 13403,11785 L 13462,11726 L 13519,11785 L 13578,11785 L 13637,11726 L 13637,11667 L 13578,11610 L 13637,11551 z M 13110,11610 L 13228,11960 L 13344,12136 L 13344,12194 L 13285,12253 L 13344,12312 L 13403,12253 L 13462,12312 L 13462,12370 L 13754,12663 L 13813,12779 L 13813,12838 L 13754,12956 L 13695,13014 L 13813,13131 L 13870,13073 L 13870,13131 L 12993,13131 L 12877,13073 L 12818,13014 L 12877,12956 L 12818,12897 L 12759,12897 L 12700,12956 L 12643,12956 L 12700,12722 L 13519,13014 L 13637,13014 L 13695,12956 L 13695,12897 L 13637,12838 L 13519,12779 L 13110,12779 L 12759,12604 L 12759,12547 L 12818,12312 L 13052,11667 L 13110,11610 z M 13929,11726 L 13988,11785 L 13988,11844 L 13929,11901 L 13870,11844 L 13870,11785 L 13929,11726 z M 14222,11844 L 14279,11901 L 14279,11960 L 14222,11901 L 14222,11844 z M 14104,12019 L 14163,12078 L 14104,12136 L 14045,12078 L 14104,12019 z M 13695,12136 L 13754,12194 L 13754,12253 L 13695,12312 L 13637,12253 L 13637,12194 L 13695,12136 z M 13403,12429 L 13462,12488 L 13403,12547 L 13344,12488 L 13403,12429 z M 13403,12604 L 13462,12604 L 13519,12663 L 13462,12722 L 13403,12722 L 13344,12663 L 13403,12604 z M 12935,12897 L 13052,13014 L 12993,13073 L 12935,13073 L 12877,13014 L 12877,12956 L 12935,12897 z M 13169,12956 L 13228,12956 L 13285,13014 L 13285,13073 L 13228,13131 L 13110,13014 L 13169,12956 z M 12700,13131 L 12759,13131 L 12993,13248 L 13344,13307 L 13285,13366 L 13228,13366 L 13169,13425 L 13228,13482 L 13285,13482 L 13344,13425 L 13403,13425 L 13344,13482 L 13403,13541 L 13519,13482 L 13637,13366 L 13578,13307 L 13637,13307 L 13695,13366 L 13578,13482 L 13519,13482 L 13403,13600 L 13462,13659 L 13519,13600 L 13637,13541 L 13695,13541 L 13754,13482 L 13813,13366 L 13754,13307 L 13813,13248 L 13813,13307 L 13870,13366 L 13929,13307 L 13929,13366 L 13988,13482 L 14045,13541 L 14104,13482 L 14104,13425 L 14279,13541 L 14279,13600 L 14222,13600 L 14163,13659 L 14222,13775 L 14279,13834 L 14338,13775 L 14338,13716 L 14455,13716 L 14514,13775 L 14514,13834 L 14455,13775 L 14397,13834 L 14514,13951 L 14573,13893 L 14630,13893 L 15625,14479 L 15743,14597 L 15918,14713 L 16035,14772 L 16094,14772 L 16151,14831 L 16151,14889 L 16385,15123 L 16444,15123 L 16503,15182 L 16854,15709 L 16970,15826 L 17029,15826 L 17145,15885 L 17204,15943 L 17555,15943 L 17789,15826 L 17848,15767 L 17964,15532 L 17964,15065 L 17905,14948 L 17673,14713 L 17730,14713 L 17848,14772 L 17905,14831 L 18023,15006 L 18081,15182 L 18081,15532 L 17905,15767 L 17730,15943 L 17555,16001 L 17088,16001 L 16970,15943 L 16736,15709 L 16736,15650 L 16619,15475 L 16560,15416 L 16503,15416 L 16444,15475 L 16444,15532 L 16560,15650 L 16619,15826 L 16619,16001 L 16560,16060 L 16503,16001 L 16385,16001 L 16328,16060 L 16328,16119 L 16269,16235 L 16151,16235 L 16094,16178 L 16151,16060 L 16210,16001 L 16151,15943 L 16035,16060 L 16035,16001 L 16094,15943 L 16094,15826 L 16035,15767 L 15976,15826 L 15976,15943 L 15918,16119 L 15859,16119 L 15859,16060 L 15918,16001 L 15918,15943 L 15859,15885 L 15800,15943 L 15800,16001 L 15743,16060 L 15743,16001 L 15800,15943 L 15743,15885 L 15625,16001 L 15625,16060 L 15743,16178 L 15859,16235 L 15918,16235 L 15976,16294 L 15976,16353 L 16035,16412 L 16151,16412 L 16210,16353 L 16269,16353 L 16503,16587 L 16503,16822 L 16385,16822 L 16385,16763 L 16328,16704 L 16269,16763 L 16269,16822 L 15859,16822 L 16035,16646 L 15976,16587 L 15450,16294 L 15098,15943 L 14923,15650 L 14923,15300 L 15039,15241 L 15215,15182 L 15274,15182 L 15333,15241 L 15450,15300 L 15625,15357 L 15859,15357 L 15918,15300 L 15918,15241 L 15859,15123 L 15800,15065 L 15743,15123 L 15743,15241 L 15684,15241 L 15625,15182 L 15625,15123 L 15568,15065 L 14982,15065 L 14748,15182 L 14748,15123 L 14864,15006 L 14805,14948 L 14630,15123 L 14573,15065 L 14514,15123 L 14514,15241 L 14455,15241 L 14514,15006 L 14573,14889 L 14573,14831 L 14514,14772 L 14455,14831 L 14455,14889 L 14397,15006 L 14338,15065 L 14338,15006 L 14397,14948 L 14338,14889 L 14279,14948 L 14279,14831 L 14222,14772 L 14163,14772 L 14045,14479 L 14045,14363 L 13988,14304 L 13929,14363 L 13929,14538 L 13988,14713 L 14104,14831 L 14104,15123 L 13988,15006 L 13929,15065 L 13988,15241 L 14045,15300 L 14045,15532 L 13988,15885 L 13929,15943 L 13929,16001 L 13988,16060 L 14045,16060 L 14045,16119 L 13988,16178 L 13929,16294 L 13988,16353 L 13988,16880 L 13870,16880 L 13813,16938 L 13870,16997 L 13870,17056 L 13695,17056 L 13637,17115 L 13578,17115 L 13462,17056 L 13403,16997 L 13462,16938 L 13637,16880 L 13695,16880 L 13754,16822 L 13813,16704 L 13813,16294 L 13754,16235 L 13754,15943 L 13813,15885 L 13813,15826 L 13578,15065 L 13578,14538 L 13637,14538 L 13637,14654 L 13754,14772 L 13813,14713 L 13754,14654 L 13695,14479 L 13695,14420 L 13637,14363 L 13578,14363 L 13519,14420 L 13403,14654 L 13403,15006 L 13285,14889 L 13285,14772 L 13228,14713 L 13052,14713 L 12993,14654 L 12877,14479 L 12818,14363 L 12700,14010 L 12759,14010 L 12818,13951 L 12818,13775 L 12759,13716 L 12700,13775 L 12700,13131 z M 13285,13482 L 13344,13541 L 13228,13659 L 13169,13600 L 13285,13482 z M 13988,13541 L 14045,13600 L 14045,13659 L 13988,13716 L 13929,13659 L 13929,13600 L 13988,13541 z M 13403,13659 L 13462,13716 L 13403,13775 L 13344,13893 L 13344,13951 L 13052,14245 L 12993,14186 L 13052,14128 L 13110,14010 L 13052,14010 L 12993,13951 L 13052,13834 L 13169,13716 L 13228,13775 L 13285,13775 L 13403,13659 z M 13754,13659 L 13813,13716 L 13870,13834 L 13870,13893 L 13813,13951 L 13754,13893 L 13695,13775 L 13695,13716 L 13754,13659 z M 13695,13834 L 13754,13893 L 13754,14010 L 13695,14069 L 13637,14010 L 13637,13893 L 13695,13834 z M 14338,13834 L 14455,13951 L 14455,14010 L 14338,14128 L 14279,14069 L 14338,14010 L 14338,13951 L 14279,13893 L 14338,13834 z M 12877,13951 L 12935,14010 L 12935,14069 L 12877,14128 L 12818,14069 L 12818,14010 L 12877,13951 z M 13578,14010 L 13637,14069 L 13695,14245 L 13637,14304 L 13519,14186 L 13519,14069 L 13578,14010 z M 14222,14069 L 14397,14245 L 14397,14304 L 14455,14363 L 14514,14363 L 14573,14420 L 14514,14479 L 14455,14479 L 14163,14186 L 14163,14128 L 14222,14069 z M 13228,14128 L 13285,14186 L 13228,14245 L 13169,14186 L 13228,14128 z M 13813,14304 L 13870,14363 L 13929,14538 L 13929,14713 L 13870,14772 L 13813,14713 L 13754,14479 L 13754,14363 L 13813,14304 z M 14338,14420 L 14397,14479 L 14338,14538 L 14279,14479 L 14338,14420 z M 13169,14538 L 13228,14597 L 13228,14654 L 13169,14713 L 13110,14654 L 13110,14597 L 13169,14538 z M 14279,14654 L 14338,14713 L 14279,14772 L 14222,14713 L 14279,14654 z M 13228,15123 L 13285,15123 L 13228,15182 L 13228,15123 z M 13403,15123 L 13462,15182 L 13519,15300 L 13519,15416 L 13403,15532 L 13403,15591 L 13462,15650 L 13462,15885 L 13110,16822 L 13169,16880 L 13228,16880 L 13344,16763 L 13344,16704 L 13403,16353 L 13462,16235 L 13519,16294 L 13578,16235 L 13578,15650 L 13637,15650 L 13637,16528 L 13695,16587 L 13695,16646 L 13637,16763 L 13578,16822 L 13462,16822 L 13344,16880 L 13228,16997 L 13169,16997 L 13169,16938 L 13110,16822 L 13052,16763 L 12993,16822 L 12993,16704 L 12935,16646 L 12877,16704 L 12877,16763 L 12818,16822 L 12818,16763 L 12759,16704 L 12700,16763 L 12700,16704 L 12759,16587 L 12818,16528 L 12935,16646 L 13052,16587 L 13110,16528 L 13228,15826 L 13403,15650 L 13344,15591 L 13285,15591 L 13403,15475 L 13462,15300 L 13403,15241 L 13344,15300 L 13344,15182 L 13403,15123 z M 13929,15241 L 13988,15300 L 13929,15357 L 13870,15300 L 13929,15241 z M 16210,15767 L 16269,15826 L 16210,15885 L 16151,15826 L 16210,15767 z M 16560,15885 L 16619,15943 L 16560,16001 L 16503,15943 L 16560,15885 z M 16269,15943 L 16328,16001 L 16328,16060 L 16269,16119 L 16210,16060 L 16210,16001 L 16269,15943 z M 13285,17115 L 13344,17115 L 13344,17172 L 13285,17172 L 13285,17115 z M 13637,10789 L 13870,10789 L 13929,10848 L 14104,10907 L 14163,10907 L 14222,10848 L 14279,10848 L 14455,10907 L 14630,11023 L 14748,11141 L 14748,11316 L 14630,11433 L 14455,11433 L 14455,11492 L 14514,11551 L 14573,11667 L 14455,12078 L 14397,12136 L 14397,12429 L 14455,12488 L 14455,12604 L 14338,12722 L 14163,12779 L 14104,12779 L 14045,12722 L 13929,12663 L 13929,12838 L 14104,13190 L 14222,13307 L 14338,13366 L 14748,13775 L 14748,13834 L 15039,13951 L 15157,13951 L 15274,14069 L 15274,14128 L 15391,14186 L 15450,14186 L 16269,14713 L 16385,14831 L 16385,14889 L 16444,14948 L 16503,14948 L 16678,15123 L 16678,15241 L 16970,15650 L 17088,15767 L 17321,15826 L 17438,15826 L 17614,15767 L 17730,15709 L 17789,15532 L 17848,15241 L 17848,15065 L 17496,14713 L 17496,14654 L 17555,14597 L 17789,14597 L 17964,14713 L 18081,14831 L 18199,15123 L 18199,15532 L 18140,15591 L 18081,15767 L 18081,15826 L 17905,16001 L 17673,16119 L 17496,16178 L 17029,16178 L 16854,16001 L 16795,16001 L 16795,16119 L 16678,16294 L 16619,16353 L 16444,16353 L 16503,16469 L 16560,16528 L 16619,16528 L 16678,16587 L 16678,16646 L 16619,16822 L 16503,16938 L 15859,16938 L 15743,16822 L 15859,16704 L 15800,16646 L 15568,16528 L 15450,16528 L 15391,16469 L 15391,16412 L 15333,16353 L 15098,16178 L 14982,16178 L 14923,16119 L 14805,15826 L 14805,15709 L 14748,15416 L 14514,15357 L 14397,15357 L 14338,15300 L 14338,15241 L 14397,15182 L 14397,15123 L 14338,15182 L 14163,15416 L 14104,15709 L 14104,15885 L 14163,15943 L 14163,16119 L 14104,16178 L 14104,16822 L 14163,16822 L 14222,16880 L 14104,17056 L 14045,17115 L 13988,17056 L 13929,17115 L 13929,17172 L 13870,17231 L 13403,17231 L 13344,17290 L 13285,17290 L 13110,17115 L 13110,17056 L 12993,16938 L 12700,16938 L 12584,16880 L 12525,16822 L 12584,16587 L 12700,16469 L 12818,16412 L 12877,16412 L 12935,16469 L 12993,16412 L 12993,16353 L 13052,16119 L 13110,16060 L 13110,15123 L 13052,14889 L 12993,14772 L 12935,14772 L 12700,14538 L 12700,14479 L 12643,14245 L 12584,14128 L 12525,14069 L 12525,13893 L 12584,13834 L 12584,13775 L 12525,13716 L 12525,12722 L 12700,12136 L 12935,11610 L 12935,11551 L 12877,11492 L 12877,11433 L 12935,11375 L 12993,11375 L 13052,11316 L 13052,11257 L 12935,11257 L 12818,11141 L 12759,11023 L 12759,10964 L 12877,10848 L 13285,10848 L 13344,10907 L 13403,10907 L 13462,10848 L 13637,10789 z "/>
      </g>
    </g>
  </g>
</svg>