<?xml version="1.0" encoding="iso-8859-1"?>
<!-- Generator: Adobe Illustrator 17.1.0, SVG Export Plug-In . SVG Version: 6.00 Build 0)  -->
<!DOCTYPE svg PUBLIC "-//W3C//DTD SVG 1.1//EN" "http://www.w3.org/Graphics/SVG/1.1/DTD/svg11.dtd">
<svg version="1.1" id="Capa_1" xmlns="http://www.w3.org/2000/svg" xmlns:xlink="http://www.w3.org/1999/xlink" x="0px" y="0px"
	 viewBox="0 0 465 465" style="enable-background:new 0 0 465 465;" xml:space="preserve">
<g>
	<path d="M232.5,160c-6.893,0-12.5,5.607-12.5,12.5s5.607,12.5,12.5,12.5s12.5-5.607,12.5-12.5S239.393,160,232.5,160z"/>
	<path d="M232.5,240c-6.893,0-12.5,5.607-12.5,12.5s5.607,12.5,12.5,12.5s12.5-5.607,12.5-12.5S239.393,240,232.5,240z"/>
	<path d="M232.5,200c-6.893,0-12.5,5.607-12.5,12.5s5.607,12.5,12.5,12.5s12.5-5.607,12.5-12.5S239.393,200,232.5,200z"/>
	<path d="M350,306.658V117.5C350,52.71,297.29,0,232.5,0S115,52.71,115,117.5v189.158c0,40.227,20.813,77.005,53.321,98.342H137.5
		c-12.406,0-22.5,10.094-22.5,22.5s10.094,22.5,22.5,22.5h58.79c3.096,8.729,11.433,15,21.21,15c5.757,0,11.017-2.174,15-5.743
		c3.983,3.569,9.243,5.743,15,5.743c9.777,0,18.114-6.271,21.21-15h58.79c12.406,0,22.5-10.094,22.5-22.5S339.906,405,327.5,405
		h-30.821C329.187,383.663,350,346.885,350,306.658z M267.348,370.238c-3.793-7.084-11.266-11.916-19.848-11.916
		c-5.757,0-11.017,2.174-15,5.743c-3.983-3.569-9.243-5.743-15-5.743c-8.582,0-16.055,4.832-19.848,11.916
		C174.532,357.614,160,333.486,160,306.658V117.5c0-39.977,32.523-72.5,72.5-72.5S305,77.523,305,117.5v189.158
		C305,333.486,290.468,357.614,267.348,370.238z M130,427.5c0-4.136,3.364-7.5,7.5-7.5H195v15h-57.5
		C133.364,435,130,431.636,130,427.5z M247.5,450c-4.136,0-7.5-3.364-7.5-7.5v-31.679c0-4.143-3.357-7.5-7.5-7.5s-7.5,3.357-7.5,7.5
		V442.5c0,4.136-3.364,7.5-7.5,7.5s-7.5-3.364-7.5-7.5v-61.679c0-4.136,3.364-7.5,7.5-7.5s7.5,3.364,7.5,7.5
		c0,4.143,3.357,7.5,7.5,7.5s7.5-3.357,7.5-7.5c0-4.136,3.364-7.5,7.5-7.5s7.5,3.364,7.5,7.5V442.5
		C255,446.636,251.636,450,247.5,450z M335,427.5c0,4.136-3.364,7.5-7.5,7.5H270v-15h57.5C331.636,420,335,423.364,335,427.5z
		 M270,402.034v-16.332c30.534-14.454,50-44.937,50-79.043V117.5c0-48.248-39.252-87.5-87.5-87.5S145,69.252,145,117.5v189.158
		c0,34.107,19.466,64.59,50,79.043v16.332c-38.721-15.281-65-53.153-65-95.375V117.5C130,60.981,175.981,15,232.5,15
		S335,60.981,335,117.5v189.158C335,348.88,308.721,386.753,270,402.034z"/>
</g>
<g>
</g>
<g>
</g>
<g>
</g>
<g>
</g>
<g>
</g>
<g>
</g>
<g>
</g>
<g>
</g>
<g>
</g>
<g>
</g>
<g>
</g>
<g>
</g>
<g>
</g>
<g>
</g>
<g>
</g>
</svg>
