<?xml version="1.0" encoding="UTF-8" standalone="no"?>
<!-- Created with Inkscape (http://www.inkscape.org/) -->

<svg
   xmlns:dc="http://purl.org/dc/elements/1.1/"
   xmlns:cc="http://creativecommons.org/ns#"
   xmlns:rdf="http://www.w3.org/1999/02/22-rdf-syntax-ns#"
   xmlns:svg="http://www.w3.org/2000/svg"
   xmlns="http://www.w3.org/2000/svg"
   xmlns:sodipodi="http://sodipodi.sourceforge.net/DTD/sodipodi-0.dtd"
   xmlns:inkscape="http://www.inkscape.org/namespaces/inkscape"
   width="210mm"
   height="297mm"
   viewBox="0 0 210 297"
   version="1.1"
   id="svg8"
   inkscape:version="0.92.3 (2405546, 2018-03-11)"
   sodipodi:docname="symbol.svg">
  <defs
     id="defs2">
	
	
	
	
<filter
   inkscape:collect="always"
   style="color-interpolation-filters:sRGB"
   id="filter4615"
   x="-0.035603296"
   width="1.0712066"
   y="-0.0072160808"
   height="1.0144322">
  <feGaussianBlur
     inkscape:collect="always"
     stdDeviation="0.29596693"
     id="feGaussianBlur4617" />
</filter>
</defs>
  <sodipodi:namedview
     id="base"
     pagecolor="#ffffff"
     bordercolor="#666666"
     borderopacity="1.0"
     inkscape:pageopacity="0.0"
     inkscape:pageshadow="2"
     inkscape:zoom="0.7"
     inkscape:cx="255.81503"
     inkscape:cy="835.55834"
     inkscape:document-units="mm"
     inkscape:current-layer="layer1"
     showgrid="false"
     inkscape:window-width="1600"
     inkscape:window-height="846"
     inkscape:window-x="0"
     inkscape:window-y="0"
     inkscape:window-maximized="1" />
  <metadata
     id="metadata5">
    <rdf:RDF>
      <cc:Work
         rdf:about="">
        <dc:format>image/svg+xml</dc:format>
        <dc:type
           rdf:resource="http://purl.org/dc/dcmitype/StillImage" />
        <dc:title></dc:title>
      </cc:Work>
    </rdf:RDF>
  </metadata>
  <g
     inkscape:label="Layer 1"
     inkscape:groupmode="layer"
     id="layer1">
    <g
       aria-label="𒄊𒀕𒃲"
       transform="matrix(0,0.54487357,-0.51710959,0,30.820334,60.441447)"
       style="font-style:normal;font-variant:normal;font-weight:normal;font-stretch:normal;font-size:31.90092659px;line-height:1.25;font-family:'Linux Libertine Display O';-inkscape-font-specification:'Linux Libertine Display O';text-align:center;letter-spacing:0px;word-spacing:0px;text-anchor:middle;opacity:0.96000001;fill:#000000;fill-opacity:1;stroke:none;stroke-width:0.49845195;filter:url(#filter4615)"
       id="text817">
      <path
         d="m 17.403968,-56.189633 -0.70182,-0.0319 -0.0957,-1.850254 q -3.413399,0.287109 -5.805968,0.478514 -2.3606689,0.191406 -3.9876161,0.31901 -1.5950464,0.127603 -2.7115788,0.223306 -1.0846315,0.127604 -1.9778575,0.255207 -0.861325,0.127604 -1.78645184,0.31901 0.22330648,-1.37174 0.22330648,-2.328768 0.0319009,-0.925127 -0.22330648,-2.105461 1.27603704,0.287108 2.36066854,0.414712 1.0846315,0.127604 2.6796779,0.287108 Q 5.026412,-67.259253 4.7074027,-72.810015 4.3883934,-78.360776 4.0055823,-82.156986 L 3.8779786,-82.28459 q -1.9459565,2.39257 -3.66860655,4.529932 -1.72265005,2.137362 -2.99868705,3.891913 -1.2441362,1.754551 -1.7864519,2.966786 -0.6699195,-0.765622 -1.1803343,-1.307938 -0.4785139,-0.542316 -1.0846315,-0.988929 -0.5742167,-0.446613 -1.4993436,-0.988929 l 0.4147121,-0.223306 q -2.3925698,-0.893226 -4.3385258,-1.563145 -1.914056,-0.701821 -3.572904,-1.148434 -1.658848,-0.478514 -3.285795,-0.733721 1.020829,-1.148433 1.499343,-2.137362 0.478514,-0.988929 0.957028,-2.233065 1.977857,1.977857 4.46613,3.541003 2.4882719,1.531244 5.5507608,3.477201 1.4993436,-1.052731 2.7434797,-2.041659 1.2441362,-1.02083 2.6477769,-2.233065 1.4036408,-1.244136 3.3495973,-2.966787 -0.6061176,0.0638 -1.75455094,0.191406 -1.14843336,0.127604 -2.52017316,0.287108 -1.339839,0.127604 -2.6796779,0.287109 -1.3398389,0.159504 -2.3925695,0.35091 -1.0527305,0.159505 -1.5312444,0.319009 0.1595046,-1.37174 0.1914055,-2.296867 0.063802,-0.925126 -0.1914055,-2.137362 0.5104148,0.191406 1.5950463,0.382812 1.1165324,0.191405 2.4563713,0.382811 1.3398389,0.191405 2.7115788,0.35091 1.37173983,0.127604 2.45637134,0.255207 1.11653246,0.127604 1.69074906,0.191406 -2.77538057,-2.456372 -4.9446436,-4.306625 -2.169263,-1.882155 -4.2109223,-3.190093 -2.8391825,1.850254 -5.3912567,3.541003 -2.552074,1.690749 -4.242823,3.477201 -0.414712,-1.052731 -0.701821,-1.658848 -0.255207,-0.638019 -0.638018,-1.212235 -0.35091,-0.574217 -1.116532,-1.499344 2.488272,-0.382811 5.199851,-1.339839 2.711578,-0.988929 5.901671,-2.296867 1.1484333,-0.733721 1.8502537,-1.37174 0.7337213,-0.669919 1.5950464,-1.72265 0.2871083,0.797524 1.1484333,2.073561 0.861325,1.276037 2.0735602,2.839182 1.21223526,1.563146 2.5520742,3.221994 1.3398389,1.626947 2.583975,3.158191 -0.1276037,-0.957027 -0.2233065,-1.563145 -0.095703,-0.606118 -0.1914055,-1.116532 -0.063802,-0.510415 -0.1914056,-1.116533 -0.1276037,-0.638018 -0.3190092,-1.563145 1.5631454,0.382811 2.7753806,0.414712 1.2122352,0.0319 2.9029843,-0.191406 0.7018204,-1.148433 1.0527306,-1.945956 0.3828111,-0.797523 0.6061175,-1.595047 0.223307,-0.829424 0.478514,-2.041659 1.37174,0.893226 3.572904,2.041659 2.233065,1.148434 5.008445,2.424471 2.775381,1.276037 5.805969,2.615876 3.062489,1.339839 6.093077,2.647777 3.062489,1.276037 5.805968,2.42447 2.775381,1.148434 5.008446,2.07356 2.233065,0.925127 3.604805,1.531245 v 0.797523 q -4.976545,2.137362 -8.772755,3.828111 -3.764309,1.690749 -6.53969,3.030588 -2.775381,1.339839 -4.785139,2.424471 -2.009758,1.05273 -3.413399,1.914055 -1.403641,0.893226 -2.456372,1.626948 -0.223306,-1.276038 -0.574216,-2.296867 -0.31901,-0.988929 -0.829424,-2.041659 l -0.66992,10.68681 2.807282,0.287108 v 0.414712 l -2.839183,0.287109 z m -9.1874664,-3.732408 q 0.1595047,-1.276037 0.1595047,-2.169263 0.031901,-0.893226 -0.1914056,-2.137362 2.1692633,0.733721 4.0514173,1.148433 1.882155,0.414712 4.147121,0.765622 l -0.223307,-4.434229 q -1.72265,0.31901 -2.998687,0.542316 -1.276037,0.223307 -2.456371,0.510415 -1.1484335,0.287108 -2.5201733,0.765622 0.2552074,-1.244136 0.2552074,-2.233065 0,-0.988928 -0.2552074,-2.201164 1.5312445,0.606118 3.6367053,1.052731 2.105461,0.446613 4.274724,0.829424 l -0.287108,-4.338526 q -2.42447,0.414712 -4.14712,0.797523 -1.7226503,0.35091 -3.4772013,0.957028 0.2552074,-1.212235 0.2552074,-2.233065 0,-1.020829 -0.2552074,-2.201164 1.4674426,0.574217 3.5410033,1.052731 2.07356,0.478514 4.019516,0.797523 l -0.382811,-4.242823 q -2.233065,0.382811 -3.955715,0.765622 -1.7226498,0.382811 -3.2219933,0.925127 0.1276037,-0.957028 0.1914056,-1.595046 0.063802,-0.66992 0.031901,-1.307938 -0.031901,-0.638019 -0.2233065,-1.531245 1.6588482,0.606118 3.4453002,1.02083 1.786452,0.414712 3.604804,0.733721 -0.0957,-0.733721 -0.255207,-1.818353 -0.159505,-1.116532 -0.382811,-2.328767 -0.223307,-1.212236 -0.510415,-2.264966 1.244136,0.255207 2.137362,0.35091 0.893226,0.0957 1.818353,0.0638 0.925127,-0.0638 2.201164,-0.287109 -0.510415,1.72265 -0.829424,3.572904 -0.319009,1.850254 -0.574217,4.083319 -0.223306,2.233065 -0.510415,5.136049 1.212236,-0.0957 3.158192,-0.542316 1.977858,-0.446613 4.434229,-1.116532 2.456371,-0.66992 5.072247,-1.467443 2.615876,-0.797523 5.136049,-1.595046 2.552075,-0.797523 4.657536,-1.467443 2.137362,-0.70182 3.572903,-1.148433 -1.307938,-0.382811 -3.541002,-1.084632 -2.201164,-0.733721 -5.008446,-1.626947 -2.77538,-0.893226 -5.86977,-1.850254 -3.09439,-0.988928 -6.220681,-1.945956 -3.09439,-0.957028 -5.965473,-1.754551 -2.839183,-0.797523 -5.13605,-1.339839 -2.264965,-0.574217 -3.7005069,-0.765622 -0.414712,1.499343 -0.7656222,3.860012 -0.3190093,2.328768 -0.6061176,5.295554 -0.2552074,2.934885 -0.4785139,6.252581 -0.2233065,3.317697 -0.446613,6.762997 -0.1914056,3.4453 -0.3509102,6.794897 z m 8.3261414,0.70182 -0.127603,-2.42447 q -1.595047,0.255207 -2.74348,0.446613 -1.148433,0.223306 -2.328768,0.478514 -1.180334,0.287108 -2.9029839,0.797523 z"
         style="font-size:31.90092659px;text-align:center;text-anchor:middle;stroke-width:0.49845195"
         id="path4623"
         inkscape:connector-curvature="0" />
      <path
         d="m 87.921465,-64.388171 v -0.191406 q -3.604805,-1.212235 -6.348285,-1.945956 -2.743479,-0.733721 -4.880841,-1.148433 -2.105462,-0.382812 -3.828112,-0.574217 -1.72265,-0.191406 -3.285795,-0.255208 -1.531245,-0.0957 -3.158192,-0.191405 0.797523,-1.307938 1.339839,-2.74348 -5.199851,0.574217 -8.996061,1.244136 -3.79621,0.66992 -6.794898,1.882155 0.31901,-1.595046 0.31901,-3.349597 0,-1.690749 -0.31901,-3.509102 2.552075,1.05273 6.731096,1.754551 4.179021,0.70182 9.410773,0.988928 0.191406,-0.70182 0.31901,-1.371739 0.159504,-0.701821 0.223306,-1.403641 1.339839,0.925127 2.583975,1.818353 1.244136,0.893226 2.679678,1.786452 1.467443,0.893225 3.349597,1.850253 1.914056,0.957028 4.498031,2.009759 2.583975,1.084631 6.156879,2.296866 l -0.0957,-3.828111 q -1.084632,-0.382811 -2.552074,-0.925127 -1.435542,-0.574216 -2.902984,-1.116532 -1.435542,-0.542316 -2.552075,-0.925127 -1.116532,-0.382811 -1.499343,-0.382811 0.414712,-0.638019 0.765622,-1.307938 0.382811,-0.66992 0.638019,-1.467443 0.223306,0.287109 1.148433,0.988929 0.925127,0.669919 2.169263,1.531244 1.276037,0.829425 2.552074,1.69075 1.276037,0.829424 2.233065,1.435541 l -0.191406,-3.604804 q -1.020829,-0.350911 -2.233064,-0.765623 -1.212236,-0.446613 -2.360669,-0.829424 -1.116532,-0.382811 -2.009758,-0.638018 -0.893226,-0.287109 -1.276037,-0.287109 0.414712,-0.638018 0.797523,-1.307938 0.382811,-0.669919 0.606117,-1.467442 0.223307,0.287108 0.925127,0.861325 0.701821,0.542316 1.658848,1.244136 0.957028,0.70182 1.977858,1.403641 1.020829,0.70182 1.882154,1.276037 -0.0957,-1.850254 -0.287108,-3.604805 -1.244136,-0.446613 -2.520173,-0.861325 -1.244136,-0.414712 -2.264966,-0.70182 -0.988929,-0.287109 -1.435542,-0.31901 0.414713,-0.606117 0.797524,-1.276037 0.382811,-0.70182 0.606117,-1.499343 0.255208,0.319009 0.988929,0.925127 0.733721,0.606117 1.72265,1.339839 1.02083,0.733721 2.009758,1.435541 -0.0638,-0.829424 -0.159504,-1.595046 -0.0957,-0.797523 -0.223307,-1.563145 -1.435541,-0.446613 -2.615876,-0.733722 -1.180334,-0.319009 -1.786452,-0.35091 0.414712,-0.606118 0.797524,-1.276037 0.382811,-0.70182 0.606117,-1.499344 0.287108,0.350911 1.052731,1.052731 0.765622,0.669919 1.754551,1.403641 -0.223307,-1.467443 -0.478514,-2.74348 -0.255208,-1.307938 -0.478514,-2.456371 -4.306625,1.658848 -7.432916,3.221993 -3.126291,1.531245 -5.423158,2.966786 -2.296866,1.403641 -4.179021,2.711579 -0.0638,-0.669919 -0.191405,-1.339839 -0.127604,-0.70182 -0.350911,-1.37174 -5.359355,0.574217 -9.251268,1.244137 -3.860012,0.669919 -6.890601,1.914055 0.31901,-1.595046 0.31901,-3.349597 0,-1.690749 -0.31901,-3.509102 2.488273,1.052731 6.603492,1.72265 4.11522,0.669919 9.219368,0.988929 -0.255207,-0.733722 -0.606118,-1.403641 -0.35091,-0.70182 -0.765622,-1.403641 2.296867,-0.159504 4.976545,-0.446613 2.711579,-0.287108 6.124978,-0.988928 3.4453,-0.701821 7.94333,-2.009759 -0.127603,-0.606117 -0.287108,-1.148433 -0.159505,-0.542316 -0.287108,-1.052731 1.626947,0.382811 3.349597,0.382811 1.72265,0 3.541003,-0.382811 -0.733721,2.679678 -1.435542,6.475888 -0.70182,3.796211 -1.148433,8.900359 -0.446613,5.104148 -0.446613,11.675739 z"
         style="font-size:31.90092659px;text-align:center;text-anchor:middle;stroke-width:0.49845195"
         id="path4625"
         inkscape:connector-curvature="0" />
      <path
         d="m 118.07631,-59.252122 -0.1914,-5.742167 q -3.4772,0.127604 -6.02928,0.31901 -2.55207,0.191405 -4.46613,0.478514 -1.88215,0.287108 -3.4134,0.638018 -1.49934,0.35091 -2.90298,0.733721 -1.371741,0.414712 -2.934886,0.829424 0.191405,-0.957027 0.287108,-1.882154 0.127604,-0.893226 0.127604,-1.72265 0,-0.829424 -0.127604,-1.658848 -0.0957,-0.829425 -0.287108,-1.626948 1.850253,0.510415 3.317696,0.925127 1.49934,0.414712 2.96679,0.733721 1.46744,0.350911 3.28579,0.606118 1.81835,0.255208 4.24282,0.414712 2.45638,0.191406 5.90168,0.319009 -0.0638,-1.72265 -0.15951,-3.349597 -0.0638,-1.626947 -0.1595,-3.158192 -3.3815,0.127604 -5.86977,0.31901 -2.48828,0.191405 -4.37043,0.478514 -1.88216,0.287108 -3.3815,0.638018 -1.49934,0.319009 -2.87108,0.733721 -1.371742,0.382812 -2.902986,0.797524 0.191405,-0.957028 0.287108,-1.850254 0.127604,-0.925127 0.127604,-1.754551 0,-0.829424 -0.127604,-1.626947 -0.0957,-0.829425 -0.287108,-1.658849 1.818352,0.510415 3.285796,0.925127 1.46744,0.414712 2.93488,0.765623 1.46745,0.319009 3.222,0.574216 1.75455,0.255208 4.14712,0.446613 2.39257,0.159505 5.74217,0.287109 -0.19141,-3.636706 -0.47852,-6.794898 -3.25389,0.127604 -5.67836,0.35091 -2.39257,0.191406 -4.21093,0.478514 -1.78645,0.287109 -3.25389,0.638019 -1.46744,0.319009 -2.83918,0.70182 -1.371743,0.382811 -2.871086,0.797523 0.191405,-0.957027 0.287108,-1.850253 0.127604,-0.925127 0.127604,-1.754551 0,-0.829424 -0.127604,-1.626948 -0.0957,-0.829424 -0.287108,-1.658848 1.786452,0.510415 3.221996,0.925127 1.43554,0.382811 2.87108,0.733721 1.43554,0.31901 3.15819,0.574217 1.72265,0.255207 4.01952,0.446613 2.29687,0.159505 5.48696,0.287108 -0.19141,-1.882154 -0.38281,-3.509102 -0.19141,-1.658848 -0.44662,-3.12629 -3.03058,0.127603 -5.29555,0.35091 -2.23306,0.191405 -3.98762,0.478514 -1.72265,0.287108 -3.12629,0.606117 -1.40364,0.31901 -2.74348,0.701821 -1.307934,0.35091 -2.775376,0.765622 0.191405,-0.957028 0.287108,-1.850254 0.127604,-0.925127 0.127604,-1.754551 0,-0.829424 -0.127604,-1.626947 -0.0957,-0.829424 -0.287108,-1.658848 1.72265,0.478514 3.126286,0.893226 1.40365,0.382811 2.77539,0.70182 1.40364,0.319009 3.03058,0.574217 1.62695,0.255207 3.76431,0.446613 2.13736,0.191405 5.07225,0.319009 -0.38281,-2.201164 -0.86133,-3.923814 1.56315,0.414712 3.2858,0.414712 1.72265,0 3.6048,-0.414712 -0.73372,2.647777 -1.33983,7.528619 -0.60612,4.848941 -1.05273,11.452432 -0.41472,6.571591 -0.63802,14.45112 z m 2.26497,-14.036408 q 0.1914,-0.957027 0.28711,-1.850253 0.1276,-0.925127 0.1276,-1.754551 0,-0.829424 -0.1276,-1.658848 -0.0957,-0.829425 -0.28711,-1.626948 1.88215,0.542316 3.4134,0.957028 1.53124,0.414712 3.06249,0.765622 1.53124,0.350911 3.4453,0.606118 1.91405,0.255207 4.52993,0.446613 2.64778,0.159505 6.38018,0.255207 v 0.829424 q -3.7324,0.0957 -6.47588,0.31901 -2.71158,0.191405 -4.72134,0.478514 -2.00976,0.287108 -3.60481,0.638018 -1.56314,0.35091 -2.99868,0.765622 -1.43555,0.382811 -3.03059,0.829424 z"
         style="font-size:31.90092659px;text-align:center;text-anchor:middle;stroke-width:0.49845195"
         id="path4627"
         inkscape:connector-curvature="0" />
    </g>
    <path
       id="path4528"
       d="M 91.46809,131.20655 V 42.480495 c 0,-23.140299 -9.617042,-29.266123 -21.438102,-29.266123 -11.821059,0 -21.4381,6.125824 -21.4381,29.266123 v 88.726055 c 0,14.36742 3.797372,16.39049 9.728519,24.01118 h -5.623351 c -2.263499,0 -4.105168,2.01766 -4.105168,6.44857 0,4.4309 1.841669,5.39025 4.105168,5.39025 h 10.726349 c 0.564871,3.11762 2.085973,5.35735 3.869804,5.35735 1.050377,0 2.010073,-0.77646 2.736779,-2.05116 0.726707,1.2747 1.686403,2.05116 2.736779,2.05116 1.783833,0 3.304934,-2.23973 3.869806,-5.35735 h 10.726348 c 2.263498,0 4.105169,-0.95935 4.105169,-5.39025 0,-4.43091 -1.841671,-6.44857 -4.105169,-6.44857 h -5.62335 c 5.931146,-7.62069 9.728519,-9.64376 9.728519,-24.01118 z m -15.080018,11.59563 c -0.69204,-2.5301 -2.055502,-4.2559 -3.621305,-4.2559 -1.050376,0 -2.010072,0.77647 -2.736779,2.05116 -0.726706,-1.27469 -1.686402,-2.05116 -2.736779,-2.05116 -1.565801,0 -2.929265,1.7258 -3.621305,4.2559 -3.367842,-0.918 -6.86968,-2.01378 -6.86968,-11.59563 V 42.480495 c 0,-14.278124 5.934805,-17.427323 13.227764,-17.427323 7.29296,0 13.227765,3.149199 13.227765,17.427323 v 88.726055 c 0,9.58185 -2.745885,9.26022 -6.869681,11.59563 z M 51.328667,161.6663 c 0,-1.4772 0.614726,-2.7167 1.368389,-2.67869 h 10.490986 v 4.29905 H 52.697056 c -0.754621,0 -1.368389,-0.14315 -1.368389,-1.62036 z m 21.4381,5.39025 c -0.754621,0 -1.368389,-1.20148 -1.368389,-2.67869 v -7.08112 c 0,-1.47969 -0.612491,-2.67867 -1.36839,-2.67867 -0.755898,0 -1.368389,1.19898 -1.368389,2.67867 v 7.08112 c 0,1.47721 -0.613768,2.67869 -1.36839,2.67869 -0.75462,0 -1.368388,-1.20148 -1.368388,-2.67869 v -17.79587 c 0,-1.4772 0.613768,-2.67868 1.368388,-2.67868 0.754622,0 1.36839,1.20148 1.36839,2.67868 0,1.47973 0.612491,2.67869 1.368389,2.67869 0.755899,0 1.36839,-1.19896 1.36839,-2.67869 0,-1.4772 0.613768,-2.67868 1.368389,-2.67868 0.754622,0 1.368389,1.20148 1.368389,2.67868 v 17.79587 c 0,1.47721 -0.613767,2.67869 -1.368389,2.67869 z M 88.73131,161.6663 c 0,1.47721 -0.614726,1.58234 -1.368389,1.62036 H 76.871935 v -4.29905 h 10.490986 c 0.754621,0 1.368389,1.20149 1.368389,2.67869 z m -11.859375,-7.5079 v -5.83311 c 5.570987,-5.16236 9.122597,-4.93713 9.122597,-17.11838 V 42.480495 c 0,-17.232182 -7.161603,-21.1972 -15.964544,-21.1972 -8.80294,0 -15.964542,3.965018 -15.964542,21.1972 v 88.726055 c 0,12.18161 3.551609,11.95638 9.122596,17.11838 v 5.83311 C 56.123321,148.70032 51.328667,146.28649 51.328667,131.20655 V 42.480495 c 0,-20.186241 8.389322,-25.496245 18.701321,-25.496245 10.312,0 18.701322,5.310004 18.701322,25.496245 v 88.726055 c 0,15.07994 -4.794654,17.49411 -11.859375,22.95185 z"
       inkscape:connector-curvature="0"
       style="stroke-width:0.26458332"
       sodipodi:nodetypes="ssssscssscscscssscscscscssasscssccsssssssssssssssssssssccssccsssssccsssssc" />
    <g
       id="g4532"
       transform="matrix(0.26458333,0,0,0.26458333,-46.013992,-1.8509648)">
</g>
    <g
       id="g4534"
       transform="matrix(0.26458333,0,0,0.26458333,-46.013992,-1.8509648)">
</g>
    <g
       id="g4536"
       transform="matrix(0.26458333,0,0,0.26458333,-46.013992,-1.8509648)">
</g>
    <g
       id="g4538"
       transform="matrix(0.26458333,0,0,0.26458333,-46.013992,-1.8509648)">
</g>
    <g
       id="g4540"
       transform="matrix(0.26458333,0,0,0.26458333,-46.013992,-1.8509648)">
</g>
    <g
       id="g4542"
       transform="matrix(0.26458333,0,0,0.26458333,-46.013992,-1.8509648)">
</g>
    <g
       id="g4544"
       transform="matrix(0.26458333,0,0,0.26458333,-46.013992,-1.8509648)">
</g>
    <g
       id="g4546"
       transform="matrix(0.26458333,0,0,0.26458333,-46.013992,-1.8509648)">
</g>
    <g
       id="g4548"
       transform="matrix(0.26458333,0,0,0.26458333,-46.013992,-1.8509648)">
</g>
    <g
       id="g4550"
       transform="matrix(0.26458333,0,0,0.26458333,-46.013992,-1.8509648)">
</g>
    <g
       id="g4552"
       transform="matrix(0.26458333,0,0,0.26458333,-46.013992,-1.8509648)">
</g>
    <g
       id="g4554"
       transform="matrix(0.26458333,0,0,0.26458333,-46.013992,-1.8509648)">
</g>
    <g
       id="g4556"
       transform="matrix(0.26458333,0,0,0.26458333,-46.013992,-1.8509648)">
</g>
    <g
       id="g4558"
       transform="matrix(0.26458333,0,0,0.26458333,-46.013992,-1.8509648)">
</g>
    <g
       id="g4560"
       transform="matrix(0.26458333,0,0,0.26458333,-46.013992,-1.8509648)">
</g>
    <text
       xml:space="preserve"
       style="font-style:normal;font-variant:normal;font-weight:normal;font-stretch:normal;font-size:16.93333244px;line-height:1.25;font-family:'Linux Libertine Display O';-inkscape-font-specification:'Linux Libertine Display O';letter-spacing:0px;word-spacing:0px;fill:#000000;fill-opacity:1;stroke:none;stroke-width:0.26458332"
       x="30.759407"
       y="-64.746788"
       id="text4621"
       transform="rotate(90)"><tspan
         sodipodi:role="line"
         id="tspan4619"
         x="30.759407"
         y="-64.746788"
         style="font-size:16.93333244px;stroke-width:0.26458332">𒀭</tspan></text>
  </g>
</svg>
