<?xml version="1.0" encoding="UTF-8" standalone="no"?>
<!-- Created with Inkscape (http://www.inkscape.org/) -->
<svg xmlns:dc="http://purl.org/dc/elements/1.1/" xmlns:cc="http://web.resource.org/cc/" xmlns:rdf="http://www.w3.org/1999/02/22-rdf-syntax-ns#" xmlns:svg="http://www.w3.org/2000/svg" xmlns="http://www.w3.org/2000/svg" xmlns:sodipodi="http://sodipodi.sourceforge.net/DTD/sodipodi-0.dtd" xmlns:inkscape="http://www.inkscape.org/namespaces/inkscape" width="744.09448" height="1052.3622" id="svg2" sodipodi:version="0.32" inkscape:version="0.45.1" sodipodi:docbase="/mnt/home/My Documents/Mapping_Projects" sodipodi:docname="compass_rose_1595.svg" inkscape:output_extension="org.inkscape.output.svg.inkscape" version="1.0">
  <defs id="defs4">
    <pattern patternUnits="userSpaceOnUse" width="48.594925" height="48.594925" patternTransform="translate(-76.1125, 151.892)" id="pattern3228">
      <path d="M -62.060989 167.1149 A 3.512886 2.9274051 0 1 1  -69.086761,167.1149 A 3.512886 2.9274051 0 1 1  -62.060989 167.1149 z" sodipodi:ry="2.9274051" sodipodi:rx="3.512886" sodipodi:cy="167.1149" sodipodi:cx="-65.573875" id="path3226" style="fill: rgb(0, 0, 0); fill-rule: evenodd; stroke: rgb(0, 0, 0); stroke-width: 1px; stroke-linecap: butt; stroke-linejoin: miter; stroke-opacity: 1;" sodipodi:type="arc" transform="translate(96.6044, -127.888)"/>
      <path transform="translate(80.7964, -137.841)" sodipodi:type="arc" style="fill: rgb(0, 0, 0); fill-rule: evenodd; stroke: rgb(0, 0, 0); stroke-width: 1px; stroke-linecap: butt; stroke-linejoin: miter; stroke-opacity: 1;" id="path3224" sodipodi:cx="-65.573875" sodipodi:cy="167.1149" sodipodi:rx="3.512886" sodipodi:ry="2.9274051" d="M -62.060989 167.1149 A 3.512886 2.9274051 0 1 1  -69.086761,167.1149 A 3.512886 2.9274051 0 1 1  -62.060989 167.1149 z"/>
      <path transform="translate(87.2367, -153.649)" d="M -62.060989 167.1149 A 3.512886 2.9274051 0 1 1  -69.086761,167.1149 A 3.512886 2.9274051 0 1 1  -62.060989 167.1149 z" sodipodi:ry="2.9274051" sodipodi:rx="3.512886" sodipodi:cy="167.1149" sodipodi:cx="-65.573875" id="path3222" style="fill: rgb(0, 0, 0); fill-rule: evenodd; stroke: rgb(0, 0, 0); stroke-width: 1px; stroke-linecap: butt; stroke-linejoin: miter; stroke-opacity: 1;" sodipodi:type="arc"/>
      <rect y="0" x="0" height="48.594925" width="48.594925" id="rect3220" style="opacity: 1; color: rgb(0, 0, 0); fill: none; fill-opacity: 1; fill-rule: evenodd; stroke: rgb(255, 255, 0); stroke-width: 0pt; stroke-linecap: square; stroke-linejoin: miter; marker: none; stroke-miterlimit: 4; stroke-dasharray: none; stroke-dashoffset: 0pt; stroke-opacity: 1; visibility: visible; display: inline; overflow: visible;"/>
    </pattern>
  </defs>
  <sodipodi:namedview id="base" pagecolor="#ffffff" bordercolor="#666666" borderopacity="1.0" gridtolerance="10000" guidetolerance="10" objecttolerance="10" inkscape:pageopacity="0.0" inkscape:pageshadow="2" inkscape:zoom="0.69216301" inkscape:cx="230.70936" inkscape:cy="742.14026" inkscape:document-units="px" inkscape:current-layer="layer2" inkscape:window-width="794" inkscape:window-height="547" inkscape:window-x="0" inkscape:window-y="0"/>
  <metadata id="metadata7">
    <rdf:RDF>
      <cc:Work rdf:about="">
        <dc:format>image/svg+xml</dc:format>
        <dc:type rdf:resource="http://purl.org/dc/dcmitype/StillImage"/>
      </cc:Work>
    </rdf:RDF>
  </metadata>
  <g inkscape:groupmode="layer" id="layer2" inkscape:label="drawing" style="display: inline;">
    <rect style="fill: url(&quot;#pattern3228&quot;) rgb(0, 0, 0); stroke: none;" width="48.594925" height="48.594925" x="-76.112534" y="151.8924" id="rect3234"/>
    <g id="g3297">
      <path id="path3199" d="M 305.9375,76.28125 C 288.6306,76.28125 274.59376,90.318106 274.59375,107.625 C 274.59375,109.23706 274.70248,110.82824 274.9375,112.375 C 161.83237,127.2872 74.437498,224.12513 74.4375,341.28125 C 74.4375,468.75389 177.8711,572.21876 305.34375,572.21875 C 432.81639,572.21875 536.28126,468.75389 536.28125,341.28125 C 536.28125,224.51469 449.46415,127.93642 336.90625,112.53125 C 337.1573,110.93422 337.3125,109.29219 337.3125,107.625 C 337.3125,90.318105 323.24438,76.281253 305.9375,76.28125 z " style="fill: rgb(255, 255, 255); fill-rule: evenodd; stroke: rgb(0, 0, 0); stroke-width: 2.5; stroke-linecap: butt; stroke-linejoin: miter; stroke-miterlimit: 4; stroke-dasharray: none; stroke-opacity: 1;"/>
      <path sodipodi:nodetypes="csscccssc" id="path3468" d="M 191.54752,262.42242 C 191.54752,262.42242 193.36848,267.69727 206.83073,276.11113 C 219.52815,284.04699 217.88147,287.24302 218.7434,290.46319 C 219.60533,293.68336 229.04799,298.88146 229.04799,298.88146 L 241.90621,298.592 L 231.55016,283.82988 C 231.55016,283.82988 229.17316,285.01551 222.92441,279.9464 C 216.62073,274.83272 217.14175,273.92818 207.76985,270.37032 C 195.40345,265.67566 193.21993,264.59332 191.54752,262.42242 z " style="color: rgb(0, 0, 0); fill: rgb(255, 255, 255); fill-opacity: 1; fill-rule: evenodd; stroke: rgb(0, 0, 0); stroke-width: 1px; stroke-linecap: butt; stroke-linejoin: miter; marker: none; stroke-miterlimit: 4; stroke-dasharray: none; stroke-dashoffset: 0pt; stroke-opacity: 1; visibility: visible; display: inline; overflow: visible;"/>
      <path transform="matrix(0.98414, 0, 0, 0.98414, -173.005, -171.029)" d="M 665.71429 520.57648 A 179.64285 179.64285 0 1 1  306.42859,520.57648 A 179.64285 179.64285 0 1 1  665.71429 520.57648 z" sodipodi:ry="179.64285" sodipodi:rx="179.64285" sodipodi:cy="520.57648" sodipodi:cx="486.07144" id="path2222" style="fill: url(&quot;#pattern3228&quot;) rgb(0, 0, 0); fill-opacity: 1; fill-rule: evenodd; stroke: rgb(0, 0, 0); stroke-width: 2.54029; stroke-linecap: butt; stroke-linejoin: miter; stroke-miterlimit: 4; stroke-dasharray: none; stroke-opacity: 1;" sodipodi:type="arc"/>
      <path sodipodi:type="arc" style="fill: none; fill-rule: evenodd; stroke: rgb(0, 0, 0); stroke-width: 2.42314; stroke-linecap: butt; stroke-linejoin: miter; stroke-miterlimit: 4; stroke-dasharray: none; stroke-opacity: 1;" id="path3195" sodipodi:cx="486.07144" sodipodi:cy="520.57648" sodipodi:rx="179.64285" sodipodi:ry="179.64285" d="M 665.71429 520.57648 A 179.64285 179.64285 0 1 1  306.42859,520.57648 A 179.64285 179.64285 0 1 1  665.71429 520.57648 z" transform="matrix(1.03172, 0, 0, 1.03172, -196.133, -195.799)"/>
      <path transform="matrix(1.23394, 0, 0, 1.23394, -294.426, -301.07)" d="M 665.71429 520.57648 A 179.64285 179.64285 0 1 1  306.42859,520.57648 A 179.64285 179.64285 0 1 1  665.71429 520.57648 z" sodipodi:ry="179.64285" sodipodi:rx="179.64285" sodipodi:cy="520.57648" sodipodi:cx="486.07144" id="path3197" style="fill: none; fill-rule: evenodd; stroke: rgb(0, 0, 0); stroke-width: 2.02603; stroke-linecap: butt; stroke-linejoin: miter; stroke-miterlimit: 4; stroke-dasharray: none; stroke-opacity: 1;" sodipodi:type="arc"/>
      <path transform="matrix(1.72063, -0.486979, 0.486979, 1.72063, -72.7329, 84.8801)" d="M 185.30713,212.32647 L 212.98197,281.82093 L 167.5586,222.3895 L 137.98766,291.09858 L 147.89285,216.95504 L 78.398383,244.62988 L 137.82981,199.2065 L 69.120737,169.63556 L 143.26428,179.54075 L 115.58944,110.04629 L 161.01281,169.47772 L 190.58375,100.76864 L 180.67856,174.91218 L 250.17303,147.23734 L 190.7416,192.66071 L 259.45067,222.23166 L 185.30713,212.32647 z " inkscape:randomized="0" inkscape:rounded="0" inkscape:flatsided="false" sodipodi:arg2="1.0550113" sodipodi:arg1="0.6623122" sodipodi:r2="98.73175" sodipodi:r1="26.657572" sodipodi:cy="195.93361" sodipodi:cx="164.28571" sodipodi:sides="8" id="path3215" style="opacity: 1; color: rgb(0, 0, 0); fill: rgb(255, 255, 255); fill-opacity: 1; fill-rule: evenodd; stroke: rgb(0, 0, 0); stroke-width: 1px; stroke-linecap: butt; stroke-linejoin: miter; marker: none; stroke-miterlimit: 4; stroke-dasharray: none; stroke-dashoffset: 0pt; stroke-opacity: 1; visibility: visible; display: inline; overflow: visible;" sodipodi:type="star"/>
      <path id="path3225" d="M 261.34021,324.05585 L 349.21944,359.95423" style="opacity: 1; color: rgb(0, 0, 0); fill: none; fill-opacity: 1; fill-rule: evenodd; stroke: rgb(0, 0, 0); stroke-width: 2.5; stroke-linecap: butt; stroke-linejoin: miter; marker: none; stroke-miterlimit: 4; stroke-dasharray: none; stroke-dashoffset: 0pt; stroke-opacity: 1; visibility: visible; display: inline; overflow: visible;"/>
      <path id="path3227" d="M 261.62739,360.24142 L 348.93225,323.76866" style="opacity: 1; color: rgb(0, 0, 0); fill: none; fill-opacity: 1; fill-rule: evenodd; stroke: rgb(0, 0, 0); stroke-width: 1px; stroke-linecap: butt; stroke-linejoin: miter; marker: none; stroke-miterlimit: 4; stroke-dasharray: none; stroke-dashoffset: 0pt; stroke-opacity: 1; visibility: visible; display: inline; overflow: visible;"/>
      <path id="path3229" d="M 286.61267,297.63464 L 323.94698,386.08825" style="opacity: 1; color: rgb(0, 0, 0); fill: none; fill-opacity: 1; fill-rule: evenodd; stroke: rgb(0, 0, 0); stroke-width: 1px; stroke-linecap: butt; stroke-linejoin: miter; marker: none; stroke-miterlimit: 4; stroke-dasharray: none; stroke-dashoffset: 0pt; stroke-opacity: 1; visibility: visible; display: inline; overflow: visible;"/>
      <path id="path3231" d="M 287.47423,385.80106 L 323.65979,297.63464" style="opacity: 1; color: rgb(0, 0, 0); fill: none; fill-opacity: 1; fill-rule: evenodd; stroke: rgb(0, 0, 0); stroke-width: 1px; stroke-linecap: butt; stroke-linejoin: miter; marker: none; stroke-miterlimit: 4; stroke-dasharray: none; stroke-dashoffset: 0pt; stroke-opacity: 1; visibility: visible; display: inline; overflow: visible;"/>
      <path transform="translate(-3.72598, -3.72598)" d="M 322.09012 109.48265 A 12.626926 12.626926 0 1 1  296.83627,109.48265 A 12.626926 12.626926 0 1 1  322.09012 109.48265 z" sodipodi:ry="12.626926" sodipodi:rx="12.626926" sodipodi:cy="109.48265" sodipodi:cx="309.4632" id="path3271" style="fill: rgb(255, 255, 255); fill-rule: evenodd; stroke: rgb(0, 0, 0); stroke-width: 2.5; stroke-linecap: butt; stroke-linejoin: miter; stroke-miterlimit: 4; stroke-dasharray: none; stroke-opacity: 1;" sodipodi:type="arc"/>
      <text sodipodi:linespacing="125%" style="font-size: 28px; font-style: italic; font-variant: normal; font-weight: normal; font-stretch: normal; text-align: start; line-height: 125%; text-anchor: start; font-family: Bitstream Vera Sans;" y="136.052" x="272.075" id="text3283" xml:space="preserve"><tspan id="tspan3287" y="148.042" x="248.337" style="font-size: 28px; font-style: italic; font-variant: normal; font-weight: normal; font-stretch: normal; text-align: start; line-height: 125%; text-anchor: start; font-family: Bitstream Vera Sans;">Septem</tspan></text>
      <text sodipodi:linespacing="125%" style="font-size: 28px; font-style: italic; font-variant: normal; font-weight: normal; font-stretch: normal; text-align: start; line-height: 125%; text-anchor: start; font-family: Bitstream Vera Sans;" y="540.999" x="293.979" id="text3327" xml:space="preserve"><tspan id="tspan3329" y="552.989" x="270.241" style="font-size: 28px; font-style: italic; font-variant: normal; font-weight: normal; font-stretch: normal; text-align: start; line-height: 125%; text-anchor: start; font-family: Bitstream Vera Sans;">merid</tspan></text>
      <text sodipodi:linespacing="125%" style="font-size: 28px; font-style: italic; font-variant: normal; font-weight: normal; font-stretch: normal; text-align: start; line-height: 125%; text-anchor: start; font-family: Bitstream Vera Sans;" y="338.284" x="106.386" id="text3331" xml:space="preserve"><tspan id="tspan3333" y="350.275" x="82.6485" style="font-size: 28px; font-style: italic; font-variant: normal; font-weight: normal; font-stretch: normal; text-align: start; line-height: 125%; text-anchor: start; font-family: Bitstream Vera Sans;">oc</tspan></text>
      <text sodipodi:linespacing="125%" style="font-size: 28px; font-style: italic; font-variant: normal; font-weight: normal; font-stretch: normal; text-align: start; line-height: 125%; text-anchor: start; font-family: Bitstream Vera Sans;" y="336.272" x="515.207" id="text3335" xml:space="preserve"><tspan id="tspan3337" y="348.263" x="491.469" style="font-size: 28px; font-style: italic; font-variant: normal; font-weight: normal; font-stretch: normal; text-align: start; line-height: 125%; text-anchor: start; font-family: Bitstream Vera Sans;">or</tspan></text>
      <path id="path3233" d="M 179.77909,218.08383 L 286.89985,298.4962 L 304.70545,342.14863 L 179.77909,218.08383 z " style="color: rgb(0, 0, 0); fill: rgb(0, 0, 0); fill-opacity: 1; fill-rule: evenodd; stroke: rgb(0, 0, 0); stroke-width: 1px; stroke-linecap: butt; stroke-linejoin: miter; marker: none; stroke-miterlimit: 4; stroke-dasharray: none; stroke-dashoffset: 0pt; stroke-opacity: 1; visibility: visible; display: inline; overflow: visible;"/>
      <path id="path3235" d="M 304.13108,165.5286 L 323.37261,297.92183 L 305.56701,341.86145 L 304.13108,165.5286 z " style="color: rgb(0, 0, 0); fill: rgb(0, 0, 0); fill-opacity: 1; fill-rule: evenodd; stroke: rgb(0, 0, 0); stroke-width: 1px; stroke-linecap: butt; stroke-linejoin: miter; marker: none; stroke-miterlimit: 4; stroke-dasharray: none; stroke-dashoffset: 0pt; stroke-opacity: 1; visibility: visible; display: inline; overflow: visible;"/>
      <path id="path3237" d="M 429.63181,216.07352 L 349.21944,323.48147 L 305.56701,341.28707 L 429.63181,216.07352 z " style="color: rgb(0, 0, 0); fill: rgb(0, 0, 0); fill-opacity: 1; fill-rule: evenodd; stroke: rgb(0, 0, 0); stroke-width: 1px; stroke-linecap: butt; stroke-linejoin: miter; marker: none; stroke-miterlimit: 4; stroke-dasharray: none; stroke-dashoffset: 0pt; stroke-opacity: 1; visibility: visible; display: inline; overflow: visible;"/>
      <path id="path3239" d="M 481.61267,340.7127 L 349.79381,359.95423 L 305.27982,341.86145 L 481.61267,340.7127 z " style="color: rgb(0, 0, 0); fill: rgb(0, 0, 0); fill-opacity: 1; fill-rule: evenodd; stroke: rgb(0, 0, 0); stroke-width: 1px; stroke-linecap: butt; stroke-linejoin: miter; marker: none; stroke-miterlimit: 4; stroke-dasharray: none; stroke-dashoffset: 0pt; stroke-opacity: 1; visibility: visible; display: inline; overflow: visible;"/>
      <path id="path3241" d="M 430.49337,465.63906 L 349.79381,360.24142 L 304.99264,341.57426 L 430.49337,465.63906 z " style="color: rgb(0, 0, 0); fill: rgb(0, 0, 0); fill-opacity: 1; fill-rule: evenodd; stroke: rgb(0, 0, 0); stroke-width: 1px; stroke-linecap: butt; stroke-linejoin: miter; marker: none; stroke-miterlimit: 4; stroke-dasharray: none; stroke-dashoffset: 0pt; stroke-opacity: 1; visibility: visible; display: inline; overflow: visible;"/>
      <path id="path3243" d="M 306.42857,518.19429 L 323.94698,386.08825 L 305.56701,341.57426 L 306.42857,518.19429 z " style="color: rgb(0, 0, 0); fill: rgb(0, 0, 0); fill-opacity: 1; fill-rule: evenodd; stroke: rgb(0, 0, 0); stroke-width: 1px; stroke-linecap: butt; stroke-linejoin: miter; marker: none; stroke-miterlimit: 4; stroke-dasharray: none; stroke-dashoffset: 0pt; stroke-opacity: 1; visibility: visible; display: inline; overflow: visible;"/>
      <path id="path3245" d="M 181.50221,467.64937 L 287.18704,386.66262 L 305.8542,341.57426 L 181.50221,467.64937 z " style="color: rgb(0, 0, 0); fill: rgb(0, 0, 0); fill-opacity: 1; fill-rule: evenodd; stroke: rgb(0, 0, 0); stroke-width: 1px; stroke-linecap: butt; stroke-linejoin: miter; marker: none; stroke-miterlimit: 4; stroke-dasharray: none; stroke-dashoffset: 0pt; stroke-opacity: 1; visibility: visible; display: inline; overflow: visible;"/>
      <path id="path3247" d="M 128.08542,343.01019 L 260.76583,360.5286 L 304.99264,342.14863 L 128.08542,343.01019 z " style="color: rgb(0, 0, 0); fill: rgb(0, 0, 0); fill-opacity: 1; fill-rule: evenodd; stroke: rgb(0, 0, 0); stroke-width: 1px; stroke-linecap: butt; stroke-linejoin: miter; marker: none; stroke-miterlimit: 4; stroke-dasharray: none; stroke-dashoffset: 0pt; stroke-opacity: 1; visibility: visible; display: inline; overflow: visible;"/>
      <path sodipodi:nodetypes="csssscccscsc" id="path3353" d="M 238.72705,177.39947 C 238.72705,177.39947 241.4648,175.36685 245.49302,186.86785 C 249.52124,198.36885 244.63672,206.22915 253.48916,214.66193 C 262.3416,223.09471 272.21919,235.68921 274.07652,238.93753 C 275.93384,242.18586 278.75601,255.43645 281.28872,260.10632 C 283.82144,264.77619 290.29795,272.85519 290.29795,272.85519 L 286.61948,298.14067 L 259.74859,278.39342 C 259.74859,278.39342 262.47851,253.49875 257.14351,238.19782 C 252.9585,226.19509 249.61772,224.57415 249.61772,224.57415 C 249.61772,224.57415 237.43658,216.01915 239.1733,191.74999 C 240.35866,175.18559 238.52202,177.43163 238.72705,177.39947 z " style="color: rgb(0, 0, 0); fill: rgb(255, 255, 255); fill-opacity: 1; fill-rule: evenodd; stroke: rgb(0, 0, 0); stroke-width: 1px; stroke-linecap: butt; stroke-linejoin: miter; marker: none; stroke-miterlimit: 4; stroke-dasharray: none; stroke-dashoffset: 0pt; stroke-opacity: 1; visibility: visible; display: inline; overflow: visible;"/>
      <path id="path3355" d="M 283.00132,219.67272 C 283.00132,219.67272 278.68364,229.8165 288.21148,237.99841 C 297.73931,246.18033 293.73521,245.64645 293.46987,247.51182 C 293.20454,249.3772 290.55122,272.48855 290.55122,272.48855 C 290.55122,272.48855 284.95513,267.6643 282.43447,262.49915 C 279.91382,257.33399 287.8376,251.18468 283.88174,243.46589 C 279.92588,235.7471 275.24639,227.4108 283.00132,219.67272 z " style="color: rgb(0, 0, 0); fill: rgb(255, 255, 255); fill-opacity: 1; fill-rule: evenodd; stroke: rgb(0, 0, 0); stroke-width: 1px; stroke-linecap: butt; stroke-linejoin: miter; marker: none; stroke-miterlimit: 4; stroke-dasharray: none; stroke-dashoffset: 0pt; stroke-opacity: 1; visibility: visible; display: inline; overflow: visible;"/>
      <path id="path3357" d="M 223.08453,228.12479 C 223.08453,228.1934 223.08453,228.1934 223.08453,228.12479 z " style="color: rgb(0, 0, 0); fill: none; fill-opacity: 1; fill-rule: evenodd; stroke: rgb(0, 0, 0); stroke-width: 1px; stroke-linecap: butt; stroke-linejoin: miter; marker: none; stroke-miterlimit: 4; stroke-dasharray: none; stroke-dashoffset: 0pt; stroke-opacity: 1; visibility: visible; display: inline; overflow: visible;"/>
      <path sodipodi:nodetypes="csscccssc" id="path3363" d="M 223.92877,228.04117 C 223.92877,228.04117 229.20361,229.86213 237.61748,243.32438 C 245.55333,256.0218 248.74936,254.37512 251.96953,255.23705 C 255.1897,256.09898 260.3878,265.54164 260.3878,265.54164 L 260.09834,278.39986 L 245.33623,268.04381 C 245.33623,268.04381 246.52185,265.66681 241.45274,259.41806 C 236.33907,253.11438 235.43452,253.6354 231.87667,244.2635 C 227.182,231.8971 226.09966,229.71358 223.92877,228.04117 z " style="color: rgb(0, 0, 0); fill: rgb(255, 255, 255); fill-opacity: 1; fill-rule: evenodd; stroke: rgb(0, 0, 0); stroke-width: 1px; stroke-linecap: butt; stroke-linejoin: miter; marker: none; stroke-miterlimit: 4; stroke-dasharray: none; stroke-dashoffset: 0pt; stroke-opacity: 1; visibility: visible; display: inline; overflow: visible;"/>
      <path style="color: rgb(0, 0, 0); fill: rgb(0, 0, 0); fill-opacity: 1; fill-rule: evenodd; stroke: rgb(0, 0, 0); stroke-width: 1px; stroke-linecap: butt; stroke-linejoin: miter; marker: none; stroke-miterlimit: 4; stroke-dasharray: none; stroke-dashoffset: 0pt; stroke-opacity: 1; visibility: visible; display: inline; overflow: visible;" d="M 238.72705,177.39947 C 238.72705,177.39947 241.4648,175.36685 245.49302,186.86785 C 249.52124,198.36885 244.63672,206.22915 253.48916,214.66193 C 262.3416,223.09471 272.21919,235.68921 274.07652,238.93753 C 275.93384,242.18586 278.75601,255.43645 281.28872,260.10632 C 283.82144,264.77619 290.29795,272.85519 290.29795,272.85519 L 286.61948,298.14067 L 276.3439,277.55079 C 276.3439,277.55079 267.64042,253.27362 262.30542,237.97269 C 258.12041,225.96996 254.10424,223.52568 254.10424,223.52568 C 254.10424,223.52568 240.81353,214.80344 242.55025,190.53428 C 243.73561,173.96988 238.52202,177.43163 238.72705,177.39947 z " id="path3365" sodipodi:nodetypes="csssscccscsc"/>
      <path sodipodi:nodetypes="csscssc" style="color: rgb(0, 0, 0); fill: rgb(0, 0, 0); fill-opacity: 1; fill-rule: evenodd; stroke: rgb(0, 0, 0); stroke-width: 1px; stroke-linecap: butt; stroke-linejoin: miter; marker: none; stroke-miterlimit: 4; stroke-dasharray: none; stroke-dashoffset: 0pt; stroke-opacity: 1; visibility: visible; display: inline; overflow: visible;" d="M 283.00132,219.67272 C 283.00132,219.67272 278.68364,229.8165 288.21148,237.99841 C 297.73931,246.18033 293.73521,245.64645 293.46987,247.51182 C 293.20454,249.3772 290.55122,272.48855 290.55122,272.48855 C 290.55122,272.48855 289.11602,271.19565 288.11499,263.0073 C 287.41756,257.30238 290.37031,249.28714 286.41445,241.56835 C 282.45859,233.84956 275.24639,227.4108 283.00132,219.67272 z " id="path3367"/>
      <path style="color: rgb(0, 0, 0); fill: rgb(0, 0, 0); fill-opacity: 1; fill-rule: evenodd; stroke: rgb(0, 0, 0); stroke-width: 1px; stroke-linecap: butt; stroke-linejoin: miter; marker: none; stroke-miterlimit: 4; stroke-dasharray: none; stroke-dashoffset: 0pt; stroke-opacity: 1; visibility: visible; display: inline; overflow: visible;" d="M 223.92877,228.04117 C 223.92877,228.04117 229.20361,229.86213 237.61748,243.32438 C 245.55333,256.0218 248.74936,254.37512 251.96953,255.23705 C 255.1897,256.09898 260.3878,265.54164 260.3878,265.54164 L 260.09834,278.39986 L 253.75449,273.06102 C 253.75449,273.06102 253.07073,264.38678 245.62569,258.04154 C 239.44796,252.77641 237.59336,252.76704 234.03551,243.39514 C 229.34084,231.02874 226.09966,229.71358 223.92877,228.04117 z " id="path3369" sodipodi:nodetypes="csscccssc"/>
      <path style="color: rgb(0, 0, 0); fill: rgb(255, 255, 255); fill-opacity: 1; fill-rule: evenodd; stroke: rgb(0, 0, 0); stroke-width: 1px; stroke-linecap: butt; stroke-linejoin: miter; marker: none; stroke-miterlimit: 4; stroke-dasharray: none; stroke-dashoffset: 0pt; stroke-opacity: 1; visibility: visible; display: inline; overflow: visible;" d="M 373.36665,178.4563 C 373.36665,178.4563 376.74165,178.94231 371.49861,189.94277 C 366.25556,200.94322 357.25153,203.08103 357.59387,215.30233 C 357.93622,227.52364 356.07438,243.42086 355.10428,247.03474 C 354.13416,250.64863 346.80261,262.04122 345.31042,267.13982 C 343.81824,272.23842 342.72352,282.53488 342.72352,282.53488 L 322.30007,297.88965 L 317.13993,264.94467 C 317.13993,264.94467 336.61485,249.19905 343.60734,234.58106 C 349.09255,223.11405 347.86336,219.61014 347.86336,219.61014 C 347.86336,219.61014 345.2446,204.95715 363.57396,188.95581 C 376.08427,178.03443 373.19848,178.33469 373.36665,178.4563 z " id="path3382" sodipodi:nodetypes="csssscccscsc"/>
      <path style="color: rgb(0, 0, 0); fill: rgb(255, 255, 255); fill-opacity: 1; fill-rule: evenodd; stroke: rgb(0, 0, 0); stroke-width: 1px; stroke-linecap: butt; stroke-linejoin: miter; marker: none; stroke-miterlimit: 4; stroke-dasharray: none; stroke-dashoffset: 0pt; stroke-opacity: 1; visibility: visible; display: inline; overflow: visible;" d="M 375.00992,239.64893 C 375.00992,239.64893 364.79957,243.80673 365.798,256.32578 C 366.79642,268.84482 364.33065,265.64516 362.82824,266.78217 C 361.32583,267.91919 343.16156,282.45308 343.16156,282.45308 C 343.16156,282.45308 342.5883,275.08687 344.43795,269.64524 C 346.28761,264.20362 356.2434,265.42122 358.87337,257.15612 C 361.50334,248.89103 364.05474,239.67789 375.00992,239.64893 z " id="path3384"/>
      <path style="color: rgb(0, 0, 0); fill: none; fill-opacity: 1; fill-rule: evenodd; stroke: rgb(0, 0, 0); stroke-width: 1px; stroke-linecap: butt; stroke-linejoin: miter; marker: none; stroke-miterlimit: 4; stroke-dasharray: none; stroke-dashoffset: 0pt; stroke-opacity: 1; visibility: visible; display: inline; overflow: visible;" d="M 326.53039,203.43851 C 326.48206,203.48721 326.48206,203.48721 326.53039,203.43851 z " id="path3386"/>
      <path style="color: rgb(0, 0, 0); fill: rgb(255, 255, 255); fill-opacity: 1; fill-rule: evenodd; stroke: rgb(0, 0, 0); stroke-width: 1px; stroke-linecap: butt; stroke-linejoin: miter; marker: none; stroke-miterlimit: 4; stroke-dasharray: none; stroke-dashoffset: 0pt; stroke-opacity: 1; visibility: visible; display: inline; overflow: visible;" d="M 327.18849,203.9739 C 327.18849,203.9739 329.64946,208.98224 326.13745,224.46421 C 322.82498,239.06659 326.25335,240.14936 327.93164,243.0296 C 329.60992,245.90984 326.64722,256.27355 326.64722,256.27355 L 317.38363,265.19563 L 314.20182,247.44616 C 314.20182,247.44616 316.71782,246.59433 317.52208,238.58834 C 318.33342,230.51197 317.32438,230.24454 321.40139,221.08655 C 326.78108,209.00239 327.55111,206.69019 327.18849,203.9739 z " id="path3388" sodipodi:nodetypes="csscccssc"/>
      <path sodipodi:nodetypes="csssscccscsc" id="path3390" d="M 373.36665,178.4563 C 373.36665,178.4563 376.74165,178.94231 371.49861,189.94277 C 366.25556,200.94322 357.25153,203.08103 357.59387,215.30233 C 357.93622,227.52364 356.07438,243.42086 355.10428,247.03474 C 354.13416,250.64863 346.80261,262.04122 345.31042,267.13982 C 343.81824,272.23842 342.72352,282.53488 342.72352,282.53488 L 322.30007,297.88965 L 329.51189,276.03741 C 329.51189,276.03741 340.43706,252.67565 347.42955,238.05765 C 352.91476,226.59064 351.78623,222.02659 351.78623,222.02659 C 351.78623,222.02659 348.49778,206.47325 366.82714,190.47191 C 379.33745,179.55053 373.19848,178.33469 373.36665,178.4563 z " style="color: rgb(0, 0, 0); fill: rgb(0, 0, 0); fill-opacity: 1; fill-rule: evenodd; stroke: rgb(0, 0, 0); stroke-width: 1px; stroke-linecap: butt; stroke-linejoin: miter; marker: none; stroke-miterlimit: 4; stroke-dasharray: none; stroke-dashoffset: 0pt; stroke-opacity: 1; visibility: visible; display: inline; overflow: visible;"/>
      <path id="path3392" d="M 375.00992,239.64893 C 375.00992,239.64893 364.79957,243.80673 365.798,256.32578 C 366.79642,268.84482 364.33065,265.64516 362.82824,266.78217 C 361.32583,267.91919 343.16156,282.45308 343.16156,282.45308 C 343.16156,282.45308 343.05375,280.52441 348.11167,274.00762 C 351.63558,269.46729 359.37771,265.85866 362.00768,257.59356 C 364.63766,249.32847 364.05474,239.67789 375.00992,239.64893 z " style="color: rgb(0, 0, 0); fill: rgb(0, 0, 0); fill-opacity: 1; fill-rule: evenodd; stroke: rgb(0, 0, 0); stroke-width: 1px; stroke-linecap: butt; stroke-linejoin: miter; marker: none; stroke-miterlimit: 4; stroke-dasharray: none; stroke-dashoffset: 0pt; stroke-opacity: 1; visibility: visible; display: inline; overflow: visible;" sodipodi:nodetypes="csscssc"/>
      <path sodipodi:nodetypes="csscccssc" id="path3394" d="M 327.18849,203.9739 C 327.18849,203.9739 329.64946,208.98224 326.13745,224.46421 C 322.82498,239.06659 326.25335,240.14936 327.93164,243.0296 C 329.60992,245.90984 326.64722,256.27355 326.64722,256.27355 L 317.38363,265.19563 L 316.64216,256.93743 C 316.64216,256.93743 322.26755,250.29929 321.4535,240.55106 C 320.77801,232.4622 319.46833,231.14905 323.54534,221.99106 C 328.92502,209.9069 327.55111,206.69019 327.18849,203.9739 z " style="color: rgb(0, 0, 0); fill: rgb(0, 0, 0); fill-opacity: 1; fill-rule: evenodd; stroke: rgb(0, 0, 0); stroke-width: 1px; stroke-linecap: butt; stroke-linejoin: miter; marker: none; stroke-miterlimit: 4; stroke-dasharray: none; stroke-dashoffset: 0pt; stroke-opacity: 1; visibility: visible; display: inline; overflow: visible;"/>
      <path style="color: rgb(0, 0, 0); fill: rgb(255, 255, 255); fill-opacity: 1; fill-rule: evenodd; stroke: rgb(0, 0, 0); stroke-width: 1px; stroke-linecap: butt; stroke-linejoin: miter; marker: none; stroke-miterlimit: 4; stroke-dasharray: none; stroke-dashoffset: 0pt; stroke-opacity: 1; visibility: visible; display: inline; overflow: visible;" d="M 238.72705,507.68229 C 238.72705,507.68229 241.4648,509.71491 245.49302,498.21391 C 249.52124,486.71291 244.63672,478.85261 253.48916,470.41983 C 262.3416,461.98705 272.21919,449.39255 274.07652,446.14423 C 275.93384,442.8959 278.75601,429.64531 281.28872,424.97544 C 283.82144,420.30557 290.29795,412.22657 290.29795,412.22657 L 286.61948,386.94109 L 259.74859,406.68834 C 259.74859,406.68834 262.47851,431.58301 257.14351,446.88394 C 252.9585,458.88667 249.61772,460.50761 249.61772,460.50761 C 249.61772,460.50761 237.43658,469.06261 239.1733,493.33177 C 240.35866,509.89617 238.52202,507.65013 238.72705,507.68229 z " id="path3398" sodipodi:nodetypes="csssscccscsc"/>
      <path style="color: rgb(0, 0, 0); fill: rgb(255, 255, 255); fill-opacity: 1; fill-rule: evenodd; stroke: rgb(0, 0, 0); stroke-width: 1px; stroke-linecap: butt; stroke-linejoin: miter; marker: none; stroke-miterlimit: 4; stroke-dasharray: none; stroke-dashoffset: 0pt; stroke-opacity: 1; visibility: visible; display: inline; overflow: visible;" d="M 283.00132,465.40904 C 283.00132,465.40904 278.68364,455.26526 288.21148,447.08335 C 297.73931,438.90143 293.73521,439.43531 293.46987,437.56994 C 293.20454,435.70456 290.55122,412.59321 290.55122,412.59321 C 290.55122,412.59321 284.95513,417.41746 282.43447,422.58261 C 279.91382,427.74777 287.8376,433.89708 283.88174,441.61587 C 279.92588,449.33466 275.24639,457.67096 283.00132,465.40904 z " id="path3400"/>
      <path style="color: rgb(0, 0, 0); fill: none; fill-opacity: 1; fill-rule: evenodd; stroke: rgb(0, 0, 0); stroke-width: 1px; stroke-linecap: butt; stroke-linejoin: miter; marker: none; stroke-miterlimit: 4; stroke-dasharray: none; stroke-dashoffset: 0pt; stroke-opacity: 1; visibility: visible; display: inline; overflow: visible;" d="M 223.08453,456.95697 C 223.08453,456.88836 223.08453,456.88836 223.08453,456.95697 z " id="path3402"/>
      <path style="color: rgb(0, 0, 0); fill: rgb(255, 255, 255); fill-opacity: 1; fill-rule: evenodd; stroke: rgb(0, 0, 0); stroke-width: 1px; stroke-linecap: butt; stroke-linejoin: miter; marker: none; stroke-miterlimit: 4; stroke-dasharray: none; stroke-dashoffset: 0pt; stroke-opacity: 1; visibility: visible; display: inline; overflow: visible;" d="M 223.92877,457.04059 C 223.92877,457.04059 229.20361,455.21963 237.61748,441.75738 C 245.55333,429.05996 248.74936,430.70664 251.96953,429.84471 C 255.1897,428.98278 260.3878,419.54012 260.3878,419.54012 L 260.09834,406.6819 L 245.33623,417.03795 C 245.33623,417.03795 246.52185,419.41495 241.45274,425.6637 C 236.33907,431.96738 235.43452,431.44636 231.87667,440.81826 C 227.182,453.18466 226.09966,455.36818 223.92877,457.04059 z " id="path3404" sodipodi:nodetypes="csscccssc"/>
      <path sodipodi:nodetypes="csssscccscsc" id="path3406" d="M 238.72705,507.68229 C 238.72705,507.68229 241.4648,509.71491 245.49302,498.21391 C 249.52124,486.71291 244.63672,478.85261 253.48916,470.41983 C 262.3416,461.98705 272.21919,449.39255 274.07652,446.14423 C 275.93384,442.8959 278.75601,429.64531 281.28872,424.97544 C 283.82144,420.30557 290.29795,412.22657 290.29795,412.22657 L 286.61948,386.94109 L 276.3439,407.53097 C 276.3439,407.53097 267.64042,431.80814 262.30542,447.10907 C 258.12041,459.1118 254.10424,461.55608 254.10424,461.55608 C 254.10424,461.55608 240.81353,470.27832 242.55025,494.54748 C 243.73561,511.11188 238.52202,507.65013 238.72705,507.68229 z " style="color: rgb(0, 0, 0); fill: rgb(0, 0, 0); fill-opacity: 1; fill-rule: evenodd; stroke: rgb(0, 0, 0); stroke-width: 1px; stroke-linecap: butt; stroke-linejoin: miter; marker: none; stroke-miterlimit: 4; stroke-dasharray: none; stroke-dashoffset: 0pt; stroke-opacity: 1; visibility: visible; display: inline; overflow: visible;"/>
      <path id="path3408" d="M 283.00132,465.40904 C 283.00132,465.40904 278.68364,455.26526 288.21148,447.08335 C 297.73931,438.90143 293.73521,439.43531 293.46987,437.56994 C 293.20454,435.70456 290.55122,412.59321 290.55122,412.59321 C 290.55122,412.59321 289.11602,413.88611 288.11499,422.07446 C 287.41756,427.77938 290.37031,435.79462 286.41445,443.51341 C 282.45859,451.2322 275.24639,457.67096 283.00132,465.40904 z " style="color: rgb(0, 0, 0); fill: rgb(0, 0, 0); fill-opacity: 1; fill-rule: evenodd; stroke: rgb(0, 0, 0); stroke-width: 1px; stroke-linecap: butt; stroke-linejoin: miter; marker: none; stroke-miterlimit: 4; stroke-dasharray: none; stroke-dashoffset: 0pt; stroke-opacity: 1; visibility: visible; display: inline; overflow: visible;" sodipodi:nodetypes="csscssc"/>
      <path sodipodi:nodetypes="csscccssc" id="path3410" d="M 223.92877,457.04059 C 223.92877,457.04059 229.20361,455.21963 237.61748,441.75738 C 245.55333,429.05996 248.74936,430.70664 251.96953,429.84471 C 255.1897,428.98278 260.3878,419.54012 260.3878,419.54012 L 260.09834,406.6819 L 253.75449,412.02074 C 253.75449,412.02074 253.07073,420.69498 245.62569,427.04022 C 239.44796,432.30535 237.59336,432.31472 234.03551,441.68662 C 229.34084,454.05302 226.09966,455.36818 223.92877,457.04059 z " style="color: rgb(0, 0, 0); fill: rgb(0, 0, 0); fill-opacity: 1; fill-rule: evenodd; stroke: rgb(0, 0, 0); stroke-width: 1px; stroke-linecap: butt; stroke-linejoin: miter; marker: none; stroke-miterlimit: 4; stroke-dasharray: none; stroke-dashoffset: 0pt; stroke-opacity: 1; visibility: visible; display: inline; overflow: visible;"/>
      <path sodipodi:nodetypes="csssscccscsc" id="path3414" d="M 375.36665,506.62546 C 375.36665,506.62546 378.74165,506.13945 373.49861,495.13899 C 368.25556,484.13854 359.25153,482.00073 359.59387,469.77943 C 359.93622,457.55812 358.07438,441.6609 357.10428,438.04702 C 356.13416,434.43313 348.80261,423.04054 347.31042,417.94194 C 345.81824,412.84334 344.72352,402.54688 344.72352,402.54688 L 324.30007,387.19211 L 319.13993,420.13709 C 319.13993,420.13709 338.61485,435.88271 345.60734,450.5007 C 351.09255,461.96771 349.86336,465.47162 349.86336,465.47162 C 349.86336,465.47162 347.2446,480.12461 365.57396,496.12595 C 378.08427,507.04733 375.19848,506.74707 375.36665,506.62546 z " style="color: rgb(0, 0, 0); fill: rgb(255, 255, 255); fill-opacity: 1; fill-rule: evenodd; stroke: rgb(0, 0, 0); stroke-width: 1px; stroke-linecap: butt; stroke-linejoin: miter; marker: none; stroke-miterlimit: 4; stroke-dasharray: none; stroke-dashoffset: 0pt; stroke-opacity: 1; visibility: visible; display: inline; overflow: visible;"/>
      <path id="path3416" d="M 377.00992,445.43283 C 377.00992,445.43283 366.79957,441.27503 367.798,428.75598 C 368.79642,416.23694 366.33065,419.4366 364.82824,418.29959 C 363.32583,417.16257 345.16156,402.62868 345.16156,402.62868 C 345.16156,402.62868 344.5883,409.99489 346.43795,415.43652 C 348.28761,420.87814 358.2434,419.66054 360.87337,427.92564 C 363.50334,436.19073 366.05474,445.40387 377.00992,445.43283 z " style="color: rgb(0, 0, 0); fill: rgb(255, 255, 255); fill-opacity: 1; fill-rule: evenodd; stroke: rgb(0, 0, 0); stroke-width: 1px; stroke-linecap: butt; stroke-linejoin: miter; marker: none; stroke-miterlimit: 4; stroke-dasharray: none; stroke-dashoffset: 0pt; stroke-opacity: 1; visibility: visible; display: inline; overflow: visible;"/>
      <path id="path3418" d="M 328.53039,481.64325 C 328.48206,481.59455 328.48206,481.59455 328.53039,481.64325 z " style="color: rgb(0, 0, 0); fill: none; fill-opacity: 1; fill-rule: evenodd; stroke: rgb(0, 0, 0); stroke-width: 1px; stroke-linecap: butt; stroke-linejoin: miter; marker: none; stroke-miterlimit: 4; stroke-dasharray: none; stroke-dashoffset: 0pt; stroke-opacity: 1; visibility: visible; display: inline; overflow: visible;"/>
      <path sodipodi:nodetypes="csscccssc" id="path3420" d="M 329.18849,481.10786 C 329.18849,481.10786 331.64946,476.09952 328.13745,460.61755 C 324.82498,446.01517 328.25335,444.9324 329.93164,442.05216 C 331.60992,439.17192 328.64722,428.80821 328.64722,428.80821 L 319.38363,419.88613 L 316.20182,437.6356 C 316.20182,437.6356 318.71782,438.48743 319.52208,446.49342 C 320.33342,454.56979 319.32438,454.83722 323.40139,463.99521 C 328.78108,476.07937 329.55111,478.39157 329.18849,481.10786 z " style="color: rgb(0, 0, 0); fill: rgb(255, 255, 255); fill-opacity: 1; fill-rule: evenodd; stroke: rgb(0, 0, 0); stroke-width: 1px; stroke-linecap: butt; stroke-linejoin: miter; marker: none; stroke-miterlimit: 4; stroke-dasharray: none; stroke-dashoffset: 0pt; stroke-opacity: 1; visibility: visible; display: inline; overflow: visible;"/>
      <path style="color: rgb(0, 0, 0); fill: rgb(0, 0, 0); fill-opacity: 1; fill-rule: evenodd; stroke: rgb(0, 0, 0); stroke-width: 1px; stroke-linecap: butt; stroke-linejoin: miter; marker: none; stroke-miterlimit: 4; stroke-dasharray: none; stroke-dashoffset: 0pt; stroke-opacity: 1; visibility: visible; display: inline; overflow: visible;" d="M 375.36665,506.62546 C 375.36665,506.62546 378.74165,506.13945 373.49861,495.13899 C 368.25556,484.13854 359.25153,482.00073 359.59387,469.77943 C 359.93622,457.55812 358.07438,441.6609 357.10428,438.04702 C 356.13416,434.43313 348.80261,423.04054 347.31042,417.94194 C 345.81824,412.84334 344.72352,402.54688 344.72352,402.54688 L 324.30007,387.19211 L 331.51189,409.04435 C 331.51189,409.04435 342.43706,432.40611 349.42955,447.02411 C 354.91476,458.49112 353.78623,463.05517 353.78623,463.05517 C 353.78623,463.05517 350.49778,478.60851 368.82714,494.60985 C 381.33745,505.53123 375.19848,506.74707 375.36665,506.62546 z " id="path3422" sodipodi:nodetypes="csssscccscsc"/>
      <path sodipodi:nodetypes="csscssc" style="color: rgb(0, 0, 0); fill: rgb(0, 0, 0); fill-opacity: 1; fill-rule: evenodd; stroke: rgb(0, 0, 0); stroke-width: 1px; stroke-linecap: butt; stroke-linejoin: miter; marker: none; stroke-miterlimit: 4; stroke-dasharray: none; stroke-dashoffset: 0pt; stroke-opacity: 1; visibility: visible; display: inline; overflow: visible;" d="M 377.00992,445.43283 C 377.00992,445.43283 366.79957,441.27503 367.798,428.75598 C 368.79642,416.23694 366.33065,419.4366 364.82824,418.29959 C 363.32583,417.16257 345.16156,402.62868 345.16156,402.62868 C 345.16156,402.62868 345.05375,404.55735 350.11167,411.07414 C 353.63558,415.61447 361.37771,419.2231 364.00768,427.4882 C 366.63766,435.75329 366.05474,445.40387 377.00992,445.43283 z " id="path3424"/>
      <path style="color: rgb(0, 0, 0); fill: rgb(0, 0, 0); fill-opacity: 1; fill-rule: evenodd; stroke: rgb(0, 0, 0); stroke-width: 1px; stroke-linecap: butt; stroke-linejoin: miter; marker: none; stroke-miterlimit: 4; stroke-dasharray: none; stroke-dashoffset: 0pt; stroke-opacity: 1; visibility: visible; display: inline; overflow: visible;" d="M 329.18849,481.10786 C 329.18849,481.10786 331.64946,476.09952 328.13745,460.61755 C 324.82498,446.01517 328.25335,444.9324 329.93164,442.05216 C 331.60992,439.17192 328.64722,428.80821 328.64722,428.80821 L 319.38363,419.88613 L 318.64216,428.14433 C 318.64216,428.14433 324.26755,434.78247 323.4535,444.5307 C 322.77801,452.61956 321.46833,453.93271 325.54534,463.0907 C 330.92502,475.17486 329.55111,478.39157 329.18849,481.10786 z " id="path3426" sodipodi:nodetypes="csscccssc"/>
      <path style="color: rgb(0, 0, 0); fill: rgb(255, 255, 255); fill-opacity: 1; fill-rule: evenodd; stroke: rgb(0, 0, 0); stroke-width: 1px; stroke-linecap: butt; stroke-linejoin: miter; marker: none; stroke-miterlimit: 4; stroke-dasharray: none; stroke-dashoffset: 0pt; stroke-opacity: 1; visibility: visible; display: inline; overflow: visible;" d="M 471.18864,275.22071 C 471.18864,275.22071 473.22126,277.95846 461.72026,281.98667 C 450.21926,286.0149 442.35896,281.13038 433.92618,289.98282 C 425.4934,298.83526 412.8989,308.71285 409.65058,310.57018 C 406.40225,312.42749 393.15166,315.24966 388.48179,317.78238 C 383.81192,320.31509 375.73292,326.79161 375.73292,326.79161 L 350.44744,323.11314 L 370.19469,296.24224 C 370.19469,296.24224 395.08936,298.97217 410.39029,293.63716 C 422.39302,289.45216 424.01396,286.11138 424.01396,286.11138 C 424.01396,286.11138 432.56896,273.93023 456.83812,275.66696 C 473.40252,276.85231 471.15648,275.01567 471.18864,275.22071 z " id="path3430" sodipodi:nodetypes="csssscccscsc"/>
      <path style="color: rgb(0, 0, 0); fill: rgb(255, 255, 255); fill-opacity: 1; fill-rule: evenodd; stroke: rgb(0, 0, 0); stroke-width: 1px; stroke-linecap: butt; stroke-linejoin: miter; marker: none; stroke-miterlimit: 4; stroke-dasharray: none; stroke-dashoffset: 0pt; stroke-opacity: 1; visibility: visible; display: inline; overflow: visible;" d="M 428.91539,319.49498 C 428.91539,319.49498 418.77161,315.1773 410.5897,324.70513 C 402.40778,334.23296 402.94166,330.22886 401.07629,329.96353 C 399.21091,329.6982 376.09956,327.04487 376.09956,327.04487 C 376.09956,327.04487 380.92381,321.44878 386.08896,318.92812 C 391.25412,316.40747 397.40343,324.33126 405.12222,320.37539 C 412.84101,316.41954 421.17731,311.74005 428.91539,319.49498 z " id="path3432"/>
      <path style="color: rgb(0, 0, 0); fill: none; fill-opacity: 1; fill-rule: evenodd; stroke: rgb(0, 0, 0); stroke-width: 1px; stroke-linecap: butt; stroke-linejoin: miter; marker: none; stroke-miterlimit: 4; stroke-dasharray: none; stroke-dashoffset: 0pt; stroke-opacity: 1; visibility: visible; display: inline; overflow: visible;" d="M 420.46332,259.57819 C 420.39471,259.57819 420.39471,259.57819 420.46332,259.57819 z " id="path3434"/>
      <path style="color: rgb(0, 0, 0); fill: rgb(255, 255, 255); fill-opacity: 1; fill-rule: evenodd; stroke: rgb(0, 0, 0); stroke-width: 1px; stroke-linecap: butt; stroke-linejoin: miter; marker: none; stroke-miterlimit: 4; stroke-dasharray: none; stroke-dashoffset: 0pt; stroke-opacity: 1; visibility: visible; display: inline; overflow: visible;" d="M 420.54694,260.42242 C 420.54694,260.42242 418.72598,265.69727 405.26373,274.11113 C 392.56631,282.04699 394.21299,285.24302 393.35106,288.46319 C 392.48913,291.68336 383.04647,296.88146 383.04647,296.88146 L 370.18825,296.592 L 380.5443,281.82988 C 380.5443,281.82988 382.9213,283.01551 389.17005,277.9464 C 395.47373,272.83272 394.95271,271.92818 404.32461,268.37032 C 416.69101,263.67566 418.87453,262.59332 420.54694,260.42242 z " id="path3436" sodipodi:nodetypes="csscccssc"/>
      <path sodipodi:nodetypes="csssscccscsc" id="path3438" d="M 471.18864,275.22071 C 471.18864,275.22071 473.22126,277.95846 461.72026,281.98667 C 450.21926,286.0149 442.35896,281.13038 433.92618,289.98282 C 425.4934,298.83526 412.8989,308.71285 409.65058,310.57018 C 406.40225,312.42749 393.15166,315.24966 388.48179,317.78238 C 383.81192,320.31509 375.73292,326.79161 375.73292,326.79161 L 350.44744,323.11314 L 371.03732,312.83756 C 371.03732,312.83756 395.31449,304.13408 410.61542,298.79908 C 422.61815,294.61406 425.06243,290.59789 425.06243,290.59789 C 425.06243,290.59789 433.78467,277.30719 458.05383,279.04391 C 474.61823,280.22927 471.15648,275.01567 471.18864,275.22071 z " style="color: rgb(0, 0, 0); fill: rgb(0, 0, 0); fill-opacity: 1; fill-rule: evenodd; stroke: rgb(0, 0, 0); stroke-width: 1px; stroke-linecap: butt; stroke-linejoin: miter; marker: none; stroke-miterlimit: 4; stroke-dasharray: none; stroke-dashoffset: 0pt; stroke-opacity: 1; visibility: visible; display: inline; overflow: visible;"/>
      <path id="path3440" d="M 428.91539,319.49498 C 428.91539,319.49498 418.77161,315.1773 410.5897,324.70513 C 402.40778,334.23296 402.94166,330.22886 401.07629,329.96353 C 399.21091,329.6982 376.09956,327.04487 376.09956,327.04487 C 376.09956,327.04487 377.39246,325.60967 385.58081,324.60864 C 391.28573,323.91121 399.30097,326.86397 407.01976,322.9081 C 414.73855,318.95225 421.17731,311.74005 428.91539,319.49498 z " style="color: rgb(0, 0, 0); fill: rgb(0, 0, 0); fill-opacity: 1; fill-rule: evenodd; stroke: rgb(0, 0, 0); stroke-width: 1px; stroke-linecap: butt; stroke-linejoin: miter; marker: none; stroke-miterlimit: 4; stroke-dasharray: none; stroke-dashoffset: 0pt; stroke-opacity: 1; visibility: visible; display: inline; overflow: visible;" sodipodi:nodetypes="csscssc"/>
      <path sodipodi:nodetypes="csscccssc" id="path3442" d="M 420.54694,260.42242 C 420.54694,260.42242 418.72598,265.69727 405.26373,274.11113 C 392.56631,282.04699 394.21299,285.24302 393.35106,288.46319 C 392.48913,291.68336 383.04647,296.88146 383.04647,296.88146 L 370.18825,296.592 L 375.52709,290.24815 C 375.52709,290.24815 384.20133,289.56439 390.54657,282.11935 C 395.8117,275.94162 395.82107,274.08702 405.19297,270.52916 C 417.55937,265.8345 418.87453,262.59332 420.54694,260.42242 z " style="color: rgb(0, 0, 0); fill: rgb(0, 0, 0); fill-opacity: 1; fill-rule: evenodd; stroke: rgb(0, 0, 0); stroke-width: 1px; stroke-linecap: butt; stroke-linejoin: miter; marker: none; stroke-miterlimit: 4; stroke-dasharray: none; stroke-dashoffset: 0pt; stroke-opacity: 1; visibility: visible; display: inline; overflow: visible;"/>
      <path sodipodi:nodetypes="csssscccscsc" id="path3446" d="M 470.13181,411.86031 C 470.13181,411.86031 469.6458,415.23531 458.64534,409.99227 C 447.64489,404.74922 445.50708,395.74519 433.28578,396.08753 C 421.06447,396.42988 405.16725,394.56804 401.55337,393.59794 C 397.93948,392.62782 386.54689,385.29627 381.44829,383.80408 C 376.34969,382.3119 366.05323,381.21718 366.05323,381.21718 L 350.69846,360.79373 L 383.64344,355.63359 C 383.64344,355.63359 399.38906,375.10851 414.00705,382.101 C 425.47406,387.58621 428.97797,386.35702 428.97797,386.35702 C 428.97797,386.35702 443.63096,383.73826 459.6323,402.06762 C 470.55368,414.57793 470.25342,411.69214 470.13181,411.86031 z " style="color: rgb(0, 0, 0); fill: rgb(255, 255, 255); fill-opacity: 1; fill-rule: evenodd; stroke: rgb(0, 0, 0); stroke-width: 1px; stroke-linecap: butt; stroke-linejoin: miter; marker: none; stroke-miterlimit: 4; stroke-dasharray: none; stroke-dashoffset: 0pt; stroke-opacity: 1; visibility: visible; display: inline; overflow: visible;"/>
      <path id="path3448" d="M 408.93918,413.50358 C 408.93918,413.50358 404.78138,403.29323 392.26233,404.29166 C 379.74329,405.29008 382.94295,402.82431 381.80594,401.3219 C 380.66892,399.81949 366.13503,381.65522 366.13503,381.65522 C 366.13503,381.65522 373.50124,381.08196 378.94287,382.93161 C 384.38449,384.78127 383.16689,394.73706 391.43199,397.36703 C 399.69708,399.997 408.91022,402.5484 408.93918,413.50358 z " style="color: rgb(0, 0, 0); fill: rgb(255, 255, 255); fill-opacity: 1; fill-rule: evenodd; stroke: rgb(0, 0, 0); stroke-width: 1px; stroke-linecap: butt; stroke-linejoin: miter; marker: none; stroke-miterlimit: 4; stroke-dasharray: none; stroke-dashoffset: 0pt; stroke-opacity: 1; visibility: visible; display: inline; overflow: visible;"/>
      <path id="path3450" d="M 445.1496,365.02405 C 445.1009,364.97572 445.1009,364.97572 445.1496,365.02405 z " style="color: rgb(0, 0, 0); fill: none; fill-opacity: 1; fill-rule: evenodd; stroke: rgb(0, 0, 0); stroke-width: 1px; stroke-linecap: butt; stroke-linejoin: miter; marker: none; stroke-miterlimit: 4; stroke-dasharray: none; stroke-dashoffset: 0pt; stroke-opacity: 1; visibility: visible; display: inline; overflow: visible;"/>
      <path sodipodi:nodetypes="csscccssc" id="path3452" d="M 444.61421,365.68215 C 444.61421,365.68215 439.60587,368.14312 424.1239,364.63111 C 409.52152,361.31864 408.43875,364.74701 405.55851,366.4253 C 402.67827,368.10358 392.31456,365.14088 392.31456,365.14088 L 383.39248,355.87729 L 401.14195,352.69548 C 401.14195,352.69548 401.99378,355.21148 409.99977,356.01574 C 418.07614,356.82708 418.34357,355.81804 427.50156,359.89505 C 439.58572,365.27474 441.89792,366.04477 444.61421,365.68215 z " style="color: rgb(0, 0, 0); fill: rgb(255, 255, 255); fill-opacity: 1; fill-rule: evenodd; stroke: rgb(0, 0, 0); stroke-width: 1px; stroke-linecap: butt; stroke-linejoin: miter; marker: none; stroke-miterlimit: 4; stroke-dasharray: none; stroke-dashoffset: 0pt; stroke-opacity: 1; visibility: visible; display: inline; overflow: visible;"/>
      <path style="color: rgb(0, 0, 0); fill: rgb(0, 0, 0); fill-opacity: 1; fill-rule: evenodd; stroke: rgb(0, 0, 0); stroke-width: 1px; stroke-linecap: butt; stroke-linejoin: miter; marker: none; stroke-miterlimit: 4; stroke-dasharray: none; stroke-dashoffset: 0pt; stroke-opacity: 1; visibility: visible; display: inline; overflow: visible;" d="M 470.13181,411.86031 C 470.13181,411.86031 469.6458,415.23531 458.64534,409.99227 C 447.64489,404.74922 445.50708,395.74519 433.28578,396.08753 C 421.06447,396.42988 405.16725,394.56804 401.55337,393.59794 C 397.93948,392.62782 386.54689,385.29627 381.44829,383.80408 C 376.34969,382.3119 366.05323,381.21718 366.05323,381.21718 L 350.69846,360.79373 L 372.5507,368.00555 C 372.5507,368.00555 395.91246,378.93072 410.53046,385.92321 C 421.99747,391.40842 426.56152,390.27989 426.56152,390.27989 C 426.56152,390.27989 442.11486,386.99144 458.1162,405.3208 C 469.03758,417.83111 470.25342,411.69214 470.13181,411.86031 z " id="path3454" sodipodi:nodetypes="csssscccscsc"/>
      <path sodipodi:nodetypes="csscssc" style="color: rgb(0, 0, 0); fill: rgb(0, 0, 0); fill-opacity: 1; fill-rule: evenodd; stroke: rgb(0, 0, 0); stroke-width: 1px; stroke-linecap: butt; stroke-linejoin: miter; marker: none; stroke-miterlimit: 4; stroke-dasharray: none; stroke-dashoffset: 0pt; stroke-opacity: 1; visibility: visible; display: inline; overflow: visible;" d="M 408.93918,413.50358 C 408.93918,413.50358 404.78138,403.29323 392.26233,404.29166 C 379.74329,405.29008 382.94295,402.82431 381.80594,401.3219 C 380.66892,399.81949 366.13503,381.65522 366.13503,381.65522 C 366.13503,381.65522 368.0637,381.54741 374.58049,386.60533 C 379.12082,390.12924 382.72945,397.87137 390.99455,400.50134 C 399.25964,403.13132 408.91022,402.5484 408.93918,413.50358 z " id="path3456"/>
      <path style="color: rgb(0, 0, 0); fill: rgb(0, 0, 0); fill-opacity: 1; fill-rule: evenodd; stroke: rgb(0, 0, 0); stroke-width: 1px; stroke-linecap: butt; stroke-linejoin: miter; marker: none; stroke-miterlimit: 4; stroke-dasharray: none; stroke-dashoffset: 0pt; stroke-opacity: 1; visibility: visible; display: inline; overflow: visible;" d="M 444.61421,365.68215 C 444.61421,365.68215 439.60587,368.14312 424.1239,364.63111 C 409.52152,361.31864 408.43875,364.74701 405.55851,366.4253 C 402.67827,368.10358 392.31456,365.14088 392.31456,365.14088 L 383.39248,355.87729 L 391.65068,355.13582 C 391.65068,355.13582 398.28882,360.76121 408.03705,359.94716 C 416.12591,359.27167 417.43906,357.96199 426.59705,362.039 C 438.68121,367.41868 441.89792,366.04477 444.61421,365.68215 z " id="path3458" sodipodi:nodetypes="csscccssc"/>
      <path sodipodi:nodetypes="csssscccscsc" id="path3462" d="M 140.90582,277.22071 C 140.90582,277.22071 138.8732,279.95846 150.3742,283.98667 C 161.8752,288.0149 169.7355,283.13038 178.16828,291.98282 C 186.60106,300.83526 199.19556,310.71285 202.44388,312.57018 C 205.69221,314.42749 218.9428,317.24966 223.61267,319.78238 C 228.28254,322.31509 236.36154,328.79161 236.36154,328.79161 L 261.64702,325.11314 L 241.89977,298.24224 C 241.89977,298.24224 217.0051,300.97217 201.70417,295.63716 C 189.70144,291.45216 188.0805,288.11138 188.0805,288.11138 C 188.0805,288.11138 179.5255,275.93023 155.25634,277.66696 C 138.69194,278.85231 140.93798,277.01567 140.90582,277.22071 z " style="color: rgb(0, 0, 0); fill: rgb(255, 255, 255); fill-opacity: 1; fill-rule: evenodd; stroke: rgb(0, 0, 0); stroke-width: 1px; stroke-linecap: butt; stroke-linejoin: miter; marker: none; stroke-miterlimit: 4; stroke-dasharray: none; stroke-dashoffset: 0pt; stroke-opacity: 1; visibility: visible; display: inline; overflow: visible;"/>
      <path id="path3464" d="M 183.17907,321.49498 C 183.17907,321.49498 193.32285,317.1773 201.50476,326.70513 C 209.68668,336.23296 209.1528,332.22886 211.01817,331.96353 C 212.88355,331.6982 235.9949,329.04487 235.9949,329.04487 C 235.9949,329.04487 231.17065,323.44878 226.0055,320.92812 C 220.84034,318.40747 214.69103,326.33126 206.97224,322.37539 C 199.25345,318.41954 190.91715,313.74005 183.17907,321.49498 z " style="color: rgb(0, 0, 0); fill: rgb(255, 255, 255); fill-opacity: 1; fill-rule: evenodd; stroke: rgb(0, 0, 0); stroke-width: 1px; stroke-linecap: butt; stroke-linejoin: miter; marker: none; stroke-miterlimit: 4; stroke-dasharray: none; stroke-dashoffset: 0pt; stroke-opacity: 1; visibility: visible; display: inline; overflow: visible;"/>
      <path id="path3466" d="M 191.63114,261.57819 C 191.69975,261.57819 191.69975,261.57819 191.63114,261.57819 z " style="color: rgb(0, 0, 0); fill: none; fill-opacity: 1; fill-rule: evenodd; stroke: rgb(0, 0, 0); stroke-width: 1px; stroke-linecap: butt; stroke-linejoin: miter; marker: none; stroke-miterlimit: 4; stroke-dasharray: none; stroke-dashoffset: 0pt; stroke-opacity: 1; visibility: visible; display: inline; overflow: visible;"/>
      <path style="color: rgb(0, 0, 0); fill: rgb(0, 0, 0); fill-opacity: 1; fill-rule: evenodd; stroke: rgb(0, 0, 0); stroke-width: 1px; stroke-linecap: butt; stroke-linejoin: miter; marker: none; stroke-miterlimit: 4; stroke-dasharray: none; stroke-dashoffset: 0pt; stroke-opacity: 1; visibility: visible; display: inline; overflow: visible;" d="M 191.54752,262.42242 C 191.54752,262.42242 193.36848,267.69727 206.83073,276.11113 C 219.52815,284.04699 217.88147,287.24302 218.7434,290.46319 C 219.60533,293.68336 229.04799,298.88146 229.04799,298.88146 L 241.90621,298.592 L 236.56737,292.24815 C 236.56737,292.24815 227.89313,291.56439 221.54789,284.11935 C 216.28276,277.94162 216.27339,276.08702 206.90149,272.52916 C 194.53509,267.8345 193.21993,264.59332 191.54752,262.42242 z " id="path3474" sodipodi:nodetypes="csscccssc"/>
      <path style="color: rgb(0, 0, 0); fill: rgb(0, 0, 0); fill-opacity: 1; fill-rule: evenodd; stroke: rgb(0, 0, 0); stroke-width: 1px; stroke-linecap: butt; stroke-linejoin: miter; marker: none; stroke-miterlimit: 4; stroke-dasharray: none; stroke-dashoffset: 0pt; stroke-opacity: 1; visibility: visible; display: inline; overflow: visible;" d="M 140.90582,277.22071 C 140.90582,277.22071 138.8732,279.95846 150.3742,283.98667 C 161.8752,288.0149 169.7355,283.13038 178.16828,291.98282 C 186.60106,300.83526 199.19556,310.71285 202.44388,312.57018 C 205.69221,314.42749 218.9428,317.24966 223.61267,319.78238 C 228.28254,322.31509 236.36154,328.79161 236.36154,328.79161 L 261.64702,325.11314 L 241.05714,314.83756 C 241.05714,314.83756 216.77997,306.13408 201.47904,300.79908 C 189.47631,296.61406 187.03203,292.59789 187.03203,292.59789 C 187.03203,292.59789 178.30979,279.30719 154.04063,281.04391 C 137.47623,282.22927 140.93798,277.01567 140.90582,277.22071 z " id="path3470" sodipodi:nodetypes="csssscccscsc"/>
      <path sodipodi:nodetypes="csscssc" style="color: rgb(0, 0, 0); fill: rgb(0, 0, 0); fill-opacity: 1; fill-rule: evenodd; stroke: rgb(0, 0, 0); stroke-width: 1px; stroke-linecap: butt; stroke-linejoin: miter; marker: none; stroke-miterlimit: 4; stroke-dasharray: none; stroke-dashoffset: 0pt; stroke-opacity: 1; visibility: visible; display: inline; overflow: visible;" d="M 183.17907,321.49498 C 183.17907,321.49498 193.32285,317.1773 201.50476,326.70513 C 209.68668,336.23296 209.1528,332.22886 211.01817,331.96353 C 212.88355,331.6982 235.9949,329.04487 235.9949,329.04487 C 235.9949,329.04487 234.702,327.60967 226.51365,326.60864 C 220.80873,325.91121 212.79349,328.86397 205.0747,324.9081 C 197.35591,320.95225 190.91715,313.74005 183.17907,321.49498 z " id="path3472"/>
      <path style="color: rgb(0, 0, 0); fill: rgb(255, 255, 255); fill-opacity: 1; fill-rule: evenodd; stroke: rgb(0, 0, 0); stroke-width: 1px; stroke-linecap: butt; stroke-linejoin: miter; marker: none; stroke-miterlimit: 4; stroke-dasharray: none; stroke-dashoffset: 0pt; stroke-opacity: 1; visibility: visible; display: inline; overflow: visible;" d="M 141.96265,411.86031 C 141.96265,411.86031 142.44866,415.23531 153.44912,409.99227 C 164.44957,404.74922 166.58738,395.74519 178.80868,396.08753 C 191.02999,396.42988 206.92721,394.56804 210.54109,393.59794 C 214.15498,392.62782 225.54757,385.29627 230.64617,383.80408 C 235.74477,382.3119 246.04123,381.21718 246.04123,381.21718 L 261.396,360.79373 L 228.45102,355.63359 C 228.45102,355.63359 212.7054,375.10851 198.08741,382.101 C 186.6204,387.58621 183.11649,386.35702 183.11649,386.35702 C 183.11649,386.35702 168.4635,383.73826 152.46216,402.06762 C 141.54078,414.57793 141.84104,411.69214 141.96265,411.86031 z " id="path3478" sodipodi:nodetypes="csssscccscsc"/>
      <path style="color: rgb(0, 0, 0); fill: rgb(255, 255, 255); fill-opacity: 1; fill-rule: evenodd; stroke: rgb(0, 0, 0); stroke-width: 1px; stroke-linecap: butt; stroke-linejoin: miter; marker: none; stroke-miterlimit: 4; stroke-dasharray: none; stroke-dashoffset: 0pt; stroke-opacity: 1; visibility: visible; display: inline; overflow: visible;" d="M 203.15528,413.50358 C 203.15528,413.50358 207.31308,403.29323 219.83213,404.29166 C 232.35117,405.29008 229.15151,402.82431 230.28852,401.3219 C 231.42554,399.81949 245.95943,381.65522 245.95943,381.65522 C 245.95943,381.65522 238.59322,381.08196 233.15159,382.93161 C 227.70997,384.78127 228.92757,394.73706 220.66247,397.36703 C 212.39738,399.997 203.18424,402.5484 203.15528,413.50358 z " id="path3480"/>
      <path style="color: rgb(0, 0, 0); fill: none; fill-opacity: 1; fill-rule: evenodd; stroke: rgb(0, 0, 0); stroke-width: 1px; stroke-linecap: butt; stroke-linejoin: miter; marker: none; stroke-miterlimit: 4; stroke-dasharray: none; stroke-dashoffset: 0pt; stroke-opacity: 1; visibility: visible; display: inline; overflow: visible;" d="M 166.94486,365.02405 C 166.99356,364.97572 166.99356,364.97572 166.94486,365.02405 z " id="path3482"/>
      <path style="color: rgb(0, 0, 0); fill: rgb(255, 255, 255); fill-opacity: 1; fill-rule: evenodd; stroke: rgb(0, 0, 0); stroke-width: 1px; stroke-linecap: butt; stroke-linejoin: miter; marker: none; stroke-miterlimit: 4; stroke-dasharray: none; stroke-dashoffset: 0pt; stroke-opacity: 1; visibility: visible; display: inline; overflow: visible;" d="M 167.48025,365.68215 C 167.48025,365.68215 172.48859,368.14312 187.97056,364.63111 C 202.57294,361.31864 203.65571,364.74701 206.53595,366.4253 C 209.41619,368.10358 219.7799,365.14088 219.7799,365.14088 L 228.70198,355.87729 L 210.95251,352.69548 C 210.95251,352.69548 210.10068,355.21148 202.09469,356.01574 C 194.01832,356.82708 193.75089,355.81804 184.5929,359.89505 C 172.50874,365.27474 170.19654,366.04477 167.48025,365.68215 z " id="path3484" sodipodi:nodetypes="csscccssc"/>
      <path sodipodi:nodetypes="csssscccscsc" id="path3486" d="M 141.96265,411.86031 C 141.96265,411.86031 142.44866,415.23531 153.44912,409.99227 C 164.44957,404.74922 166.58738,395.74519 178.80868,396.08753 C 191.02999,396.42988 206.92721,394.56804 210.54109,393.59794 C 214.15498,392.62782 225.54757,385.29627 230.64617,383.80408 C 235.74477,382.3119 246.04123,381.21718 246.04123,381.21718 L 261.396,360.79373 L 239.54376,368.00555 C 239.54376,368.00555 216.182,378.93072 201.564,385.92321 C 190.09699,391.40842 185.53294,390.27989 185.53294,390.27989 C 185.53294,390.27989 169.9796,386.99144 153.97826,405.3208 C 143.05688,417.83111 141.84104,411.69214 141.96265,411.86031 z " style="color: rgb(0, 0, 0); fill: rgb(0, 0, 0); fill-opacity: 1; fill-rule: evenodd; stroke: rgb(0, 0, 0); stroke-width: 1px; stroke-linecap: butt; stroke-linejoin: miter; marker: none; stroke-miterlimit: 4; stroke-dasharray: none; stroke-dashoffset: 0pt; stroke-opacity: 1; visibility: visible; display: inline; overflow: visible;"/>
      <path id="path3488" d="M 203.15528,413.50358 C 203.15528,413.50358 207.31308,403.29323 219.83213,404.29166 C 232.35117,405.29008 229.15151,402.82431 230.28852,401.3219 C 231.42554,399.81949 245.95943,381.65522 245.95943,381.65522 C 245.95943,381.65522 244.03076,381.54741 237.51397,386.60533 C 232.97364,390.12924 229.36501,397.87137 221.09991,400.50134 C 212.83482,403.13132 203.18424,402.5484 203.15528,413.50358 z " style="color: rgb(0, 0, 0); fill: rgb(0, 0, 0); fill-opacity: 1; fill-rule: evenodd; stroke: rgb(0, 0, 0); stroke-width: 1px; stroke-linecap: butt; stroke-linejoin: miter; marker: none; stroke-miterlimit: 4; stroke-dasharray: none; stroke-dashoffset: 0pt; stroke-opacity: 1; visibility: visible; display: inline; overflow: visible;" sodipodi:nodetypes="csscssc"/>
      <path sodipodi:nodetypes="csscccssc" id="path3490" d="M 167.48025,365.68215 C 167.48025,365.68215 172.48859,368.14312 187.97056,364.63111 C 202.57294,361.31864 203.65571,364.74701 206.53595,366.4253 C 209.41619,368.10358 219.7799,365.14088 219.7799,365.14088 L 228.70198,355.87729 L 220.44378,355.13582 C 220.44378,355.13582 213.80564,360.76121 204.05741,359.94716 C 195.96855,359.27167 194.6554,357.96199 185.49741,362.039 C 173.41325,367.41868 170.19654,366.04477 167.48025,365.68215 z " style="color: rgb(0, 0, 0); fill: rgb(0, 0, 0); fill-opacity: 1; fill-rule: evenodd; stroke: rgb(0, 0, 0); stroke-width: 1px; stroke-linecap: butt; stroke-linejoin: miter; marker: none; stroke-miterlimit: 4; stroke-dasharray: none; stroke-dashoffset: 0pt; stroke-opacity: 1; visibility: visible; display: inline; overflow: visible;"/>
      <g id="g3288" style="display: inline;">
        <path transform="matrix(0.25052, 0, 0, 0.25052, 183.587, 210.876)" d="M 665.71429 520.57648 A 179.64285 179.64285 0 1 1  306.42859,520.57648 A 179.64285 179.64285 0 1 1  665.71429 520.57648 z" sodipodi:ry="179.64285" sodipodi:rx="179.64285" sodipodi:cy="520.57648" sodipodi:cx="486.07144" id="path3218" style="fill: none; fill-rule: evenodd; stroke: rgb(255, 255, 255); stroke-width: 24.9481; stroke-linecap: butt; stroke-linejoin: miter; stroke-miterlimit: 4; stroke-dasharray: none; stroke-opacity: 1; display: inline;" sodipodi:type="arc"/>
        <path transform="matrix(0.274385, 0, 0, 0.274385, 171.986, 198.452)" d="M 665.71429 520.57648 A 179.64285 179.64285 0 1 1  306.42859,520.57648 A 179.64285 179.64285 0 1 1  665.71429 520.57648 z" sodipodi:ry="179.64285" sodipodi:rx="179.64285" sodipodi:cy="520.57648" sodipodi:cx="486.07144" id="path3203" style="fill: none; fill-rule: evenodd; stroke: rgb(0, 0, 0); stroke-width: 9.11127; stroke-linecap: butt; stroke-linejoin: miter; stroke-miterlimit: 4; stroke-dasharray: none; stroke-opacity: 1; display: inline;" sodipodi:type="arc"/>
        <path sodipodi:type="arc" style="fill: none; fill-rule: evenodd; stroke: rgb(0, 0, 0); stroke-width: 11.0227; stroke-linecap: butt; stroke-linejoin: miter; stroke-miterlimit: 4; stroke-dasharray: none; stroke-opacity: 1; display: inline;" id="path3205" sodipodi:cx="486.07144" sodipodi:cy="520.57648" sodipodi:rx="179.64285" sodipodi:ry="179.64285" d="M 665.71429 520.57648 A 179.64285 179.64285 0 1 1  306.42859,520.57648 A 179.64285 179.64285 0 1 1  665.71429 520.57648 z" transform="matrix(0.226804, 0, 0, 0.226804, 195.114, 223.222)"/>
      </g>
    </g>
  </g>
</svg>