<?xml version="1.0" encoding="UTF-8" standalone="no"?>
<svg xmlns:dc="http://purl.org/dc/elements/1.1/" xmlns:cc="http://web.resource.org/cc/" xmlns:rdf="http://www.w3.org/1999/02/22-rdf-syntax-ns#" xmlns:svg="http://www.w3.org/2000/svg" xmlns="http://www.w3.org/2000/svg" xmlns:sodipodi="http://inkscape.sourceforge.net/DTD/sodipodi-0.dtd" xmlns:inkscape="http://www.inkscape.org/namespaces/inkscape" version="1.0" viewBox="0 0 21000 29700" preserveAspectRatio="xMidYMid" fill-rule="evenodd" id="svg1891" sodipodi:version="0.32" inkscape:version="0.43" width="280pt" height="100pt" sodipodi:docname="fish3.svg" sodipodi:docbase="C:\Clipart\Egen">
  <metadata id="metadata2062">
    <rdf:RDF>
      <cc:Work rdf:about="">
        <dc:format>image/svg+xml</dc:format>
        <dc:type rdf:resource="http://purl.org/dc/dcmitype/StillImage"/>
        <dc:title>Fish 3</dc:title>
        <cc:license rdf:resource="http://web.resource.org/cc/PublicDomain"/>
      </cc:Work>
      <cc:License rdf:about="http://web.resource.org/cc/PublicDomain">
        <cc:permits rdf:resource="http://web.resource.org/cc/Reproduction"/>
        <cc:permits rdf:resource="http://web.resource.org/cc/Distribution"/>
        <cc:permits rdf:resource="http://web.resource.org/cc/DerivativeWorks"/>
      </cc:License>
    </rdf:RDF>
  </metadata>
  <defs id="defs2060">
    <desc id="desc1897">Slide</desc>
  </defs>
  <sodipodi:namedview inkscape:window-height="540" inkscape:window-width="812" inkscape:pageshadow="2" inkscape:pageopacity="0.0" borderopacity="1.0" bordercolor="#666666" pagecolor="#ffffff" id="base" inkscape:zoom="0.78033914" inkscape:cx="327.99087" inkscape:cy="160.86035" inkscape:window-x="0" inkscape:window-y="0" inkscape:current-layer="svg1891"/>
  <g visibility="visible" id="Default" style="visibility: visible;">
    <desc id="desc1894">Master slide</desc>
  </g>
  <g style="visibility: visible;" id="g1957" transform="matrix(8.87567, 0, 0, 8.87567, -36890.2, -100072)">
    <desc id="desc1959">Graphic</desc>
    <g id="g1961">
      <g id="g1963" style="fill: rgb(0, 0, 0); stroke: none;">
        <path id="path1965" d="M 5906,11606 L 6081,11606 L 6046,11641 L 5730,11745 L 5625,11814 L 5485,11814 L 5310,11780 L 5345,11745 L 5380,11745 L 5871,11641 L 5906,11606 z M 9444,11606 L 9479,11606 L 9514,11641 L 9549,11710 L 9514,11814 L 9339,12057 L 9199,12196 L 9128,12299 L 9128,12334 L 9058,12403 L 8883,12542 L 8848,12542 L 8743,12646 L 8778,12681 L 8813,12681 L 8883,12646 L 8953,12577 L 9128,12438 L 9163,12438 L 9234,12369 L 9514,11988 L 9549,12022 L 9549,12092 L 9514,12161 L 9269,12438 L 9234,12438 L 9093,12577 L 9093,12611 L 9058,12646 L 8988,12646 L 8953,12681 L 8953,12715 L 8918,12750 L 8813,12785 L 8673,12889 L 8638,12854 L 8638,12785 L 8673,12785 L 8743,12715 L 8743,12681 L 8708,12646 L 8673,12646 L 8533,12785 L 8183,12785 L 8148,12819 L 8183,12854 L 8323,12889 L 8428,12889 L 8463,12854 L 8568,12854 L 8533,12889 L 8323,12889 L 8288,12923 L 8323,12958 L 8603,12958 L 8638,12993 L 8708,12993 L 8813,12958 L 8988,12923 L 9023,12889 L 9023,12854 L 9093,12819 L 9199,12785 L 9269,12785 L 9409,12681 L 9479,12611 L 9514,12611 L 9514,12681 L 9479,12819 L 9409,12889 L 9374,12889 L 9234,12923 L 9163,12993 L 9058,13028 L 8883,13063 L 8603,13132 L 8603,13098 L 8638,13063 L 8638,13028 L 8603,12993 L 8568,13028 L 8358,13028 L 8288,13063 L 8253,13098 L 7867,13098 L 7832,13063 L 7762,13132 L 7797,13167 L 7937,13202 L 8148,13202 L 8183,13167 L 8428,13167 L 8743,13202 L 8813,13236 L 8848,13271 L 8743,13271 L 8708,13236 L 8638,13202 L 8603,13202 L 8568,13236 L 8393,13236 L 8358,13202 L 7902,13202 L 7832,13271 L 7867,13306 L 8393,13306 L 8428,13340 L 8533,13340 L 8568,13306 L 8673,13306 L 8883,13375 L 9093,13479 L 9128,13514 L 9199,13548 L 9234,13548 L 9374,13687 L 9444,13791 L 9444,13860 L 9339,13756 L 9058,13548 L 8708,13375 L 8007,13375 L 7972,13410 L 8007,13444 L 8673,13444 L 8883,13548 L 9093,13687 L 9128,13722 L 9093,13722 L 8953,13652 L 8883,13583 L 8743,13514 L 8638,13479 L 8603,13514 L 8603,13548 L 8638,13583 L 8673,13583 L 9093,13791 L 9269,13930 L 9339,13999 L 9374,14103 L 9339,14103 L 9093,13860 L 8953,13756 L 8883,13722 L 8813,13722 L 8603,13618 L 8568,13583 L 8498,13583 L 8463,13618 L 8463,13652 L 8498,13687 L 8848,13791 L 9058,13930 L 9339,14207 L 9374,14276 L 9374,14311 L 8988,13964 L 8428,13548 L 8288,13514 L 8078,13514 L 8043,13548 L 8078,13583 L 7937,13583 L 7762,13548 L 7727,13514 L 6221,13444 L 6186,13410 L 5766,13410 L 5730,13444 L 4083,13410 L 4048,13375 L 4013,13306 L 3943,13098 L 3943,13063 L 3803,12923 L 3768,12923 L 3733,12958 L 3733,13028 L 3768,13098 L 3838,13167 L 3943,13444 L 3943,13583 L 3908,13687 L 3873,13687 L 3838,13583 L 3838,13548 L 3803,13514 L 3768,13514 L 3733,13548 L 3733,13618 L 3663,13548 L 3663,13063 L 3628,13028 L 3593,13028 L 3558,13063 L 3558,13375 L 3312,13375 L 3277,13340 L 2647,13340 L 2612,13306 L 2507,13271 L 1771,13271 L 1736,13306 L 1421,13306 L 1456,13271 L 1491,13202 L 1421,13132 L 1000,13132 L 965,13098 L 965,13063 L 1070,12958 L 1175,12923 L 1246,12923 L 1421,12819 L 1526,12715 L 1526,12681 L 1561,12646 L 1631,12646 L 1841,12577 L 2226,12403 L 2507,12196 L 2612,12161 L 2962,12161 L 3277,12299 L 3558,12577 L 3628,12681 L 3628,12750 L 3698,12819 L 3733,12819 L 3768,12785 L 3733,12750 L 3663,12611 L 3663,12542 L 3558,12438 L 3523,12438 L 3487,12403 L 3487,12369 L 3277,12161 L 3242,12161 L 3172,12092 L 3242,12092 L 3523,12265 L 3558,12299 L 3558,12334 L 3593,12369 L 3628,12369 L 3663,12403 L 3698,12473 L 3943,12854 L 3943,12889 L 4013,12958 L 4188,12958 L 4468,12923 L 4538,12854 L 4503,12819 L 4223,12819 L 4188,12854 L 4013,12854 L 3978,12819 L 3943,12715 L 3943,12681 L 3838,12507 L 3663,12299 L 3523,12161 L 3487,12161 L 3382,12057 L 3452,12057 L 3733,12265 L 3768,12299 L 3768,12334 L 3838,12438 L 4013,12611 L 4118,12750 L 4118,12785 L 4153,12819 L 4188,12785 L 4188,12715 L 4153,12646 L 3733,12161 L 3698,12161 L 3663,12126 L 3593,12022 L 3628,12022 L 3733,12057 L 3803,12092 L 4013,12299 L 4013,12334 L 4328,12750 L 4363,12785 L 4398,12750 L 4398,12681 L 4328,12577 L 4223,12473 L 4013,12161 L 4013,12126 L 3978,12092 L 3873,12022 L 3838,12022 L 3803,11988 L 3838,11988 L 3873,12022 L 3978,12057 L 4013,12057 L 4363,12403 L 4398,12369 L 4363,12334 L 4328,12265 L 4328,12230 L 4293,12196 L 4258,12196 L 4223,12161 L 4223,12126 L 4118,12022 L 4083,12022 L 4013,11953 L 4048,11953 L 4188,12022 L 4293,12092 L 4328,12126 L 4328,12161 L 4363,12196 L 4398,12196 L 4503,12299 L 4503,12334 L 4573,12403 L 4608,12403 L 4644,12369 L 4608,12299 L 4398,12092 L 4398,12057 L 4363,12022 L 4328,12022 L 4258,11988 L 4223,11953 L 4223,11918 L 4293,11918 L 4398,12022 L 4468,12057 L 4503,12057 L 4714,12265 L 4714,12299 L 4854,12438 L 4889,12403 L 4889,12369 L 4819,12299 L 4784,12230 L 4784,12196 L 4608,12022 L 4573,12022 L 4468,11918 L 4538,11918 L 4644,12022 L 4714,12057 L 4749,12057 L 4784,12092 L 4784,12126 L 4959,12299 L 4959,12334 L 4994,12369 L 5029,12334 L 5029,12299 L 4994,12230 L 4924,12161 L 4889,12092 L 4889,12057 L 4854,12022 L 4784,11988 L 4714,11918 L 4784,11918 L 4854,11953 L 5099,12196 L 5099,12230 L 5169,12334 L 5204,12369 L 5239,12369 L 5274,12334 L 5274,12299 L 5204,12196 L 5134,12057 L 5099,12022 L 5064,12022 L 4994,11953 L 4959,11884 L 4994,11884 L 5064,11918 L 5239,12057 L 5345,12161 L 5380,12230 L 5380,12265 L 5450,12369 L 5485,12403 L 5520,12369 L 5520,12299 L 5485,12196 L 5380,12057 L 5345,12022 L 5310,12022 L 5274,11988 L 5239,11918 L 5310,11918 L 5310,11953 L 5345,11988 L 5415,12022 L 5450,12022 L 5555,12126 L 5555,12161 L 5590,12196 L 5625,12196 L 5660,12230 L 5695,12299 L 5695,12334 L 5766,12438 L 5801,12473 L 5836,12473 L 5871,12438 L 5871,12403 L 5695,12126 L 5590,12022 L 5555,12022 L 5485,11953 L 5485,11918 L 5555,11953 L 5660,12022 L 5766,12126 L 5766,12161 L 5801,12196 L 5836,12196 L 5941,12299 L 5941,12334 L 6081,12473 L 6116,12438 L 6081,12403 L 6046,12334 L 6046,12299 L 5906,12092 L 5836,12022 L 5871,12022 L 6011,12092 L 6011,12126 L 6186,12334 L 6326,12473 L 6361,12438 L 6256,12230 L 6081,12057 L 6116,12057 L 6186,12092 L 6326,12230 L 6536,12715 L 6641,12889 L 6711,12958 L 6746,12923 L 6746,12854 L 6466,12334 L 6326,12126 L 6326,12092 L 6361,12126 L 6396,12092 L 6361,12057 L 6396,12057 L 6396,12161 L 6501,12334 L 6676,12542 L 6711,12507 L 6711,12473 L 6676,12369 L 6641,12299 L 6501,12161 L 6501,12126 L 6536,12161 L 6606,12196 L 6641,12196 L 6676,12230 L 6676,12265 L 6851,12438 L 6886,12507 L 6886,12542 L 6922,12577 L 6957,12577 L 6992,12542 L 6992,12507 L 6851,12299 L 6746,12196 L 6816,12196 L 6851,12230 L 6851,12265 L 6886,12299 L 6922,12299 L 7027,12403 L 7097,12507 L 7097,12542 L 7132,12577 L 7167,12577 L 7202,12542 L 7202,12507 L 7097,12403 L 7097,12369 L 7167,12403 L 7237,12473 L 7342,12611 L 7412,12819 L 7412,12889 L 7482,12958 L 7517,12923 L 7517,12854 L 7482,12681 L 7377,12507 L 7237,12369 L 7272,12369 L 7482,12577 L 7552,12681 L 7622,12819 L 7657,12923 L 7692,12993 L 7727,13028 L 7762,13028 L 7797,12993 L 7762,12854 L 7692,12715 L 7622,12611 L 7447,12438 L 7447,12403 L 7552,12473 L 7587,12507 L 7587,12542 L 7727,12681 L 7762,12681 L 7797,12646 L 7762,12577 L 7727,12542 L 7692,12542 L 7692,12507 L 7762,12542 L 7832,12611 L 7832,12646 L 7937,12750 L 8007,12785 L 8043,12785 L 8078,12750 L 8078,12715 L 8148,12785 L 8183,12785 L 8218,12750 L 8358,12750 L 8393,12715 L 8393,12681 L 8358,12646 L 8358,12577 L 8393,12577 L 8428,12611 L 8498,12611 L 8603,12577 L 8918,12403 L 9058,12299 L 9093,12265 L 9304,11988 L 9409,11641 L 9444,11606 z M 6081,11710 L 6221,11710 L 6186,11745 L 6116,11780 L 6046,11780 L 5976,11849 L 6011,11884 L 6081,11884 L 6116,11849 L 6186,11814 L 6291,11814 L 6256,11849 L 6256,11884 L 6291,11918 L 6326,11918 L 6361,11884 L 6501,11884 L 6431,11988 L 6361,11953 L 5836,11884 L 5695,11849 L 5730,11814 L 5836,11814 L 6046,11745 L 6081,11710 z M 6992,12230 L 7027,12265 L 6992,12265 L 6992,12230 z M 9549,12265 L 9549,12403 L 9444,12507 L 9269,12646 L 9199,12646 L 9234,12577 L 9304,12577 L 9339,12542 L 9339,12507 L 9514,12334 L 9514,12299 L 9549,12265 z M 2962,12299 L 3032,12299 L 3067,12334 L 3277,12403 L 3312,12403 L 3452,12542 L 3452,12577 L 3523,12715 L 3558,12750 L 3558,12785 L 3523,12923 L 3277,13167 L 2752,13167 L 2682,13098 L 2682,13063 L 2717,13028 L 3102,13028 L 3207,12993 L 3347,12923 L 3382,12889 L 3382,12681 L 3172,12473 L 3102,12473 L 2962,12438 L 2892,12369 L 2962,12299 z M 2682,12334 L 2822,12334 L 2857,12369 L 2857,12403 L 2822,12438 L 2507,12507 L 2437,12577 L 2402,12542 L 2402,12507 L 2507,12403 L 2577,12369 L 2682,12334 z M 4994,12369 L 5064,12369 L 5310,12611 L 5310,12646 L 5345,12715 L 5380,12750 L 5380,12785 L 5345,12819 L 5274,12750 L 5169,12611 L 5169,12577 L 5064,12473 L 5029,12473 L 4959,12403 L 4994,12369 z M 5310,12369 L 5345,12369 L 5380,12403 L 5485,12542 L 5625,12819 L 5590,12854 L 5555,12854 L 5520,12819 L 5520,12785 L 5485,12681 L 5345,12542 L 5274,12438 L 5274,12403 L 5310,12369 z M 4328,12403 L 4398,12438 L 4608,12646 L 4679,12785 L 4679,12889 L 4644,12923 L 4608,12889 L 4538,12750 L 4538,12715 L 4398,12577 L 4363,12577 L 4293,12507 L 4293,12438 L 4328,12403 z M 4538,12403 L 4608,12403 L 4644,12438 L 4679,12438 L 4714,12403 L 4784,12403 L 4854,12438 L 4994,12577 L 5169,12819 L 5134,12854 L 5029,12785 L 4994,12750 L 4994,12715 L 4924,12611 L 4854,12542 L 4749,12473 L 4714,12473 L 4749,12507 L 4784,12577 L 4784,12611 L 4889,12750 L 4959,12819 L 4924,12854 L 4819,12785 L 4784,12750 L 4749,12681 L 4749,12646 L 4679,12577 L 4644,12577 L 4503,12438 L 4538,12403 z M 5555,12403 L 5625,12403 L 5695,12473 L 5766,12577 L 5871,12819 L 5871,12889 L 5836,12923 L 5801,12923 L 5766,12889 L 5766,12819 L 5625,12542 L 5520,12438 L 5555,12403 z M 5906,12438 L 5941,12438 L 6011,12473 L 6046,12507 L 6221,12889 L 6151,12958 L 6081,12889 L 6011,12681 L 5906,12542 L 5871,12473 L 5906,12438 z M 6186,12473 L 6221,12473 L 6291,12542 L 6361,12646 L 6431,12785 L 6466,12889 L 6466,12923 L 6431,12958 L 6361,12958 L 6326,12923 L 6326,12819 L 6221,12611 L 6151,12542 L 6151,12507 L 6186,12473 z M 2717,12542 L 2787,12542 L 2822,12577 L 2822,12646 L 2787,12681 L 2507,12681 L 2472,12646 L 2507,12611 L 2577,12611 L 2682,12577 L 2717,12542 z M 6816,12542 L 6957,12681 L 7027,12819 L 7062,12958 L 7027,12993 L 6992,12993 L 6957,12958 L 6957,12923 L 6851,12715 L 6746,12611 L 6816,12542 z M 7937,12577 L 8043,12681 L 8007,12681 L 7937,12611 L 7937,12577 z M 2051,12577 L 2226,12577 L 2367,12611 L 2437,12681 L 2437,12715 L 2402,12750 L 2367,12715 L 2296,12681 L 2156,12646 L 2086,12646 L 2016,12715 L 2156,12715 L 2367,12750 L 2402,12785 L 2367,12819 L 2226,12923 L 2156,12958 L 2051,12958 L 1981,12923 L 1946,12889 L 1911,12819 L 1911,12681 L 1981,12611 L 2051,12577 z M 8078,12611 L 8113,12611 L 8148,12646 L 8113,12646 L 8078,12611 z M 8218,12611 L 8253,12611 L 8288,12646 L 8253,12646 L 8218,12611 z M 7062,12611 L 7097,12611 L 7202,12715 L 7272,12819 L 7272,12889 L 7307,12958 L 7342,12993 L 7307,13028 L 7272,13028 L 7237,12993 L 7237,12958 L 7167,12819 L 7027,12681 L 7027,12646 L 7062,12611 z M 8533,12611 L 8568,12611 L 8603,12646 L 8533,12715 L 8428,12715 L 8393,12681 L 8428,12646 L 8533,12611 z M 9128,12681 L 9163,12681 L 9093,12750 L 9093,12715 L 9128,12681 z M 2121,12785 L 2191,12785 L 2191,12819 L 2121,12819 L 2121,12785 z M 8007,12785 L 8043,12785 L 8078,12819 L 8043,12854 L 8007,12854 L 7972,12819 L 8007,12785 z M 1666,12993 L 1841,12993 L 1981,13028 L 2016,13063 L 1946,13132 L 1876,13132 L 1841,13098 L 1701,13063 L 1666,13063 L 1631,13028 L 1666,12993 z M 9339,13028 L 9339,13063 L 9304,13098 L 9199,13132 L 9093,13132 L 9128,13098 L 9199,13063 L 9339,13028 z M 3733,13167 L 3803,13236 L 3803,13375 L 3768,13410 L 3733,13410 L 3698,13375 L 3698,13202 L 3733,13167 z M 8988,13202 L 9269,13202 L 9374,13340 L 9374,13410 L 9269,13375 L 9199,13306 L 9128,13271 L 9023,13271 L 8988,13236 L 8988,13202 z M 8988,13306 L 9093,13340 L 9128,13375 L 9023,13375 L 8953,13306 L 8988,13306 z M 9234,13444 L 9304,13444 L 9304,13479 L 9269,13479 L 9234,13444 z M 3768,13444 L 3803,13479 L 3768,13514 L 3733,13479 L 3768,13444 z M 5555,13583 L 5660,13618 L 5660,13756 L 5590,13756 L 5555,13722 L 5345,13722 L 5310,13687 L 5239,13652 L 5099,13618 L 5029,13583 L 5555,13583 z M 6922,13583 L 7237,13618 L 7272,13652 L 7377,13687 L 7412,13687 L 7482,13756 L 7237,13756 L 6851,13652 L 6781,13618 L 6746,13583 L 6922,13583 z M 8183,13618 L 8323,13618 L 8358,13652 L 8218,13652 L 8183,13618 z M 9234,13791 L 9269,13791 L 9339,13860 L 9304,13860 L 9234,13791 z M 9409,11433 L 9479,11433 L 9549,11468 L 9584,11502 L 9654,11606 L 9689,11814 L 9689,11849 L 9654,11884 L 9619,11884 L 9654,11988 L 9689,12022 L 9689,12057 L 9654,12092 L 9654,12196 L 9689,12230 L 9689,12403 L 9654,12473 L 9584,12542 L 9584,12611 L 9619,12646 L 9619,12750 L 9584,12785 L 9514,12923 L 9479,13028 L 9479,13098 L 9409,13167 L 9374,13167 L 9374,13202 L 9409,13236 L 9479,13236 L 9514,13271 L 9549,13479 L 9549,13548 L 9514,13583 L 9444,13583 L 9584,13860 L 9584,13999 L 9549,14068 L 9514,14103 L 9514,14172 L 9549,14207 L 9549,14380 L 9514,14519 L 9479,14553 L 9339,14449 L 9304,14415 L 9304,14380 L 9058,14138 L 9023,14138 L 8953,14103 L 8848,13999 L 8708,13930 L 8218,13756 L 8043,13756 L 7972,13722 L 7937,13687 L 7587,13687 L 7587,13791 L 7482,13895 L 7342,13895 L 7307,13860 L 6536,13652 L 6466,13618 L 6431,13583 L 5766,13583 L 5766,13791 L 5730,13826 L 5660,13860 L 5485,13860 L 5380,13826 L 4994,13756 L 4959,13722 L 4959,13687 L 4889,13618 L 4644,13548 L 4048,13548 L 4048,13687 L 4013,13756 L 3978,13791 L 3873,13791 L 3698,13756 L 3593,13652 L 3277,13514 L 3242,13479 L 3242,13444 L 2507,13444 L 2472,13410 L 2226,13375 L 1946,13375 L 1911,13410 L 1631,13444 L 1526,13444 L 1351,13410 L 1316,13375 L 1316,13271 L 1281,13236 L 930,13236 L 860,13167 L 860,13063 L 1140,12785 L 1631,12473 L 1736,12473 L 2437,12126 L 2472,12092 L 2472,12057 L 2507,12022 L 5169,11676 L 6081,11468 L 6186,11468 L 6221,11502 L 6221,11572 L 6186,11606 L 6361,11606 L 6571,11745 L 6641,11814 L 6641,11884 L 6571,11953 L 6571,11988 L 7482,12265 L 7517,12299 L 7517,12334 L 7727,12403 L 8183,12473 L 8323,12507 L 8358,12507 L 8778,12369 L 8918,12230 L 8953,12161 L 8988,12126 L 9023,12126 L 9163,11988 L 9269,11780 L 9304,11676 L 9339,11502 L 9409,11433 z "/>
      </g>
    </g>
  </g>
</svg>