<?xml version="1.0" encoding="UTF-8" standalone="no"?>
<svg xmlns:dc="http://purl.org/dc/elements/1.1/" xmlns:cc="http://web.resource.org/cc/" xmlns:rdf="http://www.w3.org/1999/02/22-rdf-syntax-ns#" xmlns:svg="http://www.w3.org/2000/svg" xmlns="http://www.w3.org/2000/svg" xmlns:sodipodi="http://inkscape.sourceforge.net/DTD/sodipodi-0.dtd" xmlns:inkscape="http://www.inkscape.org/namespaces/inkscape" version="1.0" viewBox="0 0 21000 29700" preserveAspectRatio="xMidYMid" fill-rule="evenodd" id="svg1891" sodipodi:version="0.32" inkscape:version="0.43" width="230pt" height="100pt" sodipodi:docname="fish1.svg" sodipodi:docbase="C:\Clipart\Egen">
  <metadata id="metadata2062">
    <rdf:RDF>
      <cc:Work rdf:about="">
        <dc:format>image/svg+xml</dc:format>
        <dc:type rdf:resource="http://purl.org/dc/dcmitype/StillImage"/>
        <dc:title>Fish 1</dc:title>
        <cc:license rdf:resource="http://web.resource.org/cc/PublicDomain"/>
      </cc:Work>
      <cc:License rdf:about="http://web.resource.org/cc/PublicDomain">
        <cc:permits rdf:resource="http://web.resource.org/cc/Reproduction"/>
        <cc:permits rdf:resource="http://web.resource.org/cc/Distribution"/>
        <cc:permits rdf:resource="http://web.resource.org/cc/DerivativeWorks"/>
      </cc:License>
    </rdf:RDF>
  </metadata>
  <defs id="defs2060">
    <desc id="desc1897">Slide</desc>
  </defs>
  <sodipodi:namedview inkscape:window-height="540" inkscape:window-width="812" inkscape:pageshadow="2" inkscape:pageopacity="0.0" borderopacity="1.0" bordercolor="#666666" pagecolor="#ffffff" id="base" inkscape:zoom="0.35824168" inkscape:cx="372.04724" inkscape:cy="389.51005" inkscape:window-x="0" inkscape:window-y="0" inkscape:current-layer="svg1891"/>
  <g visibility="visible" id="Default" style="visibility: visible;">
    <desc id="desc1894">Master slide</desc>
  </g>
  <g style="visibility: visible;" id="g1937" transform="matrix(7.58998, 0, 0, 7.58998, -32632.3, -50530.6)">
    <desc id="desc1939">Graphic</desc>
    <g id="g1941">
      <g id="g1943" style="fill: rgb(0, 0, 0); stroke: none;">
        <path id="path1945" d="M 1648,7248 L 1683,7283 L 1788,7491 L 1858,7561 L 1999,7630 L 2139,7665 L 2524,7838 L 2664,7977 L 2769,8186 L 2874,8533 L 2769,8568 L 2699,8568 L 2699,8533 L 2629,8325 L 2559,8186 L 2454,8047 L 2349,7943 L 2139,7838 L 2034,7734 L 1999,7734 L 1964,7769 L 1929,7769 L 1858,7734 L 1683,7561 L 1648,7491 L 1648,7248 z M 4485,7456 L 4520,7491 L 4520,7595 L 4485,7630 L 4450,7699 L 4450,7734 L 4380,7804 L 4240,7838 L 3855,7838 L 3539,7908 L 3399,8012 L 3364,8047 L 3294,8151 L 3294,8255 L 3329,8290 L 3399,8220 L 3399,8186 L 3574,8012 L 3609,8012 L 3539,8082 L 3504,8151 L 3504,8359 L 3539,8394 L 3574,8603 L 3539,8708 L 3504,8777 L 3399,8777 L 3364,8812 L 3364,8847 L 3399,8881 L 3469,8916 L 3574,8881 L 3679,8777 L 3679,8708 L 3714,8673 L 3749,8673 L 3890,8708 L 3995,8777 L 4065,8847 L 4030,8847 L 3960,8777 L 3784,8777 L 3749,8812 L 3749,8847 L 3784,8881 L 3855,8881 L 4100,8986 L 4100,9020 L 4135,9055 L 4170,9055 L 4170,9124 L 4100,9263 L 3995,9368 L 3890,9437 L 3819,9472 L 3434,9541 L 3154,9541 L 3119,9507 L 3014,9507 L 2979,9541 L 2979,9611 L 3014,9645 L 3119,9680 L 3364,9680 L 3574,9645 L 4135,9437 L 4310,9263 L 4345,9124 L 4345,9090 L 4310,8986 L 4170,8812 L 4100,8742 L 3995,8673 L 3784,8568 L 3714,8568 L 3714,8533 L 3819,8533 L 4240,8777 L 4275,8812 L 4275,8847 L 4345,8916 L 4380,8916 L 4415,8881 L 4380,8812 L 4170,8603 L 4100,8568 L 4065,8568 L 3995,8498 L 4030,8498 L 4240,8533 L 4380,8603 L 4555,8777 L 4590,8742 L 4590,8673 L 4450,8533 L 4170,8464 L 4135,8429 L 4415,8429 L 4800,8742 L 4835,8742 L 4870,8708 L 4835,8637 L 4730,8533 L 4555,8394 L 4485,8359 L 4415,8359 L 4450,8325 L 4800,8429 L 4800,8464 L 4835,8498 L 4905,8533 L 4940,8533 L 5115,8708 L 5150,8673 L 5150,8637 L 4940,8429 L 4835,8359 L 4765,8359 L 4730,8325 L 4835,8325 L 5045,8394 L 5115,8429 L 5325,8568 L 5430,8673 L 5465,8637 L 5465,8603 L 5325,8464 L 5185,8359 L 5150,8359 L 5045,8325 L 5010,8290 L 5010,8255 L 5150,8290 L 5395,8394 L 5500,8498 L 5676,8637 L 5711,8637 L 5746,8603 L 5746,8568 L 5535,8359 L 5465,8359 L 5360,8290 L 5290,8220 L 5325,8220 L 5570,8290 L 5641,8325 L 5746,8394 L 5922,8568 L 5957,8533 L 5957,8498 L 5782,8325 L 5746,8325 L 5676,8290 L 5605,8220 L 5711,8220 L 5992,8325 L 6097,8394 L 6307,8603 L 6342,8603 L 6377,8568 L 6272,8429 L 6202,8359 L 6097,8290 L 6062,8290 L 5992,8220 L 6062,8220 L 6307,8359 L 6587,8637 L 6622,8603 L 6622,8568 L 6517,8429 L 6447,8359 L 6307,8255 L 6272,8255 L 6237,8220 L 6377,8220 L 6482,8255 L 6972,8637 L 7007,8603 L 6692,8290 L 6657,8290 L 6622,8255 L 6692,8255 L 6972,8429 L 7322,8708 L 7357,8673 L 7357,8637 L 7287,8533 L 7252,8498 L 7217,8498 L 7112,8394 L 7182,8394 L 7427,8533 L 7672,8777 L 7707,8742 L 7672,8673 L 7497,8498 L 7532,8498 L 7637,8533 L 7743,8603 L 7883,8742 L 7918,8742 L 7953,8708 L 7918,8637 L 7848,8568 L 7813,8568 L 7778,8533 L 7813,8533 L 7883,8568 L 8058,8742 L 8058,8777 L 8023,8812 L 8058,8847 L 8093,8847 L 8233,8986 L 8233,9020 L 8268,9090 L 8373,9194 L 8408,9159 L 8408,9090 L 8338,9020 L 8268,8916 L 8268,8881 L 8233,8847 L 8198,8847 L 8163,8812 L 8163,8742 L 8093,8637 L 8058,8603 L 8023,8603 L 7988,8568 L 8023,8568 L 8128,8603 L 8198,8637 L 8373,8812 L 8408,8777 L 8408,8742 L 8373,8708 L 8338,8708 L 8303,8673 L 8303,8637 L 8373,8637 L 8618,8812 L 8653,8812 L 8688,8777 L 8618,8708 L 9038,8708 L 9423,8603 L 9633,8498 L 9774,8359 L 9809,8359 L 9809,8464 L 9669,8603 L 9528,8708 L 9458,8708 L 9318,8742 L 9283,8777 L 8898,8777 L 8863,8812 L 8863,8847 L 8898,8881 L 9318,8881 L 9528,8812 L 9739,8708 L 9774,8673 L 9774,8637 L 9809,8637 L 9844,8708 L 9844,8777 L 9774,8847 L 9774,8916 L 9809,8951 L 9809,8986 L 9739,9055 L 9598,9124 L 9388,9124 L 9353,9159 L 9353,9194 L 9388,9229 L 9423,9229 L 9563,9263 L 9774,9368 L 9879,9507 L 9879,9541 L 9598,9402 L 9388,9263 L 9283,9229 L 9248,9229 L 9213,9263 L 9283,9333 L 9318,9333 L 9388,9368 L 9528,9472 L 9809,9750 L 9844,9819 L 9844,9854 L 9809,9854 L 9633,9680 L 9423,9507 L 9213,9402 L 9143,9402 L 9108,9437 L 9213,9541 L 9528,9715 L 9563,9715 L 9598,9750 L 9633,9819 L 9598,9819 L 9528,9784 L 9458,9715 L 9353,9645 L 9143,9576 L 9108,9576 L 9073,9611 L 9073,9645 L 9108,9680 L 9353,9750 L 9633,9923 L 9739,10028 L 9809,10166 L 9809,10201 L 9774,10201 L 9704,10166 L 9528,9993 L 9423,9923 L 9353,9889 L 8793,9715 L 7848,9680 L 7813,9715 L 7743,9750 L 7287,9750 L 7252,9784 L 7182,9819 L 5852,9889 L 5746,9923 L 5711,9958 L 4450,9889 L 4205,9819 L 3890,9784 L 3714,9784 L 3679,9819 L 3084,9819 L 2804,9784 L 2804,9750 L 2769,9715 L 2734,9715 L 2699,9750 L 2594,9750 L 2699,9645 L 2699,9611 L 2664,9576 L 2629,9576 L 2559,9645 L 2419,9680 L 2384,9680 L 2419,9645 L 2419,9576 L 2384,9541 L 2279,9645 L 2139,9715 L 1893,9715 L 1788,9680 L 1753,9645 L 1893,9645 L 1929,9680 L 2034,9680 L 2139,9645 L 2174,9611 L 2174,9507 L 2139,9472 L 1999,9437 L 1823,9437 L 1788,9472 L 1543,9472 L 1438,9402 L 1368,9333 L 1368,9298 L 1648,9194 L 2104,8951 L 2244,8847 L 2804,8673 L 3084,8673 L 3119,8708 L 3224,8708 L 3259,8673 L 3259,8637 L 3294,8568 L 3329,8533 L 3329,8429 L 3294,8290 L 3259,8255 L 3259,8047 L 3294,7943 L 3329,7873 L 3399,7804 L 3469,7769 L 3574,7734 L 3609,7769 L 3679,7769 L 3714,7734 L 3890,7734 L 3925,7769 L 3960,7769 L 4205,7734 L 4310,7665 L 4450,7526 L 4450,7491 L 4485,7456 z M 7427,8429 L 7462,8429 L 7462,8464 L 7427,8429 z M 5500,8603 L 5535,8603 L 5570,8637 L 5746,8881 L 5746,8951 L 5711,8986 L 5570,8847 L 5570,8812 L 5535,8742 L 5500,8742 L 5465,8708 L 5465,8637 L 5500,8603 z M 5782,8603 L 5817,8603 L 6027,8812 L 6062,8916 L 6062,8951 L 6027,8986 L 5922,8881 L 5746,8637 L 5782,8603 z M 6062,8603 L 6132,8603 L 6377,8881 L 6447,8986 L 6447,9020 L 6412,9055 L 6377,9055 L 6342,9020 L 6342,8986 L 6202,8847 L 6202,8812 L 6167,8777 L 6132,8777 L 6027,8673 L 6027,8637 L 6062,8603 z M 5185,8637 L 5220,8637 L 5395,8812 L 5395,8847 L 5430,8916 L 5465,8951 L 5465,8986 L 5430,9020 L 5395,8986 L 5395,8951 L 5325,8881 L 5290,8881 L 5255,8847 L 5255,8812 L 5150,8708 L 5150,8673 L 5185,8637 z M 6447,8637 L 6517,8637 L 6587,8708 L 6727,8916 L 6727,8951 L 6832,9159 L 7007,9333 L 6972,9368 L 6902,9368 L 6832,9298 L 6762,9263 L 6727,9263 L 6692,9229 L 6657,9159 L 6692,9124 L 6727,9124 L 6657,8986 L 6552,8847 L 6412,8708 L 6412,8673 L 6447,8637 z M 6762,8673 L 6797,8673 L 6867,8708 L 6902,8742 L 6902,8777 L 6972,8881 L 7077,8986 L 7112,9055 L 7112,9090 L 7077,9124 L 6972,9020 L 6972,8986 L 6727,8742 L 6727,8708 L 6762,8673 z M 7077,8673 L 7112,8673 L 7217,8777 L 7357,8951 L 7357,9020 L 7392,9090 L 7427,9124 L 7392,9159 L 7357,9159 L 7287,9090 L 7287,9055 L 7252,8986 L 7147,8847 L 7042,8742 L 7042,8708 L 7077,8673 z M 4905,8708 L 4940,8708 L 5185,8951 L 5150,8986 L 5115,8986 L 4940,8812 L 4905,8812 L 4870,8777 L 4870,8742 L 4905,8708 z M 7462,8708 L 7497,8708 L 7672,8881 L 7743,8986 L 7848,9194 L 7778,9263 L 7707,9194 L 7707,9159 L 7637,9020 L 7532,8916 L 7462,8812 L 7427,8742 L 7462,8708 z M 7778,8742 L 7848,8742 L 7918,8812 L 7918,8847 L 7953,8916 L 8023,9020 L 8093,9090 L 8128,9194 L 8128,9229 L 8093,9263 L 8058,9263 L 8023,9229 L 7918,9055 L 7918,8986 L 7848,8881 L 7743,8777 L 7778,8742 z M 4625,8777 L 4695,8777 L 4835,8881 L 4905,8951 L 4905,9020 L 4870,9055 L 4835,9020 L 4835,8986 L 4800,8951 L 4730,8916 L 4660,8916 L 4590,8847 L 4590,8812 L 4625,8777 z M 8443,8777 L 8653,8847 L 8723,8916 L 8688,8951 L 8653,8951 L 8478,8916 L 8408,8847 L 8408,8812 L 8443,8777 z M 2559,8812 L 2734,8812 L 2839,8847 L 2874,8881 L 2874,8916 L 2839,8951 L 2769,8951 L 2734,8916 L 2559,8916 L 2489,8951 L 2419,9020 L 2419,9055 L 2454,9055 L 2489,9020 L 2559,8986 L 2769,8986 L 2839,9020 L 2909,9090 L 2874,9124 L 2804,9124 L 2769,9090 L 2664,9090 L 2664,9124 L 2699,9159 L 2734,9124 L 2769,9159 L 2769,9229 L 2734,9263 L 2699,9263 L 2594,9298 L 2594,9333 L 2629,9368 L 2699,9333 L 2804,9229 L 2839,9229 L 2874,9263 L 2874,9298 L 2804,9402 L 2769,9437 L 2699,9472 L 2594,9472 L 2489,9368 L 2454,9229 L 2454,9194 L 2419,9159 L 2384,9159 L 2349,9124 L 2349,8951 L 2419,8881 L 2454,8881 L 2524,8847 L 2559,8812 z M 4485,8812 L 4520,8847 L 4590,8986 L 4660,9090 L 4730,9159 L 4905,9298 L 4940,9298 L 5010,9333 L 5080,9402 L 5080,9437 L 5045,9472 L 5010,9472 L 4905,9437 L 4625,9159 L 4625,9124 L 4555,9055 L 4520,9055 L 4415,8951 L 4415,8881 L 4485,8812 z M 9669,8847 L 9739,8847 L 9774,8881 L 9774,8916 L 9739,8951 L 9388,9055 L 9038,9090 L 9003,9055 L 9003,8986 L 9038,8951 L 9388,8916 L 9563,8881 L 9669,8847 z M 8653,9020 L 8793,9020 L 8828,9055 L 8968,9090 L 9003,9090 L 9038,9124 L 9003,9159 L 8898,9159 L 8723,9124 L 8653,9090 L 8618,9055 L 8653,9020 z M 5115,9055 L 5185,9055 L 5220,9090 L 5220,9124 L 5255,9159 L 5290,9159 L 5430,9263 L 5535,9368 L 5535,9402 L 5500,9437 L 5430,9437 L 5290,9333 L 5080,9124 L 5080,9090 L 5115,9055 z M 5605,9055 L 5711,9055 L 5852,9159 L 6027,9263 L 6062,9298 L 6062,9333 L 5992,9402 L 5922,9333 L 5711,9194 L 5676,9194 L 5570,9090 L 5605,9055 z M 6132,9055 L 6167,9055 L 6272,9159 L 6377,9229 L 6412,9229 L 6482,9263 L 6517,9298 L 6517,9333 L 6482,9368 L 6412,9368 L 6272,9298 L 6097,9124 L 6097,9090 L 6132,9055 z M 4380,9124 L 4415,9124 L 4485,9194 L 4485,9229 L 4590,9333 L 4625,9333 L 4695,9402 L 4695,9437 L 4660,9472 L 4625,9472 L 4555,9437 L 4380,9263 L 4345,9194 L 4345,9159 L 4380,9124 z M 8653,9124 L 8688,9124 L 8723,9159 L 8933,9229 L 9038,9229 L 9143,9263 L 9178,9298 L 9143,9333 L 8968,9333 L 8933,9298 L 8793,9263 L 8688,9263 L 8618,9194 L 8618,9159 L 8653,9124 z M 1823,9263 L 1893,9263 L 1929,9298 L 1929,9333 L 1823,9437 L 1683,9437 L 1613,9368 L 1613,9333 L 1648,9298 L 1823,9263 z M 8653,9333 L 8758,9333 L 8793,9368 L 8933,9437 L 8968,9437 L 9073,9541 L 9038,9576 L 9003,9576 L 8933,9541 L 8863,9472 L 8688,9437 L 8653,9437 L 8618,9402 L 8618,9368 L 8653,9333 z M 3784,9923 L 3855,9923 L 4065,10028 L 4275,10236 L 4310,10305 L 4310,10340 L 4240,10305 L 4170,10236 L 4135,10271 L 4135,10340 L 4170,10375 L 4170,10410 L 4135,10410 L 4100,10375 L 3925,10097 L 3784,9923 z M 4135,9958 L 4240,9958 L 4275,9993 L 4660,10062 L 4870,10062 L 4905,10097 L 4765,10097 L 4730,10062 L 4695,10062 L 4660,10097 L 4660,10132 L 4730,10201 L 4625,10201 L 4590,10166 L 4485,10236 L 4450,10271 L 4450,10305 L 4415,10271 L 4415,10236 L 4345,10132 L 4240,10028 L 4170,10028 L 4135,9993 L 4135,9958 z M 1858,6762 L 1893,6762 L 1964,6831 L 1893,6901 L 1858,6901 L 1823,6935 L 1788,7005 L 1788,7213 L 1823,7352 L 1929,7456 L 2069,7561 L 2174,7561 L 2419,7630 L 2664,7804 L 2769,7908 L 2909,8151 L 2979,8429 L 2979,8533 L 3119,8533 L 3154,8429 L 3154,8325 L 3119,8290 L 3119,8047 L 3154,7943 L 3224,7838 L 3329,7734 L 3574,7665 L 4135,7630 L 4205,7595 L 4345,7387 L 4345,7248 L 4310,7213 L 4275,7213 L 4170,7178 L 4135,7144 L 4135,7109 L 4170,7074 L 4240,7074 L 4380,7109 L 4450,7144 L 4590,7283 L 4625,7352 L 4660,7491 L 4660,7561 L 4625,7595 L 4590,7699 L 4590,7769 L 4485,7873 L 4205,7943 L 3784,7977 L 3714,8012 L 3679,8047 L 3644,8151 L 3644,8255 L 3679,8394 L 3714,8394 L 3749,8359 L 4275,8220 L 5922,8047 L 6202,8047 L 7217,8186 L 7322,8290 L 7953,8464 L 8548,8568 L 9108,8568 L 9528,8429 L 9633,8359 L 9669,8290 L 9669,8255 L 9704,8220 L 9809,8220 L 9914,8325 L 9914,8464 L 9879,8498 L 9844,8568 L 9879,8637 L 9984,8742 L 9984,8812 L 9914,8881 L 9879,8881 L 9879,8916 L 9949,8986 L 9844,9090 L 9809,9090 L 9704,9159 L 9669,9194 L 9704,9194 L 9949,9437 L 9984,9507 L 9984,9576 L 9914,9645 L 9844,9645 L 9879,9715 L 9949,9784 L 9949,9889 L 9879,9958 L 9844,9958 L 9844,10028 L 9879,10132 L 9914,10166 L 9914,10236 L 9844,10305 L 9739,10305 L 9598,10201 L 9563,10166 L 9563,10132 L 9528,10097 L 9178,9958 L 8443,9819 L 6027,10028 L 5852,10062 L 5817,10097 L 5080,10097 L 5080,10166 L 5045,10201 L 4835,10201 L 4835,10271 L 4800,10305 L 4660,10375 L 4520,10375 L 4310,10444 L 4240,10479 L 4205,10514 L 4135,10514 L 4065,10479 L 3995,10410 L 3925,10271 L 3925,10236 L 3890,10166 L 3644,9923 L 3504,9923 L 3469,9958 L 3084,9958 L 2699,9923 L 2349,9854 L 2314,9819 L 2279,9819 L 2244,9854 L 2034,9854 L 1788,9819 L 1403,9541 L 1228,9368 L 1228,9263 L 1298,9194 L 1368,9159 L 1788,9020 L 1929,8951 L 2069,8812 L 2244,8708 L 2279,8708 L 2489,8637 L 2559,8603 L 2559,8568 L 2489,8359 L 2349,8116 L 2279,8047 L 2139,7943 L 1964,7873 L 1823,7838 L 1613,7630 L 1543,7526 L 1508,7213 L 1543,7178 L 1578,7109 L 1613,7005 L 1613,6935 L 1683,6866 L 1718,6866 L 1788,6831 L 1858,6762 z "/>
      </g>
    </g>
  </g>
</svg>