<?xml version="1.0" encoding="UTF-8" standalone="no"?>
<svg xmlns:dc="http://purl.org/dc/elements/1.1/" xmlns:cc="http://web.resource.org/cc/" xmlns:rdf="http://www.w3.org/1999/02/22-rdf-syntax-ns#" xmlns:svg="http://www.w3.org/2000/svg" xmlns="http://www.w3.org/2000/svg" xmlns:sodipodi="http://inkscape.sourceforge.net/DTD/sodipodi-0.dtd" xmlns:inkscape="http://www.inkscape.org/namespaces/inkscape" version="1.0" viewBox="0 0 21000 29700" preserveAspectRatio="xMidYMid" fill-rule="evenodd" id="svg1891" sodipodi:version="0.32" inkscape:version="0.43" width="260pt" height="90pt" sodipodi:docname="fish2.svg" sodipodi:docbase="C:\Clipart\Egen">
  <metadata id="metadata2062">
    <rdf:RDF>
      <cc:Work rdf:about="">
        <dc:format>image/svg+xml</dc:format>
        <dc:type rdf:resource="http://purl.org/dc/dcmitype/StillImage"/>
        <dc:title>Fish 2</dc:title>
        <cc:license rdf:resource="http://web.resource.org/cc/PublicDomain"/>
      </cc:Work>
      <cc:License rdf:about="http://web.resource.org/cc/PublicDomain">
        <cc:permits rdf:resource="http://web.resource.org/cc/Reproduction"/>
        <cc:permits rdf:resource="http://web.resource.org/cc/Distribution"/>
        <cc:permits rdf:resource="http://web.resource.org/cc/DerivativeWorks"/>
      </cc:License>
    </rdf:RDF>
  </metadata>
  <defs id="defs2060">
    <desc id="desc1897">Slide</desc>
  </defs>
  <sodipodi:namedview inkscape:window-height="540" inkscape:window-width="812" inkscape:pageshadow="2" inkscape:pageopacity="0.0" borderopacity="1.0" bordercolor="#666666" pagecolor="#ffffff" id="base" inkscape:zoom="0.35824168" inkscape:cx="372.04724" inkscape:cy="375.49564" inkscape:window-x="0" inkscape:window-y="0" inkscape:current-layer="svg1891"/>
  <g visibility="visible" id="Default" style="visibility: visible;">
    <desc id="desc1894">Master slide</desc>
  </g>
  <g style="visibility: visible;" id="g1947" transform="matrix(9.53588, 0, 0, 9.53588, -137460, -67967.4)">
    <desc id="desc1949">Graphic</desc>
    <g id="g1951">
      <g id="g1953" style="fill: rgb(0, 0, 0); stroke: none;">
        <path id="path1955" d="M 14721,7535 L 14756,7535 L 14756,7639 L 14686,7709 L 14721,7743 L 14756,7743 L 15001,7639 L 15036,7605 L 15036,7639 L 14931,7743 L 14966,7778 L 15106,7778 L 15281,7743 L 15316,7709 L 15351,7709 L 15351,7778 L 14161,7882 L 14126,7916 L 14126,7882 L 14161,7882 L 14371,7778 L 14441,7709 L 14651,7570 L 14721,7535 z M 19693,7709 L 19728,7709 L 19728,7778 L 19693,7882 L 19658,7951 L 19553,8089 L 19413,8228 L 19063,8401 L 18993,8470 L 18993,8505 L 19028,8540 L 19063,8540 L 19448,8332 L 19693,8089 L 19693,8055 L 19763,7986 L 19763,8055 L 19693,8193 L 19658,8228 L 19623,8228 L 19588,8263 L 19588,8297 L 19553,8332 L 19063,8609 L 19028,8609 L 18993,8643 L 18993,8678 L 19028,8713 L 19063,8713 L 19133,8643 L 19238,8574 L 19308,8540 L 19658,8332 L 19658,8366 L 19483,8540 L 19308,8609 L 19273,8609 L 19168,8713 L 19203,8747 L 19413,8643 L 19518,8609 L 19553,8609 L 19448,8713 L 19343,8747 L 19133,8783 L 19063,8818 L 19028,8852 L 19063,8887 L 19168,8887 L 19203,8852 L 19378,8852 L 19483,8921 L 19588,9025 L 19588,9060 L 19553,9060 L 19483,8991 L 19133,8921 L 19028,8956 L 18993,8991 L 19028,9025 L 19238,9025 L 19273,9060 L 19343,9095 L 19483,9095 L 19588,9198 L 19588,9337 L 19343,9164 L 19098,9060 L 19028,9060 L 18993,9095 L 19063,9164 L 19168,9164 L 19308,9233 L 19448,9337 L 19518,9406 L 19553,9545 L 19553,9579 L 19308,9337 L 19273,9337 L 19203,9302 L 19168,9268 L 19098,9268 L 19063,9302 L 19098,9337 L 19168,9337 L 19518,9683 L 19518,9787 L 19483,9752 L 19483,9718 L 19448,9683 L 19168,9475 L 18958,9372 L 18888,9372 L 18853,9406 L 18923,9475 L 18993,9475 L 19133,9545 L 19308,9683 L 19308,9718 L 19238,9718 L 19168,9683 L 18713,9372 L 18258,9302 L 18013,9302 L 15526,9475 L 15421,9510 L 14406,9545 L 13916,9441 L 12305,9268 L 12130,9268 L 12095,9302 L 12025,9337 L 11710,9337 L 11605,9302 L 11640,9268 L 11745,9268 L 11780,9302 L 11990,9302 L 12060,9233 L 12060,9164 L 12025,9129 L 11920,9129 L 11885,9164 L 11430,9164 L 11325,9060 L 11325,8956 L 11360,8921 L 11430,8921 L 11675,8852 L 11745,8818 L 11850,8713 L 11850,8678 L 11885,8643 L 12025,8574 L 12200,8540 L 12235,8574 L 12270,8574 L 12340,8540 L 12445,8436 L 13496,8124 L 15106,7916 L 15211,7916 L 15246,7951 L 15421,7951 L 15456,7916 L 15562,7916 L 15597,7951 L 17172,8089 L 17347,8124 L 17452,8159 L 18223,8263 L 18783,8263 L 19168,8089 L 19273,8020 L 19483,7916 L 19483,7951 L 19448,7986 L 19238,8124 L 19028,8228 L 18993,8263 L 18993,8297 L 19028,8332 L 19098,8332 L 19448,8089 L 19623,7916 L 19623,7847 L 19693,7709 z M 17382,7882 L 17837,7882 L 17837,7916 L 17732,8020 L 17627,8055 L 17592,8055 L 17557,8020 L 17347,8020 L 17347,7986 L 17312,7951 L 17277,7986 L 16962,7986 L 16927,7951 L 17207,7951 L 17347,7916 L 17382,7882 z M 14966,7951 L 15001,7951 L 15071,7986 L 15176,8055 L 15211,8089 L 15316,8228 L 15351,8297 L 15351,8366 L 15316,8401 L 15281,8366 L 15281,8332 L 15211,8228 L 15071,8089 L 15036,8089 L 14931,7986 L 14966,7951 z M 15316,7951 L 15351,7951 L 15421,7986 L 15526,8089 L 15526,8124 L 15597,8193 L 15632,8193 L 15667,8228 L 15667,8263 L 15702,8366 L 15737,8401 L 15737,8436 L 15702,8470 L 15667,8436 L 15667,8401 L 15562,8263 L 15456,8159 L 15421,8159 L 15386,8124 L 15281,7986 L 15316,7951 z M 14581,7986 L 14651,7986 L 14721,8020 L 14966,8263 L 14966,8297 L 15001,8366 L 15036,8401 L 15001,8436 L 14966,8436 L 14931,8401 L 14931,8366 L 14651,8089 L 14581,8055 L 14546,8020 L 14581,7986 z M 15702,7986 L 15737,7986 L 16017,8193 L 16052,8228 L 16122,8366 L 16087,8401 L 15842,8159 L 15807,8159 L 15772,8124 L 15772,8089 L 15737,8055 L 15702,8055 L 15667,8020 L 15702,7986 z M 16122,7986 L 16227,8055 L 16437,8263 L 16437,8297 L 16472,8366 L 16542,8436 L 16542,8470 L 16507,8505 L 16437,8436 L 16402,8366 L 16332,8263 L 16227,8159 L 16192,8159 L 16087,8055 L 16087,8020 L 16122,7986 z M 14196,8020 L 14301,8020 L 14371,8055 L 14406,8089 L 14406,8124 L 14441,8159 L 14476,8159 L 14581,8263 L 14651,8366 L 14651,8401 L 14616,8436 L 14336,8159 L 14231,8089 L 14196,8089 L 14161,8055 L 14196,8020 z M 16472,8020 L 16542,8020 L 16822,8297 L 16892,8436 L 16857,8470 L 16682,8297 L 16682,8263 L 16612,8193 L 16577,8193 L 16437,8055 L 16472,8020 z M 13776,8089 L 13811,8089 L 14161,8228 L 14196,8263 L 14196,8332 L 14336,8470 L 14336,8505 L 14301,8540 L 14266,8540 L 14196,8470 L 14196,8436 L 14091,8332 L 14056,8332 L 14021,8297 L 14021,8263 L 13951,8228 L 13846,8193 L 13776,8193 L 13741,8159 L 13741,8124 L 13776,8089 z M 16892,8089 L 16927,8089 L 16997,8124 L 17137,8263 L 17242,8401 L 17242,8436 L 17207,8470 L 17032,8297 L 17032,8263 L 16997,8228 L 16962,8228 L 16857,8124 L 16892,8089 z M 17312,8159 L 17382,8159 L 17417,8193 L 17452,8263 L 17452,8297 L 17522,8366 L 17557,8366 L 17627,8436 L 17627,8470 L 17592,8505 L 17277,8193 L 17312,8159 z M 17697,8228 L 17767,8228 L 17802,8263 L 18188,8852 L 18223,8956 L 18223,9025 L 18188,9060 L 18153,9025 L 18153,8991 L 17942,8574 L 17872,8470 L 17662,8263 L 17697,8228 z M 13566,8263 L 13636,8263 L 13671,8297 L 13741,8332 L 13776,8332 L 13951,8505 L 13986,8574 L 13951,8609 L 13916,8609 L 13811,8505 L 13811,8470 L 13741,8401 L 13671,8366 L 13601,8366 L 13531,8297 L 13566,8263 z M 18118,8297 L 18258,8436 L 18328,8574 L 18293,8609 L 18258,8609 L 18223,8574 L 18188,8505 L 18083,8366 L 18083,8332 L 18118,8297 z M 18363,8332 L 18398,8332 L 18503,8401 L 18538,8436 L 18538,8470 L 18713,8643 L 18713,8678 L 18678,8713 L 18328,8366 L 18363,8332 z M 18748,8332 L 18783,8332 L 18818,8366 L 18923,8540 L 18923,8609 L 18888,8643 L 18818,8574 L 18818,8540 L 18783,8470 L 18713,8401 L 18713,8366 L 18748,8332 z M 15176,8401 L 15211,8401 L 15316,8505 L 15386,8609 L 15386,8678 L 15421,8783 L 15456,8818 L 15456,8852 L 15421,8887 L 15351,8818 L 15351,8747 L 15281,8609 L 15246,8609 L 15176,8540 L 15141,8470 L 15141,8436 L 15176,8401 z M 15562,8401 L 15632,8436 L 15667,8470 L 15772,8678 L 15807,8783 L 15807,8887 L 15772,8921 L 15737,8887 L 15667,8643 L 15526,8505 L 15526,8436 L 15562,8401 z M 12865,8436 L 13215,8436 L 13601,8574 L 13636,8609 L 13671,8678 L 13671,8921 L 13566,9025 L 13391,9164 L 12900,9302 L 12725,9302 L 12655,9233 L 12690,9198 L 12830,9198 L 13040,9164 L 13356,9060 L 13356,9025 L 13391,8991 L 13426,8991 L 13531,8887 L 13566,8818 L 13566,8747 L 13426,8609 L 13321,8574 L 12865,8574 L 12830,8540 L 12830,8470 L 12865,8436 z M 14791,8436 L 14861,8436 L 14931,8505 L 15001,8609 L 15071,8818 L 15036,8852 L 15001,8852 L 14966,8818 L 14966,8747 L 14896,8609 L 14861,8609 L 14756,8505 L 14756,8470 L 14791,8436 z M 14476,8470 L 14651,8643 L 14721,8747 L 14721,8818 L 14686,8852 L 14616,8783 L 14546,8678 L 14546,8643 L 14476,8574 L 14441,8574 L 14406,8540 L 14476,8470 z M 15982,8470 L 16017,8470 L 16087,8540 L 16157,8643 L 16262,8887 L 16227,8921 L 16192,8921 L 16157,8887 L 16157,8852 L 16122,8747 L 16052,8609 L 16017,8609 L 15947,8540 L 15947,8505 L 15982,8470 z M 16367,8505 L 16402,8505 L 16472,8574 L 16647,8852 L 16647,8921 L 16612,8956 L 16542,8887 L 16332,8574 L 16332,8540 L 16367,8505 z M 14091,8540 L 14126,8540 L 14231,8643 L 14336,8783 L 14336,8887 L 14301,8921 L 14231,8852 L 14196,8783 L 14196,8747 L 14056,8609 L 14056,8574 L 14091,8540 z M 16752,8574 L 16822,8574 L 17032,8783 L 17032,8852 L 17067,8921 L 17102,8956 L 17067,8991 L 17032,8991 L 16997,8956 L 16962,8887 L 16962,8852 L 16717,8609 L 16752,8574 z M 12200,8609 L 12725,8609 L 12795,8678 L 12795,8713 L 12760,8747 L 12655,8747 L 12620,8713 L 12410,8713 L 12340,8747 L 12235,8852 L 12200,8818 L 12200,8783 L 12235,8747 L 12235,8713 L 12165,8713 L 12025,8783 L 11990,8818 L 11955,8818 L 11920,8783 L 12025,8678 L 12095,8643 L 12200,8609 z M 13811,8609 L 13846,8609 L 13881,8643 L 13951,8747 L 13986,8818 L 13986,8921 L 13951,8956 L 13916,8921 L 13846,8818 L 13846,8783 L 13811,8713 L 13776,8678 L 13776,8643 L 13811,8609 z M 17207,8609 L 17277,8609 L 17417,8747 L 17487,8852 L 17522,8921 L 17522,8956 L 17487,8991 L 17382,8887 L 17382,8852 L 17277,8747 L 17242,8747 L 17172,8678 L 17172,8643 L 17207,8609 z M 17662,8643 L 17732,8678 L 17767,8713 L 17837,8818 L 17837,8956 L 17802,8991 L 17732,8921 L 17627,8713 L 17627,8678 L 17662,8643 z M 18433,8713 L 18468,8713 L 18573,8818 L 18538,8852 L 18468,8852 L 18398,8783 L 18398,8747 L 18433,8713 z M 12585,8747 L 12690,8783 L 12725,8818 L 12690,8852 L 12550,8852 L 12550,8921 L 12585,8921 L 12620,8887 L 12655,8921 L 12585,8991 L 12480,9025 L 12305,9025 L 12235,8956 L 12235,8921 L 12270,8852 L 12305,8818 L 12375,8783 L 12585,8747 z M 14371,8887 L 14406,8887 L 14441,8921 L 14511,9025 L 14546,9095 L 14546,9198 L 14511,9233 L 14476,9233 L 14441,9198 L 14441,9129 L 14371,8991 L 14336,8956 L 14336,8921 L 14371,8887 z M 14826,8887 L 14861,8921 L 14931,9025 L 14931,9198 L 14896,9233 L 14861,9233 L 14826,9198 L 14791,9060 L 14791,8921 L 14826,8887 z M 15176,8887 L 15211,8887 L 15316,8991 L 15351,9095 L 15351,9198 L 15316,9233 L 15246,9164 L 15141,8921 L 15176,8887 z M 15562,8887 L 15632,8887 L 15702,8956 L 15702,8991 L 15737,9129 L 15772,9164 L 15737,9198 L 15702,9198 L 15667,9164 L 15562,8956 L 15526,8921 L 15562,8887 z M 11710,8921 L 11745,8921 L 11780,8956 L 11780,9025 L 11710,9095 L 11605,9095 L 11535,9025 L 11535,8991 L 11570,8956 L 11710,8921 z M 14056,8921 L 14126,8991 L 14161,9060 L 14161,9198 L 14126,9233 L 14091,9233 L 14056,9198 L 13986,8991 L 14056,8921 z M 15982,8921 L 16017,8921 L 16087,8991 L 16087,9095 L 16052,9129 L 16017,9095 L 15947,8991 L 15947,8956 L 15982,8921 z M 16367,8956 L 16402,8956 L 16472,9025 L 16472,9164 L 16437,9198 L 16367,9129 L 16332,9060 L 16332,8991 L 16367,8956 z M 16752,8991 L 16787,8991 L 16857,9060 L 16892,9129 L 16892,9198 L 16857,9233 L 16822,9198 L 16822,9164 L 16717,9060 L 16717,9025 L 16752,8991 z M 17277,9060 L 17312,9060 L 17382,9095 L 17417,9129 L 17417,9198 L 17382,9233 L 17347,9233 L 17242,9129 L 17242,9095 L 17277,9060 z M 12200,9095 L 12235,9095 L 12270,9129 L 12550,9129 L 12585,9095 L 12620,9095 L 12655,9129 L 12655,9164 L 12620,9198 L 12235,9198 L 12165,9129 L 12200,9095 z M 17102,9510 L 17172,9545 L 17172,9579 L 17102,9579 L 17067,9545 L 16822,9545 L 16787,9510 L 16752,9510 L 16717,9545 L 16822,9649 L 16752,9649 L 16612,9614 L 16542,9545 L 16507,9545 L 16472,9579 L 16472,9614 L 16507,9649 L 16332,9649 L 16297,9614 L 16122,9579 L 16052,9579 L 16087,9545 L 17102,9510 z M 13566,9545 L 13706,9545 L 13741,9579 L 13776,9683 L 13776,9856 L 13741,9891 L 13671,9926 L 13636,9926 L 13636,9891 L 13671,9856 L 13671,9683 L 13601,9614 L 13566,9545 z M 13811,9579 L 13846,9614 L 13881,9683 L 13881,9718 L 13846,9683 L 13811,9614 L 13811,9579 z M 13986,9614 L 14021,9614 L 14091,9649 L 14126,9683 L 14161,9752 L 14161,9822 L 14126,9856 L 14056,9891 L 14056,9718 L 13986,9649 L 13986,9614 z M 14161,9649 L 14231,9649 L 14231,9683 L 14266,9752 L 14301,9787 L 14301,9856 L 14266,9891 L 14231,9891 L 14231,9718 L 14161,9649 z M 19343,9752 L 19378,9752 L 19448,9822 L 19483,9891 L 19483,9960 L 19343,9822 L 19343,9752 z M 14791,7328 L 14826,7328 L 14861,7362 L 14861,7570 L 14931,7570 L 15001,7501 L 15106,7501 L 15176,7570 L 15141,7605 L 15141,7639 L 15351,7639 L 15386,7605 L 15456,7605 L 15491,7639 L 15491,7709 L 15526,7743 L 15807,7778 L 16542,7882 L 16822,7882 L 16857,7847 L 16997,7812 L 17557,7778 L 17592,7812 L 17732,7812 L 17767,7778 L 17907,7778 L 17978,7847 L 17978,7916 L 17942,7951 L 17907,7951 L 17802,8055 L 17767,8055 L 17767,8089 L 17942,8089 L 18188,8124 L 18223,8159 L 18783,8159 L 18888,8124 L 19168,7986 L 19448,7812 L 19623,7639 L 19693,7605 L 19763,7605 L 19798,7639 L 19868,7847 L 19868,8089 L 19728,8540 L 19693,8609 L 19553,8747 L 19518,8747 L 19483,8783 L 19483,8818 L 19553,8818 L 19588,8852 L 19588,8887 L 19623,8921 L 19658,8921 L 19728,8991 L 19728,9095 L 19693,9129 L 19693,9268 L 19728,9302 L 19728,9337 L 19693,9406 L 19658,9441 L 19623,9683 L 19623,9891 L 19658,9926 L 19588,10133 L 19553,10168 L 19378,9995 L 19378,9960 L 19273,9856 L 19238,9856 L 18923,9649 L 18853,9579 L 18573,9475 L 17942,9406 L 17417,9475 L 17312,9510 L 17382,9579 L 17382,9649 L 17347,9683 L 16927,9683 L 16717,9718 L 16682,9752 L 16332,9752 L 15772,9649 L 15737,9614 L 15667,9614 L 15632,9649 L 14371,9683 L 14371,9718 L 14406,9752 L 14406,9926 L 14371,9960 L 14266,10029 L 14196,10064 L 14091,10064 L 14056,10029 L 14056,9995 L 14091,9960 L 14056,9960 L 14021,9995 L 13951,9995 L 13916,9960 L 13951,9926 L 13951,9822 L 13916,9856 L 13916,9891 L 13846,9960 L 13741,10029 L 13671,10064 L 13461,10064 L 13426,10029 L 13496,9960 L 13531,9891 L 13566,9752 L 13496,9649 L 13391,9545 L 13075,9475 L 13040,9475 L 13005,9510 L 12585,9510 L 12410,9475 L 12340,9406 L 12060,9406 L 11920,9441 L 11850,9441 L 11570,9406 L 11500,9337 L 11500,9302 L 11465,9268 L 11430,9268 L 11290,9198 L 11185,9095 L 11185,8887 L 11220,8852 L 11430,8783 L 11640,8747 L 11710,8678 L 11710,8643 L 11780,8574 L 11920,8470 L 13075,8089 L 13671,7986 L 13776,7951 L 14651,7466 L 14791,7328 z "/>
      </g>
    </g>
  </g>
</svg>