<?xml version="1.0" encoding="UTF-8" standalone="no"?>
<!-- Created with Inkscape (http://www.inkscape.org/) -->

<svg
   xmlns:dc="http://purl.org/dc/elements/1.1/"
   xmlns:cc="http://creativecommons.org/ns#"
   xmlns:rdf="http://www.w3.org/1999/02/22-rdf-syntax-ns#"
   xmlns:svg="http://www.w3.org/2000/svg"
   xmlns="http://www.w3.org/2000/svg"
   xmlns:sodipodi="http://sodipodi.sourceforge.net/DTD/sodipodi-0.dtd"
   xmlns:inkscape="http://www.inkscape.org/namespaces/inkscape"
   width="52mm"
   height="74mm"
   viewBox="0 0 184.25197 262.20472"
   id="svg4371"
   version="1.1"
   inkscape:version="0.91 r13725"
   sodipodi:docname="equipment_man.svg">
  <defs
     id="defs4373" />
  <sodipodi:namedview
     id="base"
     pagecolor="#ffffff"
     bordercolor="#666666"
     borderopacity="1.0"
     inkscape:pageopacity="0.0"
     inkscape:pageshadow="2"
     inkscape:zoom="0.35"
     inkscape:cx="-43.571429"
     inkscape:cy="520"
     inkscape:document-units="px"
     inkscape:current-layer="layer1"
     showgrid="false"
     inkscape:window-width="1600"
     inkscape:window-height="853"
     inkscape:window-x="0"
     inkscape:window-y="0"
     inkscape:window-maximized="1" />
  <metadata
     id="metadata4376">
    <rdf:RDF>
      <cc:Work
         rdf:about="">
        <dc:format>image/svg+xml</dc:format>
        <dc:type
           rdf:resource="http://purl.org/dc/dcmitype/StillImage" />
        <dc:title></dc:title>
      </cc:Work>
    </rdf:RDF>
  </metadata>
  <g
     inkscape:label="Layer 1"
     inkscape:groupmode="layer"
     id="layer1"
     transform="translate(0,-790.15748)">
    <path
       id="path3537"
       d="m 81.262159,819.29854 c 1.18791,-0.33155 4.63524,-0.21184 6.70846,1.20755 2.30053,1.60447 0,0 2.86253,1.97213 0.90283,0.62201 1.49686,1.94557 2.2379,2.80686 0.89508,1.04035 1.24615,2.35161 1.22763,3.63673 -0.0274,1.91173 0.16801,3.92447 0.0174,5.82982 0.88883,0.4441 0.88228,0.85936 0.95132,1.87447 -0.16793,1.79369 -0.1545,3.72081 -1.72513,4.38183 -1.16576,3.96533 -1.3326,5.69016 -3.17977,7.29757 0.17776,1.90327 0.53184,3.40992 0.71171,5.3132 0.4371,-0.92297 0.24308,-0.88812 0.55468,-1.85614 0.38899,0.11046 0.76962,0.25376 1.14399,0.40726 4.93336,0.46488 7.805051,2.37013 11.699221,3.95415 0.2656,0.10847 0.54584,0.20258 0.84073,0.19237 1.18163,0.0102 2.36537,0.7611 3.54491,0.68539 -3.03878,1.52058 -5.56937,3.82908 -7.92219,6.21332 -0.87,0.92503 -1.767211,1.83164 -2.534751,2.8406 3.032511,-2.61755 6.300391,-5.89768 9.820181,-7.86034 3.30858,-1.82961 6.83142,-2.62615 10.69423,-2.81034 6.37245,-0.39294 12.71982,0.8534 18.84552,2.47015 0.37017,0.13713 0.97248,0.12077 1.01429,0.62828 2.81293,9.54511 5.53172,19.12298 7.87826,28.79086 0.81982,3.49962 1.64384,7.0033 2.15624,10.56019 0.55629,4.17294 -0.23006,8.40109 -1.48698,12.38574 -1.42842,4.41439 -3.50099,8.62005 -6.06921,12.50442 -2.04746,3.06983 -4.42327,5.95955 -7.30313,8.32127 -7.41607,-1.52672 -14.56442,-4.61088 -20.45586,-9.31588 -3.45498,-2.77925 -6.49168,-6.11308 -8.63117,-9.97492 -1.43678,-2.54794 -2.17084,-5.39061 -2.89656,-8.19028 -0.83656,-3.32973 -1.52044,-6.69221 -2.221061,-10.05061 -0.0607,4.47376 1.040991,8.37408 2.149431,12.71276 0.92647,3.60398 2.65875,6.20112 4.24663,9.60516 0.18614,3.30314 -0.38954,7.71648 0.11029,10.99709 0.58768,3.88027 1.73081,6.2464 3.81382,9.6539 1.38868,3.14213 2.4241,7.49754 3.01804,9.95955 2.09498,10.0201 2.06993,9.65587 1.65376,15.26137 -0.044,1.41418 -1.2784,2.4785 -1.56283,3.84969 0.48939,-0.59759 0.59151,-0.62311 1.08301,-1.21867 0.80096,1.44693 1.51414,2.93886 2.18131,4.44922 0.51865,1.16858 0.81772,2.43744 0.824,3.71653 0.025,1.23611 -0.23842,2.45585 -0.24259,3.68993 -0.0208,1.21768 0.49356,2.34943 0.77171,3.51597 1.53925,5.81015 3.00531,11.64894 4.10329,17.55734 0.46011,2.78537 0.61069,5.60957 1.06453,8.39697 0.40155,2.5602 0.69643,5.1471 1.24019,7.6787 1.55998,4.045 3.06984,5.4915 6.01907,8.0117 0.80478,1.0879 3.68382,3.5351 4.7452,4.2954 1.1336,0.8121 1.86438,1.1827 2.79504,2.1282 -0.55424,1.1236 -2.32387,2.8824 -3.45114,2.9336 -2.56194,0.024 -4.82742,-1.2339 -7.20115,-2.1733 -0.98296,-0.3295 -1.50581,-1.3098 -2.45737,-1.6884 -1.27575,-0.5669 -2.66653,-0.8698 -4.06148,-0.9558 -2.68042,-0.3486 -2.82995,-1.1357 -3.2491,-2.0346 -0.73197,-1.4489 -0.40664,-2.9098 -0.42546,-4.4918 -0.008,-1.9831 0.14431,-3.9641 0.0961,-5.9452 -0.12966,-1.5718 -1.3113,-2.7301 -2.18968,-3.9519 -0.46429,-0.5608 -0.34299,-1.3057 -0.34299,-1.9729 0.0606,-3.8066 -0.74242,-7.68682 -2.73344,-10.9879 -1.7212,-2.99617 -4.31243,-5.38447 -6.17168,-8.28648 -2.09558,-3.33179 -2.55775,-7.37783 -2.39465,-11.2151 0,-1.53081 0.28443,-3.17214 -0.46846,-4.58834 -1.6731,-3.31134 -3.785411,-6.39958 -5.289111,-9.7948 -2.58288,-6.78022 -6.61484,-12.33683 -9.44213,-18.72277 -0.20016,-0.45204 -0.59455,-1.00135 -0.53096,-1.38358 0.71057,-0.38082 2.46032,-3.06847 2.47557,-3.25252 -0.40239,0.45943 -1.32608,1.47127 -1.91546,2.18845 -0.39584,0.48168 -1.24532,0.65473 -1.89976,0.53396 -1.65385,-0.30531 -3.15474,-2.0997 -4.63004,-3.4793 0.61151,0.99236 1.29604,1.4525 1.97168,2.15392 0.53537,0.55582 0.93542,0.82551 1.64889,1.62706 0.21848,1.16034 -1.42238,2.94731 -1.98081,4.37783 -1.82788,4.88716 -3.4947,9.83164 -5.18661,14.76382 -1.42842,4.24455 -3.42572,8.30693 -4.44422,12.67837 -0.41828,1.52877 -0.37438,3.11689 -0.5082,4.68249 -0.52704,4.49423 -1.50581,8.92502 -2.57659,13.321 -0.53958,2.00765 -0.99133,4.0624 -1.91992,5.94113 -0.70059,1.61268 -1.15232,3.31336 -1.59779,5.00586 -0.57932,2.3372 -1.08127,4.7009 -1.28412,7.0995 -0.10037,1.0867 0.0147,2.1837 -0.13803,3.2683 -0.24052,1.7703 -0.81565,3.4853 -1.58111,5.1041 -0.19031,0.4114 -0.44128,0.8207 -0.44335,1.2914 -0.18613,3.739 -0.38902,7.476 -0.54165,11.2171 -0.0439,0.2763 0.0398,0.6345 -0.20915,0.8432 -1.41798,1.4264 -3.41315,2.3413 -5.46898,2.2655 -2.42811,-0.094 -4.69727,-1.2217 -6.53978,-2.7157 0.37395,-1.8695 0.2904,-2.3875 2.97396,-5.3211 0.34507,-0.6467 0.80099,-1.2586 0.94531,-1.9892 0.49564,-2.1468 1.00804,-4.2916 1.51207,-6.4344 0.25933,-0.9659 -0.002,-1.9769 0.17566,-2.9449 0.47058,-0.9333 1.06033,-1.8644 1.11263,-2.9327 0.19031,-3.4157 0.0967,-6.3694 -0.4554,-9.7729 -0.14846,-1.1644 -0.38325,-2.65176 -0.50665,-3.81828 -0.34297,-2.62367 -0.19657,-5.2801 -0.0564,-7.91197 0.26558,-3.71856 0.62952,-7.44944 1.4577,-11.09433 0.25097,-1.39985 1.20883,-2.51522 1.72331,-3.81479 1.11888,-2.6114 2.0642,-5.36195 2.20012,-8.2128 0.11504,-1.36301 -0.61276,-2.60117 -0.64414,-3.94986 -0.30744,-4.25475 -0.6348,-6.64838 -0.3901,-10.89907 0.1087,-1.44077 0.26891,-3.1414 0.76826,-6.75391 1.11263,-5.08363 2.46405,-9.60294 3.58712,-14.68247 0.52284,-2.63596 1.33429,-5.22279 1.54972,-7.90788 0.43499,-3.75951 1.10292,-6.73244 1.45333,-10.32638 0.14849,-1.02325 -0.0607,-3.0028 -0.12341,-4.02608 -0.5103,-6.14373 -1.22955,-12.28749 -1.62481,-18.44145 1.28411,-0.0266 2.66651,-0.1719 3.71221,-0.97416 -1.20672,0.26604 -2.93921,0.81614 -4.13342,0.3659 -2.61631,-2.27986 -4.03331,-5.85233 -4.21315,-9.21073 -1.38684,0.17255 -1.11329,0.96822 -1.78293,2.03596 -0.8263,3.14896 -2.43781,6.03658 -5.77962,9.54547 -1.17955,1.58402 -3.4463,3.21234 -4.30586,4.98671 -0.44965,-0.65695 -0.63824,-1.53454 -1.06698,-2.20173 0.10036,1.42645 0.43668,2.10553 0.48894,3.53607 0.11714,1.31183 -0.97414,3.2196 -1.48444,4.37794 -3.08479,6.06598 -6.81164,11.79222 -10.39418,17.58192 2.19175,1.91557 4.38353,3.83524 6.54602,5.78764 -0.21542,1.34457 -0.35763,2.70144 -0.57094,4.04807 -0.74871,0.67128 -1.83205,0.88823 -2.5954,1.53901 -0.092,1.17063 0.002,2.4354 -0.62534,3.49142 -0.3388,0.60576 -1.0436,0.93527 -1.73585,0.91276 -2.36119,0.0144 -4.72027,-0.0122 -7.07932,0.0121 -0.95996,-1.59835 -1.83625,-3.24172 -2.77736,-4.85033 -0.18615,-0.36223 -0.51032,-0.74288 -0.33675,-1.17061 0.88676,-3.21924 1.85927,-6.41798 2.70835,-9.64745 0.16942,-0.55256 0.21962,-1.12968 0.29489,-1.69864 0.77172,-6.02913 1.49952,-12.06235 2.12485,-18.10582 0.49565,-4.90968 2.66651,-9.61673 5.98974,-13.3169 0.49147,-0.54438 1.09589,-1.01099 1.41587,-1.68225 1.59154,-2.99411 3.19354,-5.9923 4.46719,-9.13375 1.40752,-2.97569 2.84423,-6.23995 2.70621,-9.53693 0.57303,-1.9647 1.02693,-3.81681 2.24412,-5.47248 1.65428,-2.23074 4.09493,-3.94572 6.87857,-4.50238 1.86761,-0.38271 3.82304,-0.78897 5.6781,-0.36534 0.71946,0.19442 1.42842,-0.13303 2.1123,-0.31926 3.41496,-1.89898 4.94862,-2.12214 10.93957,-3.51908 0.48311,1.13584 0.0249,0.44198 0.54982,1.5594 0.023,-1.96879 0.59668,-3.65121 0.47748,-5.6036 -1.99215,-1.84013 -1.65414,-2.06649 -2.79092,-5.35758 -0.297,-0.89437 -0.4873,-1.8194 -0.5145,-2.76081 -0.96622,-0.83294 -0.9212,-1.85152 -1.19947,-3.93104 0.0586,-1.00487 0.20397,-1.15261 0.89833,-1.82182 -0.17444,-2.35052 -0.15555,-4.71334 0.0515,-7.05052 0.11712,-1.03964 0.67943,-2.15036 1.23706,-3.02093 1.33183,-1.46409 1.36246,-2.06298 2.48764,-3.08215 1.12515,-1.01917 2.80252,-1.86356 4.30415,-2.34244 z"
       inkscape:connector-curvature="0"
       style="display:inline;fill:#999999;stroke:#000000;stroke-width:0.01940579"
       sodipodi:nodetypes="ccssscccccccccccccccccccccccccccccccccccccccccscccccccccccccccaccsscacccccccccccccccccccccccccccccccccccccccccccccccccccccccccccccccccccccccccccc" />
  </g>
</svg>
