<?xml version="1.0" encoding="UTF-8" standalone="no"?>
<!-- Created with Inkscape (http://www.inkscape.org/) -->

<svg
   xmlns:dc="http://purl.org/dc/elements/1.1/"
   xmlns:cc="http://creativecommons.org/ns#"
   xmlns:rdf="http://www.w3.org/1999/02/22-rdf-syntax-ns#"
   xmlns:svg="http://www.w3.org/2000/svg"
   xmlns="http://www.w3.org/2000/svg"
   xmlns:sodipodi="http://sodipodi.sourceforge.net/DTD/sodipodi-0.dtd"
   xmlns:inkscape="http://www.inkscape.org/namespaces/inkscape"
   width="32px"
   height="32px"
   id="svg5053"
   version="1.1"
   inkscape:version="0.48.2 r9819"
   sodipodi:docname="city1.svg">
  <defs
     id="defs5055" />
  <sodipodi:namedview
     id="base"
     pagecolor="#ffffff"
     bordercolor="#666666"
     borderopacity="1.0"
     inkscape:pageopacity="0.0"
     inkscape:pageshadow="2"
     inkscape:zoom="31.672167"
     inkscape:cx="19.438753"
     inkscape:cy="16.92493"
     inkscape:current-layer="layer1"
     showgrid="true"
     inkscape:grid-bbox="true"
     inkscape:document-units="px"
     inkscape:window-width="1600"
     inkscape:window-height="852"
     inkscape:window-x="0"
     inkscape:window-y="0"
     inkscape:window-maximized="1" />
  <metadata
     id="metadata5058">
    <rdf:RDF>
      <cc:Work
         rdf:about="">
        <dc:format>image/svg+xml</dc:format>
        <dc:type
           rdf:resource="http://purl.org/dc/dcmitype/StillImage" />
        <dc:title />
      </cc:Work>
    </rdf:RDF>
  </metadata>
  <g
     id="layer1"
     inkscape:label="Layer 1"
     inkscape:groupmode="layer">
    <g
       id="g5676">
      <g
         id="g9342">
        <g
           id="g9164">
          <path
             style="fill:#000000;fill-opacity:1;fill-rule:evenodd;stroke:#000000;stroke-width:0.30000001;stroke-linecap:round;stroke-miterlimit:4;stroke-opacity:1;stroke-dasharray:none;stroke-dashoffset:0"
             d="M 7.3169423,15.204117 C 7.1134556,15.703201 7.146795,16.403142 7.0710309,16.83855 6.4783004,17.242184 6.6049939,16.636266 6.679904,16.178909 6.8708647,15.874052 6.4933315,15.389728 6.9152993,15.348902 c 0.1338786,-0.04826 0.2677776,-0.09655 0.401643,-0.144785 z"
             id="path8819"
             inkscape:connector-curvature="0" />
          <path
             style="fill:#000000;fill-opacity:1;fill-rule:evenodd;stroke:#000000;stroke-width:0.30000001;stroke-linecap:round;stroke-miterlimit:4;stroke-opacity:1;stroke-dasharray:none;stroke-dashoffset:0"
             d="m 7.1325778,15.071893 c -0.1189119,0.438269 -0.1213738,0.860481 -0.118266,1.158363 5.742e-4,0.25845 0.1746846,0.662849 -0.246836,0.70325 -0.4092804,0.302276 -0.2410536,-0.25126 -0.2692252,-0.460243 0.012935,-0.36819 0.00213,-0.981871 0.094244,-1.212003 0.1800219,-0.06311 0.3600895,-0.12629 0.5400831,-0.189367 z"
             id="path8821"
             inkscape:connector-curvature="0" />
          <path
             style="fill:#000000;fill-opacity:1;fill-rule:evenodd;stroke:#000000;stroke-width:0.30000001;stroke-linecap:round;stroke-miterlimit:4;stroke-opacity:1;stroke-dasharray:none;stroke-dashoffset:0"
             d="m 8.0390972,15.593259 c 0.04861,0.261056 0.1463278,0.732072 -0.2918661,0.772788 -0.2296078,0.12647 -0.3756488,-0.620914 -0.015185,-0.620431 0.1023478,-0.05079 0.204719,-0.101561 0.3070512,-0.152357 z"
             id="path8823"
             inkscape:connector-curvature="0" />
          <path
             style="fill:#000000;fill-opacity:1;fill-rule:evenodd;stroke:#000000;stroke-width:0.30000001;stroke-linecap:round;stroke-miterlimit:4;stroke-opacity:1;stroke-dasharray:none;stroke-dashoffset:0"
             d="m 7.7313906,15.796493 c -0.04074,0.268319 -0.083066,0.685419 -0.092925,1.005149 -0.2315327,0.144493 -0.6059214,0.32423 -0.5056866,-0.06238 0.1466234,-0.284941 -0.2066603,-0.997524 0.2332654,-1.065212 0.1217818,-0.0539 0.2435656,0.176344 0.3653462,0.122443 z"
             id="path8825"
             inkscape:connector-curvature="0"
             sodipodi:nodetypes="ccccc" />
          <path
             style="fill:#000000;fill-opacity:1;fill-rule:evenodd;stroke:#000000;stroke-width:0.30000001;stroke-linecap:round;stroke-miterlimit:4;stroke-opacity:1;stroke-dasharray:none;stroke-dashoffset:0"
             d="m 8.9222205,16.008892 c -0.032729,0.286454 -0.065499,0.641701 -0.4815862,0.674812 -0.2099914,0.150495 -0.2493587,-0.55915 0.1055027,-0.545682 0.1253604,-0.04304 0.2507268,-0.0861 0.3760835,-0.12913 z"
             id="path8827"
             inkscape:connector-curvature="0" />
          <path
             style="fill:#000000;fill-opacity:1;fill-rule:evenodd;stroke:#000000;stroke-width:0.30000001;stroke-linecap:round;stroke-miterlimit:4;stroke-opacity:1;stroke-dasharray:none;stroke-dashoffset:0"
             d="m 8.3561403,16.360489 c -0.040386,0.272675 -0.1586013,0.481695 -0.5288514,0.51428 -0.2758862,0.108182 -0.1118352,-0.455267 0.1758298,-0.390495 0.1176703,-0.04126 0.2353686,-0.08254 0.3530216,-0.123785 z"
             id="path8829"
             inkscape:connector-curvature="0" />
          <path
             style="fill:#000000;fill-opacity:1;fill-rule:evenodd;stroke:#000000;stroke-width:0.30000001;stroke-linecap:round;stroke-miterlimit:4;stroke-opacity:1;stroke-dasharray:none;stroke-dashoffset:0"
             d="M 8.6761736,15.769356 C 8.778162,15.92486 8.8110787,16.33813 8.3907155,16.358067 7.9949917,16.684114 8.1242394,16.137493 8.0061781,15.990276 8.050532,15.721128 8.5322913,15.871555 8.6761736,15.769356 z"
             id="path8831"
             inkscape:connector-curvature="0"
             sodipodi:nodetypes="cccc" />
          <path
             style="fill:#000000;fill-opacity:1;fill-rule:evenodd;stroke:#000000;stroke-width:0.30000001;stroke-linecap:round;stroke-miterlimit:4;stroke-opacity:1;stroke-dasharray:none;stroke-dashoffset:0"
             d="M 9.6458899,15.898138 C 9.491397,16.27895 9.2947014,16.499623 9.3105204,16.84487 9.3583024,17.044773 8.8483377,17.211364 8.7968696,17.150714 8.7535736,16.689712 8.6174047,16.311007 8.6226277,15.90724 8.8795106,15.546379 9.4521951,15.9748 9.6458899,15.89814 z"
             id="path8833"
             inkscape:connector-curvature="0"
             sodipodi:nodetypes="ccccc" />
          <path
             style="fill:#000000;fill-opacity:1;fill-rule:evenodd;stroke:#000000;stroke-width:0.30000001;stroke-linecap:round;stroke-miterlimit:4;stroke-opacity:1;stroke-dasharray:none;stroke-dashoffset:0"
             d="m 10.425236,15.819367 c -0.180794,0.234382 -0.151599,0.648845 -0.29306,1.035355 -0.06282,0.07777 -0.6117907,0.377417 -0.5686148,0.126005 0.2106156,-0.25238 0.1146353,-0.817 0.292399,-0.961747 0.1897588,-0.06653 0.3795178,-0.133089 0.5692758,-0.199613 z"
             id="path8835"
             inkscape:connector-curvature="0" />
          <path
             style="fill:#000000;fill-opacity:1;fill-rule:evenodd;stroke:#000000;stroke-width:0.30000001;stroke-linecap:round;stroke-miterlimit:4;stroke-opacity:1;stroke-dasharray:none;stroke-dashoffset:0"
             d="m 9.9427246,15.824021 c -0.1612222,0.22786 0.1254674,0.674688 -0.1202295,0.840487 -0.3966488,0.267997 -0.4806229,0.124027 -0.4389507,-0.33705 -0.227851,-0.402052 -0.011418,-0.435611 0.3572563,-0.585915 0.05678,-0.02512 0.1451537,0.107567 0.2019239,0.08248 z"
             id="path8837"
             inkscape:connector-curvature="0"
             sodipodi:nodetypes="ccccc" />
          <path
             style="fill:#000000;fill-opacity:1;fill-rule:evenodd;stroke:#000000;stroke-width:0.30000001;stroke-linecap:round;stroke-miterlimit:4;stroke-opacity:1;stroke-dasharray:none;stroke-dashoffset:0"
             d="m 11.472773,15.901553 c -0.956453,0.124021 -0.442135,0.801211 -0.585325,1.09684 -0.472633,0.285664 -0.431733,0.04275 -0.470317,-0.363419 0.102325,-0.375198 -0.178002,-0.638492 0.325846,-0.728718 0.07487,-0.03314 0.65495,0.02841 0.729796,-0.0047 z"
             id="path8839"
             inkscape:connector-curvature="0"
             sodipodi:nodetypes="ccccc" />
          <path
             style="fill:#000000;fill-opacity:1;fill-rule:evenodd;stroke:#000000;stroke-width:0.30000001;stroke-linecap:round;stroke-miterlimit:4;stroke-opacity:1;stroke-dasharray:none;stroke-dashoffset:0"
             d="m 10.81739,16.403958 c -0.207986,0.184494 0.0046,0.709767 -0.274375,0.833777 -0.375907,0.136464 -0.395303,0.221513 -0.393101,-0.144512 -0.04428,-0.415224 0.10903,-0.571707 0.51761,-0.637822 0.04996,-0.01714 0.09991,-0.03432 0.149866,-0.05144 z"
             id="path8841"
             inkscape:connector-curvature="0" />
          <path
             style="fill:#000000;fill-opacity:1;fill-rule:evenodd;stroke:#000000;stroke-width:0.30000001;stroke-linecap:round;stroke-miterlimit:4;stroke-opacity:1;stroke-dasharray:none;stroke-dashoffset:0"
             d="m 12.233528,15.856628 c -0.0082,0.387448 0.352697,0.457109 0.280455,0.915641 0.131936,0.234325 -0.552956,0.373635 -0.551091,0.305867 0.149291,-0.425614 -0.118494,-0.962183 -0.503358,-1.141026 -0.203265,-0.166546 0.4601,0.357315 0.773994,-0.08048 z"
             id="path8851"
             inkscape:connector-curvature="0"
             sodipodi:nodetypes="ccccc" />
          <path
             style="fill:#000000;fill-opacity:1;fill-rule:evenodd;stroke:#000000;stroke-width:0.30000001;stroke-linecap:round;stroke-miterlimit:4;stroke-opacity:1;stroke-dasharray:none;stroke-dashoffset:0"
             d="m 13.029204,15.814325 c 0.04757,0.391864 0.237447,0.930605 0.269496,1.318024 -0.17672,0.05762 -0.97307,0.318641 -0.735484,-0.04072 0.140521,-0.343367 -0.237502,-1.089391 -0.12719,-1.316312 0.166149,-0.09224 0.427032,0.13123 0.593178,0.03901 z"
             id="path8859"
             inkscape:connector-curvature="0"
             sodipodi:nodetypes="ccccc" />
          <path
             style="fill:#000000;fill-opacity:1;fill-rule:evenodd;stroke:#000000;stroke-width:0.30000001;stroke-linecap:round;stroke-miterlimit:4;stroke-opacity:1;stroke-dasharray:none;stroke-dashoffset:0"
             d="m 13.908692,16.046864 c 0.09901,0.163338 -0.150752,0.601615 -0.572986,0.630044 -0.228007,0.218441 -0.433169,-0.424375 -0.09706,-0.433348 -0.102909,-0.255001 0.551935,-0.131147 0.670046,-0.196696 z"
             id="path8861"
             inkscape:connector-curvature="0"
             sodipodi:nodetypes="cccc" />
          <path
             style="fill:#000000;fill-opacity:1;fill-rule:evenodd;stroke:#000000;stroke-width:0.30000001;stroke-linecap:round;stroke-miterlimit:4;stroke-opacity:1;stroke-dasharray:none;stroke-dashoffset:0"
             d="m 13.403521,17.123503 c -0.02576,-0.327491 -0.04946,-0.724961 0.418294,-0.776247 0.03301,0.118003 0.369648,0.523696 0.01982,0.578864 -0.145994,0.06578 -0.292354,0.131652 -0.438118,0.197383 z"
             id="path8863"
             inkscape:connector-curvature="0" />
          <path
             style="fill:#000000;fill-opacity:1;fill-rule:evenodd;stroke:#000000;stroke-width:0.30000001;stroke-linecap:round;stroke-miterlimit:4;stroke-opacity:1;stroke-dasharray:none;stroke-dashoffset:0"
             d="m 14.163051,16.940668 c -0.02877,-0.338137 -0.420972,-0.79351 0.05328,-0.870093 1.258482,-0.179171 0.745902,0.724523 0.280248,0.722458 -0.111158,0.0492 -0.222441,0.09846 -0.333524,0.147635 z"
             id="path8865"
             inkscape:connector-curvature="0"
             sodipodi:nodetypes="cccc" />
          <path
             style="fill:#000000;fill-opacity:1;fill-rule:evenodd;stroke:#000000;stroke-width:0.30000001;stroke-linecap:round;stroke-miterlimit:4;stroke-opacity:1;stroke-dasharray:none;stroke-dashoffset:0"
             d="m 14.738831,16.841416 c 0.105463,-0.274865 -0.03921,-0.68278 0.415961,-0.721176 0.371719,-0.268017 0.133131,0.402834 0.138388,0.501732 -0.184784,0.07314 -0.369559,0.146371 -0.554349,0.219444 z"
             id="path8867"
             inkscape:connector-curvature="0" />
          <path
             style="fill:#000000;fill-opacity:1;fill-rule:evenodd;stroke:#000000;stroke-width:0.30000001;stroke-linecap:round;stroke-miterlimit:4;stroke-opacity:1;stroke-dasharray:none;stroke-dashoffset:0"
             d="m 15.4666,16.852148 c 0.123532,-0.184539 0.04199,-0.602511 0.01087,-0.933946 0.216564,-0.207008 0.666613,-0.386489 0.531303,0.105873 0.05207,0.368394 0.200389,0.674047 -0.292022,0.72902 -0.08336,0.03301 -0.166898,0.06606 -0.250149,0.09905 z"
             id="path8869"
             inkscape:connector-curvature="0" />
          <path
             style="fill:#000000;fill-opacity:1;fill-rule:evenodd;stroke:#000000;stroke-width:0.30000001;stroke-linecap:round;stroke-miterlimit:4;stroke-opacity:1;stroke-dasharray:none;stroke-dashoffset:0"
             d="m 16.380447,16.916688 c 0.172158,-0.316137 -0.290887,-0.88562 0.110746,-1.082471 0.537485,-0.401807 0.261491,0.383567 0.462027,0.645417 0.144664,0.174023 -0.232235,0.243222 -0.472639,0.388075 -0.03336,0.01632 -0.06684,0.03269 -0.100134,0.04898 z"
             id="path8871"
             inkscape:connector-curvature="0" />
          <path
             style="fill:#000000;fill-opacity:1;fill-rule:evenodd;stroke:#000000;stroke-width:0.30000001;stroke-linecap:round;stroke-miterlimit:4;stroke-opacity:1;stroke-dasharray:none;stroke-dashoffset:0"
             d="m 17.088103,16.711211 c -0.04497,-0.388144 -0.195104,-0.969885 -0.09152,-1.348369 0.558128,-0.335355 0.471806,0.05294 0.512791,0.559329 0.102844,0.448896 0.309105,0.556789 -0.193055,0.686235 -0.07607,0.03427 -0.152177,0.06855 -0.22822,0.102805 z"
             id="path8873"
             inkscape:connector-curvature="0" />
          <path
             style="fill:#000000;fill-opacity:1;fill-rule:evenodd;stroke:#000000;stroke-width:0.30000001;stroke-linecap:round;stroke-miterlimit:4;stroke-opacity:1;stroke-dasharray:none;stroke-dashoffset:0"
             d="m 18.249365,16.209971 c 0.07399,0.313703 0.568495,0.350196 0.130994,0.387646 -0.403378,0.639138 -0.345892,-0.476182 -0.239028,-0.572775 0.498598,-0.289571 0.392453,-0.03556 0.486593,0.383597 0.114601,0.550537 -0.677379,0.718001 -0.823259,0.233159 -0.193452,-0.101732 0.220018,-0.240104 0.355237,-0.370888 0.02983,-0.02022 0.05962,-0.04061 0.08946,-0.06074 z"
             id="path8875"
             inkscape:connector-curvature="0" />
          <path
             style="fill:#000000;fill-opacity:1;fill-rule:evenodd;stroke:#000000;stroke-width:0.30000001;stroke-linecap:round;stroke-miterlimit:4;stroke-opacity:1;stroke-dasharray:none;stroke-dashoffset:0"
             d="m 18.229935,15.667996 c -0.04225,0.285973 -0.04067,0.576065 -0.508463,0.591205 -0.211693,0.152757 -0.224729,-0.647374 0.136108,-0.614166 0.113596,-0.04496 0.258754,0.0679 0.372355,0.02296 z"
             id="path8877"
             inkscape:connector-curvature="0"
             sodipodi:nodetypes="cccc" />
          <path
             style="fill:#000000;fill-opacity:1;fill-rule:evenodd;stroke:#000000;stroke-width:0.30000001;stroke-linecap:round;stroke-miterlimit:4;stroke-opacity:1;stroke-dasharray:none;stroke-dashoffset:0"
             d="m 19.246781,15.522192 c -0.06144,0.375398 0.218698,0.871069 0.216508,1.226133 -0.02015,0.08519 -0.651376,0.387617 -0.554033,0.155758 0.0064,-0.42271 -0.247425,-0.814568 -0.175971,-1.136594 0.171112,-0.08175 0.342647,-0.163603 0.513496,-0.245297 z"
             id="path8879"
             inkscape:connector-curvature="0" />
          <path
             style="fill:#000000;fill-opacity:1;fill-rule:evenodd;stroke:#000000;stroke-width:0.30000001;stroke-linecap:round;stroke-miterlimit:4;stroke-opacity:1;stroke-dasharray:none;stroke-dashoffset:0"
             d="m 20.373898,15.634641 c -0.251812,0.200096 -0.203626,0.693544 -0.04653,0.91048 -0.293325,0.126615 -0.536174,0.432822 -0.647758,0.03102 0.01848,-0.227532 -0.153627,-0.734099 0.177826,-0.82296 0.172153,-0.0395 0.344302,-0.07909 0.516458,-0.118542 z"
             id="path8881"
             inkscape:connector-curvature="0" />
          <path
             style="fill:#000000;fill-opacity:1;fill-rule:evenodd;stroke:#000000;stroke-width:0.30000001;stroke-linecap:round;stroke-miterlimit:4;stroke-opacity:1;stroke-dasharray:none;stroke-dashoffset:0"
             d="m 20.757475,15.56373 c 0.01636,0.359184 0.365779,0.868915 -0.196225,0.952644 -0.252899,0.213533 -0.386486,-0.641428 -0.243373,-0.719579 0.146533,-0.07768 0.293064,-0.155416 0.439598,-0.233065 z"
             id="path8883"
             inkscape:connector-curvature="0" />
          <path
             style="fill:#000000;fill-opacity:1;fill-rule:evenodd;stroke:#000000;stroke-width:0.30000001;stroke-linecap:round;stroke-miterlimit:4;stroke-opacity:1;stroke-dasharray:none;stroke-dashoffset:0"
             d="m 21.981471,15.726891 c -0.277986,0.272711 0.02941,0.657214 -0.281101,0.876206 -0.490896,0.365157 -0.356901,-0.176355 -0.456249,-0.473487 -0.154473,-0.410975 -0.89365,-0.590469 0.544068,-0.563864 0.03271,-0.0094 0.16083,0.170531 0.193282,0.161145 z"
             id="path8885"
             inkscape:connector-curvature="0"
             sodipodi:nodetypes="ccccc" />
          <path
             style="fill:#000000;fill-opacity:1;fill-rule:evenodd;stroke:#000000;stroke-width:0.30000001;stroke-linecap:round;stroke-miterlimit:4;stroke-opacity:1;stroke-dasharray:none;stroke-dashoffset:0"
             d="m 22.542972,15.400275 c -0.01549,0.369598 0.113814,0.778721 0.2045,1.078486 0.249934,0.382005 -0.08745,0.464517 -0.41295,0.581997 -0.150987,-0.07106 -0.116404,-0.692515 -0.228162,-0.862585 0.06846,-0.302599 -0.419565,-0.53262 0.04809,-0.625892 0.129499,-0.05734 0.25906,-0.114635 0.38852,-0.172006 z"
             id="path8887"
             inkscape:connector-curvature="0" />
          <path
             style="fill:#000000;fill-opacity:1;fill-rule:evenodd;stroke:#000000;stroke-width:0.30000001;stroke-linecap:round;stroke-miterlimit:4;stroke-opacity:1;stroke-dasharray:none;stroke-dashoffset:0"
             d="m 23.22627,15.613398 c -0.04036,0.305622 0.10892,0.630094 -0.355716,0.709125 -0.239605,-0.006 -0.398966,-0.558217 0.03055,-0.562652 0.10837,-0.04882 0.216871,-0.09769 0.325162,-0.146473 z"
             id="path8889"
             inkscape:connector-curvature="0" />
          <path
             style="fill:#000000;fill-opacity:1;fill-rule:evenodd;stroke:#000000;stroke-width:0.30000001;stroke-linecap:round;stroke-miterlimit:4;stroke-opacity:1;stroke-dasharray:none;stroke-dashoffset:0"
             d="m 23.529308,16.126699 c 0.03147,0.320043 -0.274692,0.368572 -0.555535,0.478336 -0.06038,-0.161244 -0.10786,-0.280981 0.238675,-0.352866 0.105609,-0.04182 0.211312,-0.08364 0.31686,-0.12547 z"
             id="path8891"
             inkscape:connector-curvature="0" />
          <path
             style="fill:#000000;fill-opacity:1;fill-rule:evenodd;stroke:#000000;stroke-width:0.30000001;stroke-linecap:round;stroke-miterlimit:4;stroke-opacity:1;stroke-dasharray:none;stroke-dashoffset:0"
             d="m 24.150046,15.460324 c -0.243421,0.325576 0.145139,0.946074 -0.2247,1.138796 -0.486887,0.369423 -0.317541,-0.2635 -0.381295,-0.535336 -0.110454,-0.398487 -0.278328,-0.48184 0.04631,-0.600947 0.02844,-0.01126 0.531382,0.0087 0.55969,-0.0025 z"
             id="path8893"
             inkscape:connector-curvature="0"
             sodipodi:nodetypes="ccccc" />
          <path
             style="fill:#000000;fill-opacity:1;fill-rule:evenodd;stroke:#000000;stroke-width:0.30000001;stroke-linecap:round;stroke-miterlimit:4;stroke-opacity:1;stroke-dasharray:none;stroke-dashoffset:0"
             d="m 24.837432,15.437301 c -0.257573,0.357459 0.242595,1.140324 -0.337452,1.248701 -0.302333,0.102098 -0.221989,-0.822184 -0.239785,-0.993211 0.19241,-0.08516 0.384838,-0.170378 0.577237,-0.25549 z"
             id="path8895"
             inkscape:connector-curvature="0" />
          <path
             style="fill:#000000;fill-opacity:1;fill-rule:evenodd;stroke:#000000;stroke-width:0.30000001;stroke-linecap:round;stroke-miterlimit:4;stroke-opacity:1;stroke-dasharray:none;stroke-dashoffset:0"
             d="m 25.298863,14.638969 c 0.05073,0.3704 0.146141,0.961766 0.14643,1.287814 0.09233,0.287215 -0.03065,0.572391 0.02932,0.852187 0.03229,0.225961 -0.412097,0.214201 -0.58797,0.342802 0.03537,-0.292627 0.04714,-0.559915 0.02114,-0.845852 0.0832,-0.456902 -0.04735,-0.968962 -0.18903,-1.359821 0.19322,-0.09232 0.387677,-0.185092 0.580114,-0.27713 z"
             id="path8897"
             inkscape:connector-curvature="0" />
          <path
             style="fill:#000000;fill-opacity:1;fill-rule:evenodd;stroke:#000000;stroke-width:0.30000001;stroke-linecap:round;stroke-miterlimit:4;stroke-opacity:1;stroke-dasharray:none;stroke-dashoffset:0"
             d="m 17.62635,16.444228 c 0.330008,0.124857 1.116933,0.128205 1.638637,0.109394 0.547638,0.0017 1.181694,-0.09821 1.656461,-0.127596 -0.02455,0.119288 -0.335786,0.519492 -0.596113,0.440519 -0.573646,0.009 -1.244763,-3e-6 -1.848366,0.0019 -0.316431,-0.120084 -1.707253,0.283147 -1.082261,-0.190942 0.0772,-0.07771 0.15452,-0.155661 0.231642,-0.233234 z"
             id="path8899"
             inkscape:connector-curvature="0" />
          <path
             style="fill:#000000;fill-opacity:1;fill-rule:evenodd;stroke:#000000;stroke-width:0.30000001;stroke-linecap:round;stroke-miterlimit:4;stroke-opacity:1;stroke-dasharray:none;stroke-dashoffset:0"
             d="m 22.031057,16.306228 c 0.422466,0.166818 1.330914,-0.02608 1.543224,-0.0026 -0.224882,0.465985 -0.765477,0.383704 -1.182136,0.391538 -0.290347,-0.03232 -1.147865,0.290118 -0.596904,-0.137757 0.0786,-0.08371 0.157228,-0.167412 0.235816,-0.251133 z"
             id="path8901"
             inkscape:connector-curvature="0" />
          <path
             style="fill:#000000;fill-opacity:1;fill-rule:evenodd;stroke:#000000;stroke-width:0.30000001;stroke-linecap:round;stroke-miterlimit:4;stroke-opacity:1;stroke-dasharray:none;stroke-dashoffset:0"
             d="m 21.87543,16.408517 c 0.591331,0.21246 1.282208,0.157544 1.92541,0.110495 0.244143,0.134452 0.88605,-0.21737 0.766927,-0.06236 -0.142372,0.193813 -0.328546,0.555471 -0.556061,0.459037 -0.452746,0.01432 -0.93285,-0.03593 -1.410914,-0.02997 -0.242163,-0.127479 -1.481359,0.182494 -1.029098,-0.190974 0.101214,-0.09541 0.202673,-0.190823 0.303736,-0.28623 z"
             id="path8903"
             inkscape:connector-curvature="0" />
          <path
             style="fill:#000000;fill-opacity:1;fill-rule:evenodd;stroke:#000000;stroke-width:0.30000001;stroke-linecap:round;stroke-miterlimit:4;stroke-opacity:1;stroke-dasharray:none;stroke-dashoffset:0"
             d="m 20.069082,16.115064 c 0.261,0.163802 1.149812,0.16626 1.430477,0.265796 -0.205779,0.355136 -0.590643,0.280126 -0.922755,0.21788 -0.330337,-0.05101 -1.337786,0.09906 -0.691594,-0.310527 0.06127,-0.05768 0.122698,-0.115684 0.183872,-0.173149 z"
             id="path8905"
             inkscape:connector-curvature="0" />
          <path
             style="fill:#000000;fill-opacity:1;fill-rule:evenodd;stroke:#000000;stroke-width:0.30000001;stroke-linecap:round;stroke-miterlimit:4;stroke-opacity:1;stroke-dasharray:none;stroke-dashoffset:0"
             d="m 20.967075,15.853329 c -0.01587,0.123862 0.851783,-0.08542 0.547174,0.173307 -0.216758,0.414063 -0.573184,0.185051 -0.917075,0.337859 -0.229192,0.01071 0.259039,-0.342977 0.369933,-0.511109 l -3.2e-5,-5.7e-5 z"
             id="path8907"
             inkscape:connector-curvature="0" />
          <path
             style="fill:#000000;fill-opacity:1;fill-rule:evenodd;stroke:#000000;stroke-width:0.30000001;stroke-linecap:round;stroke-miterlimit:4;stroke-opacity:1;stroke-dasharray:none;stroke-dashoffset:0"
             d="m 13.935269,16.665545 c 0.798208,0.04858 1.614151,0.130324 2.405959,0.205724 0.540569,-0.0032 1.020474,0.06859 1.543247,-0.0666 0.416186,-0.132868 1.054044,-0.30875 0.491873,0.183447 -0.387591,0.136191 -0.838324,0.257886 -1.276332,0.343417 -0.477143,-0.04227 -1.073746,-0.167635 -1.634047,-0.222612 -0.741256,-0.09597 -1.027916,-0.103264 -1.753582,-0.01628 -0.486588,0.235237 0.161435,-0.303018 0.222882,-0.4271 z"
             id="path8909"
             inkscape:connector-curvature="0" />
          <path
             style="fill:#000000;fill-opacity:1;fill-rule:evenodd;stroke:#000000;stroke-width:0.30000001;stroke-linecap:round;stroke-miterlimit:4;stroke-opacity:1;stroke-dasharray:none;stroke-dashoffset:0"
             d="m 15.421696,15.926897 c 0.580941,0.20818 1.306388,0.141656 1.7632,0.189125 -0.270715,0.484546 -0.615653,0.677882 -1.066673,0.693382 -0.336423,-0.07043 -1.51786,-0.271979 -0.872363,-0.711769 0.0586,-0.05692 0.117284,-0.113803 0.175836,-0.170738 z"
             id="path8911"
             inkscape:connector-curvature="0"
             sodipodi:nodetypes="ccccc" />
          <path
             style="fill:#000000;fill-opacity:1;fill-rule:evenodd;stroke:#000000;stroke-width:0.30000001;stroke-linecap:round;stroke-miterlimit:4;stroke-opacity:1;stroke-dasharray:none;stroke-dashoffset:0"
             d="m 7.1152221,16.530051 c 0.6328854,0.150408 1.3603249,0.08378 2.0041023,0.22818 0.2390287,0.08116 1.5147886,0.0944 1.3702826,0.244501 -0.170562,0.268728 -1.1263576,0.367503 -1.3246164,0.187146 -0.6860979,-0.107759 -1.4326576,-0.334963 -2.1531107,-0.201193 -0.614902,0.139449 -0.1289498,-0.16791 0.068728,-0.421819 l 0.029512,-0.03143 0.0051,-0.0054 3.7e-6,4.2e-5 z"
             id="path8913"
             inkscape:connector-curvature="0"
             sodipodi:nodetypes="cccccccccc" />
          <path
             style="fill:#000000;fill-opacity:1;fill-rule:evenodd;stroke:#000000;stroke-width:0.30000001;stroke-linecap:round;stroke-miterlimit:4;stroke-opacity:1;stroke-dasharray:none;stroke-dashoffset:0"
             d="m 8.9854442,13.351109 c -0.134462,0.26121 -0.079256,0.561486 -0.1163005,0.832679 -0.025708,0.360229 -0.058492,0.604071 -0.048675,0.913779 -8.091e-4,0.169715 -0.3983546,0.105224 -0.6365517,0.162754 -0.00695,-0.303298 0.092208,-0.571497 0.09694,-0.950023 0.1655733,-0.305838 -0.1642178,-0.936486 0.3161169,-0.910083 0.1294742,-0.01638 0.2590805,-0.03268 0.3884702,-0.04911 z"
             id="path8963"
             inkscape:connector-curvature="0" />
          <path
             style="fill:#000000;fill-opacity:1;fill-rule:evenodd;stroke:#000000;stroke-width:0.30000001;stroke-linecap:round;stroke-miterlimit:4;stroke-opacity:1;stroke-dasharray:none;stroke-dashoffset:0"
             d="m 9.5930343,13.195795 c -0.1442586,0.507116 -0.0134,1.055967 -0.040775,1.51752 -0.029636,0.268481 -0.014675,0.611839 -0.3847026,0.503631 -0.3832778,0.08593 -0.3322756,-0.09726 -0.2282353,-0.306919 0.1755306,-0.448023 0.012395,-1.028894 0.030216,-1.477218 -0.1705109,-0.201297 0.3691034,-0.154346 0.5668167,-0.227175 l 0.042476,-0.0074 0.014194,-0.0025 9.9e-6,0 z"
             id="path8965"
             inkscape:connector-curvature="0" />
          <path
             style="fill:#000000;fill-opacity:1;fill-rule:evenodd;stroke:#000000;stroke-width:0.30000001;stroke-linecap:round;stroke-miterlimit:4;stroke-opacity:1;stroke-dasharray:none;stroke-dashoffset:0"
             d="m 22.948633,12.293789 c -0.05954,0.294711 -0.01935,0.731966 -0.02325,1.107219 -0.02748,0.354864 -0.358347,0.562294 -0.30952,0.845325 -0.260331,-0.01567 -0.78433,0.218335 -0.55355,-0.177889 0.133063,-0.325183 0.373384,-0.62147 0.264784,-1.035497 0.02858,-0.158389 -0.02237,-0.586788 0.0123,-0.690665 0.203079,-0.01617 0.406158,-0.03233 0.609236,-0.04849 z"
             id="path8967"
             inkscape:connector-curvature="0" />
          <path
             style="fill:#000000;fill-opacity:1;fill-rule:evenodd;stroke:#000000;stroke-width:0.30000001;stroke-linecap:round;stroke-miterlimit:4;stroke-opacity:1;stroke-dasharray:none;stroke-dashoffset:0"
             d="m 23.23648,12.101621 c -0.132153,0.488958 -0.22417,1.130322 -0.06581,1.580168 -0.09474,0.272681 0.766949,0.809891 0.423615,0.831773 -0.287986,0.06771 -1.237597,0.280491 -1.018405,-0.330138 0.07462,-0.361507 -0.0315,-0.962256 0.04991,-1.387304 -0.01735,-0.36597 -0.182538,-0.734727 0.331166,-0.659237 0.09317,-0.01173 0.186347,-0.02361 0.279524,-0.03526 z"
             id="path8969"
             inkscape:connector-curvature="0"
             sodipodi:nodetypes="ccccccc" />
          <path
             style="fill:#000000;fill-opacity:1;fill-rule:evenodd;stroke:#000000;stroke-width:0.30000001;stroke-linecap:round;stroke-miterlimit:4;stroke-opacity:1;stroke-dasharray:none;stroke-dashoffset:0"
             d="m 21.926588,13.171484 c -0.09556,0.372268 0.167359,0.75692 -0.0058,1.08567 0.006,0.0098 -0.78847,0.16559 -0.526442,-0.05867 -0.0249,-0.194371 1.05e-4,-0.620441 -0.118631,-0.844445 0.04215,-0.06414 0.458116,-0.121095 0.650796,-0.182542 l 6.7e-5,-1.1e-5 z"
             id="path8971"
             inkscape:connector-curvature="0" />
          <path
             style="fill:#000000;fill-opacity:1;fill-rule:evenodd;stroke:#000000;stroke-width:0.30000001;stroke-linecap:round;stroke-miterlimit:4;stroke-opacity:1;stroke-dasharray:none;stroke-dashoffset:0"
             d="m 22.807889,12.579447 c -0.03102,0.256781 -0.281834,1.409932 -0.727378,1.414699 -0.342581,0.230628 -0.399213,-0.18223 -0.423933,-0.362941 0.164567,-0.07348 0.946131,-1.011054 1.151311,-1.051758 z"
             id="path8973"
             inkscape:connector-curvature="0"
             sodipodi:nodetypes="cccc" />
          <path
             style="fill:#000000;fill-opacity:1;fill-rule:evenodd;stroke:#000000;stroke-width:0.30000001;stroke-linecap:round;stroke-miterlimit:4;stroke-opacity:1;stroke-dasharray:none;stroke-dashoffset:0"
             d="m 18.679877,13.530233 c 0.715025,-0.199053 1.471756,-0.09952 2.201441,-0.197442 -0.307348,0.276887 -0.655852,0.365964 -1.063045,0.306929 -0.344573,0.03915 -1.320878,0.124571 -0.422506,0.02368 -0.21782,0.01459 -0.48119,-0.09519 -0.71589,-0.133172 z"
             id="path8975"
             inkscape:connector-curvature="0" />
          <path
             style="fill:#000000;fill-opacity:1;fill-rule:evenodd;stroke:#000000;stroke-width:0.30000001;stroke-linecap:round;stroke-miterlimit:4;stroke-opacity:1;stroke-dasharray:none;stroke-dashoffset:0"
             d="m 20.640365,13.27904 c 0.334355,-0.08332 0.580278,0.261802 0.488794,0.602662 0.07206,0.362011 -0.270643,0.308241 -0.563918,0.297903 -0.304301,0.08476 0.136115,-0.340144 -0.06381,-0.495387 -0.0142,-0.168596 -0.620705,0.08153 -0.227495,-0.148333 0.122118,-0.08553 0.24442,-0.171735 0.366427,-0.256845 z"
             id="path8977"
             inkscape:connector-curvature="0" />
          <path
             style="fill:#000000;fill-opacity:1;fill-rule:evenodd;stroke:#000000;stroke-width:0.30000001;stroke-linecap:round;stroke-miterlimit:4;stroke-opacity:1;stroke-dasharray:none;stroke-dashoffset:0"
             d="m 20.305878,13.548063 c 0.148457,0.280407 -0.135923,0.477978 -0.479439,0.419913 -0.257983,-0.05302 -0.121813,-0.423489 0.170508,-0.352207 0.102977,-0.02257 0.205954,-0.04514 0.308931,-0.06771 z"
             id="path8979"
             inkscape:connector-curvature="0" />
          <path
             style="fill:#000000;fill-opacity:1;fill-rule:evenodd;stroke:#000000;stroke-width:0.30000001;stroke-linecap:round;stroke-miterlimit:4;stroke-opacity:1;stroke-dasharray:none;stroke-dashoffset:0"
             d="m 19.54835,13.978123 c -0.136291,0.09358 -0.529167,0.08286 -0.719724,0.0035 0.09708,-0.04303 0.486072,10e-4 0.719724,-0.0035 z"
             id="path8981"
             inkscape:connector-curvature="0" />
          <path
             style="fill:#000000;fill-opacity:1;fill-rule:evenodd;stroke:#000000;stroke-width:0.30000001;stroke-linecap:round;stroke-miterlimit:4;stroke-opacity:1;stroke-dasharray:none;stroke-dashoffset:0"
             d="m 18.813675,12.691227 c -0.0909,0.549597 -0.02533,1.110546 0.01194,1.64776 -0.14403,-0.0068 -0.93115,0.216246 -0.880321,-0.0092 0.02907,-0.427043 0.14358,-0.9964 0.103763,-1.452207 -0.0486,-0.275426 0.572803,-0.101241 0.764618,-0.186396 z"
             id="path8983"
             inkscape:connector-curvature="0"
             sodipodi:nodetypes="ccccc" />
          <path
             style="fill:#000000;fill-opacity:1;fill-rule:evenodd;stroke:#000000;stroke-width:0.30000001;stroke-linecap:round;stroke-miterlimit:4;stroke-opacity:1;stroke-dasharray:none;stroke-dashoffset:0"
             d="m 17.679798,13.559924 c 0.07464,0.285376 -0.394837,0.178297 -0.596441,0.258285 -0.127171,-0.221473 0.287081,-0.180752 0.517665,-0.244596 l 0.04248,-0.0074 0.03631,-0.0063 -9e-6,-1.1e-5 z"
             id="path8985"
             inkscape:connector-curvature="0" />
          <path
             style="fill:#000000;fill-opacity:1;fill-rule:evenodd;stroke:#000000;stroke-width:0.30000001;stroke-linecap:round;stroke-miterlimit:4;stroke-opacity:1;stroke-dasharray:none;stroke-dashoffset:0"
             d="m 18.351324,13.838274 c -0.174229,0.238356 -0.291698,0.35072 -0.682974,0.281151 -0.293382,-0.0942 0.107825,-0.414866 0.375196,-0.282437 0.102574,4.3e-4 0.205294,8.52e-4 0.307778,0.0013 z"
             id="path8987"
             inkscape:connector-curvature="0" />
          <path
             style="fill:#000000;fill-opacity:1;fill-rule:evenodd;stroke:#000000;stroke-width:0.30000001;stroke-linecap:round;stroke-miterlimit:4;stroke-opacity:1;stroke-dasharray:none;stroke-dashoffset:0"
             d="m 18.088062,13.677475 c -0.107109,0.246643 0.05136,0.691387 -0.359378,0.616134 -0.495006,0.172205 -0.224789,-0.294179 -0.28801,-0.478833 0.03185,-0.185213 0.463241,-0.07801 0.647388,-0.137301 z"
             id="path8989"
             inkscape:connector-curvature="0" />
          <path
             style="fill:#000000;fill-opacity:1;fill-rule:evenodd;stroke:#000000;stroke-width:0.30000001;stroke-linecap:round;stroke-miterlimit:4;stroke-opacity:1;stroke-dasharray:none;stroke-dashoffset:0"
             d="m 17.293498,14.055013 c -0.347881,-0.06564 -0.780997,-0.03249 -1.176045,-0.02557 -0.489087,0.178729 -1.014074,0.08335 -1.481771,0.0932 -0.440637,0.01303 -0.510453,-0.05173 -0.08942,-0.249965 0.354957,-0.173182 0.751075,-0.0058 1.136073,-0.03301 0.668327,-0.02787 1.255076,-0.124298 1.984514,-0.130479 0.439751,-0.08564 -0.177933,0.190329 -0.308176,0.304336 0.0087,0.02872 -0.06775,0.01577 -0.06517,0.04148 z"
             id="path8991"
             inkscape:connector-curvature="0" />
          <path
             style="fill:#000000;fill-opacity:1;fill-rule:evenodd;stroke:#000000;stroke-width:0.30000001;stroke-linecap:round;stroke-miterlimit:4;stroke-opacity:1;stroke-dasharray:none;stroke-dashoffset:0"
             d="m 14.313345,14.004561 c 0.596059,0.03081 1.306769,-0.01642 1.935495,-0.08063 0.648939,-0.101002 1.295602,-0.08109 1.938106,0.01237 0.225351,0.562784 0.304473,0.500346 -0.07425,0.676038 -0.567564,0.119595 -1.938373,-0.0681 -2.521203,-0.128391 -0.242142,-0.0705 -1.019544,0.05026 -0.899913,-0.130523 0.297953,-0.266121 0.601818,-0.28295 0.945791,-0.187193 0.493026,0.03205 1.037547,0.07154 1.584533,0.04365 0.371325,-0.172501 0.454231,0.262231 0.0063,0.05678 -0.370338,-0.165276 0.806387,-0.103127 0.290329,-0.06528 -0.489935,-0.06947 -0.986885,-0.05829 -1.507759,0.0032 -0.590739,0.0088 -1.327938,0.0629 -1.652299,0.08087 -0.62169,0.126707 -0.640248,0.04796 -0.130294,-0.226844 0.02838,-0.01805 0.05684,-0.03601 0.0852,-0.05409 z"
             id="path8993"
             inkscape:connector-curvature="0"
             sodipodi:nodetypes="ccccccccccccccc" />
          <path
             style="fill:#000000;fill-opacity:1;fill-rule:evenodd;stroke:#000000;stroke-width:0.30000001;stroke-linecap:round;stroke-miterlimit:4;stroke-opacity:1;stroke-dasharray:none;stroke-dashoffset:0"
             d="m 14.130146,13.018645 c -0.119027,0.127172 0.289485,0.545719 -0.148628,0.710915 0.246299,0.396224 -0.38375,0.54658 -0.593004,0.395677 -0.0046,-0.347269 -0.109404,-0.780118 -0.044,-1.071264 -0.02359,-0.201617 0.581634,0.02069 0.767853,-0.03446 l -0.203204,-8.51e-4 z"
             id="path8995"
             inkscape:connector-curvature="0"
             sodipodi:nodetypes="ccccccc" />
          <path
             style="fill:#000000;fill-opacity:1;fill-rule:evenodd;stroke:#000000;stroke-width:0.30000001;stroke-linecap:round;stroke-miterlimit:4;stroke-opacity:1;stroke-dasharray:none;stroke-dashoffset:0"
             d="m 13.61903,13.401024 c 0.208665,0.187593 -0.540856,0.289719 -0.588781,0.141076 -0.02647,-0.140451 0.436128,-0.08558 0.588781,-0.141076 z"
             id="path8997"
             inkscape:connector-curvature="0" />
          <path
             style="fill:#000000;fill-opacity:1;fill-rule:evenodd;stroke:#000000;stroke-width:0.30000001;stroke-linecap:round;stroke-miterlimit:4;stroke-opacity:1;stroke-dasharray:none;stroke-dashoffset:0"
             d="m 10.198318,14.230092 c -0.128611,0.259955 0.508549,0.989355 0.077,0.868016 -0.7232891,0.189783 0.339824,-0.62816 0.538474,-0.729558 0.560319,-0.113678 1.203501,-0.367298 1.881393,-0.42712 -0.254194,0.08266 -0.720987,0.135714 -0.12154,0.02521 0.362111,-0.06038 1.211578,-0.193741 0.515926,0.151738 -0.241368,0.07417 -1.202916,0.22579 -0.489636,0.125975 0.894767,-0.18249 -0.953445,0.123866 -0.06768,-0.01407 0.327744,-0.07489 -0.675085,0.152383 -0.874886,0.168617 2.897286,0.83815 -0.676971,0.738198 -1.8101827,0.610294 -0.3698755,-0.01206 -0.1926698,-0.440201 -0.2918055,-0.635638 -0.1363147,-0.05864 0.5148402,-0.09969 0.6429412,-0.143464 z"
             id="path9027"
             inkscape:connector-curvature="0"
             sodipodi:nodetypes="cccccccccccc" />
          <path
             style="fill:#000000;fill-opacity:1;fill-rule:evenodd;stroke:#000000;stroke-width:0.30000001;stroke-linecap:round;stroke-miterlimit:4;stroke-opacity:1;stroke-dasharray:none;stroke-dashoffset:0"
             d="m 10.632369,13.973367 c 0.468507,0.04099 1.249705,-0.09522 0.833771,-0.02946 0.680924,-0.107463 1.17127,-0.419548 1.833604,-0.36594 0.545301,-0.137993 -0.119401,0.213895 -0.309927,0.294048 -0.661093,0.03981 0.568496,-0.12327 -0.181469,-0.0084 -0.713793,0.162335 -1.479085,0.399158 -2.123389,0.390458 -0.66925,0.139221 -0.602547,0.02536 -0.121994,-0.236759 -0.0043,0.03154 0.07128,-0.07148 0.0694,-0.04396 z"
             id="path9029"
             inkscape:connector-curvature="0" />
          <path
             style="fill:#000000;fill-opacity:1;fill-rule:evenodd;stroke:#000000;stroke-width:0.30000001;stroke-linecap:round;stroke-miterlimit:4;stroke-opacity:1;stroke-dasharray:none;stroke-dashoffset:0"
             d="m 14.4504,13.313653 c 0.309817,0.247904 0.0096,0.612218 -0.238457,0.745101 -0.504739,-0.199418 -0.0044,-0.627205 0.199189,-0.730968 l 0.355005,0.554182 z"
             id="path9031"
             inkscape:connector-curvature="0"
             sodipodi:nodetypes="ccccc" />
          <path
             style="fill:#000000;fill-opacity:1;fill-rule:evenodd;stroke:#000000;stroke-width:0.30000001;stroke-linecap:round;stroke-miterlimit:4;stroke-opacity:1;stroke-dasharray:none;stroke-dashoffset:0"
             d="m 11.679688,10.497132 c -0.08706,0.431576 -0.02854,0.950987 -0.11335,1.450849 0.007,0.471757 -0.209622,0.899392 -0.09605,1.349169 0.164293,-0.05231 -1.089966,0.206375 -0.321518,0.04354 0.808543,-0.161515 -0.184733,0.45606 -0.291513,0.04465 0.05115,-0.397888 0.03501,-0.85312 0.129711,-1.135365 0.11291,-0.339734 0.114705,-0.996017 0.12733,-1.498802 -0.185901,-0.299683 0.347635,-0.175289 0.565394,-0.254041 z"
             id="path9033"
             inkscape:connector-curvature="0" />
          <path
             style="fill:#000000;fill-opacity:1;fill-rule:evenodd;stroke:#000000;stroke-width:0.30000001;stroke-linecap:round;stroke-miterlimit:4;stroke-opacity:1;stroke-dasharray:none;stroke-dashoffset:0"
             d="m 12.32389,10.28428 c -0.07015,0.449345 -0.101481,0.929448 -0.183482,1.401483 0.01496,0.193167 -0.146013,0.502878 -0.11089,0.746302 -0.06817,0.208359 -0.01812,0.396631 -0.06925,0.596194 -0.258079,-0.0236 -0.67026,0.159922 -0.60214,-0.10397 0.0626,-0.206101 0.01478,-0.571718 0.14505,-0.791094 -0.04164,-0.293082 0.183902,-0.481233 0.126781,-0.837175 0.124733,-0.325264 0.05678,-0.662075 0.04801,-0.936396 0.0182,-0.05471 0.478998,-0.04783 0.645923,-0.07534 z"
             id="path9035"
             inkscape:connector-curvature="0" />
          <path
             style="fill:#000000;fill-opacity:1;fill-rule:evenodd;stroke:#000000;stroke-width:0.30000001;stroke-linecap:round;stroke-miterlimit:4;stroke-opacity:1;stroke-dasharray:none;stroke-dashoffset:0"
             d="m 13.277453,10.059257 c -0.204411,0.475907 -0.213146,0.785809 -0.26887,1.170773 0.01884,0.358764 0.05808,0.668398 -0.02293,0.942479 0.06497,0.0982 -0.636873,0.186025 -0.57544,0.01861 0.0032,-0.319199 0.0673,-0.711382 0.05215,-1.03132 0.198718,-0.34015 -0.101269,-1.055566 0.405543,-1.065276 0.136493,-0.01175 0.273154,-0.02355 0.409544,-0.03526 z"
             id="path9037"
             inkscape:connector-curvature="0" />
          <path
             style="fill:#000000;fill-opacity:1;fill-rule:evenodd;stroke:#000000;stroke-width:0.30000001;stroke-linecap:round;stroke-miterlimit:4;stroke-opacity:1;stroke-dasharray:none;stroke-dashoffset:0"
             d="m 13.993885,10.22289 c -0.06602,0.329752 0.0038,0.6545 -0.142951,0.948228 -0.03592,0.323765 -0.0388,0.395964 -0.02456,0.705592 -0.02903,0.230013 0.155526,0.553592 -0.146654,0.603097 -0.291653,0.07334 -0.495821,0.09124 -0.45766,-0.153462 0.01826,-0.261539 -0.02963,-0.481297 -3.8e-4,-0.708957 0.02215,-0.208395 0.01741,-0.57239 0.166945,-0.815281 0.0099,-0.152719 -0.182373,-0.625019 0.245537,-0.533766 0.1199,-0.01515 0.239854,-0.03029 0.359722,-0.04545 z"
             id="path9039"
             inkscape:connector-curvature="0" />
          <path
             style="fill:#000000;fill-opacity:1;fill-rule:evenodd;stroke:#000000;stroke-width:0.30000001;stroke-linecap:round;stroke-miterlimit:4;stroke-opacity:1;stroke-dasharray:none;stroke-dashoffset:0"
             d="m 12.738267,12.299356 c -0.163448,0.283389 0.07709,0.168235 0.08967,0.521075 0.05628,0.396258 -0.855972,0.7577 -0.298197,0.274997 -0.04601,-0.28068 0.06161,-0.572264 0.08932,-0.852303 -0.246275,-0.23972 0.571039,-0.258564 0.540494,-0.203422 0.171516,0.232699 -0.06347,0.473912 -0.107251,0.593525 -0.155104,0.366378 -1.295828,1.222061 -1.986425,0.98215 0.06798,-0.06345 1.118231,-0.75855 1.016521,-0.986993 -0.152985,-0.312334 0.256617,-0.225 0.506111,-0.303061 0.04992,-0.0086 0.09983,-0.01738 0.149753,-0.02597 z"
             id="path9041"
             inkscape:connector-curvature="0"
             sodipodi:nodetypes="cccccccccc" />
          <path
             style="fill:#000000;fill-opacity:1;fill-rule:evenodd;stroke:#000000;stroke-width:0.30000001;stroke-linecap:round;stroke-miterlimit:4;stroke-opacity:1;stroke-dasharray:none;stroke-dashoffset:0"
             d="m 12.849891,11.577476 c -0.09104,0.02514 -0.224219,0.597374 -0.54266,0.510839 -0.46652,0.132658 -0.271604,-0.382138 -0.0754,-0.507965 0.09863,-0.09088 0.433517,0.01275 0.618062,-0.0029 z"
             id="path9043"
             inkscape:connector-curvature="0" />
          <path
             style="fill:#000000;fill-opacity:1;fill-rule:evenodd;stroke:#000000;stroke-width:0.30000001;stroke-linecap:round;stroke-miterlimit:4;stroke-opacity:1;stroke-dasharray:none;stroke-dashoffset:0"
             d="m 20.622912,11.05636 c -0.105845,0.346018 0.06302,0.795554 0.07552,1.227517 -0.04488,0.273679 0.04569,0.501723 -0.327795,0.495875 -0.416016,0.118342 -0.3299,-0.205005 -0.273404,-0.428042 0.178826,-0.373982 -0.314962,-1.095034 0.01664,-1.210368 0.169661,-0.02833 0.339473,-0.05665 0.509039,-0.08498 z"
             id="path9045"
             inkscape:connector-curvature="0"
             sodipodi:nodetypes="cccccc" />
          <path
             style="fill:#000000;fill-opacity:1;fill-rule:evenodd;stroke:#000000;stroke-width:0.30000001;stroke-linecap:round;stroke-miterlimit:4;stroke-opacity:1;stroke-dasharray:none;stroke-dashoffset:0"
             d="m 21.199611,11.105415 c 0.02517,0.212351 -0.05934,0.716813 0.04892,1.045474 0.157594,0.322031 0.116769,0.550675 -0.320553,0.508002 -0.417872,0.157971 -0.123279,-0.427902 -0.223549,-0.680073 0.01461,-0.230196 -0.298918,-0.762904 0.03788,-0.793992 0.152409,-0.02647 0.305011,-0.05293 0.457299,-0.07941 z"
             id="path9047"
             inkscape:connector-curvature="0" />
          <path
             style="fill:#000000;fill-opacity:1;fill-rule:evenodd;stroke:#000000;stroke-width:0.30000001;stroke-linecap:round;stroke-miterlimit:4;stroke-opacity:1;stroke-dasharray:none;stroke-dashoffset:0"
             d="m 16.416229,11.679116 c -0.139545,0.167421 0.118709,0.549214 -0.0085,0.873506 0.09383,0.153868 0.03512,0.65309 -0.317855,0.588166 -0.510552,0.156718 -0.09744,-0.52998 -0.256294,-0.679053 0.09823,-0.321046 -0.318707,-1.091013 0.183129,-1.034469 0.122639,-0.0213 0.466346,0.115278 0.39951,0.251855 z"
             id="path9049"
             inkscape:connector-curvature="0"
             sodipodi:nodetypes="ccccccc" />
          <path
             style="fill:#000000;fill-opacity:1;fill-rule:evenodd;stroke:#000000;stroke-width:0.30000001;stroke-linecap:round;stroke-miterlimit:4;stroke-opacity:1;stroke-dasharray:none;stroke-dashoffset:0"
             d="m 17.533632,11.906057 c -0.03767,0.126424 0.192073,1.024537 0.09496,1.175732 -0.216847,-0.02182 -1.530566,0.396953 -1.394757,-0.311597 0.183291,-0.206578 0.125693,-0.698005 0.426975,-0.73382 0.16442,-0.02856 0.70844,-0.101732 0.872819,-0.130315 z"
             id="path9051"
             inkscape:connector-curvature="0"
             sodipodi:nodetypes="ccccc" />
          <path
             style="fill:#000000;fill-opacity:1;fill-rule:evenodd;stroke:#000000;stroke-width:0.30000001;stroke-linecap:round;stroke-miterlimit:4;stroke-opacity:1;stroke-dasharray:none;stroke-dashoffset:0"
             d="m 16.860448,12.220308 c 0.132007,-0.179224 0.615902,-0.311273 0.877127,-0.42309 0.619727,-0.125069 1.142671,-0.09615 1.703833,-0.06611 0.205147,0.03576 1.370431,-0.184351 0.840852,0.124648 -0.344326,0.302463 -0.665394,0.265105 -1.061069,0.34214 -0.392014,0.01478 -0.767561,-0.01999 -1.099791,-0.02471 -0.4001,0.08252 3.089614,-0.01861 0.271182,0.104985 -0.290657,0.04033 -0.791758,0.0467 -1.005642,0.0086 -0.175432,-0.02219 -0.351374,-0.04402 -0.526492,-0.06643 z"
             id="path9053"
             inkscape:connector-curvature="0"
             sodipodi:nodetypes="ccccccccc" />
          <path
             style="fill:#000000;fill-opacity:1;fill-rule:evenodd;stroke:#000000;stroke-width:0.30000001;stroke-linecap:round;stroke-miterlimit:4;stroke-opacity:1;stroke-dasharray:none;stroke-dashoffset:0"
             d="m 19.812384,11.842026 c 0.14375,0.348593 4.395801,1.136601 -0.131389,1.040171 -0.837511,0.645856 -0.400387,-0.95879 -0.112062,-0.986818 0.08115,-0.01778 0.162326,-0.03558 0.243451,-0.05335 z"
             id="path9057"
             inkscape:connector-curvature="0"
             sodipodi:nodetypes="cccc" />
          <path
             style="fill:#000000;fill-opacity:1;fill-rule:evenodd;stroke:#000000;stroke-width:0.30000001;stroke-linecap:round;stroke-miterlimit:4;stroke-opacity:1;stroke-dasharray:none;stroke-dashoffset:0"
             d="m 21.850398,11.533274 c -0.128724,0.209861 0.05625,0.666184 -0.104583,0.929314 -0.0836,0.245276 -0.85064,0.21817 -0.793942,-0.266564 0.08175,-0.190463 0.144992,-0.612957 0.493728,-0.471499 0.429887,0.0057 0.182727,0.106707 0.04667,0.323696 0.16894,0.332665 -0.576523,0.148607 -0.373096,0.19174 0.25789,-0.140801 -0.03412,-0.541241 0.133786,-0.659103 0.199142,-0.01587 0.398312,-0.03165 0.597438,-0.04758 z"
             id="path9059"
             inkscape:connector-curvature="0"
             sodipodi:nodetypes="cccccccc" />
          <path
             style="fill:#000000;fill-opacity:1;fill-rule:evenodd;stroke:#000000;stroke-width:0.30000001;stroke-linecap:round;stroke-miterlimit:4;stroke-opacity:1;stroke-dasharray:none;stroke-dashoffset:0"
             d="m 23.781744,12.951123 c 0.03452,0.233338 -0.05879,0.532749 -0.431584,0.46229 -0.498633,0.138224 -0.03248,-0.28499 -0.212277,-0.362197 0.199395,-0.06899 0.432412,-0.06079 0.643861,-0.100093 z"
             id="path9061"
             inkscape:connector-curvature="0" />
          <path
             style="fill:#000000;fill-opacity:1;fill-rule:evenodd;stroke:#000000;stroke-width:0.30000001;stroke-linecap:round;stroke-miterlimit:4;stroke-opacity:1;stroke-dasharray:none;stroke-dashoffset:0"
             d="m 23.779345,12.633224 c -0.02534,0.173394 -0.09325,0.498673 0.04571,0.55138 -0.3978,0.0668 -1.036299,0.273505 -0.623166,-0.201788 0.280327,-0.06337 0.615327,-0.137538 0.533775,0.120822 -0.296492,-0.01735 -0.799453,0.284029 -0.603721,-0.07753 -0.08805,-0.255206 0.07551,-0.384664 0.426045,-0.364951 0.07378,-0.0093 0.147577,-0.0187 0.221356,-0.02793 z"
             id="path9063"
             inkscape:connector-curvature="0" />
          <path
             style="fill:#000000;fill-opacity:1;fill-rule:evenodd;stroke:#000000;stroke-width:0.30000001;stroke-linecap:round;stroke-miterlimit:4;stroke-opacity:1;stroke-dasharray:none;stroke-dashoffset:0"
             d="m 23.61472,12.395305 c -0.09603,0.187856 0.253444,0.731609 0.288374,0.922689 0.02593,0.208466 0.468123,1.458357 0.08001,1.588048 -0.445468,0.327247 -0.500409,-1.32824 -0.611045,-1.537016 -0.155461,-0.330803 -0.115797,-0.614421 0.282051,-0.715963 0.0605,-0.03329 -0.09964,-0.224547 -0.03939,-0.257758 z"
             id="path9065"
             inkscape:connector-curvature="0"
             sodipodi:nodetypes="cccccc" />
          <path
             style="fill:#000000;fill-opacity:1;fill-rule:evenodd;stroke:#000000;stroke-width:0.30000001;stroke-linecap:round;stroke-miterlimit:4;stroke-opacity:1;stroke-dasharray:none;stroke-dashoffset:0"
             d="m 12.977868,8.2697043 c -0.224339,0.5295452 0.146776,2.9623377 -0.173175,3.3920187 -0.320822,0.626328 0.153962,-2.1756618 0.143081,-2.4494167 -0.06178,-0.3169932 -0.118536,-0.6699407 0.03009,-0.942602 z"
             id="path9077"
             inkscape:connector-curvature="0"
             sodipodi:nodetypes="cccc" />
          <path
             style="fill:#000000;fill-opacity:1;fill-rule:evenodd;stroke:#000000;stroke-width:0.30000001;stroke-linecap:round;stroke-miterlimit:4;stroke-opacity:1;stroke-dasharray:none;stroke-dashoffset:0"
             d="m 11.8821,8.2903392 c 0.189959,0.2868258 0.989258,0.029825 0.747885,0.4206229 0.118777,0.4432593 -0.493503,0.1445028 -0.712197,0.2224564 -0.215256,0.043984 -0.06917,-0.035052 -0.07873,-0.23643 0.0038,-0.030276 0.19714,-0.3448121 0.04304,-0.4066493 z"
             id="path9079"
             inkscape:connector-curvature="0"
             sodipodi:nodetypes="ccccc" />
          <path
             style="fill:#000000;fill-opacity:1;fill-rule:evenodd;stroke:#000000;stroke-width:0.30000001;stroke-linecap:round;stroke-miterlimit:4;stroke-opacity:1;stroke-dasharray:none;stroke-dashoffset:0"
             d="m 11.589864,14.090283 c 0.474681,0.118269 1.247369,0.02296 1.830316,0.01386 0.678339,-0.01834 1.096014,-0.188658 1.725867,-0.12503 0.476178,-0.07647 0.635759,0.04748 0.226778,0.342939 -0.170758,0.222699 -0.399853,0.37193 -0.613377,0.331075 -0.41904,-0.134429 -0.842257,0.04404 -1.287144,0.05049 -0.349561,-0.0619 -0.333891,0.125998 -0.45069,-2.08e-4 -0.626138,0.144854 -1.251846,-0.02763 -1.825169,0.08008 -0.522637,0.109453 0.02854,-0.250338 0.170288,-0.455588 0.07438,-0.07921 0.148758,-0.158406 0.223131,-0.237615 z"
             id="path9081"
             inkscape:connector-curvature="0" />
          <path
             style="fill:#000000;fill-opacity:1;fill-rule:evenodd;stroke:#000000;stroke-width:0.30000001;stroke-linecap:round;stroke-miterlimit:4;stroke-opacity:1;stroke-dasharray:none;stroke-dashoffset:0"
             d="m 12.91112,14.568432 c 0.408028,7.6e-5 0.86142,0.120877 1.311738,0.04679 0.514814,0.01742 0.941903,0.08183 1.356622,-0.01568 0.272587,-0.0038 2.749606,-0.422762 2.560728,-0.188844 -0.215578,0.201918 -1.79467,0.684561 -2.083306,0.753365 -0.549177,-0.02241 -1.29176,0.202278 -1.666152,0.07384 -0.611432,0.09009 -1.201316,-0.01581 -1.816485,-0.01078 -0.617163,0.131029 -0.03655,-0.271514 0.132214,-0.459949 0.06819,-0.06625 0.136554,-0.132455 0.204641,-0.198742 z"
             id="path9083"
             inkscape:connector-curvature="0"
             sodipodi:nodetypes="ccccccccc" />
          <path
             style="fill:#000000;fill-opacity:1;fill-rule:evenodd;stroke:#000000;stroke-width:0.30000001;stroke-linecap:round;stroke-miterlimit:4;stroke-opacity:1;stroke-dasharray:none;stroke-dashoffset:0"
             d="m 15.103877,12.069561 c 0.278688,-0.04814 2.519413,0.446758 2.088354,0.820425 0.02062,0.452263 -2.106271,0.519926 -2.074028,0.285887 0.184665,-0.210902 -0.19899,-0.895416 -0.01433,-1.106312 z"
             id="path9085"
             inkscape:connector-curvature="0"
             sodipodi:nodetypes="cccc" />
          <path
             style="fill:#000000;fill-opacity:1;fill-rule:evenodd;stroke:#000000;stroke-width:0.30000001;stroke-linecap:round;stroke-miterlimit:4;stroke-opacity:1;stroke-dasharray:none;stroke-dashoffset:0"
             d="m 19.005408,13.923686 c 0.433915,0.01772 0.769052,2e-5 1.366259,0.02106 0.498901,-0.150264 0.973518,0.08511 1.449022,0.0013 0.415741,0.137844 0.712006,0.132318 1.069814,0.13021 -0.260706,0.192864 -0.477493,0.463986 -0.767823,0.604064 -0.480272,-0.09661 -1.047266,0.03646 -1.566135,-0.04489 -0.427123,-0.03459 -1.078324,0.06025 -1.551932,0.09323 -0.351221,-0.1066 -1.050953,0.03179 -0.425016,-0.418303 0.141943,-0.128894 0.283838,-0.257886 0.425811,-0.386719 z"
             id="path9087"
             inkscape:connector-curvature="0"
             sodipodi:nodetypes="cccccccccc" />
          <path
             style="fill:#000000;fill-opacity:1;fill-rule:evenodd;stroke:#000000;stroke-width:0.30000001;stroke-linecap:round;stroke-miterlimit:4;stroke-opacity:1;stroke-dasharray:none;stroke-dashoffset:0"
             d="m 18.638867,15.650212 c 0.335682,0.0328 0.87878,0.147878 1.205824,0.06808 0.546832,0.06799 1.122908,0.0062 1.623727,0.116944 0.345625,0.01334 0.60427,0.0509 0.990731,0.108682 0.311681,0.04924 0.968335,0.02865 0.393218,0.329695 -0.248601,0.198095 -0.396747,0.357817 -0.686595,0.310873 -0.20353,-0.120824 -0.9015,-0.172814 -1.280947,-0.175524 -0.330762,-0.116489 -0.876547,-0.08346 -1.294853,-0.114306 -0.455279,0.03759 -0.83804,-0.08071 -1.372741,-0.026 -0.429863,0.0659 -0.207885,-0.124916 0.06519,-0.323665 0.118793,-0.09821 0.237764,-0.196834 0.356447,-0.294774 z"
             id="path9089"
             inkscape:connector-curvature="0" />
          <path
             style="fill:#000000;fill-opacity:1;fill-rule:evenodd;stroke:#000000;stroke-width:0.30000001;stroke-linecap:round;stroke-miterlimit:4;stroke-opacity:1;stroke-dasharray:none;stroke-dashoffset:0"
             d="m 19.29815,15.679442 c 0.286151,0.0074 0.665963,-0.159606 0.116579,0.03162 -0.801745,0.349238 0.272592,-0.268672 0.123063,0.0037 0.300658,-0.100752 0.601316,-0.201503 0.901974,-0.302255 -0.051,0.449128 -0.310345,0.36171 -0.677026,0.585147 -0.365759,0.194022 -0.962249,0.286211 -1.13854,0.23951 0.224593,-0.185891 0.449641,-0.371794 0.67395,-0.557676 z"
             id="path9091"
             inkscape:connector-curvature="0" />
          <path
             style="fill:#000000;fill-opacity:1;fill-rule:evenodd;stroke:#000000;stroke-width:0.30000001;stroke-linecap:round;stroke-miterlimit:4;stroke-opacity:1;stroke-dasharray:none;stroke-dashoffset:0"
             d="m 19.308033,15.292385 c 0.21559,-0.02204 0.861207,-0.07673 1.208392,-0.09427 0.601027,0.0091 0.05246,0.237939 -0.185875,0.437517 -0.26525,0.294052 -0.490105,0.04554 -0.846555,0.17925 -0.293641,-0.02485 -0.715017,0.153686 -0.81372,0.02697 -0.01955,-0.03579 0.376017,-0.317801 0.513539,-0.446757 0.0414,-0.03422 0.08283,-0.0686 0.124219,-0.102707 z"
             id="path9093"
             inkscape:connector-curvature="0" />
          <path
             style="fill:#000000;fill-opacity:1;fill-rule:evenodd;stroke:#000000;stroke-width:0.30000001;stroke-linecap:round;stroke-miterlimit:4;stroke-opacity:1;stroke-dasharray:none;stroke-dashoffset:0"
             d="m 17.918777,10.808972 c 0.333292,0.01075 -0.452211,0.121517 -0.153501,0.02233 0.167653,-0.09282 1.857228,-0.29457 1.470414,-0.002 -0.221024,0.163618 0.257448,0.761609 0.0055,0.878209 -0.167237,-0.114868 -0.937989,0.04138 -1.20393,-0.05266 -0.910902,0.587979 -0.961987,0.143141 -0.735833,-0.397158 -0.299409,-0.749463 0.474725,-0.33071 0.617315,-0.4487 z"
             id="path9095"
             inkscape:connector-curvature="0"
             sodipodi:nodetypes="cccccccc" />
        </g>
      </g>
    </g>
  </g>
</svg>
