<?xml version="1.0" encoding="UTF-8" standalone="no"?>
<!-- Created with Inkscape (http://www.inkscape.org/) -->

<svg
   xmlns:dc="http://purl.org/dc/elements/1.1/"
   xmlns:cc="http://creativecommons.org/ns#"
   xmlns:rdf="http://www.w3.org/1999/02/22-rdf-syntax-ns#"
   xmlns:svg="http://www.w3.org/2000/svg"
   xmlns="http://www.w3.org/2000/svg"
   xmlns:sodipodi="http://sodipodi.sourceforge.net/DTD/sodipodi-0.dtd"
   xmlns:inkscape="http://www.inkscape.org/namespaces/inkscape"
   width="32px"
   height="32px"
   id="svg5053"
   version="1.1"
   inkscape:version="0.48.2 r9819"
   sodipodi:docname="city2.svg">
  <defs
     id="defs5055" />
  <sodipodi:namedview
     id="base"
     pagecolor="#ffffff"
     bordercolor="#666666"
     borderopacity="1.0"
     inkscape:pageopacity="0.0"
     inkscape:pageshadow="2"
     inkscape:zoom="22.395604"
     inkscape:cx="13.721177"
     inkscape:cy="16.55214"
     inkscape:current-layer="layer1"
     showgrid="true"
     inkscape:grid-bbox="true"
     inkscape:document-units="px"
     inkscape:window-width="1600"
     inkscape:window-height="852"
     inkscape:window-x="0"
     inkscape:window-y="0"
     inkscape:window-maximized="1" />
  <metadata
     id="metadata5058">
    <rdf:RDF>
      <cc:Work
         rdf:about="">
        <dc:format>image/svg+xml</dc:format>
        <dc:type
           rdf:resource="http://purl.org/dc/dcmitype/StillImage" />
        <dc:title />
      </cc:Work>
    </rdf:RDF>
  </metadata>
  <g
     id="layer1"
     inkscape:label="Layer 1"
     inkscape:groupmode="layer">
    <g
       id="g10974">
      <g
         transform="matrix(0.9183124,0,0,1,0.48617488,0)"
         id="g9164">
        <path
           inkscape:connector-curvature="0"
           id="path8819"
           d="M 7.3169423,15.204117 C 7.1134556,15.703201 7.146795,16.403142 7.0710309,16.83855 6.4783004,17.242184 6.6049939,16.636266 6.679904,16.178909 6.8708647,15.874052 6.4933315,15.389728 6.9152993,15.348902 c 0.1338786,-0.04826 0.2677776,-0.09655 0.401643,-0.144785 z"
           style="fill:#000000;fill-opacity:1;fill-rule:evenodd;stroke:#000000;stroke-width:0.30000001;stroke-linecap:round;stroke-miterlimit:4;stroke-opacity:1;stroke-dasharray:none;stroke-dashoffset:0" />
        <path
           inkscape:connector-curvature="0"
           id="path8821"
           d="m 7.1325778,15.071893 c -0.1189119,0.438269 -0.1213738,0.860481 -0.118266,1.158363 5.742e-4,0.25845 0.1746846,0.662849 -0.246836,0.70325 -0.4092804,0.302276 -0.2410536,-0.25126 -0.2692252,-0.460243 0.012935,-0.36819 0.00213,-0.981871 0.094244,-1.212003 0.1800219,-0.06311 0.3600895,-0.12629 0.5400831,-0.189367 z"
           style="fill:#000000;fill-opacity:1;fill-rule:evenodd;stroke:#000000;stroke-width:0.30000001;stroke-linecap:round;stroke-miterlimit:4;stroke-opacity:1;stroke-dasharray:none;stroke-dashoffset:0" />
        <path
           inkscape:connector-curvature="0"
           id="path8823"
           d="m 8.0390972,15.593259 c 0.04861,0.261056 0.1463278,0.732072 -0.2918661,0.772788 -0.2296078,0.12647 -0.3756488,-0.620914 -0.015185,-0.620431 0.1023478,-0.05079 0.204719,-0.101561 0.3070512,-0.152357 z"
           style="fill:#000000;fill-opacity:1;fill-rule:evenodd;stroke:#000000;stroke-width:0.30000001;stroke-linecap:round;stroke-miterlimit:4;stroke-opacity:1;stroke-dasharray:none;stroke-dashoffset:0" />
        <path
           sodipodi:nodetypes="ccccc"
           inkscape:connector-curvature="0"
           id="path8825"
           d="m 7.7313906,15.796493 c -0.04074,0.268319 -0.083066,0.685419 -0.092925,1.005149 -0.2315327,0.144493 -0.6059214,0.32423 -0.5056866,-0.06238 0.1466234,-0.284941 -0.2066603,-0.997524 0.2332654,-1.065212 0.1217818,-0.0539 0.2435656,0.176344 0.3653462,0.122443 z"
           style="fill:#000000;fill-opacity:1;fill-rule:evenodd;stroke:#000000;stroke-width:0.30000001;stroke-linecap:round;stroke-miterlimit:4;stroke-opacity:1;stroke-dasharray:none;stroke-dashoffset:0" />
        <path
           inkscape:connector-curvature="0"
           id="path8827"
           d="m 8.9222205,16.008892 c -0.032729,0.286454 -0.065499,0.641701 -0.4815862,0.674812 -0.2099914,0.150495 -0.2493587,-0.55915 0.1055027,-0.545682 0.1253604,-0.04304 0.2507268,-0.0861 0.3760835,-0.12913 z"
           style="fill:#000000;fill-opacity:1;fill-rule:evenodd;stroke:#000000;stroke-width:0.30000001;stroke-linecap:round;stroke-miterlimit:4;stroke-opacity:1;stroke-dasharray:none;stroke-dashoffset:0" />
        <path
           inkscape:connector-curvature="0"
           id="path8829"
           d="m 8.3561403,16.360489 c -0.040386,0.272675 -0.1586013,0.481695 -0.5288514,0.51428 -0.2758862,0.108182 -0.1118352,-0.455267 0.1758298,-0.390495 0.1176703,-0.04126 0.2353686,-0.08254 0.3530216,-0.123785 z"
           style="fill:#000000;fill-opacity:1;fill-rule:evenodd;stroke:#000000;stroke-width:0.30000001;stroke-linecap:round;stroke-miterlimit:4;stroke-opacity:1;stroke-dasharray:none;stroke-dashoffset:0" />
        <path
           sodipodi:nodetypes="cccc"
           inkscape:connector-curvature="0"
           id="path8831"
           d="M 8.6761736,15.769356 C 8.778162,15.92486 8.8110787,16.33813 8.3907155,16.358067 7.9949917,16.684114 8.1242394,16.137493 8.0061781,15.990276 8.050532,15.721128 8.5322913,15.871555 8.6761736,15.769356 z"
           style="fill:#000000;fill-opacity:1;fill-rule:evenodd;stroke:#000000;stroke-width:0.30000001;stroke-linecap:round;stroke-miterlimit:4;stroke-opacity:1;stroke-dasharray:none;stroke-dashoffset:0" />
        <path
           sodipodi:nodetypes="ccccc"
           inkscape:connector-curvature="0"
           id="path8833"
           d="M 9.6458899,15.898138 C 9.491397,16.27895 9.2947014,16.499623 9.3105204,16.84487 9.3583024,17.044773 8.8483377,17.211364 8.7968696,17.150714 8.7535736,16.689712 8.6174047,16.311007 8.6226277,15.90724 8.8795106,15.546379 9.4521951,15.9748 9.6458899,15.89814 z"
           style="fill:#000000;fill-opacity:1;fill-rule:evenodd;stroke:#000000;stroke-width:0.30000001;stroke-linecap:round;stroke-miterlimit:4;stroke-opacity:1;stroke-dasharray:none;stroke-dashoffset:0" />
        <path
           inkscape:connector-curvature="0"
           id="path8835"
           d="m 10.425236,15.819367 c -0.180794,0.234382 -0.151599,0.648845 -0.29306,1.035355 -0.06282,0.07777 -0.6117907,0.377417 -0.5686148,0.126005 0.2106156,-0.25238 0.1146353,-0.817 0.292399,-0.961747 0.1897588,-0.06653 0.3795178,-0.133089 0.5692758,-0.199613 z"
           style="fill:#000000;fill-opacity:1;fill-rule:evenodd;stroke:#000000;stroke-width:0.30000001;stroke-linecap:round;stroke-miterlimit:4;stroke-opacity:1;stroke-dasharray:none;stroke-dashoffset:0" />
        <path
           sodipodi:nodetypes="ccccc"
           inkscape:connector-curvature="0"
           id="path8837"
           d="m 9.9427246,15.824021 c -0.1612222,0.22786 0.1254674,0.674688 -0.1202295,0.840487 -0.3966488,0.267997 -0.4806229,0.124027 -0.4389507,-0.33705 -0.227851,-0.402052 -0.011418,-0.435611 0.3572563,-0.585915 0.05678,-0.02512 0.1451537,0.107567 0.2019239,0.08248 z"
           style="fill:#000000;fill-opacity:1;fill-rule:evenodd;stroke:#000000;stroke-width:0.30000001;stroke-linecap:round;stroke-miterlimit:4;stroke-opacity:1;stroke-dasharray:none;stroke-dashoffset:0" />
        <path
           sodipodi:nodetypes="ccccc"
           inkscape:connector-curvature="0"
           id="path8839"
           d="m 11.472773,15.901553 c -0.956453,0.124021 -0.442135,0.801211 -0.585325,1.09684 -0.472633,0.285664 -0.431733,0.04275 -0.470317,-0.363419 0.102325,-0.375198 -0.178002,-0.638492 0.325846,-0.728718 0.07487,-0.03314 0.65495,0.02841 0.729796,-0.0047 z"
           style="fill:#000000;fill-opacity:1;fill-rule:evenodd;stroke:#000000;stroke-width:0.30000001;stroke-linecap:round;stroke-miterlimit:4;stroke-opacity:1;stroke-dasharray:none;stroke-dashoffset:0" />
        <path
           inkscape:connector-curvature="0"
           id="path8841"
           d="m 10.81739,16.403958 c -0.207986,0.184494 0.0046,0.709767 -0.274375,0.833777 -0.375907,0.136464 -0.395303,0.221513 -0.393101,-0.144512 -0.04428,-0.415224 0.10903,-0.571707 0.51761,-0.637822 0.04996,-0.01714 0.09991,-0.03432 0.149866,-0.05144 z"
           style="fill:#000000;fill-opacity:1;fill-rule:evenodd;stroke:#000000;stroke-width:0.30000001;stroke-linecap:round;stroke-miterlimit:4;stroke-opacity:1;stroke-dasharray:none;stroke-dashoffset:0" />
        <path
           sodipodi:nodetypes="ccccc"
           inkscape:connector-curvature="0"
           id="path8851"
           d="m 12.233528,15.856628 c -0.0082,0.387448 0.352697,0.457109 0.280455,0.915641 0.131936,0.234325 -0.552956,0.373635 -0.551091,0.305867 0.149291,-0.425614 -0.118494,-0.962183 -0.503358,-1.141026 -0.203265,-0.166546 0.4601,0.357315 0.773994,-0.08048 z"
           style="fill:#000000;fill-opacity:1;fill-rule:evenodd;stroke:#000000;stroke-width:0.30000001;stroke-linecap:round;stroke-miterlimit:4;stroke-opacity:1;stroke-dasharray:none;stroke-dashoffset:0" />
        <path
           sodipodi:nodetypes="ccccc"
           inkscape:connector-curvature="0"
           id="path8859"
           d="m 13.029204,15.814325 c 0.04757,0.391864 0.237447,0.930605 0.269496,1.318024 -0.17672,0.05762 -0.97307,0.318641 -0.735484,-0.04072 0.140521,-0.343367 -0.237502,-1.089391 -0.12719,-1.316312 0.166149,-0.09224 0.427032,0.13123 0.593178,0.03901 z"
           style="fill:#000000;fill-opacity:1;fill-rule:evenodd;stroke:#000000;stroke-width:0.30000001;stroke-linecap:round;stroke-miterlimit:4;stroke-opacity:1;stroke-dasharray:none;stroke-dashoffset:0" />
        <path
           sodipodi:nodetypes="cccc"
           inkscape:connector-curvature="0"
           id="path8861"
           d="m 13.908692,16.046864 c 0.09901,0.163338 -0.150752,0.601615 -0.572986,0.630044 -0.228007,0.218441 -0.433169,-0.424375 -0.09706,-0.433348 -0.102909,-0.255001 0.551935,-0.131147 0.670046,-0.196696 z"
           style="fill:#000000;fill-opacity:1;fill-rule:evenodd;stroke:#000000;stroke-width:0.30000001;stroke-linecap:round;stroke-miterlimit:4;stroke-opacity:1;stroke-dasharray:none;stroke-dashoffset:0" />
        <path
           inkscape:connector-curvature="0"
           id="path8863"
           d="m 13.403521,17.123503 c -0.02576,-0.327491 -0.04946,-0.724961 0.418294,-0.776247 0.03301,0.118003 0.369648,0.523696 0.01982,0.578864 -0.145994,0.06578 -0.292354,0.131652 -0.438118,0.197383 z"
           style="fill:#000000;fill-opacity:1;fill-rule:evenodd;stroke:#000000;stroke-width:0.30000001;stroke-linecap:round;stroke-miterlimit:4;stroke-opacity:1;stroke-dasharray:none;stroke-dashoffset:0" />
        <path
           sodipodi:nodetypes="cccc"
           inkscape:connector-curvature="0"
           id="path8865"
           d="m 14.163051,16.940668 c -0.02877,-0.338137 -0.420972,-0.79351 0.05328,-0.870093 1.258482,-0.179171 0.745902,0.724523 0.280248,0.722458 -0.111158,0.0492 -0.222441,0.09846 -0.333524,0.147635 z"
           style="fill:#000000;fill-opacity:1;fill-rule:evenodd;stroke:#000000;stroke-width:0.30000001;stroke-linecap:round;stroke-miterlimit:4;stroke-opacity:1;stroke-dasharray:none;stroke-dashoffset:0" />
        <path
           inkscape:connector-curvature="0"
           id="path8867"
           d="m 14.738831,16.841416 c 0.105463,-0.274865 -0.03921,-0.68278 0.415961,-0.721176 0.371719,-0.268017 0.133131,0.402834 0.138388,0.501732 -0.184784,0.07314 -0.369559,0.146371 -0.554349,0.219444 z"
           style="fill:#000000;fill-opacity:1;fill-rule:evenodd;stroke:#000000;stroke-width:0.30000001;stroke-linecap:round;stroke-miterlimit:4;stroke-opacity:1;stroke-dasharray:none;stroke-dashoffset:0" />
        <path
           inkscape:connector-curvature="0"
           id="path8869"
           d="m 15.4666,16.852148 c 0.123532,-0.184539 0.04199,-0.602511 0.01087,-0.933946 0.216564,-0.207008 0.666613,-0.386489 0.531303,0.105873 0.05207,0.368394 0.200389,0.674047 -0.292022,0.72902 -0.08336,0.03301 -0.166898,0.06606 -0.250149,0.09905 z"
           style="fill:#000000;fill-opacity:1;fill-rule:evenodd;stroke:#000000;stroke-width:0.30000001;stroke-linecap:round;stroke-miterlimit:4;stroke-opacity:1;stroke-dasharray:none;stroke-dashoffset:0" />
        <path
           inkscape:connector-curvature="0"
           id="path8871"
           d="m 16.380447,16.916688 c 0.172158,-0.316137 -0.290887,-0.88562 0.110746,-1.082471 0.537485,-0.401807 0.261491,0.383567 0.462027,0.645417 0.144664,0.174023 -0.232235,0.243222 -0.472639,0.388075 -0.03336,0.01632 -0.06684,0.03269 -0.100134,0.04898 z"
           style="fill:#000000;fill-opacity:1;fill-rule:evenodd;stroke:#000000;stroke-width:0.30000001;stroke-linecap:round;stroke-miterlimit:4;stroke-opacity:1;stroke-dasharray:none;stroke-dashoffset:0" />
        <path
           inkscape:connector-curvature="0"
           id="path8873"
           d="m 17.088103,16.711211 c -0.04497,-0.388144 -0.195104,-0.969885 -0.09152,-1.348369 0.558128,-0.335355 0.471806,0.05294 0.512791,0.559329 0.102844,0.448896 0.309105,0.556789 -0.193055,0.686235 -0.07607,0.03427 -0.152177,0.06855 -0.22822,0.102805 z"
           style="fill:#000000;fill-opacity:1;fill-rule:evenodd;stroke:#000000;stroke-width:0.30000001;stroke-linecap:round;stroke-miterlimit:4;stroke-opacity:1;stroke-dasharray:none;stroke-dashoffset:0" />
        <path
           inkscape:connector-curvature="0"
           id="path8875"
           d="m 18.249365,16.209971 c 0.07399,0.313703 0.568495,0.350196 0.130994,0.387646 -0.403378,0.639138 -0.345892,-0.476182 -0.239028,-0.572775 0.498598,-0.289571 0.392453,-0.03556 0.486593,0.383597 0.114601,0.550537 -0.677379,0.718001 -0.823259,0.233159 -0.193452,-0.101732 0.220018,-0.240104 0.355237,-0.370888 0.02983,-0.02022 0.05962,-0.04061 0.08946,-0.06074 z"
           style="fill:#000000;fill-opacity:1;fill-rule:evenodd;stroke:#000000;stroke-width:0.30000001;stroke-linecap:round;stroke-miterlimit:4;stroke-opacity:1;stroke-dasharray:none;stroke-dashoffset:0" />
        <path
           sodipodi:nodetypes="cccc"
           inkscape:connector-curvature="0"
           id="path8877"
           d="m 18.229935,15.667996 c -0.04225,0.285973 -0.04067,0.576065 -0.508463,0.591205 -0.211693,0.152757 -0.224729,-0.647374 0.136108,-0.614166 0.113596,-0.04496 0.258754,0.0679 0.372355,0.02296 z"
           style="fill:#000000;fill-opacity:1;fill-rule:evenodd;stroke:#000000;stroke-width:0.30000001;stroke-linecap:round;stroke-miterlimit:4;stroke-opacity:1;stroke-dasharray:none;stroke-dashoffset:0" />
        <path
           inkscape:connector-curvature="0"
           id="path8879"
           d="m 19.246781,15.522192 c -0.06144,0.375398 0.218698,0.871069 0.216508,1.226133 -0.02015,0.08519 -0.651376,0.387617 -0.554033,0.155758 0.0064,-0.42271 -0.247425,-0.814568 -0.175971,-1.136594 0.171112,-0.08175 0.342647,-0.163603 0.513496,-0.245297 z"
           style="fill:#000000;fill-opacity:1;fill-rule:evenodd;stroke:#000000;stroke-width:0.30000001;stroke-linecap:round;stroke-miterlimit:4;stroke-opacity:1;stroke-dasharray:none;stroke-dashoffset:0" />
        <path
           inkscape:connector-curvature="0"
           id="path8881"
           d="m 20.373898,15.634641 c -0.251812,0.200096 -0.203626,0.693544 -0.04653,0.91048 -0.293325,0.126615 -0.536174,0.432822 -0.647758,0.03102 0.01848,-0.227532 -0.153627,-0.734099 0.177826,-0.82296 0.172153,-0.0395 0.344302,-0.07909 0.516458,-0.118542 z"
           style="fill:#000000;fill-opacity:1;fill-rule:evenodd;stroke:#000000;stroke-width:0.30000001;stroke-linecap:round;stroke-miterlimit:4;stroke-opacity:1;stroke-dasharray:none;stroke-dashoffset:0" />
        <path
           inkscape:connector-curvature="0"
           id="path8883"
           d="m 20.757475,15.56373 c 0.01636,0.359184 0.365779,0.868915 -0.196225,0.952644 -0.252899,0.213533 -0.386486,-0.641428 -0.243373,-0.719579 0.146533,-0.07768 0.293064,-0.155416 0.439598,-0.233065 z"
           style="fill:#000000;fill-opacity:1;fill-rule:evenodd;stroke:#000000;stroke-width:0.30000001;stroke-linecap:round;stroke-miterlimit:4;stroke-opacity:1;stroke-dasharray:none;stroke-dashoffset:0" />
        <path
           sodipodi:nodetypes="ccccc"
           inkscape:connector-curvature="0"
           id="path8885"
           d="m 21.981471,15.726891 c -0.277986,0.272711 0.02941,0.657214 -0.281101,0.876206 -0.490896,0.365157 -0.356901,-0.176355 -0.456249,-0.473487 -0.154473,-0.410975 -0.89365,-0.590469 0.544068,-0.563864 0.03271,-0.0094 0.16083,0.170531 0.193282,0.161145 z"
           style="fill:#000000;fill-opacity:1;fill-rule:evenodd;stroke:#000000;stroke-width:0.30000001;stroke-linecap:round;stroke-miterlimit:4;stroke-opacity:1;stroke-dasharray:none;stroke-dashoffset:0" />
        <path
           inkscape:connector-curvature="0"
           id="path8887"
           d="m 22.542972,15.400275 c -0.01549,0.369598 0.113814,0.778721 0.2045,1.078486 0.249934,0.382005 -0.08745,0.464517 -0.41295,0.581997 -0.150987,-0.07106 -0.116404,-0.692515 -0.228162,-0.862585 0.06846,-0.302599 -0.419565,-0.53262 0.04809,-0.625892 0.129499,-0.05734 0.25906,-0.114635 0.38852,-0.172006 z"
           style="fill:#000000;fill-opacity:1;fill-rule:evenodd;stroke:#000000;stroke-width:0.30000001;stroke-linecap:round;stroke-miterlimit:4;stroke-opacity:1;stroke-dasharray:none;stroke-dashoffset:0" />
        <path
           inkscape:connector-curvature="0"
           id="path8889"
           d="m 23.22627,15.613398 c -0.04036,0.305622 0.10892,0.630094 -0.355716,0.709125 -0.239605,-0.006 -0.398966,-0.558217 0.03055,-0.562652 0.10837,-0.04882 0.216871,-0.09769 0.325162,-0.146473 z"
           style="fill:#000000;fill-opacity:1;fill-rule:evenodd;stroke:#000000;stroke-width:0.30000001;stroke-linecap:round;stroke-miterlimit:4;stroke-opacity:1;stroke-dasharray:none;stroke-dashoffset:0" />
        <path
           inkscape:connector-curvature="0"
           id="path8891"
           d="m 23.529308,16.126699 c 0.03147,0.320043 -0.274692,0.368572 -0.555535,0.478336 -0.06038,-0.161244 -0.10786,-0.280981 0.238675,-0.352866 0.105609,-0.04182 0.211312,-0.08364 0.31686,-0.12547 z"
           style="fill:#000000;fill-opacity:1;fill-rule:evenodd;stroke:#000000;stroke-width:0.30000001;stroke-linecap:round;stroke-miterlimit:4;stroke-opacity:1;stroke-dasharray:none;stroke-dashoffset:0" />
        <path
           sodipodi:nodetypes="ccccc"
           inkscape:connector-curvature="0"
           id="path8893"
           d="m 24.150046,15.460324 c -0.243421,0.325576 0.145139,0.946074 -0.2247,1.138796 -0.486887,0.369423 -0.317541,-0.2635 -0.381295,-0.535336 -0.110454,-0.398487 -0.278328,-0.48184 0.04631,-0.600947 0.02844,-0.01126 0.531382,0.0087 0.55969,-0.0025 z"
           style="fill:#000000;fill-opacity:1;fill-rule:evenodd;stroke:#000000;stroke-width:0.30000001;stroke-linecap:round;stroke-miterlimit:4;stroke-opacity:1;stroke-dasharray:none;stroke-dashoffset:0" />
        <path
           inkscape:connector-curvature="0"
           id="path8895"
           d="m 24.837432,15.437301 c -0.257573,0.357459 0.242595,1.140324 -0.337452,1.248701 -0.302333,0.102098 -0.221989,-0.822184 -0.239785,-0.993211 0.19241,-0.08516 0.384838,-0.170378 0.577237,-0.25549 z"
           style="fill:#000000;fill-opacity:1;fill-rule:evenodd;stroke:#000000;stroke-width:0.30000001;stroke-linecap:round;stroke-miterlimit:4;stroke-opacity:1;stroke-dasharray:none;stroke-dashoffset:0" />
        <path
           inkscape:connector-curvature="0"
           id="path8897"
           d="m 25.298863,14.638969 c 0.05073,0.3704 0.146141,0.961766 0.14643,1.287814 0.09233,0.287215 -0.03065,0.572391 0.02932,0.852187 0.03229,0.225961 -0.412097,0.214201 -0.58797,0.342802 0.03537,-0.292627 0.04714,-0.559915 0.02114,-0.845852 0.0832,-0.456902 -0.04735,-0.968962 -0.18903,-1.359821 0.19322,-0.09232 0.387677,-0.185092 0.580114,-0.27713 z"
           style="fill:#000000;fill-opacity:1;fill-rule:evenodd;stroke:#000000;stroke-width:0.30000001;stroke-linecap:round;stroke-miterlimit:4;stroke-opacity:1;stroke-dasharray:none;stroke-dashoffset:0" />
        <path
           inkscape:connector-curvature="0"
           id="path8899"
           d="m 17.62635,16.444228 c 0.330008,0.124857 1.116933,0.128205 1.638637,0.109394 0.547638,0.0017 1.181694,-0.09821 1.656461,-0.127596 -0.02455,0.119288 -0.335786,0.519492 -0.596113,0.440519 -0.573646,0.009 -1.244763,-3e-6 -1.848366,0.0019 -0.316431,-0.120084 -1.707253,0.283147 -1.082261,-0.190942 0.0772,-0.07771 0.15452,-0.155661 0.231642,-0.233234 z"
           style="fill:#000000;fill-opacity:1;fill-rule:evenodd;stroke:#000000;stroke-width:0.30000001;stroke-linecap:round;stroke-miterlimit:4;stroke-opacity:1;stroke-dasharray:none;stroke-dashoffset:0" />
        <path
           inkscape:connector-curvature="0"
           id="path8901"
           d="m 22.031057,16.306228 c 0.422466,0.166818 1.330914,-0.02608 1.543224,-0.0026 -0.224882,0.465985 -0.765477,0.383704 -1.182136,0.391538 -0.290347,-0.03232 -1.147865,0.290118 -0.596904,-0.137757 0.0786,-0.08371 0.157228,-0.167412 0.235816,-0.251133 z"
           style="fill:#000000;fill-opacity:1;fill-rule:evenodd;stroke:#000000;stroke-width:0.30000001;stroke-linecap:round;stroke-miterlimit:4;stroke-opacity:1;stroke-dasharray:none;stroke-dashoffset:0" />
        <path
           inkscape:connector-curvature="0"
           id="path8903"
           d="m 21.87543,16.408517 c 0.591331,0.21246 1.282208,0.157544 1.92541,0.110495 0.244143,0.134452 0.88605,-0.21737 0.766927,-0.06236 -0.142372,0.193813 -0.328546,0.555471 -0.556061,0.459037 -0.452746,0.01432 -0.93285,-0.03593 -1.410914,-0.02997 -0.242163,-0.127479 -1.481359,0.182494 -1.029098,-0.190974 0.101214,-0.09541 0.202673,-0.190823 0.303736,-0.28623 z"
           style="fill:#000000;fill-opacity:1;fill-rule:evenodd;stroke:#000000;stroke-width:0.30000001;stroke-linecap:round;stroke-miterlimit:4;stroke-opacity:1;stroke-dasharray:none;stroke-dashoffset:0" />
        <path
           inkscape:connector-curvature="0"
           id="path8905"
           d="m 20.069082,16.115064 c 0.261,0.163802 1.149812,0.16626 1.430477,0.265796 -0.205779,0.355136 -0.590643,0.280126 -0.922755,0.21788 -0.330337,-0.05101 -1.337786,0.09906 -0.691594,-0.310527 0.06127,-0.05768 0.122698,-0.115684 0.183872,-0.173149 z"
           style="fill:#000000;fill-opacity:1;fill-rule:evenodd;stroke:#000000;stroke-width:0.30000001;stroke-linecap:round;stroke-miterlimit:4;stroke-opacity:1;stroke-dasharray:none;stroke-dashoffset:0" />
        <path
           inkscape:connector-curvature="0"
           id="path8907"
           d="m 20.967075,15.853329 c -0.01587,0.123862 0.851783,-0.08542 0.547174,0.173307 -0.216758,0.414063 -0.573184,0.185051 -0.917075,0.337859 -0.229192,0.01071 0.259039,-0.342977 0.369933,-0.511109 l -3.2e-5,-5.7e-5 z"
           style="fill:#000000;fill-opacity:1;fill-rule:evenodd;stroke:#000000;stroke-width:0.30000001;stroke-linecap:round;stroke-miterlimit:4;stroke-opacity:1;stroke-dasharray:none;stroke-dashoffset:0" />
        <path
           inkscape:connector-curvature="0"
           id="path8909"
           d="m 13.935269,16.665545 c 0.798208,0.04858 1.614151,0.130324 2.405959,0.205724 0.540569,-0.0032 1.020474,0.06859 1.543247,-0.0666 0.416186,-0.132868 1.054044,-0.30875 0.491873,0.183447 -0.387591,0.136191 -0.838324,0.257886 -1.276332,0.343417 -0.477143,-0.04227 -1.073746,-0.167635 -1.634047,-0.222612 -0.741256,-0.09597 -1.027916,-0.103264 -1.753582,-0.01628 -0.486588,0.235237 0.161435,-0.303018 0.222882,-0.4271 z"
           style="fill:#000000;fill-opacity:1;fill-rule:evenodd;stroke:#000000;stroke-width:0.30000001;stroke-linecap:round;stroke-miterlimit:4;stroke-opacity:1;stroke-dasharray:none;stroke-dashoffset:0" />
        <path
           sodipodi:nodetypes="ccccc"
           inkscape:connector-curvature="0"
           id="path8911"
           d="m 15.421696,15.926897 c 0.580941,0.20818 1.306388,0.141656 1.7632,0.189125 -0.270715,0.484546 -0.615653,0.677882 -1.066673,0.693382 -0.336423,-0.07043 -1.51786,-0.271979 -0.872363,-0.711769 0.0586,-0.05692 0.117284,-0.113803 0.175836,-0.170738 z"
           style="fill:#000000;fill-opacity:1;fill-rule:evenodd;stroke:#000000;stroke-width:0.30000001;stroke-linecap:round;stroke-miterlimit:4;stroke-opacity:1;stroke-dasharray:none;stroke-dashoffset:0" />
        <path
           sodipodi:nodetypes="cccccccccc"
           inkscape:connector-curvature="0"
           id="path8913"
           d="m 7.1152221,16.530051 c 0.6328854,0.150408 1.3603249,0.08378 2.0041023,0.22818 0.2390287,0.08116 1.5147886,0.0944 1.3702826,0.244501 -0.170562,0.268728 -1.1263576,0.367503 -1.3246164,0.187146 -0.6860979,-0.107759 -1.4326576,-0.334963 -2.1531107,-0.201193 -0.614902,0.139449 -0.1289498,-0.16791 0.068728,-0.421819 l 0.029512,-0.03143 0.0051,-0.0054 3.7e-6,4.2e-5 z"
           style="fill:#000000;fill-opacity:1;fill-rule:evenodd;stroke:#000000;stroke-width:0.30000001;stroke-linecap:round;stroke-miterlimit:4;stroke-opacity:1;stroke-dasharray:none;stroke-dashoffset:0" />
        <path
           inkscape:connector-curvature="0"
           id="path8963"
           d="m 8.9854442,13.351109 c -0.134462,0.26121 -0.079256,0.561486 -0.1163005,0.832679 -0.025708,0.360229 -0.058492,0.604071 -0.048675,0.913779 -8.091e-4,0.169715 -0.3983546,0.105224 -0.6365517,0.162754 -0.00695,-0.303298 0.092208,-0.571497 0.09694,-0.950023 0.1655733,-0.305838 -0.1642178,-0.936486 0.3161169,-0.910083 0.1294742,-0.01638 0.2590805,-0.03268 0.3884702,-0.04911 z"
           style="fill:#000000;fill-opacity:1;fill-rule:evenodd;stroke:#000000;stroke-width:0.30000001;stroke-linecap:round;stroke-miterlimit:4;stroke-opacity:1;stroke-dasharray:none;stroke-dashoffset:0" />
        <path
           inkscape:connector-curvature="0"
           id="path8965"
           d="m 9.5930343,13.195795 c -0.1442586,0.507116 -0.0134,1.055967 -0.040775,1.51752 -0.029636,0.268481 -0.014675,0.611839 -0.3847026,0.503631 -0.3832778,0.08593 -0.3322756,-0.09726 -0.2282353,-0.306919 0.1755306,-0.448023 0.012395,-1.028894 0.030216,-1.477218 -0.1705109,-0.201297 0.3691034,-0.154346 0.5668167,-0.227175 l 0.042476,-0.0074 0.014194,-0.0025 9.9e-6,0 z"
           style="fill:#000000;fill-opacity:1;fill-rule:evenodd;stroke:#000000;stroke-width:0.30000001;stroke-linecap:round;stroke-miterlimit:4;stroke-opacity:1;stroke-dasharray:none;stroke-dashoffset:0" />
        <path
           inkscape:connector-curvature="0"
           id="path8967"
           d="m 22.948633,12.293789 c -0.05954,0.294711 -0.01935,0.731966 -0.02325,1.107219 -0.02748,0.354864 -0.358347,0.562294 -0.30952,0.845325 -0.260331,-0.01567 -0.78433,0.218335 -0.55355,-0.177889 0.133063,-0.325183 0.373384,-0.62147 0.264784,-1.035497 0.02858,-0.158389 -0.02237,-0.586788 0.0123,-0.690665 0.203079,-0.01617 0.406158,-0.03233 0.609236,-0.04849 z"
           style="fill:#000000;fill-opacity:1;fill-rule:evenodd;stroke:#000000;stroke-width:0.30000001;stroke-linecap:round;stroke-miterlimit:4;stroke-opacity:1;stroke-dasharray:none;stroke-dashoffset:0" />
        <path
           sodipodi:nodetypes="ccccccc"
           inkscape:connector-curvature="0"
           id="path8969"
           d="m 23.23648,12.101621 c -0.132153,0.488958 -0.22417,1.130322 -0.06581,1.580168 -0.09474,0.272681 0.766949,0.809891 0.423615,0.831773 -0.287986,0.06771 -1.237597,0.280491 -1.018405,-0.330138 0.07462,-0.361507 -0.0315,-0.962256 0.04991,-1.387304 -0.01735,-0.36597 -0.182538,-0.734727 0.331166,-0.659237 0.09317,-0.01173 0.186347,-0.02361 0.279524,-0.03526 z"
           style="fill:#000000;fill-opacity:1;fill-rule:evenodd;stroke:#000000;stroke-width:0.30000001;stroke-linecap:round;stroke-miterlimit:4;stroke-opacity:1;stroke-dasharray:none;stroke-dashoffset:0" />
        <path
           inkscape:connector-curvature="0"
           id="path8971"
           d="m 21.926588,13.171484 c -0.09556,0.372268 0.167359,0.75692 -0.0058,1.08567 0.006,0.0098 -0.78847,0.16559 -0.526442,-0.05867 -0.0249,-0.194371 1.05e-4,-0.620441 -0.118631,-0.844445 0.04215,-0.06414 0.458116,-0.121095 0.650796,-0.182542 l 6.7e-5,-1.1e-5 z"
           style="fill:#000000;fill-opacity:1;fill-rule:evenodd;stroke:#000000;stroke-width:0.30000001;stroke-linecap:round;stroke-miterlimit:4;stroke-opacity:1;stroke-dasharray:none;stroke-dashoffset:0" />
        <path
           sodipodi:nodetypes="cccc"
           inkscape:connector-curvature="0"
           id="path8973"
           d="m 22.807889,12.579447 c -0.03102,0.256781 -0.281834,1.409932 -0.727378,1.414699 -0.342581,0.230628 -0.399213,-0.18223 -0.423933,-0.362941 0.164567,-0.07348 0.946131,-1.011054 1.151311,-1.051758 z"
           style="fill:#000000;fill-opacity:1;fill-rule:evenodd;stroke:#000000;stroke-width:0.30000001;stroke-linecap:round;stroke-miterlimit:4;stroke-opacity:1;stroke-dasharray:none;stroke-dashoffset:0" />
        <path
           inkscape:connector-curvature="0"
           id="path8975"
           d="m 18.679877,13.530233 c 0.715025,-0.199053 1.471756,-0.09952 2.201441,-0.197442 -0.307348,0.276887 -0.655852,0.365964 -1.063045,0.306929 -0.344573,0.03915 -1.320878,0.124571 -0.422506,0.02368 -0.21782,0.01459 -0.48119,-0.09519 -0.71589,-0.133172 z"
           style="fill:#000000;fill-opacity:1;fill-rule:evenodd;stroke:#000000;stroke-width:0.30000001;stroke-linecap:round;stroke-miterlimit:4;stroke-opacity:1;stroke-dasharray:none;stroke-dashoffset:0" />
        <path
           inkscape:connector-curvature="0"
           id="path8977"
           d="m 20.640365,13.27904 c 0.334355,-0.08332 0.580278,0.261802 0.488794,0.602662 0.07206,0.362011 -0.270643,0.308241 -0.563918,0.297903 -0.304301,0.08476 0.136115,-0.340144 -0.06381,-0.495387 -0.0142,-0.168596 -0.620705,0.08153 -0.227495,-0.148333 0.122118,-0.08553 0.24442,-0.171735 0.366427,-0.256845 z"
           style="fill:#000000;fill-opacity:1;fill-rule:evenodd;stroke:#000000;stroke-width:0.30000001;stroke-linecap:round;stroke-miterlimit:4;stroke-opacity:1;stroke-dasharray:none;stroke-dashoffset:0" />
        <path
           inkscape:connector-curvature="0"
           id="path8979"
           d="m 20.305878,13.548063 c 0.148457,0.280407 -0.135923,0.477978 -0.479439,0.419913 -0.257983,-0.05302 -0.121813,-0.423489 0.170508,-0.352207 0.102977,-0.02257 0.205954,-0.04514 0.308931,-0.06771 z"
           style="fill:#000000;fill-opacity:1;fill-rule:evenodd;stroke:#000000;stroke-width:0.30000001;stroke-linecap:round;stroke-miterlimit:4;stroke-opacity:1;stroke-dasharray:none;stroke-dashoffset:0" />
        <path
           inkscape:connector-curvature="0"
           id="path8981"
           d="m 19.54835,13.978123 c -0.136291,0.09358 -0.529167,0.08286 -0.719724,0.0035 0.09708,-0.04303 0.486072,10e-4 0.719724,-0.0035 z"
           style="fill:#000000;fill-opacity:1;fill-rule:evenodd;stroke:#000000;stroke-width:0.30000001;stroke-linecap:round;stroke-miterlimit:4;stroke-opacity:1;stroke-dasharray:none;stroke-dashoffset:0" />
        <path
           sodipodi:nodetypes="ccccc"
           inkscape:connector-curvature="0"
           id="path8983"
           d="m 18.813675,12.691227 c -0.0909,0.549597 -0.02533,1.110546 0.01194,1.64776 -0.14403,-0.0068 -0.93115,0.216246 -0.880321,-0.0092 0.02907,-0.427043 0.14358,-0.9964 0.103763,-1.452207 -0.0486,-0.275426 0.572803,-0.101241 0.764618,-0.186396 z"
           style="fill:#000000;fill-opacity:1;fill-rule:evenodd;stroke:#000000;stroke-width:0.30000001;stroke-linecap:round;stroke-miterlimit:4;stroke-opacity:1;stroke-dasharray:none;stroke-dashoffset:0" />
        <path
           inkscape:connector-curvature="0"
           id="path8985"
           d="m 17.679798,13.559924 c 0.07464,0.285376 -0.394837,0.178297 -0.596441,0.258285 -0.127171,-0.221473 0.287081,-0.180752 0.517665,-0.244596 l 0.04248,-0.0074 0.03631,-0.0063 -9e-6,-1.1e-5 z"
           style="fill:#000000;fill-opacity:1;fill-rule:evenodd;stroke:#000000;stroke-width:0.30000001;stroke-linecap:round;stroke-miterlimit:4;stroke-opacity:1;stroke-dasharray:none;stroke-dashoffset:0" />
        <path
           inkscape:connector-curvature="0"
           id="path8987"
           d="m 18.351324,13.838274 c -0.174229,0.238356 -0.291698,0.35072 -0.682974,0.281151 -0.293382,-0.0942 0.107825,-0.414866 0.375196,-0.282437 0.102574,4.3e-4 0.205294,8.52e-4 0.307778,0.0013 z"
           style="fill:#000000;fill-opacity:1;fill-rule:evenodd;stroke:#000000;stroke-width:0.30000001;stroke-linecap:round;stroke-miterlimit:4;stroke-opacity:1;stroke-dasharray:none;stroke-dashoffset:0" />
        <path
           inkscape:connector-curvature="0"
           id="path8989"
           d="m 18.088062,13.677475 c -0.107109,0.246643 0.05136,0.691387 -0.359378,0.616134 -0.495006,0.172205 -0.224789,-0.294179 -0.28801,-0.478833 0.03185,-0.185213 0.463241,-0.07801 0.647388,-0.137301 z"
           style="fill:#000000;fill-opacity:1;fill-rule:evenodd;stroke:#000000;stroke-width:0.30000001;stroke-linecap:round;stroke-miterlimit:4;stroke-opacity:1;stroke-dasharray:none;stroke-dashoffset:0" />
        <path
           inkscape:connector-curvature="0"
           id="path8991"
           d="m 17.293498,14.055013 c -0.347881,-0.06564 -0.780997,-0.03249 -1.176045,-0.02557 -0.489087,0.178729 -1.014074,0.08335 -1.481771,0.0932 -0.440637,0.01303 -0.510453,-0.05173 -0.08942,-0.249965 0.354957,-0.173182 0.751075,-0.0058 1.136073,-0.03301 0.668327,-0.02787 1.255076,-0.124298 1.984514,-0.130479 0.439751,-0.08564 -0.177933,0.190329 -0.308176,0.304336 0.0087,0.02872 -0.06775,0.01577 -0.06517,0.04148 z"
           style="fill:#000000;fill-opacity:1;fill-rule:evenodd;stroke:#000000;stroke-width:0.30000001;stroke-linecap:round;stroke-miterlimit:4;stroke-opacity:1;stroke-dasharray:none;stroke-dashoffset:0" />
        <path
           sodipodi:nodetypes="ccccccccccccccc"
           inkscape:connector-curvature="0"
           id="path8993"
           d="m 14.313345,14.004561 c 0.596059,0.03081 1.306769,-0.01642 1.935495,-0.08063 0.648939,-0.101002 1.295602,-0.08109 1.938106,0.01237 0.225351,0.562784 0.304473,0.500346 -0.07425,0.676038 -0.567564,0.119595 -1.938373,-0.0681 -2.521203,-0.128391 -0.242142,-0.0705 -1.019544,0.05026 -0.899913,-0.130523 0.297953,-0.266121 0.601818,-0.28295 0.945791,-0.187193 0.493026,0.03205 1.037547,0.07154 1.584533,0.04365 0.371325,-0.172501 0.454231,0.262231 0.0063,0.05678 -0.370338,-0.165276 0.806387,-0.103127 0.290329,-0.06528 -0.489935,-0.06947 -0.986885,-0.05829 -1.507759,0.0032 -0.590739,0.0088 -1.327938,0.0629 -1.652299,0.08087 -0.62169,0.126707 -0.640248,0.04796 -0.130294,-0.226844 0.02838,-0.01805 0.05684,-0.03601 0.0852,-0.05409 z"
           style="fill:#000000;fill-opacity:1;fill-rule:evenodd;stroke:#000000;stroke-width:0.30000001;stroke-linecap:round;stroke-miterlimit:4;stroke-opacity:1;stroke-dasharray:none;stroke-dashoffset:0" />
        <path
           sodipodi:nodetypes="ccccccc"
           inkscape:connector-curvature="0"
           id="path8995"
           d="m 14.130146,13.018645 c -0.119027,0.127172 0.289485,0.545719 -0.148628,0.710915 0.246299,0.396224 -0.38375,0.54658 -0.593004,0.395677 -0.0046,-0.347269 -0.109404,-0.780118 -0.044,-1.071264 -0.02359,-0.201617 0.581634,0.02069 0.767853,-0.03446 l -0.203204,-8.51e-4 z"
           style="fill:#000000;fill-opacity:1;fill-rule:evenodd;stroke:#000000;stroke-width:0.30000001;stroke-linecap:round;stroke-miterlimit:4;stroke-opacity:1;stroke-dasharray:none;stroke-dashoffset:0" />
        <path
           inkscape:connector-curvature="0"
           id="path8997"
           d="m 13.61903,13.401024 c 0.208665,0.187593 -0.540856,0.289719 -0.588781,0.141076 -0.02647,-0.140451 0.436128,-0.08558 0.588781,-0.141076 z"
           style="fill:#000000;fill-opacity:1;fill-rule:evenodd;stroke:#000000;stroke-width:0.30000001;stroke-linecap:round;stroke-miterlimit:4;stroke-opacity:1;stroke-dasharray:none;stroke-dashoffset:0" />
        <path
           sodipodi:nodetypes="cccccccccccc"
           inkscape:connector-curvature="0"
           id="path9027"
           d="m 10.198318,14.230092 c -0.128611,0.259955 0.508549,0.989355 0.077,0.868016 -0.7232891,0.189783 0.339824,-0.62816 0.538474,-0.729558 0.560319,-0.113678 1.203501,-0.367298 1.881393,-0.42712 -0.254194,0.08266 -0.720987,0.135714 -0.12154,0.02521 0.362111,-0.06038 1.211578,-0.193741 0.515926,0.151738 -0.241368,0.07417 -1.202916,0.22579 -0.489636,0.125975 0.894767,-0.18249 -0.953445,0.123866 -0.06768,-0.01407 0.327744,-0.07489 -0.675085,0.152383 -0.874886,0.168617 2.897286,0.83815 -0.676971,0.738198 -1.8101827,0.610294 -0.3698755,-0.01206 -0.1926698,-0.440201 -0.2918055,-0.635638 -0.1363147,-0.05864 0.5148402,-0.09969 0.6429412,-0.143464 z"
           style="fill:#000000;fill-opacity:1;fill-rule:evenodd;stroke:#000000;stroke-width:0.30000001;stroke-linecap:round;stroke-miterlimit:4;stroke-opacity:1;stroke-dasharray:none;stroke-dashoffset:0" />
        <path
           inkscape:connector-curvature="0"
           id="path9029"
           d="m 10.632369,13.973367 c 0.468507,0.04099 1.249705,-0.09522 0.833771,-0.02946 0.680924,-0.107463 1.17127,-0.419548 1.833604,-0.36594 0.545301,-0.137993 -0.119401,0.213895 -0.309927,0.294048 -0.661093,0.03981 0.568496,-0.12327 -0.181469,-0.0084 -0.713793,0.162335 -1.479085,0.399158 -2.123389,0.390458 -0.66925,0.139221 -0.602547,0.02536 -0.121994,-0.236759 -0.0043,0.03154 0.07128,-0.07148 0.0694,-0.04396 z"
           style="fill:#000000;fill-opacity:1;fill-rule:evenodd;stroke:#000000;stroke-width:0.30000001;stroke-linecap:round;stroke-miterlimit:4;stroke-opacity:1;stroke-dasharray:none;stroke-dashoffset:0" />
        <path
           sodipodi:nodetypes="ccccc"
           inkscape:connector-curvature="0"
           id="path9031"
           d="m 14.4504,13.313653 c 0.309817,0.247904 0.0096,0.612218 -0.238457,0.745101 -0.504739,-0.199418 -0.0044,-0.627205 0.199189,-0.730968 l 0.355005,0.554182 z"
           style="fill:#000000;fill-opacity:1;fill-rule:evenodd;stroke:#000000;stroke-width:0.30000001;stroke-linecap:round;stroke-miterlimit:4;stroke-opacity:1;stroke-dasharray:none;stroke-dashoffset:0" />
        <path
           sodipodi:nodetypes="cccccc"
           inkscape:connector-curvature="0"
           id="path9045"
           d="m 20.622912,11.05636 c -0.105845,0.346018 0.06302,0.795554 0.07552,1.227517 -0.04488,0.273679 0.04569,0.501723 -0.327795,0.495875 -0.416016,0.118342 -0.3299,-0.205005 -0.273404,-0.428042 0.178826,-0.373982 -0.314962,-1.095034 0.01664,-1.210368 0.169661,-0.02833 0.339473,-0.05665 0.509039,-0.08498 z"
           style="fill:#000000;fill-opacity:1;fill-rule:evenodd;stroke:#000000;stroke-width:0.30000001;stroke-linecap:round;stroke-miterlimit:4;stroke-opacity:1;stroke-dasharray:none;stroke-dashoffset:0" />
        <path
           inkscape:connector-curvature="0"
           id="path9047"
           d="m 21.199611,11.105415 c 0.02517,0.212351 -0.05934,0.716813 0.04892,1.045474 0.157594,0.322031 0.116769,0.550675 -0.320553,0.508002 -0.417872,0.157971 -0.123279,-0.427902 -0.223549,-0.680073 0.01461,-0.230196 -0.298918,-0.762904 0.03788,-0.793992 0.152409,-0.02647 0.305011,-0.05293 0.457299,-0.07941 z"
           style="fill:#000000;fill-opacity:1;fill-rule:evenodd;stroke:#000000;stroke-width:0.30000001;stroke-linecap:round;stroke-miterlimit:4;stroke-opacity:1;stroke-dasharray:none;stroke-dashoffset:0" />
        <path
           sodipodi:nodetypes="ccccccc"
           inkscape:connector-curvature="0"
           id="path9049"
           d="m 16.416229,11.679116 c -0.139545,0.167421 0.118709,0.549214 -0.0085,0.873506 0.09383,0.153868 0.03512,0.65309 -0.317855,0.588166 -0.510552,0.156718 -0.09744,-0.52998 -0.256294,-0.679053 0.09823,-0.321046 -0.318707,-1.091013 0.183129,-1.034469 0.122639,-0.0213 0.466346,0.115278 0.39951,0.251855 z"
           style="fill:#000000;fill-opacity:1;fill-rule:evenodd;stroke:#000000;stroke-width:0.30000001;stroke-linecap:round;stroke-miterlimit:4;stroke-opacity:1;stroke-dasharray:none;stroke-dashoffset:0" />
        <path
           sodipodi:nodetypes="ccccc"
           inkscape:connector-curvature="0"
           id="path9051"
           d="m 17.533632,11.906057 c -0.03767,0.126424 0.192073,1.024537 0.09496,1.175732 -0.216847,-0.02182 -1.530566,0.396953 -1.394757,-0.311597 0.183291,-0.206578 0.125693,-0.698005 0.426975,-0.73382 0.16442,-0.02856 0.70844,-0.101732 0.872819,-0.130315 z"
           style="fill:#000000;fill-opacity:1;fill-rule:evenodd;stroke:#000000;stroke-width:0.30000001;stroke-linecap:round;stroke-miterlimit:4;stroke-opacity:1;stroke-dasharray:none;stroke-dashoffset:0" />
        <path
           sodipodi:nodetypes="ccccccccc"
           inkscape:connector-curvature="0"
           id="path9053"
           d="m 16.860448,12.220308 c 0.132007,-0.179224 0.615902,-0.311273 0.877127,-0.42309 0.619727,-0.125069 1.142671,-0.09615 1.703833,-0.06611 0.205147,0.03576 1.370431,-0.184351 0.840852,0.124648 -0.344326,0.302463 -0.665394,0.265105 -1.061069,0.34214 -0.392014,0.01478 -0.767561,-0.01999 -1.099791,-0.02471 -0.4001,0.08252 3.089614,-0.01861 0.271182,0.104985 -0.290657,0.04033 -0.791758,0.0467 -1.005642,0.0086 -0.175432,-0.02219 -0.351374,-0.04402 -0.526492,-0.06643 z"
           style="fill:#000000;fill-opacity:1;fill-rule:evenodd;stroke:#000000;stroke-width:0.30000001;stroke-linecap:round;stroke-miterlimit:4;stroke-opacity:1;stroke-dasharray:none;stroke-dashoffset:0" />
        <path
           sodipodi:nodetypes="cccc"
           inkscape:connector-curvature="0"
           id="path9057"
           d="m 19.812384,11.842026 c 0.14375,0.348593 4.395801,1.136601 -0.131389,1.040171 -0.837511,0.645856 -0.400387,-0.95879 -0.112062,-0.986818 0.08115,-0.01778 0.162326,-0.03558 0.243451,-0.05335 z"
           style="fill:#000000;fill-opacity:1;fill-rule:evenodd;stroke:#000000;stroke-width:0.30000001;stroke-linecap:round;stroke-miterlimit:4;stroke-opacity:1;stroke-dasharray:none;stroke-dashoffset:0" />
        <path
           sodipodi:nodetypes="cccccccc"
           inkscape:connector-curvature="0"
           id="path9059"
           d="m 21.850398,11.533274 c -0.128724,0.209861 0.05625,0.666184 -0.104583,0.929314 -0.0836,0.245276 -0.85064,0.21817 -0.793942,-0.266564 0.08175,-0.190463 0.144992,-0.612957 0.493728,-0.471499 0.429887,0.0057 0.182727,0.106707 0.04667,0.323696 0.16894,0.332665 -0.576523,0.148607 -0.373096,0.19174 0.25789,-0.140801 -0.03412,-0.541241 0.133786,-0.659103 0.199142,-0.01587 0.398312,-0.03165 0.597438,-0.04758 z"
           style="fill:#000000;fill-opacity:1;fill-rule:evenodd;stroke:#000000;stroke-width:0.30000001;stroke-linecap:round;stroke-miterlimit:4;stroke-opacity:1;stroke-dasharray:none;stroke-dashoffset:0" />
        <path
           inkscape:connector-curvature="0"
           id="path9061"
           d="m 23.781744,12.951123 c 0.03452,0.233338 -0.05879,0.532749 -0.431584,0.46229 -0.498633,0.138224 -0.03248,-0.28499 -0.212277,-0.362197 0.199395,-0.06899 0.432412,-0.06079 0.643861,-0.100093 z"
           style="fill:#000000;fill-opacity:1;fill-rule:evenodd;stroke:#000000;stroke-width:0.30000001;stroke-linecap:round;stroke-miterlimit:4;stroke-opacity:1;stroke-dasharray:none;stroke-dashoffset:0" />
        <path
           inkscape:connector-curvature="0"
           id="path9063"
           d="m 23.779345,12.633224 c -0.02534,0.173394 -0.09325,0.498673 0.04571,0.55138 -0.3978,0.0668 -1.036299,0.273505 -0.623166,-0.201788 0.280327,-0.06337 0.615327,-0.137538 0.533775,0.120822 -0.296492,-0.01735 -0.799453,0.284029 -0.603721,-0.07753 -0.08805,-0.255206 0.07551,-0.384664 0.426045,-0.364951 0.07378,-0.0093 0.147577,-0.0187 0.221356,-0.02793 z"
           style="fill:#000000;fill-opacity:1;fill-rule:evenodd;stroke:#000000;stroke-width:0.30000001;stroke-linecap:round;stroke-miterlimit:4;stroke-opacity:1;stroke-dasharray:none;stroke-dashoffset:0" />
        <path
           sodipodi:nodetypes="cccccc"
           inkscape:connector-curvature="0"
           id="path9065"
           d="m 23.61472,12.395305 c -0.09603,0.187856 0.253444,0.731609 0.288374,0.922689 0.02593,0.208466 0.468123,1.458357 0.08001,1.588048 -0.445468,0.327247 -0.500409,-1.32824 -0.611045,-1.537016 -0.155461,-0.330803 -0.115797,-0.614421 0.282051,-0.715963 0.0605,-0.03329 -0.09964,-0.224547 -0.03939,-0.257758 z"
           style="fill:#000000;fill-opacity:1;fill-rule:evenodd;stroke:#000000;stroke-width:0.30000001;stroke-linecap:round;stroke-miterlimit:4;stroke-opacity:1;stroke-dasharray:none;stroke-dashoffset:0" />
        <path
           inkscape:connector-curvature="0"
           id="path9081"
           d="m 11.589864,14.090283 c 0.474681,0.118269 1.247369,0.02296 1.830316,0.01386 0.678339,-0.01834 1.096014,-0.188658 1.725867,-0.12503 0.476178,-0.07647 0.635759,0.04748 0.226778,0.342939 -0.170758,0.222699 -0.399853,0.37193 -0.613377,0.331075 -0.41904,-0.134429 -0.842257,0.04404 -1.287144,0.05049 -0.349561,-0.0619 -0.333891,0.125998 -0.45069,-2.08e-4 -0.626138,0.144854 -1.251846,-0.02763 -1.825169,0.08008 -0.522637,0.109453 0.02854,-0.250338 0.170288,-0.455588 0.07438,-0.07921 0.148758,-0.158406 0.223131,-0.237615 z"
           style="fill:#000000;fill-opacity:1;fill-rule:evenodd;stroke:#000000;stroke-width:0.30000001;stroke-linecap:round;stroke-miterlimit:4;stroke-opacity:1;stroke-dasharray:none;stroke-dashoffset:0" />
        <path
           sodipodi:nodetypes="ccccccccc"
           inkscape:connector-curvature="0"
           id="path9083"
           d="m 12.91112,14.568432 c 0.408028,7.6e-5 0.86142,0.120877 1.311738,0.04679 0.514814,0.01742 0.941903,0.08183 1.356622,-0.01568 0.272587,-0.0038 2.749606,-0.422762 2.560728,-0.188844 -0.215578,0.201918 -1.79467,0.684561 -2.083306,0.753365 -0.549177,-0.02241 -1.29176,0.202278 -1.666152,0.07384 -0.611432,0.09009 -1.201316,-0.01581 -1.816485,-0.01078 -0.617163,0.131029 -0.03655,-0.271514 0.132214,-0.459949 0.06819,-0.06625 0.136554,-0.132455 0.204641,-0.198742 z"
           style="fill:#000000;fill-opacity:1;fill-rule:evenodd;stroke:#000000;stroke-width:0.30000001;stroke-linecap:round;stroke-miterlimit:4;stroke-opacity:1;stroke-dasharray:none;stroke-dashoffset:0" />
        <path
           sodipodi:nodetypes="cccc"
           inkscape:connector-curvature="0"
           id="path9085"
           d="m 15.103877,12.069561 c 0.278688,-0.04814 2.519413,0.446758 2.088354,0.820425 0.02062,0.452263 -2.106271,0.519926 -2.074028,0.285887 0.184665,-0.210902 -0.19899,-0.895416 -0.01433,-1.106312 z"
           style="fill:#000000;fill-opacity:1;fill-rule:evenodd;stroke:#000000;stroke-width:0.30000001;stroke-linecap:round;stroke-miterlimit:4;stroke-opacity:1;stroke-dasharray:none;stroke-dashoffset:0" />
        <path
           sodipodi:nodetypes="cccccccccc"
           inkscape:connector-curvature="0"
           id="path9087"
           d="m 19.005408,13.923686 c 0.433915,0.01772 0.769052,2e-5 1.366259,0.02106 0.498901,-0.150264 0.973518,0.08511 1.449022,0.0013 0.415741,0.137844 0.712006,0.132318 1.069814,0.13021 -0.260706,0.192864 -0.477493,0.463986 -0.767823,0.604064 -0.480272,-0.09661 -1.047266,0.03646 -1.566135,-0.04489 -0.427123,-0.03459 -1.078324,0.06025 -1.551932,0.09323 -0.351221,-0.1066 -1.050953,0.03179 -0.425016,-0.418303 0.141943,-0.128894 0.283838,-0.257886 0.425811,-0.386719 z"
           style="fill:#000000;fill-opacity:1;fill-rule:evenodd;stroke:#000000;stroke-width:0.30000001;stroke-linecap:round;stroke-miterlimit:4;stroke-opacity:1;stroke-dasharray:none;stroke-dashoffset:0" />
        <path
           inkscape:connector-curvature="0"
           id="path9089"
           d="m 18.638867,15.650212 c 0.335682,0.0328 0.87878,0.147878 1.205824,0.06808 0.546832,0.06799 1.122908,0.0062 1.623727,0.116944 0.345625,0.01334 0.60427,0.0509 0.990731,0.108682 0.311681,0.04924 0.968335,0.02865 0.393218,0.329695 -0.248601,0.198095 -0.396747,0.357817 -0.686595,0.310873 -0.20353,-0.120824 -0.9015,-0.172814 -1.280947,-0.175524 -0.330762,-0.116489 -0.876547,-0.08346 -1.294853,-0.114306 -0.455279,0.03759 -0.83804,-0.08071 -1.372741,-0.026 -0.429863,0.0659 -0.207885,-0.124916 0.06519,-0.323665 0.118793,-0.09821 0.237764,-0.196834 0.356447,-0.294774 z"
           style="fill:#000000;fill-opacity:1;fill-rule:evenodd;stroke:#000000;stroke-width:0.30000001;stroke-linecap:round;stroke-miterlimit:4;stroke-opacity:1;stroke-dasharray:none;stroke-dashoffset:0" />
        <path
           inkscape:connector-curvature="0"
           id="path9091"
           d="m 19.29815,15.679442 c 0.286151,0.0074 0.665963,-0.159606 0.116579,0.03162 -0.801745,0.349238 0.272592,-0.268672 0.123063,0.0037 0.300658,-0.100752 0.601316,-0.201503 0.901974,-0.302255 -0.051,0.449128 -0.310345,0.36171 -0.677026,0.585147 -0.365759,0.194022 -0.962249,0.286211 -1.13854,0.23951 0.224593,-0.185891 0.449641,-0.371794 0.67395,-0.557676 z"
           style="fill:#000000;fill-opacity:1;fill-rule:evenodd;stroke:#000000;stroke-width:0.30000001;stroke-linecap:round;stroke-miterlimit:4;stroke-opacity:1;stroke-dasharray:none;stroke-dashoffset:0" />
        <path
           inkscape:connector-curvature="0"
           id="path9093"
           d="m 19.308033,15.292385 c 0.21559,-0.02204 0.861207,-0.07673 1.208392,-0.09427 0.601027,0.0091 0.05246,0.237939 -0.185875,0.437517 -0.26525,0.294052 -0.490105,0.04554 -0.846555,0.17925 -0.293641,-0.02485 -0.715017,0.153686 -0.81372,0.02697 -0.01955,-0.03579 0.376017,-0.317801 0.513539,-0.446757 0.0414,-0.03422 0.08283,-0.0686 0.124219,-0.102707 z"
           style="fill:#000000;fill-opacity:1;fill-rule:evenodd;stroke:#000000;stroke-width:0.30000001;stroke-linecap:round;stroke-miterlimit:4;stroke-opacity:1;stroke-dasharray:none;stroke-dashoffset:0" />
        <path
           sodipodi:nodetypes="cccccccc"
           inkscape:connector-curvature="0"
           id="path9095"
           d="m 17.918777,10.808972 c 0.333292,0.01075 -0.452211,0.121517 -0.153501,0.02233 0.167653,-0.09282 1.857228,-0.29457 1.470414,-0.002 -0.221024,0.163618 0.257448,0.761609 0.0055,0.878209 -0.167237,-0.114868 -0.937989,0.04138 -1.20393,-0.05266 -0.910902,0.587979 -0.961987,0.143141 -0.735833,-0.397158 -0.299409,-0.749463 0.474725,-0.33071 0.617315,-0.4487 z"
           style="fill:#000000;fill-opacity:1;fill-rule:evenodd;stroke:#000000;stroke-width:0.30000001;stroke-linecap:round;stroke-miterlimit:4;stroke-opacity:1;stroke-dasharray:none;stroke-dashoffset:0" />
      </g>
      <path
         inkscape:connector-curvature="0"
         d="m 10.34677,12.006825 c -0.01207,0.03775 -0.06105,0.04391 -0.07852,0.07582 -0.0025,0.0045 0.0206,0.08385 0.02055,0.09754 -1.64e-4,0.05024 -0.01718,0.09899 -0.0258,0.148484 1.32e-4,0.02829 2.65e-4,0.05658 3.98e-4,0.08486 0.01809,0.02647 0.05213,0.04743 0.05427,0.07942 0.0026,0.03929 -0.03468,0.07179 -0.0416,0.110555 -0.02445,0.136937 0.02698,0.06913 0.0209,0.204429 -0.0018,0.03907 -0.01806,0.07611 -0.02709,0.114169 -0.01802,0.03986 -0.04687,0.07644 -0.05406,0.119587 -0.0231,0.138514 0.05144,0.06896 0.04758,0.202111 -3.1e-5,0.0011 -0.07106,0.213321 -0.07202,0.21728 -0.0077,0.03183 -0.0093,0.06483 -0.01399,0.09724 -0.07883,0.08781 -0.01767,0.161804 -0.03681,0.259374 -0.01021,0.05202 -0.05225,0.09513 -0.05893,0.147725 -0.0023,0.01774 0.01025,0.03427 0.01538,0.0514 -0.0033,0.01685 -0.0065,0.0337 -0.0098,0.05055 0.0052,0.01187 0.01669,0.02266 0.01572,0.0356 -0.0012,0.01591 -0.01948,0.02691 -0.0216,0.04273 -0.01293,0.09657 0.06561,-0.04832 -0.01927,0.0796 0,0 -0.58065,0.178199 -0.58065,0.178199 l 0,0 c 9.735e-4,-0.0155 0.00558,-0.0312 0.00292,-0.0465 -0.00268,-0.01542 -0.020499,-0.02761 -0.018516,-0.04313 0.00284,-0.02226 0.033102,-0.03705 0.03162,-0.05945 -0.00873,-0.131948 -0.1180959,0.06398 0.010915,-0.112723 -0.046398,-0.104924 -0.020784,-0.09629 -0.00197,-0.200391 0.00459,-0.02541 -0.00198,-0.05241 0.00483,-0.07733 0.017716,-0.06485 0.067961,-0.11791 0.078474,-0.185772 0.00846,-0.03278 0.02006,-0.0649 0.025378,-0.09833 0.00515,-0.03235 -0.00411,-0.0669 0.00587,-0.0981 0.012989,-0.04061 0.049186,-0.07135 0.061402,-0.1122 0.037464,-0.125277 -0.018861,-0.08334 -0.02618,-0.201384 -0.00228,-0.03671 0.011129,-0.07271 0.016694,-0.109066 0.03543,-0.12907 0.046123,-0.185924 0.042634,-0.319282 -8.295e-4,-0.0317 0.00417,-0.06394 -0.00154,-0.09513 -0.00527,-0.02878 -0.03437,-0.05311 -0.03091,-0.08216 0.0044,-0.03691 0.034943,-0.06562 0.052415,-0.09842 C 9.68359,12.40418 9.665859,12.41357 9.687638,12.33455 9.693988,12.31153 9.718942,12.2937 9.718361,12.26982 9.7175873,12.23799 9.657881,12.23846 9.691411,12.1751 c 0,0 0.655348,-0.168265 0.655348,-0.168265 z"
         id="path10934"
         style="fill:#060000;fill-opacity:1;fill-rule:evenodd;stroke:#000000;stroke-width:0.30000001;stroke-linecap:round;stroke-miterlimit:4;stroke-opacity:1;stroke-dasharray:none;stroke-dashoffset:0" />
      <path
         inkscape:connector-curvature="0"
         d="m 9.8005792,14.100371 c 0.056384,0.0046 0.028571,-0.0099 0.058021,-0.04262 0.011121,-0.01235 0.029272,-0.01813 0.037988,-0.03228 0.00772,-0.01252 0.00379,-0.02938 0.00857,-0.04328 0.00624,-0.01815 0.01618,-0.03481 0.02427,-0.05222 0.048228,-0.120422 0.01875,-0.01869 0.024542,-0.1525 0.00141,-0.03266 0.010949,-0.06472 0.011456,-0.09741 5.617e-4,-0.03626 -0.012919,-0.07251 -0.00827,-0.10848 0.031923,-0.24674 0.067445,-0.0036 0.00871,-0.250332 0.00565,-0.473597 0.00862,0.206938 -0.030843,-0.270881 -0.00398,-0.04813 0.012861,-0.09641 0.00936,-0.14458 -0.00346,-0.04756 -0.027799,-0.09223 -0.030051,-0.139865 -0.014677,-0.310487 0.066549,0.01267 -0.026296,-0.283213 -0.027203,-0.147532 -0.02801,-0.123206 -0.034689,-0.271361 -0.00192,-0.04268 0.011533,-0.08777 -0.00241,-0.128163 -0.014197,-0.04113 -0.070883,-0.06175 -0.077967,-0.104673 -0.00647,-0.0392 0.034279,-0.07252 0.042306,-0.111435 0.00617,-0.0299 -2.834e-4,-0.06107 -4.25e-4,-0.0916 -0.00505,-0.02582 -0.00928,-0.05181 -0.01516,-0.07746 -0.00518,-0.02261 -0.017907,-0.04402 -0.017999,-0.06721 -8.56e-5,-0.02169 0.013556,-0.04134 0.017486,-0.06267 0.00804,-0.04365 0.016099,-0.09997 0.011084,-0.143595 0.00248,-0.01306 0.012043,-0.02672 0.00744,-0.03919 -0.00567,-0.01537 -0.033785,-0.01842 -0.034719,-0.03478 -9.394e-4,-0.01645 0.021434,-0.02513 0.030512,-0.03888 0.01193,-0.01807 0.010804,-0.05423 0.032352,-0.05631 0.7438348,-0.07197 0.8028238,-0.201172 0.6501338,0.04302 0.05453,0.08507 0.0019,-0.01456 0.01711,0.08016 0.0024,0.01473 0.02265,0.02553 0.01975,0.04017 -0.0042,0.02096 -0.03597,0.03038 -0.03795,0.05166 -7.34e-4,0.0079 0.06399,0.08942 0.06528,0.09109 -0.06956,0.170045 0.01126,-0.05103 -0.01811,0.104871 -0.0037,0.01942 -0.02309,0.0345 -0.02389,0.05424 -6.9e-4,0.01709 0.01962,0.03025 0.01978,0.04735 2.87e-4,0.03057 -0.03846,0.07568 -0.05346,0.09643 0.002,0.03455 0.05105,0.100852 0.01867,0.134381 -0.02144,0.02221 -0.06403,0.02038 -0.07986,0.04689 -0.0084,0.01413 0.02437,0.02497 0.02727,0.04117 0.0027,0.01509 -0.008,0.02961 -0.01196,0.04442 0.0096,0.01409 0.03231,0.02563 0.02868,0.04226 -0.01365,0.0627 -0.07469,0.02479 -0.06217,0.09515 0.003,0.0171 0.02807,0.02557 0.0296,0.04287 0.0016,0.01787 -0.01441,0.03285 -0.02145,0.04934 -0.0063,0.01478 -0.01241,0.02966 -0.01862,0.04449 -0.02837,0.04075 0.0368,0.03849 0.03732,0.06286 0.0031,0.143488 -0.108056,-0.105359 8.48e-4,0.09532 0,0 -0.6891898,-0.103335 -0.6891898,-0.103335 l 0,0 c -0.00422,0.01343 -0.00761,0.02714 -0.012655,0.04028 -0.00102,0.0026 -0.00804,0.0075 -0.00534,0.0066 0.068921,-0.02195 0.0622,-0.01177 0.023281,-0.04862 0.020475,-0.01731 0.075248,-0.04799 0.066019,-0.08905 -0.00424,-0.01888 -0.037172,-0.02697 -0.035141,-0.04622 0.00245,-0.02323 0.038334,-0.03099 0.04563,-0.05317 0.00517,-0.01571 -0.00823,-0.03203 -0.012345,-0.04804 0.00673,-0.01663 0.01347,-0.03327 0.020205,-0.0499 -0.047305,-0.09374 -0.017444,0.0021 0.029651,-0.09543 0.00631,-0.01306 -0.0081,-0.02817 -0.00853,-0.04267 -4.296e-4,-0.01433 0.00533,-0.02828 0.00598,-0.04261 0.0034,-0.07494 -0.029542,-0.02486 0.074628,-0.08637 -0.021456,-0.01263 -0.052434,-0.01603 -0.064368,-0.03788 -0.00767,-0.01405 0.018136,-0.02783 0.019776,-0.04376 0.00144,-0.01395 -0.01136,-0.02657 -0.011088,-0.04059 0.00134,-0.06906 0.07851,-0.08112 -0.014595,-0.127537 0.022724,-0.017 0.058041,-0.0245 0.068173,-0.05101 0.00602,-0.01576 -0.027888,-0.02151 -0.03453,-0.03702 -0.033431,-0.07807 0.045385,0.0029 0.037097,-0.07777 -0.00209,-0.02037 -0.087734,-0.02471 -0.091926,-0.0252 0.2388968,-0.09745 -0.1789723,0.06801 0.6399168,-0.0466 0.06097,-0.0085 -0.02738,-0.05935 -0.02755,-0.06506 -3.84e-4,-0.01307 0.0448,0.03446 0.03043,0.02475 -0.006,0.01179 -0.0098,0.02491 -0.01793,0.03537 -0.01306,0.01691 -0.03611,0.02633 -0.04481,0.04585 -0.01347,0.0302 0.01364,0.06737 0.0044,0.09912 -0.03665,0.125727 -0.05053,0.0036 -0.01792,0.13475 -0.03965,0.157659 -0.02444,0.0179 0.02339,0.180284 0.03875,0.131552 -5.2e-4,0.104211 -9.92e-4,0.244235 -3.11e-4,0.09207 0.03615,0.182298 0.01947,0.275531 0.0036,0.04779 0.0085,0.0955 0.01093,0.143368 0.0025,0.04814 -0.0053,0.09726 0.004,0.144561 0.0095,0.0483 0.0383,0.09097 0.05172,0.13833 0.01293,0.04563 0.01691,0.09336 0.02705,0.139688 0.04261,0.194689 0.04829,0.08095 -0.005,0.280589 0.0622,0.344403 0.0058,-0.08569 -0.01875,0.260276 -0.0053,0.07411 0.04389,0.143837 0.04598,0.218108 9.18e-4,0.03254 -0.01444,0.06393 -0.01523,0.09648 -6.78e-4,0.0279 0.0072,0.05535 0.01086,0.08302 -0.0046,0.228274 0.02003,-0.08902 -0.06684,0.131527 -0.0065,0.01638 0.02257,0.02939 0.02426,0.04691 0.0034,0.03491 -0.05202,0.07792 -0.07809,0.08577 0,0 -0.6422793,-0.06071 -0.6422793,-0.06071 z"
         id="path10936"
         style="fill:#060000;fill-opacity:1;fill-rule:evenodd;stroke:#000000;stroke-width:0.30000001;stroke-linecap:round;stroke-miterlimit:4;stroke-opacity:1;stroke-dasharray:none;stroke-dashoffset:0" />
      <path
         inkscape:connector-curvature="0"
         d="m 10.618434,14.082962 c 0.02253,-0.01328 0.04961,-0.02085 0.06759,-0.03984 0.01865,-0.0197 0.01911,-0.189382 0.01567,-0.215259 -0.0032,-0.02434 -0.01227,-0.04754 -0.0184,-0.07131 -0.02991,-0.160251 -0.01779,0.0083 0.04807,-0.164537 0.0098,-0.02564 0.0013,-0.05487 0.0019,-0.0823 0.0068,-0.02773 0.0097,-0.05672 0.02041,-0.08319 0.01202,-0.02967 0.05212,-0.05202 0.0472,-0.08366 -0.0051,-0.03294 -0.04743,-0.04685 -0.07114,-0.07028 0.12221,-0.170223 0.02085,0.0061 0.05173,-0.147841 0.005,-0.025 0.02922,-0.04398 0.03243,-0.06927 0.0027,-0.02084 -0.01335,-0.04014 -0.01586,-0.061 -0.003,-0.02507 0.0042,-0.0969 0.0062,-0.121635 0.06066,-0.218233 -0.01021,0.104219 -0.03138,-0.114704 -0.0023,-0.02393 0.0358,-0.03767 0.03742,-0.06165 0.0013,-0.02 -0.02619,-0.03253 -0.02975,-0.05225 0.01331,-0.07186 0.01573,-0.03751 -0.0041,-0.103231 0.07948,-0.08405 0.04231,-0.01385 0.02005,-0.07453 -0.0025,-0.0068 0.01278,-0.01831 0.006,-0.02089 -0.01056,-0.004 -0.02901,6.7e-5 -0.0321,0.01094 -0.0056,0.01965 -0.0084,0.06184 0.01197,0.06008 0.213054,-0.01836 0.420699,-0.07699 0.631048,-0.115488 -0.0029,0.0316 -0.04005,0.04389 -0.04497,0.07614 -0.0021,0.01402 0.01617,0.02857 0.01001,0.04134 -0.04724,0.09798 -0.07963,-0.0016 -0.02731,0.09734 -0.01096,0.01912 -0.0291,0.03565 -0.03289,0.05737 -0.0033,0.01878 0.02128,0.03838 0.0132,0.05565 -0.01672,0.03573 -0.101856,0.05826 -0.08899,0.118163 0.02814,0.131071 0.08289,-0.02506 0.01767,0.108792 -0.02927,0.11719 0.02331,0.07357 -0.0769,0.162722 0,0 -0.563796,0.05197 -0.563796,0.05197 l 0,0 c -0.01777,-0.08337 -0.05051,-0.09681 0.01872,-0.168365 -0.0037,-0.01902 -0.01008,-0.03771 -0.01121,-0.05707 -0.0011,-0.01968 0.0048,-0.03926 0.0044,-0.05896 -4.05e-4,-0.01966 -0.01511,-0.04075 -0.0069,-0.05861 0.01238,-0.02677 0.05019,-0.03568 0.06278,-0.06235 0.0082,-0.01737 -0.0042,-0.03819 -0.0063,-0.05728 0.01243,-0.01919 0.02487,-0.03839 0.0373,-0.05759 -0.0581,-0.101087 -0.03035,-0.01139 0.04016,-0.109425 0.02233,-0.03104 -0.02324,-0.134499 0.0171,-0.162549 0.207027,-0.04642 0.414055,-0.09284 0.621082,-0.139263 -2.63e-4,0.02332 -0.01133,0.04916 -7.89e-4,0.06997 0.0085,0.01683 0.04001,0.01072 0.04982,0.02683 0.0064,0.01044 -0.01099,0.02236 -0.01248,0.03449 -0.0038,0.03061 0.0096,0.05844 0.01897,0.08629 -0.03387,0.03028 -0.0984,0.05512 -0.05763,0.113261 0.01565,0.02232 0.06242,0.02245 0.06502,0.04958 0.0027,0.02814 -0.04768,0.03784 -0.054,0.06539 -0.0091,0.03984 0.06748,0.07243 0.02787,0.119401 -0.0058,0.02158 -0.0082,0.04433 -0.01731,0.06475 -0.01067,0.02402 -0.03919,0.04097 -0.04129,0.06717 -0.0018,0.02282 0.02545,0.03906 0.031,0.06127 0.0055,0.0219 5.82e-4,0.04514 0.0012,0.06771 0.0028,0.10051 0.01051,0.04533 -0.02096,0.147817 -0.0056,0.106951 0.0042,0.05331 -0.03194,0.160453 -0.0022,0.02709 0.01478,0.05304 0.01462,0.08021 -1.58e-4,0.02815 -0.01237,0.05504 -0.01554,0.08301 -0.0059,0.05184 0.0014,0.104688 -0.0098,0.156194 -0.0097,0.02529 -0.01642,0.05193 -0.02908,0.07587 -0.01323,0.02505 -0.04579,0.04185 -0.04805,0.07009 -0.002,0.02505 0.09815,0.100118 0.06195,0.154333 0,0 -0.709853,0.08967 -0.709853,0.08967 z"
         id="path10938"
         style="fill:#060000;fill-opacity:1;fill-rule:evenodd;stroke:#000000;stroke-width:0.30000001;stroke-linecap:round;stroke-miterlimit:4;stroke-opacity:1;stroke-dasharray:none;stroke-dashoffset:0" />
      <path
         inkscape:connector-curvature="0"
         d="m 11.274362,13.847165 c 0.0663,-0.0311 0.03346,-0.0019 0.0535,-0.04935 0.0053,-0.01264 0.01702,-0.02291 0.01905,-0.03647 0.002,-0.01332 -0.01441,-0.02803 -0.0076,-0.03967 0.06654,-0.11457 0.06946,0.0065 0.0539,-0.102403 -0.105496,-0.09767 -0.02989,-0.09207 0.0086,-0.184225 0.0085,-0.02027 0.0012,-0.04452 0.0079,-0.06545 0.0079,-0.0246 0.04083,-0.04388 0.03515,-0.06908 -0.0065,-0.02898 -0.04306,-0.04094 -0.06459,-0.06141 0,0 0.69745,-0.05837 0.69745,-0.05837 l 0,0 c -0.0094,0.01155 -0.100571,0.113459 -0.09647,0.142153 0.0038,0.02667 0.04753,0.03305 0.05545,0.0588 0.0064,0.02067 -0.01553,0.0408 -0.01823,0.06225 -0.0046,0.03642 0.0137,0.0737 -5.1e-5,0.110118 -0.11305,0.108941 -0.05441,0.01462 0.01,0.100363 0.02977,0.03964 -0.06763,0.09403 -0.04914,0.136631 0,0 -0.704931,0.05611 -0.704931,0.05611 z"
         id="path10940"
         style="fill:#060000;fill-opacity:1;fill-rule:evenodd;stroke:#000000;stroke-width:0.30000001;stroke-linecap:round;stroke-miterlimit:4;stroke-opacity:1;stroke-dasharray:none;stroke-dashoffset:0" />
      <path
         inkscape:connector-curvature="0"
         d="m 12.070582,13.860088 c 0.0046,-0.0098 0.01196,-0.01883 0.01366,-0.02954 0.0035,-0.0222 -0.005,-0.04504 -0.0024,-0.06737 0.0069,-0.06033 0.02701,-0.103712 0.05696,-0.156066 0.02933,-0.128405 0.0061,0.0074 0.0045,-0.122328 -2.74e-4,-0.02176 0.0052,-0.04322 0.0078,-0.06483 0,0 0.650417,-0.0606 0.650417,-0.0606 l 0,0 c -0.03916,0.06625 -0.06292,0.11365 -0.04446,0.192073 -0.06395,0.12287 -0.01715,-0.0035 -0.008,0.100886 0.0039,0.04478 -0.06428,0.103944 0.0099,0.120825 0,0 -0.688309,0.08695 -0.688309,0.08695 z"
         id="path10942"
         style="fill:#060000;fill-opacity:1;fill-rule:evenodd;stroke:#000000;stroke-width:0.30000001;stroke-linecap:round;stroke-miterlimit:4;stroke-opacity:1;stroke-dasharray:none;stroke-dashoffset:0" />
      <path
         inkscape:connector-curvature="0"
         d="m 12.090711,13.589635 c -0.117397,-0.05203 0.05072,0.03482 0.01292,-0.05112 -0.0108,-0.02455 -0.07903,5.3e-5 -0.07593,-0.02658 0.0038,-0.03312 0.06249,-0.02806 0.08513,-0.05255 0.01123,-0.01214 0.0037,-0.03308 0.0086,-0.04885 0.006,-0.01914 0.01611,-0.03677 0.02417,-0.05516 -0.143484,-0.07467 -0.04107,-0.06722 -0.03739,-0.165115 7.44e-4,-0.01984 -0.01486,-0.03705 -0.01881,-0.05651 -0.01104,-0.05434 -0.0031,-0.05966 0.01075,-0.112136 0.05413,-0.07384 0.0578,-0.03981 -0.0027,-0.102664 0,0 0.646444,-0.06625 0.646444,-0.06625 l 0,0 c 0.0044,0.06659 -0.0031,0.03401 0.02325,0.0975 -0.0112,0.01836 -0.0287,0.03414 -0.03359,0.05508 -0.01516,0.06494 0.03801,0.0386 0.0044,0.105429 -0.01279,0.0254 -0.04805,0.03738 -0.05547,0.06484 -0.0099,0.03651 0.05652,0.06705 0.03668,0.107369 -0.0031,0.01776 -0.01182,0.03544 -0.0092,0.05327 0.0025,0.0167 0.01394,0.03097 0.02365,0.04477 0.0097,0.01384 0.0385,0.02109 0.03425,0.03746 -0.0059,0.02261 -0.04739,0.02114 -0.0552,0.04315 -0.0031,0.0087 0.05618,0.03915 0.06096,0.04179 0,0 -0.682939,0.08627 -0.682939,0.08627 z"
         id="path10944"
         style="fill:#060000;fill-opacity:1;fill-rule:evenodd;stroke:#000000;stroke-width:0.30000001;stroke-linecap:round;stroke-miterlimit:4;stroke-opacity:1;stroke-dasharray:none;stroke-dashoffset:0" />
      <path
         inkscape:connector-curvature="0"
         d="m 12.350603,12.265884 c 0.118636,-0.06043 0.0083,-0.03451 0.03033,-0.105942 0.05931,-0.192525 -0.0067,0.10724 0.03303,-0.08763 -0.04171,-0.07608 -0.04026,-0.03636 0.05077,-0.107897 0,0 0.575426,-0.05284 0.575426,-0.05284 l 0,0 c 0.0217,0.07331 0.01843,0.03643 0.01099,0.110519 0.0035,0.146647 0.0081,-0.05474 -0.03014,0.09711 -0.0032,0.01289 0.01066,0.02545 0.0096,0.0387 -0.0048,0.05831 -0.06129,0.05264 0.04195,0.08229 0,0 -0.72192,0.02569 -0.72192,0.02569 z"
         id="path10946"
         style="fill:#060000;fill-opacity:1;fill-rule:evenodd;stroke:#000000;stroke-width:0.30000001;stroke-linecap:round;stroke-miterlimit:4;stroke-opacity:1;stroke-dasharray:none;stroke-dashoffset:0" />
      <path
         inkscape:connector-curvature="0"
         d="m 13.21636,12.299197 c 0.06446,-0.06499 0.01012,-0.03251 -0.0012,-0.0852 -4.79e-4,-0.0022 0.02277,-0.106671 0.02372,-0.110975 0,0 0.672231,-0.09868 0.672231,-0.09868 l 0,0 c -0.0022,0.01938 -3.18e-4,0.03969 -0.0066,0.05814 -0.0069,0.02023 -0.03695,0.03456 -0.03228,0.05543 0.0046,0.02053 0.04171,0.01696 0.05253,0.03501 0.01723,0.02875 -0.03003,0.05323 -0.04185,0.06208 0,0 -0.666502,0.0842 -0.666502,0.0842 z"
         id="path10948"
         style="fill:#060000;fill-opacity:1;fill-rule:evenodd;stroke:#000000;stroke-width:0.30000001;stroke-linecap:round;stroke-miterlimit:4;stroke-opacity:1;stroke-dasharray:none;stroke-dashoffset:0" />
      <path
         inkscape:connector-curvature="0"
         d="m 13.55636,12.424551 c 0.08894,-0.06749 0.0038,0.01261 0.03369,-0.05924 0.0056,-0.01334 0.0256,-0.01832 0.02877,-0.03242 0.0028,-0.01242 -0.02188,-0.0262 -0.01346,-0.03575 0.06517,-0.07386 0.08621,0.01522 0.0569,-0.06177 0.229262,-0.136716 0.164713,-0.104905 0.704782,-0.176022 0.0201,-0.0026 0.0094,0.03948 0.01285,0.05946 0.0036,0.02073 2.5e-5,0.04327 0.0084,0.06256 0.04875,0.05538 0.03076,0.02469 0.05529,0.09126 0.03573,0.04175 -0.03638,0.0782 -0.02311,0.114963 0.0088,0.0245 0.053,0.02336 0.06173,0.0479 0.0075,0.02114 -0.0224,0.04118 -0.02202,0.06362 0.0025,0.152319 0.06301,-0.03827 -5.1e-4,0.118979 0.0125,0.01496 0.03734,0.0254 0.03749,0.04489 1.51e-4,0.01868 -0.02904,0.02528 -0.03679,0.04227 -0.0043,0.0095 0.01367,0.02999 0.0033,0.03116 -0.216485,0.02439 -0.434368,0.04032 -0.652216,0.04194 -0.02077,1.54e-4 -0.04305,-0.01727 -0.05033,-0.03672 -0.0064,-0.017 0.0115,-0.03443 0.01726,-0.05164 -0.01253,-0.03843 0.02741,-0.07137 0.02309,-0.107901 -0.01076,-0.09075 -0.05539,-0.0089 -0.0251,-0.107429 0.03176,-0.103349 0.05424,-0.0231 0.0055,-0.117658 -0.0012,-0.09218 0.02201,-0.155158 0.05054,-0.240371 0,0 0.624184,-0.0533 0.624184,-0.0533 l 0,0 c -0.0045,0.01859 -0.0045,0.03889 -0.01348,0.05576 -0.01187,0.02225 -0.04675,0.03359 -0.04762,0.05879 -7.51e-4,0.02183 0.02928,0.03241 0.04392,0.04862 -0.0056,0.01881 -0.01128,0.03762 -0.01691,0.05643 -0.0053,0.01809 -0.01057,0.03618 -0.01585,0.05427 0.01481,0.01512 0.04545,0.02422 0.04443,0.04536 -0.0012,0.0259 -0.04647,0.03426 -0.04948,0.06002 -0.0023,0.01957 0.03464,0.02646 0.03708,0.04601 0.02255,0.180599 -0.07524,-0.05536 -0.0056,0.09311 3.01e-4,0.01247 -0.0022,0.02533 9.03e-4,0.0374 0.0024,0.0093 0.02464,0.02284 0.01516,0.02465 -0.213598,0.04093 -0.430224,0.06406 -0.645336,0.0961 -0.002,0.0014 -0.008,0.0053 -0.0059,0.0043 0.01362,-0.0063 0.03275,-0.0071 0.04023,-0.02005 0.0058,-0.01008 -0.0062,-0.02241 -0.0093,-0.03362 0.0414,-0.09241 0.01827,-0.0021 -0.02184,-0.09233 -0.0072,-0.01621 5.17e-4,-0.03555 -0.001,-0.05322 -0.0039,-0.04421 -0.01526,-0.08322 0.0063,-0.125823 -0.0042,-0.0053 -0.01157,-0.0092 -0.0125,-0.01586 -5.38e-4,-0.0038 0.01194,-0.0098 0.0093,-0.007 -0.01163,0.01244 -0.03211,0.01941 -0.03634,0.0359 -0.0023,0.0089 0.01422,0.01676 0.02329,0.01501 0.64566,-0.124502 0.35369,-0.12755 0.56759,-0.123913 -0.131965,0.01426 -0.03227,-0.01539 -0.05926,0.02546 -0.0061,0.0092 -0.02354,0.01071 -0.02502,0.02164 -0.0014,0.01022 0.02747,0.01908 0.01876,0.02459 -0.0236,0.01493 -0.05906,1.45e-4 -0.08232,0.01561 -0.0104,0.0069 0.0223,0.01126 0.03345,0.01688 0,0 -0.692874,-0.0029 -0.692874,-0.0029 z"
         id="path10950"
         style="fill:#060000;fill-opacity:1;fill-rule:evenodd;stroke:#000000;stroke-width:0.30000001;stroke-linecap:round;stroke-miterlimit:4;stroke-opacity:1;stroke-dasharray:none;stroke-dashoffset:0" />
      <path
         inkscape:connector-curvature="0"
         d="m 16.503671,10.86684 c -0.04974,-0.04416 0.0028,0.01351 -0.0101,-0.04821 -0.0025,-0.01191 -0.02903,-0.01863 -0.0224,-0.02883 0.0167,-0.02573 0.0671,-0.02326 0.07539,-0.05279 0.0057,-0.02019 -0.04215,-0.01899 -0.04974,-0.03854 -0.0067,-0.01736 0.0091,-0.0361 0.01372,-0.05415 -0.07955,-0.07941 -0.0355,-0.01009 -0.04016,-0.107347 -9.37e-4,-0.01953 -0.01786,-0.03807 -0.0134,-0.05712 0.006,-0.02565 0.03652,-0.04102 0.04238,-0.06671 0.01009,-0.04427 -0.03579,-0.08207 -0.05838,-0.108347 0.01136,-0.0742 0.03399,-0.09658 0.0062,-0.169596 -0.0065,-0.01706 -0.01791,-0.03242 -0.02164,-0.05029 -0.0081,-0.03856 0.0058,-0.0655 0.01699,-0.1011995 -0.01333,-0.01415 -0.03983,-0.023013 -0.03998,-0.042451 -1.76e-4,-0.022388 0.03728,-0.032224 0.03922,-0.054529 0.0016,-0.018074 -0.02293,-0.028572 -0.03057,-0.045028 -0.007,-0.015166 -0.0081,-0.032466 -0.01283,-0.048489 -0.02071,-0.06949 -0.02121,-0.027571 -0.0028,-0.1009798 -0.07492,-0.1614376 0.03016,0.1030498 0.03171,-0.1057317 1.67e-4,-0.022468 -0.0541,-0.01936 -0.05288,-0.041796 0.0014,-0.026269 0.04699,-0.029593 0.05806,-0.053456 0.01197,-0.02578 -0.03867,-0.072421 -0.04816,-0.083242 -0.02211,-0.1245701 -0.0039,0.045014 0.03125,-0.093469 0.0037,-0.014513 -0.0187,-0.026935 -0.01656,-0.041756 0.0025,-0.017507 0.02227,-0.028085 0.02897,-0.044453 0.0046,-0.011257 0.0096,-0.076197 0.01052,-0.086894 0.0029,-0.014655 0.0058,-0.02931 0.0087,-0.043966 0,0 0.653281,-0.042976 0.653281,-0.042976 l 0,0 c -0.0086,0.014176 -0.01716,0.028352 -0.02574,0.042529 0.06331,0.087191 0.003,-0.021882 -0.04253,0.084441 -0.0066,0.015485 0.03838,0.022688 0.03268,0.03854 -0.0087,0.024286 -0.05987,0.019644 -0.06279,0.045283 -0.0024,0.021111 0.04039,0.017777 0.0537,0.034338 0.0078,0.00969 0.0025,0.024751 0.0037,0.037126 -0.06606,0.086663 -0.02285,0.00431 -0.02098,0.084725 3.44e-4,0.014782 -0.01353,0.028262 -0.01134,0.042885 0.0023,0.01504 0.02778,0.024417 0.02361,0.039041 -0.02889,0.1012956 -0.09229,0.00195 -0.0105,0.093054 -0.0611,0.1040411 -0.02577,0.00632 8.61e-4,0.097648 0.0047,0.015987 -0.0088,0.03349 -0.005,0.049707 0.0039,0.016853 0.0267,0.027082 0.02693,0.044387 0.0026,0.198433 -0.06085,-0.077227 -0.01267,0.1004541 0.0085,0.015856 0.02058,0.030247 0.02536,0.047569 0.0047,0.017014 -1.86e-4,0.03543 0.0024,0.052896 0.0091,0.062755 0.0219,0.036403 0.0085,0.1025059 -0.004,0.01953 -0.02212,0.03735 -0.01831,0.0569 0.004,0.02056 0.02601,0.03284 0.03901,0.04925 -0.0047,0.01969 -0.0074,0.03997 -0.01418,0.05906 -0.0077,0.0217 -0.0276,0.03973 -0.02895,0.06271 -0.0012,0.01974 0.01683,0.03601 0.02202,0.05509 0.0171,0.06283 -0.0076,0.118834 0.04818,0.16765 0.08051,0.176021 -0.02096,-0.08108 -0.0035,0.109984 0.0017,0.01806 0.03754,0.02237 0.03636,0.04046 -0.0082,0.12593 -0.06175,-0.02095 -0.02948,0.09399 0,0 -0.634208,0.08012 -0.634208,0.08012 z"
         id="path10952"
         style="fill:#060000;fill-opacity:1;fill-rule:evenodd;stroke:#000000;stroke-width:0.30000001;stroke-linecap:round;stroke-miterlimit:4;stroke-opacity:1;stroke-dasharray:none;stroke-dashoffset:0" />
      <path
         inkscape:connector-curvature="0"
         d="m 17.255363,10.88374 c 0.02462,-0.07706 0.01307,-0.01097 -0.0022,-0.09289 -0.0039,-0.02087 0.003,-0.04373 -0.0047,-0.06352 -0.01,-0.02572 -0.05164,-0.04127 -0.04661,-0.0684 0.04807,-0.259256 0.12776,0.04049 0.04632,-0.186545 -0.02139,-0.02922 -0.05878,-0.05185 -0.06416,-0.08766 -0.0055,-0.03665 0.02634,-0.06948 0.03516,-0.105472 0.0083,-0.03389 0.01729,-0.06858 0.01607,-0.103454 -0.0097,-0.278807 -0.02994,0.08879 -0.07122,-0.1876152 -0.0049,-0.032745 0.01334,-0.064857 0.02002,-0.097286 -0.03151,-0.077467 -0.06694,-0.1618251 -0.0546,-0.2480876 0.004,-0.027679 0.02816,-0.052446 0.02463,-0.080184 -0.0032,-0.025151 -0.03244,-0.039731 -0.04282,-0.06286 -0.0089,-0.019845 -0.0093,-0.042492 -0.01402,-0.063738 -0.01242,-0.025668 -0.0448,-0.079569 -0.03809,-0.1129708 0.0046,-0.023042 0.03546,-0.038465 0.03375,-0.061905 -7.37e-4,-0.010119 -0.08166,-0.085518 -0.08574,-0.09271 -0.0088,-0.015573 -0.0076,-0.034997 -0.01139,-0.052495 0.02423,-0.072175 0.01118,-0.03671 0.03907,-0.1064268 0,0 0.630857,-0.086384 0.630857,-0.086384 l 0,0 c -0.0094,0.057366 -8.87e-4,0.028569 -0.0273,0.085809 0.0108,0.025558 0.02489,0.061462 0.03947,0.084706 0.01003,0.016 0.03408,0.026505 0.0339,0.045389 -2.32e-4,0.02487 -0.03342,0.041102 -0.03494,0.065926 -0.0026,0.042208 0.06316,0.07209 0.03635,0.1215426 0.0041,0.3029052 -0.009,-0.1757122 0.02332,0.1409674 0.02125,0.2079694 -0.04282,-0.052176 0.0055,0.1605772 0.0065,0.028773 0.02646,0.055355 0.02526,0.084836 -0.0014,0.033897 -0.02175,0.064269 -0.03263,0.096403 0.02473,0.086267 0.03153,0.096508 0.04172,0.1860984 0.0246,0.2162718 -0.0102,-0.023453 0.0067,0.1957768 0.0049,0.06337 0.0244,0.125043 0.02726,0.188706 0.14516,0.253006 -0.02402,-0.09012 0.01527,0.169704 0.0098,0.06481 0.133627,0.0781 0.08903,0.194178 0,0 -0.65922,0.139987 -0.65922,0.139987 z"
         id="path10954"
         style="fill:#060000;fill-opacity:1;fill-rule:evenodd;stroke:#000000;stroke-width:0.30000001;stroke-linecap:round;stroke-miterlimit:4;stroke-opacity:1;stroke-dasharray:none;stroke-dashoffset:0" />
      <path
         inkscape:connector-curvature="0"
         d="m 16.515301,9.4197318 c 0.01611,-0.017022 0.04322,-0.028194 0.04833,-0.051067 0.0026,-0.011731 -0.03509,0.00542 -0.03545,-0.0066 -0.0014,-0.044508 0.109437,-0.1098168 0.05299,-0.1602139 -0.0139,-0.012407 -0.03548,-0.011376 -0.05322,-0.017064 0.03874,-0.06305 0.05439,-0.066734 0.05689,-0.1337602 6.09e-4,-0.016294 -0.0084,-0.032575 -0.0054,-0.048613 0.0044,-0.023964 0.03208,-0.044197 0.02683,-0.067989 -0.0036,-0.016435 -0.03354,-0.00918 -0.04628,-0.020185 -0.0111,-0.00959 -0.01436,-0.025586 -0.02154,-0.03838 0.0056,-0.022239 0.01474,-0.043877 0.01685,-0.066717 0.0015,-0.016637 -0.0055,-0.033053 -0.0061,-0.049751 -0.0017,-0.049244 0.0095,-0.1115583 -0.01684,-0.1576621 -0.0079,-0.013774 -0.0226,-0.02227 -0.03391,-0.033405 -0.0067,-0.053229 -0.01606,-0.106063 -0.02442,-0.1590442 0,0 0.451567,-0.3392191 0.451567,-0.3392191 l 0,0 c 0.07691,0.055327 0.0173,0.048168 0.05689,0.1271893 0.130824,0.069555 -0.02977,-0.033972 0.04588,0.090207 0.0106,0.017403 0.04454,0.00761 0.05604,0.024427 0.01155,0.016881 -0.0011,0.04118 0.0026,0.061299 0.01888,0.1035662 0.03875,-0.00307 -0.01296,0.1348662 0.04907,0.078954 0.01847,0.00684 0.01045,0.1176018 -0.0064,0.088195 0.01201,0.021909 0.03063,0.093667 0.0099,0.038259 -0.005,0.078372 -0.01363,0.1143619 -3.86e-4,0.027246 6.92e-4,0.063522 -0.006,0.090394 -0.0046,0.018529 -0.02783,0.036945 -0.01919,0.053969 0.0075,0.014678 0.04002,-0.00871 0.04913,0.005 0.04325,0.06503 -0.0672,0.028219 0.0042,0.046843 0,0 -0.614292,0.3898417 -0.614292,0.3898417 z"
         id="path10956"
         style="fill:#060000;fill-opacity:1;fill-rule:evenodd;stroke:#000000;stroke-width:0.30000001;stroke-linecap:round;stroke-miterlimit:4;stroke-opacity:1;stroke-dasharray:none;stroke-dashoffset:0" />
      <path
         inkscape:connector-curvature="0"
         d="m 13.512506,12.254503 c -0.01233,-0.10756 0.01222,0.01593 0.04519,-0.121264 0.003,-0.01266 -0.02061,-0.01723 -0.02611,-0.02903 -0.0064,-0.01379 -0.0045,-0.03014 -0.0083,-0.04487 -0.0039,-0.01498 -0.0098,-0.02935 -0.01468,-0.04403 0.0089,-0.02546 0.04047,-0.106391 0.03943,-0.136991 -5.5e-4,-0.0163 -0.01906,-0.02912 -0.01822,-0.0454 0.0044,-0.08541 0.06367,-0.08381 -0.0024,-0.164853 0.06378,-0.174785 0.02091,0.0064 -0.0065,-0.100785 -0.02648,-0.103471 0.05224,-0.02594 -0.0298,-0.0888 0,0 0.531101,-0.371888 0.531101,-0.371888 l 0,0 c 0.0018,0.03493 0.0099,0.133377 0.0231,0.164026 0.007,0.0162 0.02226,0.02738 0.03339,0.04106 -0.01362,0.0679 -0.04598,0.137655 -0.05256,0.206243 -0.0069,0.07162 0.0113,0.03525 0.02206,0.09953 0.003,0.01821 3.7e-5,0.03692 5.6e-5,0.05537 0.03583,0.09824 0.0041,-0.02239 -0.02627,0.12016 -0.0023,0.01086 0.05222,0.08084 0.05731,0.101817 0,0 -0.566791,0.359696 -0.566791,0.359696 z"
         id="path10958"
         style="fill:#060000;fill-opacity:1;fill-rule:evenodd;stroke:#000000;stroke-width:0.30000001;stroke-linecap:round;stroke-miterlimit:4;stroke-opacity:1;stroke-dasharray:none;stroke-dashoffset:0" />
      <path
         inkscape:connector-curvature="0"
         d="m 14.070597,12.145959 c 0.01369,-0.01144 0.03217,-0.01885 0.04106,-0.03431 0.0031,-0.0054 -0.0143,-0.006 -0.01428,-0.01225 4.6e-5,-0.01993 0.04086,-0.06919 0.04377,-0.0801 0.0027,-0.01006 -0.0071,-0.01967 -0.0089,-0.02993 -0.0021,-0.01209 -0.0017,-0.02447 -0.0026,-0.03671 0.09226,-0.16091 0.016,0.009 0.01671,-0.08137 1.22e-4,-0.01551 0.01706,-0.02843 0.01553,-0.04387 -0.0011,-0.01067 -0.02008,-0.01278 -0.02218,-0.02329 -0.0031,-0.01571 0.0069,-0.03142 0.008,-0.0474 0.0011,-0.01466 -9.51e-4,-0.02939 -0.0014,-0.04408 0.0763,-0.07164 -0.05841,-0.06173 -0.05363,-0.103556 0.0034,-0.0301 0.04026,-0.05002 0.04275,-0.08022 0.0011,-0.01369 -0.02338,-0.01452 -0.03424,-0.02293 -0.01039,-0.008 -0.01957,-0.01755 -0.02935,-0.02633 -0.0262,-0.04154 0.0366,-0.07448 0.02676,-0.111375 -0.0043,-0.016 -0.03817,-0.0031 -0.04654,-0.01736 -0.04245,-0.07249 0.105595,-0.0538 0.01665,-0.146065 0,0 0.568929,-0.339933 0.568929,-0.339933 l 0,0 c -0.0091,0.01538 -0.02629,0.02828 -0.02738,0.04613 -0.0016,0.02534 0.0506,0.01306 0.03235,0.04916 -0.01464,0.02897 -0.05859,0.04316 -0.06152,0.07549 -0.0022,0.02398 0.09527,-0.02973 0.06218,0.03678 -0.01521,0.02474 -0.03877,0.04601 -0.04562,0.07423 -0.0027,0.01131 0.01606,0.01743 0.02076,0.02808 0.01542,0.0349 1.28e-4,0.04336 0.02365,0.07575 0.04805,0.06616 0.05634,-0.01466 -0.0054,0.109752 0.05423,0.01696 0.04855,0.0049 0.07875,0.05032 0.0484,0.07279 -0.0044,0.09547 -0.0087,0.167535 -8.41e-4,0.01412 0.0081,0.02712 0.01209,0.04067 -0.0087,0.01913 -0.02223,0.03673 -0.02613,0.05738 -0.0079,0.04195 0.03052,0.02771 0.0055,0.0719 -0.01259,0.02227 -0.04798,0.03231 -0.05053,0.05777 -0.0094,0.09336 0.107943,-0.08622 0.02303,0.03121 0,0 -0.600097,0.308914 -0.600097,0.308914 z"
         id="path10960"
         style="fill:#060000;fill-opacity:1;fill-rule:evenodd;stroke:#000000;stroke-width:0.30000001;stroke-linecap:round;stroke-miterlimit:4;stroke-opacity:1;stroke-dasharray:none;stroke-dashoffset:0" />
      <path
         inkscape:connector-curvature="0"
         d="m 15.74329,12.092284 c -0.03669,-0.05962 0.01876,0.04399 0.04331,-0.09218 0.0026,-0.01422 -0.03209,-0.0069 -0.03855,-0.01983 -0.0087,-0.01742 0.0033,-0.03936 -5.83e-4,-0.05844 -0.01024,-0.04994 -0.02912,-0.05606 -0.06519,-0.08855 0.07593,-0.10979 -0.0026,-0.119461 -0.0092,-0.218004 -0.0034,-0.05062 0.03185,-0.09999 0.02457,-0.150192 -0.0025,-0.01702 -0.02122,-0.02706 -0.03183,-0.04059 0.0046,-0.06508 -0.01681,-0.143796 0.0089,-0.20648 0.03725,-0.09092 0.03406,-0.01896 0.03067,-0.09073 0.01041,-0.0156 0.02082,-0.0312 0.03123,-0.0468 0,0 0.573657,-0.273407 0.573657,-0.273407 l 0,0 c -0.0088,0.01193 -0.0176,0.02386 -0.02639,0.03579 -0.01371,0.03155 -0.09161,0.124107 -0.08105,0.157478 0.0038,0.01195 0.02039,0.01457 0.03058,0.02186 0.0025,0.01251 0.005,0.02501 0.0075,0.03752 -0.01244,0.02372 -0.06421,0.1127 -0.06373,0.146334 2.39e-4,0.01678 0.02368,0.02693 0.02511,0.04365 0.0021,0.02514 -0.015,0.04895 -0.01505,0.07419 -7.2e-5,0.04041 0.03279,0.0765 0.02843,0.117841 -4.2e-5,0.0247 -0.006,0.05011 -1.24e-4,0.0741 0.01284,0.05229 0.07229,0.07377 0.08797,0.124407 0.01871,0.06043 -0.01781,0.02606 0.01704,0.05272 0,0 -0.577204,0.399325 -0.577204,0.399325 z"
         id="path10962"
         style="fill:#060000;fill-opacity:1;fill-rule:evenodd;stroke:#000000;stroke-width:0.30000001;stroke-linecap:round;stroke-miterlimit:4;stroke-opacity:1;stroke-dasharray:none;stroke-dashoffset:0" />
      <path
         inkscape:connector-curvature="0"
         d="m 15.505084,11.780887 c -0.0022,-0.0053 -0.0045,-0.01056 -0.0067,-0.01583 -0.0084,0.0048 -0.01881,0.02165 -0.02509,0.01435 -0.01,-0.01162 0.0096,-0.0559 -0.002,-0.04592 -0.03326,0.02856 -0.04371,0.07664 -0.07237,0.109817 -0.01097,0.0127 -0.03066,0.01434 -0.04385,0.02472 -0.02114,0.01664 -0.03891,0.03716 -0.05836,0.05573 -0.008,-0.0062 -0.01526,-0.02374 -0.02399,-0.01862 -0.02622,0.01537 -0.03626,0.04992 -0.06056,0.06818 -0.0098,0.0073 -0.02688,-0.0031 -0.0363,0.0046 -0.02686,0.02207 -0.04166,0.05609 -0.06681,0.0801 -0.01355,0.01293 -0.03193,0.0196 -0.04789,0.0294 -0.01961,0.0223 -0.03922,0.0446 -0.05884,0.0669 -0.02508,-0.07133 1.78e-4,-0.04174 -0.06752,0.0027 -0.01273,0.0084 -0.03032,0.0078 -0.04239,0.01703 -0.02474,0.01901 -0.03505,0.06307 -0.06609,0.06629 -0.113717,0.01178 0.145797,-0.194954 -0.06145,-0.0082 -0.01218,5.5e-4 -0.02435,0.0011 -0.03653,0.0017 0,0 0.286588,-0.557323 0.286588,-0.557323 l 0,0 c 0.0054,-0.0012 0.01084,-0.0024 0.01627,-0.0037 0.07524,-0.0696 0.0013,-0.009 0.0715,-0.0493 0.05899,-0.03387 0.10219,-0.09062 0.166244,-0.11757 0.114941,-0.03232 0.181258,-0.158878 0.294893,-0.200385 0.02449,-0.03038 0.04319,-0.06652 0.07347,-0.09115 0.0071,-0.0058 0.01604,0.0097 0.02506,0.011 0.03506,0.0052 0.03542,-0.0091 0.0686,-0.01962 0.0089,-0.0028 0.01966,10e-4 0.02791,-0.0035 0.01474,-0.008 0.02562,-0.02163 0.03843,-0.03245 0,0 -0.292176,0.611032 -0.292176,0.611032 z"
         id="path10964"
         style="fill:#060000;fill-opacity:1;fill-rule:evenodd;stroke:#000000;stroke-width:0.30000001;stroke-linecap:round;stroke-miterlimit:4;stroke-opacity:1;stroke-dasharray:none;stroke-dashoffset:0" />
      <path
         inkscape:connector-curvature="0"
         d="m 9.0455307,13.515957 c 0.1027589,-0.09331 0.069471,-0.02642 0.063965,-0.08313 -8.858e-4,-0.0091 -0.00319,-0.01898 2.156e-4,-0.02749 0.00702,-0.01756 0.028161,-0.02933 0.030029,-0.04815 0.00106,-0.01069 -0.01534,-0.01505 -0.02301,-0.02258 0.00358,-0.01481 0.00716,-0.02963 0.010735,-0.04444 -0.02212,-0.08094 -0.0048,0.01738 0.036411,-0.104869 0.00427,-0.01268 -0.010735,-0.02567 -0.00952,-0.039 0.004,-0.04388 0.047886,-0.07813 0.050622,-0.122109 8.443e-4,-0.01357 -0.017587,-0.02073 -0.02638,-0.0311 -0.02675,-0.06262 0.044358,-0.120367 0.043924,-0.176421 -1.135e-4,-0.01465 -0.022436,-0.02021 -0.028277,-0.03364 -0.020049,-0.04611 0.00254,-0.07045 0.020031,-0.114708 -0.012933,-0.0076 -0.025867,-0.01519 -0.0388,-0.02278 0,0 0.5501279,-0.347382 0.5501279,-0.347382 l 0,0 c 0.0025,0.01454 0.005,0.02908 0.0075,0.04362 -0.04917,0.202919 -0.00495,-0.04529 0.00967,0.0993 0.00346,0.03417 -0.032804,0.0931 -0.03198,0.126195 3.749e-4,0.01506 0.014904,0.02634 0.020029,0.0405 0.00529,0.01461 0.00735,0.0302 0.011019,0.0453 0.039644,0.166347 -0.020989,-0.125296 -0.015416,0.109115 3.421e-4,0.01439 0.029166,0.01835 0.0282,0.03271 -0.00381,0.05662 -0.0791,0.101431 -0.045954,0.166707 -0.00848,0.01884 -0.021809,0.03618 -0.025446,0.05652 -0.00426,0.02379 0.035187,0.06955 0.016854,0.09373 -0.017784,0.02345 -0.05057,0.03342 -0.066326,0.05828 -0.00682,0.01076 0.024346,-0.0075 0.03652,-0.01126 0,0 -0.6247398,0.357076 -0.6247398,0.357076 z"
         id="path10966"
         style="fill:#060000;fill-opacity:1;fill-rule:evenodd;stroke:#000000;stroke-width:0.30000001;stroke-linecap:round;stroke-miterlimit:4;stroke-opacity:1;stroke-dasharray:none;stroke-dashoffset:0" />
      <path
         inkscape:connector-curvature="0"
         d="m 9.7251314,13.22307 c -0.073156,0.07889 -0.013634,0.055 -0.01634,0.110567 -0.00533,0.109366 -0.03471,0.01247 -0.00225,0.09468 0,0 -0.4906677,0.336476 -0.4906677,0.336476 l 0,0 c -0.017963,-0.0054 -0.042417,-0.0013 -0.053889,-0.0161 -0.00963,-0.01245 0.0034,-0.0313 0.0051,-0.04695 -0.00312,-0.01042 -0.00232,-0.02297 -0.00937,-0.03125 -0.00631,-0.0074 -0.019006,-0.0057 -0.026913,-0.01137 -0.00426,-0.0031 -0.00524,-0.0091 -0.00785,-0.01363 0,0 0.6021855,-0.42243 0.6021855,-0.42243 z"
         id="path10968"
         style="fill:#060000;fill-opacity:1;fill-rule:evenodd;stroke:#000000;stroke-width:0.30000001;stroke-linecap:round;stroke-miterlimit:4;stroke-opacity:1;stroke-dasharray:none;stroke-dashoffset:0" />
      <path
         inkscape:connector-curvature="0"
         d="m 18.487076,11.590614 c -0.06639,-0.02798 0.0326,0.02225 0.02921,-0.09404 -5.24e-4,-0.01798 -0.04317,0.0097 -0.05373,-0.0049 -0.0124,-0.01709 0.0075,-0.04232 0.0044,-0.06319 -0.01144,-0.07484 -0.04027,-0.04755 -0.1089,-0.0465 0.05147,-0.134066 0.04598,-0.0603 0.02402,-0.161964 -0.0044,-0.0206 -1.58e-4,-0.04415 -0.01087,-0.0623 -0.0098,-0.01662 -0.03432,-0.01959 -0.04637,-0.03467 -0.0326,-0.04079 -0.02132,-0.06823 -0.01868,-0.116501 -0.08887,-0.08601 0.02576,-0.127015 0.0088,-0.173132 -0.0083,-0.02251 -0.06709,0.01751 -0.0717,-0.006 -0.04249,-0.216852 0.117249,-0.0053 0.0299,-0.110333 -0.02114,-0.06903 -0.01194,-0.0071 0.02612,-0.09901 0.0057,-0.01382 0.0029,-0.02993 0.0071,-0.0443 0.0048,-0.01671 0.01313,-0.03221 0.01969,-0.04832 0,0 0.541726,-0.32173 0.541726,-0.32173 l 0,0 c -0.0062,0.01885 -0.0125,0.03771 -0.01874,0.05656 0.0056,0.01016 0.01774,0.01889 0.01694,0.03049 -0.0023,0.0337 -0.0396,0.05934 -0.03039,0.09667 -0.008,0.01776 -0.01601,0.03553 -0.02401,0.05329 0.01686,0.0027 0.05319,-0.0087 0.05057,0.0082 -0.0052,0.03347 -0.05558,0.04606 -0.06409,0.07884 -0.0035,0.01367 0.03857,6.8e-5 0.03995,0.01412 0.02319,0.235894 -0.07457,-0.04143 -0.01692,0.10596 -0.04318,0.145308 -0.01879,0.0031 0.0045,0.10335 0.0073,0.03148 -0.01245,0.08654 0.01232,0.116878 0.01194,0.01463 0.04165,0.008 0.05116,0.02437 0.01068,0.01836 8.2e-5,0.04248 1.23e-4,0.06372 0.0718,0.08847 -0.0057,-0.01664 0.04494,0.0848 0.03465,0.06944 0.08493,0.05734 0.02353,0.139552 0,0 -0.470554,0.410054 -0.470554,0.410054 z"
         id="path10970"
         style="fill:#060000;fill-opacity:1;fill-rule:evenodd;stroke:#000000;stroke-width:0.30000001;stroke-linecap:round;stroke-miterlimit:4;stroke-opacity:1;stroke-dasharray:none;stroke-dashoffset:0" />
      <path
         inkscape:connector-curvature="0"
         d="m 19.441924,10.37206 c -0.08282,0.189629 -0.01395,-0.02382 0.01105,0.08333 -0.04234,0.166173 -0.01781,-0.0094 0.01756,0.104525 0.04602,0.148245 -0.05711,-0.0024 0.03212,0.111091 -0.01051,0.04326 -0.06174,0.180184 -0.02812,0.223926 0.01295,0.01685 0.05478,0.0042 0.05858,0.02512 0.03312,0.182576 -0.103525,0.02491 2.6e-4,0.127055 -0.01112,0.0269 -0.02225,0.0538 -0.03337,0.08069 0,0 -0.499387,0.345614 -0.499387,0.345614 l 0,0 c -0.0035,-0.01917 -0.007,-0.03833 -0.01055,-0.0575 0.0082,-0.05314 0.03701,-0.14845 0.0027,-0.199074 -0.01087,-0.01604 -0.042,-0.0141 -0.04824,-0.03245 -0.01376,-0.04045 0.04101,-0.08906 -0.0034,-0.128127 -0.0058,-0.01718 -0.01061,-0.03475 -0.01747,-0.05154 -0.0063,-0.01546 -0.02064,-0.02836 -0.02202,-0.04501 -8.97e-4,-0.01082 0.02815,-0.156433 0.02623,-0.162565 -0.003,-0.0096 -0.01939,-0.0049 -0.02909,-0.0074 0,0 0.543133,-0.417692 0.543133,-0.417692 z"
         id="path10972"
         style="fill:#060000;fill-opacity:1;fill-rule:evenodd;stroke:#000000;stroke-width:0.30000001;stroke-linecap:round;stroke-miterlimit:4;stroke-opacity:1;stroke-dasharray:none;stroke-dashoffset:0" />
    </g>
  </g>
</svg>
