<?xml version="1.0" encoding="UTF-8" standalone="no"?>
<!-- Created with Inkscape (http://www.inkscape.org/) -->

<svg
   xmlns:dc="http://purl.org/dc/elements/1.1/"
   xmlns:cc="http://creativecommons.org/ns#"
   xmlns:rdf="http://www.w3.org/1999/02/22-rdf-syntax-ns#"
   xmlns:svg="http://www.w3.org/2000/svg"
   xmlns="http://www.w3.org/2000/svg"
   xmlns:sodipodi="http://sodipodi.sourceforge.net/DTD/sodipodi-0.dtd"
   xmlns:inkscape="http://www.inkscape.org/namespaces/inkscape"
   width="32px"
   height="32px"
   id="svg5053"
   version="1.1"
   inkscape:version="0.48.2 r9819"
   sodipodi:docname="hill2.svg">
  <defs
     id="defs5055" />
  <sodipodi:namedview
     id="base"
     pagecolor="#ffffff"
     bordercolor="#666666"
     borderopacity="1.0"
     inkscape:pageopacity="0.0"
     inkscape:pageshadow="2"
     inkscape:zoom="22.395604"
     inkscape:cx="9.4138101"
     inkscape:cy="17.906438"
     inkscape:current-layer="layer1"
     showgrid="true"
     inkscape:grid-bbox="true"
     inkscape:document-units="px"
     inkscape:window-width="823"
     inkscape:window-height="737"
     inkscape:window-x="680"
     inkscape:window-y="0"
     inkscape:window-maximized="0" />
  <metadata
     id="metadata5058">
    <rdf:RDF>
      <cc:Work
         rdf:about="">
        <dc:format>image/svg+xml</dc:format>
        <dc:type
           rdf:resource="http://purl.org/dc/dcmitype/StillImage" />
        <dc:title />
      </cc:Work>
    </rdf:RDF>
  </metadata>
  <g
     id="layer1"
     inkscape:label="Layer 1"
     inkscape:groupmode="layer">
    <g
       id="g3040">
      <path
         style="opacity:0.85409253;fill:#000000;fill-opacity:1;fill-rule:evenodd;stroke:#001003;stroke-width:0.30000001;stroke-linecap:round;stroke-miterlimit:4;stroke-opacity:1;stroke-dasharray:none;stroke-dashoffset:0"
         d="m 5.0789922,17.403046 c 0.4898359,-0.542969 0.90681,-1.15558 1.4674414,-1.631706 0.6606503,-0.824499 1.4707595,-1.523531 2.3113246,-2.159159 0.7403617,-0.42739 1.5198658,-0.845916 2.3894518,-0.906652 0.530425,-0.02695 1.066667,-0.03624 1.594689,-0.03877 1.164848,0.241702 2.334073,0.720819 3.181798,1.579925 0.401811,0.508864 0.921411,0.915991 1.266061,1.47286 0.37746,0.563654 0.948694,0.934659 1.361626,1.464335 0.306114,0.246569 0.624627,0.763856 -0.01,0.726335 -0.658963,0.05641 -0.822262,-0.716807 -1.270305,-1.03537 -0.454143,-0.347389 -0.714003,-0.849133 -1.040619,-1.303212 -0.436273,-0.606728 -0.935117,-1.188613 -1.535602,-1.636439 -0.735095,-0.480727 -1.598581,-0.7175 -2.442407,-0.923514 -0.277465,-0.06467 -0.651596,-3.29e-4 -0.114178,-0.0265 0.346027,-0.03697 -0.586919,-0.01456 -0.745021,0.02633 -0.974788,0.120497 -1.8486506,0.610607 -2.6598095,1.132545 -0.7760476,0.597516 -1.4350452,1.326653 -2.1010443,2.040483 -0.4508829,0.323382 -0.3727019,1.092171 -0.8742783,1.282254 -0.2620482,0.016 -0.5164856,-0.09053 -0.7791547,-0.06375 z"
         id="path3022"
         inkscape:connector-curvature="0" />
      <path
         style="opacity:0.85409253;fill:#000000;fill-opacity:1;fill-rule:evenodd;stroke:#001003;stroke-width:0.30000001;stroke-linecap:round;stroke-miterlimit:4;stroke-opacity:1;stroke-dasharray:none;stroke-dashoffset:0"
         d="m 12.36236,15.928778 c -0.458688,0.104649 -0.899637,0.400569 -1.031725,0.866578 -0.443579,0.291339 -0.981043,0.551374 -1.5041174,0.628875 -0.2476757,0.0038 -0.8943883,-0.269382 -0.3385893,-0.348043 0.5448217,-0.160545 1.1298547,-0.378313 1.2883797,-0.963215 0.432443,-0.575494 1.006514,-0.411092 1.586052,-0.184195 z"
         id="path3026"
         inkscape:connector-curvature="0" />
      <path
         style="opacity:0.85409253;fill:#000000;fill-opacity:1;fill-rule:evenodd;stroke:#001003;stroke-width:0.30000001;stroke-linecap:round;stroke-miterlimit:4;stroke-opacity:1;stroke-dasharray:none;stroke-dashoffset:0"
         d="m 9.6684342,15.440371 c -0.3887777,-0.133155 -0.1385432,-0.04597 0.1224098,-0.07888 -0.56781,-0.02324 -0.8270102,0.476002 -1.0974857,0.88392 -0.3013537,0.348094 -0.5170713,1.080628 -1.1120759,0.809695 -0.675273,-0.125418 0.2761597,-0.541501 0.3575107,-0.896087 0.2990882,-0.605301 0.7798142,-1.226952 1.5389048,-1.157564 0.2189861,0.069 0.9984221,-0.04268 0.9206421,0.162335 -0.251286,0.06981 -0.487089,0.182527 -0.7299058,0.276577 z"
         id="path3028"
         inkscape:connector-curvature="0" />
      <path
         style="opacity:0.85409253;fill:#000000;fill-opacity:1;fill-rule:evenodd;stroke:#001003;stroke-width:0.30000001;stroke-linecap:round;stroke-miterlimit:4;stroke-opacity:1;stroke-dasharray:none;stroke-dashoffset:0"
         d="m 16.035468,14.360363 c 0.26527,0.558638 0.12085,1.287105 -0.41399,1.621087 -0.05334,0.429765 -0.241926,0.829172 -0.742828,0.639638 -0.551488,-0.259259 -0.02243,-1.005924 0.350538,-1.221483 0.304613,-0.274548 -0.144806,-0.78978 0.0905,-0.978481 0.240903,0.02243 0.476671,-0.036 0.715784,-0.06076 z"
         id="path3030"
         inkscape:connector-curvature="0" />
      <path
         style="opacity:0.85409253;fill:#000000;fill-opacity:1;fill-rule:evenodd;stroke:#001003;stroke-width:0.30000001;stroke-linecap:round;stroke-miterlimit:4;stroke-opacity:1;stroke-dasharray:none;stroke-dashoffset:0"
         d="M 8.659365,17.937013 C 9.0213711,17.57034 9.464089,17.21258 9.9804448,17.55679 10.265814,17.65565 9.7123412,17.85427 9.644589,18.020307 9.3221055,18.154259 8.9861899,17.935319 8.659365,17.937013 z"
         id="path3036"
         inkscape:connector-curvature="0" />
      <path
         style="opacity:0.85409253;fill:#000000;fill-opacity:1;fill-rule:evenodd;stroke:#001003;stroke-width:0.30000001;stroke-linecap:round;stroke-miterlimit:4;stroke-opacity:1;stroke-dasharray:none;stroke-dashoffset:0"
         d="m 15.51597,16.811883 c -0.01139,0.307674 0.09594,0.692578 -0.358065,0.62196 -0.421838,0.23919 -0.880276,-0.727333 -0.392235,-0.77411 0.253725,0.05729 0.487514,0.151881 0.7503,0.15215 z"
         id="path3038"
         inkscape:connector-curvature="0" />
    </g>
  </g>
</svg>
