<?xml version="1.0" encoding="UTF-8" standalone="no"?>
<!-- Created with Inkscape (http://www.inkscape.org/) -->

<svg
   xmlns:dc="http://purl.org/dc/elements/1.1/"
   xmlns:cc="http://creativecommons.org/ns#"
   xmlns:rdf="http://www.w3.org/1999/02/22-rdf-syntax-ns#"
   xmlns:svg="http://www.w3.org/2000/svg"
   xmlns="http://www.w3.org/2000/svg"
   xmlns:sodipodi="http://sodipodi.sourceforge.net/DTD/sodipodi-0.dtd"
   xmlns:inkscape="http://www.inkscape.org/namespaces/inkscape"
   width="32px"
   height="32px"
   id="svg5053"
   version="1.1"
   inkscape:version="0.48.2 r9819"
   sodipodi:docname="hill3.svg">
  <defs
     id="defs5055" />
  <sodipodi:namedview
     id="base"
     pagecolor="#ffffff"
     bordercolor="#666666"
     borderopacity="1.0"
     inkscape:pageopacity="0.0"
     inkscape:pageshadow="2"
     inkscape:zoom="15.836083"
     inkscape:cx="15.715231"
     inkscape:cy="14.827704"
     inkscape:current-layer="layer1"
     showgrid="true"
     inkscape:grid-bbox="true"
     inkscape:document-units="px"
     inkscape:window-width="752"
     inkscape:window-height="651"
     inkscape:window-x="734"
     inkscape:window-y="117"
     inkscape:window-maximized="0" />
  <metadata
     id="metadata5058">
    <rdf:RDF>
      <cc:Work
         rdf:about="">
        <dc:format>image/svg+xml</dc:format>
        <dc:type
           rdf:resource="http://purl.org/dc/dcmitype/StillImage" />
        <dc:title />
      </cc:Work>
    </rdf:RDF>
  </metadata>
  <g
     id="layer1"
     inkscape:label="Layer 1"
     inkscape:groupmode="layer">
    <g
       id="g3281">
      <path
         style="opacity:0.85409253;fill:#000000;fill-opacity:1;fill-rule:evenodd;stroke:#001003;stroke-width:0.30000001;stroke-linecap:round;stroke-miterlimit:4;stroke-opacity:1;stroke-dasharray:none;stroke-dashoffset:0"
         d="m 4.3712832,17.175418 c 0.6367721,-0.777143 1.1632926,-1.641986 2.0384974,-2.192621 0.8306921,-0.337724 1.6714623,-0.651955 2.5733016,-0.681578 0.9246837,-0.110029 1.8952428,-0.138648 2.7356978,0.330119 0.833731,0.337687 1.640215,0.776622 2.394071,1.256282 0.785056,0.682563 1.741786,1.083578 2.685863,1.480374 1.245751,0.18903 -0.738421,0.914593 -1.023191,0.325503 -1.074626,-0.470086 -2.138758,-1.024071 -3.026967,-1.794281 -1.043831,-0.564309 -2.131942,-1.222739 -3.3625507,-1.18741 0.4646164,-0.0118 0.8293927,-0.05387 0.1635953,-0.0072 -1.3846897,0.104641 -2.7366199,0.789058 -3.5205123,1.955004 -0.2713031,0.951645 -0.9268349,0.448121 -1.6578051,0.515812 z"
         id="path3267"
         inkscape:connector-curvature="0" />
      <path
         style="opacity:0.85409253;fill:#000000;fill-opacity:1;fill-rule:evenodd;stroke:#001003;stroke-width:0.30000001;stroke-linecap:round;stroke-miterlimit:4;stroke-opacity:1;stroke-dasharray:none;stroke-dashoffset:0"
         d="m 13.141169,14.939571 c 0.85327,-0.281324 1.603107,-0.751105 2.30877,-1.283405 0.779763,-0.423801 1.503132,-0.882327 2.30614,-1.257899 0.728729,-0.331667 1.486537,-0.699926 2.314896,-0.579688 1.189653,-0.03579 2.254384,0.659088 3.154682,1.366328 0.730793,0.446653 1.385864,0.977448 1.938683,1.633933 0.790924,0.666167 1.593916,1.322841 2.405985,1.965173 -0.364554,0.386866 -1.374385,0.52029 -1.656007,-0.186358 C 24.34188,15.186057 22.82678,13.63747 20.947763,12.623021 20.5226,12.376052 18.967374,12.251968 20.23355,12.264859 c -0.541112,0.139082 -1.498277,0.469564 -2.139001,0.82725 -0.815832,0.234566 -1.504939,0.796889 -2.214211,1.238552 -0.70846,0.461423 -1.44955,1.27911 -2.338465,0.722096 l -0.200363,-0.05658 -0.200346,-0.05661 5e-6,-10e-7 z"
         id="path3269"
         inkscape:connector-curvature="0" />
      <path
         style="opacity:0.85409253;fill:#000000;fill-opacity:1;fill-rule:evenodd;stroke:#001003;stroke-width:0.30000001;stroke-linecap:round;stroke-miterlimit:4;stroke-opacity:1;stroke-dasharray:none;stroke-dashoffset:0"
         d="m 18.77081,14.639235 c -1.04445,0.388039 -1.922562,1.143227 -2.910965,1.609438 -0.491171,-0.01221 -1.483067,-0.352989 -0.558488,-0.591251 0.958142,-0.289891 1.781929,-1.460369 2.731791,-1.254459 0.245883,0.07877 0.491773,0.157541 0.737662,0.236272 z"
         id="path3271"
         inkscape:connector-curvature="0" />
      <path
         style="opacity:0.85409253;fill:#000000;fill-opacity:1;fill-rule:evenodd;stroke:#001003;stroke-width:0.30000001;stroke-linecap:round;stroke-miterlimit:4;stroke-opacity:1;stroke-dasharray:none;stroke-dashoffset:0"
         d="m 20.030922,15.815121 c -0.739877,0.580727 -1.575747,1.23366 -2.521522,0.644214 0.739572,-0.304949 1.225449,-1.386648 2.11213,-0.759827 l 0.204721,0.0578 0.204671,0.05781 0,0 z"
         id="path3273"
         inkscape:connector-curvature="0" />
      <path
         style="opacity:0.85409253;fill:#000000;fill-opacity:1;fill-rule:evenodd;stroke:#001003;stroke-width:0.30000001;stroke-linecap:round;stroke-miterlimit:4;stroke-opacity:1;stroke-dasharray:none;stroke-dashoffset:0"
         d="m 6.3583451,16.011871 c -0.8629285,0.679063 -1.816557,1.226154 -2.8204773,1.662378 -0.293312,0.384302 -0.7092498,0.0021 -1.0781464,-0.05958 -0.2351221,-0.312723 1.0691884,-0.501446 1.3683942,-0.814775 0.7710678,-0.387149 1.2114666,-1.319281 2.1833122,-0.840982 0.115643,0.01763 0.2313014,0.03521 0.3469173,0.05295 z"
         id="path3275"
         inkscape:connector-curvature="0" />
      <path
         style="opacity:0.85409253;fill:#000000;fill-opacity:1;fill-rule:evenodd;stroke:#001003;stroke-width:0.30000001;stroke-linecap:round;stroke-miterlimit:4;stroke-opacity:1;stroke-dasharray:none;stroke-dashoffset:0"
         d="M 7.9304292,17.165446 C 7.0741473,17.560734 6.6584771,18.790899 5.7422806,18.850724 5.2889719,18.721873 4.6463883,18.687924 5.3722317,18.379416 6.163761,18.054525 6.3045524,16.576907 7.3118753,17.06115 c 0.208174,0.02119 0.4123183,0.07028 0.6185539,0.104296 z"
         id="path3277"
         inkscape:connector-curvature="0" />
      <path
         style="opacity:0.85409253;fill:#000000;fill-opacity:1;fill-rule:evenodd;stroke:#001003;stroke-width:0.30000001;stroke-linecap:round;stroke-miterlimit:4;stroke-opacity:1;stroke-dasharray:none;stroke-dashoffset:0"
         d="m 20.945364,17.700278 c -0.261428,0.634194 -1.522291,0.329047 -1.653574,0.05278 0.45551,-0.680529 1.044796,-0.144769 1.653574,-0.05278 z"
         id="path3279"
         inkscape:connector-curvature="0" />
    </g>
  </g>
</svg>
