<?xml version="1.0" encoding="UTF-8" standalone="no"?>
<!-- Created with Inkscape (http://www.inkscape.org/) -->

<svg
   xmlns:dc="http://purl.org/dc/elements/1.1/"
   xmlns:cc="http://creativecommons.org/ns#"
   xmlns:rdf="http://www.w3.org/1999/02/22-rdf-syntax-ns#"
   xmlns:svg="http://www.w3.org/2000/svg"
   xmlns="http://www.w3.org/2000/svg"
   xmlns:sodipodi="http://sodipodi.sourceforge.net/DTD/sodipodi-0.dtd"
   xmlns:inkscape="http://www.inkscape.org/namespaces/inkscape"
   width="32px"
   height="32px"
   id="svg5053"
   version="1.1"
   inkscape:version="0.48.2 r9819"
   sodipodi:docname="hill4.svg">
  <defs
     id="defs5055" />
  <sodipodi:namedview
     id="base"
     pagecolor="#ffffff"
     bordercolor="#666666"
     borderopacity="1.0"
     inkscape:pageopacity="0.0"
     inkscape:pageshadow="2"
     inkscape:zoom="15.836083"
     inkscape:cx="7.468621"
     inkscape:cy="19.774935"
     inkscape:current-layer="layer1"
     showgrid="true"
     inkscape:grid-bbox="true"
     inkscape:document-units="px"
     inkscape:window-width="1600"
     inkscape:window-height="852"
     inkscape:window-x="0"
     inkscape:window-y="0"
     inkscape:window-maximized="1" />
  <metadata
     id="metadata5058">
    <rdf:RDF>
      <cc:Work
         rdf:about="">
        <dc:format>image/svg+xml</dc:format>
        <dc:type
           rdf:resource="http://purl.org/dc/dcmitype/StillImage" />
        <dc:title />
      </cc:Work>
    </rdf:RDF>
  </metadata>
  <g
     id="layer1"
     inkscape:label="Layer 1"
     inkscape:groupmode="layer">
    <g
       id="g3081">
      <g
         id="g3040">
        <path
           sodipodi:nodetypes="ccccc"
           inkscape:connector-curvature="0"
           id="path3024"
           d="m 4.1154719,21.742901 c 1.1208375,-0.918626 3.3831405,-4.122455 3.9699004,-5.469907 0.077161,-0.639955 1.195188,-0.639829 0.5935256,0.01005 -0.7632656,1.203835 -2.7707815,4.565867 -3.8438151,5.51406 -0.2264784,0.118181 -0.5092965,0.08052 -0.7196109,-0.0542 z"
           style="opacity:0.85409253;fill:none;stroke:#000000;stroke-width:1.60000002;stroke-linecap:round;stroke-miterlimit:4;stroke-opacity:1;stroke-dasharray:none;stroke-dashoffset:0" />
        <path
           inkscape:connector-curvature="0"
           id="path3026"
           d="m 8.9737537,15.395072 c 1.9876963,2.09517 4.6884033,3.25578 6.9911883,4.938627 0.588703,0.128105 0.680202,0.893499 -0.03955,0.525558 -0.887244,-0.411539 -1.565867,-1.186801 -2.448309,-1.632321 -1.648441,-0.998624 -3.223937,-2.114291 -4.7427,-3.299426 -0.6865256,-0.451373 -0.2232801,-0.486421 0.2393717,-0.532438 z"
           style="opacity:0.85409253;fill:none;stroke:#000000;stroke-width:1.60000002;stroke-linecap:round;stroke-miterlimit:4;stroke-opacity:1;stroke-dasharray:none;stroke-dashoffset:0" />
        <path
           sodipodi:nodetypes="cccccc"
           inkscape:connector-curvature="0"
           id="path3028"
           d="m 15.454832,8.1311283 c -0.975511,1.6273494 -0.919816,3.6438197 -1.892273,5.2772717 -0.42408,0.769092 -1.544263,3.601924 -2.375659,3.465357 -0.117111,-1.235126 1.97809,-2.933545 2.108146,-4.165033 0.523632,-1.398074 0.785584,-2.8757612 1.267307,-4.2871394 0.166239,-0.2954161 0.580181,-0.4950833 0.892479,-0.2904563 z"
           style="opacity:0.85409253;fill:none;stroke:#000000;stroke-width:1.60000002;stroke-linecap:round;stroke-miterlimit:4;stroke-opacity:1;stroke-dasharray:none;stroke-dashoffset:0" />
        <path
           inkscape:connector-curvature="0"
           id="path3030"
           d="m 15.560977,8.4736678 c 0.663767,1.1172337 1.736844,1.9106982 2.474199,2.9773722 1.281136,1.536765 2.441252,3.169078 3.46744,4.885786 0.684833,0.952561 1.379387,1.90954 2.112547,2.816061 0.450614,0.861257 -0.669931,0.504851 -0.72068,-0.108081 C 21.513003,17.117198 20.219033,15.126404 18.8622,13.183092 17.736595,11.917797 16.713524,10.565361 15.52675,9.3544597 15.2089,8.9244843 14.453779,8.4478896 15.560977,8.4736678 z"
           style="opacity:0.85409253;fill:none;stroke:#000000;stroke-width:1.60000002;stroke-linecap:round;stroke-miterlimit:4;stroke-opacity:1;stroke-dasharray:none;stroke-dashoffset:0" />
        <path
           inkscape:connector-curvature="0"
           id="path3032"
           d="m 14.478943,15.074877 c -0.229198,0.423514 -1.204836,1.548098 -1.334501,0.776844 0.363862,-0.374872 0.680253,-1.154367 1.334501,-0.776844 z"
           style="opacity:0.85409253;fill:none;stroke:#000000;stroke-width:1.60000002;stroke-linecap:round;stroke-miterlimit:4;stroke-opacity:1;stroke-dasharray:none;stroke-dashoffset:0" />
        <path
           inkscape:connector-curvature="0"
           id="path3034"
           d="m 16.752081,16.916302 c 0.09841,0.781395 -1.637334,0.911397 -0.741313,0.107982 0.173551,-0.25991 0.491092,-0.235907 0.741313,-0.107982 z"
           style="opacity:0.85409253;fill:none;stroke:#000000;stroke-width:1.60000002;stroke-linecap:round;stroke-miterlimit:4;stroke-opacity:1;stroke-dasharray:none;stroke-dashoffset:0" />
        <path
           inkscape:connector-curvature="0"
           id="path3038"
           d="M 7.9684865,20.09194 C 7.2472481,20.480837 6.8785314,21.620627 6.0196884,21.600494 5.7289825,21.095056 6.9564669,20.563293 7.1816036,20.030696 7.4346385,19.90173 7.718298,20.022012 7.9684865,20.09194 z"
           style="opacity:0.85409253;fill:none;stroke:#000000;stroke-width:1.60000002;stroke-linecap:round;stroke-miterlimit:4;stroke-opacity:1;stroke-dasharray:none;stroke-dashoffset:0" />
      </g>
    </g>
  </g>
</svg>
