<?xml version="1.0" encoding="UTF-8" standalone="no"?>
<!-- Created with Inkscape (http://www.inkscape.org/) -->

<svg
   xmlns:dc="http://purl.org/dc/elements/1.1/"
   xmlns:cc="http://creativecommons.org/ns#"
   xmlns:rdf="http://www.w3.org/1999/02/22-rdf-syntax-ns#"
   xmlns:svg="http://www.w3.org/2000/svg"
   xmlns="http://www.w3.org/2000/svg"
   xmlns:sodipodi="http://sodipodi.sourceforge.net/DTD/sodipodi-0.dtd"
   xmlns:inkscape="http://www.inkscape.org/namespaces/inkscape"
   width="32px"
   height="32px"
   id="svg5053"
   version="1.1"
   inkscape:version="0.48.2 r9819"
   sodipodi:docname="hill1.svg">
  <defs
     id="defs5055" />
  <sodipodi:namedview
     id="base"
     pagecolor="#ffffff"
     bordercolor="#666666"
     borderopacity="1.0"
     inkscape:pageopacity="0.0"
     inkscape:pageshadow="2"
     inkscape:zoom="15.836083"
     inkscape:cx="8.0833991"
     inkscape:cy="21.780128"
     inkscape:current-layer="layer1"
     showgrid="true"
     inkscape:grid-bbox="true"
     inkscape:document-units="px"
     inkscape:window-width="1600"
     inkscape:window-height="852"
     inkscape:window-x="0"
     inkscape:window-y="0"
     inkscape:window-maximized="1" />
  <metadata
     id="metadata5058">
    <rdf:RDF>
      <cc:Work
         rdf:about="">
        <dc:format>image/svg+xml</dc:format>
        <dc:type
           rdf:resource="http://purl.org/dc/dcmitype/StillImage" />
        <dc:title />
      </cc:Work>
    </rdf:RDF>
  </metadata>
  <g
     id="layer1"
     inkscape:label="Layer 1"
     inkscape:groupmode="layer">
    <g
       id="g3065"
       transform="translate(32.015492,-0.82091005)">
      <path
         style="opacity:0.85409253;fill:#000000;fill-opacity:1;fill-rule:evenodd;stroke:#001003;stroke-width:0.30000001;stroke-linecap:round;stroke-miterlimit:4;stroke-opacity:1;stroke-dasharray:none;stroke-dashoffset:0"
         d="m -24.498269,23.248997 c 0.143502,-0.330823 0.609545,-0.847995 0.862055,-1.286034 0.43068,-0.512611 0.997196,-0.897252 1.483671,-1.358047 0.619345,-0.324548 1.222957,-0.713612 1.867975,-0.98193 0.559678,-0.244237 1.086162,-0.555694 1.688856,-0.696626 0.721997,-0.250213 1.485768,-0.347478 2.24566,-0.255532 0.606226,-0.04401 1.238015,-0.05272 1.799981,0.219354 0.646739,0.123545 1.250578,0.48428 1.765238,0.89324 0.483632,0.389318 0.995007,0.811455 1.446966,1.181391 0.572129,0.247873 1.12168,0.542381 1.6484051,0.870765 0.4600356,0.233648 1.1044207,0.506339 1.4343801,0.766022 -0.5554083,0.115406 -1.1656837,0.574871 -1.6562812,0.07235 -0.719159,-0.423849 -1.491873,-0.745477 -2.203917,-1.182181 -0.453614,-0.268009 -0.870003,-0.524599 -1.311692,-0.903734 -0.43294,-0.387347 -0.857755,-0.799639 -1.419992,-0.99756 -0.619695,-0.309797 -1.333649,-0.455175 -2.02142,-0.448566 0.269031,0.02685 1.347394,0.0087 0.54904,0.01121 -0.492384,0.02865 -0.978165,0.164412 -1.455477,0.279105 -0.471858,0.142685 -0.929884,0.297655 -1.360323,0.535792 -0.570056,0.199592 -1.081493,0.500164 -1.59671,0.805008 -0.572397,0.290125 -1.014802,0.748398 -1.463574,1.191195 -0.527365,0.307364 -0.567895,1.001844 -0.98169,1.303665 -0.182132,0.331889 -0.94657,-0.07328 -1.321151,-0.01888 z"
         id="path3036"
         inkscape:connector-curvature="0" />
      <path
         style="opacity:0.85409253;fill:#000000;fill-opacity:1;fill-rule:evenodd;stroke:#001003;stroke-width:0.30000001;stroke-linecap:round;stroke-miterlimit:4;stroke-opacity:1;stroke-dasharray:none;stroke-dashoffset:0"
         d="m -22.359799,22.426336 c 0.479327,0.331103 0.958286,0.694387 1.559852,0.749188 0.376435,0.171827 1.086203,0.509135 1.279556,0.553299 -0.31425,0.117828 -0.6285,0.235656 -0.94275,0.353484 -0.648135,-0.142759 -1.198241,-0.562347 -1.853156,-0.689138 -0.325904,-0.194958 -1.120889,-0.453655 -1.131129,-0.659476 0.362302,-0.103062 0.725216,-0.204402 1.087627,-0.307357 z"
         id="path3042"
         inkscape:connector-curvature="0" />
      <path
         style="opacity:0.85409253;fill:#000000;fill-opacity:1;fill-rule:evenodd;stroke:#001003;stroke-width:0.30000001;stroke-linecap:round;stroke-miterlimit:4;stroke-opacity:1;stroke-dasharray:none;stroke-dashoffset:0"
         d="m -21.507545,21.498598 c 0.372904,0.123298 0.970072,0.357609 1.462204,0.454576 0.254677,0.194752 1.283529,0.200698 1.077062,0.42373 -0.292063,0.11507 -0.584126,0.230141 -0.876189,0.345211 -0.486657,-0.22628 -1.043361,-0.23004 -1.535284,-0.450179 -0.34978,-0.127764 -0.986663,-0.158063 -1.182171,-0.277383 0.351558,-0.165065 0.702987,-0.33047 1.054378,-0.495955 z"
         id="path3044"
         inkscape:connector-curvature="0" />
      <path
         style="opacity:0.85409253;fill:#000000;fill-opacity:1;fill-rule:evenodd;stroke:#001003;stroke-width:0.30000001;stroke-linecap:round;stroke-miterlimit:4;stroke-opacity:1;stroke-dasharray:none;stroke-dashoffset:0"
         d="m -19.692393,20.354506 c 0.563359,0.146547 1.121298,0.344404 1.691828,0.430156 -0.471081,0.267947 -1.05988,0.565002 -1.619014,0.299935 -0.28202,-0.205686 -1.229829,-0.0955 -1.114707,-0.423308 0.348384,-0.09849 0.694576,-0.204595 1.041893,-0.306783 z"
         id="path3046"
         inkscape:connector-curvature="0" />
      <path
         style="opacity:0.85409253;fill:#000000;fill-opacity:1;fill-rule:evenodd;stroke:#001003;stroke-width:0.30000001;stroke-linecap:round;stroke-miterlimit:4;stroke-opacity:1;stroke-dasharray:none;stroke-dashoffset:0"
         d="m -10.217401,22.268961 c -0.429551,0.471677 -0.99554,0.7872 -1.552514,1.079441 -0.347989,0.105709 -0.656313,-0.155384 -0.99311,-0.215673 -0.527385,-0.101339 0.387153,-0.299573 0.531765,-0.475712 0.365238,-0.200278 0.697052,-0.798471 1.296585,-0.501164 0.23909,0.0377 0.478188,0.07541 0.717274,0.113108 z"
         id="path3048"
         inkscape:connector-curvature="0" />
    </g>
  </g>
</svg>
