<?xml version="1.0" encoding="UTF-8" standalone="no"?>
<!-- Created with Inkscape (http://www.inkscape.org/) -->

<svg
   xmlns:dc="http://purl.org/dc/elements/1.1/"
   xmlns:cc="http://creativecommons.org/ns#"
   xmlns:rdf="http://www.w3.org/1999/02/22-rdf-syntax-ns#"
   xmlns:svg="http://www.w3.org/2000/svg"
   xmlns="http://www.w3.org/2000/svg"
   xmlns:sodipodi="http://sodipodi.sourceforge.net/DTD/sodipodi-0.dtd"
   xmlns:inkscape="http://www.inkscape.org/namespaces/inkscape"
   width="32px"
   height="32px"
   id="svg5053"
   version="1.1"
   inkscape:version="0.48.2 r9819"
   sodipodi:docname="mtn2.svg">
  <defs
     id="defs5055" />
  <sodipodi:namedview
     id="base"
     pagecolor="#ffffff"
     bordercolor="#666666"
     borderopacity="1.0"
     inkscape:pageopacity="0.0"
     inkscape:pageshadow="2"
     inkscape:zoom="3.9590209"
     inkscape:cx="-27.978835"
     inkscape:cy="31.085926"
     inkscape:current-layer="layer1"
     showgrid="true"
     inkscape:grid-bbox="true"
     inkscape:document-units="px"
     inkscape:window-width="853"
     inkscape:window-height="639"
     inkscape:window-x="52"
     inkscape:window-y="102"
     inkscape:window-maximized="0" />
  <metadata
     id="metadata5058">
    <rdf:RDF>
      <cc:Work
         rdf:about="">
        <dc:format>image/svg+xml</dc:format>
        <dc:type
           rdf:resource="http://purl.org/dc/dcmitype/StillImage" />
        <dc:title />
      </cc:Work>
    </rdf:RDF>
  </metadata>
  <g
     id="layer1"
     inkscape:label="Layer 1"
     inkscape:groupmode="layer">
    <g
       transform="matrix(0.15505251,0,0,0.17994109,-11.72068,-76.440983)"
       id="g3965">
      <path
         style="opacity:0.85409253;fill:#000000;fill-opacity:1;fill-rule:evenodd;stroke:#001003;stroke-width:0.30000001;stroke-linecap:round;stroke-miterlimit:4;stroke-opacity:1;stroke-dasharray:none;stroke-dashoffset:0"
         d="m 162.67499,465.01805 c -3.53702,2.94567 -6.04821,6.90937 -9.67773,9.69301 -4.00435,3.06472 -5.83645,7.26335 -8.57022,11.15728 -3.06062,4.16888 -8.20466,6.65682 -10.39508,11.3593 -1.163,4.63599 -4.30421,8.90837 -8.01756,11.92118 -4.75992,2.53501 -8.11057,7.57898 -13.40106,8.81931 -2.92328,-0.73469 -5.79591,-1.66011 -8.69729,-2.47729 5.39957,-2.62248 10.32752,-6.27118 14.57698,-10.53366 3.95223,-2.81674 5.27803,-5.07225 6.35486,-9.89015 1.83165,-4.1616 6.40629,-7.28424 9.65054,-10.68596 3.59372,-3.7558 3.52757,-8.92422 8.39442,-11.66458 4.13232,-2.48405 6.13285,-7.16849 10.11868,-9.53501 3.22381,0.58925 6.4406,1.23364 9.66346,1.83657 z"
         id="path3898"
         inkscape:connector-curvature="0" />
      <path
         style="opacity:0.85409253;fill:#000000;fill-opacity:1;fill-rule:evenodd;stroke:#001003;stroke-width:0.30000001;stroke-linecap:round;stroke-miterlimit:4;stroke-opacity:1;stroke-dasharray:none;stroke-dashoffset:0"
         d="m 165.31124,459.53511 c 4.05574,1.8547 8.95525,2.59665 11.39775,7.05005 3.33531,3.25591 6.23465,6.81822 10.28204,9.27511 4.13797,3.62775 9.29389,5.54955 14.74316,5.71703 3.6945,2.52112 5.8082,6.09242 9.3525,9.11198 3.77559,3.44442 6.32306,7.90062 9.54716,11.66036 1.92156,4.156 6.64934,5.90824 9.71112,9.17126 1.88842,2.02308 9.03391,4.4328 7.57786,6.67855 -4.81868,1.43916 -9.18357,2.73297 -12.73975,-1.53602 -4.78753,-3.50834 -10.24059,-6.53225 -13.39125,-11.76405 -1.73218,-0.33506 -0.68911,-3.45206 -3.11297,-3.20509 -3.09763,-4.72701 -6.92645,-8.72885 -11.05166,-12.6316 -2.64414,-5.62297 -9.57434,-2.99775 -13.90418,-6.1857 -3.41039,-3.465 -8.73865,-4.85873 -11.35038,-9.17064 -2.74276,-3.13677 -6.17429,-5.86877 -9.20827,-8.46099 -1.90449,-0.87043 -10.16121,-0.47296 -4.56645,-2.59648 2.2693,-0.96341 4.47041,-2.08884 6.71332,-3.11377 z"
         id="path3900"
         inkscape:connector-curvature="0" />
      <path
         style="opacity:0.85409253;fill:#000000;fill-opacity:1;fill-rule:evenodd;stroke:#001003;stroke-width:0.31901905;stroke-linecap:round;stroke-miterlimit:4;stroke-opacity:1;stroke-dasharray:none;stroke-dashoffset:0"
         d="m 194.70955,492.33492 c -1.93355,5.76181 -8.52338,7.12445 -11.7802,11.57393 -2.42473,5.11672 3.23103,10.21105 -0.26445,14.84004 -1.6153,3.47826 -0.87102,10.04544 -6.68688,7.23616 -2.61346,-0.72976 -8.50189,-0.37668 -4.41249,-3.83318 0.31056,-4.04835 3.64297,-8.22151 1.25382,-12.07049 -2.04664,-4.53616 -0.24281,-9.5716 4.21239,-12.04613 1.78047,-2.96257 7.57566,-4.93956 7.12701,-7.46048 3.58262,0.11093 7.01834,1.27916 10.5508,1.76015 z"
         id="path3902"
         inkscape:connector-curvature="0" />
      <path
         style="opacity:0.85409253;fill:#000000;fill-opacity:1;fill-rule:evenodd;stroke:#001003;stroke-width:0.30000001;stroke-linecap:round;stroke-miterlimit:4;stroke-opacity:1;stroke-dasharray:none;stroke-dashoffset:0"
         d="m 149.34585,494.04666 c -3.13635,1.36937 -4.94094,4.50526 -5.87749,5.11674 -4.6617,1.29726 -5.20503,9.35472 -10.83914,7.54192 -2.08747,-0.21997 -4.17493,-0.43993 -6.2624,-0.65989 -0.57098,-3.74138 3.12346,-2.79656 3.12597,-5.88106 3.12352,-3.35143 7.05213,-5.75507 9.75888,-8.24542 3.3674,0.3558 6.7273,1.52667 10.09418,2.12771 z"
         id="path3904"
         inkscape:connector-curvature="0" />
      <path
         style="opacity:0.85409253;fill:#000000;fill-opacity:1;fill-rule:evenodd;stroke:#001003;stroke-width:0.30000001;stroke-linecap:round;stroke-miterlimit:4;stroke-opacity:1;stroke-dasharray:none;stroke-dashoffset:0"
         d="m 147.20496,497.57975 c 3.28,3.75331 8.62504,5.01708 12.73528,7.92891 4.1481,2.06475 -0.8644,2.08259 -2.75516,2.73689 -1.77199,0.0527 -4.01913,1.69498 -5.47884,0.7031 -3.82141,-3.27879 -9.15335,-3.93581 -12.56763,-7.65076 -4.91694,-3.51586 5.02184,-2.64501 7.45175,-3.6244 l 0.6146,-0.0937 z"
         id="path3906"
         inkscape:connector-curvature="0" />
      <path
         style="opacity:0.85409253;fill:#000000;fill-opacity:1;fill-rule:evenodd;stroke:#001003;stroke-width:0.30000001;stroke-linecap:round;stroke-miterlimit:4;stroke-opacity:1;stroke-dasharray:none;stroke-dashoffset:0"
         d="m 142.47205,493.33945 c -1.97818,2.80422 -8.53815,0.29295 -11.23911,-0.68743 1.97459,-2.84998 5.84069,-0.0178 8.7146,0.12313 0.8415,0.1881 1.68301,0.3762 2.52451,0.5643 z"
         id="path3908"
         inkscape:connector-curvature="0" />
      <path
         style="opacity:0.85409253;fill:#000000;fill-opacity:1;fill-rule:evenodd;stroke:#001003;stroke-width:0.30000001;stroke-linecap:round;stroke-miterlimit:4;stroke-opacity:1;stroke-dasharray:none;stroke-dashoffset:0"
         d="m 153.65519,489.34525 c -2.31025,0.0322 -9.59226,0.95035 -8.57764,0.16365 3.89418,-0.29223 7.48436,1.69787 11.22031,2.55188 -3.12624,2.50866 -8.17045,1.27005 -12.01896,1.74647 3.08197,-1.56741 6.25809,-2.96218 9.37629,-4.462 z"
         id="path3910"
         inkscape:connector-curvature="0" />
      <path
         style="opacity:0.85409253;fill:#000000;fill-opacity:1;fill-rule:evenodd;stroke:#001003;stroke-width:0.30000001;stroke-linecap:round;stroke-miterlimit:4;stroke-opacity:1;stroke-dasharray:none;stroke-dashoffset:0"
         d="m 179.57994,488.09276 c 1.22246,3.11384 8.76149,5.77719 2.50066,6.19131 -2.29813,0.56393 -4.59626,1.12787 -6.89439,1.69181 -1.46682,-2.77699 -9.50683,-6.25468 -2.07757,-6.40721 2.14254,-0.54787 4.31689,-0.97447 6.4713,-1.47591 z"
         id="path3912"
         inkscape:connector-curvature="0" />
      <path
         style="opacity:0.85409253;fill:#000000;fill-opacity:1;fill-rule:evenodd;stroke:#001003;stroke-width:0.30000001;stroke-linecap:round;stroke-miterlimit:4;stroke-opacity:1;stroke-dasharray:none;stroke-dashoffset:0"
         d="m 182.56416,494.44585 c 3.66991,2.02687 1.06597,3.79736 -1.85826,3.52646 -2.48084,0.0352 -5.63936,2.01009 -7.28894,-0.7912 -0.92151,-1.81523 3.39279,-1.19726 4.84001,-1.91169 1.43573,-0.27452 2.87146,-0.54905 4.30719,-0.82357 z"
         id="path3914"
         inkscape:connector-curvature="0" />
    </g>
  </g>
</svg>
