<?xml version="1.0" encoding="UTF-8" standalone="no"?>
<!-- Created with Inkscape (http://www.inkscape.org/) -->

<svg
   xmlns:dc="http://purl.org/dc/elements/1.1/"
   xmlns:cc="http://creativecommons.org/ns#"
   xmlns:rdf="http://www.w3.org/1999/02/22-rdf-syntax-ns#"
   xmlns:svg="http://www.w3.org/2000/svg"
   xmlns="http://www.w3.org/2000/svg"
   xmlns:sodipodi="http://sodipodi.sourceforge.net/DTD/sodipodi-0.dtd"
   xmlns:inkscape="http://www.inkscape.org/namespaces/inkscape"
   width="32px"
   height="32px"
   id="svg5053"
   version="1.1"
   inkscape:version="0.48.2 r9819"
   sodipodi:docname="mtn3.svg">
  <defs
     id="defs5055" />
  <sodipodi:namedview
     id="base"
     pagecolor="#ffffff"
     bordercolor="#666666"
     borderopacity="1.0"
     inkscape:pageopacity="0.0"
     inkscape:pageshadow="2"
     inkscape:zoom="1.9795104"
     inkscape:cx="-50.335096"
     inkscape:cy="35.538611"
     inkscape:current-layer="layer1"
     showgrid="true"
     inkscape:grid-bbox="true"
     inkscape:document-units="px"
     inkscape:window-width="802"
     inkscape:window-height="594"
     inkscape:window-x="91"
     inkscape:window-y="120"
     inkscape:window-maximized="0" />
  <metadata
     id="metadata5058">
    <rdf:RDF>
      <cc:Work
         rdf:about="">
        <dc:format>image/svg+xml</dc:format>
        <dc:type
           rdf:resource="http://purl.org/dc/dcmitype/StillImage" />
        <dc:title />
      </cc:Work>
    </rdf:RDF>
  </metadata>
  <g
     id="layer1"
     inkscape:label="Layer 1"
     inkscape:groupmode="layer">
    <g
       transform="matrix(0.27141954,0.01217885,-0.01357803,0.23354203,-34.782604,-71.267941)"
       id="g4109">
      <path
         style="opacity:0.85409253;fill:#000000;fill-opacity:1;fill-rule:evenodd;stroke:#001003;stroke-width:0.30000001;stroke-linecap:round;stroke-miterlimit:4;stroke-opacity:1;stroke-dasharray:none;stroke-dashoffset:0"
         d="m 232.91954,336.10917 c 8.70461,9.88681 14.09757,22.21941 23.0612,31.90324 5.98007,3.67964 -4.74373,10.35328 -6.83919,4.23278 -5.29819,-5.30385 -9.40649,-11.59998 -13.83174,-17.61115 -2.73912,-4.54371 -4.80259,-9.65627 -9.07377,-13.06936 -4.27303,-2.41234 0.0253,-5.63285 3.3673,-4.67159 1.10601,-0.12826 2.38543,-0.0709 3.3162,-0.78392 z"
         id="path4063"
         inkscape:connector-curvature="0" />
      <path
         style="opacity:0.85409253;fill:#000000;fill-opacity:1;fill-rule:evenodd;stroke:#001003;stroke-width:0.30000001;stroke-linecap:round;stroke-miterlimit:4;stroke-opacity:1;stroke-dasharray:none;stroke-dashoffset:0"
         d="m 231.39203,335.44329 c -5.5196,7.52682 -11.33913,16.2517 -20.8012,18.9479 -4.83543,0.38404 -5.97078,-6.44727 -0.72017,-6.76848 4.9991,-3.4902 7.17572,-9.8688 12.32861,-13.10065 3.09096,-1.01893 6.10714,0.94671 9.19276,0.92123 z"
         id="path4067"
         inkscape:connector-curvature="0" />
      <path
         style="opacity:0.85409253;fill:#000000;fill-opacity:1;fill-rule:evenodd;stroke:#001003;stroke-width:0.30000001;stroke-linecap:round;stroke-miterlimit:4;stroke-opacity:1;stroke-dasharray:none;stroke-dashoffset:0"
         d="m 200.62337,338.91116 c 4.64206,8.59686 13.36384,13.93652 18.48853,22.17832 -4.13014,4.64965 -12.15818,1.67272 -14.21297,-3.60677 -3.12751,-5.48557 -9.58371,-8.12845 -12.39416,-13.85023 -1.25157,-4.79213 4.99476,-5.29948 8.1186,-4.72131 l 0,-1e-5 z"
         id="path4069"
         inkscape:connector-curvature="0" />
      <path
         style="opacity:0.85409253;fill:#000000;fill-opacity:1;fill-rule:evenodd;stroke:#001003;stroke-width:0.30000001;stroke-linecap:round;stroke-miterlimit:4;stroke-opacity:1;stroke-dasharray:none;stroke-dashoffset:0"
         d="m 197.09804,339.81644 c 1.01771,6.98896 -5.63453,11.72698 -6.78843,18.2058 -5.31437,10.95031 -16.85439,16.30107 -25.89244,23.62541 -1.6136,4.3114 -10.07201,2.49301 -9.09854,-2.18029 2.42488,-3.5186 6.71023,-5.24899 10.06163,-7.78762 8.90207,-5.53265 16.9209,-13.62047 19.374,-24.12119 1.0563,-4.77156 5.69041,-9.76763 10.94598,-7.65043 l 0.70466,-0.005 0.69314,-0.0867 z"
         id="path4073"
         inkscape:connector-curvature="0" />
      <path
         style="opacity:0.85409253;fill:#000000;fill-opacity:1;fill-rule:evenodd;stroke:#001003;stroke-width:0.30000001;stroke-linecap:round;stroke-miterlimit:4;stroke-opacity:1;stroke-dasharray:none;stroke-dashoffset:0"
         d="m 229.7258,368.96009 c 4.25732,4.35295 11.24589,3.08551 15.82074,6.9006 -2.83865,5.60396 -9.88162,2.61568 -14.29434,0.99144 -3.10821,-0.51818 -11.32556,-2.60944 -7.355,-6.4349 1.92591,-0.51959 4.21966,-0.0255 5.8286,-1.45714 z"
         id="path4093"
         inkscape:connector-curvature="0" />
      <path
         style="opacity:0.85409253;fill:#000000;fill-opacity:1;fill-rule:evenodd;stroke:#001003;stroke-width:0.30000001;stroke-linecap:round;stroke-miterlimit:4;stroke-opacity:1;stroke-dasharray:none;stroke-dashoffset:0"
         d="m 191.38915,365.91215 c -3.83937,5.8253 -10.95741,10.87283 -18.21341,8.81716 -3.53201,-4.69839 4.58955,-5.96256 6.83925,-8.72074 2.99021,-3.13035 7.75063,-0.35354 11.37416,-0.0964 z"
         id="path4095"
         inkscape:connector-curvature="0" />
      <path
         style="opacity:0.85409253;fill:#000000;fill-opacity:1;fill-rule:evenodd;stroke:#001003;stroke-width:0.30000001;stroke-linecap:round;stroke-miterlimit:4;stroke-opacity:1;stroke-dasharray:none;stroke-dashoffset:0"
         d="m 223.41924,353.5652 c -0.3479,5.46063 -8.17585,9.15693 -12.14704,4.92492 -1.40028,-6.17454 7.35054,-7.30329 11.42571,-5.07856 l 0.72133,0.15364 z"
         id="path4097"
         inkscape:connector-curvature="0" />
      <path
         style="opacity:0.85409253;fill:#000000;fill-opacity:1;fill-rule:evenodd;stroke:#001003;stroke-width:0.30000001;stroke-linecap:round;stroke-miterlimit:4;stroke-opacity:1;stroke-dasharray:none;stroke-dashoffset:0"
         d="m 229.90322,361.13421 c -2.11356,4.12822 -9.06244,6.37647 -12.20559,2.23625 -1.34651,-4.80602 5.8392,-4.75893 8.91555,-3.35488 1.11094,0.32941 2.20203,0.72112 3.29004,1.11863 z"
         id="path4099"
         inkscape:connector-curvature="0" />
      <path
         style="opacity:0.85409253;fill:#000000;fill-opacity:1;fill-rule:evenodd;stroke:#001003;stroke-width:0.30000001;stroke-linecap:round;stroke-miterlimit:4;stroke-opacity:1;stroke-dasharray:none;stroke-dashoffset:0"
         d="m 230.73964,363.64119 c -3.28356,4.46118 -9.52468,7.92249 -14.98121,5.35494 -1.7664,-6.02591 6.74386,-8.13886 11.16317,-6.6479 1.30611,0.32474 2.56724,0.80186 3.81804,1.29296 z"
         id="path4101"
         inkscape:connector-curvature="0" />
      <path
         style="opacity:0.85409253;fill:#000000;fill-opacity:1;fill-rule:evenodd;stroke:#001003;stroke-width:0.30000001;stroke-linecap:round;stroke-miterlimit:4;stroke-opacity:1;stroke-dasharray:none;stroke-dashoffset:0"
         d="m 234.37446,366.52471 c -1.20487,5.39954 -9.28222,6.23331 -12.48156,2.21725 1.90726,-5.19839 8.55575,-2.87102 12.48156,-2.21725 z"
         id="path4103"
         inkscape:connector-curvature="0" />
      <path
         style="opacity:0.85409253;fill:#000000;fill-opacity:1;fill-rule:evenodd;stroke:#001003;stroke-width:0.30000001;stroke-linecap:round;stroke-miterlimit:4;stroke-opacity:1;stroke-dasharray:none;stroke-dashoffset:0"
         d="m 196.21599,371.75911 c -1.35974,4.73757 -5.33143,9.90129 -10.79553,9.28699 -5.78445,-1.96968 -1.51669,-10.56383 3.46829,-10.34928 2.49101,-0.31768 4.9519,0.40647 7.32724,1.06229 z"
         id="path4105"
         inkscape:connector-curvature="0" />
      <path
         style="opacity:0.85409253;fill:#000000;fill-opacity:1;fill-rule:evenodd;stroke:#001003;stroke-width:0.30000001;stroke-linecap:round;stroke-miterlimit:4;stroke-opacity:1;stroke-dasharray:none;stroke-dashoffset:0"
         d="m 203.61133,381.15091 c -2.95173,3.87398 -8.04248,9.9703 -13.37215,6.62882 -3.30292,-4.13149 2.63378,-9.48519 7.03314,-8.17456 2.16549,0.28089 4.21046,1.09581 6.33901,1.54574 z"
         id="path4107"
         inkscape:connector-curvature="0" />
    </g>
  </g>
</svg>
