<?xml version="1.0" encoding="UTF-8" standalone="no"?>
<!-- Created with Inkscape (http://www.inkscape.org/) -->

<svg
   xmlns:dc="http://purl.org/dc/elements/1.1/"
   xmlns:cc="http://creativecommons.org/ns#"
   xmlns:rdf="http://www.w3.org/1999/02/22-rdf-syntax-ns#"
   xmlns:svg="http://www.w3.org/2000/svg"
   xmlns="http://www.w3.org/2000/svg"
   xmlns:sodipodi="http://sodipodi.sourceforge.net/DTD/sodipodi-0.dtd"
   xmlns:inkscape="http://www.inkscape.org/namespaces/inkscape"
   width="32px"
   height="32px"
   id="svg5053"
   version="1.1"
   inkscape:version="0.48.2 r9819"
   sodipodi:docname="mtn4.svg">
  <defs
     id="defs5055" />
  <sodipodi:namedview
     id="base"
     pagecolor="#ffffff"
     bordercolor="#666666"
     borderopacity="1.0"
     inkscape:pageopacity="0.0"
     inkscape:pageshadow="2"
     inkscape:zoom="0.98975522"
     inkscape:cx="-92.088371"
     inkscape:cy="20.241246"
     inkscape:current-layer="layer1"
     showgrid="true"
     inkscape:grid-bbox="true"
     inkscape:document-units="px"
     inkscape:window-width="467"
     inkscape:window-height="424"
     inkscape:window-x="83"
     inkscape:window-y="120"
     inkscape:window-maximized="0" />
  <metadata
     id="metadata5058">
    <rdf:RDF>
      <cc:Work
         rdf:about="">
        <dc:format>image/svg+xml</dc:format>
        <dc:type
           rdf:resource="http://purl.org/dc/dcmitype/StillImage" />
        <dc:title />
      </cc:Work>
    </rdf:RDF>
  </metadata>
  <g
     id="layer1"
     inkscape:label="Layer 1"
     inkscape:groupmode="layer">
    <g
       transform="matrix(0.13214599,0,0,0.14585371,-5.2668155,-51.91176)"
       id="g4236">
      <path
         style="opacity:0.85409253;fill:#000000;fill-opacity:1;fill-rule:evenodd;stroke:#001003;stroke-width:0.30000001;stroke-linecap:round;stroke-miterlimit:4;stroke-opacity:1;stroke-dasharray:none;stroke-dashoffset:0"
         d="m 169.28938,414.1908 c -8.30443,2.33846 -15.78616,5.98101 -23.44381,9.44243 -4.49779,3.92826 -9.1529,7.46263 -14.513,10.19134 -4.5883,4.72336 -4.77464,11.57974 -8.31487,16.15888 -4.97746,6.37353 -13.61976,8.05954 -19.76758,13.08186 -5.730847,4.70895 -10.707801,11.25771 -18.502633,13.12267 -3.20461,-1.04347 -6.40922,-2.08695 -9.61383,-3.13042 7.166296,-1.49106 12.346914,-6.26539 16.658807,-11.67528 4.434201,-2.92066 8.974246,-5.51503 13.749086,-8.2041 6.14044,-2.48654 12.05968,-7.7698 11.1952,-14.74844 4.30376,-3.94488 5.07364,-9.36431 11.85386,-11.19853 4.92938,-3.0448 8.59236,-7.98543 14.50877,-9.55587 5.98367,-2.14064 11.87352,-6.81224 18.0237,-6.47442 2.73703,0.95009 5.42972,2.03293 8.1663,2.98988 z"
         id="path4208"
         inkscape:connector-curvature="0" />
      <path
         style="opacity:0.85409253;fill:#000000;fill-opacity:1;fill-rule:evenodd;stroke:#001003;stroke-width:0.30000001;stroke-linecap:round;stroke-miterlimit:4;stroke-opacity:1;stroke-dasharray:none;stroke-dashoffset:0"
         d="m 166.4953,413.33089 c 4.43293,4.68335 7.21548,8.99183 13.66983,11.75563 8.28785,6.50468 19.58311,6.46664 28.08709,12.56118 7.91833,1.83795 12.6632,7.67906 16.60966,14.13918 6.81412,2.58103 14.73222,3.35388 19.78001,9.22596 3.64437,5.89043 8.61003,10.1907 13.79052,14.13956 2.6111,6.29896 -11.47582,5.1046 -10.42778,1.12564 -7.98186,-1.42191 -7.10222,-11.16139 -14.43984,-13.18856 -3.08358,-5.79365 -11.18154,-4.91425 -16.28149,-8.08399 -6.20806,-2.93857 -5.85675,-10.08495 -13.04597,-12.09215 -10.27595,-6.27888 -22.55258,-8.42772 -32.79742,-14.88223 -6.43232,-2.37195 -9.50445,-8.75845 -15.2017,-12.04197 2.86224,-1.50354 6.96484,-1.66914 10.25709,-2.65825 z"
         id="path4210"
         inkscape:connector-curvature="0" />
      <path
         style="opacity:0.85409253;fill:#000000;fill-opacity:1;fill-rule:evenodd;stroke:#001003;stroke-width:0.30000001;stroke-linecap:round;stroke-miterlimit:4;stroke-opacity:1;stroke-dasharray:none;stroke-dashoffset:0"
         d="m 172.14039,422.08841 c 2.54691,5.20874 -3.16561,12.89392 -2.72836,16.14489 -4.4494,7.33686 9.4513,7.87003 13.75383,10.66453 6.0805,1.56445 12.00548,6.35221 9.07937,13.14804 -0.50402,6.75838 -5.86215,10.46643 -8.93424,15.88333 -3.57548,3.27848 -7.02141,10.3294 -12.55658,8.25923 -1.4693,-0.52569 -7.57909,-1.22269 -5.73473,-1.62606 4.94353,-4.55213 9.69165,-9.46625 13.2686,-15.50899 4.59482,-4.21978 7.21134,-14.6615 -1.56852,-15.62298 -5.60691,-2.86337 -12.39086,-3.50305 -16.93528,-8.32688 -4.45149,-5.50447 1.48958,-11.22134 2.38849,-16.76617 1.33738,-2.81609 -1.4028,-5.3089 3.8762,-5.08428 2.03041,-0.38823 4.06081,-0.77648 6.09122,-1.16466 z"
         id="path4212"
         inkscape:connector-curvature="0" />
      <path
         style="opacity:0.85409253;fill:#000000;fill-opacity:1;fill-rule:evenodd;stroke:#001003;stroke-width:0.30000001;stroke-linecap:round;stroke-miterlimit:4;stroke-opacity:1;stroke-dasharray:none;stroke-dashoffset:0"
         d="m 186.62027,474.99873 c 3.31415,1.90672 6.32075,4.43283 0.93829,5.03984 -3.92223,2.02239 -6.76783,0.90836 -10.20086,-1.56314 1.59672,-1.53382 5.30988,-1.8806 7.77223,-2.98489 0.49678,-0.16394 0.99356,-0.32787 1.49034,-0.49181 z"
         id="path4214"
         inkscape:connector-curvature="0" />
      <path
         style="opacity:0.85409253;fill:#000000;fill-opacity:1;fill-rule:evenodd;stroke:#001003;stroke-width:0.30000001;stroke-linecap:round;stroke-miterlimit:4;stroke-opacity:1;stroke-dasharray:none;stroke-dashoffset:0"
         d="m 197.40313,465.55723 c 2.42294,2.84257 11.24209,2.20049 10.59101,5.91189 -6.71422,4.11779 -13.8667,0.13506 -20.2076,-2.40485 3.20557,-1.1689 6.41081,-2.3387 9.61659,-3.50704 z"
         id="path4216"
         inkscape:connector-curvature="0" />
      <path
         style="opacity:0.85409253;fill:#000000;fill-opacity:1;fill-rule:evenodd;stroke:#001003;stroke-width:0.30000001;stroke-linecap:round;stroke-miterlimit:4;stroke-opacity:1;stroke-dasharray:none;stroke-dashoffset:0"
         d="m 194.93165,454.33881 c 2.30345,2.11326 14.5756,1.16129 6.39363,4.0703 -5.05508,2.73235 -10.68598,0.77997 -16.08332,0.4892 3.22991,-1.5198 6.4597,-3.03986 9.68969,-4.5595 z"
         id="path4218"
         inkscape:connector-curvature="0" />
      <path
         style="opacity:0.85409253;fill:#000000;fill-opacity:1;fill-rule:evenodd;stroke:#001003;stroke-width:0.30000001;stroke-linecap:round;stroke-miterlimit:4;stroke-opacity:1;stroke-dasharray:none;stroke-dashoffset:0"
         d="m 140.99732,444.52198 c -3.80104,6.90728 -5.69806,15.04041 -11.13529,20.86742 -5.7808,5.47606 -13.74064,10.92071 -21.66252,10.84345 -3.29249,-1.06908 -11.192943,-3.10155 -3.26506,-4.41717 6.8024,-2.80466 14.8709,-5.52781 18.64032,-12.21588 4.2636,-4.43474 4.26056,-13.7586 8.53444,-16.25252 2.96698,0.35393 5.91255,0.866 8.88811,1.1747 z"
         id="path4228"
         inkscape:connector-curvature="0" />
      <path
         style="opacity:0.85409253;fill:#000000;fill-opacity:1;fill-rule:evenodd;stroke:#001003;stroke-width:0.30000001;stroke-linecap:round;stroke-miterlimit:4;stroke-opacity:1;stroke-dasharray:none;stroke-dashoffset:0"
         d="m 123.04668,466.29196 c -5.8586,3.82639 -12.59317,6.50419 -19.04182,8.71118 -2.79433,-0.96609 -5.588656,-1.93219 -8.382983,-2.89828 5.556333,-3.10685 11.925813,-4.73044 17.252233,-8.31275 3.43864,0.62979 6.77329,1.70106 10.17257,2.49985 z"
         id="path4232"
         inkscape:connector-curvature="0" />
      <path
         style="opacity:0.85409253;fill:#000000;fill-opacity:1;fill-rule:evenodd;stroke:#001003;stroke-width:0.30000001;stroke-linecap:round;stroke-miterlimit:4;stroke-opacity:1;stroke-dasharray:none;stroke-dashoffset:0"
         d="m 109.65715,464.908 c -6.0705,6.09532 -13.949477,10.08315 -22.000585,12.74622 -2.936145,-0.0235 -15.626312,-3.74074 -6.857971,-4.56722 7.832712,-0.72889 13.974129,-6.60709 20.367086,-9.6505 2.8107,0.62204 5.6569,0.97943 8.49147,1.4715 z"
         id="path4234"
         inkscape:connector-curvature="0" />
    </g>
  </g>
</svg>
