<?xml version="1.0" encoding="UTF-8" standalone="no"?>
<!-- Created with Inkscape (http://www.inkscape.org/) -->

<svg
   xmlns:dc="http://purl.org/dc/elements/1.1/"
   xmlns:cc="http://creativecommons.org/ns#"
   xmlns:rdf="http://www.w3.org/1999/02/22-rdf-syntax-ns#"
   xmlns:svg="http://www.w3.org/2000/svg"
   xmlns="http://www.w3.org/2000/svg"
   xmlns:sodipodi="http://sodipodi.sourceforge.net/DTD/sodipodi-0.dtd"
   xmlns:inkscape="http://www.inkscape.org/namespaces/inkscape"
   width="32px"
   height="32px"
   id="svg5053"
   version="1.1"
   inkscape:version="0.48.2 r9819"
   sodipodi:docname="mtn7.svg">
  <defs
     id="defs5055" />
  <sodipodi:namedview
     id="base"
     pagecolor="#ffffff"
     bordercolor="#666666"
     borderopacity="1.0"
     inkscape:pageopacity="0.0"
     inkscape:pageshadow="2"
     inkscape:zoom="1.9795104"
     inkscape:cx="-4.523714"
     inkscape:cy="34.999633"
     inkscape:current-layer="layer1"
     showgrid="true"
     inkscape:grid-bbox="true"
     inkscape:document-units="px"
     inkscape:window-width="467"
     inkscape:window-height="424"
     inkscape:window-x="70"
     inkscape:window-y="283"
     inkscape:window-maximized="0" />
  <metadata
     id="metadata5058">
    <rdf:RDF>
      <cc:Work
         rdf:about="">
        <dc:format>image/svg+xml</dc:format>
        <dc:type
           rdf:resource="http://purl.org/dc/dcmitype/StillImage" />
        <dc:title />
      </cc:Work>
    </rdf:RDF>
  </metadata>
  <g
     id="layer1"
     inkscape:label="Layer 1"
     inkscape:groupmode="layer">
    <g
       transform="matrix(0.11083301,0,0,0.12530297,-3.0574006,-32.261538)"
       id="g5102">
      <path
         style="opacity:0.85409253;fill:#000000;fill-opacity:1;fill-rule:evenodd;stroke:#001003;stroke-width:0.30000001;stroke-linecap:round;stroke-miterlimit:4;stroke-opacity:1;stroke-dasharray:none;stroke-dashoffset:0"
         d="m 171.55389,307.14524 c -4.64432,6.66403 -10.99341,11.92031 -17.67261,16.44347 -7.76632,1.26662 -9.9879,10.95886 -17.6973,12.66541 -6.02163,2.70219 -11.63551,6.28276 -16.94638,10.06752 -3.53219,3.32889 -5.22326,9.94175 -11.03667,9.70074 -7.62245,-1.66597 2.38887,-6.1565 3.183,-9.6088 5.29941,-5.84544 12.7175,-9.19463 19.6838,-12.55041 6.51141,-2.79352 9.22932,-10.69505 16.27589,-12.68819 6.81805,-3.80481 13.08489,-8.86543 17.47524,-15.38397 2.24501,0.45143 4.49005,0.90267 6.73503,1.35423 z"
         id="path5072"
         inkscape:connector-curvature="0" />
      <path
         style="opacity:0.85409253;fill:#000000;fill-opacity:1;fill-rule:evenodd;stroke:#001003;stroke-width:0.30000001;stroke-linecap:round;stroke-miterlimit:4;stroke-opacity:1;stroke-dasharray:none;stroke-dashoffset:0"
         d="m 176.88583,305.10198 c 8.33126,0.16152 11.78689,9.70316 19.41145,11.68432 6.30803,3.96027 9.25819,13.922 18.42338,12.09249 7.1313,-0.28673 13.39814,3.21214 18.96328,7.26449 6.08875,4.49006 11.30423,10.42139 18.50886,13.19735 4.15934,5.68873 -8.51204,3.71502 -10.17842,0.17721 -8.86918,-5.96841 -16.13829,-15.01145 -26.93278,-17.61279 -5.55275,-0.97184 -11.96593,0.64416 -16.69937,-3.24269 -1.27698,-7.59305 -10.00058,-9.06591 -14.85401,-13.65619 -2.0868,-4.45679 -10.213,-6.11576 -11.65611,-8.17186 1.63,-0.69679 3.43638,-0.90017 5.01372,-1.73233 z"
         id="path5074"
         inkscape:connector-curvature="0" />
      <path
         style="opacity:0.85409253;fill:#000000;fill-opacity:1;fill-rule:evenodd;stroke:#001003;stroke-width:0.30000001;stroke-linecap:round;stroke-miterlimit:4;stroke-opacity:1;stroke-dasharray:none;stroke-dashoffset:0"
         d="m 157.26398,326.53051 c -4.40787,1.28399 -8.31115,8.17746 -12.60948,6.46103 6.48028,-1.95293 9.16563,4.74207 5.62408,9.49873 -0.26819,4.47633 9.94646,0.83946 7.19112,7.66275 -2.18398,6.42967 -5.93109,13.98229 -13.08407,15.78746 -4.0018,0.5672 -6.16858,-2.46235 -1.71711,-4.15856 3.25603,-3.11755 11.53443,-11.77109 4.628,-14.53379 -6.71202,-0.23536 -5.83371,-9.37225 -0.78235,-11.35654 6.04133,-0.0462 -3.85256,1.92555 -5.45916,-0.37905 -3.33113,-4.10042 5.44616,-8.46705 8.73378,-10.15208 2.50848,-0.84248 5.34725,-0.41442 7.47519,1.17005 z"
         id="path5076"
         inkscape:connector-curvature="0" />
      <path
         style="opacity:0.85409253;fill:#000000;fill-opacity:1;fill-rule:evenodd;stroke:#001003;stroke-width:0.30000001;stroke-linecap:round;stroke-miterlimit:4;stroke-opacity:1;stroke-dasharray:none;stroke-dashoffset:0"
         d="m 146.27921,340.62439 c -3.13749,6.80639 -9.56808,11.65917 -16.58954,13.94515 -2.648,3.00471 -11.22951,10.55936 -12.54536,3.09326 6.11117,-6.01415 15.69455,-7.66169 20.47167,-15.15947 2.04695,-2.5495 5.74465,-3.5329 8.66323,-1.87894 z"
         id="path5078"
         inkscape:connector-curvature="0" />
      <path
         style="opacity:0.85409253;fill:#000000;fill-opacity:1;fill-rule:evenodd;stroke:#001003;stroke-width:0.30000001;stroke-linecap:round;stroke-miterlimit:4;stroke-opacity:1;stroke-dasharray:none;stroke-dashoffset:0"
         d="m 167.48707,309.22343 c -0.6436,8.57595 -7.38393,14.83707 -10.18427,22.65138 -1.49698,4.46675 -10.26911,9.81706 -11.87978,4.3125 5.83895,-4.84183 8.57751,-12.20307 12.58687,-18.42866 1.6756,-4.72626 3.00173,-10.8153 9.47718,-8.53522 z"
         id="path5080"
         inkscape:connector-curvature="0" />
      <path
         style="opacity:0.85409253;fill:#000000;fill-opacity:1;fill-rule:evenodd;stroke:#001003;stroke-width:0.30000001;stroke-linecap:round;stroke-miterlimit:4;stroke-opacity:1;stroke-dasharray:none;stroke-dashoffset:0"
         d="m 203.55084,328.65883 c 4.60616,6.75932 -9.68021,9.29845 -6.66731,1.24342 0.97426,-3.37763 4.43764,-0.78755 6.66731,-1.24342 z"
         id="path5082"
         inkscape:connector-curvature="0" />
    </g>
  </g>
</svg>
