<?xml version="1.0" encoding="UTF-8" standalone="no"?>
<!-- Created with Inkscape (http://www.inkscape.org/) -->

<svg
   xmlns:dc="http://purl.org/dc/elements/1.1/"
   xmlns:cc="http://creativecommons.org/ns#"
   xmlns:rdf="http://www.w3.org/1999/02/22-rdf-syntax-ns#"
   xmlns:svg="http://www.w3.org/2000/svg"
   xmlns="http://www.w3.org/2000/svg"
   xmlns:sodipodi="http://sodipodi.sourceforge.net/DTD/sodipodi-0.dtd"
   xmlns:inkscape="http://www.inkscape.org/namespaces/inkscape"
   width="32px"
   height="32px"
   id="svg5053"
   version="1.1"
   inkscape:version="0.48.2 r9819"
   sodipodi:docname="ruin1.svg">
  <defs
     id="defs5055" />
  <sodipodi:namedview
     id="base"
     pagecolor="#ffffff"
     bordercolor="#666666"
     borderopacity="1.0"
     inkscape:pageopacity="0.0"
     inkscape:pageshadow="2"
     inkscape:zoom="11.197802"
     inkscape:cx="-16.821227"
     inkscape:cy="23.151127"
     inkscape:current-layer="layer1"
     showgrid="true"
     inkscape:grid-bbox="true"
     inkscape:document-units="px"
     inkscape:window-width="1600"
     inkscape:window-height="852"
     inkscape:window-x="0"
     inkscape:window-y="0"
     inkscape:window-maximized="1" />
  <metadata
     id="metadata5058">
    <rdf:RDF>
      <cc:Work
         rdf:about="">
        <dc:format>image/svg+xml</dc:format>
        <dc:type
           rdf:resource="http://purl.org/dc/dcmitype/StillImage" />
        <dc:title />
      </cc:Work>
    </rdf:RDF>
  </metadata>
  <g
     id="layer1"
     inkscape:label="Layer 1"
     inkscape:groupmode="layer">
    <g
       id="g3205">
      <path
         style="opacity:0.85409253;fill:#000000;fill-opacity:1;fill-rule:evenodd;stroke:#001003;stroke-width:0.30000001;stroke-linecap:round;stroke-miterlimit:4;stroke-opacity:1;stroke-dasharray:none;stroke-dashoffset:0"
         d="m 11.844822,11.890355 c -0.03,0.620044 -0.01757,1.240042 -0.04585,1.857852 0.04391,0.427969 -0.170131,1.351108 -0.07901,1.471711 0.01724,-0.111153 -0.08243,0.613199 -0.06847,0.822418 -0.02596,0.788708 0.0058,1.582097 0.06338,2.36733 0.22653,0.497021 -0.781636,0.486243 -0.445564,-0.02986 0.07213,-0.714409 0.0778,-1.433463 0.185926,-2.144774 0.05292,-0.464018 0.01535,-0.928108 0.07244,-1.389662 -0.0363,-0.585112 0.01434,-0.870358 0.0087,-1.407875 -0.06727,-0.0046 -0.05467,-0.770077 -0.173176,-1.06821 -0.243871,-0.360193 -0.0991,-0.516796 0.302963,-0.463468 l 0.08946,-0.0077 0.08918,-0.0077 6e-6,-1e-6 z"
         id="path3118"
         inkscape:connector-curvature="0" />
      <path
         style="opacity:0.85409253;fill:#000000;fill-opacity:1;fill-rule:evenodd;stroke:#001003;stroke-width:0.32958463;stroke-linecap:round;stroke-miterlimit:4;stroke-opacity:1;stroke-dasharray:none;stroke-dashoffset:0"
         d="m 13.638889,17.112167 c -0.09735,-0.590872 0.224267,-1.327859 -0.269014,-1.798419 -0.476605,-0.275335 -1.322691,-0.659227 -0.785235,-1.315061 0.24005,-0.526867 0.99952,-0.720047 0.935296,-1.389082 0.162026,-0.568099 -0.314132,-1.094464 -0.02002,-1.64184 0.02864,-0.428874 0.815935,-0.452062 0.793145,-0.333478 -0.535889,0.226795 -1.168931,-0.260902 -0.764101,-0.8058248 -0.05456,-0.3960611 -0.492169,-1.2633959 0.30218,-0.9716019 0.555222,0.018047 0.286411,0.6310821 -0.141767,0.4551238 -0.58067,-0.1142044 -0.07708,-0.556759 0.264417,-0.3390207 0.517977,0.3453883 -0.02711,1.0223646 0.370198,1.3965176 -0.249168,-0.03341 -0.53598,0.04654 -0.129066,-0.04591 0.523249,-0.05154 0.350576,0.530714 0.01785,0.668964 -0.193021,0.510815 0.245792,1.047819 -0.01885,1.576598 -0.08262,0.735172 -0.396432,1.475939 -0.170912,2.217113 0.0772,0.432802 0.456692,0.787343 0.319457,1.251474 -0.167434,0.512679 0.182789,0.932062 0.36126,1.380628 0.206692,0.460994 0.402076,0.932314 0.500479,1.429982 -0.275122,0.319805 -0.509537,-0.525535 -0.748034,-0.674892 -0.263488,-0.360179 -0.497426,-0.746299 -0.817275,-1.061275 z"
         id="path3120"
         inkscape:connector-curvature="0" />
      <path
         style="opacity:0.85409253;fill:#000000;fill-opacity:1;fill-rule:evenodd;stroke:#001003;stroke-width:0.30000001;stroke-linecap:round;stroke-miterlimit:4;stroke-opacity:1;stroke-dasharray:none;stroke-dashoffset:0"
         d="m 10.916108,8.8429346 c -0.17033,0.5879254 0.0089,1.2074884 -0.04835,1.8061074 -0.06532,0.425748 -0.265553,0.983242 0.409461,0.859189 0.732794,0.08003 1.486833,0.04932 2.213225,0.04469 -0.441684,0.36344 -1.036343,0.152165 -1.551342,0.215664 -0.560277,-0.123166 -1.226562,0.07302 -1.723865,-0.151041 -0.184385,-0.435895 0.243938,-0.921319 0.146687,-1.413013 0.03227,-0.4315391 -0.02894,-0.869372 -0.106944,-1.2889485 0.138762,-0.1793445 0.462736,-0.030565 0.661132,-0.072647 z"
         id="path3122"
         inkscape:connector-curvature="0" />
      <path
         style="opacity:0.85409253;fill:#000000;fill-opacity:1;fill-rule:evenodd;stroke:#001003;stroke-width:0.30000001;stroke-linecap:round;stroke-miterlimit:4;stroke-opacity:1;stroke-dasharray:none;stroke-dashoffset:0"
         d="m 12.159238,8.9116321 c -0.140072,0.1828424 0.02586,0.6211845 0.0084,0.6232304 -0.399234,0.024479 -0.293272,0.016396 0.0376,-0.016094 0.308701,0.00761 0.761746,-0.1075578 0.633578,-0.018857 0.262761,0.053494 0.977753,0.084359 0.378935,-0.066067 -0.17718,-0.095809 -0.606677,-0.052153 -0.227155,0.1358646 0.255626,-0.176289 1.093887,-0.034529 0.451488,0.2292055 -0.400354,-0.094974 -0.781406,0.036298 -1.212954,-0.048835 0.223774,-6.821e-4 0.395199,-0.019255 0.07076,0.019442 -0.437912,0.1469496 -0.927333,-0.014803 -0.752841,-0.558764 -0.19798,-0.4277004 0.400897,-0.2319268 0.612164,-0.2991252 z"
         id="path3124"
         inkscape:connector-curvature="0" />
      <path
         style="opacity:0.85409253;fill:#000000;fill-opacity:1;fill-rule:evenodd;stroke:#001003;stroke-width:0.30000001;stroke-linecap:round;stroke-miterlimit:4;stroke-opacity:1;stroke-dasharray:none;stroke-dashoffset:0"
         d="m 13.429829,15.97745 c -0.215085,0.872904 -0.01473,1.767197 0.008,2.648716 0.150442,0.350944 0.137568,1.089241 -0.433286,0.767209 -0.123986,-0.460408 0.04025,-0.977458 -0.04505,-1.461993 -0.147928,-0.446808 0.209267,-1.239464 -0.338799,-1.423343 -0.07515,-0.491895 0.449399,-0.567325 0.809155,-0.530589 z"
         id="path3136"
         inkscape:connector-curvature="0" />
      <path
         style="opacity:0.85409253;fill:#000000;fill-opacity:1;fill-rule:evenodd;stroke:#001003;stroke-width:0.30000001;stroke-linecap:round;stroke-miterlimit:4;stroke-opacity:1;stroke-dasharray:none;stroke-dashoffset:0"
         d="m 11.658667,10.494972 c -0.459222,0.180162 -0.373259,0.885197 0.191443,0.833893 0.540021,0.05251 1.101615,0.07149 1.623736,0.184731 -0.385169,0.321956 -0.880028,0.09902 -1.319969,0.09091 -0.459396,-0.0161 -0.989885,-0.01654 -1.351279,-0.334922 -0.10669,-0.34692 0.06315,-1.178328 0.570685,-0.853944 0.09512,0.02647 0.190299,0.05279 0.285384,0.07933 z"
         id="path3138"
         inkscape:connector-curvature="0" />
      <path
         style="opacity:0.85409253;fill:#000000;fill-opacity:1;fill-rule:evenodd;stroke:#001003;stroke-width:0.30000001;stroke-linecap:round;stroke-miterlimit:4;stroke-opacity:1;stroke-dasharray:none;stroke-dashoffset:0"
         d="m 11.642551,10.829554 c 0.24992,0.132339 0.861075,-0.0646 0.904884,0.09216 -0.434811,0.251602 -0.971415,0.139618 -1.455074,0.135567 -0.447951,-0.389194 0.380569,-0.196076 0.55019,-0.22773 z"
         id="path3140"
         inkscape:connector-curvature="0" />
      <path
         style="opacity:0.85409253;fill:#000000;fill-opacity:1;fill-rule:evenodd;stroke:#001003;stroke-width:0.30000001;stroke-linecap:round;stroke-miterlimit:4;stroke-opacity:1;stroke-dasharray:none;stroke-dashoffset:0"
         d="m 11.531984,18.257636 c -0.06969,-0.200345 0.222552,-1.03651 -0.158994,-0.533891 -0.488552,0.55459 -1.091806,0.988268 -1.6374873,1.482247 -0.267488,0.162791 -0.9219014,0.0032 -0.3500163,-0.244402 0.5293992,-0.448157 1.0985346,-0.89101 1.4560896,-1.493157 0.110991,-0.594567 0.848804,-0.988822 0.646839,-0.111832 -0.01595,0.276013 -0.152572,0.683413 0.04357,0.901035 z"
         id="path3166"
         inkscape:connector-curvature="0" />
      <path
         style="opacity:0.85409253;fill:#000000;fill-opacity:1;fill-rule:evenodd;stroke:#001003;stroke-width:0.30000001;stroke-linecap:round;stroke-miterlimit:4;stroke-opacity:1;stroke-dasharray:none;stroke-dashoffset:0"
         d="m 15.049443,16.952102 c 0.318107,0.231037 1.114367,0.16092 0.983199,0.724325 -0.321999,0.0033 -0.903473,0.279857 -0.92366,-0.128507 -0.151764,-0.221829 -0.801126,-0.08524 -0.756587,-0.274847 0.236898,-0.09568 0.464288,-0.215372 0.697048,-0.320971 z"
         id="path3172"
         inkscape:connector-curvature="0" />
      <path
         style="opacity:0.85409253;fill:#000000;fill-opacity:1;fill-rule:evenodd;stroke:#001003;stroke-width:0.30000001;stroke-linecap:round;stroke-miterlimit:4;stroke-opacity:1;stroke-dasharray:none;stroke-dashoffset:0"
         d="m 16.13385,18.336282 c -0.223959,-0.02312 -0.839425,-0.211671 -0.808846,-0.251981 0.271607,0.07661 0.538918,0.169272 0.808846,0.251981 z"
         id="path3174"
         inkscape:connector-curvature="0" />
      <path
         style="opacity:0.85409253;fill:#000000;fill-opacity:1;fill-rule:evenodd;stroke:#001003;stroke-width:0.30000001;stroke-linecap:round;stroke-miterlimit:4;stroke-opacity:1;stroke-dasharray:none;stroke-dashoffset:0"
         d="m 14.556523,18.353729 c -0.467668,-0.131486 -0.350056,0.451123 0.02913,0.40685 0.472284,0.330153 1.075353,0.355969 1.619882,0.488369 0.237325,0.08018 0.923582,-0.0068 0.873626,0.05664 -0.200609,0.127318 -0.890474,0.194407 -0.333671,-0.03964 0.273247,-0.03421 0.726949,0.09741 0.861574,0.260916 -0.643232,0.10984 -1.308777,0.10828 -1.941798,-0.05939 -0.723612,-0.146715 -1.435306,-0.376464 -2.116814,-0.652928 -0.401884,-0.242975 -0.04684,-1.007597 0.386063,-0.695233 0.209261,0.07301 0.411128,0.165886 0.622008,0.23442 z"
         id="path3176"
         inkscape:connector-curvature="0" />
      <path
         style="opacity:0.85409253;fill:#000000;fill-opacity:1;fill-rule:evenodd;stroke:#001003;stroke-width:0.30000001;stroke-linecap:round;stroke-miterlimit:4;stroke-opacity:1;stroke-dasharray:none;stroke-dashoffset:0"
         d="m 14.903488,9.1217665 c -0.230285,0.4155866 -0.106408,0.9308505 -0.144584,1.3857995 -0.005,0.380188 0.216626,0.880703 -0.0115,1.187148 -0.256507,-4.33e-4 -0.51529,0.02218 -0.772909,0.03634 -0.02605,-0.512638 0.01781,-1.02516 -0.0097,-1.539078 0.1801,-0.3708559 -0.343422,-1.2491909 0.386562,-1.0775068 0.184034,0.00239 0.368089,0.0048 0.552105,0.0073 z"
         id="path3178"
         inkscape:connector-curvature="0" />
      <path
         style="opacity:0.85409253;fill:#000000;fill-opacity:1;fill-rule:evenodd;stroke:#001003;stroke-width:0.30000001;stroke-linecap:round;stroke-miterlimit:4;stroke-opacity:1;stroke-dasharray:none;stroke-dashoffset:0"
         d="m 14.179443,8.6966096 c -0.12481,0.3537652 -0.0065,0.9531797 -0.296147,1.1565351 -0.241266,0.00219 -0.482533,0.00437 -0.723799,0.00656 0.273495,-0.3184801 -0.133576,-0.9424621 0.290005,-1.1451953 0.243314,-0.00596 0.486628,-0.011931 0.729941,-0.017895 z"
         id="path3180"
         inkscape:connector-curvature="0" />
      <path
         style="opacity:0.85409253;fill:#000000;fill-opacity:1;fill-rule:evenodd;stroke:#001003;stroke-width:0.30000001;stroke-linecap:round;stroke-miterlimit:4;stroke-opacity:1;stroke-dasharray:none;stroke-dashoffset:0"
         d="m 15.037839,8.7103298 c -0.254107,0.3385745 -0.01294,0.9682396 -0.202887,1.1954709 -0.227663,0.00922 -0.455327,0.018447 -0.68299,0.027671 0.05016,-0.3892218 -0.09417,-0.9660075 0.02292,-1.2340706 0.287625,0.00282 0.575299,0.00756 0.862959,0.010929 z"
         id="path3182"
         inkscape:connector-curvature="0" />
      <path
         style="opacity:0.85409253;fill:#000000;fill-opacity:1;fill-rule:evenodd;stroke:#001003;stroke-width:0.30000001;stroke-linecap:round;stroke-miterlimit:4;stroke-opacity:1;stroke-dasharray:none;stroke-dashoffset:0"
         d="m 13.146443,14.701299 c 0.290547,0.723768 0.632313,1.434255 0.824412,2.191726 0.08042,0.660123 0.204178,1.322174 0.196748,1.989362 -0.358828,0.236086 -0.787051,-0.03163 -0.572997,-0.45252 -0.02082,-0.623496 -0.06706,-1.250235 -0.238782,-1.848869 0.01291,-0.485495 -0.268028,-0.839638 -0.639378,-1.056436 -0.179309,-0.512837 -0.178261,-0.783196 0.429997,-0.823263 z"
         id="path3186"
         inkscape:connector-curvature="0" />
      <path
         style="opacity:0.85409253;fill:#000000;fill-opacity:1;fill-rule:evenodd;stroke:#001003;stroke-width:0.30000001;stroke-linecap:round;stroke-miterlimit:4;stroke-opacity:1;stroke-dasharray:none;stroke-dashoffset:0"
         d="m 13.297161,12.009513 c 0.130722,0.418978 -0.261667,1.011429 -0.63696,0.779924 0.226445,-0.333875 -0.489219,-0.552156 0.02421,-0.721724 0.199379,-0.05476 0.40827,-0.04641 0.612747,-0.0582 z"
         id="path3188"
         inkscape:connector-curvature="0" />
    </g>
  </g>
</svg>
