<?xml version="1.0" encoding="UTF-8" standalone="no"?>
<!-- Created with Inkscape (http://www.inkscape.org/) -->

<svg
   xmlns:dc="http://purl.org/dc/elements/1.1/"
   xmlns:cc="http://creativecommons.org/ns#"
   xmlns:rdf="http://www.w3.org/1999/02/22-rdf-syntax-ns#"
   xmlns:svg="http://www.w3.org/2000/svg"
   xmlns="http://www.w3.org/2000/svg"
   xmlns:sodipodi="http://sodipodi.sourceforge.net/DTD/sodipodi-0.dtd"
   xmlns:inkscape="http://www.inkscape.org/namespaces/inkscape"
   width="32px"
   height="32px"
   id="svg5053"
   version="1.1"
   inkscape:version="0.48.2 r9819"
   sodipodi:docname="tree1.svg">
  <defs
     id="defs5055" />
  <sodipodi:namedview
     id="base"
     pagecolor="#ffffff"
     bordercolor="#666666"
     borderopacity="1.0"
     inkscape:pageopacity="0.0"
     inkscape:pageshadow="2"
     inkscape:zoom="22.395604"
     inkscape:cx="9.4138101"
     inkscape:cy="17.906438"
     inkscape:current-layer="layer1"
     showgrid="true"
     inkscape:grid-bbox="true"
     inkscape:document-units="px"
     inkscape:window-width="1600"
     inkscape:window-height="852"
     inkscape:window-x="0"
     inkscape:window-y="0"
     inkscape:window-maximized="1" />
  <metadata
     id="metadata5058">
    <rdf:RDF>
      <cc:Work
         rdf:about="">
        <dc:format>image/svg+xml</dc:format>
        <dc:type
           rdf:resource="http://purl.org/dc/dcmitype/StillImage" />
        <dc:title />
      </cc:Work>
    </rdf:RDF>
  </metadata>
  <g
     id="layer1"
     inkscape:label="Layer 1"
     inkscape:groupmode="layer">
    <g
       id="g6545">
      <path
         style="fill:#000000;fill-opacity:1;fill-rule:evenodd;stroke:#000000;stroke-width:0.30000001;stroke-linecap:round;stroke-miterlimit:4;stroke-opacity:1;stroke-dasharray:none;stroke-dashoffset:0"
         d="m 14.477415,24.238358 c 0.417188,-0.63226 0.38391,-1.424791 0.477409,-2.147231 0.04113,-1.755022 -0.0043,-3.511423 -0.06002,-5.265657 -0.03411,-0.947431 -0.172056,-1.888701 -0.426883,-2.802146 -0.02531,-0.326247 -0.290297,-0.883851 0.145792,-1.023234 0.533448,0.05585 0.156381,0.737448 0.334567,1.101352 0.108239,1.100735 -8.05e-4,2.204969 0.0092,3.307723 -0.04484,1.352108 0.03534,2.703253 0.06004,4.055057 0.02798,0.755957 0.05684,1.514544 0.128183,2.266157 0.0049,0.419203 -0.332477,0.494626 -0.668328,0.507979 z"
         id="path6466"
         inkscape:connector-curvature="0" />
      <path
         style="fill:#000000;fill-opacity:1;fill-rule:evenodd;stroke:#000000;stroke-width:0.30000001;stroke-linecap:round;stroke-miterlimit:4;stroke-opacity:1;stroke-dasharray:none;stroke-dashoffset:0"
         d="m 15.169114,19.660089 c -0.972178,1.11712 -2.278139,1.974565 -3.73586,2.287672 0.251725,-0.485985 0.972035,-0.3214 1.387049,-0.620319 0.551943,-0.2509 1.030525,-0.637567 1.454206,-1.06654 0.116901,-0.37991 0.52198,-0.577615 0.894605,-0.600813 z"
         id="path6468"
         inkscape:connector-curvature="0" />
      <path
         style="fill:#000000;fill-opacity:1;fill-rule:evenodd;stroke:#000000;stroke-width:0.30000001;stroke-linecap:round;stroke-miterlimit:4;stroke-opacity:1;stroke-dasharray:none;stroke-dashoffset:0"
         d="m 15.245489,19.762852 c 0.309419,0.570414 1.061267,0.553053 1.504392,0.957995 -0.556594,0.0982 -1.049672,-0.274717 -1.583771,-0.365521 -0.318286,-0.025 -0.587808,-0.352647 -0.127414,-0.451712 0.07044,-0.04461 0.140745,-0.08973 0.206793,-0.140762 z"
         id="path6470"
         inkscape:connector-curvature="0" />
      <path
         style="fill:#000000;fill-opacity:1;fill-rule:evenodd;stroke:#000000;stroke-width:0.30000001;stroke-linecap:round;stroke-miterlimit:4;stroke-opacity:1;stroke-dasharray:none;stroke-dashoffset:0"
         d="m 16.828487,20.376313 c 0.291384,0.408411 1.218349,0.478599 1.275058,0.85385 -0.497268,0.114635 -0.927102,-0.298784 -1.419208,-0.33076 -0.51334,-0.187692 -0.03435,-0.34972 0.14415,-0.52309 z"
         id="path6472"
         inkscape:connector-curvature="0" />
      <path
         style="fill:#000000;fill-opacity:1;fill-rule:evenodd;stroke:#000000;stroke-width:0.30000001;stroke-linecap:round;stroke-miterlimit:4;stroke-opacity:1;stroke-dasharray:none;stroke-dashoffset:0"
         d="m 15.461582,19.764927 c 0.246517,0.526776 0.695586,0.931003 1.016188,1.369341 -0.226034,0.582908 -0.662205,-0.114907 -0.845868,-0.368325 C 15.395749,20.49064 14.65118,20.026227 15.346204,19.85191 l 0.06101,-0.03903 0.05437,-0.04795 0,0 z"
         id="path6474"
         inkscape:connector-curvature="0" />
      <path
         style="fill:#000000;fill-opacity:1;fill-rule:evenodd;stroke:#000000;stroke-width:0.30000001;stroke-linecap:round;stroke-miterlimit:4;stroke-opacity:1;stroke-dasharray:none;stroke-dashoffset:0"
         d="m 15.369782,19.783491 c -0.328668,0.740465 -0.780946,1.422487 -1.234702,2.088578 -0.542163,0.217299 -0.09072,-0.434731 0.06304,-0.60668 0.4692,-0.446739 0.319506,-1.368164 1.090149,-1.443292 l 0.08152,-0.03861 z"
         id="path6476"
         inkscape:connector-curvature="0" />
      <path
         style="fill:#000000;fill-opacity:1;fill-rule:evenodd;stroke:#000000;stroke-width:0.30000001;stroke-linecap:round;stroke-miterlimit:4;stroke-opacity:1;stroke-dasharray:none;stroke-dashoffset:0"
         d="m 15.809817,19.888979 c -0.296355,0.536083 -0.08639,1.17655 -0.278883,1.738768 -0.61882,0.246472 -0.129525,-0.716317 -0.35486,-1.013609 -0.08238,-0.407536 0.252206,-0.695596 0.633743,-0.725159 z"
         id="path6478"
         inkscape:connector-curvature="0" />
      <path
         style="fill:#000000;fill-opacity:1;fill-rule:evenodd;stroke:#000000;stroke-width:0.30000001;stroke-linecap:round;stroke-miterlimit:4;stroke-opacity:1;stroke-dasharray:none;stroke-dashoffset:0"
         d="m 15.26483,19.743172 c -0.751634,1.126776 -1.663109,2.31362 -3.029005,2.694236 -0.261622,0.19617 -0.566833,-0.05067 -0.160524,-0.165533 0.578936,-0.20088 1.197112,-0.38496 1.590826,-0.889678 0.421125,-0.428394 0.747102,-0.940661 1.016295,-1.47522 0.194136,-0.0546 0.388269,-0.109215 0.582408,-0.163805 z"
         id="path6480"
         inkscape:connector-curvature="0" />
      <path
         style="fill:#000000;fill-opacity:1;fill-rule:evenodd;stroke:#000000;stroke-width:0.30000001;stroke-linecap:round;stroke-miterlimit:4;stroke-opacity:1;stroke-dasharray:none;stroke-dashoffset:0"
         d="m 12.677733,20.15293 c 0.456455,-0.174817 1.013812,-0.248216 1.293673,-0.590635 0.356389,-0.230203 0.464966,-0.851479 0.975326,-0.804686 -0.09934,0.45826 -0.659026,0.977527 -1.129673,1.234679 -0.451992,0.233458 -1.052302,0.49716 -1.477143,0.569573 0.04087,-0.181283 0.256858,-0.250677 0.337817,-0.408931 z"
         id="path6482"
         inkscape:connector-curvature="0" />
      <path
         style="fill:#000000;fill-opacity:1;fill-rule:evenodd;stroke:#000000;stroke-width:0.30000001;stroke-linecap:round;stroke-miterlimit:4;stroke-opacity:1;stroke-dasharray:none;stroke-dashoffset:0"
         d="m 14.73383,20.058312 c 0.141778,-0.393181 -0.08772,-1.310407 0.604845,-1.160245 0.03384,0.457294 0.07655,1.094992 -0.542226,1.135159 l -0.06262,0.02508 0,4e-6 z"
         id="path6484"
         inkscape:connector-curvature="0" />
      <path
         style="fill:#000000;fill-opacity:1;fill-rule:evenodd;stroke:#000000;stroke-width:0.30000001;stroke-linecap:round;stroke-miterlimit:4;stroke-opacity:1;stroke-dasharray:none;stroke-dashoffset:0"
         d="m 16.278654,19.968356 c -0.331775,-0.211095 -1.213492,-0.356168 -1.05489,-0.815662 0.506723,-0.09825 0.899391,0.460437 1.424936,0.375965 -0.0024,0.187756 -0.290476,0.27723 -0.370046,0.439697 z"
         id="path6486"
         inkscape:connector-curvature="0" />
      <path
         style="fill:#000000;fill-opacity:1;fill-rule:evenodd;stroke:#000000;stroke-width:0.30000001;stroke-linecap:round;stroke-miterlimit:4;stroke-opacity:1;stroke-dasharray:none;stroke-dashoffset:0"
         d="m 16.152196,18.269406 c -0.127094,0.311717 -0.783358,0.83329 -0.924425,0.498142 0.235018,-0.271153 0.561566,-0.469412 0.924425,-0.498142 z"
         id="path6488"
         inkscape:connector-curvature="0" />
      <path
         style="fill:#000000;fill-opacity:1;fill-rule:evenodd;stroke:#000000;stroke-width:0.30000001;stroke-linecap:round;stroke-miterlimit:4;stroke-opacity:1;stroke-dasharray:none;stroke-dashoffset:0"
         d="m 14.105524,18.565987 c 0.265399,-0.108885 0.931897,0.144698 0.394012,0.35632 -0.359397,0.208732 -0.977847,-0.01064 -0.416223,-0.332686 l 0.01882,-0.02002 0.0034,-0.0036 c 0,0 -2e-6,3e-6 -2e-6,3e-6 z"
         id="path6490"
         inkscape:connector-curvature="0" />
      <path
         style="fill:#000000;fill-opacity:1;fill-rule:evenodd;stroke:#000000;stroke-width:0.30000001;stroke-linecap:round;stroke-miterlimit:4;stroke-opacity:1;stroke-dasharray:none;stroke-dashoffset:0"
         d="m 17.521014,18.534825 c -0.728152,0.554769 -1.713493,0.442948 -2.546869,0.238121 0.04184,-0.548844 0.885382,-0.0235 1.234673,-0.117539 0.348965,-0.033 0.703507,-0.106456 1.015654,-0.269998 -0.607821,0.280914 0.08137,0.170134 0.296542,0.149416 z"
         id="path6492"
         inkscape:connector-curvature="0" />
      <path
         style="fill:#000000;fill-opacity:1;fill-rule:evenodd;stroke:#000000;stroke-width:0.30000001;stroke-linecap:round;stroke-miterlimit:4;stroke-opacity:1;stroke-dasharray:none;stroke-dashoffset:0"
         d="m 12.779197,19.173488 c 0.546763,0.154762 1.096483,-0.148216 1.64138,-0.07458 -0.457654,0.529763 -1.254182,0.309968 -1.851463,0.528587 -0.355569,-0.06945 0.16492,-0.332022 0.210083,-0.454007 z"
         id="path6494"
         inkscape:connector-curvature="0" />
      <path
         style="fill:#000000;fill-opacity:1;fill-rule:evenodd;stroke:#000000;stroke-width:0.30000001;stroke-linecap:round;stroke-miterlimit:4;stroke-opacity:1;stroke-dasharray:none;stroke-dashoffset:0"
         d="m 13.758461,17.615773 c 0.06081,0.01099 -0.369291,0.206274 -0.06638,0.06492 0.429823,-0.156435 0.754092,-1.214889 1.142099,-0.884202 -0.2908,0.527568 -0.746274,0.998611 -1.302169,1.242935 -0.320886,0.09657 0.239205,-0.372285 0.22645,-0.423653 z"
         id="path6496"
         inkscape:connector-curvature="0" />
      <path
         style="fill:#000000;fill-opacity:1;fill-rule:evenodd;stroke:#000000;stroke-width:0.30000001;stroke-linecap:round;stroke-miterlimit:4;stroke-opacity:1;stroke-dasharray:none;stroke-dashoffset:0"
         d="m 15.085168,16.223157 c 0.105401,0.640024 0.822016,0.890379 1.118054,1.326632 -0.247141,0.510831 -0.75774,-0.190945 -1.029414,-0.354498 -0.388497,-0.135826 -0.876084,-0.822149 -0.206684,-0.909151 l 0.06079,-0.0275 0.05725,-0.03549 0,4e-6 z"
         id="path6498"
         inkscape:connector-curvature="0" />
      <path
         style="fill:#000000;fill-opacity:1;fill-rule:evenodd;stroke:#000000;stroke-width:0.30000001;stroke-linecap:round;stroke-miterlimit:4;stroke-opacity:1;stroke-dasharray:none;stroke-dashoffset:0"
         d="m 15.055738,17.057966 c -0.04012,0.515784 0.822231,1.205384 0.309864,1.568529 -0.483341,-0.10704 -0.463271,-0.830129 -0.77062,-1.16815 -0.03787,-0.258825 0.300341,-0.296003 0.460756,-0.400379 z"
         id="path6500"
         inkscape:connector-curvature="0" />
      <path
         style="fill:#000000;fill-opacity:1;fill-rule:evenodd;stroke:#000000;stroke-width:0.30000001;stroke-linecap:round;stroke-miterlimit:4;stroke-opacity:1;stroke-dasharray:none;stroke-dashoffset:0"
         d="m 15.175227,17.660391 c -0.155979,0.398362 -0.291607,1.357528 -0.801174,1.173991 0.148384,-0.394219 0.07895,-1.092344 0.629624,-1.125798 l 0.08769,-0.01958 0.08386,-0.02862 0,0 z"
         id="path6502"
         inkscape:connector-curvature="0" />
      <path
         style="fill:#000000;fill-opacity:1;fill-rule:evenodd;stroke:#000000;stroke-width:0.30000001;stroke-linecap:round;stroke-miterlimit:4;stroke-opacity:1;stroke-dasharray:none;stroke-dashoffset:0"
         d="m 13.443338,15.878113 c 0.546826,-0.226569 0.473375,-1.056874 1.05728,-1.222085 0.193238,0.06321 -0.15461,0.611155 -0.232068,0.841885 -0.164429,0.298448 -0.511286,0.375763 -0.825212,0.3802 z"
         id="path6504"
         inkscape:connector-curvature="0" />
      <path
         style="fill:#000000;fill-opacity:1;fill-rule:evenodd;stroke:#000000;stroke-width:0.30000001;stroke-linecap:round;stroke-miterlimit:4;stroke-opacity:1;stroke-dasharray:none;stroke-dashoffset:0"
         d="m 15.224329,14.072636 c -0.23331,0.339827 0.447399,1.223372 -0.303743,1.122439 -0.369451,-0.258814 -0.416986,-1.03859 0.157399,-1.0716 l 0.07409,-0.02394 0.07225,-0.0269 0,0 z"
         id="path6506"
         inkscape:connector-curvature="0" />
      <path
         style="fill:#000000;fill-opacity:1;fill-rule:evenodd;stroke:#000000;stroke-width:0.30000001;stroke-linecap:round;stroke-miterlimit:4;stroke-opacity:1;stroke-dasharray:none;stroke-dashoffset:0"
         d="m 15.51508,14.696404 c 0.213592,0.234976 0.43576,1.014865 -0.136776,0.7484 -0.541123,-0.274441 -0.363387,-0.568575 0.136776,-0.7484 z"
         id="path6508"
         inkscape:connector-curvature="0" />
      <path
         style="fill:#000000;fill-opacity:1;fill-rule:evenodd;stroke:#000000;stroke-width:0.30000001;stroke-linecap:round;stroke-miterlimit:4;stroke-opacity:1;stroke-dasharray:none;stroke-dashoffset:0"
         d="m 15.011828,14.567272 c 0.46482,0.352093 -0.372359,1.312582 -0.491317,0.566237 -0.04736,-0.306223 0.24739,-0.477727 0.491317,-0.566237 z"
         id="path6510"
         inkscape:connector-curvature="0" />
      <path
         style="fill:#000000;fill-opacity:1;fill-rule:evenodd;stroke:#000000;stroke-width:0.30000001;stroke-linecap:round;stroke-miterlimit:4;stroke-opacity:1;stroke-dasharray:none;stroke-dashoffset:0"
         d="m 14.965642,15.148667 c 0.09457,0.439111 0.848267,0.812721 0.634004,1.225881 -0.508163,0.09637 -0.967791,-0.607924 -1.066196,-0.984029 0.115308,-0.126866 0.314357,-0.118114 0.432192,-0.241852 z"
         id="path6512"
         inkscape:connector-curvature="0" />
      <path
         style="fill:#000000;fill-opacity:1;fill-rule:evenodd;stroke:#000000;stroke-width:0.30000001;stroke-linecap:round;stroke-miterlimit:4;stroke-opacity:1;stroke-dasharray:none;stroke-dashoffset:0"
         d="m 15.089129,15.203451 c -0.194173,0.395956 -0.406643,1.399282 -0.965555,1.122457 0.236564,-0.287728 0.283833,-0.650045 0.457214,-0.953115 0.149288,-0.106429 0.339653,-0.11171 0.508341,-0.169342 z"
         id="path6514"
         inkscape:connector-curvature="0" />
      <path
         style="fill:#000000;fill-opacity:1;fill-rule:evenodd;stroke:#000000;stroke-width:0.30000001;stroke-linecap:round;stroke-miterlimit:4;stroke-opacity:1;stroke-dasharray:none;stroke-dashoffset:0"
         d="m 14.926969,13.669839 c -0.208273,0.347878 -0.979133,0.668768 -1.139508,0.491481 0.328692,-0.262057 0.718463,-0.447742 1.139508,-0.491481 z"
         id="path6516"
         inkscape:connector-curvature="0" />
      <path
         style="fill:#000000;fill-opacity:1;fill-rule:evenodd;stroke:#000000;stroke-width:0.30000001;stroke-linecap:round;stroke-miterlimit:4;stroke-opacity:1;stroke-dasharray:none;stroke-dashoffset:0"
         d="m 14.920208,12.80305 c 0.29889,0.149989 0.698029,0.900656 0.06454,0.732856 -0.360788,-0.06687 -0.751661,-0.495485 -0.209324,-0.663786 l 0.06826,-0.03397 0.07652,-0.0351 z"
         id="path6518"
         inkscape:connector-curvature="0" />
      <path
         style="fill:#000000;fill-opacity:1;fill-rule:evenodd;stroke:#000000;stroke-width:0.30000001;stroke-linecap:round;stroke-miterlimit:4;stroke-opacity:1;stroke-dasharray:none;stroke-dashoffset:0"
         d="m 14.479939,13.56685 c 0.06596,-0.24637 0.272561,-1.089907 0.579521,-0.687082 0.107161,0.377972 -0.207597,0.669774 -0.563794,0.682349 l -0.01573,0.0047 0,3e-6 z"
         id="path6520"
         inkscape:connector-curvature="0" />
      <path
         style="fill:#000000;fill-opacity:1;fill-rule:evenodd;stroke:#000000;stroke-width:0.30000001;stroke-linecap:round;stroke-miterlimit:4;stroke-opacity:1;stroke-dasharray:none;stroke-dashoffset:0"
         d="m 14.573795,13.963872 c 0.05466,-0.287886 0.121096,-1.261776 0.541651,-0.815773 0.149279,0.405359 -0.09013,0.845834 -0.541651,0.815771 l 0,2e-6 z"
         id="path6522"
         inkscape:connector-curvature="0" />
      <path
         style="fill:#000000;fill-opacity:1;fill-rule:evenodd;stroke:#000000;stroke-width:0.30000001;stroke-linecap:round;stroke-miterlimit:4;stroke-opacity:1;stroke-dasharray:none;stroke-dashoffset:0"
         d="m 12.736093,21.493725 c 0.401862,0.112136 0.762892,-0.277507 1.139563,-0.227573 -0.277351,0.461311 -1.143657,0.681942 -1.472629,0.595034 0.0835,-0.145728 0.231003,-0.236938 0.333066,-0.367461 z"
         id="path6524"
         inkscape:connector-curvature="0" />
      <path
         style="fill:#000000;fill-opacity:1;fill-rule:evenodd;stroke:#000000;stroke-width:0.30000001;stroke-linecap:round;stroke-miterlimit:4;stroke-opacity:1;stroke-dasharray:none;stroke-dashoffset:0"
         d="m 13.542808,19.440113 c 0.228798,0.196668 0.938066,-0.349399 0.84925,0.06103 -0.292898,0.279114 -0.97748,0.393004 -1.2145,0.332816 0.08808,-0.160041 0.266611,-0.242069 0.36525,-0.393847 z"
         id="path6526"
         inkscape:connector-curvature="0" />
      <path
         style="fill:#000000;fill-opacity:1;fill-rule:evenodd;stroke:#000000;stroke-width:0.30000001;stroke-linecap:round;stroke-miterlimit:4;stroke-opacity:1;stroke-dasharray:none;stroke-dashoffset:0"
         d="m 16.396917,18.937382 c -0.276028,0.066 -0.519151,0.387785 -0.167243,0.05621 -0.176018,0.07566 -0.797927,0.390987 -0.439803,-0.05183 0.199796,-0.147855 0.507407,-0.253057 0.120113,-0.0588 -0.347109,0.266631 0.410326,1.9e-5 0.486933,0.05442 z"
         id="path6528"
         inkscape:connector-curvature="0" />
      <path
         style="fill:#000000;fill-opacity:1;fill-rule:evenodd;stroke:#000000;stroke-width:0.30000001;stroke-linecap:round;stroke-miterlimit:4;stroke-opacity:1;stroke-dasharray:none;stroke-dashoffset:0"
         d="m 15.072957,17.350157 c -0.418217,0.434913 -0.315595,1.325282 -0.994833,1.500141 -0.263783,0.105023 -0.649168,0.06045 -0.202104,-0.147602 0.416313,-0.36431 0.262532,-1.278254 0.963286,-1.310451 0.07834,-0.01115 0.157029,-0.02175 0.233651,-0.04209 z"
         id="path6530"
         inkscape:connector-curvature="0" />
      <path
         style="fill:#000000;fill-opacity:1;fill-rule:evenodd;stroke:#000000;stroke-width:0.30000001;stroke-linecap:round;stroke-miterlimit:4;stroke-opacity:1;stroke-dasharray:none;stroke-dashoffset:0"
         d="m 14.728452,19.125773 c -0.142055,-0.04296 0.576635,-0.308927 0.136302,-0.101628 -0.429525,0.671119 -0.580241,1.536955 -1.206345,2.069204 -0.197955,0.189891 -0.751209,0.07568 -0.311445,-0.170689 0.427878,-0.52815 0.715729,-1.153009 0.946184,-1.788175 0.104734,-0.191291 0.687247,-0.611341 0.70779,-0.322296 -0.09131,0.104107 -0.181907,0.20884 -0.272486,0.313584 z"
         id="path6532"
         inkscape:connector-curvature="0" />
      <path
         style="fill:#000000;fill-opacity:1;fill-rule:evenodd;stroke:#000000;stroke-width:0.30000001;stroke-linecap:round;stroke-miterlimit:4;stroke-opacity:1;stroke-dasharray:none;stroke-dashoffset:0"
         d="m 15.621163,18.258336 c 0.0367,0.619322 0.216462,1.270885 0.54334,1.788352 0.275072,0.581023 -0.692097,0.641927 -0.706766,0.05493 -0.148354,-0.433095 -0.140796,-0.912985 -0.381141,-1.315072 -0.09244,-0.331936 0.306012,-0.456078 0.544567,-0.528209 z"
         id="path6534"
         inkscape:connector-curvature="0" />
      <path
         style="fill:#000000;fill-opacity:1;fill-rule:evenodd;stroke:#000000;stroke-width:0.30000001;stroke-linecap:round;stroke-miterlimit:4;stroke-opacity:1;stroke-dasharray:none;stroke-dashoffset:0"
         d="m 15.809181,18.634406 c 0.324608,0.544837 0.817679,0.986612 1.392933,1.253033 -0.0986,0.628346 -0.901644,0.217013 -1.090582,-0.1538 -0.279922,-0.26449 -1.171533,-0.798884 -0.419761,-1.021349 l 0.06053,-0.03626 0.05688,-0.04162 0,-1e-6 z"
         id="path6536"
         inkscape:connector-curvature="0" />
      <path
         style="fill:#000000;fill-opacity:1;fill-rule:evenodd;stroke:#000000;stroke-width:0.30000001;stroke-linecap:round;stroke-miterlimit:4;stroke-opacity:1;stroke-dasharray:none;stroke-dashoffset:0"
         d="m 15.645086,20.490575 c 0.113719,0.542427 1.109546,0.687451 0.974519,1.224553 -0.500553,0.283827 -0.815195,-0.442379 -1.234954,-0.605107 -0.328759,-0.31351 -0.01907,-0.493393 0.260435,-0.619446 z"
         id="path6538"
         inkscape:connector-curvature="0" />
      <path
         style="fill:#000000;fill-opacity:1;fill-rule:evenodd;stroke:#000000;stroke-width:0.30000001;stroke-linecap:round;stroke-miterlimit:4;stroke-opacity:1;stroke-dasharray:none;stroke-dashoffset:0"
         d="m 16.263172,20.882672 c 0.01988,0.419789 1.023815,0.651613 0.538219,1.057106 -0.426995,0.04454 -0.819892,-0.487744 -0.981594,-0.73894 0.108768,-0.154997 0.316608,-0.183616 0.443375,-0.318166 z"
         id="path6540"
         inkscape:connector-curvature="0" />
      <path
         style="fill:#000000;fill-opacity:1;fill-rule:evenodd;stroke:#000000;stroke-width:0.30000001;stroke-linecap:round;stroke-miterlimit:4;stroke-opacity:1;stroke-dasharray:none;stroke-dashoffset:0"
         d="m 15.20791,19.690822 c 0.165755,0.701921 0.715747,1.207785 1.18232,1.721787 -0.523638,0.203928 -0.808395,-0.545926 -1.194766,-0.787571 -0.409352,-0.253325 -0.580235,-0.813888 -0.0013,-0.925078 l 0.0137,-0.0091 3e-6,-2e-6 z"
         id="path6542"
         inkscape:connector-curvature="0" />
    </g>
  </g>
</svg>
