<?xml version="1.0" encoding="UTF-8" standalone="no"?>
<!-- Created with Inkscape (http://www.inkscape.org/) -->

<svg
   xmlns:dc="http://purl.org/dc/elements/1.1/"
   xmlns:cc="http://creativecommons.org/ns#"
   xmlns:rdf="http://www.w3.org/1999/02/22-rdf-syntax-ns#"
   xmlns:svg="http://www.w3.org/2000/svg"
   xmlns="http://www.w3.org/2000/svg"
   xmlns:sodipodi="http://sodipodi.sourceforge.net/DTD/sodipodi-0.dtd"
   xmlns:inkscape="http://www.inkscape.org/namespaces/inkscape"
   width="32px"
   height="32px"
   id="svg5053"
   version="1.1"
   inkscape:version="0.48.2 r9819"
   sodipodi:docname="tree2.svg">
  <defs
     id="defs5055" />
  <sodipodi:namedview
     id="base"
     pagecolor="#ffffff"
     bordercolor="#666666"
     borderopacity="1.0"
     inkscape:pageopacity="0.0"
     inkscape:pageshadow="2"
     inkscape:zoom="22.395604"
     inkscape:cx="9.4138101"
     inkscape:cy="17.906438"
     inkscape:current-layer="layer1"
     showgrid="true"
     inkscape:grid-bbox="true"
     inkscape:document-units="px"
     inkscape:window-width="1600"
     inkscape:window-height="852"
     inkscape:window-x="0"
     inkscape:window-y="0"
     inkscape:window-maximized="1" />
  <metadata
     id="metadata5058">
    <rdf:RDF>
      <cc:Work
         rdf:about="">
        <dc:format>image/svg+xml</dc:format>
        <dc:type
           rdf:resource="http://purl.org/dc/dcmitype/StillImage" />
        <dc:title />
      </cc:Work>
    </rdf:RDF>
  </metadata>
  <g
     id="layer1"
     inkscape:label="Layer 1"
     inkscape:groupmode="layer">
    <g
       id="g6958">
      <path
         style="fill:#000000;fill-opacity:1;fill-rule:evenodd;stroke:#000000;stroke-width:0.30000001;stroke-linecap:round;stroke-miterlimit:4;stroke-opacity:1;stroke-dasharray:none;stroke-dashoffset:0"
         d="m 17.166833,23.310323 c 0.454253,-0.812558 0.610369,-1.747175 0.803799,-2.646702 0.214756,-1.368211 0.252103,-2.756813 0.322706,-4.137829 0.03815,-1.249389 0.08397,-2.500357 0.122291,-3.748552 -0.05146,-0.225452 -0.163377,-0.944266 0.07716,-0.841083 -0.02085,0.558828 -0.138647,1.1116 -0.1,1.674135 0.02388,1.514522 -0.106951,3.02445 -0.167029,4.536696 -0.09284,1.501883 -0.308405,2.994322 -0.376653,4.497398 0.08829,0.500074 -0.266983,0.602736 -0.682274,0.665937 z"
         id="path6868"
         inkscape:connector-curvature="0" />
      <path
         style="fill:#000000;fill-opacity:1;fill-rule:evenodd;stroke:#000000;stroke-width:0.30000001;stroke-linecap:round;stroke-miterlimit:4;stroke-opacity:1;stroke-dasharray:none;stroke-dashoffset:0"
         d="m 18.612698,20.558133 c -0.395345,-0.116089 -0.868467,-0.881647 -0.175893,-0.879 0.141319,0.185978 0.551935,0.448317 0.576944,0.489619 -0.133689,0.129789 -0.267418,0.259536 -0.401051,0.389381 z"
         id="path6870"
         inkscape:connector-curvature="0" />
      <path
         style="fill:#000000;fill-opacity:1;fill-rule:evenodd;stroke:#000000;stroke-width:0.30000001;stroke-linecap:round;stroke-miterlimit:4;stroke-opacity:1;stroke-dasharray:none;stroke-dashoffset:0"
         d="m 18.0859,20.011425 c -0.153348,0.167927 -0.851421,0.514087 -0.454302,0.06007 0.09633,-0.147545 0.449182,-0.362714 0.105159,-0.170005 -0.566726,0.358475 0.178981,0.0677 0.349143,0.109935 z"
         id="path6872"
         inkscape:connector-curvature="0" />
      <path
         style="fill:#000000;fill-opacity:1;fill-rule:evenodd;stroke:#000000;stroke-width:0.30000001;stroke-linecap:round;stroke-miterlimit:4;stroke-opacity:1;stroke-dasharray:none;stroke-dashoffset:0"
         d="m 16.37494,20.048404 c -0.182726,0.170638 0.03406,-0.301281 -0.19989,-0.110055 0.491121,-0.192339 1.03036,-0.240427 1.493169,-0.508716 0.137826,-0.05678 0.589928,-0.307481 0.212527,-0.111718 0.06644,-0.319769 1.087483,-0.538131 0.541801,-0.08349 -0.719308,0.558085 -1.668554,0.646239 -2.438852,1.108529 -0.495541,0.22441 -0.261566,-0.46476 0.103323,-0.265026 0.09598,-0.0098 0.191967,-0.01954 0.287922,-0.02952 z"
         id="path6874"
         inkscape:connector-curvature="0" />
      <path
         style="fill:#000000;fill-opacity:1;fill-rule:evenodd;stroke:#000000;stroke-width:0.30000001;stroke-linecap:round;stroke-miterlimit:4;stroke-opacity:1;stroke-dasharray:none;stroke-dashoffset:0"
         d="m 18.45517,18.142332 c 0.449248,0.635465 1.218514,0.89449 1.910824,1.169479 -0.292671,0.408867 -0.85893,-0.221337 -1.272541,-0.202623 -0.309887,-0.215845 -1.004047,-0.326157 -1.075759,-0.650541 0.128632,-0.128195 0.317614,-0.179317 0.437476,-0.316315 z"
         id="path6876"
         inkscape:connector-curvature="0" />
      <path
         style="fill:#000000;fill-opacity:1;fill-rule:evenodd;stroke:#000000;stroke-width:0.30000001;stroke-linecap:round;stroke-miterlimit:4;stroke-opacity:1;stroke-dasharray:none;stroke-dashoffset:0"
         d="m 19.062184,18.574068 c -0.624626,0.267682 -1.153778,0.72083 -1.805579,0.935335 -0.833231,0.342833 -1.699467,0.601751 -2.578476,0.797448 0.370577,-0.488891 1.079201,-0.291581 1.571649,-0.575757 0.631309,-0.206184 1.259169,-0.444172 1.822634,-0.800913 0.194323,-0.342448 0.651851,-0.319781 0.989772,-0.356113 z"
         id="path6880"
         inkscape:connector-curvature="0" />
      <path
         style="fill:#000000;fill-opacity:1;fill-rule:evenodd;stroke:#000000;stroke-width:0.30000001;stroke-linecap:round;stroke-miterlimit:4;stroke-opacity:1;stroke-dasharray:none;stroke-dashoffset:0"
         d="m 18.74315,18.195947 c 0.09148,0.631153 0.604229,1.113752 1.068965,1.5115 0.206557,0.101409 0.836301,0.545755 0.225938,0.449727 -0.490431,-0.277614 -0.975156,-0.63522 -1.385786,-1.048729 -0.251675,-0.22053 -0.719241,-0.733253 -0.115186,-0.808546 0.06869,-0.03464 0.137392,-0.06928 0.206069,-0.103952 z"
         id="path6882"
         inkscape:connector-curvature="0" />
      <path
         style="fill:#000000;fill-opacity:1;fill-rule:evenodd;stroke:#000000;stroke-width:0.30000001;stroke-linecap:round;stroke-miterlimit:4;stroke-opacity:1;stroke-dasharray:none;stroke-dashoffset:0"
         d="m 18.138302,18.905294 c 0.27793,0.598837 0.71332,1.135177 1.274662,1.482891 0.292353,0.441257 -0.405214,0.496107 -0.480657,0.09202 -0.376086,-0.355867 -0.798768,-0.661305 -1.144891,-1.044355 -0.242719,-0.34191 0.125475,-0.399411 0.350886,-0.530561 z"
         id="path6884"
         inkscape:connector-curvature="0" />
      <path
         style="fill:#000000;fill-opacity:1;fill-rule:evenodd;stroke:#000000;stroke-width:0.30000001;stroke-linecap:round;stroke-miterlimit:4;stroke-opacity:1;stroke-dasharray:none;stroke-dashoffset:0"
         d="m 19.076138,18.945401 c -0.613344,0.599662 -1.186472,1.248524 -1.877042,1.762604 -0.421865,0.228296 -0.419751,-0.03523 -0.07167,-0.187499 0.451667,-0.337502 0.858581,-0.735917 1.199313,-1.185457 0.03975,-0.374042 0.493406,-0.298809 0.749403,-0.389648 z"
         id="path6886"
         inkscape:connector-curvature="0" />
      <path
         style="fill:#000000;fill-opacity:1;fill-rule:evenodd;stroke:#000000;stroke-width:0.30000001;stroke-linecap:round;stroke-miterlimit:4;stroke-opacity:1;stroke-dasharray:none;stroke-dashoffset:0"
         d="m 18.424268,19.951166 c -0.516755,0.313586 -0.976372,0.720382 -1.462828,1.067694 -0.178498,0.135259 -0.686219,0.110848 -0.251223,-0.09724 0.499258,-0.209054 0.772662,-0.783082 1.282296,-0.925047 0.143666,-0.01743 0.290303,-0.01095 0.431755,-0.0454 z"
         id="path6888"
         inkscape:connector-curvature="0" />
      <path
         style="fill:#000000;fill-opacity:1;fill-rule:evenodd;stroke:#000000;stroke-width:0.30000001;stroke-linecap:round;stroke-miterlimit:4;stroke-opacity:1;stroke-dasharray:none;stroke-dashoffset:0"
         d="m 18.630482,19.043024 c 0.232826,0.736341 0.789514,1.328277 1.453231,1.701999 0.384412,0.306037 -0.296364,0.424641 -0.427404,0.101558 -0.497285,-0.367461 -0.953889,-0.794392 -1.368787,-1.251296 -0.354694,-0.353335 0.111363,-0.371956 0.34296,-0.552261 z"
         id="path6892"
         inkscape:connector-curvature="0" />
      <path
         style="fill:#000000;fill-opacity:1;fill-rule:evenodd;stroke:#000000;stroke-width:0.30000001;stroke-linecap:round;stroke-miterlimit:4;stroke-opacity:1;stroke-dasharray:none;stroke-dashoffset:0"
         d="m 18.731074,16.951092 c -0.168948,0.480094 -0.692461,0.679748 -1.071267,0.964778 -0.631628,0.37469 -1.332594,0.618127 -2.017591,0.859861 0.04708,-0.441774 0.901158,-0.45747 1.292358,-0.655188 0.512088,-0.190049 0.966032,-0.53626 1.265599,-0.97657 0.169199,-0.08461 0.35686,-0.120567 0.530901,-0.192881 z"
         id="path6894"
         inkscape:connector-curvature="0" />
      <path
         style="fill:#000000;fill-opacity:1;fill-rule:evenodd;stroke:#000000;stroke-width:0.30000001;stroke-linecap:round;stroke-miterlimit:4;stroke-opacity:1;stroke-dasharray:none;stroke-dashoffset:0"
         d="m 18.59523,17.345358 c -0.407195,0.525389 -0.900204,0.977517 -1.320808,1.489537 -0.146229,0.286572 -0.929748,0.381251 -0.419273,-0.01631 0.465027,-0.359053 0.817023,-0.823089 1.145843,-1.291735 0.172022,-0.1248 0.391072,-0.146656 0.594238,-0.181494 z"
         id="path6896"
         inkscape:connector-curvature="0" />
      <path
         style="fill:#000000;fill-opacity:1;fill-rule:evenodd;stroke:#000000;stroke-width:0.30000001;stroke-linecap:round;stroke-miterlimit:4;stroke-opacity:1;stroke-dasharray:none;stroke-dashoffset:0"
         d="m 18.913942,17.113804 c -0.159098,0.551427 -0.200963,1.346799 -0.732966,1.638779 -0.361409,-0.07329 0.20017,-0.523323 0.109485,-0.801725 0.06727,-0.281671 -0.0245,-0.695648 0.356293,-0.731265 0.08906,-0.03526 0.178125,-0.07053 0.267188,-0.105789 z"
         id="path6898"
         inkscape:connector-curvature="0" />
      <path
         style="fill:#000000;fill-opacity:1;fill-rule:evenodd;stroke:#000000;stroke-width:0.30000001;stroke-linecap:round;stroke-miterlimit:4;stroke-opacity:1;stroke-dasharray:none;stroke-dashoffset:0"
         d="m 18.696384,17.962357 c -0.477753,0.55387 -0.971707,1.097356 -1.409345,1.682698 -0.150911,0.198169 -0.760905,0.16251 -0.322452,-0.09291 0.404285,-0.413419 0.753345,-0.883277 1.069713,-1.361164 0.179855,-0.164247 0.436532,-0.175911 0.662084,-0.228628 z"
         id="path6900"
         inkscape:connector-curvature="0" />
      <path
         style="fill:#000000;fill-opacity:1;fill-rule:evenodd;stroke:#000000;stroke-width:0.30000001;stroke-linecap:round;stroke-miterlimit:4;stroke-opacity:1;stroke-dasharray:none;stroke-dashoffset:0"
         d="m 18.680844,17.261412 c 0.04072,0.49416 0.70599,0.833974 0.689612,1.237445 -0.45785,0.315324 -0.722641,-0.451315 -1.040437,-0.670356 -0.381847,-0.280015 0.04589,-0.417379 0.282864,-0.530809 0.02265,-0.01209 0.04531,-0.02419 0.06796,-0.03628 z"
         id="path6902"
         inkscape:connector-curvature="0" />
      <path
         style="fill:#000000;fill-opacity:1;fill-rule:evenodd;stroke:#000000;stroke-width:0.30000001;stroke-linecap:round;stroke-miterlimit:4;stroke-opacity:1;stroke-dasharray:none;stroke-dashoffset:0"
         d="m 18.851918,16.897804 c 0.187567,0.535389 0.738552,0.816371 1.213839,1.053075 0.632404,0.144701 -0.163228,0.551537 -0.430641,0.275604 -0.463817,-0.25566 -0.913582,-0.575511 -1.266085,-0.969415 -0.02693,-0.218555 0.350256,-0.221722 0.482887,-0.359264 z"
         id="path6904"
         inkscape:connector-curvature="0" />
      <path
         style="fill:#000000;fill-opacity:1;fill-rule:evenodd;stroke:#000000;stroke-width:0.30000001;stroke-linecap:round;stroke-miterlimit:4;stroke-opacity:1;stroke-dasharray:none;stroke-dashoffset:0"
         d="m 17.31496,16.667937 c -0.08918,0.164186 -0.36319,0.190539 -0.02383,0.04985 0.475202,-0.18482 0.67287,-0.809024 1.160032,-0.815399 0.209369,-0.09195 0.310081,-0.208517 0.04835,-0.0035 -0.784065,0.550528 -1.653586,1.04581 -2.629175,1.118 -0.246988,-0.0014 -0.776803,0.347318 -0.271687,0.05937 0.388238,-0.263528 -0.772349,0.228821 -0.300638,-0.166077 0.604012,-0.391003 1.388717,-0.170487 2.008987,-0.528695 0.380844,-0.103161 0.648232,-0.496853 1.042461,-0.691311 0.384041,-0.253618 0.477483,0.162232 0.174973,0.371317 -0.415422,0.485399 -1.009616,0.751857 -1.529351,1.103631 0.02804,-0.200231 0.241461,-0.316706 0.319877,-0.497223 z"
         id="path6906"
         inkscape:connector-curvature="0" />
      <path
         style="fill:#000000;fill-opacity:1;fill-rule:evenodd;stroke:#000000;stroke-width:0.30000001;stroke-linecap:round;stroke-miterlimit:4;stroke-opacity:1;stroke-dasharray:none;stroke-dashoffset:0"
         d="m 18.780101,15.937784 c -0.466495,0.540391 -0.968281,1.049563 -1.490721,1.535799 -0.182896,0.182626 -0.688451,0.0659 -0.252768,-0.109817 0.401187,-0.338302 0.795812,-0.695573 1.04718,-1.161207 0.187868,-0.178923 0.462025,-0.187494 0.696309,-0.264775 z"
         id="path6908"
         inkscape:connector-curvature="0" />
      <path
         style="fill:#000000;fill-opacity:1;fill-rule:evenodd;stroke:#000000;stroke-width:0.30000001;stroke-linecap:round;stroke-miterlimit:4;stroke-opacity:1;stroke-dasharray:none;stroke-dashoffset:0"
         d="m 18.968947,15.506347 c 0.412631,0.475097 1.082607,0.607369 1.563314,0.959201 -0.256522,0.646489 -0.938176,0.123679 -1.310552,-0.125219 -0.19595,-0.187768 -0.791933,-0.330999 -0.76162,-0.488176 0.169618,-0.115271 0.339227,-0.230555 0.508858,-0.345806 z"
         id="path6912"
         inkscape:connector-curvature="0" />
      <path
         style="fill:#000000;fill-opacity:1;fill-rule:evenodd;stroke:#000000;stroke-width:0.30000001;stroke-linecap:round;stroke-miterlimit:4;stroke-opacity:1;stroke-dasharray:none;stroke-dashoffset:0"
         d="m 18.381208,15.961874 c 0.191058,0.404101 0.834279,0.754823 0.896982,1.063885 -0.179101,0.107426 -0.368399,0.405022 -0.537068,0.09802 -0.18786,-0.323627 -0.761023,-0.542302 -0.762056,-0.851227 0.11068,-0.132474 0.293333,-0.176472 0.402142,-0.310678 z"
         id="path6914"
         inkscape:connector-curvature="0" />
      <path
         style="fill:#000000;fill-opacity:1;fill-rule:evenodd;stroke:#000000;stroke-width:0.30000001;stroke-linecap:round;stroke-miterlimit:4;stroke-opacity:1;stroke-dasharray:none;stroke-dashoffset:0"
         d="m 18.522646,13.981863 c -0.336035,0.532818 -0.839562,0.95227 -1.411793,1.211364 0.04512,-0.157444 0.311202,-0.483626 -0.0013,-0.239158 0.542896,-0.203118 0.691774,-0.983183 1.357386,-0.958083 l 0.05574,-0.01412 -3.7e-5,1e-6 z"
         id="path6920"
         inkscape:connector-curvature="0" />
      <path
         style="fill:#000000;fill-opacity:1;fill-rule:evenodd;stroke:#000000;stroke-width:0.30000001;stroke-linecap:round;stroke-miterlimit:4;stroke-opacity:1;stroke-dasharray:none;stroke-dashoffset:0"
         d="m 18.686728,14.28059 c -0.763519,0.420916 -1.398186,1.046527 -2.192675,1.415309 -0.479198,0.03219 0.667239,-0.710817 0.310586,-0.36749 0.473028,-0.295862 0.854484,-0.728974 1.357886,-0.973208 0.166064,-0.0652 0.34699,-0.08433 0.524203,-0.07461 z"
         id="path6922"
         inkscape:connector-curvature="0" />
      <path
         style="fill:#000000;fill-opacity:1;fill-rule:evenodd;stroke:#000000;stroke-width:0.30000001;stroke-linecap:round;stroke-miterlimit:4;stroke-opacity:1;stroke-dasharray:none;stroke-dashoffset:0"
         d="m 18.615328,14.367519 c -0.339307,0.404108 -0.657614,0.99333 -1.213661,1.078072 0.01537,-0.23472 0.503224,-0.745489 0.800653,-0.959946 0.126292,-0.08264 0.275726,-0.07472 0.413008,-0.118126 z"
         id="path6924"
         inkscape:connector-curvature="0" />
      <path
         style="fill:#000000;fill-opacity:1;fill-rule:evenodd;stroke:#000000;stroke-width:0.30000001;stroke-linecap:round;stroke-miterlimit:4;stroke-opacity:1;stroke-dasharray:none;stroke-dashoffset:0"
         d="m 18.859585,14.59807 c -0.247294,0.58405 -0.724051,1.043652 -1.228591,1.408847 -0.172151,0.109776 -0.889559,0.187941 -0.402653,-0.06572 0.473937,-0.225201 0.778026,-0.638119 1.043165,-1.073106 0.14246,-0.183405 0.386387,-0.19265 0.588079,-0.270018 z"
         id="path6926"
         inkscape:connector-curvature="0" />
      <path
         style="fill:#000000;fill-opacity:1;fill-rule:evenodd;stroke:#000000;stroke-width:0.30000001;stroke-linecap:round;stroke-miterlimit:4;stroke-opacity:1;stroke-dasharray:none;stroke-dashoffset:0"
         d="m 18.377713,14.050636 c 0.173359,0.622367 0.751224,1.006856 1.256935,1.347131 0.211288,0.01072 0.987405,0.396906 0.445686,0.397872 -0.600816,-0.16638 -1.166721,-0.476525 -1.66365,-0.846632 -0.29443,-0.130142 -0.715025,-0.642607 -0.232432,-0.790964 0.06449,-0.0358 0.128974,-0.0716 0.193461,-0.107407 z"
         id="path6928"
         inkscape:connector-curvature="0" />
      <path
         style="fill:#000000;fill-opacity:1;fill-rule:evenodd;stroke:#000000;stroke-width:0.30000001;stroke-linecap:round;stroke-miterlimit:4;stroke-opacity:1;stroke-dasharray:none;stroke-dashoffset:0"
         d="m 17.256957,13.57685 c 0.282396,0.0631 0.572811,-0.561596 1.024014,-0.41102 -0.362271,0.360293 -1.0444,0.799427 -1.403682,0.830901 0.08924,-0.170172 0.269224,-0.266084 0.379668,-0.419881 z"
         id="path6932"
         inkscape:connector-curvature="0" />
      <path
         style="fill:#000000;fill-opacity:1;fill-rule:evenodd;stroke:#000000;stroke-width:0.30000001;stroke-linecap:round;stroke-miterlimit:4;stroke-opacity:1;stroke-dasharray:none;stroke-dashoffset:0"
         d="m 18.600044,12.211646 c -0.03671,0.532595 0.228112,1.0923 0.665331,1.388359 0.378332,0.443773 -0.328156,0.77336 -0.52814,0.266473 -0.197392,-0.440701 -0.577397,-0.818297 -0.664524,-1.311907 0.07045,-0.214169 0.356477,-0.232672 0.527333,-0.342925 z"
         id="path6944"
         inkscape:connector-curvature="0" />
      <path
         style="fill:#000000;fill-opacity:1;fill-rule:evenodd;stroke:#000000;stroke-width:0.30000001;stroke-linecap:round;stroke-miterlimit:4;stroke-opacity:1;stroke-dasharray:none;stroke-dashoffset:0"
         d="m 16.928678,14.168674 c 0.110479,-0.06203 -0.535494,0.335295 -0.139188,0.115767 0.514184,-0.223622 0.74102,-1.160922 1.329907,-1.047473 -0.311712,0.403643 -0.62036,0.831802 -1.033019,1.14596 -0.188578,0.173317 -0.741795,0.392542 -0.341524,0.0188 0.06228,-0.07688 0.124482,-0.153862 0.183824,-0.233051 z"
         id="path6946"
         inkscape:connector-curvature="0" />
      <path
         style="fill:#000000;fill-opacity:1;fill-rule:evenodd;stroke:#000000;stroke-width:0.30000001;stroke-linecap:round;stroke-miterlimit:4;stroke-opacity:1;stroke-dasharray:none;stroke-dashoffset:0"
         d="m 17.70649,14.345646 c 0.271202,-0.263804 0.443058,-1.063581 0.868939,-0.84802 -0.02023,0.496703 -0.369636,0.862171 -0.868939,0.848021 l 0,-10e-7 z"
         id="path6948"
         inkscape:connector-curvature="0" />
      <path
         style="fill:#000000;fill-opacity:1;fill-rule:evenodd;stroke:#000000;stroke-width:0.30000001;stroke-linecap:round;stroke-miterlimit:4;stroke-opacity:1;stroke-dasharray:none;stroke-dashoffset:0"
         d="m 17.528314,13.544715 c 0.173124,-0.254047 0.682347,-0.937589 0.912494,-0.62687 -0.106265,0.341696 -0.407546,0.581522 -0.764667,0.589567 -0.04927,0.01244 -0.09856,0.02486 -0.147827,0.0373 z"
         id="path6950"
         inkscape:connector-curvature="0" />
      <path
         style="fill:#000000;fill-opacity:1;fill-rule:evenodd;stroke:#000000;stroke-width:0.30000001;stroke-linecap:round;stroke-miterlimit:4;stroke-opacity:1;stroke-dasharray:none;stroke-dashoffset:0"
         d="m 17.253174,12.928817 c 0.475201,-0.275903 0.540566,-1.02798 1.066292,-1.174856 0.265013,0.240746 -0.294192,0.701293 -0.383159,0.997956 -0.186251,0.170318 -0.457466,0.116999 -0.683133,0.1769 z"
         id="path6952"
         inkscape:connector-curvature="0" />
      <path
         style="fill:#000000;fill-opacity:1;fill-rule:evenodd;stroke:#000000;stroke-width:0.30000001;stroke-linecap:round;stroke-miterlimit:4;stroke-opacity:1;stroke-dasharray:none;stroke-dashoffset:0"
         d="m 19.047702,12.861088 c -0.312748,-0.429437 -0.65995,-0.845141 -0.870455,-1.330989 -0.175518,-0.394857 0.455281,-0.754521 0.477927,-0.195802 0.05002,0.542471 0.814032,0.808312 0.796259,1.260282 -0.120142,0.110364 -0.2982,0.138477 -0.403731,0.266509 z"
         id="path6954"
         inkscape:connector-curvature="0" />
      <path
         style="fill:#000000;fill-opacity:1;fill-rule:evenodd;stroke:#000000;stroke-width:0.30000001;stroke-linecap:round;stroke-miterlimit:4;stroke-opacity:1;stroke-dasharray:none;stroke-dashoffset:0"
         d="m 17.792162,11.885548 c -0.11747,-0.577287 1.146982,-0.531025 0.418987,-0.123192 -0.140034,0.03978 -0.279975,0.07995 -0.418987,0.123192 z"
         id="path6956"
         inkscape:connector-curvature="0" />
    </g>
  </g>
</svg>
