<?xml version="1.0" encoding="UTF-8" standalone="no"?>
<!-- Created with Inkscape (http://www.inkscape.org/) -->

<svg
   xmlns:dc="http://purl.org/dc/elements/1.1/"
   xmlns:cc="http://creativecommons.org/ns#"
   xmlns:rdf="http://www.w3.org/1999/02/22-rdf-syntax-ns#"
   xmlns:svg="http://www.w3.org/2000/svg"
   xmlns="http://www.w3.org/2000/svg"
   xmlns:sodipodi="http://sodipodi.sourceforge.net/DTD/sodipodi-0.dtd"
   xmlns:inkscape="http://www.inkscape.org/namespaces/inkscape"
   width="32px"
   height="32px"
   id="svg5053"
   version="1.1"
   inkscape:version="0.48.2 r9819"
   sodipodi:docname="tropical_tree4.svg">
  <defs
     id="defs5055" />
  <sodipodi:namedview
     id="base"
     pagecolor="#ffffff"
     bordercolor="#666666"
     borderopacity="1.0"
     inkscape:pageopacity="0.0"
     inkscape:pageshadow="2"
     inkscape:zoom="22.395604"
     inkscape:cx="9.4138101"
     inkscape:cy="18.576213"
     inkscape:current-layer="layer1"
     showgrid="true"
     inkscape:grid-bbox="true"
     inkscape:document-units="px"
     inkscape:window-width="1600"
     inkscape:window-height="852"
     inkscape:window-x="0"
     inkscape:window-y="0"
     inkscape:window-maximized="1" />
  <metadata
     id="metadata5058">
    <rdf:RDF>
      <cc:Work
         rdf:about="">
        <dc:format>image/svg+xml</dc:format>
        <dc:type
           rdf:resource="http://purl.org/dc/dcmitype/StillImage" />
        <dc:title />
      </cc:Work>
    </rdf:RDF>
  </metadata>
  <g
     id="layer1"
     inkscape:label="Layer 1"
     inkscape:groupmode="layer">
    <g
       id="g3284">
      <path
         style="opacity:0.85409253;fill:#000000;fill-opacity:1;fill-rule:evenodd;stroke:#001003;stroke-width:0.30000001;stroke-linecap:round;stroke-miterlimit:4;stroke-opacity:1;stroke-dasharray:none;stroke-dashoffset:0"
         d="m 13.086714,20.463225 c 0.0078,-0.25615 0.202357,-0.929224 0.154976,-0.887599 0.197166,-0.328991 0.09003,-0.830499 0.3516,-1.17183 0.158752,-0.274841 0.257314,-0.590316 0.231394,-0.552053 0.262964,-0.533972 0.546816,-1.055487 0.783449,-1.602337 0.231764,-0.334288 0.304378,-0.813168 0.687897,-1.01861 0.472444,0.01969 -0.201709,0.609629 -0.271517,0.850789 -0.246704,0.429388 -0.412535,0.901258 -0.680149,1.319204 -0.09834,0.566231 -0.438841,1.070595 -0.419844,1.661705 0.06294,0.428787 -0.172162,0.931607 0.0444,1.199004 -0.22939,0.123352 -0.511616,0.109673 -0.76456,0.179284 -0.03922,0.0075 -0.07843,0.01496 -0.117645,0.02244 z"
         id="path3131"
         inkscape:connector-curvature="0" />
      <path
         style="opacity:0.85409253;fill:#000000;fill-opacity:1;fill-rule:evenodd;stroke:#001003;stroke-width:0.30000001;stroke-linecap:round;stroke-miterlimit:4;stroke-opacity:1;stroke-dasharray:none;stroke-dashoffset:0"
         d="m 15.070028,14.763627 c -0.04286,-0.365536 0.03836,-0.696754 -0.161468,-1.064637 -0.162995,-0.490902 -0.511853,-0.960875 -0.992589,-1.175354 -0.399454,-0.221967 -0.905901,-0.188083 -1.283534,0.06652 0.141533,-0.158369 0.46005,-0.17005 0.156973,0.0183 -0.440227,0.378854 -0.342402,1.03025 -0.583039,1.506554 -0.203934,0.192266 -0.736212,0.27837 -0.493207,-0.163265 0.14696,-0.44448 0.127916,-0.985978 0.482255,-1.354722 0.318988,-0.310759 0.739659,-0.531477 1.169242,-0.639313 0.553726,-0.168828 1.224065,0.0097 1.542069,0.512227 0.327593,0.311552 0.522246,0.713422 0.655666,1.142623 0.114058,0.344567 0.552043,1.03035 -0.100717,1.023897 -0.125654,0.05469 -0.261675,0.08387 -0.391651,0.127169 z"
         id="path3145"
         inkscape:connector-curvature="0" />
      <path
         style="opacity:0.85409253;fill:#000000;fill-opacity:1;fill-rule:evenodd;stroke:#001003;stroke-width:0.30000001;stroke-linecap:round;stroke-miterlimit:4;stroke-opacity:1;stroke-dasharray:none;stroke-dashoffset:0"
         d="m 15.687361,14.117883 c 0.07022,-0.42851 0.238059,-0.8734 0.629754,-1.10504 0.283641,-0.195298 0.008,-0.157219 -0.09212,-0.09329 0.603543,-0.265273 1.195808,-0.706386 1.882613,-0.661352 0.477762,0.08089 0.900546,0.350454 1.183094,0.743925 0.137799,0.380565 0.680232,0.816383 0.50618,1.192798 -0.180624,0.0708 -0.346606,0.175741 -0.521097,0.260841 -0.11872,-0.509164 -0.447896,-0.921941 -0.811261,-1.278866 -0.339655,-0.446951 -0.893177,-0.454809 -1.370496,-0.270022 -0.201607,0.04416 -0.372554,0.227219 -0.109374,0.03763 0.212998,-0.137373 0.350785,-0.224088 0.0474,-0.04206 -0.43781,0.174948 -0.381971,0.826382 -0.655795,0.996883 -0.231062,0.06673 -0.458296,0.148943 -0.688899,0.21855 z"
         id="path3147"
         inkscape:connector-curvature="0" />
      <path
         style="opacity:0.85409253;fill:#000000;fill-opacity:1;fill-rule:evenodd;stroke:#001003;stroke-width:0.30000001;stroke-linecap:round;stroke-miterlimit:4;stroke-opacity:1;stroke-dasharray:none;stroke-dashoffset:0"
         d="m 15.440713,14.303918 c 0.31828,-0.303665 0.605863,-0.625139 0.976277,-0.873017 0.484139,-0.307192 0.846888,0.151902 0.923198,0.601853 0.140352,0.462779 0.182304,0.837788 0.353449,1.284225 0.142621,0.328329 0.05934,0.724078 -0.311992,0.806468 -0.117579,0.02228 -0.418089,0.287268 -0.399723,0.129179 0.04221,-0.455185 -0.01525,-0.929337 -0.164798,-1.358348 -0.06895,-0.316347 -0.241449,-1.04389 -0.682039,-0.813631 0.219411,-0.113483 0.803865,-0.624549 0.347055,-0.169684 -0.18511,0.362339 -0.648095,0.26682 -0.986887,0.382206 l -0.05454,0.01075 3e-6,0 z"
         id="path3157"
         inkscape:connector-curvature="0" />
      <path
         style="opacity:0.85409253;fill:#000000;fill-opacity:1;fill-rule:evenodd;stroke:#001003;stroke-width:0.30000001;stroke-linecap:round;stroke-miterlimit:4;stroke-opacity:1;stroke-dasharray:none;stroke-dashoffset:0"
         d="m 15.293267,14.189458 c -0.225609,-0.443249 -0.768577,-0.516534 -1.211226,-0.44473 -0.239257,-0.01426 -0.835176,0.321218 -0.75237,0.313187 0.496336,-0.394154 -0.214006,0.194596 -0.25248,0.429329 -0.129421,0.253887 -0.917769,0.547087 -0.57838,0.02491 0.253338,-0.488782 0.758544,-0.769977 1.201164,-1.061314 0.408906,-0.21883 0.868611,-0.24505 1.318024,-0.224322 0.313028,0.03688 0.872196,0.221554 0.925557,0.467612 -0.221259,0.157958 -0.43456,0.328754 -0.650289,0.495333 z"
         id="path3159"
         inkscape:connector-curvature="0" />
      <path
         style="opacity:0.85409253;fill:#000000;fill-opacity:1;fill-rule:evenodd;stroke:#001003;stroke-width:0.27503479;stroke-linecap:round;stroke-miterlimit:4;stroke-opacity:1;stroke-dasharray:none;stroke-dashoffset:0"
         d="m 15.253144,13.763017 c 0.197612,-0.387007 0.193274,-0.823935 0.03689,-1.222631 -0.143612,-0.685741 -0.601585,-1.239716 -0.988525,-1.803593 0.272334,-0.31075 0.589138,-0.223115 0.735826,0.151793 0.39138,0.580008 0.625448,1.253832 0.886055,1.892555 0.04696,0.30192 0.177229,0.521353 0.116612,0.758466 -0.262284,0.07447 -0.524556,0.148987 -0.786854,0.22341 z"
         id="path3197"
         inkscape:connector-curvature="0" />
    </g>
  </g>
</svg>
