<?xml version="1.0" encoding="UTF-8" standalone="no"?>
<!-- Created with Inkscape (http://www.inkscape.org/) -->

<svg
   xmlns:dc="http://purl.org/dc/elements/1.1/"
   xmlns:cc="http://creativecommons.org/ns#"
   xmlns:rdf="http://www.w3.org/1999/02/22-rdf-syntax-ns#"
   xmlns:svg="http://www.w3.org/2000/svg"
   xmlns="http://www.w3.org/2000/svg"
   xmlns:sodipodi="http://sodipodi.sourceforge.net/DTD/sodipodi-0.dtd"
   xmlns:inkscape="http://www.inkscape.org/namespaces/inkscape"
   width="32px"
   height="32px"
   id="svg5053"
   version="1.1"
   inkscape:version="0.48.2 r9819"
   sodipodi:docname="tropical_tree3.svg">
  <defs
     id="defs5055" />
  <sodipodi:namedview
     id="base"
     pagecolor="#ffffff"
     bordercolor="#666666"
     borderopacity="1.0"
     inkscape:pageopacity="0.0"
     inkscape:pageshadow="2"
     inkscape:zoom="11.197802"
     inkscape:cx="4.4752358"
     inkscape:cy="21.073835"
     inkscape:current-layer="layer1"
     showgrid="true"
     inkscape:grid-bbox="true"
     inkscape:document-units="px"
     inkscape:window-width="1600"
     inkscape:window-height="852"
     inkscape:window-x="0"
     inkscape:window-y="0"
     inkscape:window-maximized="1" />
  <metadata
     id="metadata5058">
    <rdf:RDF>
      <cc:Work
         rdf:about="">
        <dc:format>image/svg+xml</dc:format>
        <dc:type
           rdf:resource="http://purl.org/dc/dcmitype/StillImage" />
        <dc:title />
      </cc:Work>
    </rdf:RDF>
  </metadata>
  <g
     id="layer1"
     inkscape:label="Layer 1"
     inkscape:groupmode="layer">
    <g
       id="g3339">
      <path
         style="opacity:0.85409253;fill:#000000;fill-opacity:1;fill-rule:evenodd;stroke:#001003;stroke-width:0.30000001;stroke-linecap:round;stroke-miterlimit:4;stroke-opacity:1;stroke-dasharray:none;stroke-dashoffset:0"
         d="m 14.905269,20.1179 c 0.166132,-0.553703 0.410017,-1.305613 0.502689,-1.979171 0.260101,-1.142415 0.292207,-2.31835 0.366099,-3.483752 0.05816,-0.881647 -0.05833,-1.782126 0.05328,-2.651779 0.215612,-0.489954 0.987339,-1.151675 1.395825,-1.041225 -0.007,0.396162 -0.998984,0.682915 -0.284084,0.339049 -0.786208,0.360343 -0.601394,1.34195 -0.698651,2.040846 -0.0728,0.861555 -0.113838,1.722356 -0.213004,2.577929 -0.04988,1.069789 -0.141772,2.135042 -0.284902,3.20002 0.163588,0.703272 -0.256406,0.821163 -0.837248,0.998083 z"
         id="path3201"
         inkscape:connector-curvature="0" />
      <path
         style="opacity:0.85409253;fill:#000000;fill-opacity:1;fill-rule:evenodd;stroke:#001003;stroke-width:0.30000001;stroke-linecap:round;stroke-miterlimit:4;stroke-opacity:1;stroke-dasharray:none;stroke-dashoffset:0"
         d="m 15.362115,18.961959 c 0.231177,-0.719879 0.228006,-1.503215 0.395521,-2.223911 0.0115,-0.60121 0.159438,-1.318 0.181001,-1.961746 0.03996,-0.775748 -0.09417,-1.5902 -0.720726,-2.115717 -0.15476,-0.4127 -1.367366,-0.766854 -0.695856,-1.201548 0.609894,0.339239 1.150578,0.679461 1.604907,1.187854 0.64409,0.825033 0.343601,1.920916 0.291626,2.874646 -0.213241,1.000608 -0.166809,2.038703 -0.224905,3.051193 -0.145291,0.269676 -0.583359,0.235187 -0.831568,0.389229 z"
         id="path3203"
         inkscape:connector-curvature="0" />
      <path
         style="opacity:0.85409253;fill:#000000;fill-opacity:1;fill-rule:evenodd;stroke:#001003;stroke-width:0.30000001;stroke-linecap:round;stroke-miterlimit:4;stroke-opacity:1;stroke-dasharray:none;stroke-dashoffset:0"
         d="m 15.182233,11.623902 c 0.07553,-0.748926 -0.149121,-1.519685 -0.532854,-2.1420439 0.0996,-0.6968378 0.780178,-0.4796575 0.788365,0.1231784 0.173204,0.5779065 0.972055,1.5290955 0.100996,1.8050415 -0.118838,0.07127 -0.23766,0.142568 -0.356507,0.213824 z"
         id="path3205"
         inkscape:connector-curvature="0" />
      <path
         style="opacity:0.85409253;fill:#000000;fill-opacity:1;fill-rule:evenodd;stroke:#001003;stroke-width:0.30000001;stroke-linecap:round;stroke-miterlimit:4;stroke-opacity:1;stroke-dasharray:none;stroke-dashoffset:0"
         d="m 14.639475,10.938685 c -0.41099,0.545374 -0.13064,1.473509 -0.804072,1.79597 -0.332181,0.290876 -1.022516,0.650105 -0.455932,3.08e-4 -0.0486,-0.264963 -0.472397,0.5343 -0.02237,0.03414 -0.617084,0.198432 0.698643,-0.610158 0.373749,-1.104182 -0.255258,-0.598702 0.554146,-0.490229 0.908626,-0.726241 z"
         id="path3221"
         inkscape:connector-curvature="0" />
      <path
         style="opacity:0.85409253;fill:#000000;fill-opacity:1;fill-rule:evenodd;stroke:#001003;stroke-width:0.30000001;stroke-linecap:round;stroke-miterlimit:4;stroke-opacity:1;stroke-dasharray:none;stroke-dashoffset:0"
         d="m 15.081388,6.9308731 c 0.125255,0.4951041 -0.325507,0.612632 -0.279646,1.1533174 -0.375301,0.5794628 -0.838223,1.7231691 -1.59887,1.6149303 0.465465,-0.5371793 0.981494,-1.2246916 1.204038,-1.9808821 -0.150829,-0.5519899 0.206359,-0.4835755 0.674478,-0.7873656 z"
         id="path3247"
         inkscape:connector-curvature="0" />
      <path
         style="opacity:0.85409253;fill:#000000;fill-opacity:1;fill-rule:evenodd;stroke:#001003;stroke-width:0.30000001;stroke-linecap:round;stroke-miterlimit:4;stroke-opacity:1;stroke-dasharray:none;stroke-dashoffset:0"
         d="m 16.891839,11.104123 c -0.427524,0.179201 0.447306,-0.392538 -0.151763,-0.157085 0.385139,-0.650962 0.798618,-1.2177963 1.460835,-1.6402889 0.600968,-0.4267807 1.357789,-0.3709042 1.786807,-0.078881 0.417096,-0.095669 -0.241352,0.1635895 0.309666,0.1898978 -0.04274,0.2261347 -0.184306,0.3976083 0.257394,0.432501 -0.01486,0.3796529 0.638497,0.3485709 0.507631,0.9010949 0.259786,-0.170757 0.519538,0.161404 0.800165,0.06109 0.663616,0.158182 0.208856,0.40163 -0.112353,0.760279 -0.232567,-0.368924 -0.804223,0.131316 -0.836671,-0.355462 -0.301848,-0.115917 -0.709252,-0.627324 -0.826803,-0.597903 0.113186,-0.312093 -0.515064,-0.618573 -0.588171,-0.617784 -0.178707,-0.2334072 -0.444367,-0.4766277 -0.622612,-0.488924 -0.356919,0.1221918 -1.250768,0.50591 -0.482658,0.089403 -0.101262,0.2401748 -0.986064,0.3556567 -0.34953,0.4609015 -0.270277,0.0884 -0.39085,0.436025 0.01586,0.236561 -0.458005,0.307725 -0.446875,0.62485 -1.167797,0.8046 z"
         id="path3277"
         inkscape:connector-curvature="0" />
      <path
         style="opacity:0.85409253;fill:#000000;fill-opacity:1;fill-rule:evenodd;stroke:#001003;stroke-width:0.30000001;stroke-linecap:round;stroke-miterlimit:4;stroke-opacity:1;stroke-dasharray:none;stroke-dashoffset:0"
         d="m 18.351709,10.20785 c 0.283893,-0.2582092 0.04942,0.135171 0.379348,0.148123 -0.01952,0.707207 0.786836,0.794854 1.268856,1.11315 -0.232961,0.442853 -0.52818,0.283438 -0.85684,0.160928 -0.451571,0.461902 -0.228546,-0.44939 -0.796444,-0.336784 0.149038,-0.440508 -0.477297,0.05533 -0.312271,-0.458085 -0.639689,-0.04513 0.239449,-0.442633 0.317351,-0.627332 z"
         id="path3279"
         inkscape:connector-curvature="0" />
      <path
         style="opacity:0.85409253;fill:#000000;fill-opacity:1;fill-rule:evenodd;stroke:#001003;stroke-width:0.30000001;stroke-linecap:round;stroke-miterlimit:4;stroke-opacity:1;stroke-dasharray:none;stroke-dashoffset:0"
         d="m 19.115918,9.3021594 c 0.170962,0.080432 0.11708,-0.1244541 0.03952,0.1550002 0.373621,0.011175 0.166633,0.3836228 0.598689,0.3516864 -0.344896,0.219973 -0.780502,0.94165 -0.813953,0.36087 C 18.604,10.169138 18.437926,9.9876662 18.345565,9.8715538 18.60676,9.6878746 18.858901,9.4915725 19.115918,9.3021594 z"
         id="path3281"
         inkscape:connector-curvature="0" />
      <path
         style="opacity:0.85409253;fill:#000000;fill-opacity:1;fill-rule:evenodd;stroke:#001003;stroke-width:0.30000001;stroke-linecap:round;stroke-miterlimit:4;stroke-opacity:1;stroke-dasharray:none;stroke-dashoffset:0"
         d="m 19.281007,9.6797619 c -0.384755,0.5693041 0.09699,0.1207417 0.314617,0.1809537 0.398891,1.0097884 -1.025975,0.8478604 -1.104164,0.3920534 -0.445028,0.348739 0.741268,-0.5440338 0.789547,-0.5730071 z"
         id="path3283"
         inkscape:connector-curvature="0" />
      <path
         style="opacity:0.85409253;fill:#000000;fill-opacity:1;fill-rule:evenodd;stroke:#001003;stroke-width:0.30000001;stroke-linecap:round;stroke-miterlimit:4;stroke-opacity:1;stroke-dasharray:none;stroke-dashoffset:0"
         d="m 13.86862,4.562112 c 0.160515,-0.2805929 0.154611,0.1709681 0.166112,0.1613812 0.581911,0.059152 1.659378,-0.6107262 1.816277,-0.6320652 -0.325099,0.2270279 0.510748,-0.5001591 0.772377,-0.5596962 0.521998,-0.428904 1.083245,0.2312361 1.626874,-0.041783 -0.04161,0.7485739 0.698643,0.1973684 0.88303,0.3883856 0.347162,0.057069 0.66005,-0.21038 0.740564,-0.1519835 0.32384,-0.2245017 0.512546,-0.3479435 0.663198,-0.02671 0.60694,0.038529 -0.28828,0.537761 0.210711,0.587959 -0.368048,0.2462007 -1.131472,0.9132465 -1.175762,0.9320162 0.155002,-0.2391907 -0.771506,-0.00318 -0.944133,-0.1046105 -0.674581,0.025169 -1.457546,0.10116 -2.01177,0.2298666 0.15077,-0.3879181 -0.564973,0.2216633 -0.860368,0.084666 -0.31319,0.309032 -0.57196,-0.2781775 -1.004885,0.017596 C 14.423428,5.3040183 14.261286,5.126407 13.855959,5.3797995 13.5873,5.1135197 13.120837,5.5212294 13.096563,5.6198761 c 0.09469,-0.1677011 0.825871,-0.5740305 0.282773,-0.2461743 0.49633,0.1776636 1.368401,0.044935 1.571386,0.4904931 0.542812,-0.5172245 1.003971,0.2652036 1.579379,-0.1615666 0.421958,-0.2403965 0.477644,-0.077914 0.899906,-0.3200022 -0.233618,0.1182995 -0.702446,0.4374534 -0.228128,0.1188578 0.487557,-0.7451343 1.408384,-0.6081883 2.131631,-0.5183014 0.335742,-0.060447 0.612039,0.2054394 0.739428,0.1520308 C 19.82064,5.5904724 19.44408,5.9360936 19.121885,5.4077211 18.985442,5.7286049 18.649811,5.2005914 18.567371,5.643619 18.447459,5.0808449 16.979817,6.1535358 17.845554,5.4196264 c 0.102367,0.00746 -0.649579,0.652263 -0.961809,0.63213 C 16.168916,6.1895585 15.43436,6.2581015 14.698922,6.2739326 14.319537,6.3989897 14.409444,6.2183808 13.945297,6.133081 13.64622,6.0130514 13.118036,5.9077413 12.982444,5.8793013 13.32527,5.5943825 12.424377,6.1518118 12.775588,5.6474991 12.707877,5.038219 13.664244,4.782594 14.292317,4.6787825 c 0.484905,-0.2097163 0.886746,0.5271325 1.362419,0.2063277 0.514158,0.2450316 1.01159,-0.2034054 1.447412,0.00655 0.661853,-0.2063401 1.422723,-0.2677971 2.040897,-0.3058319 0.403596,0.3271302 1.478926,-0.5114389 0.702237,-0.039476 -0.528513,0.5026108 0.385481,-0.2262793 -0.065,-0.2210745 C 20.02869,3.971312 19.3331,4.6201368 19.46077,4.2724627 18.858255,4.6977669 18.388194,4.2323259 17.815367,4.3483301 17.957975,3.9094359 17.053046,4.3588433 17.19995,3.9634979 16.864064,3.8953895 15.99011,4.3485974 16.658286,3.8174084 c 0.51095,-0.1497542 -0.750296,0.277203 -0.148729,0.2471541 -0.799084,0.5762922 -1.714254,1.0093106 -2.673473,1.211865 -0.27585,-0.1593726 -0.70458,0.044614 -0.276524,-0.411878 0.0872,-0.117742 0.223595,-0.1827544 0.30906,-0.3024375 z"
         id="path3285"
         inkscape:connector-curvature="0" />
      <path
         style="opacity:0.85409253;fill:#000000;fill-opacity:1;fill-rule:evenodd;stroke:#001003;stroke-width:0.30000001;stroke-linecap:round;stroke-miterlimit:4;stroke-opacity:1;stroke-dasharray:none;stroke-dashoffset:0"
         d="m 14.507019,4.746264 c 0.727517,-0.3491176 1.439989,-0.1280544 2.012823,-0.3882014 0.296413,-0.2010178 1.000133,-0.3296284 0.454184,0.1579469 -0.492353,0.4893373 -1.344833,0.3050964 -1.98758,0.5623002 -0.29292,0.065088 -1.181173,0.3978547 -0.622305,-0.1593267 l 0.07145,-0.086364 0.07143,-0.086356 0,2e-7 z"
         id="path3287"
         inkscape:connector-curvature="0" />
      <path
         style="opacity:0.85409253;fill:#000000;fill-opacity:1;fill-rule:evenodd;stroke:#001003;stroke-width:0.30000001;stroke-linecap:round;stroke-miterlimit:4;stroke-opacity:1;stroke-dasharray:none;stroke-dashoffset:0"
         d="m 16.957101,3.671446 c -0.537193,0.5553114 0.482155,-0.2596114 0.145793,0.3085937 0.242905,0.1973599 0.614849,0.3092417 0.07656,0.5064446 C 16.815953,4.460568 16.392772,4.7951636 16.325508,4.4395064 15.9554,4.5999185 16.838833,3.8163185 16.957101,3.671446 z"
         id="path3289"
         inkscape:connector-curvature="0" />
      <path
         style="opacity:0.85409253;fill:#000000;fill-opacity:1;fill-rule:evenodd;stroke:#001003;stroke-width:0.30000001;stroke-linecap:round;stroke-miterlimit:4;stroke-opacity:1;stroke-dasharray:none;stroke-dashoffset:0"
         d="m 8.3459867,7.5251869 c 0.4023353,-0.2681018 1.1553519,-0.00929 1.7340893,-0.028502 0.310124,0.085166 0.52561,-0.096526 0.362592,-0.025319 0.490847,0.054203 0.773768,-0.3705357 1.068926,-0.1953877 0.755939,0.091802 1.559582,-0.110454 2.225096,-0.198074 0.343172,0.2187367 1.312134,0.062951 0.991089,0.8856727 -0.441603,0.6084573 -1.114883,1.2256997 -1.815134,1.4178543 -0.237361,-0.2147512 -0.835022,0.2535231 -0.479504,-0.2993552 0.367227,-0.1869836 0.741304,-0.3616561 1.189602,-0.52349 -0.181649,0.3307187 -0.808111,0.4764469 -0.16355,0.141689 7.28e-4,-0.192732 0.596152,-0.3886533 0.283899,-0.313681 0.483387,-0.2165527 -0.0033,-0.081007 0.347313,-0.3458149 0.03581,-0.2128401 -0.433782,0.1245162 -0.146846,-0.2550381 -0.781135,-0.1857549 -1.627274,0.016676 -2.434116,-0.072411 -0.508485,-0.05769 -0.891854,0.19387 -1.370472,0.045584 -0.7337941,0.06587 -1.3907964,0.1458174 -2.0195286,0.3415544 -0.3961309,0.066143 0.037703,-0.2352492 0.2265443,-0.575281 z"
         id="path3291"
         inkscape:connector-curvature="0" />
      <path
         style="opacity:0.85409253;fill:#000000;fill-opacity:1;fill-rule:evenodd;stroke:#001003;stroke-width:0.30000001;stroke-linecap:round;stroke-miterlimit:4;stroke-opacity:1;stroke-dasharray:none;stroke-dashoffset:0"
         d="m 8.9797664,7.2912114 c 0.198242,-0.167852 -0.1590925,0.4448408 0.2781772,0.077809 0.03303,0.6896036 0.8734334,0.2380929 1.1944164,0.6798457 0.770639,0.1320472 1.483549,0.2490859 2.171541,0.081314 0.536435,0.1015075 1.399604,0.2116459 1.130784,1.1247224 -0.573226,0.3262093 -0.682357,0.4884911 -0.906941,0.029766 C 13.130963,9.0894387 12.964626,8.8850469 12.826076,8.7747475 12.639427,8.5366597 12.469137,8.8946803 12.370784,8.5758636 12.097505,8.7974211 11.049076,8.2984988 11.388986,8.6573789 10.722272,8.8040689 10.320178,8.2344217 9.5950256,8.3471965 8.9875147,8.234571 7.8331347,7.719045 8.8690841,7.3560491 c 0.036894,-0.021612 0.073789,-0.043226 0.1106823,-0.064838 z"
         id="path3293"
         inkscape:connector-curvature="0" />
      <path
         style="opacity:0.85409253;fill:#000000;fill-opacity:1;fill-rule:evenodd;stroke:#001003;stroke-width:0.30000001;stroke-linecap:round;stroke-miterlimit:4;stroke-opacity:1;stroke-dasharray:none;stroke-dashoffset:0"
         d="m 11.893125,7.3572246 c -0.286653,0.3512673 0.590765,-0.1689221 0.196069,0.29362 0.01387,0.1612318 1.323193,-0.032105 1.429408,0.6188294 -0.3457,0.1516127 -0.927521,1.0076412 -0.683149,0.9990849 -0.0915,0.2997183 0.267504,0.5408323 0.724875,0.2610302 0.469951,-0.072265 -0.754228,0.6940549 -0.215412,0.3208467 -1.038328,0.6164592 0.176423,-0.9623354 0.57936,-0.3728797 0.02095,0.8466099 -0.917644,0.7366639 -1.438693,0.6187299 -0.327863,-0.02445 -0.688673,-0.5188981 -0.203091,-0.6277047 -0.509019,-0.085246 0.436109,-0.6647736 0.243046,-0.7833195 0.125794,-0.2710486 -0.21915,0.079537 0.200944,-0.14393 -0.131628,-0.2980231 -1.088748,-0.095847 -0.708058,-0.6093269 -0.417128,0.4002763 -1.381227,0.00773 -0.528348,-0.354457 0.138347,-0.066041 0.267859,-0.1485209 0.403049,-0.2205233 z"
         id="path3295"
         inkscape:connector-curvature="0" />
      <path
         style="opacity:0.85409253;fill:#000000;fill-opacity:1;fill-rule:evenodd;stroke:#001003;stroke-width:0.30000001;stroke-linecap:round;stroke-miterlimit:4;stroke-opacity:1;stroke-dasharray:none;stroke-dashoffset:0"
         d="m 12.682486,11.547697 c 0.204769,0.0455 0.527113,0.172777 0.711791,-0.06105 0.347365,-0.05822 1.339791,0.0912 0.695469,0.528071 -0.129798,0.303011 -0.885021,0.7292 -0.593389,0.08188 -0.445356,0.303605 -0.106746,-0.173373 -0.635212,-0.01751 -0.594668,-0.06209 -1.127938,-0.251049 -1.763156,-0.131821 0.123387,-0.60854 -0.807324,-0.48524 -0.678193,-0.285338 0.397207,-0.23669 0.517151,-0.619262 0.513256,-0.0021 0.0069,0.492636 0.672036,0.412418 0.934396,0.615896 0.51334,-0.152698 1.298168,-0.355838 1.668628,-0.450918 -0.384743,0.83674 -1.527228,0.920549 -2.34159,0.901567 -0.689458,0.145864 -0.483835,-0.847415 -1.090321,-0.790064 0.188756,-0.349738 -0.0983,-0.779862 0.440197,-1.000086 0.23773,-0.271801 0.793192,-0.404626 0.285714,0.0364 0.342873,-0.142445 0.655418,0.46136 0.982167,0.09919 -0.32674,0.236644 0.348323,0.424887 0.302404,0.481993 0.615422,-0.127112 1.315946,0.08222 1.886516,-8.48e-4 -0.246886,0.04504 -0.921719,0.545242 -0.424211,0.555331 0.191753,-0.211932 -0.590635,0.113513 -0.826906,0.119305 -0.167717,0.144081 -0.425948,-0.126758 -0.733684,-0.01984 0.163817,-0.257862 0.459596,-0.432477 0.666124,-0.660039 z"
         id="path3297"
         inkscape:connector-curvature="0" />
      <path
         style="opacity:0.85409253;fill:#000000;fill-opacity:1;fill-rule:evenodd;stroke:#001003;stroke-width:0.30000001;stroke-linecap:round;stroke-miterlimit:4;stroke-opacity:1;stroke-dasharray:none;stroke-dashoffset:0"
         d="m 16.249959,8.0696584 c 0.439549,0.00564 1.148776,-0.089277 1.829567,-0.2527754 -0.131697,0.4376142 -0.807337,0.6026552 -0.984383,0.3683102 -0.507397,-0.00211 -1.28127,0.3153781 -1.442336,0.4683971 0.02402,-0.1913506 0.7811,-0.5605997 0.271452,-0.2760269 0.471323,-0.1134237 -0.585607,0.4375863 -0.751288,0.656956 C 14.842419,9.3254073 14.981597,8.7956302 14.745098,9.064569 14.863463,8.5614595 13.481079,8.933784 14.286244,8.5202865 14.776875,8.5694651 12.965753,9.1693117 13.809091,8.4918497 14.01,8.3682189 14.789181,7.7726463 14.277664,8.24654 14.804637,7.9531279 15.029577,8.4408868 15.530559,8.3748278 15.344644,8.5773826 14.742604,8.7842363 15.286689,8.48532 15.809391,8.3836052 16.0914,7.7418336 16.425344,7.8152086 c -0.173698,0.1664361 0.586113,-0.3130411 0.862928,-0.116713 0.438434,-0.2141865 0.220518,0.1568258 0.606501,-0.012807 -0.103543,0.049865 0.905512,0.2072327 0.236402,0.3596895 -0.652806,0.1629568 -0.305519,0.4484531 -0.830847,0.5730371 -0.432632,-0.060831 -1.158486,-0.012268 -1.61435,0.242842 0.180317,-0.2687999 0.38143,-0.5238138 0.563981,-0.7915988 z"
         id="path3299"
         inkscape:connector-curvature="0" />
      <path
         style="opacity:0.85409253;fill:#000000;fill-opacity:1;fill-rule:evenodd;stroke:#001003;stroke-width:0.30000001;stroke-linecap:round;stroke-miterlimit:4;stroke-opacity:1;stroke-dasharray:none;stroke-dashoffset:0"
         d="m 15.972276,9.29223 c 0.232997,-0.359112 0.56502,-0.3229604 0.256393,-0.072361 0.108306,0.1208143 0.281149,0.2434363 0.520975,0.2148279 -0.02877,0.1004788 0.250779,0.487934 -0.165032,0.6534756 -0.371188,0.221211 -1.022184,0.272708 -1.17947,0.05003 -0.375294,0.07644 0.280968,-0.5927788 -0.138488,-0.4135715 -0.331764,-0.3427634 0.168754,-0.4342741 0.433157,-0.6315281 0.495161,-0.4532595 0.161697,0.6836192 0.462146,0.4923102 -0.557216,0.5726014 0.335209,-0.3317351 -0.01685,0.1605285 0.690031,-0.3598342 0.07617,-0.074922 -0.189737,0.1872995 0.589621,0.089704 -0.439138,0.1695514 -0.255883,-0.2395491 -0.462759,0.033299 -0.48144,-0.1028114 -0.09572,-0.3259767 -0.51597,-0.1736467 0.557777,-0.4101013 0.667076,-0.7681351 0.431233,-0.3559085 -0.295587,0.6297305 -0.29856,0.6926453 z"
         id="path3301"
         inkscape:connector-curvature="0" />
      <path
         style="opacity:0.85409253;fill:#000000;fill-opacity:1;fill-rule:evenodd;stroke:#001003;stroke-width:0.30000001;stroke-linecap:round;stroke-miterlimit:4;stroke-opacity:1;stroke-dasharray:none;stroke-dashoffset:0"
         d="m 15.657746,6.4101072 c 0.06548,-0.1819826 0.929232,-0.5073919 0.264632,-0.082672 -0.331601,0.2718977 -0.246507,1.1205248 -0.948967,0.9211562 -0.114693,-0.3519811 0.429586,-0.6869807 0.121205,-0.7320993 0.201278,-0.2578787 1.026123,-0.9272102 0.985887,-0.76011 -0.140919,0.2179084 -0.281838,0.4358168 -0.422757,0.6537252 z"
         id="path3303"
         inkscape:connector-curvature="0" />
      <path
         style="opacity:0.85409253;fill:#000000;fill-opacity:1;fill-rule:evenodd;stroke:#001003;stroke-width:0.30000001;stroke-linecap:round;stroke-miterlimit:4;stroke-opacity:1;stroke-dasharray:none;stroke-dashoffset:0"
         d="m 17.698717,8.3299786 c 0.04774,-0.137809 -0.268693,0.1559638 -0.210672,0.010391 -0.560568,0.5314943 1.225334,-0.5887248 0.256634,-0.3202709 0.256781,-0.3776327 0.0288,0.4073047 0.430505,-0.1304712 0.527607,-0.079313 -0.598164,0.9923476 -0.971076,0.5730419 -0.664192,-0.313321 1.059647,-0.9013877 0.984575,-0.8919018 -0.159109,0.2557376 -0.329325,0.5044049 -0.489966,0.759211 z"
         id="path3305"
         inkscape:connector-curvature="0" />
      <path
         style="opacity:0.85409253;fill:#000000;fill-opacity:1;fill-rule:evenodd;stroke:#001003;stroke-width:0.30000001;stroke-linecap:round;stroke-miterlimit:4;stroke-opacity:1;stroke-dasharray:none;stroke-dashoffset:0"
         d="m 16.648572,8.1786325 c 0.06913,0.097851 -0.07268,0.5075702 0.235437,0.1481899 0.05793,0.1831484 0.576641,-0.1473292 0.511487,0.3781478 0.63927,-0.27592 1.016215,0.6976759 1.776756,0.319093 0.793063,0.1136749 1.538328,-0.2081382 2.300257,-0.065404 -0.345348,0.9644982 -1.56745,0.2187718 -2.296341,0.5189011 -0.619364,-0.1412777 -1.487517,-0.1470867 -2.000228,-0.339335 -0.166713,-0.3389844 -0.958698,0.172757 -0.898062,-0.3897889 -0.649649,0.3719061 0.0065,-0.3371591 0.248444,-0.4636915 l 0.12225,-0.1061129 0,5e-7 z"
         id="path3307"
         inkscape:connector-curvature="0" />
      <path
         style="opacity:0.85409253;fill:#000000;fill-opacity:1;fill-rule:evenodd;stroke:#001003;stroke-width:0.30000001;stroke-linecap:round;stroke-miterlimit:4;stroke-opacity:1;stroke-dasharray:none;stroke-dashoffset:0"
         d="m 17.972181,7.5080489 c 0.124974,-0.3784221 0.19473,0.4541557 0.579305,0.1367233 0.621712,0.098387 1.273767,0.8700725 1.510361,1.0125564 0.151986,-0.050715 -0.270448,0.3459691 0.09571,0.2720481 -0.302188,0.3912847 -0.83038,0.7101527 -1.015551,0.043969 -0.224931,-0.7473916 -1.139973,-0.7524526 -1.69993,-0.821652 0.167186,-0.2210946 0.359145,-0.424074 0.530102,-0.6436446 z"
         id="path3309"
         inkscape:connector-curvature="0" />
      <path
         style="opacity:0.85409253;fill:#000000;fill-opacity:1;fill-rule:evenodd;stroke:#001003;stroke-width:0.30000001;stroke-linecap:round;stroke-miterlimit:4;stroke-opacity:1;stroke-dasharray:none;stroke-dashoffset:0"
         d="M 18.510567,9.4006691 C 18.828322,8.9140713 18.311229,9.6098746 18.506394,9.1267335 17.738276,9.5589834 18.99225,8.010191 19.095174,8.777357 19.667084,8.5328608 18.557225,9.2949103 18.510567,9.4006691 z"
         id="path3311"
         inkscape:connector-curvature="0" />
      <path
         style="opacity:0.85409253;fill:#000000;fill-opacity:1;fill-rule:evenodd;stroke:#001003;stroke-width:0.30000001;stroke-linecap:round;stroke-miterlimit:4;stroke-opacity:1;stroke-dasharray:none;stroke-dashoffset:0"
         d="m 17.803181,8.2034506 c 0.01581,0.6847429 1.37409,-0.1803047 0.697158,0.5483909 -0.214938,0.5170003 -0.780333,-0.014127 -1.08181,0.3458674 0.28551,-0.4916383 -0.572824,0.087397 -0.03961,-0.3814112 0.141419,-0.1709483 0.282851,-0.3419027 0.424261,-0.5128471 z"
         id="path3313"
         inkscape:connector-curvature="0" />
      <path
         style="opacity:0.85409253;fill:#000000;fill-opacity:1;fill-rule:evenodd;stroke:#001003;stroke-width:0.30000001;stroke-linecap:round;stroke-miterlimit:4;stroke-opacity:1;stroke-dasharray:none;stroke-dashoffset:0"
         d="m 18.028456,3.7163377 c -0.259066,0.2546222 -1.510022,0.412449 -0.54573,0.1540842 0.18191,-0.051361 0.36382,-0.1027228 0.54573,-0.1540842 z"
         id="path3315"
         inkscape:connector-curvature="0" />
      <path
         style="opacity:0.85409253;fill:#000000;fill-opacity:1;fill-rule:evenodd;stroke:#001003;stroke-width:0.30000001;stroke-linecap:round;stroke-miterlimit:4;stroke-opacity:1;stroke-dasharray:none;stroke-dashoffset:0"
         d="m 17.118896,4.2655137 c -0.416863,0.4532116 0.752468,-0.2460621 0.142289,0.3829789 -0.152916,0.3550947 -0.691138,0.3934984 -0.66765,0.2851736 0.166829,-0.2290439 0.354028,-0.442485 0.525361,-0.6681525 z"
         id="path3317"
         inkscape:connector-curvature="0" />
      <path
         style="opacity:0.85409253;fill:#000000;fill-opacity:1;fill-rule:evenodd;stroke:#001003;stroke-width:0.30000001;stroke-linecap:round;stroke-miterlimit:4;stroke-opacity:1;stroke-dasharray:none;stroke-dashoffset:0"
         d="M 9.8404363,6.9926548 C 10.543263,6.8632235 11.257514,6.53592 11.966038,6.8392917 12.56952,6.6830299 12.791345,7.4555077 12.134606,7.3970458 11.599164,6.8910324 10.769966,7.134214 10.094771,7.3223043 9.7440229,7.4044455 9.3379584,7.5664066 9.7632119,7.0914092 l 0.073969,-0.094265 0.00328,-0.0045 c 0,0 -2.5e-5,1.09e-5 -2.5e-5,1.09e-5 z"
         id="path3319"
         inkscape:connector-curvature="0" />
      <path
         style="opacity:0.85409253;fill:#000000;fill-opacity:1;fill-rule:evenodd;stroke:#001003;stroke-width:0.30000001;stroke-linecap:round;stroke-miterlimit:4;stroke-opacity:1;stroke-dasharray:none;stroke-dashoffset:0"
         d="m 10.263755,7.362818 c 0.424224,0.4185045 1.029843,0.4833387 1.742513,0.5650842 0.651413,0.020798 1.23701,0.1967844 1.826993,0.147866 0.285779,-0.08915 0.981974,-0.6826714 0.353409,-0.1681734 -0.314598,0.3630684 0.115295,-0.011669 -0.372194,0.062797 -0.293761,0.2314014 -0.01981,-0.1999639 -0.369949,0.1217994 0.42622,-0.5452598 0.630786,-0.016182 0.07661,0.1931733 -0.823977,-0.035885 0.474646,-1.128056 0.875767,-0.6302841 0.63045,0.4405525 -0.73349,0.7941816 -0.698907,0.6695224 -0.328994,0.038214 -0.845907,0.4271486 -0.804619,0.1394399 -0.56106,0.05331 -1.214276,-0.3394527 -1.909083,-0.3232432 C 10.653463,7.7896149 9.3205568,8.0209587 10.17755,7.4586588 l 0.07368,-0.083845 0.01256,-0.011998 c 0,0 -3.4e-5,2.1e-6 -3.4e-5,2.1e-6 z"
         id="path3321"
         inkscape:connector-curvature="0" />
      <path
         style="opacity:0.85409253;fill:#000000;fill-opacity:1;fill-rule:evenodd;stroke:#001003;stroke-width:0.30000001;stroke-linecap:round;stroke-miterlimit:4;stroke-opacity:1;stroke-dasharray:none;stroke-dashoffset:0"
         d="m 11.867579,11.398527 c 0.393544,0.157461 1.759866,-0.0061 1.026394,0.607597 -0.374397,0.02365 -0.393531,-0.252031 -0.774078,-0.128414 -0.01333,-0.31796 -0.958703,0.205839 -0.424238,-0.305759 l 0.08598,-0.0867 0.08594,-0.08672 2e-6,-4e-6 z"
         id="path3323"
         inkscape:connector-curvature="0" />
      <path
         style="opacity:0.85409253;fill:#000000;fill-opacity:1;fill-rule:evenodd;stroke:#001003;stroke-width:0.30000001;stroke-linecap:round;stroke-miterlimit:4;stroke-opacity:1;stroke-dasharray:none;stroke-dashoffset:0"
         d="m 11.13221,10.780761 c 0.755987,0.08634 1.366504,0.06192 2.080662,0.269403 -0.08286,0.120758 0.559145,-0.05748 0.140774,0.293019 -0.421408,0.563806 -0.950392,-0.298108 -1.516661,0.03917 -0.21066,-0.07826 -0.442742,-0.112719 -0.618811,-0.206585 -0.290365,0.329511 0.03273,-0.4188 -0.387276,0.102534 -0.02096,-0.216427 0.150684,-0.307671 0.301312,-0.49754 z"
         id="path3325"
         inkscape:connector-curvature="0" />
      <path
         style="opacity:0.85409253;fill:#000000;fill-opacity:1;fill-rule:evenodd;stroke:#001003;stroke-width:0.30000001;stroke-linecap:round;stroke-miterlimit:4;stroke-opacity:1;stroke-dasharray:none;stroke-dashoffset:0"
         d="m 15.813114,8.7142289 c 0.331086,-0.018114 -0.75492,0.9152636 -0.242023,0.2764839 0.08068,-0.092158 0.16136,-0.1843134 0.242023,-0.2764839 z"
         id="path3327"
         inkscape:connector-curvature="0" />
      <path
         style="opacity:0.85409253;fill:#000000;fill-opacity:1;fill-rule:evenodd;stroke:#001003;stroke-width:0.30000001;stroke-linecap:round;stroke-miterlimit:4;stroke-opacity:1;stroke-dasharray:none;stroke-dashoffset:0"
         d="M 18.652623,4.8683594 C 18.26183,4.5346642 17.086278,4.6860484 16.377558,4.6988419 c -0.796967,0.06257 -1.483183,0.5417491 -2.195444,0.8446335 -0.368082,0.073045 -1.026358,-0.3680832 -0.23272,-0.6261085 0.277979,0.2003165 0.718066,-6.442e-4 0.583446,0.1164036 0.864936,-0.209308 1.629514,-0.8364833 2.528035,-0.7063081 0.679222,-0.08427 1.406611,0.1414241 2.049537,-0.095244 -0.03868,0.2557646 -0.33239,0.416008 -0.457789,0.6361409 z"
         id="path3329"
         inkscape:connector-curvature="0" />
      <path
         style="opacity:0.85409253;fill:#000000;fill-opacity:1;fill-rule:evenodd;stroke:#001003;stroke-width:0.30000001;stroke-linecap:round;stroke-miterlimit:4;stroke-opacity:1;stroke-dasharray:none;stroke-dashoffset:0"
         d="m 16.150318,18.038565 c -0.0089,0.683531 0.557946,1.329735 0.620799,1.834084 -0.408027,0.370107 -1.102294,1.006362 -1.275409,0.07735 -0.175645,-0.613306 -0.789309,-1.407949 0.18789,-1.623184 0.155584,-0.09606 0.311168,-0.192129 0.46672,-0.288245 z"
         id="path3337"
         inkscape:connector-curvature="0" />
    </g>
  </g>
</svg>
