<?xml version="1.0" encoding="UTF-8" standalone="no"?>
<!-- Created with Inkscape (http://www.inkscape.org/) -->

<svg
   xmlns:dc="http://purl.org/dc/elements/1.1/"
   xmlns:cc="http://creativecommons.org/ns#"
   xmlns:rdf="http://www.w3.org/1999/02/22-rdf-syntax-ns#"
   xmlns:svg="http://www.w3.org/2000/svg"
   xmlns="http://www.w3.org/2000/svg"
   xmlns:sodipodi="http://sodipodi.sourceforge.net/DTD/sodipodi-0.dtd"
   xmlns:inkscape="http://www.inkscape.org/namespaces/inkscape"
   width="17.868in"
   height="10.993in"
   viewBox="0 0 1608.12 989.37002"
   id="svg2"
   version="1.1"
   inkscape:version="0.91 r13725"
   sodipodi:docname="cover.svg">
  <defs
     id="defs4" />
  <sodipodi:namedview
     id="base"
     pagecolor="#000000"
     bordercolor="#666666"
     borderopacity="1.0"
     inkscape:pageopacity="1"
     inkscape:pageshadow="2"
     inkscape:zoom="0.35"
     inkscape:cx="492.74382"
     inkscape:cy="927.54327"
     inkscape:document-units="px"
     inkscape:current-layer="layer1"
     showgrid="false"
     units="in"
     inkscape:window-width="1600"
     inkscape:window-height="853"
     inkscape:window-x="0"
     inkscape:window-y="0"
     inkscape:window-maximized="1"
     inkscape:showpageshadow="false"
     showguides="true"
     inkscape:guide-bbox="true">
    <sodipodi:guide
       position="825.71429,2845.7144"
       orientation="1,0"
       id="guide4673" />
    <sodipodi:guide
       position="900,2205.7143"
       orientation="1,0"
       id="guide4675" />
  </sodipodi:namedview>
  <metadata
     id="metadata7">
    <rdf:RDF>
      <cc:Work
         rdf:about="">
        <dc:format>image/svg+xml</dc:format>
        <dc:type
           rdf:resource="http://purl.org/dc/dcmitype/StillImage" />
        <dc:title></dc:title>
      </cc:Work>
    </rdf:RDF>
  </metadata>
  <g
     inkscape:label="Layer 1"
     inkscape:groupmode="layer"
     id="layer1"
     transform="translate(0,-62.992153)">
    <rect
       style="color:#000000;clip-rule:nonzero;display:inline;overflow:visible;visibility:visible;opacity:1;isolation:auto;mix-blend-mode:normal;color-interpolation:sRGB;color-interpolation-filters:linearRGB;solid-color:#000000;solid-opacity:1;fill:none;fill-opacity:1;fill-rule:nonzero;stroke:#ff0000;stroke-width:2;stroke-linecap:butt;stroke-linejoin:miter;stroke-miterlimit:4;stroke-dasharray:none;stroke-dashoffset:0;stroke-opacity:1;color-rendering:auto;image-rendering:auto;shape-rendering:auto;text-rendering:auto;enable-background:accumulate"
       id="rect4593"
       width="50.000065"
       height="1254.2858"
       x="839.99994"
       y="-90.495003"
       ry="0" />
    <rect
       style="color:#000000;clip-rule:nonzero;display:inline;overflow:visible;visibility:visible;opacity:1;isolation:auto;mix-blend-mode:normal;color-interpolation:sRGB;color-interpolation-filters:linearRGB;solid-color:#000000;solid-opacity:1;fill:#000000;fill-opacity:1;fill-rule:nonzero;stroke:#000000;stroke-width:2;stroke-linecap:butt;stroke-linejoin:miter;stroke-miterlimit:4;stroke-dasharray:none;stroke-dashoffset:0;stroke-opacity:1;color-rendering:auto;image-rendering:auto;shape-rendering:auto;text-rendering:auto;enable-background:accumulate"
       id="rect4333"
       width="1638.4674"
       height="993.99011"
       x="-10.101535"
       y="58.372051"
       ry="0" />
    <text
       xml:space="preserve"
       style="font-style:normal;font-variant:normal;font-weight:normal;font-stretch:normal;font-size:151.53135681px;line-height:125%;font-family:Dogma;-inkscape-font-specification:'Dogma, Normal';text-align:start;letter-spacing:0px;word-spacing:0px;writing-mode:lr-tb;text-anchor:start;fill:#ffffff;fill-opacity:1;stroke:#ffffff;stroke-width:1px;stroke-linecap:butt;stroke-linejoin:miter;stroke-opacity:1"
       x="1057.2806"
       y="285.09799"
       id="text4136"
       sodipodi:linespacing="125%"
       transform="scale(0.99872663,1.001275)"><tspan
         sodipodi:role="line"
         id="tspan4138"
         x="1057.2806"
         y="285.09799"
         style="stroke-width:1px">Malleus</tspan></text>
    <text
       xml:space="preserve"
       style="font-style:normal;font-variant:normal;font-weight:normal;font-stretch:normal;font-size:147.75474548px;line-height:125%;font-family:Dogma;-inkscape-font-specification:'Dogma, Normal';text-align:start;letter-spacing:0px;word-spacing:0px;writing-mode:lr-tb;text-anchor:start;fill:#ffffff;fill-opacity:1;stroke:#ffffff;stroke-width:1px;stroke-linecap:butt;stroke-linejoin:miter;stroke-opacity:1"
       x="1214.1476"
       y="380.71481"
       id="text4140"
       sodipodi:linespacing="125%"
       transform="scale(0.9987003,1.0013014)"><tspan
         sodipodi:role="line"
         id="tspan4142"
         x="1214.1476"
         y="380.71481"
         style="stroke-width:1px">Deum</tspan></text>
    <flowRoot
       xml:space="preserve"
       id="flowRoot4144"
       style="font-style:normal;font-variant:normal;font-weight:normal;font-stretch:normal;font-size:70px;line-height:125%;font-family:'Linux Libertine Display O';-inkscape-font-specification:'Linux Libertine Display O, Normal';text-align:start;letter-spacing:0px;word-spacing:0px;writing-mode:lr-tb;text-anchor:start;fill:#000000;fill-opacity:1;stroke:none;stroke-width:1px;stroke-linecap:butt;stroke-linejoin:miter;stroke-opacity:1"
       transform="translate(0,152.36215)"><flowRegion
         id="flowRegion4146"><rect
           id="rect4148"
           width="322.85715"
           height="77.14286"
           x="164.28572"
           y="207.14285" /></flowRegion><flowPara
         id="flowPara4150"></flowPara></flowRoot>    <flowRoot
       xml:space="preserve"
       id="flowRoot4152"
       style="font-style:normal;font-variant:normal;font-weight:normal;font-stretch:normal;font-size:70px;line-height:125%;font-family:'Linux Libertine Display O';-inkscape-font-specification:'Linux Libertine Display O, Normal';text-align:start;letter-spacing:0px;word-spacing:0px;writing-mode:lr-tb;text-anchor:start;fill:#000000;fill-opacity:1;stroke:none;stroke-width:1px;stroke-linecap:butt;stroke-linejoin:miter;stroke-opacity:1"
       transform="translate(0,152.36215)"><flowRegion
         id="flowRegion4154"><rect
           id="rect4156"
           width="405.71429"
           height="245.71428"
           x="128.57143"
           y="152.85715" /></flowRegion><flowPara
         id="flowPara4158"></flowPara></flowRoot>    <text
       xml:space="preserve"
       style="font-style:normal;font-variant:normal;font-weight:normal;font-stretch:normal;font-size:15px;line-height:125%;font-family:'Linux Libertine Display O';-inkscape-font-specification:'Linux Libertine Display O, Normal';text-align:start;letter-spacing:0px;word-spacing:0px;writing-mode:lr-tb;text-anchor:start;fill:#ffffff;fill-opacity:1;stroke:#ffffff;stroke-width:1px;stroke-linecap:butt;stroke-linejoin:miter;stroke-opacity:1"
       x="1418.5714"
       y="399.79071"
       id="text4179"
       sodipodi:linespacing="125%"><tspan
         sodipodi:role="line"
         id="tspan4181"
         x="1418.5714"
         y="399.79071">0.0.1</tspan></text>
    <path
       style="fill:#ffffff;stroke:#ffffff;stroke-width:0.99999994"
       d="m 1241.6073,798.75911 c -3.5815,-1.15181 -4.6549,-1.73925 -8.526,-4.66618 l -3.166,-2.39371 -6.0227,-0.29358 c -12.8181,-0.62475 -23.6895,-6.30234 -30.5303,-15.94441 -1.1956,-1.68511 -3.015,-4.74464 -4.0431,-6.79901 -1.271,-2.53959 -2.1218,-3.6838 -2.6581,-3.57456 -0.4811,0.098 -1.5375,2.19264 -2.708,5.3691 -3.0425,8.25728 -7.0434,13.59272 -12.1292,16.1752 -1.7772,0.90237 -3.2159,1.08075 -3.2159,0.39878 0,-0.23684 1.1539,-1.40404 2.5643,-2.59363 3.6456,-3.07492 5.2179,-6.39523 5.4596,-11.52903 0.1882,-3.99767 -0.4194,-6.44264 -1.6354,-6.5812 -0.2766,-0.0317 -1.4006,1.55125 -2.4976,3.51725 -3.324,5.95712 -5.5588,9.02828 -7.7116,10.59819 -1.8067,1.31749 -2.3772,1.46847 -4.8083,1.2723 -2.5291,-0.20415 -2.9617,-0.43599 -5.2063,-2.78961 -3.3615,-3.52494 -4.2747,-7.23201 -1.1821,-4.79858 0.7546,0.59379 2.0695,1.07949 2.9221,1.07949 2.1572,0 5.1939,-3.31724 7.6706,-8.3794 3.2043,-6.54947 3.0654,-8.98261 -0.5128,-8.98261 -2.0239,0 -4.0745,0.94718 -5.5275,2.55325 -1.2549,1.38711 -3.4413,2.55324 -4.7872,2.55324 -0.5551,0 -1.472,-0.5885 -2.0375,-1.30768 -3.6309,-4.61742 -1.9128,-18.11523 2.626,-20.63097 2.0146,-1.11652 2.5079,-0.10184 1.4933,3.07174 -1.5417,4.82243 1.2753,9.1056 5.5131,8.38276 3.4626,-0.59061 9.001,-4.25624 11.2904,-7.47251 l 1.0374,-1.45731 -1.1751,-3.18684 c -1.5597,-4.2298 -1.6976,-12.94124 -0.2474,-15.63401 1.5292,-2.83951 5.2192,-6.03915 8.2903,-7.18855 4.083,-1.52818 4.9897,-0.64889 2.2043,2.13745 -2.4367,2.43737 -3.0482,3.6336 -3.8576,7.5454 -0.6653,3.21531 -0.663,3.93333 0.02,6.28089 1.3654,4.69387 4.6073,8.00255 7.8471,8.00909 2.4959,0.01 8.6207,-3.26378 9.8286,-5.24544 1.1455,-1.87926 1.3009,-3.69198 0.3684,-4.29567 -0.351,-0.22723 -2.5335,-0.43176 -4.8501,-0.45455 -2.3166,-0.0231 -4.2692,-0.25252 -4.3391,-0.51061 -0.07,-0.25809 1.0214,-0.8765 2.4252,-1.37413 3.2306,-1.14527 8.8591,-0.88987 13.4698,0.61129 2.6312,0.85669 3.6276,0.96237 5.1658,0.54811 2.4076,-0.6485 4.5915,-2.34438 4.5915,-3.56542 0,-1.27941 -2.5106,-3.29378 -5.4675,-4.38683 -2.9364,-1.08555 -3.8141,-1.69646 -3.4,-2.36669 0.519,-0.84006 4.842,0.0923 7.8633,1.69568 1.5535,0.82448 4.3796,2.98732 6.2802,4.80619 1.9007,1.81896 3.8622,3.30714 4.359,3.30714 1.4489,0 5.562,-1.54087 6.2154,-2.32843 1.3824,-1.66626 -0.8351,-4.15796 -6.376,-7.1646 -0.5449,-0.2956 -1.0923,-0.84275 -1.2166,-1.21566 -0.1724,-0.51734 0.2616,-0.61283 1.8297,-0.40243 3.5221,0.47253 7.9286,3.91382 13.5003,10.543 l 1.3816,1.64386 8.5728,-0.24944 c 4.7151,-0.13722 9.3388,-0.48369 10.2749,-0.76986 8.1955,-2.50584 16.0157,-13.69686 15.9901,-22.88257 -0.013,-4.55721 -1.1474,-7.3244 -4.4527,-10.85914 -2.2919,-2.451 -8.5035,-6.14519 -10.3327,-6.14519 -0.4316,0 -2.1811,-0.54876 -3.8877,-1.21948 -2.4191,-0.95071 -4.5093,-1.29069 -9.484,-1.54259 -3.5096,-0.17771 -6.6614,-0.13661 -7.0041,0.0914 -0.3427,0.22794 -1.2868,2.0247 -2.0981,3.99279 -1.7136,4.15684 -3.5297,7.16637 -6.3464,10.5167 -2.1755,2.58779 -5.8104,5.36431 -6.3353,4.83928 -0.1787,-0.17879 0.7222,-1.90032 2.0021,-3.82562 4.4339,-6.67015 6.9833,-13.05468 5.9694,-14.94966 -0.5404,-1.01019 -1.356,-1.21121 -2.3361,-0.57582 -0.3183,0.20634 -1.2902,1.9484 -2.1599,3.87122 -3.192,7.05799 -7.8671,12.32709 -15.3367,17.28536 -4.5049,2.99033 -6.3578,3.98492 -7.4236,3.98492 -1.5275,0 -0.7525,-1.00266 3.559,-4.60495 4.7922,-4.00389 8.5374,-8.84982 11.3374,-14.66952 1.834,-3.81187 1.8973,-5.23654 0.2327,-5.23654 -1.1926,0 -2.1515,1.07125 -3.8853,4.3405 -2.0484,3.86263 -3.3336,5.43717 -7.477,9.16102 -5.0892,4.57383 -17.1671,10.56475 -18.9398,9.39467 -0.8342,-0.55061 -0.084,-1.18354 4.8252,-4.07149 4.2662,-2.50966 10.4168,-8.49704 12.5481,-12.21521 2.8267,-4.9312 1.6294,-5.49705 -2.8722,-1.35733 -7.6938,7.07538 -13.7098,9.58632 -24.766,10.33671 -4.8863,0.33165 -5.1349,0.29338 -11.6135,-1.78723 -5.6432,-1.81229 -6.6204,-2.28067 -6.6204,-3.17313 0,-1.00664 0.1722,-1.03141 4.4667,-0.64222 8.7053,0.78888 13.0836,0.10985 19.7813,-3.06793 6.2797,-2.97943 10.9306,-7.02168 14.8842,-12.9363 1.7287,-2.58611 3.6355,-6.13904 4.2373,-7.89539 1.4049,-4.09995 1.8462,-9.38536 0.9275,-11.10839 -0.7991,-1.4986 -6.2608,-3.98828 -12.2547,-5.58622 -5.6898,-1.51685 -6.4101,-1.43555 -7.3565,0.83028 -3.2974,7.89422 -11.0437,9.56464 -18.3838,3.96428 -0.9018,-0.68802 -1.9535,-1.25094 -2.3372,-1.25094 -1.1785,0 -6.6921,4.30782 -8.8925,6.94785 -5.0278,6.03225 -8.3429,12.61365 -9.5287,18.91698 -1.1369,6.04389 -4.3087,13.65459 -8.062,19.34464 -2.6688,4.04599 -4.0029,5.50292 -7.345,8.02106 -4.6179,3.47937 -10.6667,6.45831 -15.5698,7.66801 -6.5815,1.62376 -8.1459,1.91109 -10.4056,1.91109 -4.16,0 -3.5555,-1.94465 0.9425,-3.03165 6.4303,-1.55404 13.6286,-6.04924 18.6466,-11.64442 5.08,-5.6643 9.4017,-14.68758 8.1527,-17.02202 -0.6599,-1.23351 -0.6408,-1.23503 -3.2069,0.25568 -4.1502,2.41093 -11.3996,4.40108 -18.1082,4.97119 -6.8361,0.58094 -9.8042,0.31327 -9.8042,-0.88418 0,-0.96473 1.5844,-1.55934 5.3933,-2.02405 5.4947,-0.67037 12.9815,-3.48897 17.2207,-6.48314 2.4115,-1.70324 1.5073,-2.16014 -4.5326,-2.29034 -8.7066,-0.18769 -14.8521,-1.41081 -14.3693,-2.85985 0.136,-0.40796 2.1133,-0.63804 6.1239,-0.7126 6.1882,-0.11502 11.2411,-1.01933 15.0072,-2.68578 3.027,-1.33941 3.2431,-2.23301 1.0928,-4.51935 -3.9744,-4.22609 -5.8108,-7.31569 -9.0079,-15.15573 -2.0677,-5.07023 -2.3809,-7.70263 -2.3392,-19.65993 0.036,-10.37168 0.1715,-12.11619 1.3915,-17.93001 4.212,-20.07214 14.4912,-44.1408 29.9625,-70.15668 7.029,-11.81959 25.7083,-40.28663 27.3046,-41.61188 2.1116,-1.75301 2.1921,1.40476 0.2304,9.03128 -0.5637,2.19139 -1.6969,8.0057 -2.5183,12.92068 -1.3472,8.06176 -1.9707,12.69747 -3.5715,26.55366 -2.2374,19.36602 -1.7664,46.77364 1.0452,60.82019 3.2261,16.11777 10.3806,27.52183 17.2661,27.52183 3.3986,0 4.0746,-1.53222 1.8454,-4.18237 -1.5221,-1.80943 -1.2776,-2.45605 0.9285,-2.45605 1.7444,0 7.3425,1.49294 9.6863,2.58322 1.2061,0.56102 1.5417,0.54276 2.2042,-0.11991 0.6717,-0.67199 0.7016,-1.3835 0.2128,-5.06938 -0.6542,-4.93291 -1.4463,-6.29804 -4.6457,-8.00602 -3.2514,-1.73582 -5.6365,-1.26763 -8.6555,1.69907 -1.2731,1.25103 -2.5757,2.2746 -2.8947,2.2746 -0.9204,0 -1.2399,-2.57259 -0.6835,-5.50321 0.6314,-3.32563 1.1197,-4.29424 3.7845,-7.50732 1.9312,-2.32857 2.107,-2.78508 2.0915,-5.43135 -0.02,-3.34932 -0.8303,-4.65829 -2.747,-4.43541 -1.1118,0.12928 -1.6823,0.89987 -3.6171,4.88596 -2.8181,5.80547 -3.7572,6.06136 -3.9779,1.08386 -0.1949,-4.39539 1.0592,-7.73572 4.7364,-12.61609 2.9711,-3.94325 3.2549,-4.71014 2.098,-5.67057 -1.1814,-0.98079 -3.2489,-0.0762 -5.392,2.3593 -2.4766,2.8144 -3.323,2.53772 -2.9099,-0.95114 0.4642,-3.92121 3.0698,-8.20496 7.4414,-12.23445 3.2307,-2.97784 3.7596,-3.68715 3.2978,-4.42311 -0.3912,-0.6236 -1.3817,-0.92073 -3.4324,-1.02968 -3.3641,-0.17873 -3.5294,-0.58749 -1.417,-3.50447 1.5325,-2.11621 4.6826,-4.34843 8.9995,-6.37713 2.215,-1.04089 2.5738,-1.42126 2.7137,-2.87652 0.1291,-1.34275 -0.1834,-2.02176 -1.5677,-3.4066 -2.3124,-2.31312 -4.6617,-2.73291 -7.7203,-1.37951 -1.2868,0.56941 -2.4683,0.82711 -2.6255,0.57266 -0.8711,-1.40991 4.6121,-7.45295 8.6894,-9.57656 2.0241,-1.05426 3.292,-1.33289 6.1258,-1.34621 1.9653,-0.01 4.2825,0.17198 5.1492,0.40269 1.2883,0.34298 1.8275,0.20133 2.9562,-0.77663 4.1668,-3.61063 2.7456,-10.71538 -2.6013,-13.00392 -2.2859,-0.97837 -4.5312,-0.87838 -7.7492,0.34509 -2.89,1.09879 -4.1436,0.80848 -3.2679,-0.75682 0.872,-1.55869 6.4383,-5.2997 10.0487,-6.75358 2.7147,-1.09321 4.4319,-1.44812 6.938,-1.43391 4.3006,0.0244 6.976,1.38347 10.8046,5.48867 2.8555,3.06179 2.8935,3.08229 4.4871,2.42201 3.4218,-1.41784 4.0552,-4.66717 1.5769,-8.0895 -0.8366,-1.15523 -3.3604,-3.38971 -5.6085,-4.9655 -2.2481,-1.57578 -4.2326,-3.09993 -4.41,-3.38699 -0.1773,-0.28705 0.047,-0.89187 0.4995,-1.34406 1.3721,-1.37257 11.9155,-1.08757 15.8881,0.42948 4.2119,1.60844 7.8389,5.35407 9.4351,9.74363 1.3105,3.6039 2.1765,4.83364 3.0316,4.30498 0.9947,-0.61494 2.6282,-4.33338 3.548,-8.07627 0.4904,-1.99591 1.1082,-3.69066 1.3728,-3.76611 0.2646,-0.0755 1.9237,2.09284 3.687,4.81842 3.2533,5.02889 9.8887,13.06774 11.5572,14.00179 0.6668,0.37323 1.1195,0.3066 1.672,-0.24605 0.6699,-0.6701 0.6624,-1.13008 -0.065,-3.97057 -2.7713,-10.82091 -10.0007,-16.45177 -43.3863,-33.7927 -18.0726,-9.38713 -22.4438,-12.29044 -31.0472,-20.62125 -4.3107,-4.17412 -7.251,-7.73109 -10.2321,-12.37803 -4.1685,-6.49797 -8.9907,-18.63127 -9.1968,-23.14049 -0.087,-1.9112 0.04,-2.21782 0.9196,-2.21782 0.8294,0 1.3145,0.8622 2.5858,4.59583 3.4744,10.20443 7.2274,16.24136 15.1038,24.2953 11.1624,11.4141 24.2368,19.27956 46.6315,28.05326 16.8454,6.59961 31.8523,15.07769 39.6787,22.41628 2.4144,2.26391 4.2879,3.63276 4.8293,3.52845 1.2724,-0.24511 1.6414,-2.52981 2.0059,-12.41978 0.3618,-9.81566 -0.2496,-14.78983 -2.8559,-23.23446 -4.8925,-15.85173 -19.8476,-29.52177 -39.5687,-36.16869 -3.7211,-1.25418 -5.6631,-2.16731 -5.768,-2.71205 -0.2826,-1.46773 1.3243,-1.45806 7.9554,0.0479 8.8339,2.00615 11.9919,3.11458 19.758,6.93488 19.0988,9.39504 29.9618,24.98181 32.6719,46.87932 1.0292,8.31546 0.9631,15.37456 -0.2661,28.44226 -1.0831,11.51441 -1.2846,12.74767 -2.0827,12.74767 -0.8647,0 -8.6614,-5.70136 -9.3393,-6.82942 -0.3589,-0.59709 -1.4367,-2.44313 -2.3951,-4.10229 -0.9585,-1.65918 -3.4655,-4.78475 -5.5713,-6.94571 -6.0147,-6.17244 -12.4788,-9.28779 -7.3983,-3.56562 3.7957,4.27519 6.829,8.59258 8.7867,12.50671 2.2605,4.51953 2.5323,4.81464 7.5093,8.15402 2.2658,1.52033 5.57,4.04172 7.3427,5.60311 1.7727,1.5614 3.6796,2.83891 4.2376,2.83891 1.164,0 2.4938,-2.66885 2.4938,-5.00496 0,-1.88006 0.3404,-2.18354 1.8183,-1.62144 1.6489,0.62712 2.7646,-0.88414 4.4755,-6.06253 2.8519,-8.63177 3.6852,-20.87505 2.0905,-30.71611 -1.4241,-8.78876 -1.4504,-9.19165 -0.6007,-9.19165 1.1215,0 1.7194,0.9299 2.6268,4.08518 3.1118,10.82071 3.9525,30.39915 1.9001,44.24711 l -1.1466,7.73579 1.6247,3.21948 c 1.4852,2.94307 1.5965,3.49496 1.296,6.42839 -0.2681,2.6175 -0.1462,3.56299 0.6612,5.13012 1.2117,2.35193 3.6321,4.66835 6.7406,6.45113 3.7028,2.12364 4.4768,5.17148 2.4073,9.47931 -1.0843,2.25708 -6.0805,7.69327 -7.0705,7.69327 -0.2682,0 -0.4877,-0.77328 -0.4877,-1.7184 0,-1.91257 -1.6612,-4.40937 -2.9337,-4.40937 -0.4497,0 -2.443,1.57277 -4.4296,3.49505 -2.686,2.59896 -4.3872,3.78389 -6.6354,4.62161 -3.7475,1.39638 -6.0994,1.28387 -6.325,-0.30257 -0.1229,-0.8639 0.2995,-1.35658 1.835,-2.14017 2.399,-1.22429 5.2161,-4.30092 5.2161,-5.69669 0,-1.37127 -1.593,-2.63386 -4.4813,-3.55176 l -2.4102,-0.76597 0.1711,-2.85626 c 0.2293,-3.82865 -0.6556,-4.78476 -4.0158,-4.33887 l -2.388,0.31688 0.2423,-2.52289 c 0.2117,-2.20393 0.076,-2.68909 -1.0719,-3.8376 -1.4117,-1.41216 -2.5589,-1.61035 -4.6711,-0.80703 -1.1979,0.45558 -1.4239,0.34415 -2.2028,-1.08565 -2.63,-4.82829 -5.1305,-5.8117 -7.7218,-3.03685 -3.0744,3.29224 -6.5668,14.73406 -7.0261,23.01941 -0.2676,4.82861 -0.182,5.62958 0.8612,8.0545 2.5682,5.97011 6.9106,6.93916 8.528,1.90313 0.3206,-0.99811 0.833,-1.53194 1.4704,-1.53194 0.8382,0 0.9467,0.29289 0.7568,2.04259 -0.122,1.12343 -0.2369,2.96175 -0.2553,4.08518 -0.031,1.89896 0.074,2.0548 1.4963,2.21633 1.9864,0.22559 2.2816,0.77094 2.291,4.23207 0.01,3.55707 -0.9616,5.97372 -3.1863,7.92766 -3.7419,3.2864 -6.8279,3.42272 -5.5115,0.24344 0.6933,-1.67412 0.3239,-3.64058 -0.6837,-3.64058 -0.3533,0 -1.1993,0.6057 -1.88,1.34599 -1.5179,1.6509 -5.1884,3.36682 -6.2941,2.94239 -1.3699,-0.52584 -0.914,-1.65921 1.206,-2.99791 4.3595,-2.75295 3.8754,-5.20308 -0.6569,-3.32396 -2.8793,1.19379 -4.426,1.1111 -4.426,-0.23663 0,-0.42362 0.5743,-1.14663 1.2762,-1.6067 2.1218,-1.39072 1.3973,-2.76159 -1.4596,-2.76159 -1.2377,0 -3.39,-1.31527 -3.39,-2.07155 0,-0.26493 1.1558,-0.4817 2.5684,-0.4817 3.0564,0 3.4564,-0.59578 2.2741,-3.38726 -1.0276,-2.42613 -2.2901,-8.75945 -2.2901,-11.48796 0,-3.3199 1.513,-9.62175 3.0398,-12.66114 0.7866,-1.56594 2.6849,-5.28275 4.2185,-8.25959 6.332,-12.29134 4.7712,-19.43718 -5.3584,-24.53185 -5.1355,-2.58292 -9.1658,-3.82586 -15.5048,-4.78163 -6.3744,-0.96111 -10.1192,-0.96004 -15.8087,0.005 -7.7775,1.31851 -13.8806,3.89736 -18.5707,7.84701 -7.2462,6.10214 -9.7367,9.6086 -12.9224,18.19341 -1.8942,5.10475 -4.2363,16.0689 -3.72,17.41482 0.4187,1.09159 1.9624,0.85305 3.9074,-0.6038 4.7401,-3.55042 9.7751,-4.9253 11.5468,-3.15304 0.9359,0.93618 1.0146,2.3866 0.4247,7.82625 -0.4739,4.37047 0.093,5.8354 2.2566,5.8354 1.1222,0 2.0893,-0.68275 4.1936,-2.96073 1.5043,-1.62841 3.6142,-4.24129 4.6887,-5.8064 l 1.9537,-2.84568 -0.7979,-2.68767 c -0.4388,-1.47821 -0.9438,-4.11202 -1.1221,-5.8529 -0.413,-4.03252 0.6565,-6.51857 4.5658,-10.61312 2.4936,-2.61171 3.0277,-2.93622 4.8325,-2.93622 2.2127,0 4.5933,1.47777 3.98,2.47053 -0.2017,0.32624 -1.1459,0.59324 -2.0983,0.59324 l -1.7318,0 0.2918,4.21284 c 0.2876,4.15252 0.2631,4.26767 -1.7091,8.0427 -2.193,4.19752 -2.2695,5.45351 -0.3611,5.93262 1.7552,0.44068 2.9964,-0.83748 5.002,-5.15095 2.0532,-4.41605 6.0621,-8.44138 8.4068,-8.44138 2.4306,0 4.4855,2.12094 5.2153,5.3829 0.9703,4.33729 0.304,4.33798 -2.7532,0.003 -0.5045,-0.71554 -1.3693,-1.30079 -1.9219,-1.30079 -1.2725,0 -3.027,2.80882 -3.03,4.85115 0,1.40847 -1.8091,5.56017 -3.9674,9.11555 -0.8774,1.44539 -0.8728,1.46371 0.6477,2.55324 0.8423,0.60357 2.7166,2.24794 4.1651,3.65417 3.3873,3.28846 3.8966,5.36572 2.1484,8.76274 -1.0117,1.96589 -1.9566,2.79513 -5.7987,5.08917 -4.461,2.66356 -6.8968,3.40623 -6.8949,2.10229 5e-4,-0.35107 1.0916,-1.32767 2.4247,-2.17023 1.3332,-0.84256 3.2854,-2.39365 4.3382,-3.44688 3.0703,-3.07126 2.4148,-5.14815 -2.1314,-6.75264 -3.2585,-1.15006 -5.1029,-0.96098 -7.683,0.78766 -2.114,1.43267 -2.5695,1.53702 -6.09,1.39499 l -3.8051,-0.15351 -1.472,2.04259 c -0.8095,1.12343 -2.7955,4.11071 -4.4132,6.63842 -2.7486,4.29466 -3.173,4.71322 -6.4765,6.38726 -2.4596,1.24643 -3.5815,2.11574 -3.6878,2.85736 -0.2508,1.74933 4.8465,9.90465 6.1906,9.90465 0.2749,0 1.691,-1.12696 3.147,-2.50437 5.7849,-5.47291 14.2961,-7.93051 20.6785,-5.97092 3.9982,1.22757 6.6363,2.43863 6.6363,3.0465 0,0.4121 -1.8792,0.58653 -6.2796,0.58287 -6.1624,-0.005 -6.3458,0.0281 -9.8268,1.77922 -4.1595,2.09244 -9.9283,7.37348 -9.9283,9.08878 0,1.77856 1.7301,1.39284 4.7353,-1.05577 5.4175,-4.41398 11.9884,-6.11852 18.481,-4.79407 4.4628,0.91037 7.4128,2.20378 7.4128,3.25005 0,0.58591 -0.4241,0.68213 -1.9143,0.43428 -7.1266,-1.18527 -11.2469,-0.48975 -16.7064,2.82013 -4.1525,2.5175 -6.0928,4.6715 -5.6822,6.30809 0.4469,1.78111 2.0114,1.70799 4.9045,-0.22922 4.9269,-3.29903 11.9698,-4.3795 18.1133,-2.7788 5.844,1.52266 5.6958,3.08345 -0.2437,2.56518 -3.297,-0.2877 -4.4834,-0.16434 -7.2071,0.74933 -4.4015,1.47646 -8.022,3.49918 -8.4009,4.69345 -0.3779,1.19085 0.8098,2.61996 2.8957,3.48422 1.3475,0.55832 1.8886,0.45124 5.0234,-0.99415 3.6488,-1.6824 7.7935,-2.5941 11.8161,-2.59918 4.6557,-0.006 13.095,2.85431 11.9103,4.03655 -0.166,0.16555 -3.0963,0.31808 -6.5119,0.33895 -8.3992,0.0513 -14.6309,1.87272 -13.8019,4.03396 0.5179,1.34986 11.2149,5.72973 20.6091,8.43839 9.0401,2.60652 19.8504,9.4865 24.9974,15.90899 3.0375,3.79024 5.9082,9.18621 6.887,12.94505 1.5063,5.78479 0.7677,17.05573 -1.606,24.5092 -1.9262,6.048 -5.8769,13.89438 -8.7024,17.28335 -3.2668,3.91824 -6.841,6.10204 -13.5264,8.26439 -5.0382,1.62953 -5.9814,1.77156 -11.7411,1.7682 -3.4446,0 -9.6762,-0.46157 -13.8481,-1.02132 -9.3863,-1.25922 -25.106,-1.40788 -29.3517,-0.27742 -7.5784,2.01773 -10.6699,8.03033 -7.6598,14.89732 2.5878,5.90356 11.4539,14.82559 17.983,18.09629 5.5959,2.80336 6.2533,2.71845 9.7442,-1.25903 1.5787,-1.79877 4.0846,-4.107 5.5685,-5.12937 3.8078,-2.62335 8.4933,-3.88583 8.4933,-2.28842 0,0.25338 -1.3331,1.13392 -2.9625,1.95667 -3.2436,1.63789 -6.2307,4.15229 -6.2184,5.23438 0.018,1.62107 1.6244,2.67335 4.9103,3.21761 2.4791,0.41051 7.5945,-1.17286 14.3349,-4.43731 4.4725,-2.1661 11.7343,-7.90706 19.5438,-15.45053 4.4979,-4.34471 6.3026,-5.63143 7.1574,-5.10303 0.8439,0.52176 0.5788,1.23835 -1.571,4.24566 -6.4814,9.06685 -12.5232,15.34361 -18.6498,19.37522 -5.587,3.6764 -18.6525,9.79891 -20.9854,9.83382 -0.5057,0.01 -1.6998,0.6612 -2.6537,1.4525 -3.3439,2.77422 -1.2914,4.74397 6.9668,6.68621 2.0718,0.48734 2.68,0.85063 2.68,1.60078 0,0.83361 -0.3775,0.96641 -2.68,0.94285 -1.474,-0.0154 -3.9435,-0.43378 -5.4877,-0.93035 z m 68.1983,-223.80548 c 0.3954,-0.64001 -7.7592,-8.54215 -8.8544,-8.58028 -1.0647,-0.0371 -0.7194,1.69348 0.8161,4.09066 1.6789,2.62101 2.9012,3.79811 4.6821,4.50888 1.7301,0.69053 2.9218,0.68369 3.3562,-0.0192 z m -37.5692,174.01691 c 0,-0.10587 2.2398,-1.52798 4.9772,-3.1603 5.6887,-3.39205 9.4732,-6.75468 12.7261,-11.30748 4.5592,-6.38109 7.8209,-16.5932 7.8209,-24.48622 0,-3.566 0.056,-3.7401 1.2763,-3.99359 0.7019,-0.14578 1.8563,-0.38579 2.5653,-0.53334 1.5712,-0.32701 5.1435,-3.4736 6.1468,-5.41434 0.4034,-0.78037 1.3307,-3.32535 2.0606,-5.6555 1.9123,-6.10457 4.5118,-10.77916 7.4774,-13.44638 2.6295,-2.36489 4.4125,-3.06599 3.5107,-1.38046 -0.2646,0.49464 -0.9532,1.32669 -1.5302,1.849 -1.5332,1.38797 -2.3088,4.17623 -2.2909,8.23592 0.016,3.62841 0.8044,6.08527 1.8419,5.73932 0.3131,-0.10441 1.5036,-1.99632 2.6455,-4.20427 3.9484,-7.63458 8.5778,-11.09762 12.6047,-9.42907 2.6407,1.09415 6.9943,7.38183 5.8817,8.49471 -0.1666,0.16674 -1.2286,-0.53334 -2.3599,-1.55572 -1.1313,-1.02239 -2.3434,-1.85074 -2.6935,-1.84079 -2.222,0.0632 -5.7581,4.30273 -7.5218,9.01819 -1.3473,3.60222 -1.3345,5.57217 0.041,6.3086 1.5721,0.8416 3.1152,0.25404 6.1595,-2.34542 2.1293,-1.81806 3.0527,-2.28933 4.2544,-2.1713 2.4175,0.23744 3.3199,2.60736 3.3209,8.72107 5e-4,4.32649 -0.1714,5.3356 -1.284,7.53209 -0.8899,1.75655 -1.5961,2.53622 -2.2972,2.53622 -0.9044,0 -1.0124,-0.34973 -1.0124,-3.27743 0,-4.07261 -0.2494,-4.73164 -2.1658,-5.72297 -1.987,-1.02782 -4.5117,-0.56329 -7.275,1.3385 -2.1731,1.49563 -5.8737,5.30223 -5.8737,6.04199 0,0.23088 0.5742,2.10879 1.2762,4.17316 2.3787,6.99603 1.2736,13.30895 -3.0234,17.27104 -2.6782,2.46949 -5.052,3.76688 -6.133,3.35195 -1.2101,-0.46455 -0.9608,-1.63453 0.6737,-3.16213 2.3726,-2.21736 3.1226,-4.23278 3.1226,-8.39094 0,-4.48837 -1.3583,-7.67156 -4.0318,-9.4488 -2.0799,-1.38259 -4.6887,-1.49567 -5.8139,-0.25203 -0.4484,0.49561 -1.397,2.73614 -2.108,4.97888 -1.8221,5.74711 -4.5059,10.05259 -9.2314,14.80934 -5.464,5.49998 -12.1963,9.28052 -18.2927,10.27231 -4.4283,0.72034 -5.4449,0.81487 -5.4449,0.50619 z m -25.9714,-21.68123 c -0.5887,-0.40176 -0.5554,-0.86429 0.2062,-2.85913 0.4997,-1.30884 1.2752,-2.56911 1.7233,-2.80057 0.4482,-0.23146 2.4457,-0.53215 4.4391,-0.66822 4.5002,-0.30713 8.1331,-2.14302 11.1304,-5.6247 1.1503,-1.33605 2.2636,-2.42939 2.4742,-2.42948 0.8251,-4.8e-4 0.2934,1.92166 -1.3109,4.73887 -1.9586,3.43936 -5.5747,6.61745 -9.5156,8.36285 -3.0365,1.3448 -8.0282,2.0436 -9.1467,1.28038 z m 51.2124,-37.74448 c -1.5605,-12.84539 -8.7868,-19.75923 -25.6537,-24.54438 -3.7366,-1.06007 -6.8378,-2.14689 -6.8915,-2.41516 -0.054,-0.26826 2.4291,-0.99864 5.5175,-1.62306 14.4641,-2.92434 24.0795,-7.32259 34.9682,-15.99507 14.3223,-11.40718 25.6266,-27.60934 34.1866,-48.99846 3.1908,-7.97289 6.757,-20.50434 7.9722,-28.01366 0.7179,-4.43623 1.3513,-5.80737 2.482,-5.37333 0.7996,0.30693 1.1569,1.12585 6.3244,14.49303 9.532,24.65759 14.1956,42.60754 15.1908,58.46913 0.3687,5.87641 -1.4777,15.41645 -3.9208,20.25781 -2.959,5.86351 -9.1649,10.98293 -15.7303,12.97631 -3.3237,1.00914 -4.4993,0.90645 -7.104,-0.6205 -3.3533,-1.96574 -9.2041,-3.26896 -14.883,-3.315 -4.0338,-0.0327 -5.4525,0.18267 -8.3103,1.26165 -8.7223,3.29306 -15.151,10.07484 -20.8302,21.97409 -1.1558,2.42156 -2.2948,4.40283 -2.5313,4.40283 -0.2364,0 -0.5904,-1.3213 -0.7866,-2.93623 z m 78.6747,-62.37479 c -0.3908,-0.63253 -1.2885,-9.40025 -1.2994,-12.69038 0,-1.47449 0.2209,-2.68089 0.5016,-2.68089 0.2808,0 0.5105,0.18102 0.5105,0.40226 0,0.22126 0.6416,1.17102 1.4257,2.11058 2.4776,2.96862 4.1643,1.32702 5.9716,-5.81168 0.4238,-1.67392 0.7705,-3.52579 0.7705,-4.11524 0,-0.58945 0.3291,-1.51779 0.7314,-2.06297 1.0388,-1.40793 2.0598,-0.25891 1.9607,2.20645 -0.1326,3.29762 -1.6893,9.96441 -3.0093,12.88772 -2.6397,5.84587 -6.7238,11.11296 -7.5633,9.75415 z m -4.0094,-24.40831 c -0.6218,-1.05199 -4.4456,-13.51562 -4.4456,-14.49043 0,-1.00556 0.1796,-0.94015 2.0434,0.74424 3.9932,3.60876 5.2021,2.21546 5.4867,-6.32368 0.2252,-6.75707 0.3219,-7.23821 1.3741,-6.83432 1.972,0.75698 2.4894,11.07445 0.8677,17.3026 -1.5313,5.88088 -4.4333,11.11228 -5.3263,9.60159 z m -254.9504,-8.45264 c -0.8141,-1.05579 -2.1133,-4.73056 -3.0652,-8.66957 -1.327,-5.49105 -1.2623,-15.75716 0.1166,-18.52241 0.5603,-1.12343 1.3632,-2.04259 1.7843,-2.04259 0.6353,0 0.8093,1.30499 1.021,7.65971 0.1404,4.21285 0.4411,7.94695 0.6682,8.29802 0.7334,1.13345 2.202,0.68555 4.9632,-1.51365 l 2.7019,-2.15196 -0.3646,1.51365 c -0.2005,0.83251 -1.4712,4.38605 -2.8238,7.89675 -1.3527,3.5107 -2.5969,6.78523 -2.7651,7.27672 -0.3561,1.04054 -1.5279,1.17432 -2.2365,0.25533 z m 244.8127,-16.0695 c -0.9346,-1.09794 -7.5805,-14.60584 -7.5805,-15.40751 0,-1.0921 0.9841,-0.54549 3.1178,1.7318 2.3849,2.5453 4.1444,2.96915 5.0784,1.22334 0.5911,-1.10476 0.3305,-5.86686 -0.5965,-10.90107 -0.3588,-1.94862 -0.3052,-2.6891 0.2335,-3.22802 0.5919,-0.59205 0.8259,-0.57259 1.5251,0.12683 1.0395,1.03986 2.3245,5.28256 2.7104,8.94906 0.544,5.16948 -1.3221,15.8372 -3.107,17.76089 -0.4898,0.52798 -0.7563,0.47873 -1.3812,-0.25532 z m -233.1529,-9.21948 c -2.0747,-3.87786 -2.846,-16.42988 -1.3542,-22.03726 1.4443,-5.4288 4.4447,-6.29669 3.4036,-0.98454 -2.0136,10.27459 -0.727,13.59458 4.0443,10.43606 2.1856,-1.44682 2.5226,-1.55712 2.5226,-0.82561 0,1.14376 -6.8797,14.31691 -7.4771,14.31691 -0.3601,0 -0.8728,-0.4075 -1.1392,-0.90556 z m 12.7501,-24.70301 c -0.8216,-2.35771 -0.6891,-12.1785 0.2182,-16.16371 0.8886,-3.9036 3.7612,-9.4674 5.0147,-9.71289 1.1466,-0.22455 1.0813,1.06335 -0.2421,4.77863 -1.4839,4.16599 -1.873,9.47807 -0.7618,10.40056 0.7012,0.58213 1.221,0.51641 3.4282,-0.43339 1.431,-0.61578 2.7358,-0.98551 2.8996,-0.82164 0.3014,0.30155 -6.3168,10.29422 -8.2203,12.41163 -1.3617,1.5147 -1.6697,1.45419 -2.3365,-0.45919 z m 15.6712,-19.17002 c -1.0048,-2.35412 -0.8031,-14.6049 0.3008,-18.271 1.1024,-3.6614 2.5436,-6.58662 3.9268,-7.97021 2.0849,-2.0856 2.6224,0.18269 1.0378,4.38031 -1.545,4.0929 -2.2128,8.05877 -1.6197,9.61921 0.6845,1.80087 2.0862,1.75142 4.8812,-0.17223 2.3388,-1.60967 3.3182,-1.89904 3.3182,-0.98044 0,0.59827 -9.9216,14.01884 -10.7361,14.52245 -0.2731,0.16881 -0.7721,-0.33883 -1.109,-1.12809 z"
       id="path4147"
       inkscape:connector-curvature="0" />
    <text
       xml:space="preserve"
       style="font-style:normal;font-variant:normal;font-weight:normal;font-stretch:normal;font-size:60px;line-height:125%;font-family:Dogma;-inkscape-font-specification:'Dogma, Normal';text-align:start;letter-spacing:0px;word-spacing:0px;writing-mode:lr-tb;text-anchor:start;fill:#ffffff;fill-opacity:1;stroke:#ffffff;stroke-width:1px;stroke-linecap:butt;stroke-linejoin:miter;stroke-opacity:1"
       x="68.063309"
       y="-1350.1075"
       id="text4136-3"
       sodipodi:linespacing="125%"
       transform="matrix(0,1.5743844,-0.63516889,0,0,0)"><tspan
         sodipodi:role="line"
         id="tspan4138-4"
         x="68.063309"
         y="-1350.1075"
         style="font-style:normal;font-variant:normal;font-weight:normal;font-stretch:normal;font-size:60px;line-height:125%;font-family:Dogma;-inkscape-font-specification:'Dogma, Normal';text-align:start;writing-mode:lr-tb;text-anchor:start;stroke-width:1px">Malleus Deum</tspan></text>
  </g>
</svg>
