<?xml version="1.0" encoding="UTF-8" standalone="no"?>
<!-- Created with Inkscape (http://www.inkscape.org/) -->

<svg
   xmlns:dc="http://purl.org/dc/elements/1.1/"
   xmlns:cc="http://creativecommons.org/ns#"
   xmlns:rdf="http://www.w3.org/1999/02/22-rdf-syntax-ns#"
   xmlns:svg="http://www.w3.org/2000/svg"
   xmlns="http://www.w3.org/2000/svg"
   xmlns:sodipodi="http://sodipodi.sourceforge.net/DTD/sodipodi-0.dtd"
   xmlns:inkscape="http://www.inkscape.org/namespaces/inkscape"
   width="32px"
   height="32px"
   id="svg5053"
   version="1.1"
   inkscape:version="0.48.2 r9819"
   sodipodi:docname="castle1.svg">
  <defs
     id="defs5055" />
  <sodipodi:namedview
     id="base"
     pagecolor="#ffffff"
     bordercolor="#666666"
     borderopacity="1.0"
     inkscape:pageopacity="0.0"
     inkscape:pageshadow="2"
     inkscape:zoom="45.254834"
     inkscape:cx="7.3580286"
     inkscape:cy="17.542683"
     inkscape:current-layer="layer1"
     showgrid="true"
     inkscape:grid-bbox="true"
     inkscape:document-units="px"
     inkscape:window-width="1600"
     inkscape:window-height="852"
     inkscape:window-x="0"
     inkscape:window-y="0"
     inkscape:window-maximized="1" />
  <metadata
     id="metadata5058">
    <rdf:RDF>
      <cc:Work
         rdf:about="">
        <dc:format>image/svg+xml</dc:format>
        <dc:type
           rdf:resource="http://purl.org/dc/dcmitype/StillImage" />
        <dc:title />
      </cc:Work>
    </rdf:RDF>
  </metadata>
  <g
     id="layer1"
     inkscape:label="Layer 1"
     inkscape:groupmode="layer">
    <g
       id="g3011">
      <path
         inkscape:connector-curvature="0"
         d="m 8.2327756,13.408343 c -0.019039,0.07465 -0.024045,0.152217 -0.030536,0.228765 -0.00818,0.102056 -0.013246,0.204323 -0.017834,0.306591 -0.00486,0.111824 -0.00811,0.223707 -0.011024,0.335596 6.66e-4,0.114083 0.0067,0.228059 0.011414,0.342028 0.00511,0.121919 0.00901,0.243882 0.012471,0.365858 0.00344,0.123751 0.00587,0.247526 0.00805,0.371304 0.00214,0.124723 0.00365,0.249455 0.00501,0.374188 0.00133,0.125318 0.00227,0.25064 0.0031,0.375962 0.00229,0.121868 0.00596,0.243665 0.00665,0.36558 0,0 -1.2843964,0.0017 -1.2843964,0.0017 l 0,0 c -4.542e-4,-0.121619 -0.0017,-0.2432 -0.00433,-0.364778 -8.952e-4,-0.124808 -0.0019,-0.249615 -0.00331,-0.374419 -0.00144,-0.123895 -0.00305,-0.247789 -0.00534,-0.371672 -0.00231,-0.122435 -0.0049,-0.244866 -0.00857,-0.367269 -0.00368,-0.120349 -0.00785,-0.240683 -0.013301,-0.360966 -0.00546,-0.121894 -0.012294,-0.243797 -0.012963,-0.36584 0.00231,-0.113842 0.0049,-0.22768 0.0087,-0.341485 0.00362,-0.105718 0.00771,-0.211423 0.013325,-0.317057 0.00429,-0.0815 0.010963,-0.163166 0.00897,-0.244796 0,0 1.3139166,0.04072 1.3139166,0.04072 z"
         id="path18237"
         style="opacity:0.85409253;fill:#060000;fill-opacity:1;fill-rule:evenodd;stroke:#000000;stroke-width:0.30000001;stroke-linecap:round;stroke-miterlimit:4;stroke-opacity:1;stroke-dasharray:none;stroke-dashoffset:0" />
      <path
         inkscape:connector-curvature="0"
         d="m 15.877731,13.489558 c -0.0034,0.08129 0.0089,0.162122 0.01809,0.242675 0.01266,0.110536 0.03161,0.220251 0.04702,0.330442 0.01668,0.120273 0.02888,0.241092 0.03972,0.362011 0.01174,0.125646 0.01776,0.251682 0.02401,0.377686 0.0061,0.135745 0.01021,0.27158 0.01451,0.407394 0.0043,0.1353 0.0075,0.270629 0.01037,0.405964 0.0041,0.132737 -0.0072,0.264749 -0.02618,0.395939 -0.01879,0.115102 -0.04659,0.228454 -0.06971,0.342726 -0.01097,0.0544 -0.01993,0.109163 -0.02883,0.163929 0,0 -1.2841,-0.05565 -1.2841,-0.05565 l 0,0 c 0.0089,-0.05935 0.01784,-0.118699 0.02887,-0.1777 0.02073,-0.109755 0.04433,-0.218889 0.07035,-0.327517 0.01773,-0.110789 0.03214,-0.222071 0.03035,-0.334588 -0.0025,-0.133968 -0.0052,-0.267934 -0.0092,-0.401867 -0.0041,-0.133201 -0.0092,-0.266365 -0.01711,-0.399401 -0.007,-0.121365 -0.01597,-0.242613 -0.02687,-0.363694 -0.01099,-0.114724 -0.02337,-0.22934 -0.04048,-0.343337 -0.01687,-0.111775 -0.03656,-0.223116 -0.05153,-0.335172 -0.01224,-0.08168 -0.02387,-0.163949 -0.04424,-0.24403 0,0 1.315015,-0.04581 1.315015,-0.04581 z"
         id="path18239"
         style="opacity:0.85409253;fill:#060000;fill-opacity:1;fill-rule:evenodd;stroke:#000000;stroke-width:0.30000001;stroke-linecap:round;stroke-miterlimit:4;stroke-opacity:1;stroke-dasharray:none;stroke-dashoffset:0" />
      <path
         inkscape:connector-curvature="0"
         d="m 12.467883,14.63598 c 0.01593,0.06759 0.04439,0.132364 0.0727,0.195702 0.03515,0.09474 0.06893,0.19054 0.09302,0.288737 0.02887,0.109025 0.05378,0.218509 0.07316,0.32976 0.02048,0.126024 0.03325,0.253186 0.04554,0.380228 0.01283,0.125511 0.0081,0.251505 0.0015,0.377176 -0.0035,0.0979 -0.01467,0.19513 -0.03036,0.291744 0,0 -1.287751,-0.0627 -1.287751,-0.0627 l 0,0 c 0.01566,-0.08205 0.03018,-0.164418 0.03186,-0.248221 0.0059,-0.107296 0.0136,-0.214868 0.0035,-0.322192 -0.01212,-0.116918 -0.02559,-0.233794 -0.0485,-0.349185 -0.0205,-0.10057 -0.0498,-0.198486 -0.07724,-0.297328 -0.02689,-0.07981 -0.05422,-0.159739 -0.09028,-0.235961 -0.02992,-0.06688 -0.05817,-0.135823 -0.09512,-0.198845 0,0 1.307932,-0.148919 1.307932,-0.148919 z"
         id="path18243"
         style="opacity:0.85409253;fill:#060000;fill-opacity:1;fill-rule:evenodd;stroke:#000000;stroke-width:0.30000001;stroke-linecap:round;stroke-miterlimit:4;stroke-opacity:1;stroke-dasharray:none;stroke-dashoffset:0" />
      <path
         inkscape:connector-curvature="0"
         d="m 9.0666806,16.325051 c 0.00873,-0.08005 0.012968,-0.160625 0.01978,-0.24091 0.011732,-0.107926 0.02761,-0.215338 0.040664,-0.32311 0.011648,-0.116642 0.027013,-0.232822 0.044383,-0.348738 0.019504,-0.116748 0.041949,-0.232927 0.068528,-0.348266 0.032031,-0.125769 0.080333,-0.246705 0.1341452,-0.364556 0.055396,-0.109997 0.1217294,-0.214646 0.1974362,-0.311749 0.070391,-0.09009 0.1432904,-0.178384 0.2230841,-0.260353 0.064083,-0.0687 0.1431719,-0.117242 0.2214059,-0.167335 0,0 1.235939,0.371701 1.235939,0.371701 l 0,0 c -0.06852,0.03579 -0.135893,0.0726 -0.205212,0.106936 -0.08173,0.05213 -0.148525,0.117374 -0.210546,0.191704 -0.06513,0.07852 -0.135105,0.153133 -0.187631,0.241396 -0.05345,0.08726 -0.08998,0.18167 -0.126331,0.277054 -0.02692,0.106805 -0.04606,0.21515 -0.06619,0.323394 -0.02075,0.108977 -0.03162,0.219572 -0.04235,0.329915 -0.01108,0.102393 -0.02415,0.204549 -0.03515,0.306947 -0.0038,0.07198 -0.008,0.144447 0.0039,0.21597 0,0 -1.315892,0 -1.315892,0 z"
         id="path18245"
         style="opacity:0.85409253;fill:#060000;fill-opacity:1;fill-rule:evenodd;stroke:#000000;stroke-width:0.30000001;stroke-linecap:round;stroke-miterlimit:4;stroke-opacity:1;stroke-dasharray:none;stroke-dashoffset:0" />
      <path
         inkscape:connector-curvature="0"
         d="m 13.428665,15.743688 c 0.08489,0.0054 0.170016,0.0059 0.255038,0.0075 0.153061,0.0026 0.306147,0.0023 0.459223,0.0022 0.156474,-0.0072 0.31153,0.01082 0.466513,0.02904 -0.149849,0.01875 0.427084,-0.0038 0.270197,-0.0038 -0.06472,-2.4e-5 -1.523071,0.0046 -1.036957,0.0031 0.09783,0.0038 0.194815,-0.01307 0.291232,-0.02726 0,0 1.182223,0.50175 1.182223,0.50175 l 0,0 c -0.102079,0.01317 -0.203981,0.02815 -0.304456,0.05085 -0.519494,0.06147 -1.048032,0.04756 -1.567298,-0.0097 -0.150248,-0.0076 -0.300521,-0.0019 -0.450893,-0.003 -0.156216,-1.16e-4 -0.312439,-2.96e-4 -0.46864,0.0022 -0.09563,0.0016 -0.191314,0.0025 -0.286837,0.0075 0,0 1.190655,-0.560279 1.190655,-0.560279 z"
         id="path18247"
         style="opacity:0.85409253;fill:#060000;fill-opacity:1;fill-rule:evenodd;stroke:#000000;stroke-width:0.30000001;stroke-linecap:round;stroke-miterlimit:4;stroke-opacity:1;stroke-dasharray:none;stroke-dashoffset:0" />
      <path
         inkscape:connector-curvature="0"
         d="m 13.366755,15.11249 c 0.119894,0.0091 0.240286,0.0095 0.360456,0.01127 0.202937,0.0014 0.40588,0.0019 0.608821,0.0024 0.142789,-5.8e-5 0.07157,2.9e-5 0.213646,-2.59e-4 0,0 -1.132614,0.532968 -1.132614,0.532968 l 0,0 c -0.141097,-2.88e-4 -0.07025,-2e-4 -0.212546,-2.59e-4 -0.206303,4.86e-4 -0.412608,9.54e-4 -0.618907,0.0024 -0.136148,0.0018 -0.272412,0.003 -0.408358,0.01127 0,0 1.189502,-0.559737 1.189502,-0.559737 z"
         id="path18249"
         style="opacity:0.85409253;fill:#060000;fill-opacity:1;fill-rule:evenodd;stroke:#000000;stroke-width:0.30000001;stroke-linecap:round;stroke-miterlimit:4;stroke-opacity:1;stroke-dasharray:none;stroke-dashoffset:0" />
      <path
         inkscape:connector-curvature="0"
         d="m 7.9328376,16.176582 c 0.022914,-0.09511 0.034314,-0.192971 0.048344,-0.289768 0.021964,-0.133449 0.049681,-0.265817 0.072679,-0.399094 0.021324,-0.133312 0.039771,-0.26701 0.062015,-0.40018 0.021148,-0.128714 0.045552,-0.256945 0.073881,-0.384272 0.017577,-0.07508 0.03488,-0.150156 0.048222,-0.226105 0,0 1.283448,0.0623 1.283448,0.0623 l 0,0 c -0.014396,0.08252 -0.031342,0.164514 -0.051518,0.245841 -0.029242,0.120138 -0.055398,0.240969 -0.074969,0.363123 -0.023385,0.132825 -0.046631,0.265533 -0.065191,0.399149 -0.021592,0.130379 -0.046245,0.260291 -0.065379,0.391034 -0.01337,0.09204 -0.022793,0.185623 -0.017616,0.278693 0,0 -1.3139166,-0.04072 -1.3139166,-0.04072 z"
         id="path18257"
         style="opacity:0.85409253;fill:#060000;fill-opacity:1;fill-rule:evenodd;stroke:#000000;stroke-width:0.30000001;stroke-linecap:round;stroke-miterlimit:4;stroke-opacity:1;stroke-dasharray:none;stroke-dashoffset:0" />
      <path
         inkscape:connector-curvature="0"
         d="m 7.935203,16.149317 c 0.013257,-0.01851 0.016526,-0.03743 0.020895,-0.05943 0,0 1.300177,0.04242 1.300177,0.04242 l 0,0 c -0.0025,0.03986 -0.00498,0.07972 -0.00826,0.119517 0,0 -1.3128136,-0.102508 -1.3128136,-0.102508 z"
         id="path18259"
         style="opacity:0.85409253;fill:#060000;fill-opacity:1;fill-rule:evenodd;stroke:#000000;stroke-width:0.30000001;stroke-linecap:round;stroke-miterlimit:4;stroke-opacity:1;stroke-dasharray:none;stroke-dashoffset:0" />
      <path
         inkscape:connector-curvature="0"
         d="m 13.173483,16.175854 c 0.02765,-0.09021 0.02503,-0.186966 0.02659,-0.280407 0.0029,-0.145215 0.0015,-0.290393 -0.0056,-0.435454 -0.01168,-0.140838 -0.02795,-0.281245 -0.04194,-0.421866 -0.01501,-0.13342 -0.02005,-0.267632 -0.03057,-0.401399 -0.0051,-0.08684 -0.0047,-0.173966 -0.0045,-0.260944 0,0 1.293529,0.0023 1.293529,0.0023 l 0,0 c -7.94e-4,0.07958 -0.0053,0.159005 -0.005,0.238547 0.0046,0.129138 0.0081,0.25839 0.02249,0.386931 0.0139,0.146719 0.0302,0.293257 0.03993,0.440332 0.0063,0.150066 0.0065,0.300181 0.0101,0.450323 0.0025,0.109177 0.0067,0.218347 0.0099,0.327477 0,0 -1.315015,-0.04581 -1.315015,-0.04581 z"
         id="path18261"
         style="opacity:0.85409253;fill:#060000;fill-opacity:1;fill-rule:evenodd;stroke:#000000;stroke-width:0.30000001;stroke-linecap:round;stroke-miterlimit:4;stroke-opacity:1;stroke-dasharray:none;stroke-dashoffset:0" />
      <path
         inkscape:connector-curvature="0"
         d="m 12.476362,16.592334 c 4.3e-4,-0.09298 -0.01135,-0.186172 -0.01966,-0.278829 -0.01293,-0.134468 -0.01935,-0.269467 -0.03243,-0.403912 -0.01476,-0.140781 -0.02808,-0.281718 -0.04049,-0.422727 -0.01671,-0.131382 -0.03554,-0.262482 -0.04809,-0.394345 -0.0097,-0.128458 -0.01608,-0.257228 -0.01056,-0.385984 0.0036,-0.06216 0.01059,-0.123993 0.0179,-0.185792 0,0 1.285596,0.04955 1.285596,0.04955 l 0,0 c -0.0085,0.05161 -0.01468,0.103321 -0.01826,0.155536 -0.0077,0.111752 -1.3e-4,0.223518 0.0067,0.335178 0.01049,0.131971 0.03179,0.262804 0.0427,0.39476 0.01213,0.140275 0.02649,0.280305 0.0418,0.420264 0.01209,0.132551 0.02026,0.265495 0.03791,0.397499 0.01278,0.09465 0.02877,0.188967 0.04967,0.282154 0,0 -1.312769,0.03665 -1.312769,0.03665 z"
         id="path18263"
         style="opacity:0.85409253;fill:#060000;fill-opacity:1;fill-rule:evenodd;stroke:#000000;stroke-width:0.30000001;stroke-linecap:round;stroke-miterlimit:4;stroke-opacity:1;stroke-dasharray:none;stroke-dashoffset:0" />
      <path
         inkscape:connector-curvature="0"
         d="m 12.162154,14.174428 c 0.01484,-0.111272 0.01736,-0.224076 0.02111,-0.336191 0.005,-0.186509 0.0057,-0.373093 0.0084,-0.55964 0.0022,-0.226851 0.0047,-0.453696 0.0071,-0.680544 0.0042,-0.250355 0.0016,-0.500742 -0.001,-0.751097 -2.5e-5,-0.182903 -0.0059,-0.365849 -0.01855,-0.548305 0,0 1.252871,-0.01789 1.252871,-0.01789 l 0,0 c 0.0064,0.188648 0.0099,0.377435 0.0079,0.566197 -0.0026,0.250355 -0.0052,0.500742 -10e-4,0.751097 0.0024,0.226848 0.0049,0.453693 0.0071,0.680544 0.0027,0.186547 0.0034,0.373131 0.0084,0.55964 0.0038,0.112115 0.0063,0.224919 0.02111,0.336191 0,0 -1.313344,0 -1.313344,0 z"
         id="path18265"
         style="opacity:0.85409253;fill:#060000;fill-opacity:1;fill-rule:evenodd;stroke:#000000;stroke-width:0.30000001;stroke-linecap:round;stroke-miterlimit:4;stroke-opacity:1;stroke-dasharray:none;stroke-dashoffset:0" />
      <path
         inkscape:connector-curvature="0"
         d="m 8.4388085,14.505634 c 0.010831,-0.17715 0.023832,-0.357171 0.01412,-0.535973 0.00677,-0.05867 0.028047,-0.227369 0.027262,-0.285516 -6.908e-4,-0.0512 -0.015577,-0.101668 -0.015128,-0.152872 4.559e-4,-0.05196 0.018585,-0.102907 0.017827,-0.154864 -7.604e-4,-0.05213 -0.01737,-0.102895 -0.022345,-0.154788 -0.00484,-0.05049 -0.00471,-0.101326 -0.00707,-0.151989 -0.035955,-0.183643 -0.0069,-0.374669 -0.030795,-0.558631 -0.033173,-0.25539 -0.038433,-0.0037 -0.020676,-0.256597 0.01536,-0.100598 -0.023235,-0.253497 -0.01013,-0.350474 0.00493,-0.03645 0.027352,-0.06861 0.035478,-0.104473 0.014204,-0.0627 0.010702,-0.132449 0.010668,-0.195984 -0.00538,-0.02997 -0.018287,-0.05953 -0.016148,-0.0899 0.00215,-0.03051 0.022694,-0.05718 0.028622,-0.08719 0.022917,-0.116008 -0.00538,-0.03929 -0.016447,-0.14699 -0.020459,-0.199172 0.035506,0.06437 -0.00267,-0.09953 -0.079246,-0.09166 -0.032888,0.137863 -0.031827,0.145887 0,0 1.2259988,-0.541416 1.2259988,-0.541416 l 0,0 c 0.010083,0.03594 0.020167,0.07188 0.03025,0.107825 0.011812,0.02305 0.027254,0.04457 0.035435,0.06914 0.00611,0.01835 0.00219,0.03884 0.00677,0.05763 0.00464,0.01903 0.018819,0.03552 0.020668,0.05502 0.00201,0.02116 -0.00632,0.04204 -0.00947,0.06305 6.085e-4,0.159697 -0.00451,-0.04172 0.01637,0.139713 0.01398,0.121455 -0.04207,0.240661 -0.051818,0.360978 0.00489,0.06435 0.023067,0.12859 0.0171,0.192849 -0.00318,0.03427 -0.021543,0.06557 -0.028019,0.09937 -0.020637,0.107715 -8.473e-4,0.216155 -0.020306,0.324 -0.00226,0.03929 -0.00875,0.07856 -0.00677,0.117869 0.00323,0.06421 0.037074,0.187841 0.032849,0.252602 -0.00305,0.0468 -0.030177,0.09032 -0.031174,0.137212 -0.00207,0.09716 0.060684,0.189787 0.030905,0.289908 0.00334,0.157538 0.015049,0.316252 0.015092,0.473686 1.41e-5,0.05192 -0.012411,0.10394 -0.0071,0.155582 0.00528,0.05135 0.03479,0.09851 0.038545,0.149992 0.00341,0.04681 -0.011613,0.09314 -0.017419,0.13971 0.00487,0.04237 0.00975,0.08475 0.014625,0.127123 -8.18e-4,0.03703 -0.0054,0.07418 -0.00245,0.111105 0.00253,0.03176 0.016023,0.06198 0.018773,0.09372 0.00475,0.05483 -0.013418,0.112635 0.00579,0.167041 0,0 -1.2953817,0.03616 -1.2953817,0.03616 z"
         id="path18269"
         style="opacity:0.85409253;fill:#060000;fill-opacity:1;fill-rule:evenodd;stroke:#000000;stroke-width:0.30000001;stroke-linecap:round;stroke-miterlimit:4;stroke-opacity:1;stroke-dasharray:none;stroke-dashoffset:0" />
      <path
         inkscape:connector-curvature="0"
         d="m 11.455777,15.193736 c 1.87e-4,-0.0086 0.004,-0.01795 5.6e-4,-0.02584 -0.02897,-0.06576 -0.0351,-0.01856 -0.08105,-0.08188 -0.0113,-0.01557 -0.0102,-0.03733 -0.01861,-0.05464 -0.01959,-0.04035 -0.04568,-0.0773 -0.06565,-0.117468 -0.264568,-0.156291 0.01744,0.03969 -0.110899,-0.124479 -0.02049,-0.02621 -0.05731,-0.03481 -0.08143,-0.05771 -0.140966,-0.133859 0.03446,0.0059 -0.07265,-0.133902 -0.01927,-0.02515 -0.04917,-0.03998 -0.07375,-0.05997 -0.07686,-0.06787 -0.145869,-0.149058 -0.226411,-0.212642 -0.08914,-0.05806 -0.04815,-0.02784 -0.123816,-0.08951 -0.108014,-0.104617 -0.255701,-0.147135 -0.38479,-0.218557 -0.0512,-0.0059 -0.06212,-0.06075 -0.09855,-0.08383 -0.02392,-0.01516 -0.05268,-0.02085 -0.07871,-0.032 -0.075795,-0.03246 -0.1489588,-0.07057 -0.2235028,-0.105733 -0.080409,-0.02603 -0.146974,-0.07743 -0.2255799,-0.107651 -0.03121,-0.012 -0.06469,-0.01786 -0.095287,-0.03135 -0.02461,-0.01085 -0.046238,-0.02748 -0.069358,-0.04123 -0.026962,-0.01159 -0.053925,-0.02318 -0.080888,-0.03476 -0.023184,-0.01179 -0.046368,-0.02358 -0.069553,-0.03537 0,0 1.1719257,-0.391123 1.1719257,-0.391123 l 0,0 c 0.03222,0.01066 0.06443,0.02132 0.09665,0.03198 0.169249,0.05719 0.314251,0.167269 0.486014,0.220358 0.129124,0.09186 0.285337,0.13728 0.407879,0.239131 0.150908,0.07609 0.285259,0.166567 0.414177,0.276109 0.04297,0.03779 0.09285,0.06775 0.13303,0.108492 0.07927,0.08037 0.118945,0.197783 0.219436,0.258209 0.01712,0.02512 0.07507,0.111777 0.09503,0.13471 0.01963,0.02255 0.04612,0.03888 0.06405,0.06281 0.01501,0.02003 0.01914,0.04667 0.03339,0.06725 0.03046,0.04398 0.08008,0.08212 0.119848,0.116347 0.208605,0.162664 -0.01878,-0.04134 0.07955,0.119044 0.01333,0.02173 0.04119,0.03025 0.05978,0.0477 0.0236,0.02215 0.03405,0.05621 0.05827,0.07768 0.01235,0.01094 0.02917,0.01543 0.04376,0.02314 0,0 -1.302857,0.256687 -1.302857,0.256687 z"
         id="path18275"
         style="opacity:0.85409253;fill:#060000;fill-opacity:1;fill-rule:evenodd;stroke:#000000;stroke-width:0.30000001;stroke-linecap:round;stroke-miterlimit:4;stroke-opacity:1;stroke-dasharray:none;stroke-dashoffset:0" />
      <path
         inkscape:connector-curvature="0"
         d="m 11.458614,14.716199 c -6.4e-5,-0.01058 0.0029,-0.02162 -1.91e-4,-0.03176 -0.0052,-0.01722 -0.01739,-0.0316 -0.02402,-0.04833 -0.03633,-0.09164 -0.04113,-0.170812 -0.09014,-0.26073 -0.0046,-0.02456 -0.0065,-0.04984 -0.01394,-0.07369 -0.0084,-0.02673 -0.02419,-0.05066 -0.0334,-0.07712 -0.03584,-0.102848 -0.04699,-0.214005 -0.07712,-0.318675 -0.0098,-0.02753 -0.02656,-0.0535 -0.02936,-0.08258 -0.0027,-0.02822 0.01181,-0.05569 0.0133,-0.084 0.0072,-0.136322 -0.01345,-0.02075 -0.01686,-0.152573 -3.88e-4,-0.01503 0.01545,-0.13271 0.01762,-0.149423 -0.02457,-0.17068 -0.01054,0.02341 0.02362,-0.147029 0.0045,-0.02254 -0.0096,-0.04601 -0.0059,-0.0687 0.01365,-0.08445 0.05792,-0.0716 0.03805,-0.174681 0.0099,-0.01718 0.02311,-0.03285 0.02968,-0.05155 0.0064,-0.01816 0.03539,-0.178415 0.03403,-0.193629 -0.0017,-0.01878 -0.01387,-0.03506 -0.02081,-0.05259 0,0 1.300182,0.0024 1.300182,0.0024 l 0,0 c 0.0018,0.0796 0.0058,0.03987 -0.01267,0.119119 1.96e-4,0.02141 0.01709,0.0411 0.01513,0.06242 -0.0021,0.02301 -0.02111,0.04154 -0.02674,0.06394 -0.0055,0.02202 -0.0043,0.04522 -0.0064,0.06782 -0.0058,0.0216 -0.01163,0.0432 -0.01745,0.0648 7.1e-4,0.02237 0.0066,0.04518 0.0021,0.06711 -0.0094,0.04616 -0.0445,0.06573 -0.05199,0.11253 -0.0094,0.05885 0.02848,0.102222 -0.02625,0.154163 -0.0048,0.02537 -0.01923,0.08848 -0.01425,0.11573 0.004,0.02169 0.02151,0.03954 0.02476,0.06135 0.0093,0.06267 -0.03467,0.127531 0.0075,0.188335 0.02239,0.05597 0.03742,0.08174 0.04328,0.142302 0.0023,0.02412 -0.0081,0.04951 -0.0011,0.07271 0.0078,0.0258 0.03439,0.04276 0.04368,0.06806 0.01584,0.04315 -0.0031,0.09416 0.01506,0.137068 0.0179,0.02075 0.04221,0.03737 0.05371,0.06224 0.05063,0.109436 -0.04351,0.02408 0.03219,0.116994 0.01276,0.01567 0.03415,0.02282 0.04669,0.03866 0.06357,0.08032 -0.06042,-0.0155 0.04445,0.05655 0,0 -1.316549,0.192734 -1.316549,0.192734 z"
         id="path18277"
         style="opacity:0.85409253;fill:#060000;fill-opacity:1;fill-rule:evenodd;stroke:#000000;stroke-width:0.30000001;stroke-linecap:round;stroke-miterlimit:4;stroke-opacity:1;stroke-dasharray:none;stroke-dashoffset:0" />
      <path
         inkscape:connector-curvature="0"
         d="m 10.105918,13.812775 c -0.05968,-0.03918 0.0125,-0.05767 0.0258,-0.104844 0.0048,-0.01703 -0.0063,-0.03515 -0.0053,-0.05281 0.0015,-0.02494 0.02133,-0.08677 0.02811,-0.109644 0.02334,-0.124425 0.07243,-0.245091 0.08259,-0.371802 0.03538,-0.08306 0.0183,-0.162864 0.04537,-0.247595 0,0 1.289885,0.0505 1.289885,0.0505 l 0,0 c -0.01219,0.04459 -0.03148,0.08764 -0.03771,0.133442 -0.02827,0.20781 0.03704,-0.07313 -0.01571,0.134063 -0.05769,0.160873 0.0016,-0.02855 -0.02259,0.131071 -0.0033,0.02169 -0.01194,0.04234 -0.02033,0.06261 -0.0085,0.02047 -0.02866,0.03715 -0.03008,0.05926 -0.01507,0.235073 0.06962,-0.09348 0.0034,0.129366 -0.0085,0.08274 0.005,0.04386 -0.04253,0.115898 -0.0042,0.01722 0.0099,0.03446 0.01019,0.05219 6.06e-4,0.03954 -0.02457,0.07883 -0.02398,0.118799 0,0 -1.287094,-0.100499 -1.287094,-0.100499 z"
         id="path18279"
         style="opacity:0.85409253;fill:#060000;fill-opacity:1;fill-rule:evenodd;stroke:#000000;stroke-width:0.30000001;stroke-linecap:round;stroke-miterlimit:4;stroke-opacity:1;stroke-dasharray:none;stroke-dashoffset:0" />
      <path
         inkscape:connector-curvature="0"
         d="m 9.2679774,13.622005 c -8.994e-4,-0.01146 -0.00525,-0.02317 -0.0027,-0.03437 0.00742,-0.03263 0.044092,-0.05933 0.057891,-0.08568 0.03069,-0.05859 0.040376,-0.129421 0.042556,-0.193819 0.00971,-0.0251 0.018505,-0.05058 0.029141,-0.0753 0.043654,-0.101477 0.038904,-0.05271 0.04887,-0.167475 0.00256,-0.02949 -0.00685,-0.06091 0.00322,-0.08875 0.079808,-0.220509 0.053222,0.04806 0.062155,-0.166613 0.039312,-0.110615 0.025262,-0.05494 0.043243,-0.166754 0,0 1.2856286,0.107234 1.2856286,0.107234 l 0,0 c -0.06271,0.102873 -0.0388,0.04953 -0.07352,0.159209 -0.0054,0.02846 -0.01203,0.05671 -0.01607,0.08539 -0.004,0.02838 0.0024,0.05891 -0.008,0.0856 -0.01191,0.03042 -0.04656,0.04886 -0.05677,0.07989 -0.0084,0.02549 0.0068,0.05372 0.004,0.08041 -0.0057,0.0552 -0.0367,0.106078 -0.03288,0.163193 -0.01317,0.02372 -0.03168,0.04518 -0.03949,0.07116 -0.0065,0.02164 -0.01463,0.145934 -0.0197,0.181705 -0.0021,0.01495 0.0028,0.03119 -0.0028,0.0452 -0.004,0.0099 -0.0159,0.01423 -0.02385,0.02134 0,0 -1.3008917,-0.101576 -1.3008917,-0.101576 z"
         id="path18281"
         style="opacity:0.85409253;fill:#060000;fill-opacity:1;fill-rule:evenodd;stroke:#000000;stroke-width:0.30000001;stroke-linecap:round;stroke-miterlimit:4;stroke-opacity:1;stroke-dasharray:none;stroke-dashoffset:0" />
      <path
         inkscape:connector-curvature="0"
         d="m 9.823865,13.87839 c -0.013893,-0.07234 0.014166,-0.148148 0.00952,-0.219689 -0.014115,-0.217116 -0.029631,0.06905 -0.011824,-0.148582 -0.08687,-0.224208 0.014461,0.08155 -0.00588,-0.15425 -0.00252,-0.02923 -0.029537,-0.05155 -0.036652,-0.08001 -0.033569,-0.134279 0.021645,-0.02994 0.00593,-0.164432 -0.00329,-0.02819 -0.019185,-0.05342 -0.028777,-0.08014 -0.021667,-0.154169 -0.040861,-0.307533 -0.057333,-0.462725 -0.01923,-0.167368 -0.00369,0.0249 0.00322,-0.13871 9.363e-4,-0.02218 -0.00633,-0.04417 -0.00564,-0.06636 6.873e-4,-0.0219 0.011118,-0.04314 0.00976,-0.065 -0.00146,-0.02355 -0.020247,-0.04494 -0.018056,-0.06843 0.00201,-0.02152 0.01987,-0.03838 0.029806,-0.05757 0.012358,-0.05447 -0.019793,-0.112141 -0.015652,-0.165714 0.00382,-0.04942 0.026628,-0.100063 0.031405,-0.151024 -0.017006,-0.03622 0.050337,-0.117729 0.053122,-0.133857 0.019897,-0.115247 -0.07196,0.02484 0.017184,-0.08763 0,0 1.284973,0.09333 1.284973,0.09333 l 0,0 c -0.01877,0.0433 -0.02335,0.09976 -0.03952,0.135093 -0.006,0.01316 -0.02227,0.02015 -0.02735,0.0337 -0.0048,0.01272 -3.64e-4,0.02717 -5.47e-4,0.04075 -3.99e-4,0.0066 -0.0026,0.0627 -0.0076,0.07037 -0.0086,0.01317 -0.03361,0.01473 -0.03626,0.03024 -0.0028,0.01627 0.02175,0.02711 0.02366,0.04351 2.03e-4,0.0017 -0.02271,0.102168 -0.02368,0.106464 0.04847,0.116139 0.01965,0.0089 0.0075,0.115501 -0.0024,0.02075 0.0085,0.0419 0.0049,0.06248 -0.0039,0.02233 -0.02706,0.03984 -0.02679,0.0625 0.002,0.163273 0.07388,-0.03877 -9.7e-5,0.12572 0.01242,0.02099 0.03393,0.03881 0.03726,0.06297 0.0031,0.02246 -0.01879,0.04247 -0.01963,0.06513 -9.11e-4,0.02462 0.0124,0.04793 0.01453,0.07247 0.0022,0.02473 -0.0043,0.04975 -0.0017,0.07444 0.02464,0.239682 0.01505,-0.09015 0.01813,0.152995 0.02114,0.06986 0.03117,0.08565 0.03258,0.159387 5.29e-4,0.02781 -0.01239,0.05624 -0.0057,0.08324 0.0076,0.03078 0.03993,0.05185 0.04683,0.0828 0.01262,0.05652 -0.03981,0.118604 0.0079,0.173556 0.0059,0.06574 -0.01001,0.225641 0.01694,0.278526 0.0092,0.0181 0.0372,0.02536 0.0407,0.04538 0.0025,0.01406 -0.01797,0.02218 -0.02696,0.03326 0,0 -1.3001814,0.0403 -1.3001814,0.0403 z"
         id="path18283"
         style="opacity:0.85409253;fill:#060000;fill-opacity:1;fill-rule:evenodd;stroke:#000000;stroke-width:0.30000001;stroke-linecap:round;stroke-miterlimit:4;stroke-opacity:1;stroke-dasharray:none;stroke-dashoffset:0" />
      <path
         inkscape:connector-curvature="0"
         d="m 10.969666,13.584852 c -0.0012,-0.0095 -0.0024,-0.01908 -0.0036,-0.02863 0.0075,-0.01373 0.0217,-0.02558 0.02244,-0.0412 8.86e-4,-0.01891 -0.01828,-0.03495 -0.01798,-0.05388 3.38e-4,-0.02151 0.01666,-0.04015 0.01979,-0.06144 0.02404,-0.163556 -0.03626,0.03287 0.02395,-0.137564 -0.0039,-0.02428 -0.01328,-0.04828 -0.01175,-0.07283 0.0016,-0.02535 0.01764,-0.04809 0.02082,-0.07329 0.01744,-0.138025 -0.0203,-0.0098 -0.0094,-0.147647 0.01121,-0.141311 0.04284,-0.0036 -0.0083,-0.151055 0.02171,-0.06995 0.04766,-0.148263 0.05119,-0.222322 0.0011,-0.02378 -0.009,-0.04722 -0.0079,-0.071 0.01935,-0.08777 0.01365,-0.04396 0.01771,-0.131348 0.0085,-0.02063 0.02203,-0.03985 0.02548,-0.06189 0.0035,-0.02213 -0.0081,-0.04477 -0.0053,-0.06699 0.0076,-0.06007 0.04167,-0.130636 0.06027,-0.188751 0,0 1.290722,0.09621 1.290722,0.09621 l 0,0 c -0.04244,0.08957 -0.05415,0.182395 -0.07897,0.277324 -0.01527,0.256096 0.0188,-0.145977 -0.042,0.125698 -0.0047,0.02089 0.01072,0.04202 0.01014,0.06342 -5.68e-4,0.02118 -0.01204,0.04098 -0.01351,0.06212 -0.0032,0.04662 0.01332,0.09335 0.0038,0.140141 -0.0086,0.02282 -0.02172,0.04443 -0.02594,0.06847 -0.02161,0.123003 0.04892,0.252944 -0.0087,0.375148 0.01982,0.131231 0.01223,0.01561 -0.0073,0.142403 -0.01767,0.114945 0.0089,0.01579 0.0028,0.122924 -0.0067,0.119729 -0.01798,-0.01403 -0.0071,0.08131 0,0 -1.301593,-0.04534 -1.301593,-0.04534 z"
         id="path18285"
         style="opacity:0.85409253;fill:#060000;fill-opacity:1;fill-rule:evenodd;stroke:#000000;stroke-width:0.30000001;stroke-linecap:round;stroke-miterlimit:4;stroke-opacity:1;stroke-dasharray:none;stroke-dashoffset:0" />
      <path
         inkscape:connector-curvature="0"
         d="m 11.277162,12.849781 c -0.02845,-0.03957 0.0024,-0.07238 0.0043,-0.114062 7.64e-4,-0.0172 -0.0074,-0.034 -0.0068,-0.05121 0.0015,-0.03921 0.01897,-0.07726 0.03216,-0.11309 -0.02898,-0.12367 -0.02564,-0.256201 0.0079,-0.379427 -0.005,-0.04528 -0.01319,-0.07818 -2.67e-4,-0.123357 0.0064,-0.02253 0.02793,-0.04059 0.02909,-0.064 9.61e-4,-0.01946 -0.02135,-0.03422 -0.02328,-0.05361 -4.62e-4,-0.0046 0.02307,-0.100495 0.02474,-0.107419 0,0 1.280175,0.05795 1.280175,0.05795 l 0,0 c -0.0028,0.01479 -0.0098,0.02939 -0.0084,0.04438 0.0015,0.01583 0.02136,0.02944 0.01677,0.04466 -0.0069,0.0229 -0.03721,0.03253 -0.04667,0.05449 -0.01432,0.03326 0.01213,0.130546 -0.0091,0.166744 -3.71e-4,0.0061 -0.0066,0.105434 -0.006,0.11222 0.0018,0.02144 0.01303,0.04174 0.01284,0.06325 -1.87e-4,0.02136 -0.01237,0.04125 -0.01394,0.06255 -0.003,0.04043 0.01407,0.08089 0.0041,0.121557 0.0196,0.14943 0.0026,-0.03132 -0.0045,0.11309 -0.0016,0.03247 0.002,0.06534 0.0088,0.09714 0.0029,0.0137 0.01386,0.02499 0.01614,0.03882 0.0016,0.0098 -0.0033,0.01955 -0.0049,0.02932 0,0 -1.313213,0 -1.313213,0 z"
         id="path18287"
         style="opacity:0.85409253;fill:#060000;fill-opacity:1;fill-rule:evenodd;stroke:#000000;stroke-width:0.30000001;stroke-linecap:round;stroke-miterlimit:4;stroke-opacity:1;stroke-dasharray:none;stroke-dashoffset:0" />
      <path
         inkscape:connector-curvature="0"
         d="m 8.0481648,16.638597 c 0.00664,-0.01047 0.018657,-0.01908 0.019917,-0.03141 0.00149,-0.01459 -0.012341,-0.02755 -0.012394,-0.04222 -6.19e-5,-0.01717 0.01171,-0.03292 0.012062,-0.05009 0.00263,-0.128076 -0.03338,0.01952 0.00875,-0.115489 0,0 1.2905218,0 1.2905218,0 l 0,0 c -0.056486,0.127602 -0.015367,-0.0063 4.549e-4,0.115489 0.0045,0.03466 -0.026233,0.08571 -0.00889,0.12372 0,0 -1.3104206,0 -1.3104206,0 z"
         id="path18297"
         style="opacity:0.85409253;fill:#060000;fill-opacity:1;fill-rule:evenodd;stroke:#000000;stroke-width:0.30000001;stroke-linecap:round;stroke-miterlimit:4;stroke-opacity:1;stroke-dasharray:none;stroke-dashoffset:0" />
      <path
         inkscape:connector-curvature="0"
         d="m 11.719324,16.868655 c 0.06429,-0.08154 -0.0045,0.02433 0.0099,-0.08308 0.0031,-0.02343 0.02596,-0.04062 0.03125,-0.06366 0.0056,-0.02426 -0.002,-0.0499 4.7e-4,-0.07466 0.0028,-0.02722 0.01017,-0.05376 0.01525,-0.08063 0,0 1.258976,0.01954 1.258976,0.01954 l 0,0 c 0.002,0.05364 0.01701,0.106758 0.01451,0.160378 -0.0011,0.02352 -0.01605,0.04481 -0.01814,0.06826 -0.01119,0.125648 0.02901,-0.0073 -0.0069,0.09432 0,0 -1.305294,-0.04046 -1.305294,-0.04046 z"
         id="path18299"
         style="opacity:0.85409253;fill:#060000;fill-opacity:1;fill-rule:evenodd;stroke:#000000;stroke-width:0.30000001;stroke-linecap:round;stroke-miterlimit:4;stroke-opacity:1;stroke-dasharray:none;stroke-dashoffset:0" />
      <path
         inkscape:connector-curvature="0"
         d="m 11.549287,11.984748 c -0.0068,-0.0093 -0.02027,-0.01648 -0.02031,-0.02802 -4.7e-5,-0.01349 0.01512,-0.02258 0.02009,-0.03512 0.01272,-0.03209 0.0039,-0.07055 0.01829,-0.101937 0.0105,-0.02293 0.03951,-0.03538 0.04663,-0.05958 0.0062,-0.02119 -0.0066,-0.04369 -0.0098,-0.06553 0.02365,-0.04527 -0.0011,-0.09429 0.0074,-0.140365 0.0047,-0.02559 0.02367,-0.04708 0.02868,-0.07261 0.01309,-0.06663 0.002,-0.154029 5.4e-5,-0.221846 0.04191,-0.100749 -0.0037,-0.19992 0.0068,-0.301381 0.01483,-0.143332 0.02077,-0.0057 0.0074,-0.148273 -0.0019,-0.06958 0.0059,-0.139196 0.01288,-0.20833 0.0022,-0.02123 0.01291,-0.0421 0.0099,-0.06323 -0.0032,-0.02259 -0.0184,-0.04175 -0.0276,-0.06262 0,0 1.298594,-0.01732 1.298594,-0.01732 l 0,0 c 0.008,0.0227 0.02567,0.04408 0.02406,0.0681 -0.0018,0.02627 -0.02762,0.04588 -0.03342,0.07157 -0.01645,0.07294 0.02903,0.15141 -0.0095,0.222261 -0.0014,0.02505 -0.0067,0.05019 -0.0042,0.07515 0.0064,0.06413 0.03623,0.08694 0.02613,0.153659 -0.0041,0.02739 -0.02728,0.0499 -0.0301,0.07745 -0.02758,0.270046 0.0685,-0.114417 -0.0077,0.155983 -0.0032,0.02541 -0.0039,0.05129 -0.0097,0.07624 -0.0061,0.0262 -0.02745,0.04963 -0.02577,0.07648 0.0018,0.02856 0.03089,0.04994 0.03546,0.0782 0.01251,0.07748 -0.0599,0.148642 -0.02898,0.226874 -0.01206,0.05206 -0.0227,0.08213 -0.02108,0.135838 6.41e-4,0.02119 0.01068,0.04183 0.009,0.06297 -0.0043,0.05273 -0.05612,0.08543 -0.01668,0.135156 0,0 -1.306543,-0.08976 -1.306543,-0.08976 z"
         id="path18301"
         style="opacity:0.85409253;fill:#060000;fill-opacity:1;fill-rule:evenodd;stroke:#000000;stroke-width:0.30000001;stroke-linecap:round;stroke-miterlimit:4;stroke-opacity:1;stroke-dasharray:none;stroke-dashoffset:0" />
      <path
         inkscape:connector-curvature="0"
         d="m 6.3859916,16.614669 c 0.00541,-0.0047 0.013714,-0.0074 0.016222,-0.01409 0.00829,-0.02217 -0.011304,-0.07214 -0.011577,-0.09317 -0.00143,-0.109925 0.023234,0.03199 -0.00109,-0.08163 0.026107,-0.119479 -0.002,0.03455 0.00207,-0.08708 5.332e-4,-0.01594 0.00918,-0.03081 0.010351,-0.04671 0.00769,-0.104658 -0.012865,0.0069 -0.010684,-0.09639 3.386e-4,-0.01603 0.00623,-0.03146 0.00935,-0.04719 -0.00189,-0.01591 -0.00682,-0.03176 -0.00568,-0.04774 0.00115,-0.01622 0.00982,-0.03113 0.012438,-0.04718 0.00496,-0.03049 0.00183,-0.06185 0.00575,-0.09249 0.00192,-0.015 0.00865,-0.02941 0.00866,-0.04453 1.41e-5,-0.01513 -0.00572,-0.02971 -0.00858,-0.04456 -0.014011,-0.03182 0.015145,-0.05666 0.016003,-0.08571 4.334e-4,-0.01467 -0.00816,-0.02823 -0.011101,-0.04261 -0.00886,-0.04336 -0.0076,-0.08236 -0.00215,-0.12587 0.013768,-0.03829 -0.0071,-0.07269 -0.00998,-0.109614 -9.244e-4,-0.01185 0.00466,-0.02374 0.00315,-0.03553 -0.018476,-0.144291 -0.00945,0.07044 -0.013027,-0.06928 -0.00271,-0.01135 -0.00853,-0.02238 -0.00814,-0.03404 3.997e-4,-0.01189 0.00991,-0.02226 0.010432,-0.03414 4.974e-4,-0.01141 -0.00662,-0.02204 -0.00749,-0.03342 -8.476e-4,-0.01111 0.00338,-0.02225 0.00239,-0.03335 -0.00198,-0.02224 -0.00992,-0.04358 -0.01327,-0.06565 -0.00366,-0.03251 -0.00662,-0.06508 6.747e-4,-0.09738 0.00248,-0.01098 0.012116,-0.02116 0.010091,-0.03224 -0.016095,-0.08804 -0.035153,0.02095 -0.013713,-0.06381 -0.00679,-0.07059 0.00546,-0.138143 0.00545,-0.208545 0.00974,-0.06299 0.019224,-0.125134 0.050656,-0.182117 0.062531,-0.113361 0.00982,0.01748 0.053058,-0.101493 0.076793,-0.117968 0.1457652,-0.240313 0.2261488,-0.356472 0.088172,-0.154516 0.2180253,-0.278697 0.3201104,-0.422868 0.076826,-0.05463 0.1341532,-0.127119 0.1908124,-0.200963 0,0 0.5872011,0.130758 0.5872011,0.130758 l 0,0 c -0.06049,0.06682 -0.1250423,0.128666 -0.1892218,0.191947 -0.1122239,0.127379 -0.215363,0.261486 -0.3123491,0.400792 -0.010998,0.02092 -0.02014,0.04293 -0.032993,0.06276 -0.03404,0.05253 -0.056745,0.06572 -0.092617,0.116232 -0.078832,0.111009 0.00202,0.0027 -0.049758,0.110585 -0.00851,0.01774 -0.022358,0.03239 -0.033537,0.04858 -0.024483,0.04291 -0.027684,0.04361 -0.043235,0.08905 -0.00329,0.0096 -0.016575,0.06218 -0.021457,0.07324 -0.00493,0.01116 -0.014681,0.01999 -0.018517,0.03157 -0.00337,0.01016 -0.00169,0.02134 -0.00254,0.03201 0.00442,0.02764 0.00836,0.03184 -1.5e-6,0.05919 -0.00324,0.01059 -0.012595,0.01937 -0.013372,0.03042 -6.969e-4,0.0099 0.00887,0.01839 0.00924,0.02831 0.00497,0.132193 -0.022728,-0.06868 -0.00209,0.06245 0.00267,0.01039 0.00744,0.02046 0.00802,0.03117 0.00166,0.03061 -0.00929,0.06256 -0.00523,0.09397 0.00139,0.01073 0.00659,0.02067 0.00848,0.03132 0.00184,0.01037 0.00178,0.021 0.00268,0.0315 -0.00945,0.04125 -0.0059,0.05511 -0.00119,0.09577 0.00407,0.03512 -0.00778,0.06727 0.014966,0.09874 -0.00215,0.01262 -0.01072,0.05701 -0.00894,0.06996 0.00175,0.01273 0.010008,0.0238 0.012919,0.03631 0.00916,0.03939 0.010316,0.08197 -1.779e-4,0.120961 0.00106,0.02863 0.00277,0.05748 0.00117,0.08615 -8.408e-4,0.01501 -0.00548,0.02986 -0.00456,0.04486 0.00278,0.04542 0.023144,0.09111 0.013601,0.138031 -0.00724,0.061 -1.388e-4,0.03095 -0.021829,0.09003 -0.00254,0.01516 0.00188,0.03075 0.00125,0.04611 -0.00194,0.04684 -0.00229,0.0949 -0.016549,0.139837 0.00413,0.160133 -0.00356,-0.06808 0.00753,0.08791 0.00233,0.0327 -0.00153,0.05105 -0.0055,0.08342 0.00553,0.09726 0.020223,-0.01005 0.00187,0.08554 0.023429,0.08522 0.00255,-0.0024 0.013155,0.07997 0.00504,0.0391 0.01799,0.07922 0.00557,0.118425 0,0 -0.6493373,0 -0.6493373,0 z"
         id="path18313"
         style="opacity:0.85409253;fill:#060000;fill-opacity:1;fill-rule:evenodd;stroke:#000000;stroke-width:0.30000001;stroke-linecap:round;stroke-miterlimit:4;stroke-opacity:1;stroke-dasharray:none;stroke-dashoffset:0" />
      <path
         inkscape:connector-curvature="0"
         d="m 8.4956764,11.780369 c -4.437e-4,-0.0034 -0.00204,-0.0068 -0.00133,-0.01018 0.00324,-0.01537 0.013955,-0.02837 0.018038,-0.04354 0.00977,-0.0363 0.013331,-0.07565 0.022252,-0.112443 -0.00287,-0.194904 -2.711e-4,0.10664 0.00438,-0.09581 3.757e-4,-0.01635 -0.00342,-0.03264 -0.00282,-0.04898 6.233e-4,-0.01716 0.00587,-0.03394 0.00646,-0.0511 5.734e-4,-0.01679 -0.002,-0.03354 -0.00299,-0.0503 7.839e-4,-0.01691 0.00157,-0.03382 0.00235,-0.05072 -0.023558,-0.04762 2.923e-4,-0.09963 -0.00495,-0.14781 -0.00169,-0.01558 -0.012501,-0.02915 -0.01472,-0.04467 -0.00209,-0.01461 0.00217,-0.02947 0.00201,-0.04423 -1.561e-4,-0.01443 -0.00197,-0.0288 -0.00296,-0.0432 -0.027935,-0.0374 -0.012441,-0.07842 -0.018581,-0.11915 -0.00191,-0.01268 -0.010126,-0.02372 -0.012849,-0.03625 -0.025862,-0.118957 0.02306,0.04634 -0.01449,-0.07337 -0.014048,-0.02248 -0.00538,-0.04917 -0.01205,-0.07286 -0.023605,-0.08382 -0.013277,0.01519 -0.018292,-0.06478 0,0 0.6252358,-0.04277 0.6252358,-0.04277 l 0,0 c 0.00733,0.0506 5.708e-4,0.02597 0.02052,0.07381 0.011434,0.07726 -0.031273,-0.007 0.017727,0.07075 1.802e-4,0.02126 -0.00111,0.05646 0.00565,0.07704 0.00476,0.01447 0.018308,0.02561 0.020932,0.04062 0.00239,0.01369 -0.00713,0.02728 -0.00663,0.04118 0.00107,0.0294 0.021231,0.0566 0.012094,0.08742 -0.00611,0.09831 -0.00419,-0.0098 0.00974,0.09138 0.00224,0.01624 -8.102e-4,0.03284 6.514e-4,0.04917 0.00148,0.01648 0.00783,0.03242 0.00813,0.04896 3.177e-4,0.01713 -0.00579,0.0339 -0.00628,0.05103 -5.033e-4,0.0176 0.00221,0.03514 0.00331,0.05272 2.568e-4,0.07354 -0.00364,0.0367 0.012285,0.110454 0.00413,0.07107 -0.042973,0.13944 -0.00849,0.20835 -0.00396,0.01516 -0.00962,0.02998 -0.011895,0.04549 -0.00746,0.05078 0.00544,0.104168 -0.01238,0.153757 0,0 -0.6400683,-0.04998 -0.6400683,-0.04998 z"
         id="path18315"
         style="opacity:0.85409253;fill:#060000;fill-opacity:1;fill-rule:evenodd;stroke:#000000;stroke-width:0.30000001;stroke-linecap:round;stroke-miterlimit:4;stroke-opacity:1;stroke-dasharray:none;stroke-dashoffset:0" />
      <path
         inkscape:connector-curvature="0"
         d="m 8.950672,11.335486 c 0.00302,-0.05373 -0.00372,0.03545 0.010018,-0.03747 0.00163,-0.0087 -0.00261,-0.01804 -2.5e-5,-0.02647 0.00335,-0.01093 0.015967,-0.01829 0.017217,-0.02965 0.00126,-0.01141 -0.00812,-0.02158 -0.010343,-0.03284 -0.00226,-0.01146 -0.002,-0.02327 -0.00301,-0.03491 0.011035,-0.03805 -0.00978,-0.07706 -0.00583,-0.114859 0.00142,-0.01361 0.010787,-0.02567 0.011816,-0.03931 -0.00784,-0.05204 -0.00761,-0.02606 -8.434e-4,-0.07794 -0.0119,-0.09264 -3.252e-4,0.01553 -0.00296,-0.07602 -3.578e-4,-0.01245 -0.00448,-0.02469 -0.00411,-0.03715 3.603e-4,-0.01236 0.00651,-0.0242 0.00626,-0.03656 -0.010181,-0.04757 -0.00831,-0.02374 -0.00594,-0.07147 -0.00381,-0.04695 -0.00619,-0.02377 0.0075,-0.0695 0,0 0.6238572,0 0.6238572,0 l 0,0 c 0.00726,0.04604 0.00534,0.02288 0.00578,0.0695 0.00172,0.04827 0.00541,0.02439 -0.012214,0.07147 -4.666e-4,0.0127 0.00959,0.02391 0.010813,0.03656 0.00359,0.03707 -0.01639,0.07581 -0.00518,0.11317 0.00584,0.05241 -0.00286,0.103802 -0.00117,0.156397 4.149e-4,0.01297 0.00536,0.02554 0.0057,0.03851 3.302e-4,0.01245 -0.00246,0.0248 -0.00369,0.03719 0.00496,0.0241 0.011068,0.04288 0.00778,0.06775 -0.00135,0.01023 -0.00914,0.01934 -0.00885,0.02965 5.578e-4,0.0197 0.020886,0.04161 0.011724,0.06394 0,0 -0.6543011,0 -0.6543011,0 z"
         id="path18317"
         style="opacity:0.85409253;fill:#060000;fill-opacity:1;fill-rule:evenodd;stroke:#000000;stroke-width:0.30000001;stroke-linecap:round;stroke-miterlimit:4;stroke-opacity:1;stroke-dasharray:none;stroke-dashoffset:0" />
      <path
         inkscape:connector-curvature="0"
         d="m 10.36789,14.916383 c 0.03858,0.0011 0.07749,10e-4 0.116226,0.0017 0.03237,0.0056 0.06517,-6.77e-4 0.09764,5.88e-4 0.0094,3.65e-4 0.01853,0.0034 0.02791,0.0036 0.05221,-0.0023 0.027,-0.0022 0.07562,-7.09e-4 0.05353,0.0034 0.106994,-0.0036 0.160419,-0.0042 0.02415,-2.72e-4 0.04828,0.0016 0.07242,0.0017 0.04822,-0.0014 0.0966,0.0036 0.144746,0.0034 0.08444,-2.63e-4 0.0045,-0.0051 0.0745,3.48e-4 0.07429,-0.0056 0.148625,-0.0024 0.223008,0.0019 0.06956,2.77e-4 0.138841,0.0042 0.208405,0.0055 -0.470886,-0.0062 -0.201773,0.0017 -0.09226,-0.0072 0.0091,-6.01e-4 0.01823,-0.0012 0.02735,-0.0018 0.007,-0.0017 0.01379,-0.0041 0.0209,-0.005 0.0097,-0.0012 0.01957,-8.9e-5 0.02928,-0.0011 0.02274,-0.0024 0.04597,-0.0091 0.06823,-0.01417 0.02413,-0.0065 0.0494,-0.0069 0.07374,-0.01137 0.0066,-0.0012 0.01267,-0.0043 0.01908,-0.0062 0.02105,-0.0062 0.02043,-0.0054 0.04269,-0.0094 0.04296,-0.0057 0.08544,-0.01608 0.128538,-0.01954 0.127359,-0.0081 0.260899,-0.03486 0.385063,-3.3e-4 0,0 -0.285529,0.129011 -0.285529,0.129011 l 0,0 c -0.102633,-0.0053 -0.05213,-0.0024 0.247283,-9.28e-4 0.0052,2.6e-5 -0.01041,0.0012 -0.01564,0.0013 -0.0096,1.63e-4 -0.03371,-0.0015 -0.04277,-0.002 -0.04191,4.36e-4 -0.08378,0.0077 -0.125175,0.01304 -0.04674,0.0053 -0.09297,0.01147 -0.138374,0.02432 -0.01927,0.0062 -0.02235,0.0081 -0.04395,0.01047 -0.01087,0.0012 -0.022,-1.61e-4 -0.03274,0.0019 -0.0069,0.0013 -0.01266,0.0065 -0.01952,0.008 -0.01825,0.0041 -0.03774,0.0011 -0.05556,0.0082 -0.02966,0.0013 -0.05749,0.0074 -0.08704,0.0089 -0.122551,0.0065 -0.252502,-0.0294 -0.370782,-0.0015 -0.06909,-1.02e-4 -0.138913,0.0015 -0.207413,-0.0075 -0.03859,8.74e-4 -0.07755,0.0023 -0.116112,0.0024 -0.01088,1.2e-5 -0.0217,-0.0019 -0.03258,-0.0018 -0.01396,7.7e-5 -0.02787,0.0023 -0.04184,0.0022 -0.01041,-8.2e-5 -0.02073,-0.0019 -0.03109,-0.0028 -0.02778,0.0014 -0.05242,0.0034 -0.08016,0.0023 -0.01069,-4.05e-4 -0.02127,-0.0027 -0.03197,-0.0028 -0.03809,-4.98e-4 -0.07644,0.0046 -0.114561,2.36e-4 -0.07689,4.17e-4 -0.153804,0.0043 -0.230641,0.0015 -0.07072,0.0023 -0.14148,-0.0014 -0.212245,0.0017 -0.04315,-0.002 -0.0872,7.82e-4 -0.130083,0.0048 0,0 0.294974,-0.138804 0.294974,-0.138804 z"
         id="path18319"
         style="opacity:0.85409253;fill:#060000;fill-opacity:1;fill-rule:evenodd;stroke:#000000;stroke-width:0.30000001;stroke-linecap:round;stroke-miterlimit:4;stroke-opacity:1;stroke-dasharray:none;stroke-dashoffset:0" />
      <path
         inkscape:connector-curvature="0"
         d="m 11.641461,11.215592 c 0.0051,0.01415 -0.0056,0.02691 -0.0052,0.04052 2.86e-4,0.0098 0.0069,0.01874 0.0068,0.02851 -1.27e-4,0.01145 -0.0062,0.02215 -0.0075,0.03353 -0.0025,0.02174 3.34e-4,0.05381 0.0016,0.07546 0.0044,0.01261 0.0087,0.02523 0.01311,0.03784 0,0 -0.644563,-2.95e-4 -0.644563,-2.95e-4 l 0,0 c 3.31e-4,-0.01177 6.62e-4,-0.02353 9.93e-4,-0.0353 -0.01033,-0.0344 -0.01286,-0.06076 -0.0076,-0.09656 0.0013,-0.009 0.0078,-0.01779 0.0057,-0.0266 -0.0021,-0.0086 -0.01129,-0.01349 -0.01693,-0.02023 -8.48e-4,-0.0047 -0.0017,-0.0093 -0.0025,-0.01401 0,0 0.656112,-0.02285 0.656112,-0.02285 z"
         id="path18325"
         style="opacity:0.85409253;fill:#060000;fill-opacity:1;fill-rule:evenodd;stroke:#000000;stroke-width:0.30000001;stroke-linecap:round;stroke-miterlimit:4;stroke-opacity:1;stroke-dasharray:none;stroke-dashoffset:0" />
      <path
         inkscape:connector-curvature="0"
         d="m 10.261716,11.195764 c -0.0185,0.04471 -0.01755,0.09851 -0.01509,0.146723 0,0 -0.6322855,-0.01647 -0.6322855,-0.01647 l 0,0 c 7.323e-4,-0.0061 0.00871,-0.09202 0.00841,-0.09391 -0.00123,-0.0078 -0.00854,-0.01318 -0.012808,-0.01977 -2.287e-4,-0.0055 -4.574e-4,-0.01105 -6.861e-4,-0.01658 0,0 0.6524586,0 0.6524586,0 z"
         id="path18327"
         style="opacity:0.85409253;fill:#060000;fill-opacity:1;fill-rule:evenodd;stroke:#000000;stroke-width:0.30000001;stroke-linecap:round;stroke-miterlimit:4;stroke-opacity:1;stroke-dasharray:none;stroke-dashoffset:0" />
      <path
         inkscape:connector-curvature="0"
         d="m 8.5112991,12.39458 c -0.02177,0.01868 -0.00812,0.03659 -0.00883,0.06025 -7.761e-4,0.02577 -0.010419,0.03449 -0.014155,0.05971 -0.00168,0.0113 -8.071e-4,0.02284 -0.00121,0.03426 0.025836,0.07286 0.00465,-0.0051 0.00533,0.07119 1.143e-4,0.01289 0.00726,0.02504 0.00752,0.03793 2.706e-4,0.01346 -0.00747,0.02658 -0.00595,0.03996 0.015369,0.13554 0.020032,-0.0525 0.012853,0.08099 0.016411,0.04079 0.00158,0.08036 7.013e-4,0.121159 -8.02e-4,0.03731 0.00748,0.07838 0.01002,0.115861 -0.03626,0.124718 0.00967,-0.04961 -0.0071,0.07038 -0.00165,0.01177 -0.00852,0.02219 -0.01278,0.03329 0,0 -0.6219158,-0.01644 -0.6219158,-0.01644 l 0,0 c 0.00534,-0.03357 -2.681e-4,-0.06579 0.013386,-0.09763 -0.035582,-0.082 -0.00234,0.01751 0.00255,-0.06387 7.368e-4,-0.01226 -0.011911,-0.02238 -0.012566,-0.03464 -6.521e-4,-0.0122 0.00878,-0.02337 0.00881,-0.03559 3.3e-5,-0.0134 -0.00575,-0.02618 -0.00863,-0.03927 1.558e-4,-0.01336 3.116e-4,-0.02673 4.674e-4,-0.04009 -0.00115,-0.0061 -0.014353,-0.07507 -0.014861,-0.08116 -0.00113,-0.01358 0.00146,-0.02729 4.105e-4,-0.04087 -0.00106,-0.01365 -0.00633,-0.02683 -0.00672,-0.04051 -3.944e-4,-0.01381 0.00493,-0.02741 0.00439,-0.04122 -5.574e-4,-0.01412 -0.00511,-0.02779 -0.00766,-0.04169 0.010571,-0.0399 0.0137,-0.03484 0.00742,-0.07526 -0.00168,-0.0108 -0.00711,-0.02091 -0.00794,-0.03181 -0.00172,-0.02269 0.012744,-0.04504 0.00415,-0.06764 0,0 0.652321,0.02272 0.652321,0.02272 z"
         id="path18329"
         style="opacity:0.85409253;fill:#060000;fill-opacity:1;fill-rule:evenodd;stroke:#000000;stroke-width:0.30000001;stroke-linecap:round;stroke-miterlimit:4;stroke-opacity:1;stroke-dasharray:none;stroke-dashoffset:0" />
    </g>
  </g>
</svg>
