<?xml version="1.0" encoding="UTF-8" standalone="no"?>
<!-- Created with Inkscape (http://www.inkscape.org/) -->

<svg
   xmlns:dc="http://purl.org/dc/elements/1.1/"
   xmlns:cc="http://creativecommons.org/ns#"
   xmlns:rdf="http://www.w3.org/1999/02/22-rdf-syntax-ns#"
   xmlns:svg="http://www.w3.org/2000/svg"
   xmlns="http://www.w3.org/2000/svg"
   xmlns:sodipodi="http://sodipodi.sourceforge.net/DTD/sodipodi-0.dtd"
   xmlns:inkscape="http://www.inkscape.org/namespaces/inkscape"
   width="32px"
   height="32px"
   id="svg5053"
   version="1.1"
   inkscape:version="0.48.2 r9819"
   sodipodi:docname="mtn1.svg">
  <defs
     id="defs5055" />
  <sodipodi:namedview
     id="base"
     pagecolor="#ffffff"
     bordercolor="#666666"
     borderopacity="1.0"
     inkscape:pageopacity="0.0"
     inkscape:pageshadow="2"
     inkscape:zoom="7.9180417"
     inkscape:cx="25.186168"
     inkscape:cy="17.038702"
     inkscape:current-layer="layer1"
     showgrid="true"
     inkscape:grid-bbox="true"
     inkscape:document-units="px"
     inkscape:window-width="620"
     inkscape:window-height="537"
     inkscape:window-x="465"
     inkscape:window-y="147"
     inkscape:window-maximized="0" />
  <metadata
     id="metadata5058">
    <rdf:RDF>
      <cc:Work
         rdf:about="">
        <dc:format>image/svg+xml</dc:format>
        <dc:type
           rdf:resource="http://purl.org/dc/dcmitype/StillImage" />
        <dc:title />
      </cc:Work>
    </rdf:RDF>
  </metadata>
  <g
     id="layer1"
     inkscape:label="Layer 1"
     inkscape:groupmode="layer">
    <g
       transform="matrix(0.14985796,0,0,0.20846321,-12.361123,-65.352926)"
       id="g3829">
      <path
         style="opacity:0.85409253;fill:#000000;fill-opacity:1;fill-rule:evenodd;stroke:#001003;stroke-width:0.30000001;stroke-linecap:round;stroke-miterlimit:4;stroke-opacity:1;stroke-dasharray:none;stroke-dashoffset:0"
         d="m 186.50014,346.89722 c -6.58143,7.52709 -12.49926,15.62815 -18.3837,23.69366 -5.47674,8.34427 -12.45303,15.72172 -20.84181,21.17258 -4.54138,3.65071 -8.10747,8.79494 -13.75877,10.85726 -3.04417,0.25475 -12.03661,-1.89891 -5.32599,-4.65541 7.62456,-8.0572 18.10978,-12.82329 25.18966,-21.48856 4.80733,-5.35898 8.67165,-11.44707 13.29969,-16.94761 3.20356,-4.31938 6.06313,-8.87767 9.08549,-13.32242 3.39461,-2.38527 7.15362,0.76987 10.73543,0.6905 z"
         id="path3777"
         inkscape:connector-curvature="0" />
      <path
         style="opacity:0.85409253;fill:#000000;fill-opacity:1;fill-rule:evenodd;stroke:#001003;stroke-width:0.30000001;stroke-linecap:round;stroke-miterlimit:4;stroke-opacity:1;stroke-dasharray:none;stroke-dashoffset:0"
         d="m 187.79913,343.38437 c 6.55692,9.70306 14.79582,18.16146 21.05462,28.07749 6.22094,3.9663 6.83582,12.25957 12.03868,17.1097 8.89086,2.00898 16.15502,7.76185 24.02075,11.98726 3.15782,0.97091 10.78971,5.40994 3.77636,6.85553 -6.29178,2.2509 -11.22667,-3.49678 -16.52646,-5.75 -6.0714,-3.95156 -12.46262,-7.68427 -19.56588,-9.40614 -6.44912,-4.68445 -6.46132,-14.08351 -12.80899,-18.8714 -6.21049,-9.20619 -13.29167,-17.7782 -20.3968,-26.29835 -0.41021,-4.65447 6.02226,-1.91622 8.40772,-3.70409 z"
         id="path3779"
         inkscape:connector-curvature="0" />
      <path
         style="opacity:0.85409253;fill:#000000;fill-opacity:1;fill-rule:evenodd;stroke:#001003;stroke-width:0.30000001;stroke-linecap:round;stroke-miterlimit:4;stroke-opacity:1;stroke-dasharray:none;stroke-dashoffset:0"
         d="m 163.89353,383.13897 c -2.33416,3.81636 -4.78839,9.32135 -9.99916,9.25071 -4.72119,-0.21415 -4.5853,-6.81485 -1.34763,-8.97813 3.27611,-2.33175 7.87954,-1.97751 11.34679,-0.27258 z"
         id="path3799"
         inkscape:connector-curvature="0" />
      <path
         style="opacity:0.85409253;fill:#000000;fill-opacity:1;fill-rule:evenodd;stroke:#001003;stroke-width:0.30000001;stroke-linecap:round;stroke-miterlimit:4;stroke-opacity:1;stroke-dasharray:none;stroke-dashoffset:0"
         d="m 175.90799,395.41127 c -4.92964,1.20855 -8.61609,6.93548 -14.11336,5.46801 -5.76202,-1.63981 -0.23453,-7.94058 3.74603,-7.62085 3.74112,-0.71546 6.96816,1.05725 10.36733,2.15284 z"
         id="path3801"
         inkscape:connector-curvature="0" />
      <path
         style="opacity:0.85409253;fill:#000000;fill-opacity:1;fill-rule:evenodd;stroke:#001003;stroke-width:0.30000001;stroke-linecap:round;stroke-miterlimit:4;stroke-opacity:1;stroke-dasharray:none;stroke-dashoffset:0"
         d="m 209.03667,383.74152 c 3.71933,4.66749 -4.46181,6.90438 -7.73202,4.83853 -4.33868,-4.88463 5.1372,-4.5516 7.73202,-4.83853 z"
         id="path3803"
         inkscape:connector-curvature="0" />
      <path
         style="opacity:0.85409253;fill:#000000;fill-opacity:1;fill-rule:evenodd;stroke:#001003;stroke-width:0.30000001;stroke-linecap:round;stroke-miterlimit:4;stroke-opacity:1;stroke-dasharray:none;stroke-dashoffset:0"
         d="m 188.42436,391.96652 c -7.36084,4.77235 -13.05885,11.53962 -19.32936,17.571 -3.79211,1.71979 -12.47971,-2.8195 -5.82974,-5.87556 6.30775,-4.00069 9.72431,-12.45841 17.7315,-13.62107 2.58601,0.14728 4.93751,1.34114 7.4276,1.92563 z"
         id="path3805"
         inkscape:connector-curvature="0" />
      <path
         style="opacity:0.85409253;fill:#000000;fill-opacity:1;fill-rule:evenodd;stroke:#001003;stroke-width:0.30000001;stroke-linecap:round;stroke-miterlimit:4;stroke-opacity:1;stroke-dasharray:none;stroke-dashoffset:0"
         d="m 182.94539,379.21239 c 0.19259,4.96318 -8.57546,4.27167 -9.43176,0.72571 2.81692,-1.92908 6.3512,0.0488 9.43176,-0.72571 z"
         id="path3807"
         inkscape:connector-curvature="0" />
      <path
         style="opacity:0.85409253;fill:#000000;fill-opacity:1;fill-rule:evenodd;stroke:#001003;stroke-width:0.30000001;stroke-linecap:round;stroke-miterlimit:4;stroke-opacity:1;stroke-dasharray:none;stroke-dashoffset:0"
         d="m 182.87866,382.25878 c 4.2993,4.20996 -4.86189,6.33581 -7.90712,4.60108 -2.81636,-4.57264 5.57572,-3.7214 7.90712,-4.60108 z"
         id="path3809"
         inkscape:connector-curvature="0" />
    </g>
  </g>
</svg>
