<?xml version="1.0" encoding="UTF-8" standalone="no"?>
<!-- Created with Inkscape (http://www.inkscape.org/) -->

<svg
   xmlns:dc="http://purl.org/dc/elements/1.1/"
   xmlns:cc="http://creativecommons.org/ns#"
   xmlns:rdf="http://www.w3.org/1999/02/22-rdf-syntax-ns#"
   xmlns:svg="http://www.w3.org/2000/svg"
   xmlns="http://www.w3.org/2000/svg"
   xmlns:sodipodi="http://sodipodi.sourceforge.net/DTD/sodipodi-0.dtd"
   xmlns:inkscape="http://www.inkscape.org/namespaces/inkscape"
   width="32px"
   height="32px"
   id="svg5053"
   version="1.1"
   inkscape:version="0.48.2 r9819"
   sodipodi:docname="mtn5.svg">
  <defs
     id="defs5055" />
  <sodipodi:namedview
     id="base"
     pagecolor="#ffffff"
     bordercolor="#666666"
     borderopacity="1.0"
     inkscape:pageopacity="0.0"
     inkscape:pageshadow="2"
     inkscape:zoom="1.3997252"
     inkscape:cx="39.147195"
     inkscape:cy="-0.26512589"
     inkscape:current-layer="layer1"
     showgrid="true"
     inkscape:grid-bbox="true"
     inkscape:document-units="px"
     inkscape:window-width="467"
     inkscape:window-height="424"
     inkscape:window-x="106"
     inkscape:window-y="156"
     inkscape:window-maximized="0" />
  <metadata
     id="metadata5058">
    <rdf:RDF>
      <cc:Work
         rdf:about="">
        <dc:format>image/svg+xml</dc:format>
        <dc:type
           rdf:resource="http://purl.org/dc/dcmitype/StillImage" />
        <dc:title />
      </cc:Work>
    </rdf:RDF>
  </metadata>
  <g
     id="layer1"
     inkscape:label="Layer 1"
     inkscape:groupmode="layer">
    <g
       transform="matrix(0.13035443,0,0,0.13054181,-11.030518,-28.245348)"
       id="g4641">
      <g
         id="g4542">
        <g
           id="g4445"
           transform="matrix(0.93710612,0,0,1.0599119,6.224602,-17.048995)">
          <path
             style="opacity:0.85409253;fill:#000000;fill-opacity:1;fill-rule:evenodd;stroke:#001003;stroke-width:0.30000001;stroke-linecap:round;stroke-miterlimit:4;stroke-opacity:1;stroke-dasharray:none;stroke-dashoffset:0"
             d="m 99.119908,344.26241 c 7.273132,-3.93628 15.426842,-6.75907 20.493402,-13.73614 7.05411,-6.27606 13.3215,-13.30072 18.45749,-21.22091 7.38184,-7.45302 14.00699,-16.81326 24.18404,-20.43198 7.35213,-3.79121 19.18919,4.15267 22.57367,4.09537 -7.52257,-0.39507 7.51156,-1.03644 10.20968,-1.07389 3.91089,0.6382 8.00125,0.58611 1.69211,0.53361 -7.35065,0.30481 7.97542,-0.49569 9.34786,-3.69087 11.3969,-5.16487 24.27822,-4.62068 36.24789,-2.431 9.83524,4.89721 20.47432,7.91733 29.48008,14.19615 4.6083,7.20605 24.31736,5.16117 17.60639,16.71238 5.98293,3.42152 20.13315,8.43934 24.44105,18.24729 5.65569,6.54034 21.71683,6.09837 23.36903,12.09969 -8.822,4.58813 -17.31995,-2.83228 -25.55299,-5.19693 -10.29763,-3.13221 -12.11329,-16.65837 -23.38284,-17.81974 -7.18616,-0.57596 -10.07331,-6.23386 -9.31394,-12.32058 -8.97215,-2.90144 -15.89848,-8.59297 -23.80591,-13.41945 -9.90511,-1.92682 -17.66763,-9.95703 -28.06944,-9.34349 -1.59181,0.0564 -6.12497,-0.40435 -1.30281,-0.39483 -9.78223,1.56947 -17.99056,8.49047 -28.21405,8.04214 -3.90692,-0.121 -15.93608,-0.71024 -5.54296,-0.31415 -8.51624,1.79278 -18.73623,1.23027 -25.58582,-4.2527 10.02578,-1.0554 -4.75768,2.55654 -6.26202,6.75522 -8.0987,7.18516 -15.73531,14.97948 -21.4638,24.21545 -7.32598,7.08155 -14.07889,15.08642 -23.24849,20.00866 -5.7243,4.66103 -10.13068,3.79267 -16.357622,0.7407 z"
             id="path4377"
             inkscape:connector-curvature="0" />
          <path
             style="opacity:0.85409253;fill:#000000;fill-opacity:1;fill-rule:evenodd;stroke:#001003;stroke-width:0.30000001;stroke-linecap:round;stroke-miterlimit:4;stroke-opacity:1;stroke-dasharray:none;stroke-dashoffset:0"
             d="m 297.93055,313.83554 c 3.35693,4.75457 13.72886,14.03269 0.94954,12.78471 -6.86583,-1.13863 -15.22779,-14.27233 -3.08526,-12.50587 l 1.06786,-0.13942 1.06786,-0.13942 0,0 z"
             id="path4381"
             inkscape:connector-curvature="0" />
          <path
             style="opacity:0.85409253;fill:#000000;fill-opacity:1;fill-rule:evenodd;stroke:#001003;stroke-width:0.30000001;stroke-linecap:round;stroke-miterlimit:4;stroke-opacity:1;stroke-dasharray:none;stroke-dashoffset:0"
             d="m 295.61417,313.07294 c 2.94934,5.02528 18.5896,14.54574 5.30814,15.88443 -6.04113,-1.26623 -10.06853,-9.2191 -14.8011,-13.52619 3.19322,-0.66614 6.32665,-1.58058 9.49296,-2.35824 z"
             id="path4383"
             inkscape:connector-curvature="0" />
          <path
             style="opacity:0.85409253;fill:#000000;fill-opacity:1;fill-rule:evenodd;stroke:#001003;stroke-width:0.30000001;stroke-linecap:round;stroke-miterlimit:4;stroke-opacity:1;stroke-dasharray:none;stroke-dashoffset:0"
             d="m 290.23865,319.35003 c 7.41129,9.34614 -18.05809,3.42621 -5.00654,0.78885 1.67546,-0.22074 3.33536,-0.54025 5.00654,-0.78885 z"
             id="path4385"
             inkscape:connector-curvature="0" />
          <path
             style="opacity:0.85409253;fill:#000000;fill-opacity:1;fill-rule:evenodd;stroke:#001003;stroke-width:0.30000001;stroke-linecap:round;stroke-miterlimit:4;stroke-opacity:1;stroke-dasharray:none;stroke-dashoffset:0"
             d="m 290.80374,311.45387 c 7.54026,0.35503 4.36458,7.99841 -1.64572,6.20698 -5.60475,0.98184 -9.27902,-5.51611 -1.74931,-5.0578 1.13165,-0.38313 2.26335,-0.76622 3.39503,-1.14918 z"
             id="path4391"
             inkscape:connector-curvature="0" />
          <path
             style="opacity:0.85409253;fill:#000000;fill-opacity:1;fill-rule:evenodd;stroke:#001003;stroke-width:0.30000001;stroke-linecap:round;stroke-miterlimit:4;stroke-opacity:1;stroke-dasharray:none;stroke-dashoffset:0"
             d="m 147.42947,323.39103 c -7.3065,6.01731 -13.88437,13.17418 -21.65223,18.3925 -5.24909,3.24966 -14.79649,-3.76284 -5.25053,-5.89947 8.15839,-3.00377 12.07425,-16.78498 22.02298,-13.70351 1.62133,0.42466 3.25889,0.78406 4.87978,1.21048 z"
             id="path4393"
             inkscape:connector-curvature="0" />
          <path
             style="opacity:0.85409253;fill:#000000;fill-opacity:1;fill-rule:evenodd;stroke:#001003;stroke-width:0.30000001;stroke-linecap:round;stroke-miterlimit:4;stroke-opacity:1;stroke-dasharray:none;stroke-dashoffset:0"
             d="m 253.76389,328.08178 c -7.56313,5.97792 0.0367,22.2431 -11.27958,23.78094 -6.96316,0.55561 -4.05677,-1.03835 -1.85449,0.52901 -4.94172,1.35766 -10.81979,-2.58606 -2.3789,-3.71367 4.08058,-0.96363 7.43325,0.90767 1.39275,0.22599 7.61564,-4.98691 -0.194,-16.36789 7.54585,-21.2053 2.12402,-0.95692 4.50791,-0.40257 6.57437,0.38303 z"
             id="path4435"
             inkscape:connector-curvature="0" />
          <path
             style="opacity:0.85409253;fill:#000000;fill-opacity:1;fill-rule:evenodd;stroke:#001003;stroke-width:0.30000001;stroke-linecap:round;stroke-miterlimit:4;stroke-opacity:1;stroke-dasharray:none;stroke-dashoffset:0"
             d="m 155.88274,328.16648 c -3.0783,6.30969 -15.63041,-1.27584 -4.49387,-1.35094 1.52834,0.35379 2.95445,1.03644 4.49387,1.35094 z"
             id="path4437"
             inkscape:connector-curvature="0" />
          <path
             style="opacity:0.85409253;fill:#000000;fill-opacity:1;fill-rule:evenodd;stroke:#001003;stroke-width:0.30000001;stroke-linecap:round;stroke-miterlimit:4;stroke-opacity:1;stroke-dasharray:none;stroke-dashoffset:0"
             d="m 203.07806,304.87964 c -3.70428,5.24929 -13.86409,-3.51136 -4.07355,-1.23519 1.32685,0.51668 2.74413,0.72653 4.07355,1.23519 z"
             id="path4441"
             inkscape:connector-curvature="0" />
          <path
             style="opacity:0.85409253;fill:#000000;fill-opacity:1;fill-rule:evenodd;stroke:#001003;stroke-width:0.30000001;stroke-linecap:round;stroke-miterlimit:4;stroke-opacity:1;stroke-dasharray:none;stroke-dashoffset:0"
             d="m 206.32399,317.85654 c -2.88165,1.40961 -12.03624,-3.69327 0,0 z"
             id="path4443"
             inkscape:connector-curvature="0" />
        </g>
        <path
           style="opacity:0.85409253;fill:#000000;fill-opacity:1;fill-rule:evenodd;stroke:#001003;stroke-width:0.30000001;stroke-linecap:round;stroke-miterlimit:4;stroke-opacity:1;stroke-dasharray:none;stroke-dashoffset:0"
           d="m 212.63971,299.41296 c -2.66495,2.65638 -6.36929,3.84296 -9.82421,5.08193 -2.07386,0.26074 -5.35239,-0.6216 -6.36418,-1.89685 2.93362,-1.51662 6.93567,-1.47098 8.94859,-4.46384 2.30652,-0.3606 4.46434,0.96297 6.73975,1.16699 l 0.50005,0.11177 0,0 z"
           id="path4508"
           inkscape:connector-curvature="0" />
        <path
           style="opacity:0.85409253;fill:#000000;fill-opacity:1;fill-rule:evenodd;stroke:#001003;stroke-width:0.30000001;stroke-linecap:round;stroke-miterlimit:4;stroke-opacity:1;stroke-dasharray:none;stroke-dashoffset:0"
           d="m 237.14551,295.99097 c 3.44297,0.44762 6.1145,2.895 9.17282,4.29631 2.57823,1.9944 -2.57303,1.99284 -3.80514,2.58772 -3.26838,0.47995 -5.15954,-3.0075 -8.22248,-3.55981 -1.20786,-0.4698 -4.11368,-0.0685 -1.68938,-1.239 1.48422,-0.75994 3.0997,-1.24595 4.54418,-2.08522 z"
           id="path4512"
           inkscape:connector-curvature="0" />
        <path
           style="opacity:0.85409253;fill:#000000;fill-opacity:1;fill-rule:evenodd;stroke:#001003;stroke-width:0.30000001;stroke-linecap:round;stroke-miterlimit:4;stroke-opacity:1;stroke-dasharray:none;stroke-dashoffset:0"
           d="m 181.1229,293.20004 c 3.68669,0.57981 7.26722,1.76115 10.62032,3.35728 3.41404,0.88701 5.34301,4.27703 8.60819,5.47255 4.46116,2.65265 9.58831,3.77964 14.2634,5.92963 3.46864,0.95683 6.47616,3.10962 10.06371,3.67087 1.25839,0.52991 6.14667,0.34676 3.04318,1.77041 -3.20963,2.03695 -7.03179,1.0614 -10.31868,-0.17489 -4.1877,-1.04797 -7.83883,-3.44154 -11.94353,-4.72972 -4.87366,-1.82477 -9.44546,-4.36467 -14.06795,-6.72671 -3.98473,-2.51571 -8.25906,-5.04547 -13.03106,-5.53635 -1.08319,0.24888 -4.88168,0.32288 -2.03241,-0.79757 1.62394,-0.68934 3.1858,-1.51348 4.79483,-2.2355 z"
           id="path4526"
           inkscape:connector-curvature="0" />
      </g>
      <path
         inkscape:connector-curvature="0"
         id="path4583"
         d="m 208.7699,295.26899 c -3.34448,3.91716 -12.1633,7.47022 -14.74064,3.5135 4.71724,-3.07799 8.86967,-6.36206 14.74064,-3.5135 z"
         style="opacity:0.85409253;fill:#000000;fill-opacity:1;fill-rule:evenodd;stroke:#001003;stroke-width:0.30000001;stroke-linecap:round;stroke-miterlimit:4;stroke-opacity:1;stroke-dasharray:none;stroke-dashoffset:0" />
      <path
         inkscape:connector-curvature="0"
         id="path4585"
         d="m 217.10914,303.382 c -0.42446,5.50795 -12.41746,0.25135 -5.6659,-1.06449 1.89138,0.33971 3.78662,0.66144 5.6659,1.06449 z"
         style="opacity:0.85409253;fill:#000000;fill-opacity:1;fill-rule:evenodd;stroke:#001003;stroke-width:0.30000001;stroke-linecap:round;stroke-miterlimit:4;stroke-opacity:1;stroke-dasharray:none;stroke-dashoffset:0" />
      <path
         inkscape:connector-curvature="0"
         id="path4587"
         d="m 225.7005,308.97953 c -1.78909,4.08269 -11.90102,-1.99234 -4.72358,-1.05585 1.57453,0.35195 3.14905,0.7039 4.72358,1.05585 z"
         style="opacity:0.85409253;fill:#000000;fill-opacity:1;fill-rule:evenodd;stroke:#001003;stroke-width:0.30000001;stroke-linecap:round;stroke-miterlimit:4;stroke-opacity:1;stroke-dasharray:none;stroke-dashoffset:0" />
      <path
         inkscape:connector-curvature="0"
         id="path4589"
         d="m 173.48237,309.54169 c 2.38838,6.75482 -12.29274,4.42578 -5.63093,-0.0733 1.87303,0.13919 3.75421,0.0466 5.63093,0.0733 z"
         style="opacity:0.85409253;fill:#000000;fill-opacity:1;fill-rule:evenodd;stroke:#001003;stroke-width:0.30000001;stroke-linecap:round;stroke-miterlimit:4;stroke-opacity:1;stroke-dasharray:none;stroke-dashoffset:0" />
      <path
         inkscape:connector-curvature="0"
         id="path4591"
         d="m 179.24957,312.4287 c 1.53245,5.67702 -8.82464,7.77831 -7.64482,1.77193 1.25173,-4.29891 4.70626,-1.33521 7.64482,-1.77193 z"
         style="opacity:0.85409253;fill:#000000;fill-opacity:1;fill-rule:evenodd;stroke:#001003;stroke-width:0.30000001;stroke-linecap:round;stroke-miterlimit:4;stroke-opacity:1;stroke-dasharray:none;stroke-dashoffset:0" />
      <path
         inkscape:connector-curvature="0"
         id="path4601"
         d="m 243.91368,341.57448 c -0.53741,4.69475 4.81904,13.11251 -1.29842,14.99707 -6.67845,1.11207 -2.18832,-5.20858 -4.6898,-8.53957 -2.00737,-3.3008 -0.30723,-7.61932 3.78485,-6.4575 0.73446,0 1.46891,0 2.20337,0 z"
         style="opacity:0.85409253;fill:#000000;fill-opacity:1;fill-rule:evenodd;stroke:#001003;stroke-width:0.30000001;stroke-linecap:round;stroke-miterlimit:4;stroke-opacity:1;stroke-dasharray:none;stroke-dashoffset:0" />
      <path
         inkscape:connector-curvature="0"
         id="path4603"
         d="m 263.35937,307.83459 c 2.11944,2.54277 9.12247,8.45953 3.78401,10.19574 -4.34979,0.45949 -9.36005,-6.28865 -8.73392,-9.18694 1.64226,-0.37396 3.37153,-0.36387 4.94991,-1.0088 z"
         style="opacity:0.85409253;fill:#000000;fill-opacity:1;fill-rule:evenodd;stroke:#001003;stroke-width:0.30000001;stroke-linecap:round;stroke-miterlimit:4;stroke-opacity:1;stroke-dasharray:none;stroke-dashoffset:0" />
      <path
         inkscape:connector-curvature="0"
         id="path4605"
         d="m 152.81457,307.46039 c -6.21923,6.72951 -12.01911,14.0527 -16.40322,22.0697 -3.73893,3.31893 -10.28477,-1.74416 -4.46437,-4.56903 3.52735,-5.59083 8.32316,-10.24823 11.73921,-15.87747 2.26635,-3.22713 5.91993,-2.66095 9.12838,-1.6232 z"
         style="opacity:0.85409253;fill:#000000;fill-opacity:1;fill-rule:evenodd;stroke:#001003;stroke-width:0.30000001;stroke-linecap:round;stroke-miterlimit:4;stroke-opacity:1;stroke-dasharray:none;stroke-dashoffset:0" />
      <path
         inkscape:connector-curvature="0"
         id="path4607"
         d="m 200.52516,305.56302 c 5.39019,2.92412 9.95619,7.20282 15.78439,9.35392 3.15436,2.19279 12.14628,4.52523 10.21033,8.92011 -6.05527,3.73727 -7.51322,-4.04457 -12.71883,-5.29122 -5.54225,-2.48591 -10.2391,-6.36282 -15.8325,-8.73727 -5.37878,-3.10988 -0.591,-3.22077 2.55661,-4.24554 z"
         style="opacity:0.85409253;fill:#000000;fill-opacity:1;fill-rule:evenodd;stroke:#001003;stroke-width:0.30000001;stroke-linecap:round;stroke-miterlimit:4;stroke-opacity:1;stroke-dasharray:none;stroke-dashoffset:0" />
      <path
         inkscape:connector-curvature="0"
         id="path4609"
         d="m 174.25235,312.10649 c 5.64465,2.13531 11.55047,3.97139 16.37067,7.61526 -2.48559,5.4192 -9.21864,-0.0284 -12.77858,-1.85213 -3.07441,-2.07234 -10.64785,-2.13038 -10.76578,-6.00021 2.39343,-0.36324 4.7761,0.44964 7.17369,0.23708 z"
         style="opacity:0.85409253;fill:#000000;fill-opacity:1;fill-rule:evenodd;stroke:#001003;stroke-width:0.30000001;stroke-linecap:round;stroke-miterlimit:4;stroke-opacity:1;stroke-dasharray:none;stroke-dashoffset:0" />
    </g>
  </g>
</svg>
