<?xml version="1.0" encoding="UTF-8" standalone="no"?>
<!-- Created with Inkscape (http://www.inkscape.org/) -->

<svg
   xmlns:dc="http://purl.org/dc/elements/1.1/"
   xmlns:cc="http://creativecommons.org/ns#"
   xmlns:rdf="http://www.w3.org/1999/02/22-rdf-syntax-ns#"
   xmlns:svg="http://www.w3.org/2000/svg"
   xmlns="http://www.w3.org/2000/svg"
   xmlns:sodipodi="http://sodipodi.sourceforge.net/DTD/sodipodi-0.dtd"
   xmlns:inkscape="http://www.inkscape.org/namespaces/inkscape"
   width="32px"
   height="32px"
   id="svg5053"
   version="1.1"
   inkscape:version="0.48.2 r9819"
   sodipodi:docname="mtn6.svg">
  <defs
     id="defs5055" />
  <sodipodi:namedview
     id="base"
     pagecolor="#ffffff"
     bordercolor="#666666"
     borderopacity="1.0"
     inkscape:pageopacity="0.0"
     inkscape:pageshadow="2"
     inkscape:zoom="1.9795104"
     inkscape:cx="18.623837"
     inkscape:cy="16.229689"
     inkscape:current-layer="layer1"
     showgrid="true"
     inkscape:grid-bbox="true"
     inkscape:document-units="px"
     inkscape:window-width="470"
     inkscape:window-height="425"
     inkscape:window-x="136"
     inkscape:window-y="253"
     inkscape:window-maximized="0" />
  <metadata
     id="metadata5058">
    <rdf:RDF>
      <cc:Work
         rdf:about="">
        <dc:format>image/svg+xml</dc:format>
        <dc:type
           rdf:resource="http://purl.org/dc/dcmitype/StillImage" />
        <dc:title />
      </cc:Work>
    </rdf:RDF>
  </metadata>
  <g
     id="layer1"
     inkscape:label="Layer 1"
     inkscape:groupmode="layer">
    <g
       transform="matrix(0.22826692,0,0,0.30019601,-15.118785,-112.39027)"
       id="g4761">
      <path
         style="opacity:0.85409253;fill:#000000;fill-opacity:1;fill-rule:evenodd;stroke:#001003;stroke-width:0.30000001;stroke-linecap:round;stroke-miterlimit:4;stroke-opacity:1;stroke-dasharray:none;stroke-dashoffset:0"
         d="m 140.67315,399.91349 c -4.07283,3.94402 -9.25102,6.4701 -13.4606,10.26409 -4.51492,2.91276 -7.95496,7.32061 -12.73493,9.78672 -2.56783,1.29439 -7.45453,-0.50558 -3.29052,-2.844 4.33048,-3.25599 9.02313,-6.0254 12.96328,-9.79439 3.23407,-2.74444 6.45969,-5.50099 9.58027,-8.37473 2.36125,-0.80428 4.61477,0.80199 6.9425,0.96231 z"
         id="path4723"
         inkscape:connector-curvature="0" />
      <path
         style="opacity:0.85409253;fill:#000000;fill-opacity:1;fill-rule:evenodd;stroke:#001003;stroke-width:0.30000001;stroke-linecap:round;stroke-miterlimit:4;stroke-opacity:1;stroke-dasharray:none;stroke-dashoffset:0"
         d="m 115.40556,422.48331 c -4.11155,2.67964 -8.22571,5.36314 -12.49184,7.76514 -5.456963,3.59304 -10.609372,7.70442 -15.944529,11.40501 -2.187373,0.58255 -10.621705,-1.2513 -4.701437,-3.01639 3.983932,-1.88714 7.210188,-5.0776 11.071598,-7.23595 4.439347,-2.98171 9.115668,-5.58119 13.152288,-9.10375 2.80357,-2.38303 5.87076,-0.16694 8.91392,0.18594 z"
         id="path4725"
         inkscape:connector-curvature="0" />
      <path
         style="opacity:0.85409253;fill:#000000;fill-opacity:1;fill-rule:evenodd;stroke:#001003;stroke-width:0.30000001;stroke-linecap:round;stroke-miterlimit:4;stroke-opacity:1;stroke-dasharray:none;stroke-dashoffset:0"
         d="m 147.17141,397.82073 c 4.24825,6.3265 9.64416,11.71439 14.27112,17.73733 3.58234,4.28892 9.79901,4.85582 13.31497,9.25055 3.88183,4.25778 8.5332,7.77275 14.01748,9.68141 4.3543,2.38525 11.16224,4.35672 12.87743,8.97066 -5.05303,3.06499 -8.71787,-2.36595 -12.79,-4.33294 -4.73354,-2.53136 -9.87464,-4.30828 -14.45007,-7.08561 -4.26919,-3.60224 -7.79099,-8.23806 -13.13048,-10.39388 -5.88707,-2.31167 -8.39514,-8.45405 -12.46592,-12.80261 -2.10168,-3.22935 -8.03439,-7.74308 -7.52555,-10.3094 1.96034,-0.23851 3.92067,-0.47706 5.88102,-0.71551 z"
         id="path4727"
         inkscape:connector-curvature="0" />
      <path
         style="opacity:0.85409253;fill:#000000;fill-opacity:1;fill-rule:evenodd;stroke:#001003;stroke-width:0.30000001;stroke-linecap:round;stroke-miterlimit:4;stroke-opacity:1;stroke-dasharray:none;stroke-dashoffset:0"
         d="m 114.95557,426.0925 c -4.67046,1.45274 -8.06148,5.25429 -12.20886,7.67737 -2.26212,1.94826 -5.155278,4.2842 -7.110959,5.92948 4.0778,1.41647 -7.42337,5.50459 -6.773935,0.21733 0.656247,-5.01725 7.103583,-5.64207 9.897423,-9.19453 4.140111,-2.78969 8.238561,-8.79487 13.679081,-5.37618 0.84195,0.23894 1.68405,0.47821 2.51725,0.74653 z"
         id="path4729"
         inkscape:connector-curvature="0" />
      <path
         style="opacity:0.85409253;fill:#000000;fill-opacity:1;fill-rule:evenodd;stroke:#001003;stroke-width:0.30000001;stroke-linecap:round;stroke-miterlimit:4;stroke-opacity:1;stroke-dasharray:none;stroke-dashoffset:0"
         d="m 128.0908,417.16841 c -3.59668,3.27802 -7.15821,7.86047 -3.51351,12.42757 -0.2411,4.26989 -7.14336,8.03328 -2.58367,11.50401 -3.18156,4.31394 -11.72588,0.12597 -8.06723,-4.95233 3.11019,-2.84289 4.47498,-6.58073 2.16927,-10.27736 0.5837,-3.61921 2.56453,-9.13144 6.60987,-9.67575 1.82782,0.13368 3.54036,0.98254 5.38527,0.97386 z"
         id="path4731"
         inkscape:connector-curvature="0" />
      <path
         style="opacity:0.85409253;fill:#000000;fill-opacity:1;fill-rule:evenodd;stroke:#001003;stroke-width:0.30000001;stroke-linecap:round;stroke-miterlimit:4;stroke-opacity:1;stroke-dasharray:none;stroke-dashoffset:0"
         d="m 161.88621,420.72308 c 3.89455,1.6595 6.94743,8.85509 0.17024,7.5593 -4.61867,-0.57172 -9.32152,-1.13687 -13.58847,-3.02247 -2.04726,-0.49027 -6.38967,-1.47728 -2.20088,-2.80405 5.05796,-2.16485 9.5598,2.27613 14.58276,2.27988 2.3267,0.37722 4.7864,0.41952 0.87722,0.51965 -2.97941,3.20991 -9.00079,-5.26382 -2.60677,-3.99086 0.92071,-0.18676 1.84109,-0.37573 2.7659,-0.54145 z"
         id="path4733"
         inkscape:connector-curvature="0" />
      <path
         style="opacity:0.85409253;fill:#000000;fill-opacity:1;fill-rule:evenodd;stroke:#001003;stroke-width:0.30000001;stroke-linecap:round;stroke-miterlimit:4;stroke-opacity:1;stroke-dasharray:none;stroke-dashoffset:0"
         d="m 156.15168,419.11401 c 2.49675,3.18842 -10.67469,2.62227 -3.96839,0.95882 1.31906,-0.33518 2.65853,-0.58689 3.96839,-0.95882 z"
         id="path4735"
         inkscape:connector-curvature="0" />
      <path
         style="opacity:0.85409253;fill:#000000;fill-opacity:1;fill-rule:evenodd;stroke:#001003;stroke-width:0.30000001;stroke-linecap:round;stroke-miterlimit:4;stroke-opacity:1;stroke-dasharray:none;stroke-dashoffset:0"
         d="m 148.83141,422.33564 c 1.78155,3.14737 1.56899,6.9885 -3.03055,6.06839 -2.40261,0.45597 -4.39061,-3.90397 -3.23671,-5.354 2.01394,-0.71195 4.22015,-0.16575 6.26726,-0.71439 z"
         id="path4739"
         inkscape:connector-curvature="0" />
      <path
         style="opacity:0.85409253;fill:#000000;fill-opacity:1;fill-rule:evenodd;stroke:#001003;stroke-width:0.30000001;stroke-linecap:round;stroke-miterlimit:4;stroke-opacity:1;stroke-dasharray:none;stroke-dashoffset:0"
         d="m 143.43999,396.20679 c -0.54999,3.87858 -7.60392,1.72183 -8.25948,0.21406 2.57272,-1.70362 5.46536,-0.26646 8.25948,-0.21406 z"
         id="path4741"
         inkscape:connector-curvature="0" />
    </g>
  </g>
</svg>
