<?xml version="1.0" encoding="UTF-8" standalone="no"?>
<!-- Created with Inkscape (http://www.inkscape.org/) -->

<svg
   xmlns:dc="http://purl.org/dc/elements/1.1/"
   xmlns:cc="http://creativecommons.org/ns#"
   xmlns:rdf="http://www.w3.org/1999/02/22-rdf-syntax-ns#"
   xmlns:svg="http://www.w3.org/2000/svg"
   xmlns="http://www.w3.org/2000/svg"
   xmlns:sodipodi="http://sodipodi.sourceforge.net/DTD/sodipodi-0.dtd"
   xmlns:inkscape="http://www.inkscape.org/namespaces/inkscape"
   width="32px"
   height="32px"
   id="svg5053"
   version="1.1"
   inkscape:version="0.48.2 r9819"
   sodipodi:docname="tree3.svg">
  <defs
     id="defs5055" />
  <sodipodi:namedview
     id="base"
     pagecolor="#ffffff"
     bordercolor="#666666"
     borderopacity="1.0"
     inkscape:pageopacity="0.0"
     inkscape:pageshadow="2"
     inkscape:zoom="22.395604"
     inkscape:cx="9.4138101"
     inkscape:cy="17.906438"
     inkscape:current-layer="layer1"
     showgrid="true"
     inkscape:grid-bbox="true"
     inkscape:document-units="px"
     inkscape:window-width="1600"
     inkscape:window-height="852"
     inkscape:window-x="0"
     inkscape:window-y="0"
     inkscape:window-maximized="1" />
  <metadata
     id="metadata5058">
    <rdf:RDF>
      <cc:Work
         rdf:about="">
        <dc:format>image/svg+xml</dc:format>
        <dc:type
           rdf:resource="http://purl.org/dc/dcmitype/StillImage" />
        <dc:title></dc:title>
      </cc:Work>
    </rdf:RDF>
  </metadata>
  <g
     id="layer1"
     inkscape:label="Layer 1"
     inkscape:groupmode="layer">
    <g
       id="g7211">
      <path
         style="fill:#000000;fill-opacity:1;fill-rule:evenodd;stroke:#000000;stroke-width:0.30000001;stroke-linecap:round;stroke-miterlimit:4;stroke-opacity:1;stroke-dasharray:none;stroke-dashoffset:0"
         d="m 19.880781,23.732565 c 0.08278,-0.184868 0.21498,-0.538754 0.21897,-0.810296 0.07452,-0.346573 0.147186,-0.69578 0.181098,-1.048212 -0.0474,-0.363457 0.188005,-0.696675 0.09305,-1.056594 0.03005,-0.337595 0.166154,-0.66552 0.118848,-1.013622 0.01204,-0.400164 -0.02596,-0.800585 -0.0057,-1.200327 0.03298,-0.388182 0.03549,-0.781244 0.0163,-1.169599 -0.0192,-0.42449 -0.01523,-0.844655 -0.09521,-1.264632 0.0836,-0.277458 2.35e-4,-0.540815 -0.0414,-0.813143 0.145238,-0.0584 0.290477,-0.1168 0.435715,-0.1752 -0.04988,0.33983 2.75e-4,0.688505 -0.07632,1.028003 0.01974,0.333895 -0.02968,0.661342 -0.03219,0.943335 -0.04614,0.402151 -0.0411,0.810639 -0.06591,1.217426 -0.03482,0.37354 0.01788,0.74908 -0.06684,1.117372 -0.01004,0.415923 0.07483,0.835861 -0.03735,1.245258 0.0056,0.487715 0.05545,0.968787 -0.02817,1.454905 0.03907,0.386276 -0.03466,0.778258 -0.03787,1.159715 0.159326,0.184095 -0.06428,0.241528 -0.222242,0.276182 -0.118216,0.03648 -0.236742,0.07292 -0.35476,0.109429 z"
         id="path7167"
         inkscape:connector-curvature="0" />
      <path
         style="fill:#000000;fill-opacity:1;fill-rule:evenodd;stroke:#000000;stroke-width:0.30000001;stroke-linecap:round;stroke-miterlimit:4;stroke-opacity:1;stroke-dasharray:none;stroke-dashoffset:0"
         d="m 18.803491,21.755899 c 0.296296,-0.0994 0.517488,-0.36242 0.833547,-0.431176 0.3176,-0.134995 0.638471,-0.2679 0.931511,-0.446386 -0.03672,-0.02398 -0.589693,0.378135 -0.199773,0.101626 0.184879,-0.02479 0.369757,-0.04959 0.554636,-0.07438 -0.225592,0.247526 -0.605432,0.373774 -0.899092,0.558632 -0.403519,0.100272 -0.774852,0.31829 -1.116184,0.54919 0.117889,-0.07968 0.579793,-0.295673 0.486939,-0.317966 -0.197184,0.02016 -0.394451,0.04027 -0.591584,0.06046 z"
         id="path7169"
         inkscape:connector-curvature="0" />
      <path
         style="fill:#000000;fill-opacity:1;fill-rule:evenodd;stroke:#000000;stroke-width:0.30000001;stroke-linecap:round;stroke-miterlimit:4;stroke-opacity:1;stroke-dasharray:none;stroke-dashoffset:0"
         d="m 21.831534,22.517086 c 0.04965,-0.110005 -0.175201,-0.09385 -0.156532,-0.27551 -0.17733,-0.163014 -0.304516,-0.410567 -0.468808,-0.625949 0.0083,-0.240323 -0.55495,-0.487213 -0.2313,-0.634041 0.225029,-0.229277 0.302732,0.05935 0.438049,0.212041 0.228057,0.316369 0.485142,0.649766 0.791414,0.875243 0.304663,0.08597 -0.03238,0.192115 -0.138784,0.289174 -0.07801,0.05301 -0.156027,0.10605 -0.234039,0.159042 z"
         id="path7171"
         inkscape:connector-curvature="0" />
      <path
         style="fill:#000000;fill-opacity:1;fill-rule:evenodd;stroke:#000000;stroke-width:0.30000001;stroke-linecap:round;stroke-miterlimit:4;stroke-opacity:1;stroke-dasharray:none;stroke-dashoffset:0"
         d="m 19.401552,22.463468 c 0.26528,-0.198917 0.286194,-0.535626 0.384988,-0.795406 0.127749,-0.04519 0.255497,-0.09038 0.383246,-0.135566 -0.09062,0.248146 -0.01372,0.648689 -0.09633,0.7861 -0.223948,0.04829 -0.448044,0.09659 -0.671899,0.144872 z"
         id="path7173"
         inkscape:connector-curvature="0" />
      <path
         style="fill:#000000;fill-opacity:1;fill-rule:evenodd;stroke:#000000;stroke-width:0.30000001;stroke-linecap:round;stroke-miterlimit:4;stroke-opacity:1;stroke-dasharray:none;stroke-dashoffset:0"
         d="m 21.071457,22.658703 c -0.04709,-0.178459 -0.123445,-0.47737 -0.239374,-0.684542 -0.156122,-0.265335 -0.253468,-0.626795 -0.405084,-0.823906 0.112538,-0.03264 0.281025,-0.22889 0.354322,-0.146766 0.134396,0.328545 0.398022,0.569197 0.530496,0.898347 0.01735,0.207392 0.38537,0.46705 0.275436,0.489998 -0.171923,0.08896 -0.343919,0.177916 -0.515796,0.266869 z"
         id="path7175"
         inkscape:connector-curvature="0" />
      <path
         style="fill:#000000;fill-opacity:1;fill-rule:evenodd;stroke:#000000;stroke-width:0.30000001;stroke-linecap:round;stroke-miterlimit:4;stroke-opacity:1;stroke-dasharray:none;stroke-dashoffset:0"
         d="m 19.453359,20.52823 c 0.213648,-0.160661 0.356323,-0.495931 0.625192,-0.561425 0.105521,0.0024 0.47293,-0.15429 0.285697,0.0257 -0.135227,0.181766 -0.20493,0.417616 -0.419057,0.434334 -0.163943,0.03379 -0.327895,0.06762 -0.491832,0.101389 z"
         id="path7177"
         inkscape:connector-curvature="0" />
      <path
         style="fill:#000000;fill-opacity:1;fill-rule:evenodd;stroke:#000000;stroke-width:0.30000001;stroke-linecap:round;stroke-miterlimit:4;stroke-opacity:1;stroke-dasharray:none;stroke-dashoffset:0"
         d="m 19.778028,20.328529 c -0.02492,0.04214 0.256843,-0.138052 0.03502,0.02262 -0.131976,0.07611 -0.361096,0.183499 -0.0898,0.0719 0.200717,-0.131464 0.338207,-0.457064 0.596316,-0.501402 0.110756,-0.0025 0.489925,-0.16149 0.26943,0.02775 -0.265327,0.422967 -0.749935,0.619029 -1.146957,0.894063 -0.150969,0.07391 0.109624,-0.183414 0.148973,-0.264058 0.06234,-0.08362 0.124705,-0.167274 0.187018,-0.250866 z"
         id="path7179"
         inkscape:connector-curvature="0" />
      <path
         style="fill:#000000;fill-opacity:1;fill-rule:evenodd;stroke:#000000;stroke-width:0.30000001;stroke-linecap:round;stroke-miterlimit:4;stroke-opacity:1;stroke-dasharray:none;stroke-dashoffset:0"
         d="m 21.990273,21.218899 c 0.02012,-0.160435 -0.331655,-0.342539 -0.417009,-0.561957 -0.323844,-0.176728 -0.510214,-0.523021 -0.823655,-0.715712 -0.199601,-0.0954 0.01993,-0.164995 0.112879,-0.242384 0.141523,-0.172824 0.255447,0.116054 0.371067,0.187202 0.254474,0.213846 0.504894,0.434454 0.785875,0.613141 0.05529,0.195348 0.739554,0.277751 0.424895,0.454709 -0.151349,0.08833 -0.30271,0.176682 -0.454052,0.265001 z"
         id="path7181"
         inkscape:connector-curvature="0" />
      <path
         style="fill:#000000;fill-opacity:1;fill-rule:evenodd;stroke:#000000;stroke-width:0.30000001;stroke-linecap:round;stroke-miterlimit:4;stroke-opacity:1;stroke-dasharray:none;stroke-dashoffset:0"
         d="m 20.734856,21.019391 c 0.04983,-0.167597 -0.231571,-0.4672 -0.132007,-0.596148 0.141304,-0.07803 0.282608,-0.156059 0.423912,-0.234089 0.05326,0.204414 0.209432,0.390116 0.279627,0.541981 -0.19049,0.09609 -0.381144,0.192166 -0.571532,0.288256 z"
         id="path7183"
         inkscape:connector-curvature="0" />
      <path
         style="fill:#000000;fill-opacity:1;fill-rule:evenodd;stroke:#000000;stroke-width:0.30000001;stroke-linecap:round;stroke-miterlimit:4;stroke-opacity:1;stroke-dasharray:none;stroke-dashoffset:0"
         d="m 20.053868,20.50564 c 0.172718,-0.0935 0.271797,-0.261398 0.48519,-0.251955 0.08754,0.01079 0.422831,-0.123339 0.322024,-0.0024 -0.228978,0.166978 -0.07661,0.205019 -0.328282,0.205403 -0.159617,0.01631 -0.319455,0.03263 -0.478932,0.04893 z"
         id="path7185"
         inkscape:connector-curvature="0" />
      <path
         style="fill:#000000;fill-opacity:1;fill-rule:evenodd;stroke:#000000;stroke-width:0.30000001;stroke-linecap:round;stroke-miterlimit:4;stroke-opacity:1;stroke-dasharray:none;stroke-dashoffset:0"
         d="m 18.423809,20.234329 c 0.316105,0.0104 0.690892,-0.153717 1.014148,-0.25527 0.143482,-0.0732 0.630804,-0.280978 0.569553,-0.296826 -0.200156,0.139671 -0.460335,0.200319 -0.115711,0.109119 0.155611,-0.01617 0.311222,-0.03234 0.466833,-0.04851 -0.193039,0.162402 -0.429779,0.263215 -0.642638,0.397671 -0.268002,0.0966 -0.548467,0.18014 -0.824118,0.30024 -0.23666,0.106849 -0.727359,0.200683 -0.840126,0.257414 0.124017,-0.154613 0.248056,-0.309213 0.372059,-0.463834 z"
         id="path7187"
         inkscape:connector-curvature="0" />
      <path
         style="fill:#000000;fill-opacity:1;fill-rule:evenodd;stroke:#000000;stroke-width:0.30000001;stroke-linecap:round;stroke-miterlimit:4;stroke-opacity:1;stroke-dasharray:none;stroke-dashoffset:0"
         d="m 19.299818,20.172013 c 0.20343,-0.08448 0.338081,-0.29343 0.530196,-0.367564 0.163048,-0.02297 0.326097,-0.04594 0.489146,-0.06892 -0.08059,0.137822 -0.263357,0.267748 -0.402876,0.338825 -0.205449,0.03255 -0.411213,0.06511 -0.616466,0.09765 z"
         id="path7189"
         inkscape:connector-curvature="0" />
      <path
         style="fill:#000000;fill-opacity:1;fill-rule:evenodd;stroke:#000000;stroke-width:0.30000001;stroke-linecap:round;stroke-miterlimit:4;stroke-opacity:1;stroke-dasharray:none;stroke-dashoffset:0"
         d="m 18.603334,18.951271 c 0.0087,0.05036 0.200143,-0.154484 -0.0075,-5.44e-4 -0.1248,0.06196 -0.528487,0.322893 -0.171361,0.131851 0.373791,-0.198365 0.687766,-0.493452 0.995708,-0.776082 0.248671,-0.165721 0.421532,-0.456287 0.650833,-0.618886 0.136269,-0.0215 0.272538,-0.04301 0.408807,-0.06451 -0.188364,0.229186 -0.436881,0.394992 -0.621759,0.625013 -0.2688,0.229909 -0.514506,0.482803 -0.795789,0.701887 -0.261741,0.200766 -0.567387,0.350618 -0.843145,0.534752 0.128066,-0.177823 0.25617,-0.355675 0.384211,-0.533481 z"
         id="path7191"
         inkscape:connector-curvature="0" />
      <path
         style="fill:#000000;fill-opacity:1;fill-rule:evenodd;stroke:#000000;stroke-width:0.30000001;stroke-linecap:round;stroke-miterlimit:4;stroke-opacity:1;stroke-dasharray:none;stroke-dashoffset:0"
         d="m 19.385155,18.870672 c 0.186731,-0.103963 0.325926,-0.383253 0.517786,-0.544862 0.156736,-0.03463 0.313471,-0.06927 0.470207,-0.103902 -0.148658,0.248907 -0.269915,0.352803 -0.345658,0.546822 -0.214045,0.03439 -0.428235,0.06789 -0.642335,0.101942 z"
         id="path7193"
         inkscape:connector-curvature="0" />
      <path
         style="fill:#000000;fill-opacity:1;fill-rule:evenodd;stroke:#000000;stroke-width:0.30000001;stroke-linecap:round;stroke-miterlimit:4;stroke-opacity:1;stroke-dasharray:none;stroke-dashoffset:0"
         d="m 22.618159,19.1885 c -0.295472,-0.216673 -0.480561,-0.29649 -0.832101,-0.388183 -0.344706,-0.160424 -0.681683,-0.351415 -1.028755,-0.500086 -0.09536,-0.199019 -0.658384,-0.28655 -0.298793,-0.484473 0.223502,-0.284211 0.36356,0.05639 0.595918,0.172928 0.343294,0.312074 0.818735,0.43163 1.245653,0.598542 0.206805,0.103334 0.736456,0.177597 0.750587,0.165771 -0.144154,0.145133 -0.288434,0.290539 -0.432509,0.435501 z"
         id="path7195"
         inkscape:connector-curvature="0" />
      <path
         style="fill:#000000;fill-opacity:1;fill-rule:evenodd;stroke:#000000;stroke-width:0.30000001;stroke-linecap:round;stroke-miterlimit:4;stroke-opacity:1;stroke-dasharray:none;stroke-dashoffset:0"
         d="m 21.059374,19.528789 c -0.02573,-0.260457 -0.295238,-0.432023 -0.472632,-0.620286 -0.191394,-0.170852 0.104491,-0.228153 0.212918,-0.328423 0.15134,-0.110505 0.253953,0.220493 0.417442,0.277291 0.117537,0.208778 0.522011,0.235563 0.164395,0.41547 -0.107376,0.08531 -0.214739,0.170661 -0.322123,0.255948 z"
         id="path7197"
         inkscape:connector-curvature="0" />
      <path
         style="fill:#000000;fill-opacity:1;fill-rule:evenodd;stroke:#000000;stroke-width:0.30000001;stroke-linecap:round;stroke-miterlimit:4;stroke-opacity:1;stroke-dasharray:none;stroke-dashoffset:0"
         d="m 20.837672,18.085334 c -0.101585,0.202232 -0.252242,0.545436 -0.441074,0.778167 -0.02545,0.235636 -0.21702,0.248733 -0.408457,0.28366 -0.38817,0.179312 0.139854,-0.32968 -0.01155,-0.289847 0.288155,-0.148539 0.103446,-0.614438 0.406042,-0.642817 0.151644,-0.04305 0.303567,-0.08613 0.455037,-0.129163 z"
         id="path7199"
         inkscape:connector-curvature="0" />
      <path
         style="fill:#000000;fill-opacity:1;fill-rule:evenodd;stroke:#000000;stroke-width:0.30000001;stroke-linecap:round;stroke-miterlimit:4;stroke-opacity:1;stroke-dasharray:none;stroke-dashoffset:0"
         d="m 19.202404,17.090528 c 0.22018,-0.176128 0.368565,-0.48325 0.586367,-0.663035 0.132554,-0.0298 0.265107,-0.0596 0.39766,-0.08939 -0.08024,0.25382 -0.289488,0.482713 -0.353372,0.604242 0.105649,0.0497 -0.18486,0.04824 -0.27078,0.08178 -0.119959,0.02213 -0.239917,0.04427 -0.359875,0.0664 z"
         id="path7201"
         inkscape:connector-curvature="0" />
      <path
         style="fill:#000000;fill-opacity:1;fill-rule:evenodd;stroke:#000000;stroke-width:0.30000001;stroke-linecap:round;stroke-miterlimit:4;stroke-opacity:1;stroke-dasharray:none;stroke-dashoffset:0"
         d="m 21.925495,17.453211 c -0.174384,-0.165803 -0.365402,-0.451318 -0.586851,-0.61987 -0.195537,-0.245177 -0.426345,-0.47004 -0.608121,-0.732266 -0.129014,-0.121748 -0.111999,-0.210992 0.05804,-0.266175 0.142661,-0.153088 0.217455,-0.04105 0.285978,0.108732 0.186283,0.286184 0.44839,0.499065 0.709743,0.706758 0.148449,0.175463 0.520267,0.359059 0.608548,0.439817 -0.155778,0.120999 -0.311569,0.242019 -0.467338,0.363004 z"
         id="path7203"
         inkscape:connector-curvature="0" />
      <path
         style="fill:#000000;fill-opacity:1;fill-rule:evenodd;stroke:#000000;stroke-width:0.30000001;stroke-linecap:round;stroke-miterlimit:4;stroke-opacity:1;stroke-dasharray:none;stroke-dashoffset:0"
         d="m 19.70027,17.335228 c 0.07515,-0.271713 0.244802,-0.682308 0.272648,-1.030947 -0.03124,-0.234566 0.214694,-0.224311 0.369151,-0.294817 0.243965,0.01304 -0.137491,0.573967 -0.01795,0.799896 -0.113939,0.166958 0.06373,0.354211 -0.18196,0.385096 -0.147296,0.04693 -0.294598,0.09384 -0.44189,0.140772 z"
         id="path7205"
         inkscape:connector-curvature="0" />
      <path
         style="fill:#000000;fill-opacity:1;fill-rule:evenodd;stroke:#000000;stroke-width:0.30000001;stroke-linecap:round;stroke-miterlimit:4;stroke-opacity:1;stroke-dasharray:none;stroke-dashoffset:0"
         d="m 19.357853,16.083604 c 0.354523,-0.148627 0.408663,-0.291457 0.746006,-0.535818 0.214314,-0.237974 0.422957,-0.538857 0.567061,-0.791416 0.130085,-0.03304 0.260171,-0.06608 0.390256,-0.09912 -0.127209,0.318688 -0.364151,0.622009 -0.585386,0.891508 -0.218052,0.162455 -0.330025,0.4872 -0.571096,0.483522 -0.182279,0.01711 -0.364567,0.0342 -0.546841,0.05132 z"
         id="path7207"
         inkscape:connector-curvature="0" />
      <path
         style="fill:#000000;fill-opacity:1;fill-rule:evenodd;stroke:#000000;stroke-width:0.30000001;stroke-linecap:round;stroke-miterlimit:4;stroke-opacity:1;stroke-dasharray:none;stroke-dashoffset:0"
         d="m 21.091029,15.679115 c 0.0015,-0.169478 -0.257057,-0.526167 -0.261964,-0.522859 0.193489,-0.06145 -0.391778,-0.445304 -0.02549,-0.502356 0.183488,-0.135272 0.336959,-0.195804 0.403552,0.09543 0.125396,0.210932 0.297737,0.519229 0.441938,0.608541 -0.186013,0.107079 -0.372016,0.214178 -0.558035,0.321244 z"
         id="path7209"
         inkscape:connector-curvature="0" />
    </g>
  </g>
</svg>
