<?xml version="1.0" encoding="UTF-8" standalone="no"?>
<!-- Created with Inkscape (http://www.inkscape.org/) -->

<svg
   xmlns:dc="http://purl.org/dc/elements/1.1/"
   xmlns:cc="http://creativecommons.org/ns#"
   xmlns:rdf="http://www.w3.org/1999/02/22-rdf-syntax-ns#"
   xmlns:svg="http://www.w3.org/2000/svg"
   xmlns="http://www.w3.org/2000/svg"
   xmlns:sodipodi="http://sodipodi.sourceforge.net/DTD/sodipodi-0.dtd"
   xmlns:inkscape="http://www.inkscape.org/namespaces/inkscape"
   width="32px"
   height="32px"
   id="svg5053"
   version="1.1"
   inkscape:version="0.48.2 r9819"
   sodipodi:docname="tropical_tree1.svg">
  <defs
     id="defs5055" />
  <sodipodi:namedview
     id="base"
     pagecolor="#ffffff"
     bordercolor="#666666"
     borderopacity="1.0"
     inkscape:pageopacity="0.0"
     inkscape:pageshadow="2"
     inkscape:zoom="44.791207"
     inkscape:cx="19.836906"
     inkscape:cy="14.732472"
     inkscape:current-layer="layer1"
     showgrid="true"
     inkscape:grid-bbox="true"
     inkscape:document-units="px"
     inkscape:window-width="1600"
     inkscape:window-height="852"
     inkscape:window-x="0"
     inkscape:window-y="0"
     inkscape:window-maximized="1" />
  <metadata
     id="metadata5058">
    <rdf:RDF>
      <cc:Work
         rdf:about="">
        <dc:format>image/svg+xml</dc:format>
        <dc:type
           rdf:resource="http://purl.org/dc/dcmitype/StillImage" />
        <dc:title />
      </cc:Work>
    </rdf:RDF>
  </metadata>
  <g
     id="layer1"
     inkscape:label="Layer 1"
     inkscape:groupmode="layer">
    <g
       id="g3707">
      <path
         style="opacity:0.85409253;fill:#000000;fill-opacity:1;fill-rule:evenodd;stroke:#001003;stroke-width:0.30000001;stroke-linecap:round;stroke-miterlimit:4;stroke-opacity:1;stroke-dasharray:none;stroke-dashoffset:0"
         d="m 14.729715,21.49085 c 0.371896,-1.375858 0.03383,-2.887096 -0.727397,-4.069716 -0.269638,-0.47582 -0.926509,-0.693467 -1.170463,-1.092181 0.246087,-0.561251 0.926313,0.04526 1.205622,0.315576 0.598474,0.533682 0.814624,1.326605 1.037879,2.06452 0.215344,0.658297 0.349157,1.340597 0.444875,2.024717 0.08576,0.492539 -0.405798,0.606999 -0.75284,0.740928 l -0.02656,0.01138 -0.01112,0.0048 0,4e-6 z"
         id="path3500"
         inkscape:connector-curvature="0" />
      <path
         style="opacity:0.85409253;fill:#000000;fill-opacity:1;fill-rule:evenodd;stroke:#001003;stroke-width:0.30000001;stroke-linecap:round;stroke-miterlimit:4;stroke-opacity:1;stroke-dasharray:none;stroke-dashoffset:0"
         d="m 15.123604,21.583886 c 0.164686,-1.024805 0.08162,-2.07608 0.311354,-3.092714 0.09688,-0.820495 0.345943,-1.611288 0.601366,-2.391799 0.354145,-0.891914 1.090666,-1.572958 1.929053,-2.008709 0.267165,-0.292098 0.894574,-0.170196 0.414821,0.211854 -0.390482,0.265648 -0.929008,0.272185 -1.227494,0.6829 -0.853388,0.988219 -1.20001,2.301454 -1.385051,3.567391 -0.07799,0.706307 -0.140839,1.437891 0.08175,2.125725 0.195473,0.599478 -0.276942,0.7609 -0.725798,0.905352 z"
         id="path3502"
         inkscape:connector-curvature="0" />
      <path
         style="opacity:0.85409253;fill:#000000;fill-opacity:1;fill-rule:evenodd;stroke:#001003;stroke-width:0.30000001;stroke-linecap:round;stroke-miterlimit:4;stroke-opacity:1;stroke-dasharray:none;stroke-dashoffset:0"
         d="m 14.756356,19.470263 c 0.33327,-1.087187 0.283878,-2.268386 -0.103095,-3.334526 -0.608217,-1.883465 -2.094454,-3.353288 -3.737947,-4.38079 -0.329117,-0.02809 -0.612886,-0.700735 -0.100551,-0.514808 0.538621,0.29029 0.935607,0.779496 1.441528,1.121213 1.314868,1.094263 2.402542,2.504559 2.973987,4.125544 0.211203,0.780344 0.239361,1.597346 0.34013,2.393843 -0.06249,0.386314 -0.524473,0.446768 -0.814052,0.589524 z"
         id="path3504"
         inkscape:connector-curvature="0" />
      <path
         style="opacity:0.85409253;fill:#000000;fill-opacity:1;fill-rule:evenodd;stroke:#001003;stroke-width:0.30000001;stroke-linecap:round;stroke-miterlimit:4;stroke-opacity:1;stroke-dasharray:none;stroke-dashoffset:0"
         d="m 15.177062,17.46272 c 0.245211,-1.29481 0.05565,-2.64405 0.442496,-3.917176 0.166513,-0.767364 0.427559,-1.523781 0.816659,-2.205483 0.185853,-0.285601 0.593868,-0.155077 0.254144,0.14398 -0.357739,0.54509 -0.560429,1.180826 -0.739331,1.804187 -0.302826,1.172791 -0.330869,2.426706 -0.0082,3.598545 -0.06957,0.370808 -0.516431,0.38244 -0.765767,0.575947 z"
         id="path3506"
         inkscape:connector-curvature="0" />
      <path
         style="opacity:0.85409253;fill:#000000;fill-opacity:1;fill-rule:evenodd;stroke:#001003;stroke-width:0.30000001;stroke-linecap:round;stroke-miterlimit:4;stroke-opacity:1;stroke-dasharray:none;stroke-dashoffset:0"
         d="m 14.964488,18.047836 c 0.31124,-1.631755 0.174184,-3.301439 -0.01876,-4.93782 -0.09486,-0.949374 -0.217986,-1.896337 -0.276044,-2.84906 0.20064,1.888686 0.312857,3.79136 0.641892,5.663365 0.117497,0.540727 0.263128,1.075422 0.438408,1.600303 -0.03097,0.408356 -0.543935,0.323833 -0.7855,0.523212 z"
         id="path3510"
         inkscape:connector-curvature="0" />
      <path
         style="opacity:0.85409253;fill:#000000;fill-opacity:1;fill-rule:evenodd;stroke:#001003;stroke-width:0.30000001;stroke-linecap:round;stroke-miterlimit:4;stroke-opacity:1;stroke-dasharray:none;stroke-dashoffset:0"
         d="m 14.744006,18.001897 c 0.108551,-1.249009 -0.702396,-2.304225 -1.342129,-3.296125 -0.5693,-0.843713 -1.325808,-1.528362 -2.034137,-2.249794 -0.269488,-0.286303 -0.638181,-0.437664 -0.963237,-0.634626 -0.3473,-0.372549 0.226558,-0.626132 0.426644,-0.220638 0.765537,0.830753 1.655612,1.536984 2.381799,2.406392 0.467213,0.51373 0.885939,1.065308 1.277674,1.636626 0.151105,0.08653 0.414879,0.619093 0.608652,0.918917 0.140095,0.358898 0.547006,0.824439 0.285749,1.188958 -0.191093,0.138821 -0.456764,0.09805 -0.641015,0.25029 z"
         id="path3514"
         inkscape:connector-curvature="0" />
      <path
         style="opacity:0.85409253;fill:#000000;fill-opacity:1;fill-rule:evenodd;stroke:#001003;stroke-width:0.30000001;stroke-linecap:round;stroke-miterlimit:4;stroke-opacity:1;stroke-dasharray:none;stroke-dashoffset:0"
         d="m 14.609158,17.810695 c 0.523808,-0.537592 0.537866,-1.336424 0.826525,-1.993292 0.426858,-1.562887 0.766317,-3.15749 1.384157,-4.660701 0.421014,0.140752 -0.244074,0.708244 -0.209622,1.043246 -0.493593,1.432804 -0.806114,2.924842 -1.004035,4.424792 0.104507,0.571043 -0.15884,1.194814 -0.815867,1.126524 -0.06218,0.01349 -0.12361,0.03195 -0.181158,0.05943 z"
         id="path3518"
         inkscape:connector-curvature="0" />
      <path
         style="opacity:0.85409253;fill:#000000;fill-opacity:1;fill-rule:evenodd;stroke:#001003;stroke-width:0.30000001;stroke-linecap:round;stroke-miterlimit:4;stroke-opacity:1;stroke-dasharray:none;stroke-dashoffset:0"
         d="m 14.545757,18.96312 c -0.09209,-0.969415 -0.804195,-1.71465 -1.444296,-2.38277 -0.24788,-0.167366 -1.114293,-0.791549 -0.388666,-0.81063 0.634608,0.13155 0.908763,0.809245 1.394163,1.171358 0.4431,0.415711 0.83773,0.88462 1.160063,1.40011 -0.01924,0.38148 -0.481999,0.424455 -0.721264,0.621932 z"
         id="path3520"
         inkscape:connector-curvature="0" />
    </g>
  </g>
</svg>
