<?xml version="1.0" encoding="UTF-8" standalone="no"?>
<!-- Created with Inkscape (http://www.inkscape.org/) -->

<svg
   xmlns:dc="http://purl.org/dc/elements/1.1/"
   xmlns:cc="http://creativecommons.org/ns#"
   xmlns:rdf="http://www.w3.org/1999/02/22-rdf-syntax-ns#"
   xmlns:svg="http://www.w3.org/2000/svg"
   xmlns="http://www.w3.org/2000/svg"
   xmlns:sodipodi="http://sodipodi.sourceforge.net/DTD/sodipodi-0.dtd"
   xmlns:inkscape="http://www.inkscape.org/namespaces/inkscape"
   width="32px"
   height="32px"
   id="svg5053"
   version="1.1"
   inkscape:version="0.48.2 r9819"
   sodipodi:docname="tropical_tree2.svg">
  <defs
     id="defs5055" />
  <sodipodi:namedview
     id="base"
     pagecolor="#ffffff"
     bordercolor="#666666"
     borderopacity="1.0"
     inkscape:pageopacity="0.0"
     inkscape:pageshadow="2"
     inkscape:zoom="11.197802"
     inkscape:cx="24.724949"
     inkscape:cy="27.576724"
     inkscape:current-layer="layer1"
     showgrid="true"
     inkscape:grid-bbox="true"
     inkscape:document-units="px"
     inkscape:window-width="794"
     inkscape:window-height="801"
     inkscape:window-x="800"
     inkscape:window-y="0"
     inkscape:window-maximized="0" />
  <metadata
     id="metadata5058">
    <rdf:RDF>
      <cc:Work
         rdf:about="">
        <dc:format>image/svg+xml</dc:format>
        <dc:type
           rdf:resource="http://purl.org/dc/dcmitype/StillImage" />
        <dc:title />
      </cc:Work>
    </rdf:RDF>
  </metadata>
  <g
     id="layer1"
     inkscape:label="Layer 1"
     inkscape:groupmode="layer">
    <g
       id="g3088">
      <path
         style="opacity:0.85409253;fill:#000000;fill-opacity:1;fill-rule:evenodd;stroke:#001003;stroke-width:0.30000001;stroke-linecap:round;stroke-miterlimit:4;stroke-opacity:1;stroke-dasharray:none;stroke-dashoffset:0"
         d="m 12.234203,12.651609 c -0.210084,0.932075 1.08928,1.19863 1.255239,1.942015 -0.740254,0.492785 -1.442798,-0.534488 -1.860445,-1.069813 -0.31294,-0.463429 0.177418,-0.835345 0.605206,-0.872202 z"
         id="path3440"
         inkscape:connector-curvature="0" />
      <path
         style="opacity:0.85409253;fill:#000000;fill-opacity:1;fill-rule:evenodd;stroke:#001003;stroke-width:0.30000001;stroke-linecap:round;stroke-miterlimit:4;stroke-opacity:1;stroke-dasharray:none;stroke-dashoffset:0"
         d="m 15.612361,12.773944 c -0.327812,0.800816 -0.742363,1.681311 -1.537426,2.10654 -0.966429,0.183596 0.493715,-0.470382 0.411321,-0.994922 0.184982,-0.519294 0.498138,-1.09435 1.126105,-1.111618 z"
         id="path3442"
         inkscape:connector-curvature="0" />
      <path
         style="opacity:0.85409253;fill:#000000;fill-opacity:1;fill-rule:evenodd;stroke:#001003;stroke-width:0.30000001;stroke-linecap:round;stroke-miterlimit:4;stroke-opacity:1;stroke-dasharray:none;stroke-dashoffset:0"
         d="m 18.299686,14.030227 c -0.756602,1.090046 -1.951253,1.891871 -3.258396,2.139401 1.01455,-0.529379 1.989249,-1.165327 2.805856,-1.963231 0.150847,-0.05872 0.301696,-0.117448 0.45254,-0.17617 z"
         id="path3444"
         inkscape:connector-curvature="0" />
      <path
         style="opacity:0.85409253;fill:#000000;fill-opacity:1;fill-rule:evenodd;stroke:#001003;stroke-width:0.30000001;stroke-linecap:round;stroke-miterlimit:4;stroke-opacity:1;stroke-dasharray:none;stroke-dashoffset:0"
         d="m 10.095836,13.221951 c 0.754223,0.978849 2.14133,1.197025 3.28274,0.905681 0.498567,0.765617 -1.338115,0.843701 -1.847073,0.612254 -0.668891,-0.247131 -1.7839475,-0.315354 -1.9506343,-1.115165 0.097933,-0.207622 0.3205367,-0.308579 0.5149673,-0.40277 z"
         id="path3446"
         inkscape:connector-curvature="0" />
      <path
         style="opacity:0.85409253;fill:#000000;fill-opacity:1;fill-rule:evenodd;stroke:#001003;stroke-width:0.30000001;stroke-linecap:round;stroke-miterlimit:4;stroke-opacity:1;stroke-dasharray:none;stroke-dashoffset:0"
         d="m 13.962222,14.534398 c 0.04576,0.562344 1.377682,1.855064 0.07633,1.689093 -0.402642,-0.560785 -1.404116,-1.456709 -0.07633,-1.689093 z"
         id="path3448"
         inkscape:connector-curvature="0" />
      <path
         style="opacity:0.85409253;fill:#000000;fill-opacity:1;fill-rule:evenodd;stroke:#001003;stroke-width:0.30000001;stroke-linecap:round;stroke-miterlimit:4;stroke-opacity:1;stroke-dasharray:none;stroke-dashoffset:0"
         d="m 14.079712,14.714037 c 0.221871,1.219973 0.72207,2.572217 0.128631,3.759238 -0.655984,1.055263 -0.507418,-0.531246 -0.42827,-1.055368 0.05496,-0.650997 0.102652,-1.419304 -0.373261,-1.932756 -0.221487,-0.426266 0.47704,-0.535223 0.6729,-0.771114 z"
         id="path3450"
         inkscape:connector-curvature="0" />
      <path
         style="opacity:0.85409253;fill:#000000;fill-opacity:1;fill-rule:evenodd;stroke:#001003;stroke-width:0.30000001;stroke-linecap:round;stroke-miterlimit:4;stroke-opacity:1;stroke-dasharray:none;stroke-dashoffset:0"
         d="m 14.757125,16.080938 c -0.537624,1.610224 -0.677806,3.311603 -0.937511,4.979572 0.583887,0.561844 -0.998489,2.183354 -0.768262,0.9311 0.376852,-1.812334 0.700763,-3.643339 0.877005,-5.488427 0.206215,-0.254523 0.557207,-0.27403 0.828768,-0.422245 z"
         id="path3452"
         inkscape:connector-curvature="0" />
      <path
         style="opacity:0.85409253;fill:#000000;fill-opacity:1;fill-rule:evenodd;stroke:#001003;stroke-width:0.30000001;stroke-linecap:round;stroke-miterlimit:4;stroke-opacity:1;stroke-dasharray:none;stroke-dashoffset:0"
         d="m 15.196142,16.664203 c 0.0062,1.818132 -0.436634,3.70541 0.210905,5.46601 0.914901,0.918209 -1.092285,1.130205 -0.813993,0.0035 -0.208535,-1.139174 0.101088,-2.28807 0.0213,-3.432647 0.202184,-0.712929 -0.62658,-1.879458 0.581792,-2.036908 z"
         id="path3454"
         inkscape:connector-curvature="0" />
      <path
         style="opacity:0.85409253;fill:#000000;fill-opacity:1;fill-rule:evenodd;stroke:#001003;stroke-width:0.30000001;stroke-linecap:round;stroke-miterlimit:4;stroke-opacity:1;stroke-dasharray:none;stroke-dashoffset:0"
         d="M 7.7421253,7.8036048 C 7.4786869,7.6590129 6.5622021,8.0743129 7.2325466,7.6827289 6.9451211,7.9982094 6.6222014,9.6039703 6.272757,8.5277696 6.2098698,7.6500278 7.3980833,7.1140199 8.144576,7.1710078 8.2534122,7.4250759 7.8773993,7.6416077 7.7421253,7.8036048 z"
         id="path3458"
         inkscape:connector-curvature="0" />
      <path
         style="opacity:0.85409253;fill:#000000;fill-opacity:1;fill-rule:evenodd;stroke:#001003;stroke-width:0.30000001;stroke-linecap:round;stroke-miterlimit:4;stroke-opacity:1;stroke-dasharray:none;stroke-dashoffset:0"
         d="M 6.7458971,10.439353 C 5.8042769,10.761448 7.4169953,12.565841 6.1953222,12.293287 5.7354489,11.574367 5.402241,10.268562 6.7458971,10.439353 z"
         id="path3460"
         inkscape:connector-curvature="0" />
      <path
         style="opacity:0.85409253;fill:#000000;fill-opacity:1;fill-rule:evenodd;stroke:#001003;stroke-width:0.30000001;stroke-linecap:round;stroke-miterlimit:4;stroke-opacity:1;stroke-dasharray:none;stroke-dashoffset:0"
         d="m 7.9555387,12.576167 c 0.5436462,0.838049 1.8030761,0.251153 2.4150583,0.909828 -0.9449138,0.124208 -2.3565388,0.09858 -2.9806976,-0.402701 0.1570139,-0.202931 0.4061868,-0.306523 0.5656393,-0.507127 z"
         id="path3462"
         inkscape:connector-curvature="0" />
      <path
         style="opacity:0.85409253;fill:#000000;fill-opacity:1;fill-rule:evenodd;stroke:#001003;stroke-width:0.30000001;stroke-linecap:round;stroke-miterlimit:4;stroke-opacity:1;stroke-dasharray:none;stroke-dashoffset:0"
         d="m 17.318906,12.57943 c 0.08431,0.919073 1.819886,1.097517 1.725679,1.706834 -0.816484,0.137011 -1.677858,-0.338607 -2.149677,-0.990817 -0.278696,-0.41671 0.18333,-0.513185 0.423998,-0.716017 z"
         id="path3464"
         inkscape:connector-curvature="0" />
      <path
         style="opacity:0.85409253;fill:#000000;fill-opacity:1;fill-rule:evenodd;stroke:#001003;stroke-width:0.30000001;stroke-linecap:round;stroke-miterlimit:4;stroke-opacity:1;stroke-dasharray:none;stroke-dashoffset:0"
         d="m 13.56432,11.500625 c 0.544618,0.850796 2.141168,0.418758 2.577476,0.899245 -0.921074,0.595614 -2.186251,0.271432 -3.021248,-0.333973 -0.379569,-0.135513 0.40408,-0.40142 0.443772,-0.565272 z"
         id="path3466"
         inkscape:connector-curvature="0" />
      <path
         style="opacity:0.85409253;fill:#000000;fill-opacity:1;fill-rule:evenodd;stroke:#001003;stroke-width:0.30000001;stroke-linecap:round;stroke-miterlimit:4;stroke-opacity:1;stroke-dasharray:none;stroke-dashoffset:0"
         d="M 10.23733,6.1904058 C 11.219341,5.4785393 12.676961,5.2054545 13.759928,5.843506 13.991041,6.3758083 12.607175,6.1829944 12.169633,6.0643434 11.701206,5.8615292 10.696935,6.158155 10.684844,6.3555451 11.731819,5.8840939 10.5625,6.1198114 10.23733,6.1904058 z"
         id="path3468"
         inkscape:connector-curvature="0" />
      <path
         style="opacity:0.85409253;fill:#000000;fill-opacity:1;fill-rule:evenodd;stroke:#001003;stroke-width:0.30000001;stroke-linecap:round;stroke-miterlimit:4;stroke-opacity:1;stroke-dasharray:none;stroke-dashoffset:0"
         d="m 14.043881,5.7885952 c 1.501671,-0.3875 3.236337,-0.3355122 4.522275,0.6215664 C 18.32958,7.5191468 17.165645,5.942862 16.482752,6.0530801 15.551578,5.7654335 14.617114,6.2305879 13.691986,6.3546818 13.824789,6.1759351 13.928253,5.9782734 14.043881,5.7885952 z"
         id="path3470"
         inkscape:connector-curvature="0" />
      <path
         style="opacity:0.85409253;fill:#000000;fill-opacity:1;fill-rule:evenodd;stroke:#001003;stroke-width:0.30000001;stroke-linecap:round;stroke-miterlimit:4;stroke-opacity:1;stroke-dasharray:none;stroke-dashoffset:0"
         d="M 12.807516,6.7838453 C 12.472535,6.7992779 11.374182,7.538202 11.445805,7.0593716 11.852547,6.7029547 12.854278,6.0073907 13.204107,6.2657087 13.102254,6.4595253 12.950142,6.6201218 12.807516,6.7838453 z"
         id="path3472"
         inkscape:connector-curvature="0" />
      <path
         style="opacity:0.85409253;fill:#000000;fill-opacity:1;fill-rule:evenodd;stroke:#001003;stroke-width:0.30000001;stroke-linecap:round;stroke-miterlimit:4;stroke-opacity:1;stroke-dasharray:none;stroke-dashoffset:0"
         d="M 20.118663,6.0535261 C 20.990716,6.375839 21.942955,6.861692 22.356508,7.7397378 22.550143,8.4329289 21.875056,8.8477782 21.699867,7.9913032 21.224678,7.3128779 20.517598,6.6544305 19.634823,6.6740527 19.785696,6.4590819 19.969002,6.2694131 20.118663,6.0535261 z"
         id="path3474"
         inkscape:connector-curvature="0" />
      <path
         style="opacity:0.85409253;fill:#000000;fill-opacity:1;fill-rule:evenodd;stroke:#001003;stroke-width:0.30000001;stroke-linecap:round;stroke-miterlimit:4;stroke-opacity:1;stroke-dasharray:none;stroke-dashoffset:0"
         d="m 23.336342,9.4642809 c 0.175783,1.1069741 0.344045,2.4911991 -0.550645,3.3427391 -0.363291,0.299649 -1.063708,0.494446 -0.386323,-0.03812 0.679701,-0.786255 0.55952,-1.900235 0.228572,-2.745225 0.137835,-0.2839037 0.453749,-0.4065205 0.708396,-0.5593951 z"
         id="path3476"
         inkscape:connector-curvature="0" />
      <path
         style="opacity:0.85409253;fill:#000000;fill-opacity:1;fill-rule:evenodd;stroke:#001003;stroke-width:0.30000001;stroke-linecap:round;stroke-miterlimit:4;stroke-opacity:1;stroke-dasharray:none;stroke-dashoffset:0"
         d="M 21.689331,8.9484838 C 22.770455,8.7109366 23.160197,10.61411 21.912268,9.8415713 21.265635,9.6478956 20.9747,9.4143142 21.689331,8.9484838 z"
         id="path3478"
         inkscape:connector-curvature="0" />
      <path
         style="opacity:0.85409253;fill:#000000;fill-opacity:1;fill-rule:evenodd;stroke:#001003;stroke-width:0.30000001;stroke-linecap:round;stroke-miterlimit:4;stroke-opacity:1;stroke-dasharray:none;stroke-dashoffset:0"
         d="m 19.248998,12.083454 c -0.466727,0.441855 -1.38983,1.736127 -1.767465,1.297177 0.506609,-0.524405 0.914391,-1.34974 1.767465,-1.297177 z"
         id="path3480"
         inkscape:connector-curvature="0" />
      <path
         style="opacity:0.85409253;fill:#000000;fill-opacity:1;fill-rule:evenodd;stroke:#001003;stroke-width:0.30000001;stroke-linecap:round;stroke-miterlimit:4;stroke-opacity:1;stroke-dasharray:none;stroke-dashoffset:0"
         d="m 21.151101,12.122394 c -0.393998,0.715557 -0.552993,1.946571 -1.544694,2.025969 0.659095,-0.578453 0.457902,-1.91873 1.544694,-2.025969 z"
         id="path3486"
         inkscape:connector-curvature="0" />
      <path
         style="opacity:0.85409253;fill:#000000;fill-opacity:1;fill-rule:evenodd;stroke:#001003;stroke-width:0.30000001;stroke-linecap:round;stroke-miterlimit:4;stroke-opacity:1;stroke-dasharray:none;stroke-dashoffset:0"
         d="m 22.402741,12.045154 c -0.236539,0.468378 -0.772778,1.913288 -1.244442,1.251161 0.182477,-0.598263 0.473041,-1.335666 1.244442,-1.251161 z"
         id="path3488"
         inkscape:connector-curvature="0" />
      <path
         style="opacity:0.85409253;fill:#000000;fill-opacity:1;fill-rule:evenodd;stroke:#001003;stroke-width:0.30000001;stroke-linecap:round;stroke-miterlimit:4;stroke-opacity:1;stroke-dasharray:none;stroke-dashoffset:0"
         d="M 8.2307567,10.801871 C 7.175739,11.2102 8.5530054,12.849517 7.4272239,13.050507 6.8436213,12.293512 7.0079541,10.708981 8.2307567,10.801871 z"
         id="path3490"
         inkscape:connector-curvature="0" />
      <path
         style="opacity:0.85409253;fill:#000000;fill-opacity:1;fill-rule:evenodd;stroke:#001003;stroke-width:0.30000001;stroke-linecap:round;stroke-miterlimit:4;stroke-opacity:1;stroke-dasharray:none;stroke-dashoffset:0"
         d="m 9.504336,11.612936 c 0.086666,0.551223 -0.6381295,2.01372 -0.9262506,0.821913 -0.1085041,-0.569641 0.5511573,-0.657651 0.9262506,-0.821913 z"
         id="path3492"
         inkscape:connector-curvature="0" />
      <path
         style="opacity:0.85409253;fill:#000000;fill-opacity:1;fill-rule:evenodd;stroke:#001003;stroke-width:0.30000001;stroke-linecap:round;stroke-miterlimit:4;stroke-opacity:1;stroke-dasharray:none;stroke-dashoffset:0"
         d="m 13.498438,12.008682 c -0.293188,-0.741843 1.449794,-1.323955 0.799395,-0.362079 -0.165419,0.280336 -0.526832,0.251285 -0.799395,0.362079 z"
         id="path3494"
         inkscape:connector-curvature="0" />
      <path
         style="opacity:0.85409253;fill:#000000;fill-opacity:1;fill-rule:evenodd;stroke:#001003;stroke-width:0.30000001;stroke-linecap:round;stroke-miterlimit:4;stroke-opacity:1;stroke-dasharray:none;stroke-dashoffset:0"
         d="m 14.689916,12.132656 c -0.0652,-0.601406 1.404647,-0.539631 0.46705,-0.172973 -0.157136,0.05362 -0.311162,0.115905 -0.46705,0.172973 z"
         id="path3496"
         inkscape:connector-curvature="0" />
      <path
         style="opacity:0.85409253;fill:#000000;fill-opacity:1;fill-rule:evenodd;stroke:#001003;stroke-width:0.30000001;stroke-linecap:round;stroke-miterlimit:4;stroke-opacity:1;stroke-dasharray:none;stroke-dashoffset:0"
         d="M 11.639528,6.6676626 C 10.979264,6.6568257 10.781044,6.6578861 11.109619,6.5972302 9.9019318,6.5002467 8.399605,7.1755862 8.2615734,8.5108136 7.5930971,8.9794744 8.2664718,7.5941841 8.5374807,7.3826773 9.3242008,6.7787813 10.352204,6.4727803 11.351472,6.3429982 10.418289,6.241303 11.600391,6.5909398 11.639528,6.6676626 z"
         id="path3008"
         inkscape:connector-curvature="0" />
      <path
         style="opacity:0.85409253;fill:#000000;fill-opacity:1;fill-rule:evenodd;stroke:#001003;stroke-width:0.30000001;stroke-linecap:round;stroke-miterlimit:4;stroke-opacity:1;stroke-dasharray:none;stroke-dashoffset:0"
         d="M 8.014681,7.8662418 C 7.003449,7.9335651 7.5906612,9.6298609 7.3726759,9.7207547 7.001993,9.1347727 6.807651,7.3772422 8.014681,7.8662418 z"
         id="path3010"
         inkscape:connector-curvature="0" />
      <path
         style="opacity:0.85409253;fill:#000000;fill-opacity:1;fill-rule:evenodd;stroke:#001003;stroke-width:0.30000001;stroke-linecap:round;stroke-miterlimit:4;stroke-opacity:1;stroke-dasharray:none;stroke-dashoffset:0"
         d="M 6.6838834,9.4546745 C 5.8563558,9.9144739 7.8556919,11.35701 6.663957,10.490058 6.2500243,10.126953 5.3742579,8.9555703 6.6838834,9.4546745 z"
         id="path3012"
         inkscape:connector-curvature="0" />
      <path
         style="opacity:0.85409253;fill:#000000;fill-opacity:1;fill-rule:evenodd;stroke:#001003;stroke-width:0.30000001;stroke-linecap:round;stroke-miterlimit:4;stroke-opacity:1;stroke-dasharray:none;stroke-dashoffset:0"
         d="m 14.428219,6.3578267 c 0.477517,0.7632908 1.484088,1.4424596 1.206918,2.4617545 C 15.568986,9.3461531 14.031721,10.228748 15.081971,9.52339 16.057494,8.8027688 15.602039,7.131291 14.508312,6.7894751 14.145469,6.5872277 13.505662,6.6533183 14.245605,6.4348053 l 0.182614,-0.076979 z"
         id="path3014"
         inkscape:connector-curvature="0" />
      <path
         style="opacity:0.85409253;fill:#000000;fill-opacity:1;fill-rule:evenodd;stroke:#001003;stroke-width:0.30000001;stroke-linecap:round;stroke-miterlimit:4;stroke-opacity:1;stroke-dasharray:none;stroke-dashoffset:0"
         d="M 11.71934,7.170432 C 10.20871,7.1033569 8.8423257,8.6691355 9.2131337,10.158063 8.0290205,10.453441 8.3515354,8.8166443 8.7695533,8.2357103 9.2508871,7.5561657 9.992954,6.8293359 10.877992,6.8290112 c 0.316766,0.024365 0.543894,0.2592405 0.841348,0.3414208 z"
         id="path3016"
         inkscape:connector-curvature="0" />
      <path
         style="opacity:0.85409253;fill:#000000;fill-opacity:1;fill-rule:evenodd;stroke:#001003;stroke-width:0.30000001;stroke-linecap:round;stroke-miterlimit:4;stroke-opacity:1;stroke-dasharray:none;stroke-dashoffset:0"
         d="M 11.172246,8.4073901 C 10.023239,8.6665602 10.243491,10.224281 10.056791,10.841718 9.0512773,10.772007 9.2749773,9.46953 9.6036257,8.845698 9.9498885,7.8961524 10.39075,8.1810978 11.172246,8.4073901 z"
         id="path3018"
         inkscape:connector-curvature="0" />
      <path
         style="opacity:0.85409253;fill:#000000;fill-opacity:1;fill-rule:evenodd;stroke:#001003;stroke-width:0.30000001;stroke-linecap:round;stroke-miterlimit:4;stroke-opacity:1;stroke-dasharray:none;stroke-dashoffset:0"
         d="m 10.277695,10.481694 c -0.3648954,0.801742 1.048998,1.393322 0.831101,1.968499 -0.768187,-0.190267 -1.5911007,-0.992066 -1.8644831,-1.738735 0.1953487,-0.304465 0.7189956,-0.133797 1.0333821,-0.229764 z"
         id="path3020"
         inkscape:connector-curvature="0" />
      <path
         style="opacity:0.85409253;fill:#000000;fill-opacity:1;fill-rule:evenodd;stroke:#001003;stroke-width:0.30000001;stroke-linecap:round;stroke-miterlimit:4;stroke-opacity:1;stroke-dasharray:none;stroke-dashoffset:0"
         d="m 18.68432,9.0136783 c 0.560144,0.6414037 0.557452,1.7786547 -0.04498,2.3898997 -0.406466,0.287599 -1.013962,0.05889 -0.462869,-0.355828 C 18.725651,10.417791 17.939077,9.4472394 17.760703,9.3095275 18.068574,9.2109085 18.37644,9.112272 18.68432,9.0136783 z"
         id="path3022"
         inkscape:connector-curvature="0" />
      <path
         style="opacity:0.85409253;fill:#000000;fill-opacity:1;fill-rule:evenodd;stroke:#001003;stroke-width:0.30000001;stroke-linecap:round;stroke-miterlimit:4;stroke-opacity:1;stroke-dasharray:none;stroke-dashoffset:0"
         d="m 20.462373,10.209324 c -0.294446,0.879136 -0.569904,1.886514 -1.348649,2.462501 -0.497582,0.241615 -0.889782,-0.159527 -0.298722,-0.442993 0.555634,-0.477844 0.536447,-1.507836 0.709439,-1.934752 0.312645,-0.02824 0.625294,-0.05646 0.937932,-0.08476 z"
         id="path3024"
         inkscape:connector-curvature="0" />
      <path
         style="opacity:0.85409253;fill:#000000;fill-opacity:1;fill-rule:evenodd;stroke:#001003;stroke-width:0.30000001;stroke-linecap:round;stroke-miterlimit:4;stroke-opacity:1;stroke-dasharray:none;stroke-dashoffset:0"
         d="m 21.81354,10.002834 c -0.186054,0.839648 -0.321516,1.817268 -1.025191,2.395147 -0.403755,0.274598 -1.028452,0.0969 -0.465252,-0.334137 0.465621,-0.518257 0.425283,-1.542296 0.524478,-1.93489 0.321989,-0.04204 0.643978,-0.08407 0.965965,-0.12612 z"
         id="path3026"
         inkscape:connector-curvature="0" />
      <path
         style="opacity:0.85409253;fill:#000000;fill-opacity:1;fill-rule:evenodd;stroke:#001003;stroke-width:0.30000001;stroke-linecap:round;stroke-miterlimit:4;stroke-opacity:1;stroke-dasharray:none;stroke-dashoffset:0"
         d="m 15.310705,8.7907175 c -0.932078,0.2511284 0.278416,2.2986605 -1.021117,1.6254695 -0.618394,-0.683901 -0.302665,-2.521409 0.825646,-1.6691767 0.06516,0.014568 0.130321,0.029147 0.195471,0.043707 z"
         id="path3028"
         inkscape:connector-curvature="0" />
      <path
         style="opacity:0.85409253;fill:#000000;fill-opacity:1;fill-rule:evenodd;stroke:#001003;stroke-width:0.30000001;stroke-linecap:round;stroke-miterlimit:4;stroke-opacity:1;stroke-dasharray:none;stroke-dashoffset:0"
         d="m 15.963638,6.7672604 c 0.142983,0.5773729 -0.06847,1.5998229 -0.794846,0.8979915 -0.765743,-0.7523127 0.04332,-1.1955577 0.794846,-0.8979915 z"
         id="path3030"
         inkscape:connector-curvature="0" />
      <path
         style="opacity:0.85409253;fill:#000000;fill-opacity:1;fill-rule:evenodd;stroke:#001003;stroke-width:0.30000001;stroke-linecap:round;stroke-miterlimit:4;stroke-opacity:1;stroke-dasharray:none;stroke-dashoffset:0"
         d="m 16.444405,9.775401 c 0.203644,0.508253 0.643252,1.57617 -0.355177,1.046147 -0.786944,-0.436018 -0.928263,-1.4705125 0.187675,-1.0461486 0.05583,5e-7 0.111668,1.1e-6 0.167502,1.6e-6 z"
         id="path3032"
         inkscape:connector-curvature="0" />
      <path
         style="opacity:0.85409253;fill:#000000;fill-opacity:1;fill-rule:evenodd;stroke:#001003;stroke-width:0.30000001;stroke-linecap:round;stroke-miterlimit:4;stroke-opacity:1;stroke-dasharray:none;stroke-dashoffset:0"
         d="m 12.940021,10.121786 c 0.405888,0.695805 -0.216312,2.325617 -1.096197,1.441875 0.265251,-0.591011 -0.119878,-1.6494961 0.954032,-1.410097 0.04739,-0.01059 0.09478,-0.02118 0.142165,-0.03178 z"
         id="path3034"
         inkscape:connector-curvature="0" />
      <path
         style="opacity:0.85409253;fill:#000000;fill-opacity:1;fill-rule:evenodd;stroke:#001003;stroke-width:0.30000001;stroke-linecap:round;stroke-miterlimit:4;stroke-opacity:1;stroke-dasharray:none;stroke-dashoffset:0"
         d="M 13.106566,8.6342193 C 12.298823,8.2890226 11.42894,10.166441 10.896499,9.1853324 11.451146,8.4372525 12.270658,7.9333154 13.106566,8.6342193 z"
         id="path3036"
         inkscape:connector-curvature="0" />
      <path
         style="opacity:0.85409253;fill:#000000;fill-opacity:1;fill-rule:evenodd;stroke:#001003;stroke-width:0.30000001;stroke-linecap:round;stroke-miterlimit:4;stroke-opacity:1;stroke-dasharray:none;stroke-dashoffset:0"
         d="M 19.352401,7.2269208 C 19.676016,8.1782114 18.323429,8.7489585 18.138438,7.6308512 18.015187,7.0067467 19.053635,7.363643 19.352401,7.2269208 z"
         id="path3038"
         inkscape:connector-curvature="0" />
      <path
         style="opacity:0.85409253;fill:#000000;fill-opacity:1;fill-rule:evenodd;stroke:#001003;stroke-width:0.30000001;stroke-linecap:round;stroke-miterlimit:4;stroke-opacity:1;stroke-dasharray:none;stroke-dashoffset:0"
         d="m 20.705181,7.9538235 c 0.193427,0.9439667 -2.009693,1.3624464 -1.27198,0.2276847 0.29084,-0.3462397 0.870255,-0.1370635 1.27198,-0.2276847 z"
         id="path3040"
         inkscape:connector-curvature="0" />
      <path
         style="opacity:0.85409253;fill:#000000;fill-opacity:1;fill-rule:evenodd;stroke:#001003;stroke-width:0.30000001;stroke-linecap:round;stroke-miterlimit:4;stroke-opacity:1;stroke-dasharray:none;stroke-dashoffset:0"
         d="m 16.960612,6.6711675 c -0.602276,0.4125252 -0.46853,2.4646589 -1.49668,1.5836194 -0.0418,-0.8045404 0.299465,-2.151846 1.376723,-1.6293066 l 0.119957,0.045687 c 0,0 0,-2e-7 0,-2e-7 z"
         id="path3042"
         inkscape:connector-curvature="0" />
      <path
         style="opacity:0.85409253;fill:#000000;fill-opacity:1;fill-rule:evenodd;stroke:#001003;stroke-width:0.30000001;stroke-linecap:round;stroke-miterlimit:4;stroke-opacity:1;stroke-dasharray:none;stroke-dashoffset:0"
         d="m 11.642082,11.20573 c 0.281953,0.959421 1.460157,0.964881 2.239768,1.268415 0.441808,0.52454 -1.21267,0.538839 -1.637941,0.313216 -0.779764,-0.26213 -1.526329,-0.662421 -2.18139,-1.151863 0.226891,-0.46513 1.147935,-0.190634 1.579563,-0.429768 z"
         id="path3044"
         inkscape:connector-curvature="0" />
      <path
         style="opacity:0.85409253;fill:#000000;fill-opacity:1;fill-rule:evenodd;stroke:#001003;stroke-width:0.30000001;stroke-linecap:round;stroke-miterlimit:4;stroke-opacity:1;stroke-dasharray:none;stroke-dashoffset:0"
         d="m 9.4442989,11.675856 c 0.3816037,0.188505 1.9075021,0.334999 0.7663341,0.646596 -0.5888471,0.417086 -1.8294343,0.05904 -2.1443507,0.0018 0.4593378,-0.216144 0.9186806,-0.432312 1.3780166,-0.648437 z"
         id="path3046"
         inkscape:connector-curvature="0" />
      <path
         style="opacity:0.85409253;fill:#000000;fill-opacity:1;fill-rule:evenodd;stroke:#001003;stroke-width:0.30000001;stroke-linecap:round;stroke-miterlimit:4;stroke-opacity:1;stroke-dasharray:none;stroke-dashoffset:0"
         d="m 8.6314781,12.157558 c 0.086149,0.506815 1.4408949,0.497103 1.2007121,0.506506 -0.4049868,-0.09461 1.3489838,0.482252 0.4459668,0.562646 -1.0113251,-0.107676 -2.1174656,0.07607 -3.0443492,-0.434322 -0.4604456,-0.343806 1.19406,-0.4489 1.3976703,-0.63483 z"
         id="path3048"
         inkscape:connector-curvature="0" />
      <path
         style="opacity:0.85409253;fill:#000000;fill-opacity:1;fill-rule:evenodd;stroke:#001003;stroke-width:0.30000001;stroke-linecap:round;stroke-miterlimit:4;stroke-opacity:1;stroke-dasharray:none;stroke-dashoffset:0"
         d="m 10.113393,12.164207 c -0.4561027,0.11197 -1.7509761,0.0893 -0.6384528,0.03059 0.4843073,-0.209016 1.5949008,0.05519 1.6699458,0.451509 -0.685296,0.266099 -2.0296734,0.37065 -2.416025,0.160821 0.4682361,-0.199599 0.9217514,-0.43139 1.384532,-0.64292 z"
         id="path3050"
         inkscape:connector-curvature="0" />
      <path
         style="opacity:0.85409253;fill:#000000;fill-opacity:1;fill-rule:evenodd;stroke:#001003;stroke-width:0.30000001;stroke-linecap:round;stroke-miterlimit:4;stroke-opacity:1;stroke-dasharray:none;stroke-dashoffset:0"
         d="m 22.09516,11.062933 c -0.736616,1.158234 -1.887999,2.258909 -3.335752,2.30775 -0.492779,-0.04844 -1.1923,-0.532492 -0.275971,-0.582319 1.210495,0.08768 1.441822,-1.545749 2.309697,-1.844206 0.43331,0.04709 0.868429,0.07469 1.302026,0.118775 z"
         id="path3052"
         inkscape:connector-curvature="0" />
      <path
         style="opacity:0.85409253;fill:#000000;fill-opacity:1;fill-rule:evenodd;stroke:#001003;stroke-width:0.30000001;stroke-linecap:round;stroke-miterlimit:4;stroke-opacity:1;stroke-dasharray:none;stroke-dashoffset:0"
         d="m 20.081205,11.164834 c -1.219933,0.471504 -2.258783,1.728009 -3.679509,1.445718 -0.466985,-0.0379 -1.030638,-0.457754 -0.225116,-0.487444 1.068108,-0.0273 1.649857,-1.157493 2.674923,-1.268102 0.431142,0.01303 0.795021,0.276303 1.229702,0.309828 z"
         id="path3054"
         inkscape:connector-curvature="0" />
      <path
         style="opacity:0.85409253;fill:#000000;fill-opacity:1;fill-rule:evenodd;stroke:#001003;stroke-width:0.30000001;stroke-linecap:round;stroke-miterlimit:4;stroke-opacity:1;stroke-dasharray:none;stroke-dashoffset:0"
         d="m 18.84009,9.4677739 c -0.43209,1.2993341 -1.623522,2.1696351 -2.834166,2.6936281 -0.495556,0.204532 -1.978117,-0.518642 -0.796517,-0.68438 1.23763,-0.117174 1.66374,-1.7127318 2.611891,-2.0092228 0.339597,5.8e-6 0.679195,1.45e-5 1.018792,-2.53e-5 z"
         id="path3056"
         inkscape:connector-curvature="0" />
      <path
         style="opacity:0.85409253;fill:#000000;fill-opacity:1;fill-rule:evenodd;stroke:#001003;stroke-width:0.30000001;stroke-linecap:round;stroke-miterlimit:4;stroke-opacity:1;stroke-dasharray:none;stroke-dashoffset:0"
         d="m 19.202178,12.141469 c -0.877156,0.539413 -1.644338,1.584696 -2.78611,1.433438 -0.290385,-0.133873 -1.445081,-0.466549 -1.209474,-0.631142 1.174617,0.293435 1.86485,-1.065516 2.976117,-1.055601 0.356416,0.03002 0.655505,0.239558 1.019467,0.253305 z"
         id="path3058"
         inkscape:connector-curvature="0" />
      <path
         style="opacity:0.85409253;fill:#000000;fill-opacity:1;fill-rule:evenodd;stroke:#001003;stroke-width:0.30000001;stroke-linecap:round;stroke-miterlimit:4;stroke-opacity:1;stroke-dasharray:none;stroke-dashoffset:0"
         d="m 9.5121842,12.178881 c 1.1570068,0.169686 2.3356158,-0.300816 3.4811448,-0.01415 0.861868,0.566457 -1.011582,0.480737 -1.482625,0.559746 -0.700769,0.01334 -1.406659,-0.165111 -1.9985198,-0.545594 z"
         id="path3060"
         inkscape:connector-curvature="0" />
      <path
         style="opacity:0.85409253;fill:#000000;fill-opacity:1;fill-rule:evenodd;stroke:#001003;stroke-width:0.30000001;stroke-linecap:round;stroke-miterlimit:4;stroke-opacity:1;stroke-dasharray:none;stroke-dashoffset:0"
         d="M 7.8140576,9.0095065 C 6.6755656,9.3868463 8.4292414,11.129347 7.0031087,11.123486 6.1195419,11.051796 5.8586368,9.866264 6.0697725,9.1407991 6.3246121,8.4784133 7.2985532,9.0815703 7.8140576,9.0095065 z"
         id="path3064"
         inkscape:connector-curvature="0" />
      <path
         style="opacity:0.85409253;fill:#000000;fill-opacity:1;fill-rule:evenodd;stroke:#001003;stroke-width:0.30000001;stroke-linecap:round;stroke-miterlimit:4;stroke-opacity:1;stroke-dasharray:none;stroke-dashoffset:0"
         d="m 8.0451335,10.628486 c -0.074942,0.575808 1.3146165,1.315224 0.081633,1.343859 -0.647612,0.25629 -1.9585089,-0.703648 -1.4420937,-1.304145 0.4515628,-0.0036 0.9058297,-0.01065 1.3604607,-0.03971 z"
         id="path3066"
         inkscape:connector-curvature="0" />
      <path
         style="opacity:0.85409253;fill:#000000;fill-opacity:1;fill-rule:evenodd;stroke:#001003;stroke-width:0.30000001;stroke-linecap:round;stroke-miterlimit:4;stroke-opacity:1;stroke-dasharray:none;stroke-dashoffset:0"
         d="m 23.00135,10.081519 c 0.108388,0.988949 -0.433422,2.263579 -1.520156,2.409921 -0.473394,0.06356 -1.435584,-0.267968 -0.537726,-0.615799 0.784646,-0.257534 0.680335,-1.024172 0.514044,-1.534318 0.477042,-0.235663 1.059642,-0.04921 1.543838,-0.259804 z"
         id="path3068"
         inkscape:connector-curvature="0" />
      <path
         style="opacity:0.85409253;fill:#000000;fill-opacity:1;fill-rule:evenodd;stroke:#001003;stroke-width:0.30000001;stroke-linecap:round;stroke-miterlimit:4;stroke-opacity:1;stroke-dasharray:none;stroke-dashoffset:0"
         d="m 23.431261,11.800468 c -0.518244,1.206774 -1.94477,2.248542 -3.276217,1.680198 -0.64023,-0.398404 0.959335,-0.432925 1.186883,-0.804175 0.254859,-0.521423 0.514242,-1.16026 1.274097,-0.886617 0.26963,0.02298 0.547568,0.07777 0.815237,0.01059 z"
         id="path3070"
         inkscape:connector-curvature="0" />
      <path
         style="opacity:0.85409253;fill:#000000;fill-opacity:1;fill-rule:evenodd;stroke:#001003;stroke-width:0.30000001;stroke-linecap:round;stroke-miterlimit:4;stroke-opacity:1;stroke-dasharray:none;stroke-dashoffset:0"
         d="m 22.873539,12.939091 c -0.709483,1.074581 -2.33567,1.686995 -3.458217,0.88315 1.183664,-0.213562 2.171839,-1.406692 3.458217,-0.88315 z"
         id="path3072"
         inkscape:connector-curvature="0" />
      <path
         style="opacity:0.85409253;fill:#000000;fill-opacity:1;fill-rule:evenodd;stroke:#001003;stroke-width:0.30000001;stroke-linecap:round;stroke-miterlimit:4;stroke-opacity:1;stroke-dasharray:none;stroke-dashoffset:0"
         d="m 20.332567,12.882689 c -0.122051,1.003374 -2.664332,0.533082 -1.664782,-0.238824 0.56462,-0.145887 1.097736,0.297992 1.664782,0.238824 z"
         id="path3074"
         inkscape:connector-curvature="0" />
      <path
         style="opacity:0.85409253;fill:#000000;fill-opacity:1;fill-rule:evenodd;stroke:#001003;stroke-width:0.30000001;stroke-linecap:round;stroke-miterlimit:4;stroke-opacity:1;stroke-dasharray:none;stroke-dashoffset:0"
         d="M 21.680568,7.2005035 C 21.64655,7.9679256 21.967473,8.900704 21.376932,9.521458 20.500061,10.060125 20.198025,9.0658887 20.489003,8.3791649 20.738938,7.7579454 19.6063,7.1598171 20.673373,7.2625645 c 0.335392,-0.026468 0.6726,-0.024506 1.007195,-0.062061 z"
         id="path3076"
         inkscape:connector-curvature="0" />
      <path
         style="opacity:0.85409253;fill:#000000;fill-opacity:1;fill-rule:evenodd;stroke:#001003;stroke-width:0.30000001;stroke-linecap:round;stroke-miterlimit:4;stroke-opacity:1;stroke-dasharray:none;stroke-dashoffset:0"
         d="m 20.093779,9.4223921 c -0.242787,0.7830309 -2.178304,0.8767419 -1.905171,0.00714 0.548398,-0.5040588 1.273488,-0.038754 1.905171,-0.00714 z"
         id="path3078"
         inkscape:connector-curvature="0" />
      <path
         style="opacity:0.85409253;fill:#000000;fill-opacity:1;fill-rule:evenodd;stroke:#001003;stroke-width:0.30000001;stroke-linecap:round;stroke-miterlimit:4;stroke-opacity:1;stroke-dasharray:none;stroke-dashoffset:0"
         d="M 18.013253,7.4173975 C 18.07019,8.240981 17.782849,9.408945 16.818766,9.5283046 16.335711,9.5112795 16.017869,9.326811 16.482549,8.9512766 c 0.0037,-0.7134872 -0.141198,-1.6636125 0.887625,-1.4606596 0.21436,-0.024407 0.428719,-0.048813 0.643079,-0.07322 z"
         id="path3080"
         inkscape:connector-curvature="0" />
      <path
         style="opacity:0.85409253;fill:#000000;fill-opacity:1;fill-rule:evenodd;stroke:#001003;stroke-width:0.30000001;stroke-linecap:round;stroke-miterlimit:4;stroke-opacity:1;stroke-dasharray:none;stroke-dashoffset:0"
         d="M 15.245491,9.0460486 C 15.507518,9.9676222 15.190808,11.366232 13.97729,10.870825 13.531176,10.543023 14.0424,9.5068048 13.718334,9.25866 14.223304,9.1604407 14.737233,9.1224291 15.245491,9.0460486 z"
         id="path3082"
         inkscape:connector-curvature="0" />
      <path
         style="opacity:0.85409253;fill:#000000;fill-opacity:1;fill-rule:evenodd;stroke:#001003;stroke-width:0.30000001;stroke-linecap:round;stroke-miterlimit:4;stroke-opacity:1;stroke-dasharray:none;stroke-dashoffset:0"
         d="m 14.293528,9.2595367 c 0.294635,1.0558633 -1.194439,2.1114593 -1.996942,1.2431043 0.234633,-0.441909 0.661386,-1.3852671 1.476813,-1.1566893 0.173376,-0.028805 0.346753,-0.05761 0.520129,-0.086415 z"
         id="path3084"
         inkscape:connector-curvature="0" />
      <path
         style="opacity:0.85409253;fill:#000000;fill-opacity:1;fill-rule:evenodd;stroke:#001003;stroke-width:0.30000001;stroke-linecap:round;stroke-miterlimit:4;stroke-opacity:1;stroke-dasharray:none;stroke-dashoffset:0"
         d="M 12.06687,9.7735448 C 12.053114,10.822387 10.267665,11.306572 9.9854901,10.42882 10.272693,9.6683465 10.994594,9.5551831 11.687751,9.7474983 c 0.126373,0.00868 0.252747,0.017365 0.379119,0.026046 z"
         id="path3086"
         inkscape:connector-curvature="0" />
    </g>
  </g>
</svg>
