<?xml version="1.0" encoding="UTF-8" standalone="no"?>
<!-- Created with Inkscape (http://www.inkscape.org/) -->

<svg
   xmlns:dc="http://purl.org/dc/elements/1.1/"
   xmlns:cc="http://creativecommons.org/ns#"
   xmlns:rdf="http://www.w3.org/1999/02/22-rdf-syntax-ns#"
   xmlns:svg="http://www.w3.org/2000/svg"
   xmlns="http://www.w3.org/2000/svg"
   xmlns:sodipodi="http://sodipodi.sourceforge.net/DTD/sodipodi-0.dtd"
   xmlns:inkscape="http://www.inkscape.org/namespaces/inkscape"
   width="32px"
   height="32px"
   id="svg5053"
   version="1.1"
   inkscape:version="0.48.2 r9819"
   sodipodi:docname="village3.svg">
  <defs
     id="defs5055" />
  <sodipodi:namedview
     id="base"
     pagecolor="#ffffff"
     bordercolor="#666666"
     borderopacity="1.0"
     inkscape:pageopacity="0.0"
     inkscape:pageshadow="2"
     inkscape:zoom="11.197802"
     inkscape:cx="18.588054"
     inkscape:cy="12.537212"
     inkscape:current-layer="layer1"
     showgrid="true"
     inkscape:grid-bbox="true"
     inkscape:document-units="px"
     inkscape:window-width="899"
     inkscape:window-height="665"
     inkscape:window-x="429"
     inkscape:window-y="102"
     inkscape:window-maximized="0" />
  <metadata
     id="metadata5058">
    <rdf:RDF>
      <cc:Work
         rdf:about="">
        <dc:format>image/svg+xml</dc:format>
        <dc:type
           rdf:resource="http://purl.org/dc/dcmitype/StillImage" />
        <dc:title />
      </cc:Work>
    </rdf:RDF>
  </metadata>
  <g
     id="layer1"
     inkscape:label="Layer 1"
     inkscape:groupmode="layer">
    <g
       id="g3119">
      <g
         transform="matrix(1,0,0,0.88746696,2.5004907,4.3997747)"
         id="g3025">
        <path
           style="opacity:0.85409253;fill:#000000;fill-opacity:1;fill-rule:evenodd;stroke:#001003;stroke-width:0.30000001;stroke-linecap:round;stroke-miterlimit:4;stroke-opacity:1;stroke-dasharray:none;stroke-dashoffset:0"
           d="m 9.1669718,20.5715 c 0.4856032,-0.705045 0.091224,-1.07593 0.066233,-1.836473 -0.062459,-0.888288 -0.2722289,-2.008101 0.5405018,-2.635289 0.6243184,-0.510295 1.2923484,-1.005862 2.0088284,-1.366293 0.884482,-0.222504 1.926461,-0.03972 2.642739,0.529073 0.846387,0.875423 1.376547,1.98366 1.811856,3.106742 0.286216,0.685828 1.460949,1.866696 0.352402,2.124041 -0.433327,0.0801 -1.850534,0.885206 -1.416873,0.07932 0.115774,-1.316726 -0.370923,-2.635361 -1.032189,-3.754304 -0.6188,-0.883568 -1.848535,-1.530249 -2.890757,-0.996791 -1.19741,0.674649 1.243133,-0.828068 0.12194,-0.175142 -0.666202,0.356694 -0.960786,1.095054 -0.858404,1.822866 0.07973,0.82383 0.10046,1.626727 0.355486,2.423033 0.06191,0.807738 -1.2170536,0.318923 -1.7017632,0.679221 z"
           id="path2997"
           inkscape:connector-curvature="0"
           sodipodi:nodetypes="cccccccccccccc" />
        <path
           style="opacity:0.85409253;fill:#000000;fill-opacity:1;fill-rule:evenodd;stroke:#001003;stroke-width:0.30000001;stroke-linecap:round;stroke-miterlimit:4;stroke-opacity:1;stroke-dasharray:none;stroke-dashoffset:0"
           d="m 11.698726,20.845435 c 0.23601,-0.781286 -0.397932,-1.795042 0.786953,-1.973854 0.701317,-0.683639 1.257689,1.495413 1.086604,1.965855 -0.500983,0.150408 -1.394409,-0.195091 -1.873557,0.008 z"
           id="path2999"
           inkscape:connector-curvature="0"
           sodipodi:nodetypes="cccc" />
      </g>
      <path
         sodipodi:nodetypes="cccccccccccccc"
         inkscape:connector-curvature="0"
         id="path2997-8"
         d="m 19.855761,17.250424 c 0.337236,-0.427766 0.06335,-0.652789 0.04599,-1.114226 -0.04338,-0.538944 -0.189053,-1.218357 0.375361,-1.598885 0.433569,-0.309606 0.897493,-0.610278 1.395065,-0.828958 0.614244,-0.134998 1.337864,-0.0241 1.835295,0.320999 0.587788,0.531138 0.955966,1.203528 1.258274,1.884926 0.198768,0.416106 1.014581,1.132563 0.244732,1.288699 -0.300932,0.0486 -1.285135,0.537073 -0.983972,0.04813 0.0804,-0.798885 -0.257594,-1.598929 -0.716821,-2.277814 -0.429736,-0.53608 -1.283746,-0.928435 -2.007535,-0.604775 -0.831562,0.409323 0.863315,-0.502405 0.08468,-0.106262 -0.462655,0.216414 -0.667234,0.664392 -0.596133,1.105971 0.05537,0.499835 0.06977,0.98697 0.246873,1.470105 0.043,0.490071 -0.845204,0.193497 -1.181819,0.412097 z"
         style="opacity:0.85409253;fill:#000000;fill-opacity:1;fill-rule:evenodd;stroke:#001003;stroke-width:0.19473389;stroke-linecap:round;stroke-miterlimit:4;stroke-opacity:1;stroke-dasharray:none;stroke-dashoffset:0" />
      <path
         sodipodi:nodetypes="cccc"
         inkscape:connector-curvature="0"
         id="path2999-1"
         d="m 21.703285,17.178465 c 0.163901,-0.559219 -0.276351,-1.284832 0.546512,-1.412819 0.487042,-0.489327 0.873424,1.070367 0.754611,1.407094 -0.347916,0.107656 -0.968371,-0.13964 -1.301123,0.0057 z"
         style="opacity:0.85409253;fill:#000000;fill-opacity:1;fill-rule:evenodd;stroke:#001003;stroke-width:0.21151096;stroke-linecap:round;stroke-miterlimit:4;stroke-opacity:1;stroke-dasharray:none;stroke-dashoffset:0" />
      <path
         sodipodi:nodetypes="cccccccccccccc"
         inkscape:connector-curvature="0"
         id="path2997-3"
         d="m 4.8725225,17.986529 c 0.4134301,-0.516762 0.077666,-0.788604 0.056389,-1.346043 -0.053176,-0.651072 -0.2317687,-1.47184 0.4601693,-1.931537 0.5315287,-0.374022 1.1002722,-0.737247 1.7102648,-1.001425 0.7530252,-0.163084 1.6401394,-0.02911 2.2499597,0.387785 0.7205927,0.64164 1.1719577,1.453924 1.5425687,2.277087 0.243677,0.502679 1.243815,1.368196 0.300027,1.556818 -0.368925,0.05871 -1.5754984,0.648811 -1.2062907,0.05814 0.098572,-0.965096 -0.3157951,-1.93159 -0.8787799,-2.75172 -0.52683,-0.647612 -1.5737947,-1.121597 -2.4611157,-0.730599 -1.0194441,0.494484 1.0583715,-0.606932 0.1038162,-0.12837 -0.5671873,0.261439 -0.8179886,0.802621 -0.7308231,1.33607 0.06788,0.603827 0.085528,1.192311 0.3026517,1.775964 0.052709,0.592032 -1.0361682,0.233754 -1.4488375,0.497835 z"
         style="opacity:0.85409253;fill:#000000;fill-opacity:1;fill-rule:evenodd;stroke:#001003;stroke-width:0.23698391;stroke-linecap:round;stroke-miterlimit:4;stroke-opacity:1;stroke-dasharray:none;stroke-dashoffset:0" />
      <path
         sodipodi:nodetypes="cccc"
         inkscape:connector-curvature="0"
         id="path2999-6"
         d="M 7.2014087,17.862502 C 7.3935329,17.197059 6.8774718,16.333615 7.8420285,16.181316 8.4129362,15.599041 8.8658512,17.455 8.7265792,17.855689 8.3187542,17.983796 7.5914595,17.689525 7.2014087,17.862489 z"
         style="opacity:0.85409253;fill:#000000;fill-opacity:1;fill-rule:evenodd;stroke:#001003;stroke-width:0.24980287;stroke-linecap:round;stroke-miterlimit:4;stroke-opacity:1;stroke-dasharray:none;stroke-dashoffset:0" />
      <path
         sodipodi:nodetypes="cccccccccccccc"
         inkscape:connector-curvature="0"
         id="path2997-8-0"
         d="m 17.075595,12.636037 c 0.305501,-0.409583 0.05739,-0.625041 0.04167,-1.066863 -0.0393,-0.516034 -0.171262,-1.166568 0.340037,-1.53092 0.392768,-0.2964462 0.813034,-0.5843362 1.263783,-0.7937212 0.55644,-0.129259 1.211965,-0.02308 1.662584,0.307355 0.532474,0.5085612 0.866005,1.1523682 1.139864,1.8048012 0.180063,0.398418 0.919104,1.084421 0.221702,1.23392 -0.272613,0.04653 -1.164198,0.514244 -0.891375,0.04608 0.07283,-0.764926 -0.233353,-1.530963 -0.649365,-2.18099 C 19.8152,9.9424078 19.041556,9.5667308 18.385879,9.8766326 c -0.753307,0.3919234 0.782073,-0.4810498 0.07671,-0.1017458 -0.419117,0.207216 -0.604444,0.6361512 -0.540034,1.0589592 0.05015,0.478588 0.0632,0.945016 0.223641,1.407614 0.03895,0.46924 -0.765666,0.185271 -1.070604,0.39458 z"
         style="opacity:0.85409253;fill:#000000;fill-opacity:1;fill-rule:evenodd;stroke:#001003;stroke-width:0.18136282;stroke-linecap:round;stroke-miterlimit:4;stroke-opacity:1;stroke-dasharray:none;stroke-dashoffset:0" />
      <path
         sodipodi:nodetypes="cccc"
         inkscape:connector-curvature="0"
         id="path2999-1-0"
         d="m 18.577677,12.633318 c 0.163901,-0.559219 -0.276351,-1.284832 0.546512,-1.412819 0.487042,-0.489327 0.873424,1.070367 0.754611,1.407094 -0.347916,0.107656 -0.968371,-0.13964 -1.301123,0.0057 z"
         style="opacity:0.85409253;fill:#000000;fill-opacity:1;fill-rule:evenodd;stroke:#001003;stroke-width:0.21151096;stroke-linecap:round;stroke-miterlimit:4;stroke-opacity:1;stroke-dasharray:none;stroke-dashoffset:0" />
      <path
         sodipodi:nodetypes="cccccccccccccccccccc"
         inkscape:connector-curvature="0"
         id="path3846"
         d="m 11.402186,4.2530779 c 0.02866,0.07729 0.835453,-0.1026242 0.582902,0.3829936 -0.0482,0.4742866 -0.183266,0.9814695 0.134941,1.3956496 0.20599,0.4995263 0.668015,0.7792846 1.032513,1.145421 0.437812,0.3560019 0.971644,0.5814942 1.400419,0.9580904 0.473778,0.378524 0.894481,0.820882 1.19809,1.350074 0.03935,0.411657 0.41891,0.7792515 0.239864,1.2043805 0.126608,0.363509 0.06966,0.686147 -0.271634,0.886733 -0.32574,0.477865 -0.484627,1.061799 -0.866834,1.500407 -0.09426,-0.241079 0.08776,-0.87738 0.09888,-1.284501 C 15.040247,10.99566 15.118009,10.12632 14.650761,9.4226795 14.302166,8.9874005 13.90387,8.5779005 13.443594,8.2563485 12.947414,7.9278054 10.156916,7.6578039 9.6749114,7.3061394 9.2251254,7.0163163 10.260285,7.1671415 10.806659,6.1828719 10.74446,5.8207357 7.7365974,5.2893857 8.5584454,5.192396 8.6762764,5.1079304 10.223148,4.8685483 10.093897,4.6887821 9.5267074,4.150724 8.9467424,3.5701572 8.6545064,2.83123 c -0.108568,-0.6016474 0.6952,-0.1622983 0.98157,-0.055712 0.7203076,0.3076796 1.4073626,0.7028137 2.1190156,1.0174981 -0.0053,0.156723 -0.537731,0.3538327 -0.352906,0.4600617 z"
         style="opacity:0.85409253;fill:#000000;fill-opacity:1;fill-rule:evenodd;stroke:#001003;stroke-width:0.30000001;stroke-linecap:round;stroke-miterlimit:4;stroke-opacity:1;stroke-dasharray:none;stroke-dashoffset:0;display:inline" />
      <path
         inkscape:connector-curvature="0"
         d="m 14.043903,14.547501 c -0.0604,0.09424 -0.122481,0.186891 -0.164216,0.290905 0,0 -1.154707,1.188548 -1.154707,1.188548 l 0,0 c -0.0018,-0.01467 -0.02244,-0.16267 -0.06505,-0.11779 0,0 1.383989,-1.361673 1.383989,-1.361673 z"
         id="path3113"
         style="opacity:0.85409253;fill:#000000;fill-opacity:1;fill-rule:evenodd;stroke:#001003;stroke-width:0.30000001;stroke-linecap:round;stroke-miterlimit:4;stroke-opacity:1;stroke-dasharray:none;stroke-dashoffset:0" />
      <path
         inkscape:connector-curvature="0"
         d="m 14.746603,14.497758 c 0.03494,0.154843 -0.09912,0.162518 0.118623,0.196714 0.03563,0.0056 0.08176,-0.0063 0.106339,0.02005 0.02464,0.02646 0.0084,0.07183 0.01266,0.10774 0.02181,0.02598 0.04362,0.05197 0.06543,0.07795 0,0 -1.080754,0.999051 -1.080754,0.999051 l 0,0 c -0.04025,-0.013 -0.08051,-0.026 -0.120764,-0.039 -0.07744,-0.01585 -0.161791,-0.01103 -0.232592,-0.04617 -0.02197,-0.01091 -0.02413,-0.04857 -0.04742,-0.05628 -0.02751,-0.0091 -0.168807,0.01226 -0.20884,-0.02269 0,0 1.387319,-1.237367 1.387319,-1.237367 z"
         id="path3115"
         style="opacity:0.85409253;fill:#000000;fill-opacity:1;fill-rule:evenodd;stroke:#001003;stroke-width:0.30000001;stroke-linecap:round;stroke-miterlimit:4;stroke-opacity:1;stroke-dasharray:none;stroke-dashoffset:0" />
      <path
         inkscape:connector-curvature="0"
         d="m 15.238828,15.387826 c -0.08605,0.134811 0.06756,0.03649 0.102154,0.105882 0.06241,0.125196 -0.131456,0.06093 0.103916,0.103161 0.107771,0.07878 0.06077,0.03359 0.137731,0.137336 0,0 -0.888905,0.53449 -0.888905,0.53449 l 0,0 c -0.159507,-0.05119 -0.08754,-0.02085 -0.218026,-0.08834 -0.03789,-0.0062 -0.07734,-0.0086 -0.113655,-0.01858 -0.02567,-0.007 -0.0426,-0.02878 -0.06975,-0.03176 -0.0369,-0.004 -0.09041,0.03463 -0.110754,0.01194 -0.02164,-0.02414 0.08857,-0.0672 0.05167,-0.07782 -0.132576,-0.03816 -0.170928,0.129223 -0.128742,0.0035 0,0 1.134366,-0.679842 1.134366,-0.679842 z"
         id="path3117"
         style="opacity:0.85409253;fill:#000000;fill-opacity:1;fill-rule:evenodd;stroke:#001003;stroke-width:0.20662956;stroke-linecap:round;stroke-miterlimit:4;stroke-opacity:1;stroke-dasharray:none;stroke-dashoffset:0" />
    </g>
  </g>
</svg>
